<svg width="181" height="118" viewBox="0 0 181 118" fill="none" xmlns="http://www.w3.org/2000/svg">
<path d="M174.833 3C174.833 4.47276 176.027 5.66667 177.5 5.66667C178.973 5.66667 180.167 4.47276 180.167 3C180.167 1.52724 178.973 0.333333 177.5 0.333333C176.027 0.333333 174.833 1.52724 174.833 3ZM2.54602 117.21C2.66174 117.46 2.9588 117.57 3.20953 117.454L7.29535 115.568C7.54607 115.452 7.65552 115.155 7.5398 114.905C7.42408 114.654 7.12701 114.545 6.87629 114.66L3.24445 116.336L1.56822 112.705C1.4525 112.454 1.15544 112.344 0.904709 112.46C0.653983 112.576 0.544539 112.873 0.660259 113.124L2.54602 117.21ZM177.5 2.5C155.347 2.5 120.043 8.21478 86.0623 25.3536C52.0726 42.4967 19.3842 71.0823 2.53083 116.827L3.46917 117.173C20.2158 71.7177 52.6941 43.3033 86.5127 26.2464C120.34 9.18522 155.487 3.5 177.5 3.5V2.5Z" fill="#3F5540"/>
</svg>
