<svg width="1200" height="764" viewBox="0 0 1200 764" fill="none" xmlns="http://www.w3.org/2000/svg">
<g filter="url(#filter0_f_2429_29070)">
<path d="M43.3999 616.224C59.4457 651.418 24.1437 676.602 22 712.873C41.4108 718.279 72.8048 729.529 92.4721 735.994C99.4806 738.298 124.449 742.491 130.844 735.069C137.175 727.723 143.878 712.873 153.167 712.873C211.062 712.873 265.477 742.006 324.181 742.006H454.241C467.939 742.006 481.175 722.397 493.905 715.647C512.858 705.597 544.01 712.873 563.639 712.873C587.144 712.873 610.767 713.687 634.111 709.636C648.551 707.13 660.168 702.361 676.173 705.474C700.088 710.125 724.324 721.514 747.936 724.896C769.889 728.04 787.184 708.041 809 713.797C832.166 719.91 858.846 731.872 882.424 729.058C902.778 726.628 939.068 718.669 950.129 694.144C958.055 676.568 961.719 672.42 976.878 666.167C1001.9 655.845 1031.44 654.379 1053.99 637.034C1070.65 624.226 1070.41 603.522 1074.84 582.236C1079.07 561.894 1091.26 554.284 1091.26 534.374C1091.26 509.19 1077.33 507.402 1072.07 485.819C1059.69 435.026 1100.15 415.831 1113.76 378.535C1122.03 355.886 1122.29 329.218 1129.26 305.933C1132.8 294.119 1143.86 282.132 1151.03 273.794C1176.34 244.336 1157.48 222.533 1151.77 190.325C1148.08 169.519 1157.6 166.267 1170.22 156.105C1180.44 147.867 1177.59 132.85 1177.59 119.342C1177.59 94.3725 1173.72 83.8729 1157.67 70.0929C1146.34 60.3655 1137.1 47.2014 1125.94 37.2602C1121.82 33.592 1116.84 36.8265 1113.21 33.792C1106.12 27.8714 1109 22 1097.71 22H1070.04C1058.01 22 1046.32 22.919 1034.81 28.0116C1016.61 36.0599 1000.8 62.4667 982.413 63.6188C975.134 64.075 964.861 60.8664 958.43 66.3934C953.09 70.9833 951.738 76.1045 944.779 76.1045C914.389 76.1045 860.421 63.576 837.041 94.6017C824.407 111.368 815.581 117.723 796.086 117.723C789.646 117.723 778.651 114.855 773.21 120.498C766.856 127.089 763.171 130.209 754.578 130.209H711.224C702.517 130.209 706.053 137.536 700.709 142.001C696.748 145.31 686.512 142.412 682.076 142.695C670.239 143.449 662.164 154.145 649.976 155.18C643.215 155.755 637.129 158.441 630.421 159.342C623.897 160.218 620.393 167.173 613.449 167.666C604.969 168.268 596.293 168.468 588.175 172.059C548.859 189.45 524.283 162.137 488.37 142.001C475.544 134.809 456.926 138.136 442.988 138.533C435.922 138.734 429.243 142.929 422.326 142.695C414.38 142.425 408.14 136.561 400.557 134.833C382.213 130.653 360.883 134.371 342.261 134.371C323.012 134.371 303.623 133.289 285.625 138.302C276.538 140.832 274.471 146.706 267.545 154.718C258.034 165.722 250.989 160.283 240.058 164.198C232.812 166.792 235.676 178.525 227.882 179.92C221.758 181.017 223.306 182.783 219.027 187.55C212.094 195.274 200.071 199.268 192.092 206.51C184.203 213.671 178.7 222.014 172.168 231.019C165.434 240.303 151.506 272.387 151.506 284.43C151.506 309.021 114.457 327.248 100.958 334.604C86.2079 342.642 76.5382 345.557 65.1688 359.806C54.7482 372.866 60.5627 398.785 58.1585 414.604C57.3652 419.824 49.802 436.026 47.0895 441.425C41.7843 451.986 29.2988 471.509 28.6413 483.044C27.8814 496.379 28.6413 510.139 28.6413 523.507C28.6413 557.576 30.687 588.341 43.3999 616.224Z" fill="#B3A189" fill-opacity="0.2"/>
</g>
<defs>
<filter id="filter0_f_2429_29070" x="0" y="0" width="1199.96" height="764.006" filterUnits="userSpaceOnUse" color-interpolation-filters="sRGB">
<feFlood flood-opacity="0" result="BackgroundImageFix"/>
<feBlend mode="normal" in="SourceGraphic" in2="BackgroundImageFix" result="shape"/>
<feGaussianBlur stdDeviation="11" result="effect1_foregroundBlur_2429_29070"/>
</filter>
</defs>
</svg>
