<svg width="375" height="288" viewBox="0 0 375 288" fill="none" xmlns="http://www.w3.org/2000/svg">
<path d="M223.724 34.6572C223.724 37.4172 224.234 39.185 224.718 41.7227C225.097 43.7116 224.424 45.8012 225.039 47.7662C225.516 49.2924 226.565 50.3639 226.792 52.0289C227.071 54.0717 226.879 56.2435 226.879 58.306C226.879 61.2451 226.879 64.1841 226.879 67.1232C226.879 71.4271 225.565 78.435 227.668 82.2176C229.699 85.8702 228.457 92.572 228.457 96.6696C228.457 103.135 228.706 109.654 228.457 116.114C228.409 117.374 227.507 118.083 227.405 119.267C227.237 121.225 226.922 123.347 226.354 125.223C225.088 129.397 223.198 133.52 223.198 137.953C223.198 140.944 222.985 144.019 223.198 147.004C223.281 148.16 224.449 148.805 225.039 149.748C225.644 150.716 225.26 152.34 225.302 153.427C225.447 157.205 228.457 160.678 228.457 164.463" stroke="#645841" stroke-linecap="round"/>
<path d="M228.456 175.499C228.456 179.043 229.508 181.94 229.508 185.367C229.508 188.75 231.455 191.586 229.917 195.236C229.122 197.123 227.249 200.804 227.813 202.71C228.514 205.073 227.93 208.235 227.93 210.709" stroke="#645841" stroke-linecap="round"/>
<path d="M242.692 180.896C242.692 183.031 242.58 185.194 242.692 187.325C242.797 189.309 244.301 190.906 244.301 192.951C244.301 197.713 244.301 202.475 244.301 207.237C244.301 209.673 243.497 211.882 243.497 214.261C243.497 216.285 243.497 218.309 243.497 220.333C243.497 221.697 243.163 223.561 243.556 224.887C243.878 225.971 243.297 228.076 244.301 228.578" stroke="#645841" stroke-linecap="round"/>
<path d="M234.653 32.7637C234.653 36.9376 233.854 42.1373 235.19 46.1424C235.56 47.2536 235.392 48.4063 235.785 49.5205C236.223 50.7592 236.509 51.9886 236.53 53.3303C236.575 56.1607 237.066 58.9195 237.066 61.7831C237.066 65.444 237.066 69.1049 237.066 72.7658C237.066 74.6079 236.53 76.0763 236.53 77.8852C236.53 79.4413 235.94 82.5556 237.334 83.3914" stroke="#645841" stroke-linecap="round"/>
<path d="M244.301 35.9785C243.456 37.4316 242.745 39.3135 242.692 41.0085C242.653 42.2714 242.207 43.2277 242.022 44.4462C241.681 46.696 240.816 48.8135 240.816 51.1281C240.816 53.0137 240.012 54.5302 240.012 56.3368C240.012 58.1424 240.012 59.9481 240.012 61.7537C240.012 63.8116 239.878 65.4188 239.342 67.3493C238.811 69.2596 238.136 71.0938 238.136 73.0787C238.136 74.7941 236.852 76.1521 236.795 77.826C236.741 79.427 236.527 80.9625 236.527 82.5882" stroke="#645841" stroke-linecap="round"/>
<path d="M252.071 44.8477C252.071 48.7709 251.621 52.5675 251.254 56.4154C250.997 59.1157 251.231 61.9358 251.231 64.6481C251.231 65.4654 251.369 66.4167 251.161 67.2135C250.984 67.8892 250.246 67.9623 250.04 68.6129C249.701 69.688 250.059 71.0395 249.947 72.1578C249.69 74.7261 248.71 76.7356 248.71 79.3643C248.71 82.1008 248.71 84.8373 248.71 87.5737C248.71 89.1885 248.784 90.5049 248.057 91.9583C247.454 93.1623 248.162 94.7033 247.683 95.9697C246.931 97.9609 246.61 99.3512 246.61 101.52C246.61 103.307 245.86 104.697 245.77 106.371C245.507 111.224 245.77 116.155 245.77 121.018C245.77 123.917 245.77 126.817 245.77 129.717C245.77 131.559 245.893 133.453 245.746 135.291C245.643 136.58 244.882 137.321 244.533 138.486C243.502 141.919 244.301 144.936 242.736 148.304C241.564 150.827 242.81 153.711 241.709 156.094C240.046 159.695 240.729 164.262 240.729 168.268" stroke="#645841" stroke-linecap="round"/>
<path d="M236.945 82.6309C236.945 86.3687 238.205 89.7151 238.205 93.5456" stroke="#645841" stroke-linecap="round"/>
<path d="M98.7544 78.8379C98.7021 80.2997 98.4863 81.7103 98.4863 83.1834C98.4863 85.495 99.3418 86.1794 100.899 87.6777C101.927 88.6671 103.628 88.9395 104.175 90.4159C104.831 92.1867 105.165 93.2243 105.188 95.1781C105.206 96.7888 105.926 98.4636 106.409 99.9997C106.722 100.998 106.421 102.044 106.811 103.051C107.099 103.795 107.433 104.509 107.749 105.238C108.916 107.935 108.404 111.417 108.404 114.331C108.404 117.718 108.071 121.177 108.925 124.45C109.168 125.381 109.516 126.965 110.012 127.71C110.823 128.924 110.644 130.841 111.353 132.115C112.041 133.353 112.229 135.076 112.827 136.43C113.454 137.851 113.799 139.258 114.167 140.731C114.695 142.842 115.147 144.864 115.88 146.877C116.496 148.57 116.058 149.892 115.373 151.431" stroke="#645841" stroke-linecap="round"/>
<path d="M115.641 148.217C115.641 144.987 116.713 142.009 116.713 138.871C116.713 135.312 117.249 131.947 117.249 128.395" stroke="#645841" stroke-linecap="round"/>
<path d="M115.37 122.769C114.025 120.826 114.298 118.297 114.298 116.072" stroke="#645841" stroke-linecap="round"/>
<path d="M109.744 89.2852C109.744 90.3566 109.744 91.4281 109.744 92.4996C109.744 93.7684 110.548 94.6234 110.548 95.8629C110.548 96.9647 111.084 97.7216 111.084 98.7946C111.084 100.04 111.084 101.285 111.084 102.53C111.084 103.537 110.807 104.705 111.62 105.417C112.095 105.832 112.157 106.224 112.157 106.831C112.157 107.532 112.542 107.821 112.663 108.453C112.86 109.487 112.629 111.888 113.497 112.322" stroke="#645841" stroke-linecap="round"/>
<path d="M90.1738 87.6777C90.3468 90.7031 91.9534 93.2401 92.0502 96.1901C92.0941 97.5303 93.0772 98.6566 93.3308 99.9998C93.6242 101.553 94.4248 103.036 94.7009 104.554C95.6836 109.955 96.6854 115.744 98.6918 120.924C99.1902 122.21 99.1411 123.549 99.6746 124.852C100.166 126.053 100.092 127.133 100.092 128.424C100.092 129.206 99.8182 130.574 100.151 131.281C100.488 131.997 100.36 132.922 100.36 133.692C100.36 134.613 100.713 134.974 100.866 135.776C101.037 136.674 100.852 137.548 101.134 138.454C101.452 139.477 101.88 140.279 101.983 141.356C102.085 142.427 102.772 143.203 102.772 144.333C102.772 148.063 103.04 151.783 103.04 155.509C103.04 158.858 103.22 161.917 104.231 165.152C105.003 167.618 105.989 170.017 105.989 172.593C105.989 173.829 105.634 174.719 105.482 175.852C105.247 177.613 104.38 179.458 104.38 181.195C104.38 184.508 104.38 187.822 104.38 191.136C104.38 194.89 104.916 198.411 104.916 202.193C104.916 204.394 104.756 206.216 103.844 208.22C103.123 209.807 103.741 212.341 102.504 213.577" stroke="#645841" stroke-linecap="round"/>
<path d="M118.322 84.999C118.322 87.7215 119.451 90.1135 119.797 92.7375C120.23 96.0262 122.343 99.0092 122.343 102.396C122.343 103.963 122.343 105.531 122.343 107.098C122.343 109.458 122.821 111.253 123.445 113.512C123.661 114.293 124.219 114.823 124.219 115.67C124.219 116.384 124.134 117.065 124.621 117.65C125.129 118.259 124.785 118.431 124.785 119.168C124.785 120.328 125.584 121.345 125.783 122.471C126.086 124.189 125.828 126.216 125.828 127.948C125.828 130.299 125.828 132.65 125.828 135.002C125.828 136.64 126.632 137.881 126.632 139.556C126.632 141.088 125.853 142.314 125.828 143.841C125.789 146.171 125.828 148.506 125.828 150.836C125.828 151.788 125.023 151.739 125.023 152.83C125.023 154.09 124.743 154.67 124.219 155.717" stroke="#645841" stroke-linecap="round"/>
<path d="M121.268 166.432C121.268 167.751 121.268 169.071 121.268 170.39C121.268 172.266 120.881 173.829 120.494 175.569C120.347 176.229 120.556 176.895 120.3 177.548C120.035 178.226 119.673 178.704 119.526 179.438C119.243 180.851 118.588 181.835 118.588 183.308" stroke="#645841" stroke-linecap="round"/>
<path d="M118.588 185.719C118.588 187.888 118.177 190.468 118.618 192.564C119.015 194.45 119.392 196.407 119.392 198.353C119.392 201.106 119.392 203.86 119.392 206.613C119.392 207.818 119.392 209.024 119.392 210.229C119.392 211.317 118.588 211.821 118.588 212.774" stroke="#645841" stroke-linecap="round"/>
<path d="M84.0391 82.6306C85.7721 82.2309 86.739 81.0818 88.5665 80.9514C90.3098 80.8269 91.1912 78.9775 93.0473 78.8291C93.7636 78.7718 95.8828 78.6154 96.2445 78.0128C96.5754 77.4617 97.0716 77.7124 97.5748 77.4997C98.5089 77.1048 98.2732 75.9985 99.4884 75.9138C103.744 75.6171 107.756 73.9804 112.044 72.9519C114.334 72.4026 116.44 71.9529 118.812 71.7158C120.631 71.534 122.516 70.2119 124.366 69.8267C125.796 69.5291 127.153 69.5541 128.17 68.3341C129.705 66.494 131.504 67.07 133.188 65.9786C134.363 65.2165 135.476 63.7397 136.968 63.7397C138.404 63.7397 138.697 63.1329 139.816 62.9001C140.476 62.7625 140.201 61.9423 140.819 61.7107C141.405 61.491 142.21 61.8788 142.429 61.1276C142.799 59.86 144.816 60.5034 145.393 59.5417C145.837 58.8024 150.49 57.6561 151.391 57.536C152.403 57.4011 153.265 57.6394 153.981 56.813C154.829 55.836 155.98 56.3292 157.132 56.1134C158.574 55.8432 159.517 55.01 161.053 54.9239C163.594 54.7815 165.929 54.0466 168.427 53.7345C169.907 53.5496 171.421 53.7017 172.908 53.6645C174.046 53.6361 174.133 52.8245 174.962 52.2652C175.745 51.7364 176.676 52.2376 177.482 51.9154C178.128 51.6572 178.4 50.9051 179.069 50.6327C180.462 50.0656 181.839 49.9751 183.2 49.21C185.49 47.9226 187.803 47.1609 190.504 46.9478C192.506 46.7898 194.099 45.7654 195.522 44.4523C196.607 43.4518 199.078 42.955 200.493 42.0968C201.447 41.5178 202.607 41.5901 203.667 40.884C204.742 40.1676 205.966 39.3432 207.144 38.9017C210.161 37.7712 212.322 35.1934 215.942 35.1934C217.83 35.1934 220.447 34.373 222.313 33.9341C223.291 33.7041 224.337 33.446 225.371 33.1877C226.713 32.8523 229.475 33.2044 230.248 32.045C231.21 30.6025 233.476 29.8742 234.846 28.8965" stroke="#645841" stroke-linecap="round"/>
<path d="M249.129 20.9199H249.969" stroke="#645841" stroke-linecap="round"/>
<path d="M236.105 28.4764C235.531 30.3111 239.71 28.5797 240.399 28.3831C241.342 28.1137 241.955 27.6638 242.803 27.2403C243.62 26.8319 243.321 26.1033 243.899 25.6078C244.32 25.2472 245.308 24.3397 245.86 24.2784C246.703 24.1848 247.393 24.5355 247.867 23.6487C248.64 22.2002 250.785 22.4082 252.068 21.3398" stroke="#645841" stroke-linecap="round"/>
<path d="M251.762 21.1914C254.233 24.2787 257.595 26.248 259.991 29.3785C261.085 30.8079 262.873 33.454 264.306 34.3492C269.918 37.8542 273.067 44.8036 278.095 48.8228C279.816 50.199 281.611 52.5601 283.69 53.3914C285.175 53.9847 287.904 55.4508 288.664 56.7174C290.418 59.6388 294.325 61.1987 296.089 64.2832C298.104 67.8081 301.338 70.808 304.062 73.5302C304.786 74.2535 304.809 75.6255 305.525 76.1617C306.391 76.8113 307.735 76.7495 308.597 77.4044C310.914 79.164 311.201 81.3973 314.668 82.2289C317.667 82.9481 319.52 86.4688 322.202 87.9306C326.145 90.0798 329.118 93.7986 332.882 95.6791C334.555 96.5151 335.193 98.6491 337.051 99.6264C338.708 100.498 340.635 101.454 340.635 103.428" stroke="#645841" stroke-linecap="round"/>
<path d="M320.695 97.8574C320.695 101.955 320.695 106.052 320.695 110.15C320.695 112.755 321.231 115.153 321.231 117.739C321.231 119.863 321.231 121.986 321.231 124.109C321.231 128.216 321.231 132.324 321.231 136.431C321.231 137.779 321.132 139.165 321.231 140.509C321.345 142.043 322.304 143.367 322.304 145.003C322.304 145.547 322.572 146.84 322.572 145.509C322.572 143.837 322.572 142.165 322.572 140.494C322.572 138.425 322.523 136.707 323.093 134.809C324.049 131.624 324.716 128.616 324.716 125.18C324.716 124.114 325.708 123.614 325.788 122.621C325.877 121.53 326.056 120.428 326.056 119.332C326.056 117.844 326.056 116.355 326.056 114.867C326.056 112.945 325.783 110.852 326.086 108.959C326.417 106.894 326.86 104.803 326.86 102.679" stroke="#645841" stroke-linecap="round"/>
<path d="M327.935 193.22C327.935 188.123 327.398 183.339 327.398 178.219C327.398 173.734 327.398 169.25 327.398 164.766C327.398 162.859 327.617 161.435 328.173 159.632C328.431 158.793 328.471 157.722 328.471 156.849C328.471 155.544 328.471 154.239 328.471 152.935C328.471 151.861 329.007 150.847 329.007 149.676C329.007 147.367 328.792 144.933 329.022 142.637C329.154 141.309 329.766 140.185 329.811 138.782C329.842 137.832 330.189 136.211 330.615 135.359" stroke="#645841" stroke-linecap="round"/>
<path d="M330.611 131.609V134.02" stroke="#645841" stroke-linecap="round"/>
<path d="M330.611 131.876C330.611 129.718 330.816 127.934 331.564 125.924C331.832 125.206 331.845 124.322 331.981 123.572C332.18 122.482 332.945 121.537 333.232 120.477C334.171 117.007 334.364 113.049 334.364 109.375" stroke="#645841" stroke-linecap="round"/>
<path d="M312.12 95.9824C312.12 97.6244 312.12 99.2663 312.12 100.908C312.12 102.385 311.783 104.318 312.179 105.745C312.559 107.111 312.924 107.836 312.924 109.346C312.924 110.538 313.592 111.7 313.862 112.888C314.323 114.914 314.532 117.049 314.532 119.138C314.532 124.099 314.532 129.06 314.532 134.02C314.532 135.994 314.601 137.858 314.785 139.794C314.838 140.347 314.774 140.907 314.8 141.461C314.826 141.998 315.145 141.856 315.307 142.22C315.725 143.161 315.056 144.166 315.739 145.122C316.685 146.446 316.141 149.443 316.141 151.045C316.141 153.401 316.141 155.757 316.141 158.114C316.141 160.615 316.065 163.129 316.141 165.629C316.161 166.3 316.559 166.601 316.647 167.192C316.824 168.388 316.908 169.391 317.362 170.54C317.794 171.635 318.285 172.963 318.285 174.141C318.285 176.339 318.285 178.536 318.285 180.734C318.285 181.631 318.101 182.422 317.883 183.294C317.67 184.144 317.891 185.041 317.615 185.868C317.032 187.615 317.168 189.472 316.736 191.285C316.636 191.706 316.262 191.828 316.17 192.193C316.035 192.735 316.141 193.408 316.141 193.964C316.141 194.234 315.873 196.337 315.873 195.363" stroke="#645841" stroke-linecap="round"/>
<path d="M336.512 199.38C336.512 200.687 336.514 200.688 337.152 201.538C337.61 202.148 337.808 203.585 338.418 203.934C339.272 204.422 338.935 204.994 339.52 205.601C340.068 206.17 341.086 206.902 341.813 207.148C342.962 207.538 344.484 208.047 345.759 207.654C347.359 207.162 346.739 203.439 346.429 202.356C346.15 201.38 341.516 195.131 340.756 195.511C339.978 195.899 338.827 195.264 338.12 195.808C337.278 196.458 337.386 197.455 337.316 198.368C337.283 198.796 336.944 198.706 336.81 199.008C336.668 199.326 336.78 199.904 336.78 200.243C336.78 200.768 336.558 201.814 337.048 202.059" stroke="#645841" stroke-linecap="round"/>
<path d="M329.273 194.023C330.259 194.023 332.434 193.72 333.279 194.424C334 195.025 334.677 195.604 335.707 195.898" stroke="#645841" stroke-linecap="round"/>
<path d="M316.139 196.434C317.365 196.524 318.115 197.392 319.251 197.639C319.733 197.744 320.51 197.626 320.904 197.952C321.462 198.413 321.531 198.577 322.304 198.577C324.685 198.577 326.524 195.465 327.665 193.755" stroke="#645841" stroke-linecap="round"/>
<path d="M295.768 189.469C297.676 189.469 299.496 190.004 301.397 190.004C302.743 190.004 303.991 190.655 305.373 190.793C307.486 191.004 309.444 192.415 311.582 192.415" stroke="#645841" stroke-linecap="round"/>
<path d="M295.768 199.648C297.061 199.648 298.458 199.495 299.729 199.767C301.223 200.087 302.557 200.988 304.047 201.36C305.516 201.727 306.853 201.964 308.276 202.476C309.792 203.021 311.821 202.89 313.22 203.666C315.483 204.923 318.318 204.234 320.696 204.783C322.444 205.186 323.825 206.345 325.729 206.345C328.112 206.345 330.414 206.27 332.684 207.164C334.649 207.937 335.937 208.22 338 208.22C338.863 208.22 339.312 208.787 340.115 208.979C340.66 209.11 341.312 209.024 341.872 209.024" stroke="#645841" stroke-linecap="round"/>
<path d="M39.6688 97.1953C39.6688 100.995 39.3241 104.968 39.6688 108.757C39.758 109.738 41.0058 109.609 40.8374 110.45C40.6517 111.378 40.8248 111.685 41.2757 112.436C42.1883 113.956 45.1698 115.175 46.476 116.698C47.7754 118.213 48.7789 119.938 49.8942 121.486C51.0377 123.074 50.9356 125.122 51.8808 126.917C53.7895 130.541 53.7733 135.15 53.3123 139.296C52.2628 148.735 51.7585 158.584 52.2898 168.142C52.3697 169.578 53.275 170.766 53.3416 172.229C53.3957 173.419 53.0854 174.85 53.4292 175.995C53.7857 177.183 54.9192 177.44 54.9192 178.769C54.9192 179.713 54.9192 180.657 54.9192 181.601C54.9192 185.124 53.5602 192.644 55.4451 195.469" stroke="#645841" stroke-linecap="round"/>
<path d="M83.2305 94.875C83.2305 98.7736 83.2305 102.672 83.2305 106.571C83.2305 108.72 83.5127 109.983 84.4008 111.98C85.5924 114.659 84.8048 117.358 86.1929 119.948C88.4989 124.25 87.1804 131.233 87.1804 136.066C87.1804 141.293 87.1804 146.519 87.1804 151.746C87.1804 168.276 86.5221 185.075 86.5221 201.453" stroke="#645841" stroke-linecap="round"/>
<path d="M68.1113 195.529C68.2727 196.443 69.2812 196.66 69.9942 197.094C71.3961 197.948 72.712 198.979 74.0768 199.889C74.9074 200.442 74.7788 200.895 75.9783 200.895C76.6737 200.895 77.7488 200.663 78.1408 201.398C79.0827 203.163 84.1264 201.456 85.2062 203.074C85.9063 204.124 89.1901 204.411 90.3328 204.919C91.2447 205.324 93.6075 205.559 94.3595 206.186C96.6503 208.093 100.052 207.519 102.525 209.055C102.991 209.344 104.714 209.221 105.396 209.297C107.095 209.485 108.253 210.271 109.702 211.085C110.251 211.394 110.802 211.183 111.38 211.327C112.022 211.488 112.528 211.963 113.225 212.129C113.937 212.298 114.724 212.147 115.407 212.352C116.319 212.626 116.556 213.302 117.625 213.302C118.879 213.302 120.011 214.161 120.608 215.165C120.844 215.562 123.006 216.631 123.479 216.656C124.389 216.703 124.896 217.326 126.089 217.326C127.411 217.326 128.565 217.339 129.854 217.662" stroke="#645841" stroke-linecap="round"/>
<path d="M127.506 220.68C126.286 220.832 126.685 228.999 126.853 230.349C127.204 233.149 130.678 236.918 133.695 235.062C134.398 234.63 133.629 233.634 134.404 233.087C135.459 232.343 135.224 230.97 135.224 229.808C135.224 228.306 135.224 226.803 135.224 225.3C135.224 220.549 130.606 219.674 126.835 219.674" stroke="#645841" stroke-linecap="round"/>
<path d="M128.175 235.435C126.429 233.884 124.095 232.865 122.21 231.56C121.311 230.939 120.411 230.07 119.283 230.07C117.623 230.07 116.398 229.162 114.827 229.064C112.162 228.897 109.31 228.299 107.445 226.344C105.948 224.774 103.856 225 101.908 224.499C100.295 224.085 98.6608 223.287 97.2664 222.394C95.791 221.449 94.0169 220.547 92.3635 219.972C90.686 219.389 88.6271 219.263 87.0505 218.519C85.8589 217.957 84.6441 217.607 83.4152 217.029C82.4862 216.592 81.6905 215.737 80.6748 215.65C78.8503 215.494 77.411 213.968 75.9956 213.005C74.3067 211.855 72.2349 211.363 70.1979 211.291C67.2546 211.186 64.6463 208.943 61.7344 208.943" stroke="#645841" stroke-linecap="round"/>
<path d="M117.102 158.977C115.643 158.612 118.073 153.701 119.19 153.611C120.182 153.532 121.215 153.611 122.21 153.611C123.269 153.611 123.861 154.378 124.82 154.617" stroke="#645841" stroke-linecap="round"/>
<path d="M116.99 159.031C117.099 160.12 118.675 160.764 119.47 161.253C120.148 161.67 120.849 162.418 121.323 163.039C121.645 163.459 121.814 164.042 122.197 164.425C122.646 164.874 123.368 165.32 123.898 165.688C125.693 166.936 127.84 168.533 129.904 169.22C130.606 169.454 131.118 170.051 131.804 170.313C133.294 170.88 134.58 171.813 136.071 172.402C137.081 172.801 137.909 173.385 138.712 174.073C139.29 174.568 139.807 175 140.423 175.478C143.412 177.801 146.615 179.978 149.849 181.945C150.739 182.486 151.754 183.037 152.548 183.711C152.992 184.088 153.657 184.062 154.068 184.443C155.247 185.534 156.862 186.013 158.031 187.063C160.393 189.188 163.412 190.879 166.117 192.476C166.593 192.757 166.984 193.077 167.371 193.464C167.883 193.975 168.584 194.23 169.072 194.755C169.903 195.649 171.599 195.852 172.322 196.816C173.004 197.724 174.206 198.101 175.03 198.895C175.877 199.713 176.715 200.273 177.368 201.25" stroke="#645841" stroke-linecap="round"/>
<path d="M178.907 200.567C178.907 201.234 178.565 201.735 178.565 202.438C178.565 203.143 179.264 203.424 179.601 203.985C180.395 205.308 182.871 205.226 183.487 203.815C183.954 202.745 184.209 201.578 184.209 200.415C184.209 199.274 182.847 199.046 181.891 198.848C180.868 198.637 180.046 198.458 178.983 198.516C178.083 198.564 178.223 199.979 178.223 200.567" stroke="#645841" stroke-linecap="round"/>
<path d="M183.009 198.515C182.486 197.994 181.846 197.769 181.222 197.395C180.622 197.035 180.222 196.528 179.521 196.312C178.592 196.027 177.542 194.896 176.718 194.337C175.733 193.669 174.817 192.552 173.753 192.02C172.198 191.243 170.982 189.89 169.534 188.944C168.733 188.42 167.954 188.261 167.235 187.614C166.116 186.608 164.588 186.13 163.415 185.193C162.976 184.841 162.418 184.664 161.932 184.385C161.203 183.966 160.649 183.399 159.975 182.923C159.28 182.432 158.682 181.821 157.942 181.413C157.15 180.977 156.381 180.693 155.728 180.065C154.914 179.282 153.902 178.947 153 178.346C152.218 177.825 151.71 177.29 150.986 176.637C150.229 175.954 149.313 175.174 148.401 174.719C148.119 174.578 147.894 174.048 147.679 173.816C147.204 173.303 146.663 172.864 146.14 172.401C144.732 171.158 143.457 169.93 141.892 168.859C140.769 168.092 139.713 167.486 138.671 166.514C137.847 165.745 136.667 165.299 135.763 164.615C135.02 164.052 134.324 163.528 133.511 163.057C133.125 162.834 132.868 162.515 132.513 162.279C131.894 161.866 131.114 161.13 130.404 160.949C129.755 160.784 129.565 160.136 128.96 159.867C128.345 159.594 127.802 159.196 127.164 158.936C125.248 158.156 122.951 156.229 122.289 154.245" stroke="#645841" stroke-linecap="round"/>
<path d="M275.541 192.191C275.541 193.987 276.575 195.097 278.487 195.097C280.403 195.097 281.014 193.841 281.014 192.191C281.014 191.69 280.224 190.632 279.883 190.33C279.228 189.748 278.377 189.706 277.517 189.637C276.65 189.568 275.908 189.537 275.379 190.33C275.101 190.747 275.199 191.336 275.199 191.812C275.199 192.458 275.036 192.763 275.712 192.875" stroke="#645841" stroke-linecap="round"/>
<path d="M201.683 154.109C201.495 154.864 199.515 154.795 198.914 154.973C198.466 155.105 198.296 155.568 197.841 155.776C197.461 155.95 197.663 157.282 197.663 157.651C197.663 158.971 198.56 158.931 199.658 158.931C201.801 158.931 203.224 160.07 205.198 160.509C206.012 160.689 206.424 161.08 207.178 161.312C207.536 161.422 207.864 161.243 208.176 161.52C208.438 161.753 208.697 162.217 209.04 162.354C209.964 162.723 210.817 162.518 211.75 163.009C212.367 163.333 213.906 163.72 214.609 163.753C215.631 163.8 216.069 163.921 216.903 164.556C217.784 165.227 218.953 165.342 219.658 166.164C220.61 167.274 222.355 168.702 223.678 169.363C224.377 169.712 225.575 170.047 226.076 170.583C226.831 171.392 228.493 171.114 229.501 171.67C230.865 172.422 233.014 173.273 234.028 174.468C234.678 175.233 236.036 175.735 237.006 175.807C237.974 175.879 239.231 176.874 240.119 177.236C241.681 177.872 243.344 179.557 245.107 179.557C245.865 179.557 246.065 180.361 246.864 180.361C247.727 180.361 248.445 181.264 249.247 181.551C250.864 182.131 252.703 182.408 254.221 183.188C255.005 183.591 255.123 184.168 256.157 184.528C259.045 185.532 262.02 186.928 265.017 188.07C265.544 188.27 266.129 188.193 266.655 188.427C267.484 188.795 268.563 189.835 269.38 190.391C270.903 191.426 274.633 191.772 275.129 193.754" stroke="#645841" stroke-linecap="round"/>
<path d="M201.953 153.842C203.616 153.929 204.899 155.717 206.51 155.717C207.874 155.717 208.966 156.785 210.054 157.413C211.529 158.265 213.357 158.458 214.671 159.616C215.675 160.501 217.047 161.607 218.423 161.937C219.572 162.213 220.274 163.238 221.401 163.634C222.285 163.945 223.607 163.729 224.335 164.289C224.829 164.668 225.387 164.477 225.943 164.691C226.334 164.841 226.722 164.77 227.12 164.869C227.712 165.017 227.831 165.551 228.49 165.628C229.524 165.75 230.315 166.329 231.379 166.432C231.857 166.478 232.239 166.862 232.66 167.057C233.358 167.38 234.167 167.359 234.908 167.518C235.789 167.707 236.418 168.203 236.978 168.843C237.613 169.567 238.582 169.559 239.197 170.42C239.688 171.107 241.374 171.953 242.16 172.31C242.94 172.664 243.616 173.281 244.364 173.605C245.231 173.98 245.909 174.661 246.777 175.004C247.512 175.294 248.463 175.059 248.996 175.673C249.857 176.667 252.265 176.979 253.463 177.37C254.43 177.685 255.328 177.932 256.218 178.426C256.929 178.821 257.141 179.403 258.035 179.617C258.985 179.844 260.216 180.086 260.939 180.763C262.394 182.126 264.793 183.388 266.761 183.576C267.914 183.685 268.738 184.518 269.918 184.707C270.872 184.859 271.767 185.278 272.718 185.451C275.965 186.041 277.719 187.734 280.223 189.737" stroke="#645841" stroke-linecap="round"/>
<path d="M203.317 161.471C203.317 163.885 203.317 166.3 203.317 168.715C203.317 170.557 202.907 172.331 202.907 174.161C202.907 175.666 202.907 177.17 202.907 178.675C202.907 185.555 203.181 192.464 203.181 199.353C203.181 203.474 203.181 207.596 203.181 211.717C203.181 212.286 203.181 212.855 203.181 213.424C203.181 214.604 202.807 214.022 201.951 214.402C201.402 214.646 201.457 214.66 200.979 214.455C200.672 214.324 200.377 214.038 200.038 214.038C199.78 214.038 199.566 214.034 199.325 213.932C198.961 213.778 199.138 213.492 198.672 213.492" stroke="#645841" stroke-linecap="round"/>
<path d="M197.851 160.105C198.691 160.175 198.261 164.122 198.261 164.945C198.261 168.187 197.715 171.333 197.715 174.579C197.715 181.441 197.715 188.303 197.715 195.166C197.715 197.656 197.851 200.132 197.851 202.622C197.851 204.077 198.124 205.385 198.124 206.817C198.124 207.606 198.124 208.395 198.124 209.184C198.124 209.825 198.337 210.073 198.504 210.655C198.761 211.557 198.534 212.828 198.534 213.765" stroke="#645841" stroke-linecap="round"/>
<path d="M209.326 193.148C209.326 191.712 209.876 191.029 210.601 189.901C211.18 189.003 211.302 187.831 211.444 186.784C211.613 185.536 211.512 184.224 211.512 182.968C211.512 181.417 211.785 179.928 211.785 178.356C211.785 177.268 211.518 175.802 211.922 174.791C212.088 174.376 212.045 174.02 212.059 173.577C212.083 172.797 212.462 172.059 212.271 171.271C212.121 170.65 211.659 168.417 212.195 167.881C212.624 167.452 212.754 166.635 213.015 166.113" stroke="#645841" stroke-linecap="round"/>
<path d="M209.602 193.285C209.678 192.943 210.032 192.449 210.345 192.284C210.954 191.961 211.448 191.543 212.061 191.206C212.807 190.797 213.743 190.059 214.11 189.325" stroke="#645841" stroke-linecap="round"/>
<path d="M218.619 187.55C219.478 187.022 220.569 187.314 221.428 186.837C221.585 186.75 221.547 186.534 221.762 186.473C221.929 186.425 222.108 186.476 222.278 186.428C222.633 186.326 223.212 186.215 223.507 186.018C224.258 185.518 225.14 185.534 225.906 185.032C226.254 184.804 226.653 184.527 227.029 184.334C227.345 184.172 227.718 184.301 228.047 184.137" stroke="#645841" stroke-linecap="round"/>
<path d="M228.457 187.004C227.717 187.045 226.77 187.573 226.028 187.793C225.163 188.049 224.296 188.319 223.447 188.642C222.529 188.992 221.658 189.061 220.813 189.598C220.131 190.032 219.504 190.475 218.893 190.964" stroke="#645841" stroke-linecap="round"/>
<path d="M213.972 193.285C213.682 193.34 213.541 193.852 213.319 194.074C212.963 194.43 212.641 194.815 212.332 195.212C211.896 195.772 211.433 196.25 211.209 196.941C211.039 197.465 210.942 197.982 210.693 198.481C210.386 199.095 210.346 199.825 210.124 200.469C209.785 201.451 208.775 202.059 208.431 202.964C208.209 203.548 208.129 204.326 207.968 204.944C207.838 205.441 207.743 205.928 207.611 206.423C207.507 206.815 207.538 207.225 207.444 207.622C207.356 207.995 207.186 208.244 207.072 208.631C206.923 209.138 206.524 210.006 206.169 210.406C205.095 211.613 203.998 212.522 203.998 214.312" stroke="#645841" stroke-linecap="round"/>
<path d="M209.875 166.66C209.796 167.054 209.601 167.301 209.601 167.737C209.601 168.627 209.601 169.517 209.601 170.407C209.601 172.177 209.163 173.931 208.736 175.657C208.316 177.354 208.004 179.154 207.84 180.913C207.657 182.886 208.18 184.738 208.235 186.671C208.259 187.512 208.508 188.296 208.508 189.159C208.508 190.08 208.571 191.029 208.432 191.943C208.238 193.219 207.594 194.154 207.165 195.333C206.851 196.196 206.736 197.08 206.201 197.867C205.228 199.298 203.316 200.567 203.316 202.433" stroke="#645841" stroke-linecap="round"/>
<path d="M234.152 176.637C234.152 179.036 233.981 181.413 233.981 183.806C233.981 184.809 233.639 185.683 233.639 186.683C233.639 187.899 233.771 189.191 233.63 190.396C233.366 192.632 232.784 194.833 232.784 197.11C232.784 199.364 233.297 201.52 233.297 203.776C233.297 205.169 233.297 206.562 233.297 207.955C233.297 209.987 233.297 212.019 233.297 214.051C233.297 214.754 233.297 215.456 233.297 216.159C233.297 217.223 232.934 218.083 232.812 219.112C232.642 220.557 232.707 222.187 232.784 223.642C232.813 224.192 233.114 224.674 233.126 225.275C233.138 225.863 233.072 226.441 233.221 227.013C233.559 228.318 233.443 230.165 234.912 230.783C236.141 231.3 237.414 231.334 238.77 231.334" stroke="#645841" stroke-linecap="round"/>
<path d="M239.281 178.518C239.281 180.534 239.965 182.422 239.965 184.443C239.965 187.353 239.794 190.258 239.794 193.16C239.794 198.797 239.623 204.437 239.623 210.063C239.623 213.039 239.623 216.014 239.623 218.99C239.623 219.815 239.5 220.744 239.775 221.534C240.132 222.561 240.478 223.355 240.478 224.459C240.478 224.959 240.478 225.46 240.478 225.96C240.478 227.003 240.258 227.664 239.984 228.656C239.672 229.787 239.565 230.884 239.281 232.018" stroke="#645841" stroke-linecap="round"/>
<path d="M217.904 169.8C217.904 173.652 217.904 177.504 217.904 181.356C217.904 182.878 218.246 184.323 218.246 185.829C218.246 187.272 218.275 188.606 218.55 190.026C218.773 191.178 218.683 192.325 218.797 193.483C218.962 195.154 219.762 196.696 220.013 198.364C220.229 199.798 220.114 201.163 220.488 202.58C220.85 203.948 221.133 205.296 221.154 206.72C221.178 208.453 220.795 209.988 220.479 211.687C220.088 213.787 219.421 215.614 219.747 217.736C219.921 218.866 219.989 219.914 220.279 221.002C220.437 221.592 219.936 222.304 219.51 222.588C218.631 223.174 216.412 221.78 216.193 220.907" stroke="#645841" stroke-linecap="round"/>
<path d="M214.141 176.295C214.141 176.96 214.141 177.624 214.141 178.289C214.141 179.483 214.654 180.507 214.654 181.689C214.654 182.926 214.542 184.226 214.758 185.449C215.359 188.849 215.167 192.295 215.167 195.743C215.167 197.381 215.659 199.053 216.051 200.643C216.401 202.067 216.729 203.502 217.115 204.916C217.523 206.411 217.219 208.303 217.219 209.863C217.219 211.247 216.169 212.353 215.566 213.557C215.059 214.57 214.654 215.54 214.654 216.672C214.654 217.436 214.295 220.561 214.996 220.736" stroke="#645841" stroke-linecap="round"/>
<path d="M263.025 191.43C262.521 195.241 262.597 198.993 262.597 202.842C262.597 206.723 262.383 210.603 262.383 214.492C262.383 216.946 262.775 219.781 262.24 222.195C262.083 222.906 261.661 223.499 261.527 224.216C261.285 225.505 261.158 226.806 260.884 228.091C260.177 231.408 260.456 234.865 260.456 238.243C260.456 240.017 260.364 241.749 260.837 243.474C261.069 244.324 261.512 245.04 261.693 245.899C262.05 247.591 261.741 249.605 261.741 251.344C261.741 252.08 262.122 254.304 261.217 254.339C259.898 254.391 258.565 254.339 257.244 254.339" stroke="#645841" stroke-linecap="round"/>
<path d="M257.247 185.867C257.247 192.053 256.575 198.1 255.415 204.15C254.939 206.635 255.106 209.218 255.106 211.735C255.106 214.273 255.016 216.832 255.153 219.367C255.304 222.152 255.985 224.795 255.962 227.593C255.952 228.845 255.874 230.081 255.522 231.29C255.268 232.162 254.913 232.873 254.892 233.798C254.788 238.232 254.892 242.677 254.892 247.113C254.892 249.221 254.892 251.329 254.892 253.437C254.892 254.114 254.598 255.354 255.534 255.41C256.32 255.457 256.743 254.982 257.461 254.982" stroke="#645841" stroke-linecap="round"/>
<path d="M161.107 272.528C162.702 272.719 164.11 273.598 165.735 273.598C167.112 273.598 167.415 273.206 167.745 271.886" stroke="#645841" stroke-linecap="round"/>
<path d="M170.099 199.988C170.099 207.485 170.099 214.983 170.099 222.48C170.099 225.975 170.099 229.47 170.099 232.965C170.099 234.57 170.297 236.249 169.576 237.732C168.854 239.217 169.029 241.121 169.029 242.736C169.029 248.149 169.704 253.734 169.195 259.141C168.917 262.094 168.111 264.816 167.506 267.689C167.345 268.452 166.968 268.67 167.197 269.626C167.373 270.365 167.524 271.561 168.172 271.885" stroke="#645841" stroke-linecap="round"/>
<path d="M161.963 193.783C162.421 194.355 162.157 195.562 162.213 196.208C162.37 198.045 162.886 199.892 163.319 201.677C163.913 204.127 163.462 207.11 163.462 209.606C163.462 211.683 163.274 213.591 163.045 215.645C162.331 222.074 162.391 228.425 162.391 234.903C162.391 238.024 162.087 240.838 161.273 243.854C160.783 245.671 160.759 247.354 160.048 249.132C159.143 251.393 158.841 253.774 158.442 256.146C157.975 258.916 157.293 261.751 157.026 264.551C156.868 266.208 157.199 267.725 157.669 269.211C157.865 269.832 157.895 270.379 157.895 271.029C157.895 271.457 158.338 271.702 158.537 272.099" stroke="#645841" stroke-linecap="round"/>
<path d="M140.42 244.324C140.97 244.374 141.37 244.771 141.788 245.093C142.549 245.68 143.422 246.243 144.316 246.603C145.391 247.036 146.518 246.375 147.604 246.375" stroke="#645841" stroke-linecap="round"/>
<path d="M148.258 183.299C148.406 185.128 148.861 186.896 148.9 188.743C148.94 190.602 148.922 192.472 148.9 194.331C148.856 198.06 148.425 201.877 148.044 205.588C147.835 207.62 147.178 209.522 146.902 211.532C146.689 213.078 146.759 214.659 146.759 216.216C146.759 220.302 147.401 224.306 147.401 228.377C147.401 229.396 147.495 229.602 147.901 230.398C148.26 231.101 148.044 232.27 148.044 233.037C148.044 234.681 148.044 236.326 148.044 237.97C148.044 240.645 148.044 243.32 148.044 245.995" stroke="#645841" stroke-linecap="round"/>
<path d="M142.479 178.805C142.517 179.954 142.721 181.043 143.121 182.121C143.545 183.267 143.335 184.646 143.335 185.842C143.335 187.174 143.335 188.505 143.335 189.836C143.335 191.745 143.736 193.593 143.763 195.495C143.835 200.606 142.907 205.592 142.907 210.699C142.907 215.878 142.907 221.058 142.907 226.237C142.907 228.614 142.907 230.992 142.907 233.369C142.907 235.254 142.365 236.198 141.313 237.744C140.397 239.09 140.98 242.191 140.98 243.854" stroke="#645841" stroke-linecap="round"/>
<path d="M134.344 173.67C134.344 184.639 134.986 195.535 134.986 206.504C134.986 211.116 134.772 215.703 134.772 220.317" stroke="#645841" stroke-linecap="round"/>
<path d="M127.92 170.031C127.92 174.562 129.749 178.783 130.608 183.179C131.087 185.628 130.918 188.176 130.918 190.656C130.918 193.521 130.918 196.386 130.918 199.251C130.918 201.969 130.529 204.996 131.239 207.644C131.704 209.378 131.56 211.16 131.56 212.946C131.56 214.333 131.56 215.72 131.56 217.107" stroke="#645841" stroke-linecap="round"/>
<path d="M189.879 4.08594C194.719 4.62335 197.514 12.501 200.375 15.599C202.919 18.3529 206.421 21.219 210.287 22.5068" stroke="#645841" stroke-linecap="round"/>
<path d="M35.9883 78.8011C39.2586 78.6088 42.1044 76.52 45.2787 75.7647C47.2155 75.3039 48.4028 73.7197 50.1869 72.8451C51.6094 72.1477 54.3017 72.2726 54.949 70.6554C55.6066 69.0124 57.7993 68.6455 59.2728 68.2613C61.1959 67.76 63.2411 64.8856 64.853 63.6775C69.6171 60.1068 74.2712 60.7193 79.3729 58.831C81.1238 58.183 83.2001 58.1628 84.8362 57.2544C86.4416 56.3631 87.5737 55.331 89.3354 54.6268C91.9336 53.5882 95.3059 51.8104 96.8145 49.897C98.929 47.215 104.282 48.0376 106.66 45.868C107.339 45.2488 107.698 43.9845 108.617 43.6783C109.506 43.3823 110.303 43.5495 111.159 43.0359C112.78 42.0642 113.403 40.4375 115.395 40.4375" stroke="#645841" stroke-linecap="round"/>
<path d="M117.498 39.3862C118.66 39.3862 120.82 39.8118 121.91 39.3278C122.624 39.0103 122.345 38.3865 123.4 38.3351C124.066 38.3027 124.873 38.5244 125.415 38.0724C126.494 37.174 128.116 36.4644 128.834 35.182C129.934 33.2146 130.888 33.4181 132.632 32.3208C133.82 31.5728 135.041 30.7448 136.137 29.8683C137.145 29.0624 137.487 27.9568 138.942 27.8246C139.911 27.7365 140.973 28.0079 141.922 27.737C143.505 27.2851 146.007 25.2919 147.473 24.3502C149.389 23.1196 151.055 21.5182 153.462 21.5182C155.956 21.5182 154.866 20.4332 156.53 19.5329C157.552 18.9792 159.054 18.4676 159.919 17.7227C162.258 15.7076 165.823 13.3709 168.508 12.0295C170.99 10.7894 173.365 9.90764 175.461 8.14644C178.692 5.43107 181.647 4.17578 185.862 4.17578" stroke="#645841" stroke-linecap="round"/>
<path d="M185.219 11.7637C183.606 14.8257 179.67 16.3809 176.83 17.7998" stroke="#645841" stroke-linecap="round"/>
<path d="M175.492 17.7997C174.264 17.7997 173.079 17.7915 171.857 17.6507C170.857 17.5353 171.524 18.0578 171.466 18.8802C171.407 19.6949 170.408 20.6944 169.788 21.1904C169.156 21.6956 169.326 22.6878 168.52 23.0906C166.907 23.8969 165.64 24.3583 163.748 24.7673C162.779 24.9767 162.101 25.3364 161.194 25.5498C160.815 25.6388 158.235 26.0893 158.062 26.4067C157.52 27.3999 158.258 30.7799 157.354 31.2319C156.05 31.8831 155.573 33.1707 153.942 33.4861C152.718 33.7228 151.494 34.4256 150.269 34.548C148.212 34.7536 146.208 35.434 144.174 35.5726C143.365 35.6278 142.748 36.4457 141.769 36.6159C138.811 37.1299 140.87 39.135 139.327 40.6772C138.027 41.9756 134.997 43.6208 133.212 43.6208C131.811 43.6208 130.401 44.7676 129.167 44.4591C127.796 44.1167 126.596 44.5798 125.233 44.6268C124.036 44.668 121.352 44.8504 121.132 46.3035C120.758 48.7702 117.902 49.7517 116.192 51.0541C114.088 52.6555 111.742 53.0969 109.35 54.0163C107.615 54.683 103.18 53.4813 102.079 55.5439C101.672 56.3066 102.471 57.6428 101.595 58.2266C100.534 58.9336 99.1317 58.4136 98.1087 59.1954C97.2296 59.8672 94.9667 59.3817 93.8769 59.3817C90.745 59.3817 88.3569 60.4597 85.5625 61.729" stroke="#645841" stroke-linecap="round"/>
<path d="M187.236 12.0996C187.406 13.5152 189.117 13.3835 189.25 14.447C189.354 15.2825 190.23 15.8518 190.946 16.2541C192.004 16.849 193.71 16.3691 194.88 16.459C195.584 16.5131 195.29 18.2943 195.29 18.8064C195.29 21.4213 198.708 22.1176 200.771 22.9422C202.9 23.7934 205.43 24.1718 207.705 24.1718" stroke="#645841" stroke-linecap="round"/>
<path d="M260.47 4.12695C260.027 6.63326 255.448 7.07157 253.608 7.57862C251.333 8.20603 249.683 9.18501 247.237 9.561C245.473 9.83224 243.965 11.2074 242.336 11.9399C239.704 13.1239 237.358 14.6219 234.518 14.6219C232.326 14.6219 230.506 15.8024 228.217 15.8813C227.012 15.9228 226.99 16.6996 226 17.0707C225.067 17.4205 224.23 17.2301 223.456 18.0036C222.068 19.3909 218.984 19.2334 217.202 19.8694C215.724 20.397 213.476 20.3417 212.254 21.4319C210.859 22.6769 209.191 23.4482 207.68 24.5105C206.279 25.4956 204.979 26.5104 203.316 26.8427C201.266 27.2524 198.759 28.1374 196.805 28.9183C195.25 29.5401 193.834 30.5068 192.278 31.1339C191.537 31.4326 190.69 31.3036 189.991 31.6937C189.525 31.9534 189.187 32.5864 188.637 32.6732C187.742 32.8144 186.806 32.5434 185.907 32.7431C184.278 33.1049 182.759 33.905 181.076 34.2591C179.404 34.6108 178.003 35.4233 176.268 35.5884C173.116 35.8884 170.492 37.6272 167.61 38.1072C163.104 38.8578 159.22 39.6571 155.544 42.5617C154 43.7822 152.494 45.1514 150.41 45.2671C148.533 45.3713 145.047 45.8994 143.479 46.8064C142.406 47.427 142.221 47.9977 140.982 48.299C139.315 48.7043 137.57 49.2071 135.988 49.8616C134.816 50.3461 133.585 50.3745 132.347 50.6312C130.61 50.9914 129.476 51.9839 127.633 51.9839C125.937 51.9839 125.681 52.7195 124.319 53.1733C122.792 53.6818 121.604 53.4058 120.072 54.2228C118.068 55.2906 115.026 55.3962 112.837 55.9719C110.918 56.4765 108.746 57.4412 106.723 57.4412C105.1 57.4412 103.286 58.8151 101.682 59.1204C97.1777 59.9777 94.0187 62.6499 89.4995 63.2951C86.168 63.7707 82.8575 65.3895 79.8612 66.8867C77.9559 67.8387 75.937 68.3181 73.9568 69.2888C71.7952 70.3486 68.6303 71.1038 66.2321 71.6677C63.4611 72.3193 61.3292 73.6505 58.4141 74.2331" stroke="#645841" stroke-linecap="round"/>
<path d="M260.469 3.28816C262.089 2.20876 266.222 -0.564059 267.703 2.1687C268.161 3.01375 269.987 3.39618 270.481 4.54755C270.889 5.50019 271.612 6.82933 272.324 7.62607C275.908 11.6371 279.142 16.1244 282.593 19.9868C285.055 22.7433 288.217 24.7141 290.761 27.4032C293.089 29.8645 296.071 31.6801 298.695 33.8401C303.691 37.9514 307.939 42.3241 311.741 47.3902C313.842 50.1897 316.839 51.8889 319.349 54.0837C320.545 55.1296 322.052 55.4737 323.246 56.6024C324.983 58.2437 326.949 59.7274 328.941 61.0336C332.48 63.3544 335.396 66.2396 338.999 68.52C340.33 69.3623 342.113 69.9316 343.037 71.2953C343.99 72.704 345.997 72.831 347.191 74.024C348.788 75.6203 351.452 77.5037 353.515 78.4552C356.358 79.7663 358.204 83.2396 360.4 85.3119C363.033 87.7975 365.062 90.6569 367.541 93.3114C368.892 94.7576 370.051 96.4262 371.462 97.8359C372.376 98.7497 373.326 100.19 374.309 100.681" stroke="#645841" stroke-linecap="round"/>
<path d="M262.951 10.665C262.951 13.8061 263.612 17.3177 266.901 18.2308C270.531 19.2384 272.143 18.1555 272.863 22.4705C273.266 24.8922 277.359 29.0524 279.19 30.621C281.291 32.4204 284.978 31.2771 287.455 32.2292C289.219 32.907 288.462 34.646 288.626 36.1765C288.816 37.9481 290.601 38.4406 290.601 40.599C290.601 45.2302 298.179 46.8456 300.841 49.1516C301.931 50.095 304.456 51.6508 305.815 52.039C307.045 52.39 309.545 51.3673 309.692 53.2817C309.97 56.8933 311.278 60.0584 314.666 60.8108C316.452 61.2075 316.437 62.5927 317.738 63.15C319.538 63.9206 321.877 64.5138 323.48 65.6353C326.329 67.6279 328.718 67.1088 329.405 71.2274C329.703 73.0112 332.88 77.7211 334.416 78.5738C336.527 79.7462 339.189 80.7601 341.584 81.0592C343.186 81.2593 345.264 83.3389 346.924 84.0563C349.485 85.163 348.699 85.6315 349.521 88.2594C350.431 91.1706 350.669 93.7664 352.885 96.2272C355.979 99.6624 361.125 99.0792 364.699 101.6C365.571 102.216 364.932 104.2 366.344 104.67C367.838 105.167 370.003 104.743 371.574 104.743" stroke="#645841" stroke-linecap="round"/>
<path d="M58.873 78.4272C64.6114 79.5741 70.4512 80.4008 76.5015 80.4008C82.2359 80.4008 84.1519 77.4632 87.8393 73.1641" stroke="#645841" stroke-linecap="round"/>
<path d="M89.8145 71.1914H97.7143" stroke="#645841" stroke-linecap="round"/>
<path d="M97.4824 71.7153C99.5728 71.2164 103.262 71.5007 105.067 70.2227C106.668 69.0893 108.131 67.827 109.665 66.6777" stroke="#645841" stroke-linecap="round"/>
<path d="M111.762 65.4183C113.343 65.4183 117.902 66.2131 118.81 64.8119C119.601 63.59 122.173 63.7112 123.36 62.433C124.98 60.69 125.916 60.2777 128.098 59.9143C128.847 59.7895 129.436 59.1168 129.965 58.6082C130.838 57.7683 131.568 57.8619 132.765 57.8619C134.638 57.8619 138.297 58.6026 140.07 57.8153C141.052 57.3792 142.501 55.8305 143.454 55.0633C145.398 53.4982 146.397 51.9848 149.055 51.9848C151.249 51.9848 153.442 51.9848 155.636 51.9848C156.938 51.9848 158.097 50.1555 159.37 49.6525C160.125 49.3544 160.97 49.5762 161.704 49.2094C162.508 48.8075 162.811 47.8302 163.618 47.3903C164.28 47.0289 164.509 46.3262 165.274 46.1076C167.123 45.5798 169.056 45.6305 170.899 45.2213C172.012 44.9742 171.831 44.0086 173.419 44.0086C175.438 44.0086 178.185 44.5319 180.094 43.822C182.516 42.9212 183.308 41.7995 185.065 40.0438C186.049 39.0602 187.499 38.0258 188.192 36.872C189.248 35.1128 193.137 35.7668 194.913 35.5893C195.929 35.4878 196.033 34.7967 196.71 34.2133C197.401 33.6183 198.949 33.9335 199.791 33.9335C201.754 33.9335 203.849 33.3404 205.765 32.9073C209.963 31.9584 211.691 29.7868 215.007 27.8231C216.254 27.0843 219.061 27.6365 220.491 27.6365C222.307 27.6365 223.96 27.7905 225.578 26.8202C227.553 25.6361 229.892 24.0615 232.23 23.8583C233.899 23.7133 235.141 22.1588 236.897 21.7827C238.243 21.4944 240.195 20.0741 241.238 19.1473C242.915 17.6576 244.857 18.3198 246.512 17.3748C248.932 15.9928 251.875 17.275 254.447 15.8355C256.824 14.5051 257.461 13.2432 259.301 11.4043C260.181 10.5253 262.175 10.4248 261.728 10.4248" stroke="#645841" stroke-linecap="round"/>
<path d="M322.572 209.291V210.898" stroke="#645841" stroke-linecap="round"/>
<path d="M321.5 211.702C321.5 215.76 321.5 219.818 321.5 223.875C321.5 229.464 320.68 246.054 322.035 240.632" stroke="#645841" stroke-linecap="round"/>
<path d="M329.808 210.363C329.808 213.176 329.808 215.989 329.808 218.801C329.808 220.812 330.121 223.085 329.481 225.007C328.759 227.171 328.469 228.69 328.469 230.945C328.469 232.12 328.469 233.296 328.469 234.472" stroke="#645841" stroke-linecap="round"/>
<path d="M243.047 168.262C243.475 170.08 245.257 170.654 246.373 171.918C247.284 172.95 248.472 174.395 249.717 174.928" stroke="#645841" stroke-linecap="round"/>
<path d="M244.926 165.014C244.926 167.106 247.429 168.164 248.204 169.971C248.334 170.273 248.794 170.494 249.021 170.74C249.312 171.055 249.564 171.509 249.8 171.87C250.233 172.531 250.934 174.244 251.767 174.244" stroke="#645841" stroke-linecap="round"/>
<path d="M266.137 160.398C266.102 160.716 265.883 160.895 265.814 161.187C265.732 161.537 265.825 161.923 265.795 162.279C265.766 162.626 265.44 162.543 265.311 162.801C265.199 163.025 265.209 163.276 265.073 163.513C264.789 164.01 264.727 164.521 264.522 165.051C264.156 165.999 263.673 166.857 263.486 167.862C263.04 170.273 262.186 172.635 261.69 175.06C261.326 176.843 262.294 178.086 262.527 179.77C262.632 180.531 262.832 181.085 263.059 181.764" stroke="#645841" stroke-linecap="round"/>
<path d="M267.844 164.158C267.844 165.379 267.784 165.858 266.998 166.741C266.476 167.328 266.091 168.408 265.868 169.153C265.608 170.02 264.631 173.492 265.45 173.901" stroke="#645841" stroke-linecap="round"/>
<path d="M270.41 167.406C270.287 169.128 269.668 170.853 269.061 172.458C268.82 173.095 268.824 173.8 268.624 174.452C268.376 175.259 267.92 175.886 267.502 176.598C267.165 177.173 266.85 177.741 266.552 178.336C266.413 178.615 266.083 178.855 265.992 179.143C265.878 179.501 265.942 179.792 265.706 180.121C265.18 180.858 265.45 182.226 265.45 183.132" stroke="#645841" stroke-linecap="round"/>
<path d="M267.674 169.8C267.323 169.931 266.67 172.235 266.638 172.601C266.559 173.513 265.969 174.126 265.279 174.586" stroke="#645841" stroke-linecap="round"/>
<path d="M267.846 161.082C268.037 162.487 269.44 163.562 270.031 164.842C270.447 165.744 271.076 166.661 271.837 167.368C272.651 168.126 273.437 168.927 274.269 169.666C274.707 170.055 275.571 170.389 275.847 170.901C276.093 171.357 276.116 171.802 276.398 172.249C276.686 172.707 276.883 173.235 277.082 173.731" stroke="#645841" stroke-linecap="round"/>
<path d="M270.412 160.228C271.988 161.96 273.279 163.817 274.479 165.83C274.792 166.355 275.321 166.67 275.638 167.179C276.142 167.987 276.654 168.669 277.339 169.353C277.828 169.842 278.307 170.086 278.936 170.322C279.164 170.407 279.336 171.261 279.477 171.509" stroke="#645841" stroke-linecap="round"/>
<path d="M279.648 170.826C279.648 169.795 280.551 168.603 281.026 167.683C281.653 166.47 282.482 165.381 283.088 164.17C283.278 163.79 283.622 163.438 283.839 163.049C284.15 162.489 284.115 162.095 284.533 161.615C284.944 161.141 284.997 160.399 285.397 159.877C285.791 159.364 286.139 158.833 286.661 158.52" stroke="#645841" stroke-linecap="round"/>
<path d="M288.199 159.887C288.041 160.468 287.475 161.093 287.173 161.615C286.714 162.409 286.285 163.374 286.156 164.293C285.936 165.872 285.22 167.27 284.912 168.813C284.397 171.383 283.438 173.85 282.802 176.391C282.622 177.112 282.692 177.89 282.441 178.594C282.197 179.278 281.886 179.88 281.7 180.588C281.545 181.177 281.619 182.983 281.244 183.437C280.278 184.603 279.818 189.261 279.818 187.748" stroke="#645841" stroke-linecap="round"/>
<path d="M277.082 174.073C278.092 174.552 279.134 175.199 279.134 176.39C279.134 177.553 279.178 178.724 279.134 179.885C279.112 180.459 278.83 181.434 278.602 181.955C278.149 182.988 277.79 184.236 277.253 185.203C276.995 185.665 277 186.153 276.882 186.646C276.757 187.166 276.081 187.577 276.91 187.577" stroke="#645841" stroke-linecap="round"/>
<path d="M297.096 160.228C297.096 160.538 297.107 160.634 296.886 160.854C296.108 161.632 295.651 162.496 295.1 163.437C294.684 164.148 294.136 164.767 293.713 165.488C293.384 166.048 293.248 166.701 292.915 167.236C292.044 168.633 291.941 170.321 291.394 171.87C290.956 173.111 290.405 174.336 290.045 175.611C289.899 176.127 289.745 176.651 289.475 177.111C289.163 177.643 289.319 178.293 289.152 178.859C288.748 180.221 288.519 181.619 288.106 182.961C287.761 184.084 288.03 185.596 288.03 186.759C288.03 187.6 288.06 188.446 288.03 189.285C288.017 189.674 287.857 189.98 287.764 190.349C287.619 190.931 287.821 190.587 288.03 190.482" stroke="#645841" stroke-linecap="round"/>
<path d="M297.779 164.33C296.749 166.337 295.708 167.978 295.204 170.161C294.895 171.499 294.418 172.796 294.121 174.149C293.898 175.163 294.095 176.117 293.75 177.112C293.456 177.959 293.231 179.009 293.028 179.885C292.723 181.196 292.245 182.453 291.964 183.787C291.733 184.883 291.203 185.826 291.118 186.978C291.074 187.571 291.109 188.178 291.109 188.773" stroke="#645841" stroke-linecap="round"/>
<path d="M300.172 184.158C300.274 182.934 301.909 181.653 302.547 180.626C303.063 179.796 303.385 178.109 304.277 177.663" stroke="#645841" stroke-linecap="round"/>
<path d="M293.332 181.765C293.332 180.429 295.302 179.49 296.477 179.229C297.805 178.934 299.063 179.585 300.345 179.713" stroke="#645841" stroke-linecap="round"/>
<path d="M295.896 176.979C298.1 176.979 300.194 177.132 301.883 175.782" stroke="#645841" stroke-linecap="round"/>
<path d="M304.789 172.876C305.509 172.117 306.076 170.972 306.585 170.056C307.241 168.876 307.124 167.484 307.906 166.286C308.514 165.354 309.25 164.483 309.892 163.57C310.18 163.16 310.289 162.659 310.633 162.288C310.95 161.947 311.238 161.705 311.45 161.282C311.745 160.693 312.332 160.581 312.885 160.323C313.661 159.96 314.241 159.391 314.709 158.689" stroke="#645841" stroke-linecap="round"/>
<path d="M305.645 178.518C306.163 177.611 306.483 176.68 307.089 175.792C307.743 174.833 308.391 173.986 308.761 172.877C309.187 171.6 310.557 170.839 310.871 169.515C311.22 168.044 311.297 166.328 312.125 165.014C312.935 163.73 313.15 162.18 314.71 161.596" stroke="#645841" stroke-linecap="round"/>
<path d="M305.645 181.595C305.645 180.882 305.645 183.019 305.645 183.731C305.645 185.073 304.732 186.22 304.619 187.577" stroke="#645841" stroke-linecap="round"/>
<path d="M308.385 178.688C308.533 180.02 309.26 181.18 309.478 182.486C309.679 183.695 309.679 184.803 309.981 185.999C310.183 186.8 309.825 188.111 310.266 188.772" stroke="#645841" stroke-linecap="round"/>
<path d="M215.85 159.886C217.169 159.427 218.867 159.715 220.259 159.715C221.202 159.715 222.025 159.373 222.957 159.373C224.066 159.373 225.174 159.373 226.283 159.373" stroke="#645841" stroke-linecap="round"/>
<path d="M204.217 154.074C205.37 153.532 207.133 153.593 208.417 153.562C209.138 153.544 209.862 153.562 210.583 153.562C212.376 153.562 214.169 153.562 215.962 153.562C218.831 153.562 221.701 153.562 224.571 153.562" stroke="#645841" stroke-linecap="round"/>
<path d="M243.9 159.202C257.103 159.202 270.324 159.399 283.525 159.202C285.336 159.175 287.105 158.861 288.922 158.861C289.664 158.861 290.455 158.948 291.184 158.775C291.912 158.602 292.576 158.348 293.331 158.348C296.191 158.348 299.036 158.177 301.883 158.177C306.406 158.177 310.89 158.006 315.395 158.006" stroke="#645841" stroke-linecap="round"/>
<path d="M243.9 153.903C243.991 153.18 247.111 153.561 247.635 153.561C249.007 153.561 250.237 153.903 251.645 153.903C255.095 153.903 258.525 154.074 261.974 154.074C265.863 154.074 269.753 154.074 273.642 154.074C274.159 154.074 274.631 154.057 275.087 154.33C275.28 154.446 275.406 154.587 275.638 154.587C276.237 154.587 276.835 154.587 277.434 154.587C278.888 154.587 280.342 154.587 281.795 154.587C284.711 154.587 287.822 154.24 290.709 154.625C291.913 154.785 293.106 154.758 294.319 154.758C295.683 154.758 297.301 155.062 298.586 154.587C299.795 154.139 301.393 154.416 302.662 154.416C304.671 154.416 306.679 154.416 308.687 154.416C310.809 154.416 312.931 154.416 315.053 154.416" stroke="#645841" stroke-linecap="round"/>
<path d="M161.209 273.58C163.408 273.964 165.397 275.071 167.553 275.44C169.034 275.694 170.617 276.138 171.931 276.795" stroke="#645841" stroke-linecap="round"/>
<path d="M159.331 274.652C159.331 276.095 159.001 278.628 160.284 279.608C161.836 280.794 162.957 283.534 164.811 284.028C166.56 284.494 168.497 285.166 169.904 283.76C171.532 282.133 171.458 280.149 172.465 278.135" stroke="#645841" stroke-linecap="round"/>
<path d="M144.588 258.58C145.675 258.58 146.574 259.441 147.566 259.86C148.82 260.39 150.04 261.25 151.17 262.003C151.753 262.391 152.499 262.627 153.046 263.045C153.449 263.352 153.632 263.875 154.029 264.205C154.555 264.643 155.247 264.978 155.846 265.277" stroke="#645841" stroke-linecap="round"/>
<path d="M145.392 260.99C144.872 262.614 143.822 265.885 144.9 267.568C146.262 269.694 148.089 270.634 150.574 270.634C152.343 270.634 152.992 270.586 154.446 269.651C156.18 268.537 157.334 267.677 157.722 265.544" stroke="#645841" stroke-linecap="round"/>
<path d="M137.084 244.115C137.662 245.517 141.724 245.532 143.1 246.437C144.071 247.075 145.056 247.703 145.93 248.401" stroke="#645841" stroke-linecap="round"/>
<path d="M135.743 247.597C135.743 251.222 135.259 255.841 139.585 256.838C141.053 257.177 144.872 258.014 146.048 256.838C147.365 255.522 148.609 253.897 148.609 251.883" stroke="#645841" stroke-linecap="round"/>
<path d="M123.682 236.614C123.682 240.694 124.339 243.262 128.328 244.948C129.915 245.619 132.181 245.649 133.853 245.305C135.777 244.909 136.539 243.856 137.888 242.507" stroke="#645841" stroke-linecap="round"/>
<path d="M130.918 237.418C131.518 239.518 134.996 240.228 136.815 240.632" stroke="#645841" stroke-linecap="round"/>
<path d="M170.588 271.169C170.706 270.542 172.762 269.83 173.388 269.83C175.235 269.83 176.686 268.907 178.495 268.773C181.144 268.577 183.925 268.323 186.462 267.478C187.905 266.998 189.31 265.812 190.826 265.812C193.05 265.812 195.193 265.73 197.408 265.529C198.658 265.415 199.893 265.051 201.145 265.008C201.874 264.983 202.421 265.115 202.992 264.621C204.162 263.61 206.124 263.496 207.579 263.133" stroke="#645841" stroke-linecap="round"/>
<path d="M212.137 261.794C213.099 261.794 214.684 262.117 215.562 261.616C216.716 260.957 217.237 261.046 218.659 260.991C219.631 260.953 220.212 260.231 221.131 259.979C222.847 259.507 224.831 259.232 226.462 258.58C227.589 258.13 228.831 258.012 229.992 257.642C231.337 257.213 233.157 257.653 234.28 256.824C236.177 255.423 238.32 255.633 240.55 255.633" stroke="#645841" stroke-linecap="round"/>
<path d="M244.84 254.293C245.141 254.263 245.366 254.136 245.643 254.025" stroke="#645841" stroke-linecap="round"/>
<path d="M250.201 252.954C250.756 252.927 251.266 252.795 251.809 252.687" stroke="#645841" stroke-linecap="round"/>
<path d="M268.428 252.418C269.212 253.015 270.171 252.987 271.108 253.162C272.592 253.438 273.948 253.963 275.457 254.189C277.204 254.451 279.122 254.59 280.832 255.007C282.027 255.299 282.691 255.9 283.975 255.9" stroke="#645841" stroke-linecap="round"/>
<path d="M278.344 256.705C276.542 256.869 275.11 258.455 273.192 258.58C272.154 258.648 271.01 259.325 269.975 259.592C269.23 259.784 268.628 260.412 267.891 260.455C266.442 260.54 265.365 260.669 263.959 261.08C262.822 261.413 261.456 260.934 260.385 261.437C258.036 262.543 255.148 262.096 252.939 263.536C251.818 264.267 249.547 264.425 248.189 264.726C246.926 265.007 245.74 265.327 244.496 265.679C242.545 266.23 240.648 266.231 238.658 266.363C237.685 266.428 236.276 266.507 235.457 267.018C234.203 267.801 231.797 267.939 230.334 268.313C229.25 268.59 227.921 268.909 226.82 268.997C224.992 269.144 223 268.938 221.28 269.697C220.232 270.159 218.92 270.902 217.766 270.902" stroke="#645841" stroke-linecap="round"/>
<path d="M207.578 271.17C206.642 272.956 203.674 272.832 201.993 273.343C200.713 273.732 199.578 274.195 198.256 274.444C196.371 274.799 194.492 275.276 192.597 275.56C191.83 275.675 190.93 275.565 190.184 275.768C189.754 275.886 189.597 276.307 189.217 276.483C187.931 277.076 186.49 276.728 185.211 277.495C181.957 279.446 178.078 279.206 174.34 279.206" stroke="#645841" stroke-linecap="round"/>
<path d="M283.707 256.973C283.707 258.375 283.174 259.337 282.932 260.604C282.717 261.734 281.565 262.687 280.55 263.402C279.219 264.337 277.55 264.711 276.082 265.396C275.587 265.627 274.896 265.636 274.355 265.753C273.302 265.98 272.811 266.616 271.704 266.616C270.679 266.616 270.773 266.992 270.021 267.509C269.51 267.86 268.106 268.04 267.46 268.208C265.879 268.62 264.52 269.189 262.858 269.354C261.029 269.536 259.269 270.32 257.438 270.366C256.147 270.398 255.145 270.958 253.909 271.289C252.261 271.73 250.496 272.123 248.801 272.36C246.972 272.616 245.54 272.86 243.797 273.402C242.276 273.875 240.702 274.23 239.151 274.593C238.06 274.848 237.208 275.639 236.143 276.006C234.867 276.446 233.693 276.734 232.39 277.093C231.29 277.396 230.194 277.729 229.084 278.045C226.58 278.76 224.077 278.661 221.49 278.879C219.824 279.019 218.294 278.944 216.65 279.355C214.059 280.002 211.28 280.899 208.608 281.051C206.917 281.148 205.361 280.922 203.769 281.498C201.804 282.208 199.419 282.546 197.365 282.837C194.98 283.175 192.573 283.347 190.217 283.775C188.468 284.092 186.792 284.636 185.035 284.95C183.64 285.2 182.285 286.315 180.985 286.439C179.487 286.581 178.07 287.08 176.577 286.989C174.506 286.864 172.397 286.974 170.322 286.974" stroke="#645841" stroke-linecap="round"/>
<path d="M171.125 262.598C172.242 262.598 173.359 262.598 174.476 262.598C175.974 262.598 177.043 262.033 178.496 261.839C183.326 261.196 187.9 259.54 192.718 258.699C194.881 258.321 196.97 257.834 199.151 257.509C200.454 257.314 201.872 257.404 203.142 257.062C204.088 256.807 204.868 256.49 205.852 256.422C206.818 256.356 207.434 255.843 208.294 255.485C209.574 254.952 211.041 254.713 212.375 254.324C215.059 253.542 218.204 253.941 220.997 253.476C224.654 252.867 228.144 252.252 231.734 251.496C233.152 251.198 234.567 250.541 235.963 250.321C236.718 250.202 237.498 250.394 238.226 250.097C238.749 249.885 239.034 249.472 239.626 249.472C240.917 249.472 242.058 248.99 243.289 248.937C244.587 248.88 245.893 248.964 247.191 248.937C248.033 248.919 250.43 249.053 251.063 248.49C251.767 247.865 251.948 247.865 252.88 247.865" stroke="#645841" stroke-linecap="round"/>
<path d="M250.201 241.703C252.189 241.703 254.137 242.239 256.098 242.239" stroke="#645841" stroke-linecap="round"/>
<path d="M262.531 245.454C263.014 245.493 265.603 247.009 264.824 247.746C263.899 248.622 259.916 248.936 261.191 248.936" stroke="#645841" stroke-linecap="round"/>
<path d="M146.465 257.776C150.094 257.776 152.847 257.252 156.383 256.437" stroke="#645841" stroke-linecap="round"/>
<path d="M172.734 253.49C175.68 253.209 178.472 251.495 181.416 251.362C182.856 251.296 184.308 251.347 185.75 251.347C186.542 251.347 187.871 251.609 188.609 251.228C190.803 250.096 193.991 249.617 196.412 249.263C197.126 249.159 197.519 249.131 198.08 248.683C198.67 248.211 199.734 248.348 200.448 248.132C202.328 247.563 204.549 247.597 206.508 247.597C208.653 247.597 210.797 247.597 212.942 247.597C213.75 247.597 214.832 247.792 215.622 247.567C216.298 247.374 216.597 247.061 217.379 247.061C220.11 247.061 222.791 246.053 225.599 245.989C227.12 245.955 228.736 245.53 230.112 244.888C231.709 244.143 232.816 244.087 234.505 243.817C235.908 243.592 237.303 243.198 238.734 242.983C240.255 242.755 241.515 241.703 243.023 241.703C245.437 241.703 247.787 241.436 250.2 241.436" stroke="#645841" stroke-linecap="round"/>
<path d="M146.197 247.865C148.259 247.757 150.672 247.586 152.526 246.615C154.029 245.828 155.302 245.68 156.964 245.424C158.281 245.222 159.529 244.745 160.851 244.561C163.344 244.214 165.937 244.383 168.445 244.383" stroke="#645841" stroke-linecap="round"/>
<path d="M148.074 255.365C148.595 254.48 151.377 253.992 152.437 253.639C153.916 253.146 155.372 252.893 156.92 252.687" stroke="#645841" stroke-linecap="round"/>
<path d="M173.539 250.275C174.421 249.268 176.358 249.45 177.575 249.069C179.444 248.486 181.155 248.525 183.114 248.385C184.293 248.301 185.438 247.729 186.554 247.388C187.386 247.134 187.76 246.736 188.714 246.644C189.75 246.544 190.701 246.093 191.707 245.989C193.046 245.85 194.331 245.185 195.638 245.185C197.099 245.185 198.473 244.917 199.927 244.917C200.553 244.917 200.913 244.904 201.431 244.516C202.301 243.863 203.477 243.895 204.514 243.786C206.527 243.576 208.506 243.578 210.53 243.578" stroke="#645841" stroke-linecap="round"/>
<path d="M210.797 242.776C211.771 241.956 213.637 241.972 214.862 241.972C215.561 241.972 216.095 241.971 216.485 241.347C216.714 240.981 217.536 241.193 217.915 241.109C220.034 240.638 222.573 240.107 224.467 239.025" stroke="#645841" stroke-linecap="round"/>
<path d="M226.076 239.025C227.072 237.723 230.671 238.168 232.241 237.686" stroke="#645841" stroke-linecap="round"/>
<path d="M233.311 238.489C235.209 238.389 237.512 238.173 239.297 237.566C240.339 237.211 242.47 237.326 242.96 236.346" stroke="#645841" stroke-linecap="round"/>
<path d="M242.963 236.346C242.963 234.848 244.927 233.672 245.375 232.328" stroke="#645841" stroke-linecap="round"/>
<path d="M242.696 231.257C241.667 231.257 238.41 231.251 237.871 232.328" stroke="#645841" stroke-linecap="round"/>
<path d="M171.125 244.383C174.935 244.171 178.783 243.024 182.502 242.255C184.436 241.855 185.778 240.721 187.729 240.499C190.89 240.14 193.97 240.097 197.155 240.097C199.826 240.097 202.497 240.097 205.167 240.097C206.867 240.097 208.5 239.238 210.111 238.743C213.974 237.555 217.845 236.97 221.518 235.275" stroke="#645841" stroke-linecap="round"/>
<path d="M227.148 234.203C227.859 234.091 229.479 233.496 229.978 232.998C230.722 232.254 232.331 232.596 233.314 232.596" stroke="#645841" stroke-linecap="round"/>
<path d="M150.752 241.436C152.024 241.295 153.327 240.568 154.594 240.275C155.481 240.071 156.448 239.965 157.304 239.65C158.723 239.129 159.689 239.025 161.206 239.025" stroke="#645841" stroke-linecap="round"/>
<path d="M170.857 238.221C171.575 237.209 172.079 237.451 173.285 237.403C175.236 237.325 177.011 236.614 178.988 236.614C180.931 236.614 182.848 236.346 184.781 236.346C185.913 236.346 186.853 235.811 187.998 235.811C189.721 235.811 191.05 234.683 192.703 234.367C194.194 234.082 195.88 234.019 197.394 233.95C200.239 233.821 202.992 233.357 205.838 233.147C208.377 232.959 210.669 231.297 213.269 231.257C214.907 231.232 217.188 230.887 218.778 230.334C221.341 229.443 224.118 229.534 226.76 228.905C227.569 228.713 228.233 228.31 229.083 228.31C230.302 228.31 231.165 228.312 232.24 227.774" stroke="#645841" stroke-linecap="round"/>
<path d="M148.074 235.008C150.314 234.901 152.275 234.136 154.224 233.162C156.343 232.104 158.775 229.918 161.209 229.918" stroke="#645841" stroke-linecap="round"/>
<path d="M170.857 229.382C171.119 230.428 177.02 228.885 177.633 228.861C179.791 228.777 181.855 228.656 183.947 228.013C184.849 227.735 184.984 227.262 186.077 227.239C187.583 227.207 189.076 226.581 190.574 226.376C191.762 226.213 192.901 225.662 194.088 225.632C195.902 225.586 197.724 225.632 199.539 225.632" stroke="#645841" stroke-linecap="round"/>
<path d="M202.488 225.632C204.13 225.632 206.214 226.146 207.313 224.828" stroke="#645841" stroke-linecap="round"/>
<path d="M209.723 224.56C210.444 224.457 211.161 224.201 211.867 224.024" stroke="#645841" stroke-linecap="round"/>
<path d="M217.498 223.756H220.447" stroke="#645841" stroke-linecap="round"/>
<path d="M214.281 224.56C217.386 223.733 220.917 223.934 223.916 222.685C225.012 222.229 226.063 222.608 227.088 222.001C227.823 221.566 229.007 221.614 229.828 221.614" stroke="#645841" stroke-linecap="round"/>
<path d="M230.633 221.613C230.633 222.59 232.031 224.112 231.154 224.843C230.247 225.598 229.295 226.7 228.488 227.506" stroke="#645841" stroke-linecap="round"/>
<path d="M220.715 219.203C222.984 219.203 225.157 219.739 227.416 219.739" stroke="#645841" stroke-linecap="round"/>
<path d="M202.486 221.881C201.481 221.961 200.233 222.408 199.27 222.714C196.839 223.487 194.652 223.488 192.107 223.488C190.319 223.488 188.518 223.426 186.731 223.488C186.36 223.501 186.081 223.67 185.748 223.815C184.465 224.375 183.073 224.297 181.697 224.351C178.501 224.477 175.57 224.527 172.614 225.601C171.808 225.894 170.653 226.079 169.799 226.271C167.819 226.716 165.648 228.042 163.619 228.042" stroke="#645841" stroke-linecap="round"/>
<path d="M136.549 225.096C137.663 225.017 139.681 224.811 140.659 224.278C141.253 223.954 141.772 223.29 142.446 222.953" stroke="#645841" stroke-linecap="round"/>
<path d="M149.145 222.685C151.193 222.76 152.536 222.991 154.52 222.283C155.084 222.082 155.396 221.538 155.756 221.405C156.671 221.066 157.166 221.468 157.99 220.81" stroke="#645841" stroke-linecap="round"/>
<path d="M138.156 219.202C139.532 219.202 140.863 219.263 142.177 218.935" stroke="#645841" stroke-linecap="round"/>
<path d="M148.074 217.327C150.203 217.23 152.942 216.959 154.984 216.255C157.128 215.517 158.969 216.619 160.672 214.916" stroke="#645841" stroke-linecap="round"/>
<path d="M171.932 215.988C173.912 215.988 175.772 215.808 177.739 215.571C178.917 215.43 180.122 215.625 181.224 215.184C183.609 214.231 186.881 215.046 189.087 213.577" stroke="#645841" stroke-linecap="round"/>
<path d="M207.314 211.434C207.964 212.06 208.646 212.793 209.563 212.996C210.228 213.144 210.89 212.947 211.544 213.219C212.653 213.681 213.052 214.112 214.284 214.112" stroke="#645841" stroke-linecap="round"/>
<path d="M211.065 217.328C206.803 218.404 202.569 217.402 198.377 218.251C196.474 218.636 194.761 218.667 192.793 218.667C191.805 218.667 188.752 218.092 187.864 218.787C184.652 221.298 179.764 218.711 176.338 220.424C174.704 221.24 172.722 221.882 170.857 221.882" stroke="#645841" stroke-linecap="round"/>
<path d="M149.318 205.59H159.721" stroke="#645841" stroke-linecap="round"/>
<path d="M170.121 202.236H176.497" stroke="#645841" stroke-linecap="round"/>
<path d="M185.221 202.571C186.798 202.571 188.504 202.749 190.068 202.534C191.118 202.389 191.848 201.9 192.939 201.9" stroke="#645841" stroke-linecap="round"/>
<path d="M148.98 104.317C157.668 104.317 166.355 104.317 175.042 104.317C177.189 104.317 179.255 104.653 181.399 104.653C182.68 104.653 183.905 104.988 185.184 104.988C186.07 104.988 186.648 105.659 187.57 105.659" stroke="#645841" stroke-linecap="round"/>
<path d="M184.886 108.342C184.886 110.652 184.886 112.962 184.886 115.272C184.886 118.802 183.422 121.763 182.798 125.258C182.052 129.432 181.194 133.227 181.194 137.516C181.194 141.161 181.194 144.807 181.194 148.452C181.194 152.029 181.194 155.606 181.194 159.183C181.194 161.512 181.194 163.84 181.194 166.169C181.194 168.415 180.669 171.253 181.716 173.286C182.675 175.145 182.537 176.991 182.537 179.024C182.537 180.736 183.384 182.01 183.525 183.625C183.817 186.982 183.054 190.328 184.214 193.518" stroke="#645841" stroke-linecap="round"/>
<path d="M148.644 108.677C148.754 110.293 149.65 111.574 149.65 113.185C149.65 114.055 149.65 114.924 149.65 115.793C149.65 117.029 149.134 118.161 149.017 119.389C148.863 120.996 148.908 122.52 148.625 124.121C148.336 125.759 147.746 127.34 147.451 128.983C147.067 131.117 147.302 133.419 147.302 135.578C147.302 138.77 147.302 141.962 147.302 145.154C147.302 147.798 147.586 150.393 147.637 153.016C147.691 155.771 147.134 159.018 147.674 161.716C148.042 163.552 148.644 165.145 148.644 167.026C148.644 168.363 148.085 170.323 149.65 170.714" stroke="#645841" stroke-linecap="round"/>
<path d="M192.27 109.683C192.27 104.875 192.606 119.294 192.606 124.102C192.606 126.488 191.263 128.447 191.263 130.828C191.263 132.418 191.599 133.872 191.599 135.485C191.599 137.081 191.755 138.669 191.245 140.198C190.651 141.979 188.915 143.074 188.915 145.061C188.915 146.594 187.872 149.177 188.784 150.594C189.622 151.896 190.507 152.885 191.263 154.245C192.156 155.852 191.103 158.486 190.853 160.17C190.62 161.745 189.921 162.696 189.921 164.343C189.921 167.794 189.272 172.099 190.443 175.334C191.2 177.425 191.599 179.648 191.599 181.855C191.599 183.146 192.185 186.578 191.375 187.556C190.216 188.956 191.278 190.477 190.369 191.841C188.731 194.295 189.586 198.67 189.586 201.565" stroke="#645841" stroke-linecap="round"/>
<path d="M137.236 104.988C137.236 107.072 138.914 108.755 138.914 110.875C138.914 113.583 138.914 116.29 138.914 118.998C138.914 120.464 139.202 122.344 138.877 123.804C138.498 125.509 137.907 126.971 137.907 128.797C137.907 130.082 137.695 131.566 137.982 132.821C138.379 134.556 139.651 134.991 140.685 136.342C142.189 138.307 142.27 140.222 142.27 142.621C142.27 144.053 141.902 144.945 141.617 146.272C141.387 147.345 141.085 149.205 140.368 150.035C138.632 152.048 138.444 152.96 139.212 155.457C139.743 157.18 142.27 158.545 142.27 160.487C142.27 162.666 142.27 164.846 142.27 167.026" stroke="#645841" stroke-linecap="round"/>
<path d="M134.887 102.305C132.592 102.305 137.464 102.305 138.168 102.305C140.471 102.305 142.974 102.882 144.954 103.981" stroke="#645841" stroke-linecap="round"/>
<path d="M191.262 107.336C191.44 108.048 195.541 108.205 196.295 108.342" stroke="#645841" stroke-linecap="round"/>
<path d="M133.211 101.299C133.31 100.505 134.124 99.8071 134.292 98.9516C134.513 97.8266 134.498 96.4254 135.429 95.5982C137.735 93.5505 139.631 93.7431 142.457 93.5862C143.638 93.5206 144.228 92.6123 145.627 92.99C145.774 93.0298 148.577 94.1059 148.591 94.1265C149.05 94.8155 149.977 95.3142 150.324 96.1385C150.763 97.1796 151.263 97.8773 152.002 98.6163" stroke="#645841" stroke-linecap="round"/>
<path d="M152.672 98.9521C152.855 97.1268 157.814 95.7669 159.215 94.7976C160.7 93.7706 162.419 93.922 164.155 93.922C164.821 93.922 165.505 93.8778 166.169 93.922C166.985 93.9764 167.117 94.5915 167.772 94.8721C168.671 95.2572 169.737 95.1549 170.624 95.6173C171.553 96.1015 172.261 96.6509 173.141 97.1636C174.561 97.9917 173.662 99.1257 175.154 99.6228" stroke="#645841" stroke-linecap="round"/>
<path d="M176.16 99.9576C176.98 99.7937 177.355 98.882 177.652 98.2064C178.117 97.1473 178.93 97.036 179.665 96.4179C180.212 95.9578 182.66 96.0958 183.319 96.008C184.735 95.8194 186.331 95.8382 187.756 95.9522C190.578 96.1778 191.517 98.9152 193.908 99.939C195.688 100.701 193.515 103.874 195.287 104.317" stroke="#645841" stroke-linecap="round"/>
<path d="M32.8788 80.1729C31.5072 80.1729 30.0422 80.9251 29.0199 81.8682C28.6886 82.1738 27.9223 82.4463 27.8641 82.9114C27.742 83.887 27.0031 83.9227 26.8388 84.6068C26.5489 85.8137 24.2903 87.4339 23.334 88.221C22.103 89.2341 20.5635 90.4142 19.1023 91.0713C15.5767 92.6568 13.9007 95.0668 11.3657 97.7409C10.5771 98.5728 6.90587 99.8006 6.7052 100.703C6.30997 102.48 4.56946 103.769 3.34961 104.988" stroke="#645841" stroke-linecap="round"/>
<path d="M1 106.665C1 108.679 1.293 110.637 1.33534 112.627C1.37656 114.564 1.05945 115.858 2.34135 117.396" stroke="#645841" stroke-linecap="round"/>
<path d="M4.68945 115.384C5.99627 114.61 7.74826 113.754 9.2195 113.427C10.836 113.068 12.2446 113.127 13.7309 112.384C16.0819 111.209 18.408 109.738 20.7963 108.677" stroke="#645841" stroke-linecap="round"/>
<path d="M26.1641 103.982C26.4794 102.091 28.4967 100.85 29.7434 99.5849C31.4478 97.8553 32.6011 96.3121 34.814 95.1882C38.0812 93.5289 41.2015 91.9381 44.769 91.0524C48.1828 90.2048 51.6721 89.1785 54.0155 86.5439" stroke="#645841" stroke-linecap="round"/>
<path d="M3.34961 118.736C3.34961 120.617 4.372 122.106 5.43753 123.617C6.81441 125.57 8.10786 127.859 9.70659 129.616C11.2467 131.309 13.8308 132.13 14.4231 134.497" stroke="#645841" stroke-linecap="round"/>
<path d="M14.4243 140.869C14.4243 152.345 14.4243 163.821 14.4243 175.297C14.4243 181.75 14.2753 188.222 14.443 194.672C14.5906 200.354 16.3282 205.932 18.1155 211.29" stroke="#645841" stroke-linecap="round"/>
<path d="M32.5437 134.834C32.2846 137.39 32.6396 139.72 31.1641 141.802C30.173 143.2 30.1948 145.27 30.1948 146.906C30.1948 150.893 30.1948 154.88 30.1948 158.867C30.1948 160.887 29.6681 165.494 31.2014 167.026" stroke="#645841" stroke-linecap="round"/>
<path d="M31.5332 129.132C33.3492 129.025 35.0174 128.126 36.8835 128.126C38.3487 128.126 39.2966 128.321 40.2577 127.12" stroke="#645841" stroke-linecap="round"/>
<path d="M43.281 128.461C42.9198 130.988 41.3768 133.392 40.9694 135.987C40.3949 139.647 39.8362 143.15 39.9255 146.867C40.0483 151.982 42.413 156.766 43.2251 161.771C43.4957 163.439 43.281 165.338 43.281 167.025" stroke="#645841" stroke-linecap="round"/>
<path d="M27.8457 169.037H41.6036" stroke="#645841" stroke-linecap="round"/>
<path d="M35.5625 135.504C35.5625 138.961 36.3015 143.309 35.0778 146.57C33.6591 150.351 33.8847 154.039 33.8847 158.046C33.8847 160.062 33.6077 162.327 33.9779 164.324C34.2313 165.692 35.031 167.092 35.5625 168.367" stroke="#645841" stroke-linecap="round"/>
<path d="M31.8711 153.613C33.6681 153.613 34.9326 152.868 36.6435 152.663C38.2685 152.468 39.965 152.607 41.6023 152.607" stroke="#645841" stroke-linecap="round"/>
<path d="M276.776 115.27C276.776 118.656 276.776 122.043 276.776 125.43C276.776 128.898 275.685 130.985 275.13 134.312C274.296 139.315 272.826 143.662 272.826 148.822" stroke="#645841" stroke-linecap="round"/>
<path d="M278.752 117.243C279.271 114.478 289.03 111.601 291.26 111.322" stroke="#645841" stroke-linecap="round"/>
<path d="M296.525 110.006H308.375" stroke="#645841" stroke-linecap="round"/>
<path d="M249.129 84.3486C250.741 86.3834 253.251 87.0644 255.273 88.6615C256.821 89.8836 259.411 90.3255 260.65 91.6585C261.622 92.7051 262.296 94.3632 263.612 95.0211C265.233 95.831 266.902 95.7504 268.22 97.1775C273.474 102.865 279.392 110.001 287.312 111.98" stroke="#645841" stroke-linecap="round"/>
<path d="M218.185 73.8229C216.018 73.8229 215.613 72.8025 213.796 71.9955C212.176 71.2759 211.814 69.7759 210.541 68.6695C208.97 67.3039 206.827 66.5883 205.165 65.2704C202.088 62.8299 199.028 61.5463 195.436 60.1535C192.878 59.1613 191.047 56.5713 189.219 54.7441" stroke="#645841" stroke-linecap="round"/>
</svg>
