<svg width="28" height="38" viewBox="0 0 28 38" fill="none" xmlns="http://www.w3.org/2000/svg">
<path fill-rule="evenodd" clip-rule="evenodd" d="M1 14.125C1 6.86875 6.86875 1 14.125 1C21.3813 1 27.25 6.86875 27.25 14.125C27.25 21.9437 18.9625 32.725 15.5688 36.8313C14.8188 37.7312 13.45 37.7312 12.7 36.8313C9.2875 32.725 1 21.9437 1 14.125ZM9.4375 14.125C9.4375 16.7125 11.5375 18.8125 14.125 18.8125C16.7125 18.8125 18.8125 16.7125 18.8125 14.125C18.8125 11.5375 16.7125 9.4375 14.125 9.4375C11.5375 9.4375 9.4375 11.5375 9.4375 14.125Z" fill="#FAFAFA"/>
<path d="M15.5688 36.8313L15.9529 37.1513L15.9542 37.1498L15.5688 36.8313ZM12.7 36.8313L12.3155 37.1508L12.3159 37.1513L12.7 36.8313ZM14.125 0.5C6.59261 0.5 0.5 6.59261 0.5 14.125H1.5C1.5 7.14489 7.14489 1.5 14.125 1.5V0.5ZM27.75 14.125C27.75 6.59261 21.6574 0.5 14.125 0.5V1.5C21.1051 1.5 26.75 7.14489 26.75 14.125H27.75ZM15.9542 37.1498C17.6584 35.0877 20.5967 31.3436 23.1115 27.1264C25.614 22.9297 27.75 18.1792 27.75 14.125H26.75C26.75 17.8896 24.7423 22.439 22.2526 26.6142C19.7751 30.7689 16.8728 34.4685 15.1833 36.5127L15.9542 37.1498ZM12.3159 37.1513C13.2658 38.2912 15.003 38.2912 15.9529 37.1513L15.1846 36.5112C14.6345 37.1713 13.6342 37.1713 13.0841 36.5112L12.3159 37.1513ZM0.5 14.125C0.5 18.1792 2.63604 22.9297 5.14097 27.1266C7.65813 31.3439 10.6012 35.0881 12.3155 37.1508L13.0845 36.5117C11.3863 34.4682 8.47937 30.7686 5.99965 26.6141C3.50771 22.439 1.5 17.8895 1.5 14.125H0.5ZM14.125 18.3125C11.8136 18.3125 9.9375 16.4364 9.9375 14.125H8.9375C8.9375 16.9886 11.2614 19.3125 14.125 19.3125V18.3125ZM18.3125 14.125C18.3125 16.4364 16.4364 18.3125 14.125 18.3125V19.3125C16.9886 19.3125 19.3125 16.9886 19.3125 14.125H18.3125ZM14.125 9.9375C16.4364 9.9375 18.3125 11.8136 18.3125 14.125H19.3125C19.3125 11.2614 16.9886 8.9375 14.125 8.9375V9.9375ZM9.9375 14.125C9.9375 11.8136 11.8136 9.9375 14.125 9.9375V8.9375C11.2614 8.9375 8.9375 11.2614 8.9375 14.125H9.9375Z" fill="#3F5540"/>
</svg>
