<svg viewBox="0 0 345 68" fill="none" xmlns="http://www.w3.org/2000/svg">
<path d="M90.5882 5.18831C90.5882 5.95467 90.0745 5.76897 89.5652 5.76897C90.3362 6.19381 91.0737 6.52246 91.9131 6.75372C92.1702 6.82455 93.8912 7.13878 93.8912 7.60264C93.8912 8.38835 91.9035 8.76565 91.4078 8.93375C90.6237 9.19963 91.7875 10.6418 92.1164 10.8489C92.4918 11.0853 92.671 11.2073 92.671 11.6978C92.671 12.2466 91.0917 12.191 90.6868 12.2547C90.4901 12.2857 90.5525 12.6423 90.5882 12.7913C90.8143 13.7346 92.0627 14.1082 92.7696 14.4212C93.0997 14.5673 94.8708 15.2634 94.1685 15.6708C93.8503 15.8553 93.4358 16.0026 93.0901 16.1054C92.8632 16.1729 92.6038 16.1111 92.3876 16.2141C92.2856 16.2627 92.2319 16.3901 92.1164 16.4043C91.5249 16.4767 91.816 17.116 92.1657 17.4773C92.6374 17.9647 92.9539 18.504 93.1209 19.148C93.2845 19.779 94.3154 19.9861 94.7539 20.0716C95.4605 20.2094 96.1156 20.5364 96.8059 20.7439C97.4148 20.9269 96.7563 21.1333 96.4855 21.1718L96.4752 21.1733C96.2702 21.2022 94.334 21.4755 94.4827 21.8034C94.7372 22.3643 95.6393 22.917 96.0849 23.3179C96.3941 23.596 96.6915 23.8313 96.886 24.2279C97.1066 24.6775 97.3509 25.3259 97.718 25.6405C98.2251 26.0753 96.7751 25.9645 96.7751 26.4283C96.7751 26.9619 97.6182 27.358 97.9583 27.5829C98.8105 28.1464 99.7597 28.5335 100.633 29.0634C100.991 29.2807 101.568 29.376 101.804 29.7833C101.988 30.1028 100.311 30.3757 100.164 30.4013C99.2245 30.5648 97.7775 30.5254 97.909 31.9565C98.0318 33.2931 99.0559 34.0927 99.8686 34.9243C101.989 37.0946 96.8655 35.7421 97.9829 37.4575C98.4822 38.2239 99.3756 38.3567 99.8809 39.0807C100.07 39.351 100.437 40.0827 99.9672 40.2148C99.3237 40.3959 98.7406 40.6087 98.0692 40.6087C97.6177 40.6087 97.7117 40.5935 97.5023 40.8532C97.0503 41.4136 97.9545 41.9281 98.3219 42.2115C98.7459 42.5386 99.6439 43.0391 98.5006 43.0536C97.3784 43.0678 96.2816 43.1026 95.1668 43.1691C94.3423 43.2182 93.556 43.5426 92.7203 43.5426C92.1755 43.5426 91.6128 43.576 91.0812 43.4203C90.7047 43.3101 90.5126 43.0117 90.1815 42.8363C88.9632 42.1908 87.3853 42.5699 86.1079 42.5699L75.9219 25.0838C76.1496 24.5818 76.4186 24.2605 76.8585 23.9292C77.3378 23.5684 78.228 23.178 78.51 22.5845C78.788 21.9997 77.4276 21.9846 78.054 21.2942C78.478 20.827 79.1683 20.4916 79.6932 20.194C80.0647 19.9833 80.8596 19.6953 81.1044 19.2907C81.1349 19.2403 78.7301 19.3583 79.2618 18.6048C80.1631 17.3277 81.9096 17.3813 83.0948 16.6557C83.151 16.6213 84.1802 15.868 84.0807 15.8203C83.3393 15.4651 82.2256 15.8986 81.4125 15.6573C80.5792 15.4101 81.1145 14.8775 81.5234 14.5639C81.856 14.3089 82.1013 13.9486 82.4293 13.6878C82.9854 13.2457 83.638 12.9386 84.1547 12.4382C84.456 12.1464 85.0671 11.6604 85.0113 11.1683C84.9845 10.9325 84.5949 11.2631 84.4382 11.2701C84.2238 11.2798 82.2463 11.4323 83.1318 10.6861C83.7502 10.1649 84.2465 9.57387 84.9311 9.13763C85.4963 8.77757 86.0699 8.38474 86.6073 7.9763C86.7471 7.87 87.4398 7.48792 87.051 7.48053C86.4919 7.46991 85.5483 7.39598 85.0113 7.48053C84.9926 7.48347 85.0138 6.63237 85.4514 6.39121C85.6703 5.42655 86.9502 2.77616 87.4208 2.53536C88.1431 2.1658 88.4243 4.137 89.1714 4.22074C89.4722 4.25444 90.5882 4.73066 90.5882 5.18831Z" fill="url(#paint0_linear_8101_22073)"/>
<path d="M101.515 25.7152C101.515 26.4815 100.99 26.2958 100.469 26.2958C101.258 26.7207 102.012 27.0493 102.87 27.2806C103.133 27.3514 104.893 27.6656 104.893 28.1295C104.893 28.9152 102.86 29.2925 102.353 29.4606C101.552 29.7265 102.742 31.1686 103.078 31.3758C103.462 31.6122 103.645 31.7341 103.645 32.2247C103.645 32.7734 102.03 32.7178 101.616 32.7816C101.415 32.8126 101.479 33.1692 101.515 33.3181C101.746 34.2614 103.023 34.635 103.746 34.948C104.084 35.0942 105.895 35.7903 105.177 36.1976C104.852 36.3822 104.428 36.5295 104.074 36.6323C103.842 36.6997 103.577 36.6379 103.356 36.741C103.251 36.7896 103.196 36.917 103.078 36.9311C102.473 37.0035 102.771 37.6428 103.129 38.0041C103.611 38.4915 103.935 39.0308 104.106 39.6748C104.273 40.3058 105.327 40.5129 105.776 40.5985C106.498 40.7363 107.168 41.0633 107.874 41.2708C108.497 41.4538 107.824 41.6602 107.547 41.6987L107.536 41.7001C107.326 41.729 105.346 42.0023 105.498 42.3303C105.759 42.8912 106.681 43.4438 107.137 43.8447C107.453 44.1229 107.757 44.3581 107.956 44.7548C108.182 45.2044 108.432 45.8528 108.807 46.1674C109.326 46.6021 107.843 46.4914 107.843 46.9552C107.843 47.4888 108.705 47.8848 109.053 48.1097C109.924 48.6733 110.895 49.0603 111.788 49.5902C112.154 49.8076 112.745 49.9028 112.986 50.3101C113.174 50.6296 111.46 50.9025 111.309 50.9281C110.348 51.0917 108.868 51.0523 109.002 52.4834C109.128 53.8199 110.175 54.6195 111.007 55.4512C113.175 57.6214 107.935 56.269 109.078 57.9844C109.589 58.7507 110.502 58.8835 111.019 59.6075C111.212 59.8779 111.588 60.6095 111.107 60.7417C110.449 60.9227 109.853 61.1356 109.166 61.1356C108.705 61.1356 108.801 61.1204 108.586 61.3801C108.124 61.9404 109.049 62.4549 109.425 62.7383C109.858 63.0655 110.777 63.566 109.607 63.5805C108.46 63.5947 107.338 63.6295 106.198 63.6959C105.355 63.745 104.55 64.0694 103.696 64.0694C103.139 64.0694 102.563 64.1028 102.019 63.9472C101.634 63.837 101.438 63.5386 101.099 63.3631C99.8533 62.7176 98.2396 63.0968 96.9332 63.0968L86.5156 45.6106C86.7485 45.1087 87.0236 44.7874 87.4736 44.4561C87.9637 44.0953 88.8742 43.7048 89.1626 43.1114C89.4469 42.5265 88.0556 42.5114 88.6962 41.821C89.1298 41.3538 89.8358 41.0185 90.3727 40.7208C90.7526 40.5102 91.5656 40.2222 91.8159 39.8176C91.8471 39.7672 89.3876 39.8852 89.9315 39.1317C90.8533 37.8545 92.6394 37.9082 93.8516 37.1825C93.909 37.1481 94.9616 36.3949 94.8599 36.3472C94.1016 35.9919 92.9626 36.4255 92.131 36.1842C91.2788 35.937 91.8262 35.4043 92.2445 35.0908C92.5846 34.8358 92.8354 34.4754 93.1709 34.2147C93.7397 33.7726 94.4071 33.4655 94.9356 32.9651C95.2437 32.6733 95.8687 32.1872 95.8116 31.6951C95.7842 31.4594 95.3858 31.7899 95.2255 31.797C95.0062 31.8066 92.9838 31.9592 93.8894 31.2129C94.5218 30.6917 95.0294 30.1007 95.7297 29.6645C96.3076 29.3044 96.8943 28.9116 97.4439 28.5032C97.5869 28.3969 98.2953 28.0148 97.8977 28.0074C97.3258 27.9968 96.3608 27.9228 95.8116 28.0074C95.7925 28.0103 95.8142 27.1592 96.2618 26.9181C96.4856 25.9534 97.7946 23.303 98.2759 23.0622C99.0146 22.6927 99.3022 24.6639 100.066 24.7476C100.374 24.7813 101.515 25.2575 101.515 25.7152Z" fill="url(#paint1_linear_8101_22073)"/>
<path d="M44.4303 2.331C44.4303 2.99285 43.9049 2.83248 43.3841 2.83248C44.1726 3.19939 44.9269 3.48322 45.7853 3.68294C46.0482 3.74411 47.8083 4.01549 47.8083 4.4161C47.8083 5.09467 45.7755 5.42052 45.2685 5.5657C44.4666 5.79532 45.6569 7.04082 45.9933 7.21971C46.3772 7.42386 46.5605 7.52921 46.5605 7.95287C46.5605 8.42679 44.9453 8.37875 44.5311 8.43382C44.33 8.46056 44.3938 8.76854 44.4303 8.89718C44.6615 9.71188 45.9383 10.0345 46.6613 10.3048C46.9989 10.4311 48.8103 11.0322 48.092 11.3841C47.7666 11.5434 47.3426 11.6706 46.989 11.7594C46.7571 11.8177 46.4917 11.7643 46.2706 11.8533C46.1663 11.8953 46.1114 12.0053 45.9933 12.0175C45.3884 12.0801 45.686 12.6322 46.0437 12.9442C46.5261 13.3651 46.8498 13.8309 47.0206 14.3871C47.1879 14.932 48.2423 15.1109 48.6907 15.1848C49.4134 15.3038 50.0833 15.5862 50.7894 15.7654C51.412 15.9235 50.7386 16.1017 50.4616 16.1349L50.4511 16.1362C50.2415 16.1612 48.2612 16.3972 48.4134 16.6804C48.6736 17.1648 49.5963 17.6421 50.052 17.9884C50.3682 18.2286 50.6723 18.4317 50.8713 18.7743C51.0968 19.1626 51.3467 19.7226 51.7221 19.9943C52.2408 20.3697 51.5015 20.7497 51.5015 21.1502C51.5015 21.6111 51.62 21.4775 51.9679 21.6718C52.8395 22.1584 53.8102 22.4928 54.7031 22.9504C55.0694 23.1381 54.7917 23.7541 55.0322 24.1058C55.2209 24.3818 54.3746 24.0837 54.2241 24.1058C53.2629 24.2471 51.783 24.213 51.9175 25.449C52.0431 26.6033 53.0905 27.2939 53.9216 28.0121C56.0905 29.8864 50.8502 28.7184 51.9931 30.1999C52.5037 30.8617 51.5645 30.167 52.0813 30.7923C50.115 30.2939 51.0984 31.3002 50.6182 31.4143C49.96 31.5707 52.768 32.9214 52.0813 32.9214C51.6196 32.9214 51.7157 32.9082 51.5015 33.1325C51.0393 33.6165 50.4956 33.9689 50.8713 34.2136C51.305 34.4961 50.9047 34.8327 49.7354 34.8452C48.5877 34.8574 50.2531 35.0752 49.1129 35.1326C48.2697 35.175 47.4655 35.4552 46.6109 35.4552C46.0537 35.4552 45.4782 35.484 44.9345 35.3496C44.5495 35.2544 44.353 34.9967 44.0143 34.8452C42.7684 34.2877 41.1546 34.6151 39.8482 34.6151L29.4307 19.5134C29.6636 19.08 29.9386 18.8025 30.3886 18.5164C30.8788 18.2047 31.7892 17.8675 32.0776 17.355C32.362 16.8499 30.9706 16.8369 31.6113 16.2406C32.0449 15.8371 32.7509 15.5475 33.2877 15.2905C33.6677 15.1085 34.4806 14.8598 34.7309 14.5104C34.7621 14.4668 32.3027 14.5687 32.8465 13.918C33.7683 12.815 35.5545 12.8613 36.7666 12.2346C36.8241 12.2049 37.8767 11.5544 37.775 11.5132C37.0167 11.2064 35.8777 11.5808 35.0461 11.3724C34.1939 11.1589 34.7413 10.6989 35.1595 10.4281C35.4997 10.2079 35.7505 9.8967 36.0859 9.67151C36.6547 9.28969 37.3222 9.02447 37.8506 8.5923C38.1588 8.34026 38.7837 7.92049 38.7266 7.49549C38.6993 7.29193 38.3008 7.57738 38.1405 7.58347C37.9212 7.5918 35.8988 7.72356 36.8044 7.07906C37.4369 6.62894 37.9444 6.11853 38.6447 5.74177C39.2227 5.43081 39.8093 5.09156 40.3589 4.73881C40.502 4.647 41.2104 4.31702 40.8127 4.31064C40.2409 4.30147 39.2758 4.23762 38.7266 4.31064C38.7075 4.31318 38.7292 3.57814 39.1768 3.36986C39.4006 2.53675 40.7097 0.247775 41.191 0.0398142C41.9296 -0.279353 42.2173 1.42305 42.9814 1.49536C43.2889 1.52447 44.4303 1.93576 44.4303 2.331Z" fill="url(#paint2_linear_8101_22073)"/>
<path d="M10.7191 21.8182C10.7191 22.5381 11.2094 22.3637 11.6955 22.3637C10.9596 22.7628 10.2556 23.0715 9.45442 23.2887C9.20902 23.3553 7.56624 23.6504 7.56624 24.0862C7.56624 24.8243 9.46359 25.1787 9.93676 25.3366C10.6852 25.5864 9.57426 26.9412 9.26031 27.1357C8.90201 27.3578 8.73092 27.4724 8.73092 27.9332C8.73092 28.4487 10.2384 28.3964 10.625 28.4563C10.8127 28.4854 10.7532 28.8204 10.7191 28.9603C10.5033 29.8465 9.3116 30.1974 8.6368 30.4915C8.32174 30.6288 6.63113 31.2827 7.30154 31.6654C7.60523 31.8387 8.0009 31.9771 8.33093 32.0737C8.54744 32.137 8.79511 32.079 9.0015 32.1758C9.09885 32.2214 9.15011 32.3411 9.26031 32.3544C9.82491 32.4224 9.54706 33.023 9.21326 33.3624C8.76299 33.8202 8.46089 34.3268 8.30152 34.9318C8.14536 35.5246 7.16127 35.7191 6.74274 35.7995C6.06823 35.9289 5.44295 36.2361 4.78397 36.4311C4.20281 36.603 4.83139 36.7968 5.08984 36.833L5.09967 36.8344C5.29527 36.8615 7.14358 37.1182 7.00155 37.4263C6.75863 37.9532 5.89753 38.4724 5.47219 38.849C5.17708 39.1103 4.8932 39.3313 4.7075 39.7039C4.49701 40.1262 4.26374 40.7353 3.9134 41.0309C3.42927 41.4393 4.81338 41.3352 4.81338 41.7709C4.81338 42.2722 4.00866 42.6442 3.684 42.8555C2.87051 43.3849 1.96448 43.7485 1.13113 44.2463C0.789301 44.4505 0.238003 44.5399 0.0135136 44.9225C-0.162582 45.2227 1.43775 45.4791 1.57817 45.5031C2.47535 45.6567 3.85658 45.6197 3.73106 46.9641C3.61383 48.2197 2.63626 48.9708 1.86052 49.752C-0.163757 51.7907 4.72714 50.5203 3.66047 52.1317C3.18393 52.8516 2.33111 52.9763 1.84876 53.6564C1.66863 53.9104 1.31817 54.5977 1.76641 54.7219C2.38066 54.892 2.93722 55.0919 3.57812 55.0919C4.00909 55.0919 3.91935 55.0776 4.11928 55.3216C4.55072 55.848 3.68761 56.3313 3.33695 56.5975C2.93218 56.9048 2.07502 57.375 3.16637 57.3886C4.23754 57.402 5.28449 57.4347 6.34863 57.4971C7.13564 57.5432 7.88622 57.848 8.68386 57.848C9.20395 57.848 9.74105 57.8793 10.2485 57.7331C10.6079 57.6296 10.7913 57.3493 11.1073 57.1845C12.2702 56.5781 13.7764 56.9343 14.9957 56.9343L24.7188 40.5079C24.5014 40.0364 24.2446 39.7345 23.8247 39.4233C23.3672 39.0843 22.5175 38.7176 22.2482 38.1601C21.9829 37.6107 23.2815 37.5965 22.6835 36.948C22.2788 36.509 21.6199 36.1941 21.1189 35.9144C20.7642 35.7165 20.0054 35.446 19.7718 35.0659C19.7427 35.0185 22.0382 35.1294 21.5306 34.4216C20.6703 33.2218 19.0032 33.2722 17.8719 32.5906C17.8182 32.5582 16.8358 31.8506 16.9307 31.8059C17.6385 31.4721 18.7016 31.8794 19.4777 31.6527C20.2731 31.4205 19.7622 30.9201 19.3718 30.6256C19.0543 30.386 18.8203 30.0475 18.5072 29.8026C17.9763 29.3873 17.3533 29.0988 16.8601 28.6287C16.5725 28.3546 15.9892 27.898 16.0425 27.4357C16.068 27.2143 16.44 27.5248 16.5896 27.5314C16.7942 27.5405 18.6818 27.6838 17.8366 26.9827C17.2463 26.4931 16.7726 25.938 16.119 25.5282C15.5796 25.1899 15.032 24.8209 14.519 24.4372C14.3855 24.3374 13.7244 23.9784 14.0955 23.9715C14.6292 23.9615 15.5299 23.8921 16.0425 23.9715C16.0604 23.9742 16.0401 23.1747 15.6224 22.9482C15.4135 22.042 14.1917 19.5522 13.7425 19.326C13.053 18.9789 12.7846 20.8306 12.0714 20.9093C11.7844 20.9409 10.7191 21.3883 10.7191 21.8182Z" fill="url(#paint3_linear_8101_22073)"/>
<path d="M69.7386 13.3764L40.3115 64.3858L30.012 28.9281L13.8271 64.3858H5.88184L30.012 17.4198L35.1638 23.3295L50.9053 6.22266H72.0928L101.52 64.3858H95.0459L69.7386 13.3764Z" fill="url(#paint4_linear_8101_22073)"/>
<path d="M71.21 23.0161L92.3969 65.9389" stroke="#3F5540"/>
<path d="M57.085 42.3013L42.3718 66.9998" stroke="#3F5540"/>
<path d="M150.846 23.172V14.7H153.054V31.5H150.846V25.764C150.606 20.34 145.47 15.156 140.742 15.156V31.5H138.534V14.7H140.742C145.302 14.7 149.622 19.02 150.846 23.172ZM160.783 14.7H163.255L169.855 31.5H167.479L164.791 24.66H157.639L155.119 31.5H154.615L160.783 14.7ZM161.095 15.228L157.807 24.204H164.623L161.095 15.228ZM197.255 28.692L197.591 29.004C195.695 30.996 192.071 31.956 189.335 31.956C183.623 31.956 180.191 28.404 180.191 23.124C180.191 17.94 184.007 14.244 189.479 14.244C193.535 14.244 195.839 15.732 196.487 18.756L196.007 18.852C195.311 15.66 192.695 14.7 189.599 14.7C185.015 14.7 182.543 17.988 182.567 23.124C182.567 28.548 185.231 31.5 189.479 31.5C191.927 31.5 195.479 30.564 197.255 28.692ZM199.413 14.7H211.893V15.156H201.621V22.524H209.733V22.98H201.621V31.044H211.893V31.5H199.413V14.7ZM219.3 15.228L213.468 31.5H212.964L218.988 14.7H221.46L227.892 31.5H225.54L219.3 15.228ZM231.686 31.5H229.478V14.7H231.686V31.5ZM254.755 14.7H255.259L249.763 30.252C249.403 31.284 248.395 31.956 247.315 31.956C245.947 31.956 244.747 30.78 244.747 29.388C244.747 28.02 245.899 26.844 247.315 26.82V27.3C246.163 27.3 245.227 28.236 245.227 29.364C245.227 30.492 246.139 31.5 247.339 31.5C248.227 31.476 248.995 30.948 249.307 30.108L250.027 28.092L242.299 14.7H244.867L250.963 25.428L254.755 14.7ZM265.121 31.5L271.145 14.7H273.617L279.881 31.068C281.345 31.26 282.209 32.004 282.209 33.42C282.209 35.052 281.009 35.724 279.113 35.724V35.268C280.865 35.268 281.729 34.788 281.729 33.42C281.729 32.076 280.817 31.548 279.281 31.5H265.121ZM271.457 15.252L265.793 31.02L277.505 31.044L271.457 15.252ZM285.015 31.5H282.807V14.7H285.015V31.5ZM286.608 31.5L292.632 14.7H295.104L301.368 31.068C302.832 31.26 303.696 32.004 303.696 33.42C303.696 35.052 302.496 35.724 300.6 35.724V35.268C302.352 35.268 303.216 34.788 303.216 33.42C303.216 32.076 302.304 31.548 300.768 31.5H286.608ZM292.944 15.252L287.28 31.02L298.992 31.044L292.944 15.252ZM311.741 14.7H312.245L306.749 30.252C306.389 31.284 305.381 31.956 304.301 31.956C302.933 31.956 301.733 30.78 301.733 29.388C301.733 28.02 302.885 26.844 304.301 26.82V27.3C303.149 27.3 302.213 28.236 302.213 29.364C302.213 30.492 303.125 31.5 304.325 31.5C305.213 31.476 305.981 30.948 306.293 30.108L307.013 28.092L299.285 14.7H301.853L307.949 25.428L311.741 14.7ZM329.224 28.692L329.56 29.004C327.664 30.996 324.04 31.956 321.304 31.956C315.592 31.956 312.16 28.404 312.16 23.124C312.16 17.94 315.976 14.244 321.448 14.244C325.504 14.244 327.808 15.732 328.456 18.756L327.976 18.852C327.28 15.66 324.664 14.7 321.568 14.7C316.984 14.7 314.512 17.988 314.536 23.124C314.536 28.548 317.2 31.5 321.448 31.5C323.896 31.5 327.448 30.564 329.224 28.692ZM330.325 20.508C330.325 16.62 332.341 14.244 335.701 14.244C339.421 14.244 340.645 17.052 341.269 20.22V14.7H343.477V31.476H341.269V26.196C340.261 26.628 338.581 26.676 337.453 26.676L333.613 31.5H330.805L334.789 26.46C332.029 25.884 330.325 24.108 330.325 20.508ZM341.269 25.74C341.269 22.164 340.933 14.82 336.229 14.82C333.349 14.82 332.677 17.556 332.677 20.556C332.677 25.668 334.933 26.268 337.693 26.268C339.277 26.268 340.381 26.028 341.269 25.74Z" fill="#3F5540"/>
<path d="M189.082 40.3H197.402V40.604H190.554V45.516H195.962V45.82H190.554V51.196H197.402V51.5H189.082V40.3ZM201.588 45.532C205.156 45.532 207.124 47.388 207.124 50.988V51.5H205.604V50.988C205.62 47.292 204.308 45.836 201.684 45.836H200.068V51.5H198.596V40.3H200.068V45.532H201.268V44.476C201.268 42.396 201.588 39.996 204.212 39.996C205.636 39.996 206.676 40.86 206.676 42.316C206.676 43.804 205.604 44.716 203.876 44.716V44.412C205.444 44.412 206.356 43.628 206.356 42.316C206.356 41.388 205.812 40.3 204.212 40.3C201.796 40.3 201.588 42.588 201.588 44.476V45.532ZM213.897 39.996C217.241 39.996 220.297 42.14 220.297 45.9C220.297 49.66 217.241 51.804 213.897 51.804C210.553 51.804 207.481 49.66 207.481 45.9C207.481 42.14 210.553 39.996 213.897 39.996ZM213.897 51.5C216.777 51.5 218.729 49.692 218.729 45.9C218.729 42.092 216.777 40.3 213.897 40.3C211.017 40.3 209.049 42.092 209.049 45.9C209.049 49.708 211.017 51.5 213.897 51.5ZM221.654 46.86V46.556H226.358V46.86H221.654ZM239.087 49.628L239.311 49.836C238.047 51.164 235.631 51.804 233.807 51.804C229.999 51.804 227.711 49.436 227.711 45.916C227.711 42.46 230.255 39.996 233.903 39.996C236.607 39.996 238.143 40.988 238.575 43.004L238.255 43.068C237.791 40.94 236.047 40.3 233.983 40.3C230.927 40.3 229.279 42.492 229.295 45.916C229.295 49.532 231.071 51.5 233.903 51.5C235.535 51.5 237.903 50.876 239.087 49.628ZM243.845 40.3H245.493L249.893 51.5H248.309L246.517 46.94H241.749L240.069 51.5H239.733L243.845 40.3ZM244.053 40.652L241.861 46.636H246.405L244.053 40.652ZM250.466 51.5L254.482 40.3H256.13L260.306 51.212C261.282 51.34 261.858 51.836 261.858 52.78C261.858 53.868 261.058 54.316 259.794 54.316V54.012C260.962 54.012 261.538 53.692 261.538 52.78C261.538 51.884 260.93 51.532 259.906 51.5H250.466ZM254.69 40.668L250.914 51.18L258.722 51.196L254.69 40.668ZM270.112 45.948C269.312 48.684 266.736 51.5 263.728 51.5H262.256V40.3H263.728V51.196C266.88 51.196 269.968 47.74 270.112 44.124V40.3H271.584V51.5H270.112V45.948ZM273.13 40.3H281.226V40.604H274.602V45.116H278.234C280.202 45.116 282.57 45.612 282.57 48.38C282.57 50.828 280.762 51.5 278.634 51.5H273.13V40.3ZM278.282 51.196C279.978 51.196 281.002 50.46 281.002 48.38C281.002 46.204 279.818 45.42 277.962 45.42H274.602V51.196H278.282ZM287.338 40.3H288.986L293.386 51.5H291.802L290.01 46.94H285.242L283.562 51.5H283.226L287.338 40.3ZM287.546 40.652L285.354 46.636H289.898L287.546 40.652Z" fill="#B4854F"/>
<defs>
<linearGradient id="paint0_linear_8101_22073" x1="87.1042" y1="5.28855" x2="92.3479" y2="35.3654" gradientUnits="userSpaceOnUse">
<stop stop-color="#2B3C2C"/>
<stop offset="1" stop-color="#1F2C1F"/>
</linearGradient>
<linearGradient id="paint1_linear_8101_22073" x1="98.5807" y1="33.9023" x2="103.07" y2="55.9238" gradientUnits="userSpaceOnUse">
<stop stop-color="#2E432F"/>
<stop offset="1" stop-color="#283A29" stop-opacity="0.99"/>
</linearGradient>
<linearGradient id="paint2_linear_8101_22073" x1="40.8671" y1="2.41757" x2="44.724" y2="28.6148" gradientUnits="userSpaceOnUse">
<stop stop-color="#2B3C2C"/>
<stop offset="1" stop-color="#1F2C1F"/>
</linearGradient>
<linearGradient id="paint3_linear_8101_22073" x1="13.458" y1="29.5091" x2="9.21527" y2="50.1853" gradientUnits="userSpaceOnUse">
<stop stop-color="#2E432F"/>
<stop offset="1" stop-color="#283A29" stop-opacity="0.99"/>
</linearGradient>
<linearGradient id="paint4_linear_8101_22073" x1="49.5437" y1="9.30688" x2="91.3312" y2="64.3098" gradientUnits="userSpaceOnUse">
<stop stop-color="#3F5540"/>
<stop offset="1" stop-color="#374E39"/>
</linearGradient>
</defs>
</svg>
