<svg viewBox="0 0 315 135" fill="none" xmlns="http://www.w3.org/2000/svg">
<path d="M196.716 5.57436C196.716 6.39792 196.126 6.19836 195.54 6.19836C196.427 6.65491 197.275 7.00809 198.241 7.25662C198.536 7.33274 200.516 7.67042 200.516 8.1689C200.516 9.01327 198.23 9.41874 197.659 9.59938C196.757 9.88511 198.096 11.4349 198.475 11.6575C198.906 11.9115 199.113 12.0426 199.113 12.5698C199.113 13.1595 197.296 13.0997 196.83 13.1683C196.604 13.2015 196.675 13.5848 196.716 13.7448C196.977 14.7586 198.413 15.16 199.226 15.4964C199.606 15.6535 201.643 16.4015 200.835 16.8393C200.469 17.0376 199.993 17.1959 199.595 17.3064C199.334 17.3789 199.035 17.3125 198.787 17.4232C198.669 17.4754 198.607 17.6123 198.475 17.6275C197.794 17.7054 198.129 18.3924 198.531 18.7807C199.074 19.3044 199.438 19.884 199.63 20.5761C199.818 21.2542 201.004 21.4767 201.509 21.5686C202.322 21.7168 203.075 22.0682 203.87 22.2912C204.57 22.4878 203.813 22.7096 203.501 22.751L203.489 22.7525C203.253 22.7836 201.026 23.0773 201.197 23.4297C201.49 24.0325 202.528 24.6264 203.04 25.0572C203.396 25.3561 203.738 25.6089 203.962 26.0352C204.216 26.5184 204.497 27.2152 204.919 27.5533C205.502 28.0205 203.834 27.9014 203.834 28.3999C203.834 28.9733 204.804 29.3989 205.195 29.6406C206.176 30.2462 207.268 30.6622 208.272 31.2316C208.684 31.4652 209.349 31.5675 209.619 32.0052C209.831 32.3486 207.903 32.6419 207.733 32.6694C206.652 32.8452 204.987 32.8028 205.139 34.3407C205.28 35.7771 206.458 36.6363 207.393 37.5301C209.833 39.8623 203.938 38.4089 205.224 40.2523C205.798 41.0759 206.826 41.2186 207.407 41.9966C207.624 42.2872 208.047 43.0735 207.507 43.2155C206.766 43.4101 206.095 43.6388 205.323 43.6388C204.804 43.6388 204.912 43.6224 204.671 43.9015C204.151 44.5037 205.191 45.0566 205.614 45.3612C206.101 45.7127 207.135 46.2506 205.819 46.2662C204.528 46.2814 203.266 46.3189 201.984 46.3902C201.035 46.443 200.131 46.7916 199.169 46.7916C198.543 46.7916 197.895 46.8275 197.284 46.6603C196.851 46.5418 196.63 46.2212 196.249 46.0326C194.847 45.3389 193.032 45.7464 191.562 45.7464L179.844 26.9549C180.106 26.4156 180.415 26.0702 180.921 25.7142C181.473 25.3265 182.497 24.9069 182.821 24.2692C183.141 23.6406 181.576 23.6244 182.297 22.8825C182.784 22.3804 183.579 22.02 184.182 21.7002C184.61 21.4737 185.524 21.1642 185.806 20.7295C185.841 20.6753 183.074 20.8021 183.686 19.9923C184.723 18.6199 186.732 18.6775 188.096 17.8977C188.16 17.8607 189.344 17.0512 189.23 17C188.377 16.6182 187.096 17.0841 186.16 16.8249C185.202 16.5592 185.818 15.9868 186.288 15.6498C186.671 15.3758 186.953 14.9886 187.33 14.7084C187.97 14.2332 188.721 13.9032 189.315 13.3655C189.662 13.0518 190.365 12.5295 190.301 12.0007C190.27 11.7474 189.822 12.1026 189.641 12.1102C189.395 12.1205 187.12 12.2845 188.138 11.4825C188.85 10.9224 189.421 10.2873 190.208 9.81848C190.859 9.43154 191.518 9.00939 192.137 8.57046C192.298 8.45623 193.094 8.04562 192.647 8.03768C192.004 8.02627 190.918 7.94682 190.301 8.03768C190.279 8.04084 190.303 7.12621 190.807 6.86704C191.059 5.83038 192.531 2.98215 193.073 2.72337C193.904 2.32623 194.227 4.44457 195.087 4.53455C195.433 4.57078 196.716 5.08255 196.716 5.57436Z" fill="url(#paint0_linear_6292_19661)"/>
<path d="M209.287 27.6349C209.287 28.4585 208.683 28.2589 208.084 28.2589C208.991 28.7155 209.859 29.0686 210.846 29.3172C211.149 29.3933 213.174 29.731 213.174 30.2295C213.174 31.0738 210.835 31.4793 210.252 31.6599C209.329 31.9457 210.699 33.4955 211.086 33.7181C211.527 33.9721 211.738 34.1032 211.738 34.6303C211.738 35.2201 209.88 35.1603 209.403 35.2288C209.172 35.2621 209.245 35.6453 209.287 35.8054C209.553 36.8191 211.022 37.2206 211.854 37.557C212.242 37.714 214.326 38.4621 213.5 38.8999C213.126 39.0982 212.638 39.2565 212.231 39.367C211.964 39.4394 211.659 39.373 211.405 39.4837C211.285 39.536 211.221 39.6729 211.086 39.6881C210.39 39.7659 210.732 40.4529 211.144 40.8412C211.699 41.365 212.071 41.9445 212.267 42.6366C212.46 43.3147 213.673 43.5373 214.189 43.6292C215.02 43.7773 215.791 44.1287 216.603 44.3517C217.32 44.5484 216.545 44.7701 216.226 44.8115L216.214 44.8131C215.973 44.8442 213.695 45.1378 213.87 45.4903C214.169 46.0931 215.231 46.687 215.755 47.1178C216.119 47.4167 216.469 47.6695 216.697 48.0958C216.957 48.5789 217.244 49.2757 217.676 49.6138C218.273 50.081 216.567 49.962 216.567 50.4604C216.567 51.0338 217.559 51.4594 217.959 51.7011C218.962 52.3067 220.079 52.7227 221.106 53.2922C221.527 53.5257 222.207 53.6281 222.483 54.0658C222.7 54.4091 220.728 54.7024 220.555 54.7299C219.449 54.9057 217.746 54.8633 217.901 56.4013C218.046 57.8376 219.25 58.6969 220.207 59.5906C222.702 61.9228 216.673 60.4695 217.988 62.3129C218.575 63.1365 219.627 63.2792 220.221 64.0572C220.443 64.3477 220.875 65.134 220.323 65.276C219.566 65.4706 218.88 65.6993 218.09 65.6993C217.558 65.6993 217.669 65.683 217.423 65.9621C216.891 66.5643 217.955 67.1172 218.387 67.4217C218.886 67.7733 219.942 68.3111 218.597 68.3267C217.277 68.342 215.986 68.3794 214.675 68.4508C213.704 68.5036 212.779 68.8522 211.796 68.8522C211.155 68.8522 210.493 68.8881 209.867 68.7208C209.425 68.6024 209.199 68.2817 208.809 68.0932C207.376 67.3995 205.519 67.8069 204.016 67.8069L192.031 49.0155C192.299 48.4761 192.616 48.1308 193.133 47.7748C193.697 47.387 194.745 46.9674 195.076 46.3297C195.404 45.7012 193.803 45.6849 194.54 44.943C195.039 44.4409 195.851 44.0806 196.469 43.7607C196.906 43.5343 197.841 43.2248 198.129 42.79C198.165 42.7358 195.335 42.8626 195.961 42.0529C197.021 40.6804 199.076 40.7381 200.471 39.9583C200.537 39.9213 201.748 39.1118 201.631 39.0606C200.759 38.6788 199.448 39.1447 198.491 38.8854C197.511 38.6197 198.141 38.0473 198.622 37.7104C199.013 37.4363 199.302 37.0491 199.688 36.7689C200.342 36.2938 201.11 35.9638 201.718 35.426C202.072 35.1124 202.791 34.5901 202.726 34.0612C202.694 33.8079 202.236 34.1631 202.051 34.1707C201.799 34.1811 199.472 34.345 200.514 33.543C201.242 32.983 201.826 32.3478 202.631 31.879C203.296 31.4921 203.971 31.0699 204.604 30.631C204.768 30.5168 205.583 30.1062 205.126 30.0982C204.468 30.0868 203.358 30.0074 202.726 30.0982C202.704 30.1014 202.729 29.1868 203.244 28.9276C203.501 27.8909 205.007 25.0427 205.561 24.7839C206.411 24.3868 206.742 26.5051 207.621 26.5951C207.974 26.6313 209.287 27.1431 209.287 27.6349Z" fill="url(#paint1_linear_6292_19661)"/>
<path d="M143.61 2.505C143.61 3.21626 143.005 3.04391 142.406 3.04391C143.313 3.43821 144.181 3.74323 145.169 3.95786C145.471 4.0236 147.496 4.31524 147.496 4.74575C147.496 5.47497 145.157 5.82515 144.574 5.98116C143.652 6.22792 145.021 7.5664 145.408 7.75863C145.849 7.97803 146.06 8.09124 146.06 8.54652C146.06 9.05582 144.202 9.0042 143.726 9.06337C143.494 9.09211 143.568 9.42308 143.61 9.56132C143.876 10.4368 145.345 10.7835 146.176 11.0741C146.565 11.2097 148.649 11.8557 147.822 12.2338C147.448 12.4051 146.96 12.5418 146.553 12.6372C146.287 12.6998 145.981 12.6424 145.727 12.7381C145.607 12.7832 145.544 12.9014 145.408 12.9146C144.712 12.9818 145.054 13.5751 145.466 13.9105C146.021 14.3628 146.393 14.8633 146.59 15.461C146.782 16.0467 147.995 16.2389 148.511 16.3182C149.342 16.4462 150.113 16.7497 150.925 16.9423C151.642 17.1121 150.867 17.3036 150.548 17.3393L150.536 17.3407C150.295 17.3675 148.017 17.6212 148.192 17.9255C148.491 18.4461 149.553 18.9591 150.077 19.3311C150.441 19.5893 150.791 19.8076 151.02 20.1757C151.279 20.593 151.567 21.1948 151.999 21.4868C152.595 21.8903 151.745 22.2986 151.745 22.729C151.745 23.2243 151.881 23.0807 152.281 23.2895C153.284 23.8125 154.401 24.1718 155.428 24.6635C155.849 24.8653 155.53 25.5272 155.807 25.9053C156.024 26.2018 155.05 25.8815 154.877 25.9053C153.771 26.0571 152.069 26.0205 152.223 27.3487C152.368 28.5892 153.573 29.3312 154.529 30.1031C157.024 32.1173 150.996 30.8621 152.31 32.4542C152.898 33.1654 151.817 32.4189 152.412 33.0908C150.15 32.5552 151.281 33.6367 150.729 33.7593C149.971 33.9273 153.202 35.3788 152.412 35.3788C151.881 35.3788 151.991 35.3647 151.745 35.6057C151.213 36.1258 150.587 36.5045 151.02 36.7675C151.519 37.0712 151.058 37.4328 149.713 37.4462C148.393 37.4594 150.309 37.6935 148.997 37.7551C148.027 37.8007 147.102 38.1018 146.118 38.1018C145.477 38.1018 144.815 38.1327 144.19 37.9883C143.747 37.886 143.521 37.6091 143.131 37.4462C141.698 36.8471 139.841 37.199 138.338 37.199L126.354 20.9701C126.621 20.5042 126.938 20.206 127.456 19.8985C128.019 19.5636 129.067 19.2013 129.399 18.6505C129.726 18.1077 128.125 18.0937 128.862 17.4529C129.361 17.0193 130.173 16.7081 130.791 16.4318C131.228 16.2363 132.163 15.969 132.451 15.5935C132.487 15.5467 129.658 15.6562 130.283 14.9569C131.344 13.7716 133.399 13.8214 134.793 13.1479C134.859 13.116 136.07 12.4169 135.953 12.3726C135.081 12.0429 133.77 12.4453 132.814 12.2214C131.833 11.9919 132.463 11.4975 132.944 11.2066C133.336 10.9699 133.624 10.6355 134.01 10.3935C134.664 9.98313 135.432 9.69812 136.04 9.23369C136.395 8.96283 137.114 8.51173 137.048 8.05501C137.017 7.83624 136.558 8.14301 136.374 8.14955C136.121 8.1585 133.795 8.3001 134.837 7.60748C135.564 7.12377 136.148 6.57526 136.954 6.17038C137.619 5.8362 138.294 5.47162 138.926 5.09254C139.09 4.99389 139.905 4.63928 139.448 4.63242C138.79 4.62256 137.68 4.55395 137.048 4.63242C137.026 4.63515 137.051 3.84523 137.566 3.62141C137.823 2.72611 139.329 0.266271 139.883 0.0427862C140.733 -0.300206 141.064 1.52928 141.943 1.60699C142.297 1.63827 143.61 2.08025 143.61 2.505Z" fill="url(#paint2_linear_6292_19661)"/>
<path d="M104.832 23.4474C104.832 24.221 105.396 24.0336 105.955 24.0336C105.108 24.4625 104.299 24.7942 103.377 25.0277C103.094 25.0992 101.205 25.4164 101.205 25.8847C101.205 26.6779 103.387 27.0588 103.932 27.2285C104.793 27.4969 103.515 28.9528 103.153 29.1619C102.741 29.4005 102.544 29.5237 102.544 30.0189C102.544 30.5728 104.279 30.5167 104.723 30.5811C104.939 30.6123 104.871 30.9723 104.832 31.1227C104.583 32.075 103.212 32.4521 102.436 32.7681C102.074 32.9157 100.129 33.6184 100.9 34.0296C101.249 34.2159 101.705 34.3646 102.084 34.4684C102.333 34.5365 102.618 34.4741 102.856 34.5781C102.968 34.6272 103.027 34.7558 103.153 34.7701C103.803 34.8432 103.483 35.4886 103.099 35.8533C102.581 36.3453 102.234 36.8898 102.05 37.5399C101.871 38.1769 100.739 38.386 100.257 38.4723C99.4811 38.6115 98.7618 38.9416 98.0037 39.1511C97.3351 39.3358 98.0582 39.5441 98.3556 39.583L98.3669 39.5845C98.5918 39.6136 100.718 39.8895 100.555 40.2206C100.275 40.7869 99.2848 41.3448 98.7954 41.7495C98.4559 42.0303 98.1293 42.2678 97.9157 42.6682C97.6735 43.1221 97.4052 43.7766 97.0021 44.0942C96.4452 44.5331 98.0375 44.4213 98.0375 44.8895C98.0375 45.4282 97.1117 45.828 96.7382 46.0551C95.8024 46.624 94.76 47.0147 93.8013 47.5497C93.408 47.7691 92.7738 47.8652 92.5155 48.2764C92.313 48.5989 94.154 48.8745 94.3156 48.9003C95.3477 49.0654 96.9368 49.0256 96.7924 50.4703C96.6575 51.8196 95.5329 52.6268 94.6404 53.4664C92.3116 55.6573 97.9383 54.292 96.7112 56.0237C96.1629 56.7973 95.1818 56.9314 94.6269 57.6623C94.4197 57.9352 94.0165 58.6738 94.5321 58.8072C95.2388 58.99 95.8791 59.2049 96.6164 59.2049C97.1122 59.2049 97.009 59.1895 97.239 59.4517C97.7353 60.0174 96.7424 60.5368 96.339 60.8229C95.8733 61.1531 94.8872 61.6584 96.1427 61.673C97.375 61.6874 98.5795 61.7225 99.8037 61.7896C100.709 61.8392 101.573 62.1667 102.49 62.1667C103.089 62.1667 103.707 62.2004 104.29 62.0433C104.704 61.932 104.915 61.6307 105.278 61.4536C106.616 60.802 108.349 61.1848 109.752 61.1848L120.938 43.5322C120.687 43.0255 120.392 42.7011 119.909 42.3667C119.383 42.0024 118.405 41.6082 118.095 41.0092C117.79 40.4187 119.284 40.4035 118.596 39.7065C118.131 39.2349 117.372 38.8964 116.796 38.5959C116.388 38.3832 115.515 38.0924 115.246 37.684C115.213 37.6331 117.854 37.7522 117.27 36.9916C116.28 35.7023 114.362 35.7565 113.061 35.0239C112.999 34.9891 111.869 34.2287 111.978 34.1806C112.792 33.8219 114.015 34.2596 114.908 34.0161C115.823 33.7665 115.235 33.2287 114.786 32.9122C114.421 32.6548 114.152 32.291 113.791 32.0278C113.181 31.5815 112.464 31.2715 111.897 30.7663C111.566 30.4717 110.895 29.981 110.956 29.4842C110.985 29.2463 111.413 29.58 111.585 29.5871C111.821 29.5968 113.992 29.7508 113.02 28.9975C112.341 28.4713 111.796 27.8747 111.044 27.4343C110.423 27.0708 109.793 26.6742 109.203 26.2619C109.05 26.1546 108.289 25.7689 108.716 25.7614C109.33 25.7507 110.366 25.6761 110.956 25.7614C110.977 25.7644 110.953 24.9052 110.473 24.6617C110.232 23.6879 108.827 21.0123 108.31 20.7692C107.517 20.3961 107.208 22.3861 106.387 22.4706C106.057 22.5046 104.832 22.9854 104.832 23.4474Z" fill="url(#paint3_linear_6292_19661)"/>
<path d="M172.733 14.3733L138.879 69.1904L127.03 31.0858L108.41 69.1904H99.2695L127.03 18.7186L132.957 25.0693L151.066 6.68555H175.441L209.296 69.1904H201.848L172.733 14.3733Z" fill="url(#paint4_linear_6292_19661)"/>
<path d="M174.428 24.7344L198.803 70.8609" stroke="#3F5540"/>
<path d="M158.178 45.459L141.251 72.0009" stroke="#3F5540"/>
<path d="M14.1851 93.64V93.032H26.4411C26.4411 100.552 22.1851 105.608 14.4091 105.608C7.11312 105.608 1.51312 101.512 1.51312 93.832C1.51312 86.088 7.52912 81.992 14.3771 81.992C19.8171 81.96 22.8571 83.944 23.7211 88.008L23.1131 88.136C22.1531 83.784 18.6011 82.6 14.5371 82.6C8.55312 82.6 4.61712 85.928 4.61712 93.8C4.61712 101.576 8.45712 105 14.3771 105C20.6811 105 23.3371 101.384 23.3371 93.64H14.1851ZM46.7724 90.344C46.7724 95.144 44.5004 97.512 40.8204 98.28L46.1324 105H42.3884L37.2684 98.568C35.7644 98.568 33.5244 98.504 32.1804 97.928V104.968H29.2364V82.6H32.1804V89.96C33.0124 85.736 34.6444 81.992 39.6044 81.992C44.0844 81.992 46.7724 85.16 46.7724 90.344ZM32.1804 97.32C33.3644 97.704 34.8684 98.024 36.9804 98.024C40.6604 98.024 43.6364 97.224 43.6364 90.408C43.6364 86.408 42.7404 82.76 38.9004 82.76C32.6284 82.76 32.1804 92.552 32.1804 97.32ZM54.9959 82.6H58.2919L67.0919 105H63.9239L60.3399 95.88H50.8039L47.4439 105H46.7719L54.9959 82.6ZM55.4119 83.304L51.0279 95.272H60.1159L55.4119 83.304ZM85.6129 93.896V82.6H88.5569V105H85.6129V97.352C85.2929 90.12 78.4449 83.208 72.1409 83.208V105H69.1969V82.6H72.1409C78.2209 82.6 83.9809 88.36 85.6129 93.896ZM101.807 81.992C107.599 81.992 112.431 85.256 112.431 93.832C112.431 100.904 108.847 105 102.031 105H91.6314V82.6H94.5754V87.656C95.5034 84.264 97.6794 81.992 101.807 81.992ZM109.263 94.76V93.736C109.263 88.488 108.175 82.6 101.775 82.6C95.5674 82.6 94.5754 88.168 94.5754 93.192V104.392H102.031C107.599 104.392 109.263 99.4 109.263 94.76ZM132.79 90.376C132.79 96.936 128.79 98.632 123.318 98.632C121.27 98.632 119.382 98.408 118.134 97.96V104.968H115.19V82.568H118.134V89.96C118.966 85.736 120.598 81.992 125.558 81.992C130.038 81.992 132.79 85.192 132.79 90.376ZM118.134 97.352C119.318 97.704 120.822 98.024 122.934 98.024C127.158 98.024 129.686 96.968 129.686 90.376C129.686 86.376 128.694 82.728 124.854 82.728C118.582 82.728 118.134 92.552 118.134 97.352ZM139.793 82.6H143.089L151.889 105H148.721L145.137 95.88H135.601L132.241 105H131.569L139.793 82.6ZM140.209 83.304L135.825 95.272H144.913L140.209 83.304ZM149.226 82.6L152.81 86.184L152.362 86.632L148.778 83.048L149.226 82.6ZM163.352 91.496C170.68 92.584 173.432 94.952 173.432 99.208C173.432 104.2 169.848 105.608 163.992 105.608C157.752 105.608 154.456 103.208 154.456 97.608H157.592C157.592 101.992 159.256 105 163.992 105C168.856 105 171.8 104.136 171.8 99.784C171.8 96.168 168.152 95.272 163.256 94.44C157.688 93.512 155 91.4 155 87.72C155 83.848 158.424 81.992 163.16 81.992C168.344 81.992 172.024 84.264 172.024 89.288H169.016C169.016 86.12 168.376 82.6 163.16 82.6C159.352 82.6 156.408 83.816 156.408 86.92C156.408 89.512 158.968 90.824 163.352 91.496ZM207.24 82.6H207.912L199.56 105H196.328L187.368 82.6H190.536L199.176 104.232L207.24 82.6ZM212.923 105H209.979V82.6H212.923V105ZM216.007 82.6H218.951V104.392H231.367V105H216.007V82.6ZM233.128 82.6H236.072V104.392H248.488V105H233.128V82.6ZM257.513 82.6H260.809L269.609 105H266.441L262.857 95.88H253.321L249.961 105H249.289L257.513 82.6ZM257.929 83.304L253.545 95.272H262.633L257.929 83.304ZM282.16 93.64V93.032H294.416C294.416 100.552 290.16 105.608 282.384 105.608C275.088 105.608 269.488 101.512 269.488 93.832C269.488 86.088 275.504 81.992 282.352 81.992C287.792 81.96 290.832 83.944 291.696 88.008L291.088 88.136C290.128 83.784 286.576 82.6 282.512 82.6C276.528 82.6 272.592 85.928 272.592 93.8C272.592 101.576 276.432 105 282.352 105C288.656 105 291.312 101.384 291.312 93.64H282.16ZM297.179 82.6H313.819V83.208H300.123V93.032H310.939V93.64H300.123V104.392H313.819V105H297.179V82.6Z" fill="#3F5540"/>
<path d="M110.832 120.8H119.152V121.104H112.304V126.016H117.712V126.32H112.304V131.696H119.152V132H110.832V120.8ZM130.921 130.128L131.145 130.336C129.881 131.664 127.465 132.304 125.641 132.304C121.833 132.304 119.545 129.936 119.545 126.416C119.545 122.96 122.089 120.496 125.737 120.496C128.441 120.496 129.977 121.488 130.409 123.504L130.089 123.568C129.625 121.44 127.881 120.8 125.817 120.8C122.761 120.8 121.113 122.992 121.113 126.416C121.113 130.032 122.905 132 125.737 132C127.369 132 129.737 131.376 130.921 130.128ZM138.1 120.496C141.444 120.496 144.5 122.64 144.5 126.4C144.5 130.16 141.444 132.304 138.1 132.304C134.756 132.304 131.684 130.16 131.684 126.4C131.684 122.64 134.756 120.496 138.1 120.496ZM138.1 132C140.98 132 142.932 130.192 142.932 126.4C142.932 122.592 140.98 120.8 138.1 120.8C135.22 120.8 133.252 122.592 133.252 126.4C133.252 130.208 135.22 132 138.1 132ZM145.857 127.36V127.056H150.561V127.36H145.857ZM152.074 120.8H160.394V121.104H153.546V126.016H158.954V126.32H153.546V131.696H160.394V132H152.074V120.8ZM165.331 125.248C168.995 125.792 170.372 126.976 170.372 129.104C170.372 131.6 168.579 132.304 165.651 132.304C162.531 132.304 160.883 131.104 160.883 128.304H162.451C162.451 130.496 163.283 132 165.651 132C168.083 132 169.555 131.568 169.555 129.392C169.555 127.584 167.731 127.136 165.283 126.72C162.499 126.256 161.155 125.2 161.155 123.36C161.155 121.424 162.867 120.496 165.235 120.496C167.827 120.496 169.667 121.632 169.667 124.144H168.163C168.163 122.56 167.843 120.8 165.235 120.8C163.331 120.8 161.859 121.408 161.859 122.96C161.859 124.256 163.139 124.912 165.331 125.248ZM170.04 120.8H179.512V121.104H175.512V132H174.04V121.104H170.04V120.8ZM181.795 120.8H183.443L187.843 132H186.259L184.467 127.44H179.699L178.019 132H177.683L181.795 120.8ZM182.003 121.152L179.811 127.136H184.355L182.003 121.152ZM185.818 120.8H195.29V121.104H191.29V132H189.818V121.104H185.818V120.8ZM196.174 120.8H204.494V121.104H197.646V126.016H203.054V126.32H197.646V131.696H204.494V132H196.174V120.8Z" fill="#B4854F"/>
<defs>
<linearGradient id="paint0_linear_6292_19661" x1="192.708" y1="5.68208" x2="197.992" y2="38.126" gradientUnits="userSpaceOnUse">
<stop stop-color="#2B3C2C"/>
<stop offset="1" stop-color="#1F2C1F"/>
</linearGradient>
<linearGradient id="paint1_linear_6292_19661" x1="205.911" y1="36.4331" x2="210.441" y2="60.2195" gradientUnits="userSpaceOnUse">
<stop stop-color="#2E432F"/>
<stop offset="1" stop-color="#283A29" stop-opacity="0.99"/>
</linearGradient>
<linearGradient id="paint2_linear_6292_19661" x1="139.51" y1="2.59804" x2="143.393" y2="30.8271" gradientUnits="userSpaceOnUse">
<stop stop-color="#2B3C2C"/>
<stop offset="1" stop-color="#1F2C1F"/>
</linearGradient>
<linearGradient id="paint3_linear_6292_19661" x1="107.983" y1="31.7124" x2="103.702" y2="54.047" gradientUnits="userSpaceOnUse">
<stop stop-color="#2E432F"/>
<stop offset="1" stop-color="#283A29" stop-opacity="0.99"/>
</linearGradient>
<linearGradient id="paint4_linear_6292_19661" x1="149.5" y1="10" x2="177.5" y2="61.5" gradientUnits="userSpaceOnUse">
<stop stop-color="#4A7C4D"/>
<stop offset="0.716361" stop-color="#233F24"/>
</linearGradient>
</defs>
</svg>
