<svg width="145" height="82" viewBox="0 0 145 82" fill="none" xmlns="http://www.w3.org/2000/svg">
<path d="M97.8105 4.94682C97.8105 5.5068 97.3939 5.37111 96.981 5.37111C97.6062 5.68154 98.2043 5.92168 98.8849 6.09066C99.0934 6.14242 100.489 6.37203 100.489 6.71097C100.489 7.28509 98.8771 7.56079 98.4751 7.68362C97.8393 7.8779 98.7831 8.93169 99.0498 9.08304C99.3542 9.25577 99.4996 9.34491 99.4996 9.70335C99.4996 10.1043 98.2189 10.0637 97.8905 10.1103C97.731 10.1329 97.7816 10.3935 97.8105 10.5023C97.9939 11.1916 99.0063 11.4646 99.5795 11.6933C99.8472 11.8001 101.283 12.3087 100.714 12.6064C100.456 12.7412 100.12 12.8489 99.8394 12.924C99.6554 12.9733 99.445 12.9281 99.2697 13.0034C99.187 13.0389 99.1434 13.132 99.0498 13.1423C98.5702 13.1953 98.8062 13.6624 99.0898 13.9264C99.4723 14.2825 99.729 14.6766 99.8644 15.1472C99.997 15.6083 100.833 15.7596 101.189 15.8221C101.762 15.9228 102.293 16.1618 102.853 16.3134C103.346 16.4471 102.812 16.5979 102.593 16.626L102.585 16.6271C102.418 16.6482 100.848 16.8479 100.969 17.0875C101.175 17.4974 101.907 17.9012 102.268 18.1942C102.519 18.3974 102.76 18.5693 102.918 18.8591C103.097 19.1876 103.295 19.6614 103.592 19.8913C104.004 20.209 102.828 20.1281 102.828 20.467C102.828 20.8569 103.511 21.1463 103.787 21.3106C104.478 21.7224 105.248 22.0052 105.956 22.3924C106.246 22.5512 106.715 22.6208 106.906 22.9184C107.055 23.1519 105.696 23.3513 105.576 23.37C104.814 23.4895 103.641 23.4607 103.747 24.5064C103.847 25.4831 104.677 26.0673 105.336 26.675C107.056 28.2608 102.901 27.2726 103.807 28.526C104.212 29.086 104.937 29.1831 105.346 29.7121C105.499 29.9096 105.797 30.4442 105.416 30.5408C104.894 30.6731 104.422 30.8286 103.877 30.8286C103.511 30.8286 103.587 30.8175 103.417 31.0073C103.051 31.4167 103.784 31.7927 104.082 31.9998C104.426 32.2388 105.154 32.6045 104.227 32.6151C103.317 32.6255 102.428 32.6509 101.523 32.6995C100.855 32.7354 100.217 32.9724 99.5396 32.9724C99.0977 32.9724 98.6414 32.9968 98.2103 32.8831C97.905 32.8026 97.7492 32.5845 97.4807 32.4563C96.4927 31.9846 95.2131 32.2617 94.1773 32.2617L85.917 19.4845C86.1017 19.1177 86.3198 18.8829 86.6766 18.6409C87.0652 18.3772 87.7871 18.0919 88.0158 17.6583C88.2413 17.2309 87.138 17.2199 87.646 16.7154C87.9898 16.374 88.5497 16.129 88.9753 15.9115C89.2766 15.7576 89.9212 15.5471 90.1197 15.2515C90.1444 15.2147 88.1943 15.3009 88.6255 14.7503C89.3564 13.8171 90.7727 13.8563 91.7338 13.3261C91.7794 13.3009 92.614 12.7505 92.5334 12.7157C91.9321 12.4561 91.0289 12.7729 90.3695 12.5966C89.6938 12.4159 90.1279 12.0267 90.4595 11.7976C90.7292 11.6113 90.9281 11.348 91.1941 11.1575C91.6451 10.8344 92.1743 10.61 92.5933 10.2444C92.8377 10.0311 93.3332 9.67596 93.2879 9.31638C93.2663 9.14414 92.9503 9.38566 92.8232 9.39082C92.6493 9.39786 91.0457 9.50934 91.7638 8.96404C92.2653 8.58321 92.6677 8.15136 93.223 7.8326C93.6813 7.5695 94.1464 7.28246 94.5822 6.98401C94.6957 6.90634 95.2574 6.62715 94.942 6.62175C94.4886 6.61399 93.7234 6.55997 93.2879 6.62175C93.2728 6.6239 93.29 6.00199 93.6449 5.82578C93.8224 5.1209 94.8604 3.18425 95.242 3.0083C95.8277 2.73826 96.0558 4.17862 96.6616 4.23981C96.9055 4.26443 97.8105 4.61241 97.8105 4.94682Z" fill="url(#paint0_linear_5201_18139)"/>
<path d="M106.244 19.9468C106.244 20.5068 105.847 20.3711 105.454 20.3711C106.05 20.6815 106.619 20.9217 107.267 21.0907C107.466 21.1424 108.795 21.372 108.795 21.711C108.795 22.2851 107.26 22.5608 106.877 22.6836C106.272 22.8779 107.17 23.9317 107.424 24.083C107.714 24.2558 107.853 24.3449 107.853 24.7034C107.853 25.1043 106.633 25.0637 106.32 25.1103C106.168 25.1329 106.217 25.3935 106.244 25.5023C106.419 26.1916 107.383 26.4646 107.929 26.6933C108.184 26.8001 109.552 27.3087 109.009 27.6064C108.764 27.7412 108.443 27.8489 108.176 27.924C108.001 27.9733 107.801 27.9281 107.634 28.0034C107.555 28.0389 107.514 28.132 107.424 28.1423C106.968 28.1953 107.192 28.6624 107.463 28.9264C107.827 29.2825 108.071 29.6766 108.2 30.1472C108.327 30.6083 109.123 30.7596 109.461 30.8221C110.007 30.9228 110.513 31.1618 111.046 31.3134C111.516 31.4471 111.008 31.5979 110.799 31.626L110.791 31.6271C110.633 31.6482 109.137 31.8479 109.252 32.0875C109.449 32.4974 110.145 32.9012 110.489 33.1942C110.728 33.3974 110.958 33.5693 111.108 33.8591C111.278 34.1876 111.467 34.6614 111.751 34.8913C112.142 35.209 111.022 35.1281 111.022 35.467C111.022 35.8569 111.674 36.1463 111.936 36.3106C112.594 36.7224 113.328 37.0052 114.002 37.3924C114.278 37.5512 114.724 37.6208 114.906 37.9184C115.049 38.1519 113.754 38.3513 113.64 38.37C112.914 38.4895 111.797 38.4607 111.898 39.5064C111.993 40.4831 112.784 41.0673 113.412 41.675C115.049 43.2608 111.092 42.2726 111.955 43.526C112.341 44.086 113.031 44.1831 113.421 44.7121C113.567 44.9096 113.85 45.4442 113.488 45.5408C112.991 45.6731 112.54 45.8286 112.022 45.8286C111.673 45.8286 111.746 45.8175 111.584 46.0073C111.235 46.4167 111.933 46.7927 112.217 46.9998C112.545 47.2388 113.238 47.6045 112.355 47.6151C111.488 47.6255 110.641 47.6509 109.78 47.6995C109.144 47.7354 108.536 47.9724 107.891 47.9724C107.47 47.9724 107.035 47.9968 106.625 47.8831C106.334 47.8026 106.186 47.5845 105.93 47.4563C104.989 46.9846 103.77 47.2617 102.784 47.2617L94.917 34.4845C95.0929 34.1177 95.3006 33.8829 95.6404 33.6409C96.0105 33.3772 96.6981 33.0919 96.9159 32.6583C97.1306 32.2309 96.0799 32.2199 96.5637 31.7154C96.8911 31.374 97.4243 31.129 97.8297 30.9115C98.1166 30.7576 98.7305 30.5471 98.9196 30.2515C98.9431 30.2147 97.0858 30.3009 97.4965 29.7503C98.1926 28.8171 99.5415 28.8563 100.457 28.3261C100.5 28.3009 101.295 27.7505 101.218 27.7157C100.646 27.4561 99.7855 27.7729 99.1575 27.5966C98.514 27.4159 98.9274 27.0267 99.2432 26.7976C99.5001 26.6113 99.6895 26.348 99.9428 26.1575C100.372 25.8344 100.876 25.61 101.275 25.2444C101.508 25.0311 101.98 24.676 101.937 24.3164C101.916 24.1441 101.615 24.3857 101.494 24.3908C101.329 24.3979 99.8015 24.5093 100.485 23.964C100.963 23.5832 101.346 23.1514 101.875 22.8326C102.312 22.5695 102.755 22.2825 103.17 21.984C103.278 21.9063 103.813 21.6271 103.512 21.6217C103.08 21.614 102.352 21.56 101.937 21.6217C101.923 21.6239 101.939 21.002 102.277 20.8258C102.446 20.1209 103.434 18.1842 103.798 18.0083C104.356 17.7383 104.573 19.1786 105.15 19.2398C105.382 19.2644 106.244 19.6124 106.244 19.9468Z" fill="url(#paint1_linear_5201_18139)"/>
<path d="M61.6223 2.68385C61.6223 3.16917 61.2123 3.05157 60.8058 3.05157C61.4212 3.32061 62.0098 3.52874 62.6797 3.67519C62.8849 3.72005 64.2584 3.91904 64.2584 4.21279C64.2584 4.71036 62.672 4.9493 62.2764 5.05575C61.6506 5.22413 62.5795 6.13741 62.842 6.26858C63.1415 6.41828 63.2846 6.49553 63.2846 6.80618C63.2846 7.1537 62.0242 7.11847 61.701 7.15885C61.544 7.17846 61.5938 7.40429 61.6223 7.49862C61.8027 8.09601 62.7991 8.33258 63.3633 8.53081C63.6267 8.62336 65.0403 9.06417 64.4797 9.32216C64.2258 9.43903 63.895 9.5323 63.619 9.59741C63.438 9.64013 63.2309 9.60097 63.0584 9.66623C62.977 9.69701 62.9341 9.77769 62.842 9.78665C62.3699 9.83252 62.6022 10.2374 62.8813 10.4662C63.2578 10.7748 63.5104 11.1163 63.6436 11.5242C63.7742 11.9238 64.597 12.0549 64.9469 12.1091C65.5109 12.1964 66.0337 12.4035 66.5847 12.5349C67.0706 12.6508 66.545 12.7814 66.3289 12.8058L66.3207 12.8067C66.1571 12.8251 64.6118 12.9981 64.7305 13.2058C64.9337 13.561 65.6536 13.911 66.0093 14.1649C66.256 14.341 66.4934 14.49 66.6486 14.7412C66.8246 15.0259 67.0197 15.4365 67.3126 15.6358C67.7174 15.9111 67.1404 16.1897 67.1404 16.4834C67.1404 16.8213 67.2329 16.7234 67.5044 16.8658C68.1846 17.2227 68.9421 17.4678 69.6389 17.8034C69.9247 17.941 69.708 18.3927 69.8957 18.6506C70.0429 18.853 69.3825 18.6344 69.2651 18.6506C68.515 18.7542 67.3601 18.7292 67.465 19.6355C67.5631 20.4819 68.3804 20.9883 69.029 21.515C70.7215 22.8893 66.6322 22.0329 67.5241 23.1192C67.9225 23.6045 67.1896 23.0951 67.5929 23.5536C66.0584 23.1881 66.8259 23.926 66.4511 24.0097C65.9375 24.1244 68.1288 25.1148 67.5929 25.1148C67.2326 25.1148 67.3076 25.1051 67.1404 25.2696C66.7797 25.6245 66.3554 25.8829 66.6486 26.0623C66.9871 26.2695 66.6747 26.5162 65.7622 26.5254C64.8666 26.5344 66.1662 26.6941 65.2765 26.7362C64.6184 26.7673 63.9909 26.9727 63.3239 26.9727C62.8891 26.9727 62.44 26.9938 62.0157 26.8953C61.7153 26.8255 61.5619 26.6365 61.2977 26.5254C60.3253 26.1166 59.066 26.3567 58.0465 26.3567L49.917 15.2832C50.0987 14.9653 50.3134 14.7618 50.6646 14.552C51.047 14.3235 51.7575 14.0763 51.9826 13.7005C52.2045 13.3301 51.1187 13.3205 51.6187 12.8833C51.957 12.5874 52.508 12.3751 52.9269 12.1866C53.2234 12.0532 53.8579 11.8708 54.0532 11.6146C54.0775 11.5826 52.1582 11.6574 52.5826 11.1802C53.302 10.3714 54.6958 10.4054 55.6417 9.94586C55.6866 9.92407 56.508 9.44704 56.4286 9.41687C55.8369 9.19188 54.948 9.46643 54.2991 9.31365C53.6341 9.15708 54.0612 8.81976 54.3876 8.62121C54.6531 8.45972 54.8488 8.23153 55.1106 8.06641C55.5544 7.78643 56.0753 7.59196 56.4877 7.27506C56.7281 7.09025 57.2158 6.78244 57.1713 6.47081C57.1499 6.32154 56.839 6.53085 56.7139 6.53532C56.5428 6.54143 54.9645 6.63804 55.6712 6.16545C56.1648 5.83539 56.5609 5.46113 57.1073 5.18486C57.5584 4.95684 58.0162 4.70808 58.4451 4.44942C58.5567 4.3821 59.1095 4.14014 58.7992 4.13546C58.353 4.12873 57.5999 4.08192 57.1713 4.13546C57.1564 4.13732 57.1733 3.59834 57.5226 3.44562C57.6972 2.83473 58.7188 1.15629 59.0944 1.0038C59.6708 0.769769 59.8953 2.01809 60.4916 2.07111C60.7316 2.09246 61.6223 2.39404 61.6223 2.68385Z" fill="url(#paint2_linear_5201_18139)"/>
<path d="M35.1562 16.8153C35.1562 17.338 35.5331 17.2113 35.9067 17.2113C35.3411 17.5011 34.7999 17.7252 34.1841 17.8829C33.9955 17.9312 32.7328 18.1455 32.7328 18.4619C32.7328 18.9977 34.1912 19.255 34.5549 19.3697C35.1301 19.551 34.2762 20.5346 34.0349 20.6758C33.7595 20.837 33.628 20.9202 33.628 21.2548C33.628 21.629 34.7867 21.5911 35.0839 21.6346C35.2282 21.6557 35.1824 21.8989 35.1562 22.0005C34.9903 22.6438 34.0743 22.8986 33.5556 23.1121C33.3135 23.2117 32.014 23.6864 32.5293 23.9643C32.7627 24.0901 33.0669 24.1906 33.3205 24.2607C33.487 24.3067 33.6773 24.2645 33.836 24.3348C33.9108 24.368 33.9502 24.4549 34.0349 24.4645C34.4689 24.5139 34.2553 24.9499 33.9987 25.1963C33.6526 25.5287 33.4204 25.8965 33.2979 26.3357C33.1779 26.766 32.4215 26.9073 32.0998 26.9656C31.5813 27.0596 31.1007 27.2826 30.5942 27.4241C30.1475 27.5489 30.6306 27.6897 30.8293 27.7159L30.8368 27.7169C30.9872 27.7366 32.4079 27.923 32.2987 28.1467C32.112 28.5292 31.4501 28.9061 31.1232 29.1795C30.8963 29.3692 30.6781 29.5296 30.5354 29.8002C30.3736 30.1068 30.1943 30.549 29.925 30.7635C29.5529 31.06 30.6168 30.9845 30.6168 31.3008C30.6168 31.6647 29.9982 31.9348 29.7487 32.0882C29.1234 32.4725 28.427 32.7365 27.7864 33.0979C27.5237 33.2461 27.0999 33.3111 26.9274 33.5888C26.792 33.8067 28.0221 33.9929 28.1301 34.0103C28.8197 34.1219 29.8813 34.095 29.7849 35.071C29.6947 35.9825 28.9433 36.5278 28.3471 37.095C26.7911 38.5751 30.5505 37.6527 29.7306 38.8226C29.3643 39.3452 28.7088 39.4358 28.338 39.9296C28.1996 40.1139 27.9302 40.6129 28.2747 40.7031C28.7469 40.8265 29.1747 40.9717 29.6673 40.9717C29.9986 40.9717 29.9296 40.9613 30.0833 41.1384C30.4149 41.5206 29.7515 41.8715 29.4819 42.0648C29.1708 42.2879 28.5119 42.6292 29.3508 42.6391C30.1742 42.6488 30.9789 42.6725 31.7969 42.7178C32.4018 42.7513 32.9787 42.9726 33.5918 42.9726C33.9916 42.9726 34.4044 42.9953 34.7945 42.8892C35.0707 42.814 35.2117 42.6105 35.4546 42.4909C36.3485 42.0506 37.5062 42.3092 38.4434 42.3092L45.917 30.3838C45.7499 30.0415 45.5526 29.8224 45.2298 29.5965C44.8781 29.3504 44.225 29.0841 44.018 28.6794C43.8141 28.2805 44.8122 28.2702 44.3526 27.7994C44.0416 27.4807 43.5351 27.2521 43.1499 27.0491C42.8774 26.9054 42.2941 26.709 42.1146 26.433C42.0922 26.3987 43.8566 26.4791 43.4664 25.9652C42.8051 25.0943 41.5238 25.1309 40.6542 24.636C40.6129 24.6125 39.8578 24.0988 39.9308 24.0663C40.4748 23.824 41.2919 24.1197 41.8885 23.9551C42.4998 23.7865 42.1071 23.4232 41.8071 23.2094C41.5631 23.0355 41.3831 22.7898 41.1425 22.6119C40.7344 22.3104 40.2556 22.101 39.8765 21.7597C39.6554 21.5607 39.2071 21.2292 39.248 20.8936C39.2676 20.7328 39.5535 20.9583 39.6685 20.9631C39.8258 20.9696 41.2767 21.0737 40.627 20.5647C40.1733 20.2093 39.8092 19.8062 39.3068 19.5087C38.8922 19.2632 38.4713 18.9953 38.077 18.7167C37.9744 18.6442 37.4662 18.3836 37.7515 18.3786C38.1617 18.3714 38.854 18.3209 39.248 18.3786C39.2617 18.3806 39.2462 17.8002 38.9251 17.6357C38.7645 16.9778 37.8254 15.1703 37.4801 15.0061C36.9502 14.754 36.7438 16.0984 36.1957 16.1555C35.975 16.1784 35.1562 16.5032 35.1562 16.8153Z" fill="url(#paint3_linear_5201_18139)"/>
<path d="M81.3262 11.1404L58.557 47.9746L50.5878 22.3703L38.0647 47.9746H31.917L50.5878 14.0602L54.5739 18.3276L66.7539 5.97461H83.1478L105.917 47.9746H100.908L81.3262 11.1404Z" fill="url(#paint4_linear_5201_18139)"/>
<path d="M82.6729 17.8066L99.2612 49.1979" stroke="#3F5540"/>
<path d="M71.6143 31.9121L60.0946 49.9751" stroke="#3F5540"/>
<path d="M12.3971 58.8181V53.1701H13.8691V64.3701H12.3971V60.5461C12.2371 56.9301 8.81306 53.4741 5.66106 53.4741V64.3701H4.18906V53.1701H5.66106C8.70106 53.1701 11.5811 56.0501 12.3971 58.8181ZM19.0223 53.1701H20.6703L25.0703 64.3701H23.4863L21.6943 59.8101H16.9263L15.2463 64.3701H14.9103L19.0223 53.1701ZM19.2303 53.5221L17.0383 59.5061H21.5823L19.2303 53.5221ZM43.3369 62.4981L43.5609 62.7061C42.2969 64.0341 39.8809 64.6741 38.0569 64.6741C34.2489 64.6741 31.9609 62.3061 31.9609 58.7861C31.9609 55.3301 34.5049 52.8661 38.1529 52.8661C40.8569 52.8661 42.3929 53.8581 42.8249 55.8741L42.5049 55.9381C42.0409 53.8101 40.2969 53.1701 38.2329 53.1701C35.1769 53.1701 33.5289 55.3621 33.5449 58.7861C33.5449 62.4021 35.3209 64.3701 38.1529 64.3701C39.7849 64.3701 42.1529 63.7461 43.3369 62.4981ZM44.7753 53.1701H53.0953V53.4741H46.2473V58.3861H51.6553V58.6901H46.2473V64.0661H53.0953V64.3701H44.7753V53.1701ZM58.0331 53.5221L54.1451 64.3701H53.8091L57.8251 53.1701H59.4731L63.7611 64.3701H62.1931L58.0331 53.5221ZM66.2904 64.3701H64.8184V53.1701H66.2904V64.3701ZM81.6703 53.1701H82.0063L78.3423 63.5381C78.1023 64.2261 77.4303 64.6741 76.7103 64.6741C75.7983 64.6741 74.9983 63.8901 74.9983 62.9621C74.9983 62.0501 75.7663 61.2661 76.7103 61.2501V61.5701C75.9423 61.5701 75.3183 62.1941 75.3183 62.9461C75.3183 63.6981 75.9263 64.3701 76.7263 64.3701C77.3183 64.3541 77.8303 64.0021 78.0383 63.4421L78.5183 62.0981L73.3663 53.1701H75.0783L79.1423 60.3221L81.6703 53.1701ZM88.5809 64.3701L92.5969 53.1701H94.2449L98.4209 64.0821C99.3969 64.2101 99.9729 64.7061 99.9729 65.6501C99.9729 66.7381 99.1729 67.1861 97.9089 67.1861V66.8821C99.0769 66.8821 99.6529 66.5621 99.6529 65.6501C99.6529 64.7541 99.0449 64.4021 98.0209 64.3701H88.5809ZM92.8049 53.5381L89.0289 64.0501L96.8369 64.0661L92.8049 53.5381ZM101.844 64.3701H100.372V53.1701H101.844V64.3701ZM102.905 64.3701L106.921 53.1701H108.569L112.745 64.0821C113.721 64.2101 114.297 64.7061 114.297 65.6501C114.297 66.7381 113.497 67.1861 112.233 67.1861V66.8821C113.401 66.8821 113.977 66.5621 113.977 65.6501C113.977 64.7541 113.369 64.4021 112.345 64.3701H102.905ZM107.129 53.5381L103.353 64.0501L111.161 64.0661L107.129 53.5381ZM119.661 53.1701H119.997L116.333 63.5381C116.093 64.2261 115.421 64.6741 114.701 64.6741C113.789 64.6741 112.989 63.8901 112.989 62.9621C112.989 62.0501 113.757 61.2661 114.701 61.2501V61.5701C113.933 61.5701 113.309 62.1941 113.309 62.9461C113.309 63.6981 113.917 64.3701 114.717 64.3701C115.309 64.3541 115.821 64.0021 116.029 63.4421L116.509 62.0981L111.357 53.1701H113.069L117.133 60.3221L119.661 53.1701ZM131.316 62.4981L131.54 62.7061C130.276 64.0341 127.86 64.6741 126.036 64.6741C122.228 64.6741 119.94 62.3061 119.94 58.7861C119.94 55.3301 122.484 52.8661 126.132 52.8661C128.836 52.8661 130.372 53.8581 130.804 55.8741L130.484 55.9381C130.02 53.8101 128.276 53.1701 126.212 53.1701C123.156 53.1701 121.508 55.3621 121.524 58.7861C121.524 62.4021 123.3 64.3701 126.132 64.3701C127.764 64.3701 130.132 63.7461 131.316 62.4981ZM132.05 57.0421C132.05 54.4501 133.394 52.8661 135.634 52.8661C138.114 52.8661 138.93 54.7381 139.346 56.8501V53.1701H140.818V64.3541H139.346V60.8341C138.674 61.1221 137.554 61.1541 136.802 61.1541L134.242 64.3701H132.37L135.026 61.0101C133.186 60.6261 132.05 59.4421 132.05 57.0421ZM139.346 60.5301C139.346 58.1461 139.122 53.2501 135.986 53.2501C134.066 53.2501 133.618 55.0741 133.618 57.0741C133.618 60.4821 135.122 60.8821 136.962 60.8821C138.018 60.8821 138.754 60.7221 139.346 60.5301Z" fill="#3F5540"/>
<path d="M33.5614 70.9701H39.8014V71.1981H34.6654V74.8821H38.7214V75.1101H34.6654V79.1421H39.8014V79.3701H33.5614V70.9701ZM42.9407 74.8941C45.6167 74.8941 47.0927 76.2861 47.0927 78.9861V79.3701H45.9527V78.9861C45.9647 76.2141 44.9807 75.1221 43.0127 75.1221H41.8007V79.3701H40.6967V70.9701H41.8007V74.8941H42.7007V74.1021C42.7007 72.5421 42.9407 70.7421 44.9087 70.7421C45.9767 70.7421 46.7567 71.3901 46.7567 72.4821C46.7567 73.5981 45.9527 74.2821 44.6567 74.2821V74.0541C45.8327 74.0541 46.5167 73.4661 46.5167 72.4821C46.5167 71.7861 46.1087 70.9701 44.9087 70.9701C43.0967 70.9701 42.9407 72.6861 42.9407 74.1021V74.8941ZM52.1725 70.7421C54.6805 70.7421 56.9725 72.3501 56.9725 75.1701C56.9725 77.9901 54.6805 79.5981 52.1725 79.5981C49.6645 79.5981 47.3605 77.9901 47.3605 75.1701C47.3605 72.3501 49.6645 70.7421 52.1725 70.7421ZM52.1725 79.3701C54.3325 79.3701 55.7965 78.0141 55.7965 75.1701C55.7965 72.3141 54.3325 70.9701 52.1725 70.9701C50.0125 70.9701 48.5365 72.3141 48.5365 75.1701C48.5365 78.0261 50.0125 79.3701 52.1725 79.3701ZM57.9908 75.8901V75.6621H61.5188V75.8901H57.9908ZM71.0654 77.9661L71.2334 78.1221C70.2854 79.1181 68.4734 79.5981 67.1054 79.5981C64.2494 79.5981 62.5334 77.8221 62.5334 75.1821C62.5334 72.5901 64.4414 70.7421 67.1774 70.7421C69.2054 70.7421 70.3574 71.4861 70.6814 72.9981L70.4414 73.0461C70.0934 71.4501 68.7854 70.9701 67.2374 70.9701C64.9454 70.9701 63.7094 72.6141 63.7214 75.1821C63.7214 77.8941 65.0534 79.3701 67.1774 79.3701C68.4014 79.3701 70.1774 78.9021 71.0654 77.9661ZM74.6338 70.9701H75.8698L79.1698 79.3701H77.9818L76.6378 75.9501H73.0618L71.8018 79.3701H71.5498L74.6338 70.9701ZM74.7898 71.2341L73.1458 75.7221H76.5538L74.7898 71.2341ZM79.5992 79.3701L82.6112 70.9701H83.8472L86.9792 79.1541C87.7112 79.2501 88.1432 79.6221 88.1432 80.3301C88.1432 81.1461 87.5432 81.4821 86.5952 81.4821V81.2541C87.4712 81.2541 87.9032 81.0141 87.9032 80.3301C87.9032 79.6581 87.4472 79.3941 86.6792 79.3701H79.5992ZM82.7672 71.2461L79.9352 79.1301L85.7912 79.1421L82.7672 71.2461ZM94.3342 75.2061C93.7342 77.2581 91.8022 79.3701 89.5462 79.3701H88.4422V70.9701H89.5462V79.1421C91.9102 79.1421 94.2262 76.5501 94.3342 73.8381V70.9701H95.4382V79.3701H94.3342V75.2061ZM96.5973 70.9701H102.669V71.1981H97.7013V74.5821H100.425C101.901 74.5821 103.677 74.9541 103.677 77.0301C103.677 78.8661 102.321 79.3701 100.725 79.3701H96.5973V70.9701ZM100.461 79.1421C101.733 79.1421 102.501 78.5901 102.501 77.0301C102.501 75.3981 101.613 74.8101 100.221 74.8101H97.7013V79.1421H100.461ZM107.253 70.9701H108.489L111.789 79.3701H110.601L109.257 75.9501H105.681L104.421 79.3701H104.169L107.253 70.9701ZM107.409 71.2341L105.765 75.7221H109.173L107.409 71.2341Z" fill="#B4854F"/>
<defs>
<linearGradient id="paint0_linear_5201_18139" x1="94.9852" y1="5.02006" x2="98.4569" y2="27.1199" gradientUnits="userSpaceOnUse">
<stop stop-color="#2B3C2C"/>
<stop offset="1" stop-color="#1F2C1F"/>
</linearGradient>
<linearGradient id="paint1_linear_5201_18139" x1="104.028" y1="25.9292" x2="107.211" y2="42.0614" gradientUnits="userSpaceOnUse">
<stop stop-color="#2E432F"/>
<stop offset="1" stop-color="#283A29" stop-opacity="0.99"/>
</linearGradient>
<linearGradient id="paint2_linear_5201_18139" x1="58.8417" y1="2.74734" x2="61.5057" y2="22.0047" gradientUnits="userSpaceOnUse">
<stop stop-color="#2B3C2C"/>
<stop offset="1" stop-color="#1F2C1F"/>
</linearGradient>
<linearGradient id="paint3_linear_5201_18139" x1="37.2614" y1="22.3989" x2="34.3395" y2="37.4753" gradientUnits="userSpaceOnUse">
<stop stop-color="#2E432F"/>
<stop offset="1" stop-color="#283A29" stop-opacity="0.99"/>
</linearGradient>
<linearGradient id="paint4_linear_5201_18139" x1="65.7004" y1="8.20175" x2="84.5055" y2="42.8216" gradientUnits="userSpaceOnUse">
<stop stop-color="#4A7C4D"/>
<stop offset="0.716361" stop-color="#233F24"/>
</linearGradient>
</defs>
</svg>
