<svg viewBox="0 0 279 135" fill="none" xmlns="http://www.w3.org/2000/svg">
<path d="M179.716 5.57436C179.716 6.39792 179.126 6.19836 178.54 6.19836C179.427 6.65491 180.275 7.00809 181.241 7.25662C181.536 7.33274 183.516 7.67042 183.516 8.1689C183.516 9.01327 181.23 9.41874 180.659 9.59938C179.757 9.88511 181.096 11.4349 181.475 11.6575C181.906 11.9115 182.113 12.0426 182.113 12.5698C182.113 13.1595 180.296 13.0997 179.83 13.1683C179.604 13.2015 179.675 13.5848 179.716 13.7448C179.977 14.7586 181.413 15.16 182.226 15.4964C182.606 15.6535 184.643 16.4015 183.835 16.8393C183.469 17.0376 182.993 17.1959 182.595 17.3064C182.334 17.3789 182.035 17.3125 181.787 17.4232C181.669 17.4754 181.607 17.6123 181.475 17.6275C180.794 17.7054 181.129 18.3924 181.531 18.7807C182.074 19.3044 182.438 19.884 182.63 20.5761C182.818 21.2542 184.004 21.4767 184.509 21.5686C185.322 21.7168 186.075 22.0682 186.87 22.2912C187.57 22.4878 186.813 22.7096 186.501 22.751L186.489 22.7525C186.253 22.7836 184.026 23.0773 184.197 23.4297C184.49 24.0325 185.528 24.6264 186.04 25.0572C186.396 25.3561 186.738 25.6089 186.962 26.0352C187.216 26.5184 187.497 27.2152 187.919 27.5533C188.502 28.0205 186.834 27.9014 186.834 28.3999C186.834 28.9733 187.804 29.3989 188.195 29.6406C189.176 30.2462 190.268 30.6622 191.272 31.2316C191.684 31.4652 192.349 31.5675 192.619 32.0052C192.831 32.3486 190.903 32.6419 190.733 32.6694C189.652 32.8452 187.987 32.8028 188.139 34.3407C188.28 35.7771 189.458 36.6363 190.393 37.5301C192.833 39.8623 186.938 38.4089 188.224 40.2523C188.798 41.0759 189.826 41.2186 190.407 41.9966C190.624 42.2872 191.047 43.0735 190.507 43.2155C189.766 43.4101 189.095 43.6388 188.323 43.6388C187.804 43.6388 187.912 43.6224 187.671 43.9015C187.151 44.5037 188.191 45.0566 188.614 45.3612C189.101 45.7127 190.135 46.2506 188.819 46.2662C187.528 46.2814 186.266 46.3189 184.984 46.3902C184.035 46.443 183.131 46.7916 182.169 46.7916C181.543 46.7916 180.895 46.8275 180.284 46.6603C179.851 46.5418 179.63 46.2212 179.249 46.0326C177.847 45.3389 176.032 45.7464 174.562 45.7464L162.844 26.9549C163.106 26.4156 163.415 26.0702 163.921 25.7142C164.473 25.3265 165.497 24.9069 165.821 24.2692C166.141 23.6406 164.576 23.6244 165.297 22.8825C165.784 22.3804 166.579 22.02 167.182 21.7002C167.61 21.4737 168.524 21.1642 168.806 20.7295C168.841 20.6753 166.074 20.8021 166.686 19.9923C167.723 18.6199 169.732 18.6775 171.096 17.8977C171.16 17.8607 172.344 17.0512 172.23 17C171.377 16.6182 170.096 17.0841 169.16 16.8249C168.202 16.5592 168.818 15.9868 169.288 15.6498C169.671 15.3758 169.953 14.9886 170.33 14.7084C170.97 14.2332 171.721 13.9032 172.315 13.3655C172.662 13.0518 173.365 12.5295 173.301 12.0007C173.27 11.7474 172.822 12.1026 172.641 12.1102C172.395 12.1205 170.12 12.2845 171.138 11.4825C171.85 10.9224 172.421 10.2873 173.208 9.81848C173.859 9.43154 174.518 9.00939 175.137 8.57046C175.298 8.45623 176.094 8.04562 175.647 8.03768C175.004 8.02627 173.918 7.94682 173.301 8.03768C173.279 8.04084 173.303 7.12621 173.807 6.86704C174.059 5.83038 175.531 2.98215 176.073 2.72337C176.904 2.32623 177.227 4.44457 178.087 4.53455C178.433 4.57078 179.716 5.08255 179.716 5.57436Z" fill="url(#paint0_linear_210_3079)"/>
<path d="M192.287 27.6349C192.287 28.4585 191.683 28.2589 191.084 28.2589C191.991 28.7155 192.859 29.0686 193.846 29.3172C194.149 29.3933 196.174 29.731 196.174 30.2295C196.174 31.0738 193.835 31.4793 193.252 31.6599C192.329 31.9457 193.699 33.4955 194.086 33.7181C194.527 33.9721 194.738 34.1032 194.738 34.6303C194.738 35.2201 192.88 35.1603 192.403 35.2288C192.172 35.2621 192.245 35.6453 192.287 35.8054C192.553 36.8191 194.022 37.2206 194.854 37.557C195.242 37.714 197.326 38.4621 196.5 38.8999C196.126 39.0982 195.638 39.2565 195.231 39.367C194.964 39.4394 194.659 39.373 194.405 39.4837C194.285 39.536 194.221 39.6729 194.086 39.6881C193.39 39.7659 193.732 40.4529 194.144 40.8412C194.699 41.365 195.071 41.9445 195.267 42.6366C195.46 43.3147 196.673 43.5373 197.189 43.6292C198.02 43.7773 198.791 44.1287 199.603 44.3517C200.32 44.5484 199.545 44.7701 199.226 44.8115L199.214 44.8131C198.973 44.8442 196.695 45.1378 196.87 45.4903C197.169 46.0931 198.231 46.687 198.755 47.1178C199.119 47.4167 199.469 47.6695 199.697 48.0958C199.957 48.5789 200.244 49.2757 200.676 49.6138C201.273 50.081 199.567 49.962 199.567 50.4604C199.567 51.0338 200.559 51.4594 200.959 51.7011C201.962 52.3067 203.079 52.7227 204.106 53.2922C204.527 53.5257 205.207 53.6281 205.483 54.0658C205.7 54.4091 203.728 54.7024 203.555 54.7299C202.449 54.9057 200.746 54.8633 200.901 56.4013C201.046 57.8376 202.25 58.6969 203.207 59.5906C205.702 61.9228 199.673 60.4695 200.988 62.3129C201.575 63.1365 202.627 63.2792 203.221 64.0572C203.443 64.3477 203.875 65.134 203.323 65.276C202.566 65.4706 201.88 65.6993 201.09 65.6993C200.558 65.6993 200.669 65.683 200.423 65.9621C199.891 66.5643 200.955 67.1172 201.387 67.4217C201.886 67.7733 202.942 68.3111 201.597 68.3267C200.277 68.342 198.986 68.3794 197.675 68.4508C196.704 68.5036 195.779 68.8522 194.796 68.8522C194.155 68.8522 193.493 68.8881 192.867 68.7208C192.425 68.6024 192.199 68.2817 191.809 68.0932C190.376 67.3995 188.519 67.8069 187.016 67.8069L175.031 49.0155C175.299 48.4761 175.616 48.1308 176.133 47.7748C176.697 47.387 177.745 46.9674 178.076 46.3297C178.404 45.7012 176.803 45.6849 177.54 44.943C178.039 44.4409 178.851 44.0806 179.469 43.7607C179.906 43.5343 180.841 43.2248 181.129 42.79C181.165 42.7358 178.335 42.8626 178.961 42.0529C180.021 40.6804 182.076 40.7381 183.471 39.9583C183.537 39.9213 184.748 39.1118 184.631 39.0606C183.759 38.6788 182.448 39.1447 181.491 38.8854C180.511 38.6197 181.141 38.0473 181.622 37.7104C182.013 37.4363 182.302 37.0491 182.688 36.7689C183.342 36.2938 184.11 35.9638 184.718 35.426C185.072 35.1124 185.791 34.5901 185.726 34.0612C185.694 33.8079 185.236 34.1631 185.051 34.1707C184.799 34.1811 182.472 34.345 183.514 33.543C184.242 32.983 184.826 32.3478 185.631 31.879C186.296 31.4921 186.971 31.0699 187.604 30.631C187.768 30.5168 188.583 30.1062 188.126 30.0982C187.468 30.0868 186.358 30.0074 185.726 30.0982C185.704 30.1014 185.729 29.1868 186.244 28.9276C186.501 27.8909 188.007 25.0427 188.561 24.7839C189.411 24.3868 189.742 26.5051 190.621 26.5951C190.974 26.6313 192.287 27.1431 192.287 27.6349Z" fill="url(#paint1_linear_210_3079)"/>
<path d="M126.61 2.505C126.61 3.21626 126.005 3.04391 125.406 3.04391C126.313 3.43821 127.181 3.74323 128.169 3.95786C128.471 4.0236 130.496 4.31524 130.496 4.74575C130.496 5.47497 128.157 5.82515 127.574 5.98116C126.652 6.22792 128.021 7.5664 128.408 7.75863C128.849 7.97803 129.06 8.09124 129.06 8.54652C129.06 9.05582 127.202 9.0042 126.726 9.06337C126.494 9.09211 126.568 9.42308 126.61 9.56132C126.876 10.4368 128.345 10.7835 129.176 11.0741C129.565 11.2097 131.649 11.8557 130.822 12.2338C130.448 12.4051 129.96 12.5418 129.553 12.6372C129.287 12.6998 128.981 12.6424 128.727 12.7381C128.607 12.7832 128.544 12.9014 128.408 12.9146C127.712 12.9818 128.054 13.5751 128.466 13.9105C129.021 14.3628 129.393 14.8633 129.59 15.461C129.782 16.0467 130.995 16.2389 131.511 16.3182C132.342 16.4462 133.113 16.7497 133.925 16.9423C134.642 17.1121 133.867 17.3036 133.548 17.3393L133.536 17.3407C133.295 17.3675 131.017 17.6212 131.192 17.9255C131.491 18.4461 132.553 18.9591 133.077 19.3311C133.441 19.5893 133.791 19.8076 134.02 20.1757C134.279 20.593 134.567 21.1948 134.999 21.4868C135.595 21.8903 134.745 22.2986 134.745 22.729C134.745 23.2243 134.881 23.0807 135.281 23.2895C136.284 23.8125 137.401 24.1718 138.428 24.6635C138.849 24.8653 138.53 25.5272 138.807 25.9053C139.024 26.2018 138.05 25.8815 137.877 25.9053C136.771 26.0571 135.069 26.0205 135.223 27.3487C135.368 28.5892 136.573 29.3312 137.529 30.1031C140.024 32.1173 133.996 30.8621 135.31 32.4542C135.898 33.1654 134.817 32.4189 135.412 33.0908C133.15 32.5552 134.281 33.6367 133.729 33.7593C132.971 33.9273 136.202 35.3788 135.412 35.3788C134.881 35.3788 134.991 35.3647 134.745 35.6057C134.213 36.1258 133.587 36.5045 134.02 36.7675C134.519 37.0712 134.058 37.4328 132.713 37.4462C131.393 37.4594 133.309 37.6935 131.997 37.7551C131.027 37.8007 130.102 38.1018 129.118 38.1018C128.477 38.1018 127.815 38.1327 127.19 37.9883C126.747 37.886 126.521 37.6091 126.131 37.4462C124.698 36.8471 122.841 37.199 121.338 37.199L109.354 20.9701C109.621 20.5042 109.938 20.206 110.456 19.8985C111.019 19.5636 112.067 19.2013 112.399 18.6505C112.726 18.1077 111.125 18.0937 111.862 17.4529C112.361 17.0193 113.173 16.7081 113.791 16.4318C114.228 16.2363 115.163 15.969 115.451 15.5935C115.487 15.5467 112.658 15.6562 113.283 14.9569C114.344 13.7716 116.399 13.8214 117.793 13.1479C117.859 13.116 119.07 12.4169 118.953 12.3726C118.081 12.0429 116.77 12.4453 115.814 12.2214C114.833 11.9919 115.463 11.4975 115.944 11.2066C116.336 10.9699 116.624 10.6355 117.01 10.3935C117.664 9.98313 118.432 9.69812 119.04 9.23369C119.395 8.96283 120.114 8.51173 120.048 8.05501C120.017 7.83624 119.558 8.14301 119.374 8.14955C119.121 8.1585 116.795 8.3001 117.837 7.60748C118.564 7.12377 119.148 6.57526 119.954 6.17038C120.619 5.8362 121.294 5.47162 121.926 5.09254C122.09 4.99389 122.905 4.63928 122.448 4.63242C121.79 4.62256 120.68 4.55395 120.048 4.63242C120.026 4.63515 120.051 3.84523 120.566 3.62141C120.823 2.72611 122.329 0.266271 122.883 0.0427862C123.733 -0.300206 124.064 1.52928 124.943 1.60699C125.297 1.63827 126.61 2.08025 126.61 2.505Z" fill="url(#paint2_linear_210_3079)"/>
<path d="M87.8317 23.4474C87.8317 24.221 88.3958 24.0336 88.955 24.0336C88.1084 24.4625 87.2985 24.7942 86.3768 25.0277C86.0945 25.0992 84.2045 25.4164 84.2045 25.8847C84.2045 26.6779 86.3873 27.0588 86.9317 27.2285C87.7927 27.4969 86.5146 28.9528 86.1535 29.1619C85.7412 29.4005 85.5444 29.5237 85.5444 30.0189C85.5444 30.5728 87.2787 30.5167 87.7234 30.5811C87.9394 30.6123 87.8709 30.9723 87.8317 31.1227C87.5834 32.075 86.2125 32.4521 85.4361 32.7681C85.0737 32.9157 83.1287 33.6184 83.9 34.0296C84.2494 34.2159 84.7046 34.3646 85.0843 34.4684C85.3333 34.5365 85.6183 34.4741 85.8557 34.5781C85.9677 34.6272 86.0267 34.7558 86.1535 34.7701C86.803 34.8432 86.4833 35.4886 86.0993 35.8533C85.5813 36.3453 85.2338 36.8898 85.0504 37.5399C84.8708 38.1769 83.7386 38.386 83.2571 38.4723C82.4811 38.6115 81.7618 38.9416 81.0037 39.1511C80.3351 39.3358 81.0582 39.5441 81.3556 39.583L81.3669 39.5845C81.5918 39.6136 83.7183 39.8895 83.5549 40.2206C83.2754 40.7869 82.2848 41.3448 81.7954 41.7495C81.4559 42.0303 81.1293 42.2678 80.9157 42.6682C80.6735 43.1221 80.4052 43.7766 80.0021 44.0942C79.4452 44.5331 81.0375 44.4213 81.0375 44.8895C81.0375 45.4282 80.1117 45.828 79.7382 46.0551C78.8024 46.624 77.76 47.0147 76.8013 47.5497C76.408 47.7691 75.7738 47.8652 75.5155 48.2764C75.313 48.5989 77.154 48.8745 77.3156 48.9003C78.3477 49.0654 79.9368 49.0256 79.7924 50.4703C79.6575 51.8196 78.5329 52.6268 77.6404 53.4664C75.3116 55.6573 80.9383 54.292 79.7112 56.0237C79.1629 56.7973 78.1818 56.9314 77.6269 57.6623C77.4197 57.9352 77.0165 58.6738 77.5321 58.8072C78.2388 58.99 78.8791 59.2049 79.6164 59.2049C80.1122 59.2049 80.009 59.1895 80.239 59.4517C80.7353 60.0174 79.7424 60.5368 79.339 60.8229C78.8733 61.1531 77.8872 61.6584 79.1427 61.673C80.375 61.6874 81.5795 61.7225 82.8037 61.7896C83.7091 61.8392 84.5726 62.1667 85.4903 62.1667C86.0886 62.1667 86.7065 62.2004 87.2903 62.0433C87.7037 61.932 87.9147 61.6307 88.2783 61.4536C89.6162 60.802 91.349 61.1848 92.7517 61.1848L103.938 43.5322C103.687 43.0255 103.392 42.7011 102.909 42.3667C102.383 42.0024 101.405 41.6082 101.095 41.0092C100.79 40.4187 102.284 40.4035 101.596 39.7065C101.131 39.2349 100.372 38.8964 99.796 38.5959C99.388 38.3832 98.5151 38.0924 98.2464 37.684C98.2129 37.6331 100.854 37.7522 100.27 36.9916C99.28 35.7023 97.3621 35.7565 96.0606 35.0239C95.9988 34.9891 94.8686 34.2287 94.9778 34.1806C95.7921 33.8219 97.0151 34.2596 97.908 34.0161C98.823 33.7665 98.2353 33.2287 97.7862 32.9122C97.4209 32.6548 97.1516 32.291 96.7914 32.0278C96.1807 31.5815 95.464 31.2715 94.8966 30.7663C94.5657 30.4717 93.8947 29.981 93.956 29.4842C93.9854 29.2463 94.4132 29.58 94.5853 29.5871C94.8208 29.5968 96.9924 29.7508 96.02 28.9975C95.3409 28.4713 94.7959 27.8747 94.044 27.4343C93.4234 27.0708 92.7934 26.6742 92.2033 26.2619C92.0497 26.1546 91.2891 25.7689 91.7161 25.7614C92.3301 25.7507 93.3663 25.6761 93.956 25.7614C93.9765 25.7644 93.9532 24.9052 93.4726 24.6617C93.2323 23.6879 91.8267 21.0123 91.3099 20.7692C90.5168 20.3961 90.2079 22.3861 89.3875 22.4706C89.0572 22.5046 87.8317 22.9854 87.8317 23.4474Z" fill="url(#paint3_linear_210_3079)"/>
<path d="M155.733 14.3733L121.879 69.1904L110.03 31.0858L91.4102 69.1904H82.2695L110.03 18.7186L115.957 25.0693L134.066 6.68555H158.441L192.296 69.1904H184.848L155.733 14.3733Z" fill="url(#paint4_linear_210_3079)"/>
<path d="M157.428 24.7344L181.803 70.8609" stroke="#3F5540"/>
<path d="M141.178 45.459L124.251 72.0009" stroke="#3F5540"/>
<path d="M17.2941 93.896V82.6H20.2381V105H17.2941V97.352C16.9741 90.12 10.1261 83.208 3.82212 83.208V105H0.878122V82.6H3.82212C9.90212 82.6 15.6621 88.36 17.2941 93.896ZM30.5446 82.6H33.8406L42.6406 105H39.4726L35.8886 95.88H26.3526L22.9926 105H22.3206L30.5446 82.6ZM30.9606 83.304L26.5766 95.272H35.6646L30.9606 83.304ZM79.1739 101.256L79.6219 101.672C77.0939 104.328 72.2619 105.608 68.6139 105.608C60.9979 105.608 56.4219 100.872 56.4219 93.832C56.4219 86.92 61.5099 81.992 68.8059 81.992C74.2139 81.992 77.2859 83.976 78.1499 88.008L77.5099 88.136C76.5819 83.88 73.0939 82.6 68.9659 82.6C62.8539 82.6 59.5579 86.984 59.5899 93.832C59.5899 101.064 63.1419 105 68.8059 105C72.0699 105 76.8059 103.752 79.1739 101.256ZM82.0506 82.6H98.6906V83.208H84.9946V93.032H95.8106V93.64H84.9946V104.392H98.6906V105H82.0506V82.6ZM108.566 83.304L100.79 105H100.118L108.15 82.6H111.446L120.022 105H116.886L108.566 83.304ZM125.081 105H122.137V82.6H125.081V105ZM155.841 82.6H156.513L149.185 103.336C148.705 104.712 147.361 105.608 145.921 105.608C144.097 105.608 142.497 104.04 142.497 102.184C142.497 100.36 144.033 98.792 145.921 98.76V99.4C144.385 99.4 143.137 100.648 143.137 102.152C143.137 103.656 144.353 105 145.953 105C147.137 104.968 148.161 104.264 148.577 103.144L149.537 100.456L139.233 82.6H142.657L150.785 96.904L155.841 82.6ZM169.662 105L177.694 82.6H180.99L189.342 104.424C191.294 104.68 192.446 105.672 192.446 107.56C192.446 109.736 190.846 110.632 188.318 110.632V110.024C190.654 110.024 191.806 109.384 191.806 107.56C191.806 105.768 190.59 105.064 188.542 105H169.662ZM178.11 83.336L170.558 104.36L186.174 104.392L178.11 83.336ZM196.187 105H193.243V82.6H196.187V105ZM198.311 105L206.343 82.6H209.639L217.991 104.424C219.943 104.68 221.095 105.672 221.095 107.56C221.095 109.736 219.495 110.632 216.967 110.632V110.024C219.303 110.024 220.455 109.384 220.455 107.56C220.455 105.768 219.239 105.064 217.191 105H198.311ZM206.759 83.336L199.207 104.36L214.823 104.392L206.759 83.336ZM231.822 82.6H232.494L225.166 103.336C224.686 104.712 223.342 105.608 221.902 105.608C220.078 105.608 218.478 104.04 218.478 102.184C218.478 100.36 220.014 98.792 221.902 98.76V99.4C220.366 99.4 219.118 100.648 219.118 102.152C219.118 103.656 220.334 105 221.934 105C223.118 104.968 224.142 104.264 224.558 103.144L225.518 100.456L215.214 82.6H218.638L226.766 96.904L231.822 82.6ZM255.133 101.256L255.581 101.672C253.053 104.328 248.221 105.608 244.573 105.608C236.957 105.608 232.381 100.872 232.381 93.832C232.381 86.92 237.469 81.992 244.765 81.992C250.173 81.992 253.245 83.976 254.109 88.008L253.469 88.136C252.541 83.88 249.053 82.6 244.925 82.6C238.813 82.6 235.517 86.984 235.549 93.832C235.549 101.064 239.101 105 244.765 105C248.029 105 252.765 103.752 255.133 101.256ZM256.6 90.344C256.6 85.16 259.288 81.992 263.768 81.992C268.728 81.992 270.36 85.736 271.192 89.96V82.6H274.136V104.968H271.192V97.928C269.848 98.504 267.608 98.568 266.104 98.568L260.984 105H257.24L262.552 98.28C258.872 97.512 256.6 95.144 256.6 90.344ZM271.192 97.32C271.192 92.552 270.744 82.76 264.472 82.76C260.632 82.76 259.736 86.408 259.736 90.408C259.736 97.224 262.744 98.024 266.424 98.024C268.536 98.024 270.008 97.704 271.192 97.32Z" fill="#3F5540"/>
<path d="M89.0819 120.8H97.4019V121.104H90.5539V126.016H95.9619V126.32H90.5539V131.696H97.4019V132H89.0819V120.8ZM101.588 126.032C105.156 126.032 107.124 127.888 107.124 131.488V132H105.604V131.488C105.62 127.792 104.308 126.336 101.684 126.336H100.068V132H98.5956V120.8H100.068V126.032H101.268V124.976C101.268 122.896 101.588 120.496 104.212 120.496C105.636 120.496 106.676 121.36 106.676 122.816C106.676 124.304 105.604 125.216 103.876 125.216V124.912C105.444 124.912 106.356 124.128 106.356 122.816C106.356 121.888 105.812 120.8 104.212 120.8C101.796 120.8 101.588 123.088 101.588 124.976V126.032ZM113.897 120.496C117.241 120.496 120.297 122.64 120.297 126.4C120.297 130.16 117.241 132.304 113.897 132.304C110.553 132.304 107.481 130.16 107.481 126.4C107.481 122.64 110.553 120.496 113.897 120.496ZM113.897 132C116.777 132 118.729 130.192 118.729 126.4C118.729 122.592 116.777 120.8 113.897 120.8C111.017 120.8 109.049 122.592 109.049 126.4C109.049 130.208 111.017 132 113.897 132ZM121.654 127.36V127.056H126.358V127.36H121.654ZM139.087 130.128L139.311 130.336C138.047 131.664 135.631 132.304 133.807 132.304C129.999 132.304 127.711 129.936 127.711 126.416C127.711 122.96 130.255 120.496 133.903 120.496C136.607 120.496 138.143 121.488 138.575 123.504L138.255 123.568C137.791 121.44 136.047 120.8 133.983 120.8C130.927 120.8 129.279 122.992 129.295 126.416C129.295 130.032 131.071 132 133.903 132C135.535 132 137.903 131.376 139.087 130.128ZM143.845 120.8H145.493L149.893 132H148.309L146.517 127.44H141.749L140.069 132H139.733L143.845 120.8ZM144.053 121.152L141.861 127.136H146.405L144.053 121.152ZM150.466 132L154.482 120.8H156.13L160.306 131.712C161.282 131.84 161.858 132.336 161.858 133.28C161.858 134.368 161.058 134.816 159.794 134.816V134.512C160.962 134.512 161.538 134.192 161.538 133.28C161.538 132.384 160.93 132.032 159.906 132H150.466ZM154.69 121.168L150.914 131.68L158.722 131.696L154.69 121.168ZM170.112 126.448C169.312 129.184 166.736 132 163.728 132H162.256V120.8H163.728V131.696C166.88 131.696 169.968 128.24 170.112 124.624V120.8H171.584V132H170.112V126.448ZM173.13 120.8H181.226V121.104H174.602V125.616H178.234C180.202 125.616 182.57 126.112 182.57 128.88C182.57 131.328 180.762 132 178.634 132H173.13V120.8ZM178.282 131.696C179.978 131.696 181.002 130.96 181.002 128.88C181.002 126.704 179.818 125.92 177.962 125.92H174.602V131.696H178.282ZM187.338 120.8H188.986L193.386 132H191.802L190.01 127.44H185.242L183.562 132H183.226L187.338 120.8ZM187.546 121.152L185.354 127.136H189.898L187.546 121.152Z" fill="#B4854F"/>
<defs>
<linearGradient id="paint0_linear_210_3079" x1="175.708" y1="5.68208" x2="180.992" y2="38.126" gradientUnits="userSpaceOnUse">
<stop stop-color="#2B3C2C"/>
<stop offset="1" stop-color="#1F2C1F"/>
</linearGradient>
<linearGradient id="paint1_linear_210_3079" x1="188.911" y1="36.4331" x2="193.441" y2="60.2195" gradientUnits="userSpaceOnUse">
<stop stop-color="#2E432F"/>
<stop offset="1" stop-color="#283A29" stop-opacity="0.99"/>
</linearGradient>
<linearGradient id="paint2_linear_210_3079" x1="122.51" y1="2.59804" x2="126.393" y2="30.8271" gradientUnits="userSpaceOnUse">
<stop stop-color="#2B3C2C"/>
<stop offset="1" stop-color="#1F2C1F"/>
</linearGradient>
<linearGradient id="paint3_linear_210_3079" x1="90.9826" y1="31.7124" x2="86.7016" y2="54.047" gradientUnits="userSpaceOnUse">
<stop stop-color="#2E432F"/>
<stop offset="1" stop-color="#283A29" stop-opacity="0.99"/>
</linearGradient>
<linearGradient id="paint4_linear_210_3079" x1="132.5" y1="10" x2="160.5" y2="61.5" gradientUnits="userSpaceOnUse">
<stop stop-color="#4A7C4D"/>
<stop offset="0.716361" stop-color="#233F24"/>
</linearGradient>
</defs>
</svg>
