<svg width="26" height="26" viewBox="0 0 26 26" fill="none" xmlns="http://www.w3.org/2000/svg">
<g id="Group 291">
<path id="Vector" d="M18.3337 5.8C18.3337 4.52696 17.7717 3.30606 16.7715 2.40588C15.7713 1.50571 14.4148 1 13.0003 1C11.5858 1 10.2294 1.50571 9.22917 2.40588C8.22897 3.30606 7.66699 4.52696 7.66699 5.8V8.2C7.66699 9.47304 8.22897 10.6939 9.22917 11.5941C10.2294 12.4943 11.5858 13 13.0003 13C14.4148 13 15.7713 12.4943 16.7715 11.5941C17.7717 10.6939 18.3337 9.47304 18.3337 8.2V5.8Z" stroke="#3F5540" stroke-width="2" stroke-miterlimit="10"/>
<path id="Vector_2" d="M1 25.0006C3.02667 20.0566 7.66667 16.6006 13 16.6006C18.3333 16.6006 22.9733 20.0566 25 25.0006" stroke="#3F5540" stroke-width="2" stroke-miterlimit="10"/>
</g>
</svg>
