<svg width="9" height="16" viewBox="0 0 9 16" fill="none" xmlns="http://www.w3.org/2000/svg">
<path d="M1.85815 15.9528L8.34263 8.56368C8.54012 8.33154 8.55173 7.96366 8.37748 7.71555L8.34263 7.67049L1.85844 0.0490656C1.8317 0.017642 1.79551 1.54488e-08 1.75778 1.49989e-08L0.642658 1.70118e-09C0.56387 7.61645e-10 0.5 0.0754051 0.5 0.168422C0.5 0.213217 0.515116 0.256166 0.542004 0.287771L7.1812 8.09192L0.548876 15.7109C0.492409 15.7757 0.491174 15.8824 0.546119 15.949C0.572976 15.9816 0.609851 16 0.648362 16L1.75907 16C1.79603 16 1.83155 15.9831 1.85815 15.9528Z" fill="black"/>
</svg>
