<svg width="9" height="16" viewBox="0 0 9 16" fill="none" xmlns="http://www.w3.org/2000/svg">
<path d="M7.14185 0.0472389L0.657373 7.43632C0.459884 7.66846 0.448267 8.03634 0.622521 8.28445L0.657373 8.32951L7.14156 15.9509C7.1683 15.9824 7.20449 16 7.24221 16L8.35734 16C8.43613 16 8.5 15.9246 8.5 15.8316C8.5 15.7868 8.48488 15.7438 8.458 15.7122L1.8188 7.90808L8.45112 0.289129C8.50759 0.224262 8.50883 0.117633 8.45388 0.050968C8.42702 0.0183822 8.39015 -4.80175e-09 8.35164 -6.48512e-09L7.24093 -5.50359e-08C7.20397 -5.66515e-08 7.16845 0.0169354 7.14185 0.0472389Z" fill="black"/>
</svg>
