<svg width="20" height="17" viewBox="0 0 20 17" fill="none" xmlns="http://www.w3.org/2000/svg">
<path fill-rule="evenodd" clip-rule="evenodd" d="M4 0H16C18.2091 0 20 1.79086 20 4V13C20 15.2091 18.2091 17 16 17H4C1.79086 17 0 15.2091 0 13V4C0 1.79086 1.79086 0 4 0ZM11.4 9.55L17.74 4.85C18.0229 4.64199 18.0854 4.24483 17.88 3.96C17.7821 3.82401 17.6333 3.73345 17.4675 3.70896C17.3017 3.68447 17.1331 3.72813 17 3.83L10.59 8.5C10.4296 8.66812 10.2074 8.76325 9.975 8.76325C9.74263 8.76325 9.5204 8.66812 9.36 8.5L3 3.83C2.86758 3.73134 2.70127 3.68958 2.53795 3.71399C2.37463 3.73839 2.2278 3.82694 2.13 3.96C1.92242 4.24224 1.98036 4.63892 2.26 4.85L8.56 9.5C8.95202 9.87189 9.4697 10.0825 10.01 10.09C10.5245 10.0899 11.0204 9.89727 11.4 9.55Z" fill="#3F5540"/>
</svg>
