<svg width="19" height="18" viewBox="0 0 19 18" fill="none" xmlns="http://www.w3.org/2000/svg">
<path fill-rule="evenodd" clip-rule="evenodd" d="M16.7598 12.2845L14.2147 11.994C13.6034 11.9238 13.0022 12.1342 12.5714 12.5651L10.7276 14.4088C7.89194 12.9659 5.56726 10.6512 4.12436 7.8055L5.97809 5.95176C6.40896 5.52089 6.61938 4.91967 6.54924 4.30844L6.25865 1.78334C6.13841 0.771303 5.2867 0.00976562 4.26464 0.00976562H2.53115C1.39887 0.00976562 0.456977 0.951666 0.527118 2.08395C1.05819 10.6412 7.90196 17.475 16.4492 18.0061C17.5814 18.0762 18.5233 17.1343 18.5233 16.002V14.2685C18.5334 13.2565 17.7718 12.4048 16.7598 12.2845Z" fill="#3F5540"/>
</svg>
