<svg width="39" height="44" viewBox="0 0 39 44" fill="none" xmlns="http://www.w3.org/2000/svg">
<path d="M33.1529 4.0928C33.7565 5.43619 35.3348 6.03591 36.6782 5.43231C38.0216 4.82871 38.6213 3.25037 38.0177 1.90698C37.4141 0.563595 35.8358 -0.0361231 34.4924 0.567474C33.149 1.17107 32.5493 2.74941 33.1529 4.0928ZM3.64512 43.1511L6.10941 37.9299L0.355601 38.4064L3.64512 43.1511ZM35.1081 3.14916C36.1386 6.44362 37.498 10.6475 36.3529 14.4032C35.2348 18.0707 31.6429 21.5002 22.2458 23.0121L22.4047 23.9994C31.9744 22.4597 36.0303 18.8904 37.3095 14.6948C38.5617 10.5875 37.0677 6.06425 36.0625 2.85062L35.1081 3.14916ZM22.2458 23.0121C14.2546 24.2977 9.34158 26.254 6.44439 28.8981C3.51314 31.5733 2.71254 34.8875 2.77393 38.6757L3.7738 38.6595C3.71504 35.0339 4.47606 32.0484 7.1185 29.6368C9.795 27.1941 14.4677 25.2763 22.4047 23.9994L22.2458 23.0121Z" fill="#3F5540"/>
</svg>
