<svg width="230" height="216" viewBox="0 0 230 216" fill="none" xmlns="http://www.w3.org/2000/svg">
<rect x="0.5" y="0.5" width="229" height="215" rx="4.5" stroke="#9747FF" stroke-dasharray="10 5"/>
<g clip-path="url(#clip0_450_1581)">
<path d="M36 20C27.1635 20 20 27.1635 20 36C20 43.5034 25.1661 49.7997 32.135 51.529V40.8896H28.8358V36H32.135V33.8931C32.135 28.4474 34.5997 25.9232 39.9462 25.9232C40.96 25.9232 42.7091 26.1222 43.4246 26.3206V30.7526C43.047 30.713 42.391 30.6931 41.5763 30.6931C38.953 30.6931 37.9392 31.687 37.9392 34.2707V36H43.1654L42.2675 40.8896H37.9392V51.8829C45.8618 50.9261 52.0006 44.1805 52.0006 36C52 27.1635 44.8365 20 36 20Z" fill="#3F5540"/>
</g>
<g clip-path="url(#clip1_450_1581)">
<path d="M36 116C27.1635 116 20 123.164 20 132C20 139.503 25.1661 145.8 32.135 147.529V136.89H28.8358V132H32.135V129.893C32.135 124.447 34.5997 121.923 39.9462 121.923C40.96 121.923 42.7091 122.122 43.4246 122.321V126.753C43.047 126.713 42.391 126.693 41.5763 126.693C38.953 126.693 37.9392 127.687 37.9392 130.271V132H43.1654L42.2675 136.89H37.9392V147.883C45.8618 146.926 52.0006 140.18 52.0006 132C52 123.164 44.8365 116 36 116Z" fill="#B4854F"/>
</g>
<g clip-path="url(#clip2_450_1581)">
<path fill-rule="evenodd" clip-rule="evenodd" d="M131.001 36C131.001 44.8366 123.838 52 115.001 52C106.164 52 99.001 44.8366 99.001 36C99.001 27.1634 106.164 20 115.001 20C123.838 20 131.001 27.1634 131.001 36ZM115.574 31.8119C114.018 32.4592 110.908 33.7989 106.244 35.8311C105.486 36.1323 105.089 36.427 105.053 36.7151C104.992 37.202 105.602 37.3937 106.432 37.6548C106.545 37.6903 106.662 37.7271 106.782 37.7661C107.599 38.0317 108.698 38.3424 109.269 38.3547C109.788 38.3659 110.366 38.1523 111.004 37.7138C115.363 34.772 117.612 33.2851 117.753 33.253C117.853 33.2304 117.991 33.202 118.085 33.2851C118.178 33.3683 118.169 33.5258 118.159 33.568C118.099 33.8255 115.705 36.0508 114.466 37.2024C114.08 37.5614 113.806 37.816 113.75 37.8742C113.625 38.0045 113.497 38.1277 113.374 38.2461C112.615 38.9778 112.046 39.5264 113.406 40.4224C114.059 40.8529 114.582 41.209 115.104 41.5642C115.673 41.9521 116.241 42.339 116.976 42.8209C117.164 42.9437 117.343 43.0712 117.517 43.1954C118.18 43.668 118.775 44.0926 119.511 44.0248C119.939 43.9855 120.38 43.5835 120.605 42.3845C121.135 39.5509 122.176 33.4113 122.417 30.8813C122.438 30.6596 122.412 30.376 122.391 30.2514C122.369 30.1269 122.325 29.9495 122.163 29.8181C121.971 29.6626 121.675 29.6298 121.543 29.6321C120.941 29.6427 120.018 29.9638 115.574 31.8119Z" fill="#3F5540"/>
</g>
<g clip-path="url(#clip3_450_1581)" filter="url(#filter0_f_450_1581)">
<path fill-rule="evenodd" clip-rule="evenodd" d="M131 180C131 188.837 123.837 196 115 196C106.163 196 99 188.837 99 180C99 171.163 106.163 164 115 164C123.837 164 131 171.163 131 180ZM115.573 175.812C114.017 176.459 110.907 177.799 106.243 179.831C105.485 180.132 105.088 180.427 105.052 180.715C104.991 181.202 105.601 181.394 106.431 181.655C106.544 181.69 106.661 181.727 106.781 181.766C107.598 182.032 108.697 182.342 109.268 182.355C109.787 182.366 110.365 182.152 111.004 181.714C115.362 178.772 117.611 177.285 117.752 177.253C117.852 177.23 117.99 177.202 118.084 177.285C118.177 177.368 118.168 177.526 118.158 177.568C118.098 177.826 115.704 180.051 114.465 181.202C114.079 181.561 113.805 181.816 113.749 181.874C113.624 182.004 113.496 182.128 113.373 182.246C112.614 182.978 112.045 183.526 113.405 184.422C114.058 184.853 114.581 185.209 115.103 185.564C115.672 185.952 116.24 186.339 116.975 186.821C117.163 186.944 117.342 187.071 117.516 187.195C118.179 187.668 118.774 188.093 119.51 188.025C119.938 187.986 120.379 187.583 120.604 186.384C121.134 183.551 122.176 177.411 122.416 174.881C122.437 174.66 122.411 174.376 122.39 174.251C122.368 174.127 122.324 173.949 122.162 173.818C121.97 173.663 121.674 173.63 121.542 173.632C120.94 173.643 120.017 173.964 115.573 175.812Z" fill="#3F5540"/>
</g>
<g clip-path="url(#clip4_450_1581)">
<path fill-rule="evenodd" clip-rule="evenodd" d="M131 132C131 140.837 123.837 148 115 148C106.163 148 99 140.837 99 132C99 123.163 106.163 116 115 116C123.837 116 131 123.163 131 132ZM115.573 127.812C114.017 128.459 110.907 129.799 106.243 131.831C105.485 132.132 105.088 132.427 105.052 132.715C104.991 133.202 105.601 133.394 106.431 133.655C106.544 133.69 106.661 133.727 106.781 133.766C107.598 134.032 108.697 134.342 109.268 134.355C109.787 134.366 110.365 134.152 111.004 133.714C115.362 130.772 117.611 129.285 117.752 129.253C117.852 129.23 117.99 129.202 118.084 129.285C118.177 129.368 118.168 129.526 118.158 129.568C118.098 129.826 115.704 132.051 114.465 133.202C114.079 133.561 113.805 133.816 113.749 133.874C113.624 134.004 113.496 134.128 113.373 134.246C112.614 134.978 112.045 135.526 113.405 136.422C114.058 136.853 114.581 137.209 115.103 137.564C115.672 137.952 116.24 138.339 116.975 138.821C117.163 138.944 117.342 139.071 117.516 139.195C118.179 139.668 118.774 140.093 119.51 140.025C119.938 139.986 120.379 139.583 120.604 138.384C121.134 135.551 122.176 129.411 122.416 126.881C122.437 126.66 122.411 126.376 122.39 126.251C122.368 126.127 122.324 125.949 122.162 125.818C121.97 125.663 121.674 125.63 121.542 125.632C120.94 125.643 120.017 125.964 115.573 127.812Z" fill="#B4854F"/>
</g>
<g clip-path="url(#clip5_450_1581)">
<path d="M130.5 84C130.5 92.5604 123.56 99.5 115 99.5C106.44 99.5 99.5 92.5604 99.5 84C99.5 75.4396 106.44 68.5 115 68.5C123.56 68.5 130.5 75.4396 130.5 84ZM115.381 79.3502C113.821 79.9991 110.71 81.3394 106.05 83.3695C105.657 83.5264 105.326 83.6933 105.079 83.8766C104.843 84.0514 104.6 84.3044 104.556 84.6529C104.526 84.8934 104.581 85.1191 104.712 85.3118C104.833 85.4902 105.002 85.614 105.16 85.7042C105.456 85.8725 105.859 85.9991 106.242 86.1195L106.281 86.1318C106.395 86.1674 106.509 86.2035 106.627 86.2417C107.042 86.3767 107.533 86.5243 107.995 86.6404C108.447 86.7535 108.911 86.8471 109.258 86.8546C109.92 86.8689 110.601 86.5964 111.285 86.1271C113.463 84.657 115.113 83.5513 116.235 82.8094C116.287 82.7752 116.337 82.7419 116.387 82.7093C115.634 83.4336 114.739 84.2649 114.125 84.8362L114.078 84.8798C113.725 85.2079 113.455 85.459 113.389 85.5274C113.271 85.6499 113.15 85.7668 113.026 85.8862L113.014 85.8977C112.834 86.0719 112.638 86.2601 112.481 86.4507C112.322 86.6439 112.161 86.8859 112.104 87.1759C111.972 87.8443 112.426 88.3763 113.13 88.8399C113.78 89.2681 114.3 89.6223 114.821 89.9775L114.822 89.978C115.391 90.3658 115.963 90.7548 116.701 91.2391C116.879 91.3556 117.05 91.4775 117.226 91.6025C117.246 91.6168 117.266 91.6312 117.286 91.6457C117.899 92.0837 118.633 92.6077 119.556 92.5227C120.342 92.4504 120.862 91.7231 121.095 90.4764C121.625 87.6445 122.671 81.4841 122.914 78.9287C122.941 78.6502 122.909 78.3201 122.882 78.1671C122.856 78.0114 122.785 77.6797 122.477 77.4299C122.302 77.2876 122.101 77.2166 121.946 77.1796C121.788 77.1419 121.639 77.1303 121.533 77.1322C121.142 77.1391 120.693 77.2488 119.828 77.5629C118.954 77.8801 117.601 78.4269 115.381 79.3502ZM117.949 81.7111C117.949 81.7113 117.946 81.7129 117.94 81.7154C117.946 81.7122 117.949 81.7109 117.949 81.7111ZM117.709 81.3541C117.712 81.3485 117.714 81.3455 117.715 81.3454C117.715 81.3453 117.713 81.3481 117.709 81.3541Z" stroke="#3F5540"/>
</g>
<path d="M194.001 38.8C192.501 38.8 191.201 37.6 191.201 36C191.201 34.5 192.401 33.2 194.001 33.2C195.501 33.2 196.801 34.4 196.801 36C196.801 37.5 195.501 38.8 194.001 38.8Z" fill="#3F5540"/>
<path fill-rule="evenodd" clip-rule="evenodd" d="M197.401 29.2H190.601C189.801 29.3 189.401 29.4 189.101 29.5C188.701 29.6 188.401 29.8 188.101 30.1C187.864 30.3374 187.751 30.5748 187.616 30.8617C187.58 30.9373 187.543 31.0166 187.501 31.1C187.486 31.1464 187.468 31.1952 187.448 31.2475C187.344 31.5333 187.201 31.9238 187.201 32.6V39.4C187.301 40.2 187.401 40.6 187.501 40.9C187.601 41.3 187.801 41.6 188.101 41.9C188.338 42.1374 188.576 42.2495 188.863 42.3851C188.938 42.4209 189.017 42.4583 189.101 42.5C189.147 42.5155 189.196 42.5333 189.248 42.5525C189.534 42.6571 189.925 42.8 190.601 42.8H197.401C198.201 42.7 198.601 42.6 198.901 42.5C199.301 42.4 199.601 42.2 199.901 41.9C200.138 41.6626 200.251 41.4252 200.386 41.1383C200.422 41.0626 200.459 40.9835 200.501 40.9C200.516 40.8536 200.534 40.8048 200.553 40.7525C200.658 40.4667 200.801 40.0762 200.801 39.4V32.6C200.701 31.8 200.601 31.4 200.501 31.1C200.401 30.7 200.201 30.4 199.901 30.1C199.664 29.8626 199.426 29.7505 199.139 29.6149C199.064 29.5792 198.984 29.5417 198.901 29.5C198.855 29.4845 198.806 29.4667 198.753 29.4475C198.468 29.3429 198.077 29.2 197.401 29.2ZM194.001 31.7C191.601 31.7 189.701 33.6 189.701 36C189.701 38.4 191.601 40.3 194.001 40.3C196.401 40.3 198.301 38.4 198.301 36C198.301 33.6 196.401 31.7 194.001 31.7ZM199.401 31.6C199.401 32.1523 198.953 32.6 198.401 32.6C197.849 32.6 197.401 32.1523 197.401 31.6C197.401 31.0477 197.849 30.6 198.401 30.6C198.953 30.6 199.401 31.0477 199.401 31.6Z" fill="#3F5540"/>
<path fill-rule="evenodd" clip-rule="evenodd" d="M178.001 36C178.001 27.1634 185.164 20 194.001 20C202.838 20 210.001 27.1634 210.001 36C210.001 44.8366 202.838 52 194.001 52C185.164 52 178.001 44.8366 178.001 36ZM190.601 27.7H197.401C198.301 27.8 198.901 27.9 199.401 28.1C200.001 28.4 200.401 28.6 200.901 29.1C201.401 29.6 201.701 30.1 201.901 30.6C202.101 31.1 202.301 31.7 202.301 32.6V39.4C202.201 40.3 202.101 40.9 201.901 41.4C201.601 42 201.401 42.4 200.901 42.9C200.401 43.4 199.901 43.7 199.401 43.9C198.901 44.1 198.301 44.3 197.401 44.3H190.601C189.701 44.2 189.101 44.1 188.601 43.9C188.001 43.6 187.601 43.4 187.101 42.9C186.601 42.4 186.301 41.9 186.101 41.4C185.901 40.9 185.701 40.3 185.701 39.4V32.6C185.801 31.7 185.901 31.1 186.101 30.6C186.401 30 186.601 29.6 187.101 29.1C187.601 28.6 188.101 28.3 188.601 28.1C189.101 27.9 189.701 27.7 190.601 27.7Z" fill="#3F5540"/>
<path d="M194 134.8C192.5 134.8 191.2 133.6 191.2 132C191.2 130.5 192.4 129.2 194 129.2C195.5 129.2 196.8 130.4 196.8 132C196.8 133.5 195.5 134.8 194 134.8Z" fill="#B4854F"/>
<path fill-rule="evenodd" clip-rule="evenodd" d="M197.4 125.2H190.6C189.8 125.3 189.4 125.4 189.1 125.5C188.7 125.6 188.4 125.8 188.1 126.1C187.863 126.337 187.75 126.575 187.615 126.862C187.579 126.937 187.542 127.017 187.5 127.1C187.485 127.146 187.467 127.195 187.448 127.248C187.343 127.533 187.2 127.924 187.2 128.6V135.4C187.3 136.2 187.4 136.6 187.5 136.9C187.6 137.3 187.8 137.6 188.1 137.9C188.337 138.137 188.575 138.25 188.862 138.385C188.937 138.421 189.017 138.458 189.1 138.5C189.146 138.515 189.195 138.533 189.248 138.552C189.533 138.657 189.924 138.8 190.6 138.8H197.4C198.2 138.7 198.6 138.6 198.9 138.5C199.3 138.4 199.6 138.2 199.9 137.9C200.137 137.663 200.25 137.425 200.385 137.138C200.421 137.063 200.458 136.983 200.5 136.9C200.515 136.854 200.533 136.805 200.552 136.752C200.657 136.467 200.8 136.076 200.8 135.4V128.6C200.7 127.8 200.6 127.4 200.5 127.1C200.4 126.7 200.2 126.4 199.9 126.1C199.663 125.863 199.425 125.75 199.138 125.615C199.063 125.579 198.983 125.542 198.9 125.5C198.854 125.485 198.805 125.467 198.752 125.448C198.467 125.343 198.076 125.2 197.4 125.2ZM194 127.7C191.6 127.7 189.7 129.6 189.7 132C189.7 134.4 191.6 136.3 194 136.3C196.4 136.3 198.3 134.4 198.3 132C198.3 129.6 196.4 127.7 194 127.7ZM199.4 127.6C199.4 128.152 198.952 128.6 198.4 128.6C197.848 128.6 197.4 128.152 197.4 127.6C197.4 127.048 197.848 126.6 198.4 126.6C198.952 126.6 199.4 127.048 199.4 127.6Z" fill="#B4854F"/>
<path fill-rule="evenodd" clip-rule="evenodd" d="M178 132C178 123.163 185.163 116 194 116C202.837 116 210 123.163 210 132C210 140.837 202.837 148 194 148C185.163 148 178 140.837 178 132ZM190.6 123.7H197.4C198.3 123.8 198.9 123.9 199.4 124.1C200 124.4 200.4 124.6 200.9 125.1C201.4 125.6 201.7 126.1 201.9 126.6C202.1 127.1 202.3 127.7 202.3 128.6V135.4C202.2 136.3 202.1 136.9 201.9 137.4C201.6 138 201.4 138.4 200.9 138.9C200.4 139.4 199.9 139.7 199.4 139.9C198.9 140.1 198.3 140.3 197.4 140.3H190.6C189.7 140.2 189.1 140.1 188.6 139.9C188 139.6 187.6 139.4 187.1 138.9C186.6 138.4 186.3 137.9 186.1 137.4C185.9 136.9 185.7 136.3 185.7 135.4V128.6C185.8 127.7 185.9 127.1 186.1 126.6C186.4 126 186.6 125.6 187.1 125.1C187.6 124.6 188.1 124.3 188.6 124.1C189.1 123.9 189.7 123.7 190.6 123.7Z" fill="#B4854F"/>
<path d="M189.221 77.9851L189.24 77.9804L189.258 77.9743C189.514 77.8889 189.874 77.7959 190.631 77.7H197.4C197.988 77.7 198.314 77.8194 198.576 77.9154L198.581 77.9171L198.584 77.9183C198.623 77.9326 198.665 77.948 198.707 77.9626C198.784 78.0007 198.857 78.0351 198.923 78.0663L198.925 78.067L199.138 77.6149L198.925 78.067C199.215 78.2041 199.378 78.2848 199.546 78.4536C199.801 78.7085 199.943 78.932 200.015 79.2213L200.02 79.2399L200.026 79.2581C200.111 79.5143 200.204 79.8739 200.3 80.6313V87.4C200.3 87.9877 200.181 88.3139 200.085 88.5761L200.083 88.5806C200.068 88.6207 200.052 88.664 200.037 88.7073C199.999 88.7844 199.965 88.8571 199.934 88.923L199.933 88.9247L200.385 89.1383L199.933 88.9247C199.796 89.215 199.715 89.3777 199.546 89.5464C199.292 89.8014 199.068 89.9426 198.779 90.0149L198.76 90.0196L198.742 90.0257C198.486 90.1111 198.126 90.2041 197.369 90.3H190.6C190.012 90.3 189.686 90.1806 189.424 90.0846L189.419 90.0829L189.416 90.0817C189.377 90.0674 189.335 90.052 189.293 90.0374C189.216 89.9993 189.143 89.965 189.077 89.9339L189.075 89.933C188.785 89.7959 188.622 89.7152 188.454 89.5464C188.199 89.2915 188.057 89.068 187.985 88.7787L187.98 88.7601L187.974 88.7419C187.889 88.4857 187.796 88.1261 187.7 87.3687V80.6C187.7 80.0123 187.819 79.6861 187.915 79.4239L187.917 79.4194L187.918 79.416C187.933 79.3769 187.948 79.3348 187.963 79.2926C188.001 79.2158 188.035 79.1431 188.066 79.0773L188.067 79.0753L188.067 79.0753C188.204 78.785 188.285 78.6223 188.454 78.4536C188.708 78.1986 188.932 78.0574 189.221 77.9851ZM197.455 75.2031L197.428 75.2H197.4H190.6C189.614 75.2 188.948 75.4222 188.414 75.6358C187.856 75.8592 187.297 76.1954 186.746 76.7464C186.189 77.3039 185.958 77.7652 185.66 78.3626L185.653 78.3764L185.643 78.395L185.636 78.4143C185.408 78.9837 185.303 79.6448 185.203 80.5448L185.2 80.5723V80.6V87.4C185.2 88.3861 185.422 89.0519 185.636 89.5857C185.859 90.1443 186.195 90.7026 186.746 91.2536C187.304 91.811 187.765 92.0416 188.363 92.3403L188.376 92.3472L188.395 92.3565L188.414 92.3642C188.984 92.592 189.645 92.6969 190.545 92.7969L190.572 92.8H190.6H197.4C198.386 92.8 199.052 92.5778 199.586 92.3642C200.144 92.1408 200.703 91.8045 201.254 91.2536C201.811 90.6961 202.042 90.2348 202.34 89.6374L202.347 89.6236L202.357 89.605L202.364 89.5857C202.592 89.0163 202.697 88.3552 202.797 87.4552L202.8 87.4277V87.4V80.6C202.8 79.6139 202.578 78.9481 202.364 78.4143C202.141 77.8557 201.805 77.2974 201.254 76.7464C200.696 76.189 200.235 75.9584 199.637 75.6597L199.624 75.6528L199.605 75.6435L199.586 75.6358C199.016 75.408 198.355 75.3031 197.455 75.2031ZM194 86.3C192.764 86.3 191.7 85.3123 191.7 84C191.7 82.7644 192.688 81.7 194 81.7C195.236 81.7 196.3 82.6877 196.3 84C196.3 85.2239 195.224 86.3 194 86.3ZM194 79.2C191.324 79.2 189.2 81.3239 189.2 84C189.2 86.6761 191.324 88.8 194 88.8C196.676 88.8 198.8 86.6761 198.8 84C198.8 82.8267 198.392 81.7596 197.708 80.931C197.915 81.039 198.15 81.1 198.4 81.1C199.228 81.1 199.9 80.4284 199.9 79.6C199.9 78.7716 199.228 78.1 198.4 78.1C197.572 78.1 196.9 78.7716 196.9 79.6C196.9 79.8497 196.961 80.0852 197.069 80.2923C196.24 79.6082 195.173 79.2 194 79.2ZM178.5 84C178.5 75.4396 185.44 68.5 194 68.5C202.56 68.5 209.5 75.4396 209.5 84C209.5 92.5604 202.56 99.5 194 99.5C185.44 99.5 178.5 92.5604 178.5 84Z" stroke="#3F5540"/>
<g filter="url(#filter1_f_450_1581)">
<path d="M194 182.8C192.5 182.8 191.2 181.6 191.2 180C191.2 178.5 192.4 177.2 194 177.2C195.5 177.2 196.8 178.4 196.8 180C196.8 181.5 195.5 182.8 194 182.8Z" fill="#3F5540"/>
<path fill-rule="evenodd" clip-rule="evenodd" d="M197.4 173.2H190.6C189.8 173.3 189.4 173.4 189.1 173.5C188.7 173.6 188.4 173.8 188.1 174.1C187.863 174.337 187.75 174.575 187.615 174.862C187.579 174.937 187.542 175.017 187.5 175.1C187.485 175.146 187.467 175.195 187.448 175.248C187.343 175.533 187.2 175.924 187.2 176.6V183.4C187.3 184.2 187.4 184.6 187.5 184.9C187.6 185.3 187.8 185.6 188.1 185.9C188.337 186.137 188.575 186.25 188.862 186.385C188.937 186.421 189.017 186.458 189.1 186.5C189.146 186.515 189.195 186.533 189.248 186.552C189.533 186.657 189.924 186.8 190.6 186.8H197.4C198.2 186.7 198.6 186.6 198.9 186.5C199.3 186.4 199.6 186.2 199.9 185.9C200.137 185.663 200.25 185.425 200.385 185.138C200.421 185.063 200.458 184.983 200.5 184.9C200.515 184.854 200.533 184.805 200.552 184.752C200.657 184.467 200.8 184.076 200.8 183.4V176.6C200.7 175.8 200.6 175.4 200.5 175.1C200.4 174.7 200.2 174.4 199.9 174.1C199.663 173.863 199.425 173.75 199.138 173.615C199.063 173.579 198.983 173.542 198.9 173.5C198.854 173.485 198.805 173.467 198.752 173.448C198.467 173.343 198.076 173.2 197.4 173.2ZM194 175.7C191.6 175.7 189.7 177.6 189.7 180C189.7 182.4 191.6 184.3 194 184.3C196.4 184.3 198.3 182.4 198.3 180C198.3 177.6 196.4 175.7 194 175.7ZM199.4 175.6C199.4 176.152 198.952 176.6 198.4 176.6C197.848 176.6 197.4 176.152 197.4 175.6C197.4 175.048 197.848 174.6 198.4 174.6C198.952 174.6 199.4 175.048 199.4 175.6Z" fill="#3F5540"/>
<path fill-rule="evenodd" clip-rule="evenodd" d="M178 180C178 171.163 185.163 164 194 164C202.837 164 210 171.163 210 180C210 188.837 202.837 196 194 196C185.163 196 178 188.837 178 180ZM190.6 171.7H197.4C198.3 171.8 198.9 171.9 199.4 172.1C200 172.4 200.4 172.6 200.9 173.1C201.4 173.6 201.7 174.1 201.9 174.6C202.1 175.1 202.3 175.7 202.3 176.6V183.4C202.2 184.3 202.1 184.9 201.9 185.4C201.6 186 201.4 186.4 200.9 186.9C200.4 187.4 199.9 187.7 199.4 187.9C198.9 188.1 198.3 188.3 197.4 188.3H190.6C189.7 188.2 189.1 188.1 188.6 187.9C188 187.6 187.6 187.4 187.1 186.9C186.6 186.4 186.3 185.9 186.1 185.4C185.9 184.9 185.7 184.3 185.7 183.4V176.6C185.8 175.7 185.9 175.1 186.1 174.6C186.4 174 186.6 173.6 187.1 173.1C187.6 172.6 188.1 172.3 188.6 172.1C189.1 171.9 189.7 171.7 190.6 171.7Z" fill="#3F5540"/>
</g>
<g clip-path="url(#clip6_450_1581)">
<path d="M51.5006 84C51.5006 91.7306 45.8411 98.1391 38.4392 99.3085V89.3896H42.2675H42.6841L42.7593 88.9799L43.6572 84.0903L43.7656 83.5H43.1654H38.4392V82.2707C38.4392 81.0256 38.687 80.2997 39.1245 79.8696C39.5642 79.4374 40.3078 79.1931 41.5763 79.1931C42.3901 79.1931 43.0232 79.2132 43.3724 79.2499L43.9246 79.3079V78.7526V74.3206V73.9404L43.5582 73.8388C42.7863 73.6248 40.9894 73.4232 39.9462 73.4232C37.2032 73.4232 35.0942 74.0703 33.6784 75.5162C32.2648 76.9598 31.635 79.1055 31.635 81.8931V83.5H28.8358H28.3358V84V88.8896V89.3896H28.8358H31.635V98.8759C25.1998 96.9905 20.5 91.0437 20.5 84C20.5 75.4397 27.4397 68.5 36 68.5C44.5603 68.5 51.5 75.4397 51.5006 84Z" stroke="#3F5540"/>
</g>
<g clip-path="url(#clip7_450_1581)" filter="url(#filter2_f_450_1581)">
<path d="M36 164C27.1635 164 20 171.164 20 180C20 187.503 25.1661 193.8 32.135 195.529V184.89H28.8358V180H32.135V177.893C32.135 172.447 34.5997 169.923 39.9462 169.923C40.96 169.923 42.7091 170.122 43.4246 170.321V174.753C43.047 174.713 42.391 174.693 41.5763 174.693C38.953 174.693 37.9392 175.687 37.9392 178.271V180H43.1654L42.2675 184.89H37.9392V195.883C45.8618 194.926 52.0006 188.18 52.0006 180C52 171.164 44.8365 164 36 164Z" fill="#3F5540"/>
</g>
<defs>
<filter id="filter0_f_450_1581" x="95" y="160" width="40" height="40" filterUnits="userSpaceOnUse" color-interpolation-filters="sRGB">
<feFlood flood-opacity="0" result="BackgroundImageFix"/>
<feBlend mode="normal" in="SourceGraphic" in2="BackgroundImageFix" result="shape"/>
<feGaussianBlur stdDeviation="2" result="effect1_foregroundBlur_450_1581"/>
</filter>
<filter id="filter1_f_450_1581" x="174" y="160" width="40" height="40" filterUnits="userSpaceOnUse" color-interpolation-filters="sRGB">
<feFlood flood-opacity="0" result="BackgroundImageFix"/>
<feBlend mode="normal" in="SourceGraphic" in2="BackgroundImageFix" result="shape"/>
<feGaussianBlur stdDeviation="2" result="effect1_foregroundBlur_450_1581"/>
</filter>
<filter id="filter2_f_450_1581" x="16" y="160" width="40.0007" height="39.8828" filterUnits="userSpaceOnUse" color-interpolation-filters="sRGB">
<feFlood flood-opacity="0" result="BackgroundImageFix"/>
<feBlend mode="normal" in="SourceGraphic" in2="BackgroundImageFix" result="shape"/>
<feGaussianBlur stdDeviation="2" result="effect1_foregroundBlur_450_1581"/>
</filter>
<clipPath id="clip0_450_1581">
<rect width="32.0006" height="31.8829" fill="white" transform="translate(20 20)"/>
</clipPath>
<clipPath id="clip1_450_1581">
<rect width="32.0006" height="31.8829" fill="white" transform="translate(20 116)"/>
</clipPath>
<clipPath id="clip2_450_1581">
<rect width="32" height="32" fill="white" transform="translate(99.001 20)"/>
</clipPath>
<clipPath id="clip3_450_1581">
<rect width="32" height="32" fill="white" transform="translate(99 164)"/>
</clipPath>
<clipPath id="clip4_450_1581">
<rect width="32" height="32" fill="white" transform="translate(99 116)"/>
</clipPath>
<clipPath id="clip5_450_1581">
<rect width="32" height="32" fill="white" transform="translate(99 68)"/>
</clipPath>
<clipPath id="clip6_450_1581">
<rect width="32.0006" height="31.8829" fill="white" transform="translate(20 68)"/>
</clipPath>
<clipPath id="clip7_450_1581">
<rect width="32.0006" height="31.8829" fill="white" transform="translate(20 164)"/>
</clipPath>
</defs>
</svg>
