<svg width="303" height="900" viewBox="0 0 303 900" fill="none" xmlns="http://www.w3.org/2000/svg">
<path d="M246.397 3C246.397 4.47276 247.59 5.66667 249.063 5.66667C250.536 5.66667 251.73 4.47276 251.73 3C251.73 1.52724 250.536 0.333333 249.063 0.333333C247.59 0.333333 246.397 1.52724 246.397 3ZM122.696 341.306L122.487 340.852L122.696 341.306ZM163.923 897C163.923 898.473 165.117 899.667 166.59 899.667C168.063 899.667 169.257 898.473 169.257 897C169.257 895.527 168.063 894.333 166.59 894.333C165.117 894.333 163.923 895.527 163.923 897ZM248.864 3.45844C274.504 14.6204 290.601 36.0804 297.54 63.3243C304.481 90.5802 302.252 123.623 291.21 157.876C269.125 226.38 211.826 299.614 122.487 340.852L122.906 341.76C212.502 300.404 269.992 226.95 292.161 158.183C303.245 123.8 305.508 90.5609 298.509 63.0775C291.506 35.582 275.229 13.8453 249.263 2.54156L248.864 3.45844ZM122.487 340.852C29.2743 383.878 -7.99307 498.8 2.10481 614.943C12.204 731.101 69.6949 848.775 166.365 897.447L166.815 896.553C70.5665 848.094 13.1829 730.816 3.10105 614.856C-6.9821 498.882 30.263 384.523 122.906 341.76L122.487 340.852Z" fill="#3F5540"/>
</svg>
