<svg width="1040" height="6122" viewBox="0 0 1040 6122" fill="none" preserveAspectRatio='none' xmlns="http://www.w3.org/2000/svg">
<path d="M572.639 3C572.639 4.47276 573.833 5.66667 575.306 5.66667C576.779 5.66667 577.973 4.47276 577.973 3C577.973 1.52724 576.779 0.333333 575.306 0.333333C573.833 0.333333 572.639 1.52724 572.639 3ZM344.207 557.455L344.314 557.943L344.431 557.917L344.524 557.841L344.207 557.455ZM154.068 1222.9L154.504 1222.66L154.491 1222.63L154.476 1222.61L154.068 1222.9ZM756.386 1551.37L756.341 1551.87L756.356 1551.87L756.371 1551.87L756.386 1551.37ZM824.939 2331.81L824.623 2331.42L824.599 2331.44L824.578 2331.46L824.939 2331.81ZM285.57 2501.8L285.738 2502.27L285.787 2502.25L285.832 2502.22L285.57 2501.8ZM255.389 3403.22L255.109 3403.64L255.389 3403.22ZM282 5496.5L281.639 5496.85L281.653 5496.86L281.669 5496.88L282 5496.5ZM627.824 6119C627.824 6120.47 629.018 6121.67 630.491 6121.67C631.964 6121.67 633.158 6120.47 633.158 6119C633.158 6117.53 631.964 6116.33 630.491 6116.33C629.018 6116.33 627.824 6117.53 627.824 6119ZM575.202 3.48913C627.033 14.4774 727.826 49.7253 803.533 107.489C841.384 136.369 872.928 170.85 888.971 210.704C905.005 250.538 905.573 295.782 881.4 346.256L882.302 346.688C906.591 295.97 906.042 250.434 889.898 210.331C873.764 170.248 842.069 135.634 804.139 106.694C728.284 48.8171 627.343 13.5208 575.41 2.51087L575.202 3.48913ZM881.4 346.256C857.233 396.72 812.262 434.607 758.177 463.181C704.093 491.754 640.935 510.994 580.457 524.181C519.982 537.368 462.207 544.5 418.899 548.866C397.242 551.049 379.213 552.54 366.257 553.752C359.784 554.358 354.573 554.894 350.816 555.413C348.939 555.672 347.415 555.928 346.273 556.189C345.702 556.319 345.218 556.452 344.829 556.591C344.45 556.725 344.119 556.879 343.889 557.068L344.524 557.841C344.617 557.764 344.815 557.657 345.164 557.533C345.502 557.412 345.945 557.289 346.495 557.164C347.595 556.913 349.086 556.661 350.953 556.403C354.685 555.888 359.877 555.353 366.35 554.747C379.29 553.537 397.339 552.044 418.999 549.861C462.325 545.493 520.142 538.357 580.67 525.158C641.194 511.961 704.449 492.697 758.644 464.065C812.836 435.435 858.009 397.416 882.302 346.688L881.4 346.256ZM344.099 556.966C248.961 577.98 125.214 636.502 63.32 743.84C1.39273 851.235 1.48382 1007.31 153.659 1223.19L154.476 1222.61C2.4318 1006.92 2.5236 851.276 64.1863 744.339C125.883 637.344 249.315 578.926 344.314 557.943L344.099 556.966ZM153.631 1223.14C208.893 1321.94 386.668 1518.36 756.341 1551.87L756.431 1550.88C387.112 1517.39 209.617 1321.18 154.504 1222.66L153.631 1223.14ZM756.371 1551.87C794.131 1552.99 845.04 1579.59 893.256 1624.62C941.452 1669.64 986.88 1733.02 1013.7 1807.56C1040.52 1882.1 1048.73 1967.8 1022.51 2057.48C996.29 2147.17 935.625 2240.88 824.623 2331.42L825.255 2332.2C936.383 2241.55 997.183 2147.68 1023.47 2057.76C1049.76 1967.85 1041.52 1881.93 1014.64 1807.22C987.762 1732.51 942.24 1669.01 893.938 1623.89C845.657 1578.79 794.523 1552 756.401 1550.87L756.371 1551.87ZM824.578 2331.46C736.958 2423.08 623.813 2452.31 521.724 2465.24C470.66 2471.71 422.439 2474.09 381.499 2478.18C340.613 2482.27 306.977 2488.05 285.308 2501.37L285.832 2502.22C307.278 2489.04 340.686 2483.27 381.598 2479.18C422.455 2475.1 470.785 2472.7 521.85 2466.23C624.018 2453.29 737.443 2424.02 825.301 2332.16L824.578 2331.46ZM285.401 2501.33C227.62 2521.99 168.102 2569.31 118.515 2633.48C68.9224 2697.66 29.2357 2778.72 11.1379 2866.92C-25.0642 3043.34 25.1319 3248.28 255.109 3403.64L255.669 3402.81C26.0397 3247.69 -24.0063 3043.16 12.1175 2867.12C30.1826 2779.08 69.8008 2698.15 119.306 2634.09C168.815 2570.02 228.188 2522.85 285.738 2502.27L285.401 2501.33ZM255.109 3403.64C357.619 3472.88 444.303 3477.14 533.13 3491.97C621.928 3506.78 713.01 3532.16 824.586 3643.56L825.292 3642.85C713.531 3531.26 622.237 3505.82 533.294 3490.98C444.38 3476.14 357.957 3471.91 255.669 3402.81L255.109 3403.64ZM824.586 3643.56C936.128 3754.92 968.755 3894.12 951.364 4027.11C933.972 4160.1 866.551 4286.87 778.027 4373.28L778.725 4374C867.403 4287.43 934.933 4160.47 952.356 4027.24C969.78 3893.99 937.087 3754.47 825.292 3642.85L824.586 3643.56ZM778.027 4373.28C733.743 4416.51 701.146 4441.29 673.37 4456.73C645.602 4472.16 622.63 4478.28 597.556 4484.15C572.475 4490.02 545.288 4495.65 509.172 4510.14C473.056 4524.62 428.023 4547.95 367.209 4589.21L367.77 4590.04C428.54 4548.81 473.509 4525.52 509.544 4511.06C545.578 4496.61 572.689 4491 597.784 4485.12C622.885 4479.24 645.965 4473.11 673.856 4457.6C701.739 4442.11 734.407 4417.26 778.725 4374L778.027 4373.28ZM367.209 4589.21C245.554 4671.75 132.032 4802.32 94.9935 4960.46C57.9472 5118.62 97.4406 5304.26 281.639 5496.85L282.361 5496.15C98.3568 5303.77 59.0103 5118.47 95.9671 4960.68C132.932 4802.87 246.256 4672.48 367.77 4590.04L367.209 4589.21ZM281.669 5496.88C327.71 5537.5 403.779 5583.53 492.359 5624.66C580.946 5665.78 682.081 5702.01 778.269 5723.02L778.482 5722.04C682.378 5701.06 581.314 5664.85 492.781 5623.75C404.241 5582.65 328.269 5536.66 282.331 5496.12L281.669 5496.88ZM778.269 5723.02C874.133 5743.96 922.484 5829.43 904.267 5916.35C886.052 6003.27 801.226 6091.78 630.414 6118.51L630.568 6119.49C801.658 6092.72 886.921 6004 905.246 5916.56C923.569 5829.12 874.912 5743.1 778.482 5722.04L778.269 5723.02Z" fill="#3F5540"/>
</svg>
