<svg width="681" height="5463" viewBox="0 0 681 5463" fill="none" preserveAspectRatio="none" xmlns="http://www.w3.org/2000/svg">
<path d="M352.813 3C352.813 4.47276 354.007 5.66667 355.48 5.66667C356.952 5.66667 358.146 4.47276 358.146 3C358.146 1.52724 356.952 0.333333 355.48 0.333333C354.007 0.333333 352.813 1.52724 352.813 3ZM287 574.5L286.813 574.036L287 574.5ZM130.5 1185.5L130.969 1185.33L130.962 1185.31L130.954 1185.29L130.5 1185.5ZM392.502 1386.5L392.361 1386.98L392.384 1386.99L392.408 1386.99L392.502 1386.5ZM595.503 2062.5L595.897 2062.81L595.897 2062.81L595.503 2062.5ZM117.503 3071.5L117.861 3071.15L117.503 3071.5ZM98 4916L98.3904 4915.69L98 4916ZM354.833 5459.5C354.833 5460.97 356.027 5462.17 357.5 5462.17C358.973 5462.17 360.167 5460.97 360.167 5459.5C360.167 5458.03 358.973 5456.83 357.5 5456.83C356.027 5456.83 354.833 5458.03 354.833 5459.5ZM355.326 3.47592C385.194 13.0957 443.331 43.9776 487.004 94.6024C530.66 145.206 559.842 215.504 531.935 304.033L532.889 304.334C560.924 215.397 531.585 144.748 487.761 93.9492C443.956 43.171 385.656 12.1941 355.633 2.52408L355.326 3.47592ZM531.935 304.033C503.985 392.701 466.546 450.577 424.195 491.093C381.84 531.611 334.541 554.795 286.813 574.036L287.187 574.964C334.959 555.705 382.395 532.464 424.886 491.815C467.38 451.164 504.897 393.133 532.889 304.334L531.935 304.033ZM286.813 574.036C233.035 595.716 149.908 653.938 102.192 754.104C54.4646 854.295 42.1993 996.382 130.046 1185.71L130.954 1185.29C43.2111 996.187 55.5151 854.415 103.095 754.534C150.686 654.629 233.604 596.565 287.187 574.964L286.813 574.036ZM130.031 1185.67C145.95 1228.91 157.485 1263.4 192.108 1295C226.715 1326.58 284.345 1355.23 392.361 1386.98L392.643 1386.02C284.658 1354.27 227.213 1325.68 192.782 1294.26C158.368 1262.86 146.903 1228.6 130.969 1185.33L130.031 1185.67ZM392.408 1386.99C507.54 1409.24 598.27 1526.52 640.184 1664.12C682.093 1801.71 675.115 1959.37 595.108 2062.19L595.897 2062.81C676.179 1959.63 683.102 1801.59 641.14 1663.83C599.183 1526.08 508.268 1408.36 392.597 1386.01L392.408 1386.99ZM595.108 2062.19C527.651 2148.89 455.008 2206.94 387.068 2252.47C353.094 2275.23 320.301 2294.86 289.91 2313.38C259.524 2331.89 231.535 2349.3 207.2 2367.6L207.801 2368.4C232.092 2350.13 260.042 2332.75 290.43 2314.23C320.812 2295.72 353.629 2276.08 387.624 2253.3C455.622 2207.73 528.355 2149.61 595.897 2062.81L595.108 2062.19ZM207.2 2367.6C158.487 2404.24 69.6113 2512.14 26.0793 2644.93C-17.4631 2777.75 -15.6585 2935.55 117.145 3071.85L117.861 3071.15C-14.6105 2935.2 -16.4329 2777.82 27.0295 2645.24C70.5023 2512.63 159.263 2404.91 207.801 2368.4L207.2 2367.6ZM117.145 3071.85C180.803 3137.18 269.915 3172.98 357.78 3215.51C445.684 3258.07 532.409 3307.39 591.579 3399.77L592.421 3399.23C533.092 3306.61 446.146 3257.18 358.216 3214.61C270.247 3172.02 181.362 3136.32 117.861 3071.15L117.145 3071.85ZM591.579 3399.77C650.787 3492.2 675.046 3572.87 678.749 3653.71C682.454 3734.57 665.596 3815.63 642.515 3908.88L643.485 3909.12C666.567 3815.87 683.46 3734.68 679.748 3653.66C676.036 3572.63 651.713 3491.8 592.421 3399.23L591.579 3399.77ZM642.515 3908.88C631.008 3955.37 599.161 3998.04 556.266 4037.22C513.374 4076.41 459.477 4112.08 403.936 4144.57C348.394 4177.06 291.238 4206.37 241.819 4232.84C192.421 4259.3 150.723 4282.95 126.174 4304.12L126.827 4304.88C151.277 4283.8 192.87 4260.2 242.291 4233.72C291.689 4207.26 348.878 4177.94 404.441 4145.43C460.005 4112.92 513.972 4077.22 556.94 4037.96C599.904 3998.71 631.911 3955.88 643.485 3909.12L642.515 3908.88ZM126.174 4304.12C101.598 4325.31 77.2308 4361.29 57.0761 4406.53C36.9176 4451.77 20.957 4506.3 13.2147 4564.63C-2.26884 4681.28 15.1103 4813.19 97.6096 4916.31L98.3904 4915.69C16.115 4812.84 -1.25477 4681.24 14.206 4564.76C21.9359 4506.53 37.8708 4452.09 57.9895 4406.93C78.112 4361.77 102.404 4325.94 126.827 4304.88L126.174 4304.12ZM97.6096 4916.31C134.68 4962.65 186.543 4994.82 243.442 5019.26C300.339 5043.69 362.312 5060.42 419.619 5075.86C476.95 5091.3 529.58 5105.44 567.884 5124.71C606.184 5143.98 630 5168.29 630 5204H631C631 5167.71 606.753 5143.15 568.334 5123.82C529.918 5104.49 477.173 5090.32 419.879 5074.89C362.56 5059.45 300.657 5042.74 243.836 5018.34C187.017 4993.93 135.318 4961.85 98.3904 4915.69L97.6096 4916.31ZM630 5204C630 5294.35 595.57 5352.07 544.326 5390.22C493.049 5428.4 424.897 5447.01 357.412 5459.01L357.588 5459.99C425.103 5447.99 493.451 5429.35 544.924 5391.03C596.43 5352.68 631 5294.65 631 5204H630Z" fill="#3F5540"/>
</svg>
