<svg width="857" height="1613" viewBox="0 0 857 1613" fill="none" xmlns="http://www.w3.org/2000/svg">
<path d="M643.108 3C643.108 4.47276 644.302 5.66667 645.775 5.66667C647.248 5.66667 648.441 4.47276 648.441 3C648.441 1.52724 647.248 0.333333 645.775 0.333333C644.302 0.333333 643.108 1.52724 643.108 3ZM309.96 561.865L309.88 561.371L309.96 561.865ZM126.219 1263.61L126.664 1263.38L126.652 1263.36L126.639 1263.34L126.219 1263.61ZM705.604 1610C705.604 1611.47 706.798 1612.67 708.271 1612.67C709.744 1612.67 710.938 1611.47 710.938 1610C710.938 1608.53 709.744 1607.33 708.271 1607.33C706.798 1607.33 705.604 1608.53 705.604 1610ZM645.662 3.48713C695.731 15.0708 764.968 45.7669 809.985 100.171C832.487 127.366 848.935 160.481 853.923 200.102C858.912 239.724 852.443 285.884 829.057 339.172L829.973 339.574C853.417 286.151 859.93 239.809 854.916 199.977C849.901 160.144 833.362 126.855 810.755 99.5336C765.554 44.9064 696.09 14.1274 645.887 2.51287L645.662 3.48713ZM829.057 339.172C782.309 445.696 696.675 494.13 600.629 519.493C552.599 532.176 501.977 539.086 452.324 544.605C402.684 550.123 353.991 554.251 309.88 561.371L310.04 562.358C354.118 555.243 402.757 551.121 452.434 545.599C502.098 540.079 552.78 533.163 600.884 520.46C697.105 495.051 783.059 446.474 829.973 339.574L829.057 339.172ZM309.88 561.371C216.61 576.427 97.0199 638.158 37.5354 753.12C-21.9686 868.12 -21.2536 1036.23 125.799 1263.88L126.639 1263.34C-20.2926 1035.88 -20.8616 868.157 38.4236 753.58C97.7283 638.965 217.001 577.376 310.04 562.358L309.88 561.371ZM125.774 1263.84C179.169 1368 350.963 1575.15 708.222 1610.5L708.32 1609.5C351.451 1574.2 179.929 1367.29 126.664 1263.38L125.774 1263.84Z" fill="#3F5540"/>
</svg>
