<svg width="317" height="3722" viewBox="0 0 317 3722" preserveAspectRatio='none' fill="none"  xmlns="http://www.w3.org/2000/svg">
<path d="M185.834 3C185.834 4.47276 187.028 5.66667 188.501 5.66667C189.973 5.66667 191.167 4.47276 191.167 3C191.167 1.52724 189.973 0.333333 188.501 0.333333C187.028 0.333333 185.834 1.52724 185.834 3ZM267.501 278L267.98 278.141L267.501 278ZM98.0007 462L98.3671 462.34L98.0007 462ZM93.0007 929.5L92.7613 929.939L93.0007 929.5ZM234.001 1500L233.651 1499.64L234.001 1500ZM29.0026 1780L28.5186 1779.87L29.0026 1780ZM57.0027 2137L56.5694 2137.25L57.0027 2137ZM269.5 2362L269.076 2362.27L269.5 2362ZM273.501 2701.5L273.078 2701.23L273.077 2701.23L273.501 2701.5ZM62.5009 2906L62.0776 2905.73L62.5009 2906ZM160.833 3718.5C160.833 3719.97 162.027 3721.17 163.5 3721.17C164.973 3721.17 166.167 3719.97 166.167 3718.5C166.167 3717.03 164.973 3715.83 163.5 3715.83C162.027 3715.83 160.833 3717.03 160.833 3718.5ZM188.301 3.45837C242.68 27.1558 272.264 61.9175 283.326 107.618C294.397 153.362 286.929 210.132 267.021 277.859L267.98 278.141C287.902 210.368 295.433 153.388 284.297 107.382C273.152 61.3325 243.321 26.3442 188.7 2.54163L188.301 3.45837ZM267.021 277.859C255.159 318.214 223.104 353.124 188.827 383.484C171.694 398.66 154.029 412.68 138.075 425.672C122.131 438.656 107.886 450.619 97.6343 461.66L98.3671 462.34C108.564 451.359 122.756 439.436 138.706 426.447C154.648 413.466 172.337 399.427 189.491 384.233C223.787 353.854 256.033 318.786 267.98 278.141L267.021 277.859ZM97.6343 461.66C32.518 531.785 6.4985 635.304 9.12591 728.014C10.4398 774.375 18.9173 818.06 33.2716 853.547C47.6219 889.024 67.8693 916.362 92.7613 929.939L93.2401 929.061C68.6321 915.638 48.5046 888.539 34.1986 853.172C19.8966 817.815 11.4366 774.25 10.1255 727.986C7.50292 635.446 33.4834 532.215 98.3671 462.34L97.6343 461.66ZM92.7613 929.939C179.484 977.242 252.543 1082.61 284.987 1194.74C317.433 1306.88 309.211 1425.58 233.651 1499.64L234.351 1500.36C310.291 1425.92 318.44 1306.76 285.947 1194.46C253.452 1082.16 180.261 976.527 93.2401 929.061L92.7613 929.939ZM233.651 1499.64C157.762 1574.03 114.695 1612.29 86.5138 1647.83C58.2949 1683.42 44.9828 1716.29 28.5186 1779.87L29.4867 1780.13C45.9366 1716.59 59.2049 1683.88 87.2973 1648.45C115.427 1612.98 158.402 1574.8 234.351 1500.36L233.651 1499.64ZM28.5186 1779.87C21.2588 1807.91 10.811 1866.91 10.9027 1934.05C10.9945 2001.19 21.6236 2076.54 56.5694 2137.25L57.4361 2136.75C22.6153 2076.26 11.9944 2001.11 11.9027 1934.05C11.8111 1867 22.2465 1808.09 29.4867 1780.13L28.5186 1779.87ZM56.5694 2137.25C95.6111 2205.07 136.459 2241.68 173.699 2271.17C210.95 2300.68 244.479 2322.98 269.076 2362.27L269.924 2361.73C245.21 2322.27 211.49 2299.83 174.32 2270.39C137.138 2240.94 96.3927 2204.43 57.4361 2136.75L56.5694 2137.25ZM269.076 2362.27C285.781 2388.94 306.386 2442.62 313.004 2505.18C319.622 2567.73 312.25 2639.11 273.078 2701.23L273.924 2701.77C313.253 2639.39 320.631 2567.77 313.998 2505.07C307.366 2442.38 286.72 2388.56 269.924 2361.73L269.076 2362.27ZM273.077 2701.23C265.664 2713.04 252.62 2725.64 236.215 2739.45C219.813 2753.25 200.117 2768.21 179.41 2784.74C138.021 2817.79 92.6702 2857.09 62.0776 2905.73L62.9241 2906.27C93.4198 2857.77 138.653 2818.57 180.034 2785.53C200.711 2769.02 220.446 2754.03 236.859 2740.21C253.268 2726.4 266.421 2713.71 273.924 2701.77L273.077 2701.23ZM62.0776 2905.73C31.5287 2954.31 4.65533 3032.92 1.2278 3115.7C-2.19993 3198.49 17.8202 3285.52 81.1452 3350.85L81.8632 3350.15C18.7883 3285.08 -1.19353 3198.36 2.22695 3115.75C5.64763 3033.13 32.4726 2954.69 62.9241 2906.27L62.0776 2905.73ZM81.1452 3350.85C144.365 3416.07 189.757 3452.96 221.59 3478.42C237.511 3491.15 250.014 3501 259.667 3510.11C269.313 3519.21 276.083 3527.54 280.546 3537.21L281.454 3536.79C276.917 3526.96 270.05 3518.53 260.353 3509.38C250.663 3500.24 238.118 3490.35 222.214 3477.63C190.399 3452.19 145.043 3415.33 81.8632 3350.15L81.1452 3350.85ZM280.546 3537.21C298.411 3575.92 287.084 3675.12 163.336 3718.03L163.664 3718.97C287.917 3675.88 299.59 3576.08 281.454 3536.79L280.546 3537.21Z" fill="#3F5540"/>
</svg>
