<svg width="284" height="640" viewBox="0 0 284 640" fill="none" xmlns="http://www.w3.org/2000/svg">
<path d="M224.58 3C224.58 4.47276 225.774 5.66667 227.247 5.66667C228.72 5.66667 229.914 4.47276 229.914 3C229.914 1.52724 228.72 0.333333 227.247 0.333333C225.774 0.333333 224.58 1.52724 224.58 3ZM127.69 240.122L127.59 239.632L127.69 240.122ZM169.815 637C169.815 638.473 171.009 639.667 172.482 639.667C173.955 639.667 175.149 638.473 175.149 637C175.149 635.527 173.955 634.333 172.482 634.333C171.009 634.333 169.815 635.527 169.815 637ZM227.101 3.47829C253.287 11.4565 269.797 28.201 277.457 49.3126C285.124 70.4411 283.943 95.9904 274.635 121.567C256.021 172.717 204.943 223.857 127.59 239.632L127.79 240.612C205.476 224.769 256.839 173.393 275.575 121.909C284.942 96.1687 286.163 70.3716 278.397 48.9715C270.626 27.5545 253.869 10.5885 227.393 2.52171L227.101 3.47829ZM127.59 239.632C78.5228 249.639 44.4263 275.177 23.9932 308.962C3.5664 342.737 -3.18292 384.715 2.358 427.582C13.4387 513.307 73.6874 602.717 172.316 637.472L172.648 636.528C74.4114 601.912 14.3871 512.844 3.34975 427.454C-2.16837 384.763 4.562 343.023 24.8489 309.48C45.1295 275.947 78.9808 250.566 127.79 240.612L127.59 239.632Z" fill="#3F5540"/>
</svg>
