<svg width="607" height="1089" viewBox="0 0 607 1089" fill="none" xmlns="http://www.w3.org/2000/svg">
<path d="M359.942 3C359.942 4.47276 361.136 5.66667 362.609 5.66667C364.082 5.66667 365.275 4.47276 365.275 3C365.275 1.52724 364.082 0.333333 362.609 0.333333C361.136 0.333333 359.942 1.52724 359.942 3ZM251.188 424.167L251.261 424.661L251.261 424.661L251.188 424.167ZM81.8056 877.704L82.2423 877.46L82.2297 877.438L82.2147 877.416L81.8056 877.704ZM486.474 1086C486.474 1087.47 487.667 1088.67 489.14 1088.67C490.613 1088.67 491.807 1087.47 491.807 1086C491.807 1084.53 490.613 1083.33 489.14 1083.33C487.667 1083.33 486.474 1084.53 486.474 1086ZM362.505 3.48905C398.001 11.0417 472.376 40.7616 529.561 85.9783C558.151 108.585 582.407 135.036 595.377 164.489C608.338 193.922 610.038 226.371 593.494 261.044L594.396 261.475C611.075 226.521 609.362 193.767 596.292 164.086C583.231 134.426 558.839 107.854 530.181 85.1939C472.871 39.8781 398.354 10.0944 362.713 2.51095L362.505 3.48905ZM593.494 261.044C560.343 330.516 506.064 366.525 444.411 387.493C382.726 408.472 313.724 414.377 251.115 423.672L251.261 424.661C313.782 415.38 382.935 409.457 444.733 388.44C506.565 367.411 561.099 331.254 594.396 261.475L593.494 261.044ZM251.115 423.672C184.944 433.495 90.3097 472.69 38.3109 546.652C12.3014 583.648 -3.03417 629.335 1.19827 684.364C5.43003 739.383 29.2204 803.705 81.3964 877.991L82.2147 877.416C30.109 803.231 6.4095 739.078 2.19532 684.287C-2.01818 629.505 13.2443 584.046 39.1289 547.227C90.9185 473.563 185.257 434.46 251.261 424.661L251.115 423.672ZM81.3688 877.947C119.291 945.987 235.631 1063.44 489.095 1086.5L489.185 1085.5C236.02 1062.47 119.989 945.186 82.2423 877.46L81.3688 877.947Z" fill="#3F5540"/>
</svg>
