<svg width="375" height="277" viewBox="0 0 375 277" fill="none" xmlns="http://www.w3.org/2000/svg">
<g filter="url(#filter0_f_2499_18884)">
<path d="M6.94226 62.7039C12.1476 51.315 0.695428 43.1654 0 31.4278C6.29698 29.6783 16.4814 26.0377 22.8616 23.9454C25.1352 23.1998 33.235 21.8429 35.3098 24.2447C37.3634 26.6221 39.5379 31.4278 42.5513 31.4278C61.3329 31.4278 78.9854 22 98.0295 22H140.222C144.665 22 148.959 28.3455 153.089 30.5299C159.237 33.7822 169.343 31.4278 175.711 31.4278C183.336 31.4278 190.999 31.1643 198.573 32.4753C203.257 33.2862 207.025 34.8294 212.218 33.8221C219.976 32.317 227.838 28.6314 235.498 27.5369C242.62 26.5194 248.23 32.9912 255.308 31.1285C262.823 29.1504 271.478 25.2794 279.127 26.1901C285.73 26.9763 297.503 29.552 301.091 37.4884C303.662 43.1762 304.851 44.5185 309.768 46.5421C317.886 49.8824 327.468 50.3566 334.784 55.9698C340.187 60.1145 340.11 66.8144 341.547 73.703C342.921 80.2856 346.874 82.7483 346.874 89.1914C346.874 97.3411 342.356 97.9198 340.649 104.904C336.632 121.341 349.757 127.553 354.175 139.622C356.858 146.952 356.942 155.582 359.202 163.117C360.349 166.94 363.94 170.819 366.264 173.517C374.475 183.05 368.356 190.106 366.503 200.529C365.307 207.262 368.397 208.314 372.488 211.602C375.805 214.268 374.882 219.128 374.882 223.499C374.882 231.58 373.624 234.977 368.418 239.437C364.744 242.585 361.746 246.845 358.125 250.062C356.789 251.249 355.174 250.202 353.995 251.184C351.697 253.1 352.63 255 348.968 255H339.991C336.088 255 332.295 254.703 328.56 253.055C322.658 250.45 317.528 241.905 311.564 241.532C309.203 241.384 305.87 242.423 303.784 240.634C302.051 239.149 301.613 237.491 299.355 237.491C289.497 237.491 271.989 241.546 264.404 231.505C260.306 226.08 257.443 224.023 251.118 224.023C249.029 224.023 245.462 224.951 243.697 223.125C241.636 220.992 240.44 219.983 237.653 219.983H223.589C220.764 219.983 221.911 217.612 220.177 216.167C218.892 215.096 215.572 216.034 214.133 215.942C210.293 215.698 207.673 212.237 203.719 211.902C201.526 211.716 199.551 210.846 197.376 210.555C195.259 210.271 194.122 208.021 191.87 207.861C189.119 207.667 186.304 207.602 183.671 206.44C170.916 200.812 162.944 209.65 151.293 216.167C147.133 218.494 141.093 217.418 136.571 217.289C134.279 217.224 132.112 215.866 129.868 215.942C127.291 216.029 125.266 217.927 122.806 218.486C116.855 219.839 109.936 218.636 103.894 218.636C97.6502 218.636 91.3602 218.986 85.5215 217.364C82.5737 216.545 81.903 214.644 79.6564 212.051C76.5709 208.49 74.2855 210.25 70.7392 208.984C68.3888 208.144 69.3179 204.347 66.7893 203.896C64.8026 203.541 65.3049 202.969 63.9167 201.426C61.6677 198.927 57.7675 197.634 55.179 195.291C52.6195 192.974 50.8343 190.274 48.7155 187.36C46.531 184.355 42.0126 173.973 42.0126 170.075C42.0126 162.118 29.9936 156.219 25.6145 153.839C20.8294 151.238 17.6925 150.294 14.0042 145.683C10.6237 141.457 12.51 133.069 11.73 127.95C11.4727 126.261 9.01915 121.018 8.1392 119.27C6.41814 115.853 2.36777 109.535 2.15449 105.802C1.90796 101.487 2.15449 97.0339 2.15449 92.7081C2.15449 81.6832 2.8181 71.7273 6.94226 62.7039Z" fill="#B3A189" fill-opacity="0.2"/>
</g>
<defs>
<filter id="filter0_f_2499_18884" x="-22" y="0" width="419" height="277" filterUnits="userSpaceOnUse" color-interpolation-filters="sRGB">
<feFlood flood-opacity="0" result="BackgroundImageFix"/>
<feBlend mode="normal" in="SourceGraphic" in2="BackgroundImageFix" result="shape"/>
<feGaussianBlur stdDeviation="11" result="effect1_foregroundBlur_2499_18884"/>
</filter>
</defs>
</svg>
