<svg width="768" height="875" viewBox="0 0 768 875" fill="none" xmlns="http://www.w3.org/2000/svg" preserveAspectRatio="none">
<path fill-rule="evenodd" clip-rule="evenodd" d="M272.807 328.369C272.765 317.424 255.853 305.116 248.629 298.771C234.345 286.22 219.489 274.631 204.771 262.856C190.053 251.081 175.295 239.338 161.26 226.411C152.147 218.02 141.44 208.569 135.26 196.587C122.094 171.052 163.605 174.844 174.357 174.285C201.711 172.858 233.087 173.509 258.727 160.212C274.034 152.274 280.137 138.961 276.85 119.557C275.79 113.247 272.654 105.986 275.311 99.8381C278.148 93.2725 284.675 89.4837 290.092 86.943C309.852 77.6866 332.57 76.6141 353.477 75.4523C376.02 74.1756 398.776 74.549 421.16 74.4501C430.652 74.4086 440.565 70.3006 449.604 66.9619C461.453 62.5859 473.162 57.6705 484.913 52.9178C510.765 42.4868 537.404 31.5004 564.756 28.8511C581.885 27.1914 600.606 29.4353 613.912 43.872C620.593 51.1208 624.09 61.8965 627.952 71.4689C632.628 83.033 637.118 94.7088 642.096 106.091C658.131 142.749 681.024 178.572 718.182 180.372C723.804 180.643 729.324 179.759 734.919 179.593C738.482 179.491 741.653 180.528 742.978 185.019C746.307 196.283 735.841 214.065 731.55 223.002C722.153 242.565 711.557 261.251 701.631 280.421C695.064 293.099 683.697 310.424 683.577 325.828C683.472 339.553 698.624 349.474 706.873 356.234C714.603 362.563 728.609 371.421 729.457 384.297C729.867 390.54 726.45 395.714 722.882 399.729C716.627 406.752 709.422 411.705 703.795 419.717C694.568 432.861 686.86 450.946 688.113 468.658C688.982 480.93 694.794 488.967 702.187 496.65C705.295 499.88 707.816 502.166 707.981 507.41C708.246 515.738 705.538 524.55 703.308 532.271C695.329 559.903 683.996 586.622 671.389 611.57C665.09 624.037 658.284 636.467 649.932 647.102C644.461 654.086 637.084 662.397 628.739 662.388C619.078 662.388 608.855 658.187 599.464 655.046C581.925 649.177 564.597 642.391 547.338 635.429C507.426 619.323 467.888 601.913 428.726 583.198C401.141 569.993 372.971 556.769 347.037 539.214C341.979 535.766 337.205 531.747 332.78 527.209C328.051 522.444 322.183 520.312 316.233 518.722C279.305 508.856 238.849 516.43 201.767 521.18C192.355 522.383 182.943 523.593 173.504 524.435C165.39 525.16 155.676 527.238 147.79 524.116C132.25 517.972 145.835 495.326 151.578 486.098C171.798 453.608 197.886 426.12 222.067 398.057C233.564 384.693 245.148 371.363 256.02 357.243C261.681 349.901 272.844 337.964 272.807 328.369Z" stroke="#C2BFB7" stroke-opacity="0.7"/>
<path fill-rule="evenodd" clip-rule="evenodd" d="M279.776 326.523C273.578 314.942 262.704 306.382 253.678 298.326C240.688 286.729 227.291 275.776 214.095 264.507C201.617 253.851 189.113 243.074 177.557 230.973C170.511 223.593 161.671 214.768 158.333 203.854C151.094 180.197 190.04 183.786 199.655 183.167C223.558 181.636 250.658 181.285 272.772 168.829C286.58 161.051 292.253 148.152 289.308 130.244C288.29 124.048 286.456 118.758 288.778 112.594C291.463 105.46 297.64 101.013 303.302 97.8734C321.039 88.0373 342.005 85.9476 361.232 84.2088C381.095 82.4125 401.791 81.1459 421.015 82.4604C428.702 82.9836 437.551 80.0133 445.159 77.7353C456.865 74.2258 468.452 70.1771 480.1 66.4124C503.773 58.7553 528.06 51.379 552.687 50.5399C570.466 49.9337 589.004 53.2199 603.796 65.9211C618.787 78.8009 625.438 98.7668 633.751 117.747C648.108 150.561 667.499 190.457 700.715 197.39C705.752 198.443 710.592 197.872 715.624 198.13C718.211 198.261 721.156 198.676 722.468 201.748C725.875 209.724 716.541 224.308 713.4 230.418C704.721 247.301 694.963 263.359 685.867 279.917C678.644 293.065 669.488 307.674 666.694 323.26C663.303 342.173 685.457 355.63 693.248 368.947C706.754 392.039 681.165 405.197 668.549 416.207C654.062 428.848 642.104 451.908 655.091 471.466C660.058 478.944 666.171 483.401 668.39 493.161C671.86 508.424 669.236 525.866 666.421 540.954C662.179 563.635 655.467 586.07 646.343 606.569C639.806 621.245 628.961 644.257 613.079 642.531C602.388 641.38 591.52 637.171 581.11 633.451C565.523 627.884 550.132 621.538 534.823 614.947C499.484 599.773 464.534 583.042 430.272 564.64C406.894 552.079 341.682 500.748 336.775 498.916C322.145 493.461 305.51 494.421 290.427 495.266C270.362 496.389 250.398 499.299 230.451 501.995C220.955 503.271 211.412 504.831 201.866 505.46C195.072 505.907 186.149 506.289 180.198 501.532C168.582 492.251 181.523 471.016 186.875 462.032C203.271 434.488 224.012 410.637 243.458 386.249C253.002 374.275 262.691 362.32 271.354 349.386C274.848 344.163 283.606 333.676 279.776 326.523Z" stroke="#C2BFB7" stroke-opacity="0.7"/>
<path fill-rule="evenodd" clip-rule="evenodd" d="M288.35 320.584C271.424 297.409 248.062 280.172 227.9 260.817C217.78 251.099 207.597 241.117 198.869 229.542C194.329 223.523 188.659 215.911 187.785 207.521C185.447 185.077 220.55 188.112 231.057 187.26C251.37 185.606 274.318 184.352 292.747 172.899C304.006 165.897 309.551 154.405 307.447 139.3C306.514 132.598 305.061 126.905 307.447 120.324C309.864 113.658 314.9 108.954 320 105.427C334.654 95.2851 352.866 92.0426 369.365 89.6268C388.72 86.8129 408.221 85.7143 427.71 86.3397C444.78 86.879 461.767 80.8123 478.433 76.8135C500.512 71.5191 522.99 66.8948 545.583 67.5938C563.426 68.149 581.41 72.5116 596.664 84.1058C612.164 95.9137 621.483 113.587 629.885 132.659C642.586 161.489 658.415 200.124 686.28 211.073C690.332 212.669 694.109 212.845 698.289 213.122C700.319 213.256 702.941 213.298 703.948 215.848C706.37 221.988 697.414 233.892 694.915 238.04C686.937 251.284 678.288 263.932 670.112 277C662.478 289.201 654.164 301.915 649.422 316.212C641.876 338.983 666.001 352.297 665.325 373.995C664.903 387.465 654.193 397.126 645.711 403.808C635.268 412.026 620.232 417.429 615.005 432.425C611.111 443.595 617.221 450.096 621.926 458.572C629.898 472.933 630.442 492.4 629.612 509.024C628.493 531.488 624.123 554.283 616.683 574.931C613.311 584.292 609.182 594.028 603.102 601.298C597.406 608.112 592.015 609.858 584.402 608.463C561.099 604.186 537.571 592.267 515.224 581.62C487.148 568.242 459.458 553.473 432.595 536.855C414.278 525.523 395.547 513.533 379.469 497.876C375.278 493.795 370.987 489.359 367.923 483.975C365.607 479.928 364.623 476.587 360.719 474.276C349.147 467.431 333.051 469.221 320.652 469.933C300.826 471.066 281.095 474.082 261.392 476.798C249.894 478.393 228.234 483.413 219.053 471.372C211.128 460.975 220.691 443.247 225.576 434.088C237.932 410.925 253.827 390.596 268.575 369.664C275.333 360.071 282.357 350.404 287.939 339.739C289.365 337.02 291.65 333.417 292.042 330.114C292.482 326.329 290.428 323.441 288.35 320.584Z" stroke="#C2BFB7" stroke-opacity="0.7"/>
<path fill-rule="evenodd" clip-rule="evenodd" d="M289.806 325.98C274.165 305.488 255.323 288.654 238.532 269.478C231.004 260.88 223.401 251.861 217.664 241.373C214.579 235.732 211.302 228.633 212.153 221.622C214.595 201.501 243.466 203.319 255.129 202.14C272.461 200.409 292.372 198.665 307.697 187.816C317.736 180.71 321.5 170.215 319.626 156.679C317.614 142.16 322.112 131.621 332.35 123.521C345.186 113.375 361.388 109.239 376.291 106.3C394.247 102.777 412.43 101.216 430.619 101.634C448.308 102.043 465.446 98.4724 483.019 96.1505C506.317 93.0749 530.364 91.5578 553.4 97.8624C573.457 103.353 591.573 115.451 605.153 134.16C619.338 153.687 626.36 178.289 637.879 199.892C645.063 213.366 655.08 231.191 668.504 236.429C672.982 238.176 681.141 235.819 677.565 244.413C675.521 249.328 671.696 253.64 668.674 257.658C663.791 264.151 658.746 270.465 653.781 276.869C643.199 290.519 631.866 304.46 623.935 320.624C613.941 340.975 628.797 356.637 626.986 377.272C626.013 388.377 619.603 397.24 612.822 404.202C608.435 408.712 603.634 412.618 598.733 416.262C593.614 420.069 587.557 422.969 583.093 427.891C576.73 434.895 579.493 443.186 580.686 452.24C582.785 468.152 583.246 484.316 582.059 500.364C580.606 520.035 577.2 540.268 570.024 558.144C567.232 565.103 563.696 572.481 558.445 577.147C553.193 581.813 547.761 581.493 541.744 580.088C523.896 575.936 506.084 566.275 489.153 557.118C467.962 545.656 447.187 532.845 427.347 518.272C413.653 508.212 399.913 497.343 388.456 483.702C385.124 479.733 381.953 475.482 379.39 470.736C377.63 467.481 376.686 463.281 374.136 460.835C366.157 453.198 350.137 455.479 340.78 455.923C322.104 456.807 303.723 461.014 285.071 462.036C274.892 462.595 258.949 464 251.474 453.559C244.444 443.745 250.811 428.287 255.013 418.83C263.27 400.236 274.364 383.669 284.308 366.384C288.395 359.272 292.875 351.83 295.524 343.708C297.878 336.471 293.814 331.234 289.806 325.98Z" stroke="#C2BFB7" stroke-opacity="0.7"/>
<path fill-rule="evenodd" clip-rule="evenodd" d="M293.653 326.315C281.204 308.283 266.196 292.276 253.657 273.951C246.317 263.219 233.677 245.178 239.353 230.048C245.581 213.423 267.287 212.97 279.834 211.63C294.768 210.036 312.306 207.857 325.086 197.477C329.128 194.195 332.571 189.851 334.031 184.13C335.593 178.006 333.885 172.648 333.662 166.519C333.196 153.66 339.569 143.336 348.003 136.247C359.922 126.223 374.827 121.484 388.905 118.18C404.855 114.453 421.069 112.616 437.316 112.694C452.843 112.758 468.206 112.343 483.749 111.865C504.076 111.227 524.688 112.257 544.406 118.76C563.829 125.17 581.488 137.184 595.36 154.856C608.892 172.1 618.022 193.177 626.019 214.647C630.556 226.833 638.222 245.044 649.045 251.199C653.857 253.939 658.58 253.75 653.463 260.875C647.018 269.846 638.333 277.044 630.869 284.718C620.102 295.791 609.064 307.081 600.027 320.246C594.255 328.652 591.683 336.811 592.08 347.695C592.388 355.987 593.781 364.193 593.076 372.517C591.426 392.054 578.651 405.452 567.357 417.928C560.091 425.953 553.456 432.073 549.716 443.487C545.293 456.977 543.436 471.654 540.48 485.661C537.233 501.043 533.482 517.043 526.394 530.591C520.085 542.653 512.411 548.062 500.926 544.812C483.013 539.747 465.356 527.271 449.453 515.729C433.266 503.986 417.358 490.783 403.945 474.642C396.703 465.926 391.76 455.692 385.329 446.328C377.24 434.573 358.94 439.025 348.064 440.02C330.01 441.672 273.202 454.034 278.444 413.996C280.632 397.285 289.248 381.862 295.549 367.115C298.161 360.994 301.941 353.65 302.532 346.637C303.175 338.998 297.396 331.743 293.653 326.315Z" stroke="#C2BFB7" stroke-opacity="0.7"/>
<path fill-rule="evenodd" clip-rule="evenodd" d="M300.226 327.846C290.712 311.506 279.327 296.068 271.164 278.419C265.869 266.989 260.668 251.718 267.5 239.624C275.21 225.977 292.211 222.796 304.703 221.057C317.574 219.267 332.939 217.76 343.458 207.412C346.805 204.116 349.564 199.671 350.078 194.349C350.573 189.244 349.175 184.138 349.638 178.94C350.676 167.268 356.552 157.651 364.127 150.675C386.535 130.04 419.886 125.451 446.922 124.912C460.455 124.644 474.382 126.051 488.002 127.06C505.676 128.368 523.376 131.176 540.232 137.944C576.069 152.328 600.089 184.231 616.866 223.928C622.145 236.424 626.186 249.944 634.46 259.985C638.726 265.171 637.794 268.894 633.433 273.623C626.615 281.013 618.298 286.661 610.731 292.829C599.968 301.601 588.974 310.504 579.456 321.011C572.894 328.254 568.237 335.233 566.823 346.095C565.814 353.839 566.05 361.73 565.444 369.522C564.289 384.325 560.336 399.016 553.338 411.294C547.778 421.026 541.158 429.871 534.317 438.305C525.423 449.285 517.901 460.44 511.146 473.472C502.191 490.722 489.609 522.541 468.517 514.12C445.254 504.829 423.45 481.219 408.524 458.344C403.512 450.663 399.398 441.244 392.638 435.58C382.518 427.115 372.25 427.411 360.213 427.446C342.193 427.494 302.98 432.207 302.556 399.686C302.389 386.801 307.017 374.618 309.234 362.225C311.733 348.344 306.723 338.982 300.226 327.846Z" stroke="#C2BFB7" stroke-opacity="0.7"/>
<path fill-rule="evenodd" clip-rule="evenodd" d="M307.311 329.303C297.901 308.006 276.8 273.011 292.849 249.328C301.327 236.813 316.321 232.11 328.9 229.307C339.022 227.04 351.23 226.188 358.878 216.578C364.5 209.512 362.004 199.228 364.158 190.383C366.831 179.417 372.967 170.444 380.506 163.7C401.576 144.852 430.871 139.068 456.216 137.837C482.539 136.562 511.542 142.528 536.312 154.004C567.197 168.317 590.335 195.421 606.517 229.744C609.502 236.08 612.215 242.581 615.082 248.994C617.008 253.295 619.863 257.456 621.381 261.981C623.909 269.525 620.931 275.692 616.157 280.609C609.29 287.688 600.855 292.726 593.027 298.038C582.321 305.308 571.377 312.448 561.419 320.977C554.727 326.717 547.723 332.9 545.328 342.858C543.693 349.65 543.354 356.843 543.412 363.878C543.539 378.96 542.882 391.157 537.038 404.97C527.422 427.648 512.634 448.039 497.011 465.006C484.751 478.322 465.35 499.006 447.487 490.104C431.459 482.132 422.083 463.051 411.524 447.624C406.389 440.125 400.622 433.276 393.845 427.941C385.302 421.216 377.259 418.394 367.136 417.294C350.099 415.441 324.409 414.96 319.143 390.343C317.198 381.259 318.308 371.849 317.288 362.647C315.956 350.479 312.059 340.046 307.311 329.303Z" stroke="#C2BFB7" stroke-opacity="0.7"/>
<path fill-rule="evenodd" clip-rule="evenodd" d="M317.095 330.092C310.395 306.788 301.592 277.42 317.776 256.709C325.615 246.676 336.642 241.067 347.314 236.876C354.957 233.872 367.093 232.988 371.779 223.753C375.221 216.957 375.698 207.581 378.811 200.3C383.089 190.289 389.571 182.044 397.174 175.589C416.983 158.769 442.782 152.27 466.311 150.409C517.434 146.371 569.452 178.532 596.808 231.446C604.965 247.219 615.494 264.007 602.313 280.121C587.921 297.7 566.24 305.936 549.064 318.427C542.5 323.196 534.137 328.93 530.475 337.564C528.273 342.755 528.122 349.267 528.021 354.981C527.756 369.534 526.753 382.622 521.895 396.202C514.392 417.188 502.428 436.548 488.87 452.407C477.046 466.236 460.184 482.487 443.013 472.518C429.847 464.857 421.497 448.596 411.267 436.609C399.883 423.259 385.803 414.264 370.342 409.868C355.301 405.603 338.805 402.727 330.878 384.608C328.159 378.393 325.318 370.345 324.299 363.466C322.654 352.124 320.244 340.962 317.095 330.092Z" stroke="#C2BFB7" stroke-opacity="0.7"/>
<path fill-rule="evenodd" clip-rule="evenodd" d="M328.005 330.255C324.905 306.724 324.561 282.188 338.964 263.642C345.685 254.99 354.183 248.843 362.775 243.273C369.097 239.176 375.625 235.719 380.347 229.001C384.721 222.781 388.047 215.558 392.27 209.175C397.841 200.716 404.507 193.394 412.012 187.489C430.824 172.715 453.708 165.806 475.601 163.409C486.199 162.244 497.696 161.637 508.223 164.813C518.389 167.877 528.441 172.722 537.789 178.371C557.661 190.368 574.883 207.937 587.367 230.15C595.928 245.386 600.557 260.201 589.471 275.658C576.973 293.08 557.377 302.693 541.225 314.001C530.148 321.756 517.732 329.359 515.662 345.84C514.014 358.954 512.676 371.401 508.413 383.796C502.068 402.081 492.739 418.643 480.98 432.502C470.225 445.128 456.62 455.842 441.236 449.098C429.048 443.746 419.592 431.756 408.944 423.183C397.076 413.609 384.038 408.33 370.308 404.085C357.969 400.255 346.35 394.37 338.375 381.875C336.743 379.322 335.029 376.542 333.77 373.686C332.165 370.041 332.289 366.428 331.974 362.343C331.153 351.562 329.407 340.905 328.005 330.255Z" stroke="#C2BFB7" stroke-opacity="0.7"/>
<path fill-rule="evenodd" clip-rule="evenodd" d="M340.036 328.332C340.301 305.981 344.763 284.858 356.985 267.439C362.21 259.988 368.45 253.85 374.199 247.022C378.829 241.517 383.204 236.403 388.527 231.867C401.154 221.126 411.416 207.227 424.835 197.662C442.748 184.876 463.268 177.808 483.628 174.982C493.57 173.601 503.84 173.118 513.898 174.678C522.537 176.018 530.81 180.72 538.485 185.531C553.528 194.955 568.133 208.349 577.9 225.294C599.434 262.654 556.979 289.816 535.188 305.722C525.167 313.04 509.854 321.514 505.749 336.008C502.815 346.362 501.027 356.891 497.248 366.926C487.097 393.874 466.491 425.569 439.03 421.349C427.28 419.546 416.57 412.223 405.6 407.306C394.305 402.243 382.647 399.42 370.907 396.322C359.935 393.429 351.191 389.312 344.104 378.274C340.716 373.003 341.016 366.692 340.714 360.226C340.221 349.603 339.917 338.92 340.036 328.332Z" stroke="#C2BFB7" stroke-opacity="0.7"/>
<path fill-rule="evenodd" clip-rule="evenodd" d="M350.989 325.47C355.401 291.733 371.786 254.902 395.878 235.309C424.217 212.262 454.919 192.854 488.778 187.275C504.476 184.688 521.672 183.415 536.485 191.875C547.758 198.309 560.853 207.926 567.057 221.452C582.235 254.535 548.474 280.871 529.239 296.176C518.883 304.416 505.701 312.445 497.896 324.478C493.367 331.454 491.055 340.683 487.399 348.345C476.32 371.565 458.082 390.293 435.363 393.642C424.859 395.189 414.278 393.275 403.853 391.754C393.181 390.197 382.377 389.352 371.772 387.179C363.307 385.444 353.33 382.506 350.212 371.593C346.281 357.841 349.189 339.247 350.989 325.47Z" stroke="#C2BFB7" stroke-opacity="0.7"/>
<path fill-rule="evenodd" clip-rule="evenodd" d="M361.73 320.05C368.164 288.331 381.789 257.392 404.693 238.457C416.84 228.416 430.939 221.485 444.477 214.637C459.821 206.876 475.854 200.851 492.228 197.863C512.616 194.14 545.637 190.785 556.288 218.768C566.861 246.543 540.145 271.126 524.346 285.136C514.217 294.11 503.377 302.347 493.699 312.158C488.451 317.477 484.409 323.622 479.968 329.861C467.694 347.145 450.197 360.829 432.362 368.133C415.077 375.215 393.694 378.35 375.448 376.01C367.575 375.004 361.948 371.61 359.567 361.962C356.267 348.55 359.07 333.152 361.73 320.05Z" stroke="#C2BFB7" stroke-opacity="0.7"/>
<path fill-rule="evenodd" clip-rule="evenodd" d="M372.405 311.507C378.797 283.58 392.584 258.072 412.693 241.311C435.235 222.522 464.262 212.081 490.94 206.771C505.121 203.951 535.852 196.305 543.081 218.188C550.309 240.071 529.413 261.636 517.386 273.508C502.79 287.894 487.052 301.785 471.334 314.692C457.677 325.915 443.104 337.389 428.311 346.056C419.969 350.973 411.278 354.987 402.342 358.052C395.725 360.303 387.311 363.66 380.374 361.984C362.877 357.753 369.348 324.86 372.405 311.507Z" stroke="#C2BFB7" stroke-opacity="0.7"/>
<path fill-rule="evenodd" clip-rule="evenodd" d="M385.58 303.145C399.604 250.332 444.037 224.357 486.819 215.304C496.761 213.202 524.63 205.625 530.186 221.758C535.571 237.4 518.446 255.951 510.428 264.739C485.584 291.974 454.889 312.166 425.803 332.171C416.724 338.415 400.35 351.965 389.088 345.715C376.861 338.916 382.674 314.096 385.58 303.145Z" stroke="#C2BFB7" stroke-opacity="0.7"/>
<path fill-rule="evenodd" clip-rule="evenodd" d="M399.944 292.979C412.141 254.086 447.615 231.78 480.229 224.426C488.218 222.627 508.506 217.025 514.556 227.878C520.155 237.918 506.794 252.466 501.795 258.246C490.665 271.119 477.476 281.724 464.446 291.917C452.399 301.347 440.221 311.014 427.544 318.99C420.867 323.188 408.344 332.146 400.757 325.664C392.588 318.69 397.237 301.615 399.944 292.979Z" stroke="#C2BFB7" stroke-opacity="0.7"/>
<path fill-rule="evenodd" clip-rule="evenodd" d="M415.775 281.616C425.07 256.217 449.967 239.724 471.929 234.243C477.838 232.772 490.611 228.954 495.596 235.737C500.185 241.984 492.788 251.142 489.506 255.371C474.957 274.118 453.651 290.863 434.13 301.147C429.222 303.733 420.399 308.808 415.35 303.589C410.171 298.23 413.639 287.447 415.775 281.616Z" stroke="#C2BFB7" stroke-opacity="0.7"/>
<path fill-rule="evenodd" clip-rule="evenodd" d="M432.568 270.947C437.806 258.335 451.496 248.82 462.837 245.791C470.818 243.661 480.411 245.501 473.456 256.479C466.546 267.373 453.725 277.324 442.859 281.735C434.568 285.099 428.07 281.78 432.568 270.947Z" stroke="#C2BFB7" stroke-opacity="0.7"/>
<path fill-rule="evenodd" clip-rule="evenodd" d="M7.79726 358.299C7.46131 333.382 -3.52996 307.487 1.89821 282.098C6.35555 261.247 28.7957 259.506 42.2577 250.059C52.9553 242.554 59.0263 229.258 64.8116 216.502C70.0096 205.049 74.6786 193.253 80.1543 181.988C83.6991 174.706 89.7859 160.406 97.4732 160.148C104.832 159.9 111.581 171.043 115.855 177.63C121.429 186.216 126.371 195.37 131.783 204.093C140.904 218.807 151.847 229.698 164.378 240.006C178.638 251.735 193.134 263.063 207.864 273.99C218.71 282.06 229.63 290.069 240.055 298.936C246.594 304.499 261.027 314.938 261.094 325.195C261.125 330.089 257.276 335.509 254.681 339.421C250.29 346.043 245.285 352.098 240.264 358.022C230.913 369.056 221.165 379.591 211.523 390.252C199.008 404.09 187.054 417.701 176.052 433.409C164.677 449.67 153.81 466.466 142.721 483.032C135.211 494.255 127.709 506.859 116.876 513.746C103.309 522.354 92.172 513.277 78.4508 513.172C66.6474 513.079 67.5177 480.125 66.0178 470.961C64.5126 461.687 61.1954 453.053 59.9098 443.756C58.3067 432.15 58.2856 420.277 57.8914 408.547C57.4126 394.2 57.2222 380.541 44.4956 375.07C37.2527 371.961 29.4174 371.307 21.9206 369.445C17.0638 368.237 7.90307 366.171 7.79726 358.299Z" stroke="#C2BFB7" stroke-opacity="0.7"/>
<path fill-rule="evenodd" clip-rule="evenodd" d="M13.5996 353.866C12.3623 332.98 5.05287 306.247 11.9649 284.687C17.8703 266.263 36.3386 263.874 48.7745 254.196C59.0406 246.213 63.6107 233.15 68.7424 220.316C72.8595 210.022 76.852 199.628 81.5254 189.662C84.9695 182.318 90.2284 169.919 97.3895 168.399C103.827 167.032 110.731 177.978 114.345 183.547C119.617 191.677 124.126 200.506 128.784 209.15C136.968 224.333 145.347 237.987 157.325 249.141C169.356 260.342 182.517 268.718 195.82 277.435C206.226 284.256 216.58 291.274 226.467 299.149C233.832 305.011 244.421 312.515 247.791 322.97C250.459 331.24 236.929 344.964 232.939 349.808C224.726 359.767 216.023 369.117 207.304 378.409C196.675 389.732 185.707 399.634 176.321 412.55C159.532 435.643 145.498 464.4 123.896 481.563C110.867 491.916 96.3668 494.563 81.8751 493.014C76.1367 492.401 74.759 482.639 74.0358 476.946C72.833 467.488 72.682 457.867 71.7573 448.371C70.891 439.481 68.9676 431.035 67.4178 422.318C65.8494 413.486 65.4096 404.436 64.2545 395.543C63.5392 390.022 62.8318 383.598 59.703 379.159C56.4655 374.564 51.1245 372.639 46.4564 371.176C37.6898 368.456 14.4738 368.606 13.5996 353.866Z" stroke="#C2BFB7" stroke-opacity="0.7"/>
<path fill-rule="evenodd" clip-rule="evenodd" d="M21.0681 345.123C18.9873 325.951 16.0742 302.072 24.551 284.409C31.4798 269.966 46.2571 266.85 56.8119 257.439C65.5908 249.614 68.9068 237.167 73.2644 225.601C76.8401 216.114 80.4344 206.585 84.7682 197.557C88.055 190.71 92.2907 181.427 98.8166 179.039C104.396 176.998 110.699 186.14 113.793 190.691C119.059 198.447 123.354 207.137 127.618 215.712C134.595 229.743 141.015 244.731 150.944 256.145C160.592 267.22 172.054 273.757 183.73 281.108C192.673 286.74 201.561 292.588 209.987 299.304C216.457 304.458 224.475 310.565 227.847 319.14C230.763 326.535 223.277 335.289 219.537 340.506C213.361 349.116 206.507 357.015 199.748 364.946C192.453 373.502 184.374 381.395 177.315 390.161C162.472 408.61 150.613 429.035 132.318 443.168C120.47 452.324 104.526 460.641 90.5201 459.145C80.4476 458.067 81.1103 431.21 80.1428 422.628C78.5524 408.597 75.4803 393.854 70.6005 380.929C66.4099 369.854 56.4514 366.439 47.2908 363.954C41.5522 362.395 35.5379 361.553 29.9874 359.142C23.5623 356.349 21.9401 353.16 21.0681 345.123Z" stroke="#C2BFB7" stroke-opacity="0.7"/>
<path fill-rule="evenodd" clip-rule="evenodd" d="M28.035 336.136C26.7961 319.927 27.0746 300.76 35.0996 286.738C42.1324 274.457 54.654 271.223 63.5598 261.549C70.5103 254.001 73.2401 241.693 76.9781 231.712C81.5463 219.507 87.9478 196.965 99.4719 192.372C110.192 188.102 121.403 215.378 125.284 223.511C131.429 236.384 136.567 250.502 144.019 262.39C150.437 272.624 159.035 278.282 168.16 284.362C179.796 292.128 197.462 301.336 203.683 316.47C208.32 327.747 193.241 344.513 188.092 352.326C182.706 360.488 178.65 370.163 173.092 378.038C164.322 390.463 150.11 400.467 138.376 408.102C126.969 415.528 112.155 423.748 99.2146 423.258C90.7094 422.939 89.0912 407.113 87.2766 399.383C84.6767 388.394 81.22 378.546 73.7946 371.072C66.2365 363.463 57.3281 359.877 47.9634 356.74C43.1564 355.141 37.6729 353.893 33.3726 350.663C28.6213 347.148 28.5125 342.367 28.035 336.136Z" stroke="#C2BFB7" stroke-opacity="0.7"/>
<path fill-rule="evenodd" clip-rule="evenodd" d="M36.5235 326.794C36.5922 312.79 39.2497 297.858 47.1297 287.056C53.6928 278.059 63.9658 275.051 70.2487 265.854C75.2252 258.572 77.7584 248.349 81.0902 239.893C85.1651 229.531 90.927 211.428 101.06 207.832C110.95 204.331 119.697 224.27 123.489 232.159C129.042 243.728 133.537 255.991 139.14 267.528C143.53 276.579 148.898 282.413 156.045 288.246C164.435 295.098 176.142 302.689 180.624 314.025C183.855 322.233 176.033 335.349 173.193 342.58C171.289 347.436 169.547 352.369 168.59 357.633C167.844 361.732 167.77 365.526 165.61 369.046C160.17 377.9 148.245 379.055 140.153 381.974C129.407 385.847 118.004 390.248 106.758 391.089C99.8461 391.614 96.3187 383.941 92.3734 378.543C87.7115 372.162 81.1114 367.572 75.3468 362.757C67.7392 356.392 59.46 352.433 50.8951 348.378C47.0318 346.548 42.4943 344.753 39.5009 341.116C36.3754 337.344 36.4997 331.848 36.5235 326.794Z" stroke="#C2BFB7" stroke-opacity="0.7"/>
<path fill-rule="evenodd" clip-rule="evenodd" d="M45.4383 318.481C46.8041 306.72 51.0605 295.479 58.2497 287.165C63.7607 280.782 71.0796 277.188 75.5027 269.519C79.624 262.369 82.496 254.24 85.9 246.597C89.5026 238.515 94.8548 225.009 103.164 222.81C112.118 220.442 119.016 234.066 122.836 241.618C127.661 251.161 131.328 261.428 135.642 271.299C138.893 278.657 143.039 285.386 147.943 291.263C153.086 297.458 160.061 303.391 162.663 311.909C164.963 319.454 160.659 328.582 159.899 336.232C159.086 344.406 160.511 352.991 156.005 360.009C146.714 374.483 123.397 371.799 110.067 372.109C96.9141 372.428 86.3394 363.571 75.6959 355.145C68.6655 349.583 61.344 344.872 54.1363 339.689C46.7882 334.4 44.2365 328.831 45.4383 318.481Z" stroke="#C2BFB7" stroke-opacity="0.7"/>
<path fill-rule="evenodd" clip-rule="evenodd" d="M53.7203 311.749C57.7594 294.711 70.3746 285.655 79.393 272.779C86.772 262.238 92.3048 240.408 104.732 237.521C118.841 234.243 127.287 263.168 132.193 274.328C137.635 286.706 147.329 296.775 151.36 309.878C153.479 316.755 151.66 323.172 150.531 330.046C149.294 337.594 148.365 345.312 144.095 351.387C135.691 363.343 119.278 363.26 107.457 363.589C95.2209 363.931 84.3962 355.738 74.6467 347.56C64.3067 338.901 49.5832 329.222 53.7203 311.749Z" stroke="#C2BFB7" stroke-opacity="0.7"/>
<path fill-rule="evenodd" clip-rule="evenodd" d="M60.4863 307.129C65.0376 294.99 74.6017 285.121 82.3624 275.804C88.8399 268.038 95.8083 252.402 105.685 251.288C117.292 249.973 124.327 266.669 128.895 276.906C133.39 286.966 139.867 297.587 142.356 308.628C144.952 320.129 138.04 335.618 131.448 343.756C124.095 352.831 112.066 356.184 101.744 355.822C90.9368 355.454 81.0205 347.954 72.8356 340.174C64.0852 331.858 55.1933 321.221 60.4863 307.129Z" stroke="#C2BFB7" stroke-opacity="0.7"/>
<path fill-rule="evenodd" clip-rule="evenodd" d="M66.7627 304.844C71.1101 294.747 78.646 286.206 85.5945 278.587C90.9567 272.706 98.8691 262.704 106.605 262.459C115.116 262.189 122.329 270.584 125.712 279.188C129.048 287.675 132.562 298.316 133.061 307.627C134.145 327.903 112.072 350.615 95.4964 348.767C79.781 347.015 58.0945 324.96 66.7627 304.844Z" stroke="#C2BFB7" stroke-opacity="0.7"/>
<path fill-rule="evenodd" clip-rule="evenodd" d="M72.5689 303.73C78.5664 290.575 93.1345 271.821 106.622 271.375C122.103 270.866 125.989 291.736 123.971 306.861C121.921 322.297 104.073 344.64 89.8408 341.621C75.9507 338.675 65.461 319.332 72.5689 303.73Z" stroke="#C2BFB7" stroke-opacity="0.7"/>
<path fill-rule="evenodd" clip-rule="evenodd" d="M78.6972 301.603C83.7751 290.589 94.611 276.831 105.913 276.414C119.379 275.922 119.125 293.542 116.071 304.509C112.896 315.895 98.9109 335.343 87.1198 332.272C75.6542 329.275 73.831 312.16 78.6972 301.603Z" stroke="#C2BFB7" stroke-opacity="0.7"/>
<path fill-rule="evenodd" clip-rule="evenodd" d="M84.0366 300.335C87.3884 292.476 95.7771 282.543 103.752 282.225C113.499 281.843 111.604 295.818 109.086 302.563C106.093 310.59 96.0584 324.536 87.6378 322.276C79.3473 320.051 81.2713 306.811 84.0366 300.335Z" stroke="#C2BFB7" stroke-opacity="0.7"/>
<path fill-rule="evenodd" clip-rule="evenodd" d="M542.574 749.391C520.999 765.16 496.609 778.176 473.609 791.406C439.998 810.737 405.891 829.548 370.575 843.948C351.64 851.667 327.104 862.795 306.787 856.748C299.359 854.537 292.585 847.852 285.924 843.508C276.74 837.518 267.421 831.825 258.118 826.119C239.456 814.682 220.736 803.36 202.394 791.189C193.562 785.327 184.992 777.943 175.798 772.942C170.425 770.017 163.995 771.386 158.253 771.571C144.954 772.001 131.663 772.818 118.371 773.513C102.114 774.362 85.8191 775.264 69.5432 774.929C62.2023 774.776 44.2235 776.345 40.1823 768.729C38.0081 764.627 43.1324 757.231 45.5079 753.809C49.8695 747.519 54.8826 741.852 59.8295 736.241C71.2698 723.267 83.4199 710.911 93.589 696.418C98.814 688.968 105.66 679.865 102.249 669.694C98.806 659.421 92.8422 650.526 89.2036 640.288C85.0141 628.506 83.2768 616.246 81.2986 603.753C79.8341 594.519 76.4232 586.338 73.2162 577.826C69.6729 568.417 66.0025 558.928 63.5423 549.006C61.9162 542.452 59.2919 530.661 64.9803 526.511C73.0626 520.611 88.2184 525.388 97.4316 527.127C110.164 529.525 122.804 532.581 135.502 535.212C144.721 537.126 153.971 539.224 163.343 539.447C178.451 539.808 193.61 538.561 208.678 537.4C236.58 535.25 264.282 532.335 292.277 532.335C316.805 532.335 373.485 566.516 386.753 572.535C413.235 584.549 440.422 595.939 465.482 611.924C472.261 616.252 482.695 622.019 486.262 630.927C488.463 636.416 487.451 639.589 492.642 643.126C499.723 647.952 508.796 649.846 516.635 652.006C529.259 655.482 541.981 658.426 554.663 661.574C580.314 667.924 605.79 675.107 631.335 682.018C639.057 684.107 648.4 684.57 655.762 688.25C660.508 690.614 660.015 693.589 656.342 697.181C649.899 703.483 640.868 706.982 633.257 710.576C622.106 715.842 610.771 720.54 599.432 725.171C588.092 729.802 576.694 734.29 565.349 738.93C557.854 741.986 549.309 744.47 542.574 749.391Z" stroke="#C2BFB7" stroke-opacity="0.7"/>
<path fill-rule="evenodd" clip-rule="evenodd" d="M524.819 745.923C501.997 761.724 476.664 774.311 452.242 786.592C420.986 802.319 389.023 817.059 356.091 826.89C336.755 832.659 313.941 839.028 294.183 832.413C287.135 830.053 281.869 824.747 275.827 820.065C268.94 814.721 261.789 809.825 254.637 805.005C239.915 795.085 225.038 785.503 210.005 776.259C202.043 771.344 193.278 764.761 184.282 763.055C177.131 761.698 169.007 763.662 161.823 764.234C148.887 765.263 135.952 766.323 123.01 767.224C108.077 768.262 93.1003 769.22 78.1347 769.054C69.7936 768.961 55.4742 770.491 49.5753 763.998C44.4287 758.332 63.1663 737.839 66.4614 733.945C76.752 721.789 87.5749 710.214 97.153 697.215C102.813 689.549 109.706 680.226 112.092 670.066C114.124 661.407 110.204 651.541 107.889 643.537C104.993 633.511 102.657 623.117 99.2932 613.302C96.2974 604.557 91.5296 596.767 87.3418 588.817C82.7356 580.072 78.071 571.183 74.6515 561.643C72.5563 555.772 69.089 545.941 73.2529 540.345C78.0631 533.893 92.8911 538.11 98.9859 539.029C111.351 540.92 123.62 543.731 135.9 546.248C156.295 550.425 175.74 554.079 196.509 553.204C223.556 552.061 250.576 549.371 277.618 547.883C287.604 547.327 297.749 546.209 307.743 546.813C313.472 547.161 317.834 549.269 321.167 554.025C325.717 560.515 336.199 564.109 343.488 567.833C354.854 573.636 366.363 579.034 377.84 584.502C403.036 596.511 428.716 608.087 452.61 623.619C460.17 628.531 468.826 634.009 474.418 642.125C477.538 646.651 476.751 651.01 478.656 655.821C481.178 662.148 489.468 665.003 494.424 667.073C503.989 671.072 513.946 673.752 523.826 676.262C546.182 681.941 568.59 685.675 591.309 688.425C596.633 689.064 617.598 691.277 606.587 701.945C594.421 713.734 576.855 719.512 562.533 726.155C549.63 732.128 536.717 737.686 524.819 745.923Z" stroke="#C2BFB7" stroke-opacity="0.7"/>
<path fill-rule="evenodd" clip-rule="evenodd" d="M493.279 743.001C471.828 756.902 448.064 767.272 424.96 777.193C396.924 789.232 368.185 799.963 338.781 805.974C320.31 809.746 299.945 812.645 281.599 806.376C269.07 802.096 259.378 790.526 248.374 782.567C237.369 774.607 225.919 767.135 214.128 760.907C206.809 757.042 198.936 753.149 190.793 753.659C170.993 754.896 151.217 757.846 131.396 759.278C118.284 760.234 105.145 761.022 91.9929 760.786C84.0618 760.646 73.1662 761.22 66.1446 756.194C58.3833 750.636 99.7092 703.177 103.615 697.836C113.408 684.442 125.266 666.667 123.372 647.619C121.561 629.41 113.712 615.815 104.835 601.548C99.7967 593.432 83.6402 571.75 89.6276 561.194C93.0482 555.161 104.323 557.25 109.679 557.661C120.236 558.471 130.733 560.212 141.234 561.724C156.544 563.915 172.277 567.298 187.654 568.29C198.361 568.979 209.132 568.057 219.858 568.038C235.237 568.012 250.617 568.153 265.996 568.319C278.91 568.459 291.932 568.319 304.801 569.811C312.801 570.73 318.873 572.793 324.611 578.622C329.604 583.693 337.137 586.662 343.501 589.886C354.012 595.208 364.661 600.141 375.276 605.154C397.499 615.653 419.977 625.931 441.249 639.05C450.959 645.036 467.285 653.416 469.563 667.929C470.385 673.163 470.99 675.424 475.232 678.399C481.254 682.621 488.467 684.525 495.223 686.18C510.974 690.039 527.181 689.461 542.905 693.275C549.309 694.848 557.669 698.241 550.359 706.009C541.828 715.094 529.411 720.088 519.191 725.701C514.09 728.501 508.834 731.122 503.989 734.541C500.269 737.175 497.085 740.552 493.279 743.001Z" stroke="#C2BFB7" stroke-opacity="0.7"/>
<path fill-rule="evenodd" clip-rule="evenodd" d="M452.649 738.661C432.83 749.952 411.307 758.161 390.169 765.561C366.692 773.77 342.648 780.569 318.286 783.462C301.464 785.466 283.54 786.057 267.214 779.923C256.888 776.042 249.889 767.881 241.004 761.037C227.594 750.693 213.086 742.497 196.977 744.492C178.916 746.723 160.796 748.397 142.616 749.514C131.651 750.188 120.642 750.693 109.663 750.223C102.722 749.929 93.7787 749.434 87.7399 745.646C79.6599 740.573 110.01 701.971 113.793 696.345C123.176 682.392 130.054 667.751 134.073 650.464C137.351 636.358 130.655 625.269 123.748 614.717C119.454 608.164 105.578 591.682 109.923 583.173C112.306 578.48 120.158 578.723 124.375 578.483C132.413 578.029 140.485 578.502 148.523 578.71C160.391 579.03 173.025 576.834 184.793 578.602C210.873 582.514 236.887 585.903 263.129 588.584C277.594 590.061 292.147 591.404 306.483 594.252C311.63 595.275 316.946 596.359 321.823 598.673C324.96 600.159 326.67 602.691 329.318 604.769C341.941 614.659 358.418 619.748 372.635 626.087C391.535 634.513 410.536 642.808 428.933 652.762C438.61 657.998 452.125 664.014 458.784 674.701C460.796 677.929 459.938 680.512 461.203 683.616C462.659 687.196 467.083 688.264 469.94 689.261C476.424 691.528 503.563 694.954 491.056 708.249C485.089 714.581 477.485 718.644 470.758 723.621C468.322 725.424 465.948 727.237 463.917 729.669C460.52 733.748 457.174 736.075 452.649 738.661Z" stroke="#C2BFB7" stroke-opacity="0.7"/>
<path fill-rule="evenodd" clip-rule="evenodd" d="M409.359 733.773C370.234 752.039 324.381 764.484 281.725 762.073C267.54 761.268 252.277 758.582 239.981 749.392C232.731 743.963 226.937 737.835 218.227 735.874C211.94 734.459 205.17 736.065 198.845 736.647C189.685 737.49 180.519 738.243 171.345 738.853C159.972 739.597 148.562 740.172 137.168 739.866C129.026 739.645 117.783 739.894 110.711 734.625C102.266 728.341 123.76 698.859 126.784 693.606C134.114 680.874 139.253 668.538 141.11 653.193C141.657 648.722 143.498 644.14 143.259 639.634C143.01 635.032 140.656 630.935 138.484 627.317C135.643 622.575 125.784 611.328 128.607 605.544C130.167 602.351 136.022 601.949 139.057 601.272C144.75 599.994 150.525 599.308 156.253 598.292C165.971 596.561 175.619 590.925 185.371 591.085C211.595 591.506 238.198 601.303 263.897 606.684C279.175 609.894 294.557 612.806 309.649 617.152C314.424 618.529 319.343 619.953 323.882 622.287C327.05 623.916 329.084 626.819 332.018 628.642C343.269 635.645 356.208 639.896 368.289 644.609C383.973 650.741 399.71 656.687 415.285 663.214C425.048 667.305 437.601 670.904 446.014 678.491C452.158 684.032 447.958 685.689 444.716 690.85C443.061 693.481 443.443 696.074 442.724 699.054C441.697 703.307 438.795 706.37 436.073 709.123C432.319 712.926 427.319 716.059 424.249 720.721C423.167 722.363 423.217 724.4 422.342 725.831C419.795 729.998 413.038 732.055 409.359 733.773Z" stroke="#C2BFB7" stroke-opacity="0.7"/>
<path fill-rule="evenodd" clip-rule="evenodd" d="M367.759 727.266C336.005 738.75 300.673 745.289 267.107 742.254C255.429 741.197 243.679 738.74 232.8 733.345C227.851 730.898 224.135 728.17 218.712 728.023C206.128 727.684 193.504 728.869 180.922 729.153C171.918 729.358 162.87 729.431 153.887 728.559C147.881 727.978 139.759 727.281 134.839 722.844C127.688 716.382 140.596 694.413 143.223 688.344C147.576 678.278 151.895 667.088 150.169 655.44C149.639 651.879 148.702 648.732 148.58 645.1C148.463 641.979 148.789 639.097 147.87 636.114C146.734 632.415 141.681 626.674 143.419 623.269C144.602 620.943 148.114 620.835 150.45 620.09C154.238 618.883 157.937 617.3 161.508 615.356C165.269 613.299 168.47 610.12 172.366 608.421C178.69 605.667 185.768 605.408 192.415 605.421C218.937 605.472 245.795 611.775 271.644 618.365C285.104 621.796 298.639 625.454 311.721 630.658C315.693 632.239 320.195 633.827 323.688 636.746C325.868 638.564 327.345 640.842 329.821 642.209C350.972 653.882 375.426 658.216 397.88 666.647C403.724 668.841 436.114 679.929 419.179 690.359C408.891 696.697 398.02 699.579 388.632 708.249C385.772 710.884 383.866 713.066 382.748 717.088C382.012 719.765 383.783 718.407 381.31 721.206C378.31 724.569 371.459 725.927 367.759 727.266Z" stroke="#C2BFB7" stroke-opacity="0.7"/>
<path fill-rule="evenodd" clip-rule="evenodd" d="M334.743 720.474C297.566 729.848 258.196 730.294 220.432 721.984C210.912 719.891 201.004 720.391 191.367 719.86C182.004 719.35 165.356 720.411 158.555 711.738C153.624 705.45 158.975 692.089 160.826 685.056C163.184 676.096 165.245 666.84 161.373 658.138C159.105 653.042 155.998 648.191 153.566 643.143C152.403 640.732 150.007 637.037 151.006 634.753C152.658 630.985 160.385 629.399 164.135 627.622C176.119 621.943 188.81 620.493 201.623 620.534C225.288 620.608 249.076 624.507 272.291 629.794C282.971 632.227 293.801 634.823 304.101 639.053C309.93 641.445 314.229 646.06 319.795 648.796C337.717 657.613 356.973 662.324 375.203 670.385C380.479 672.72 400.188 680.491 390.259 689.655C380.646 698.526 366.625 697.471 356.63 705.816C355.499 706.772 354.099 707.915 353.443 709.46C353.056 710.384 353.738 712.142 353.443 712.668C350.374 718.378 339.462 719.286 334.743 720.474Z" stroke="#C2BFB7" stroke-opacity="0.7"/>
<path fill-rule="evenodd" clip-rule="evenodd" d="M310.657 714.279C291.584 717.43 272.091 718.212 252.697 718.41C242.096 718.519 230.449 719.333 220.076 716.098C213.705 714.106 207.551 712.364 200.982 711.109C193.915 709.757 182.536 708.774 178.232 701.45C175.017 695.977 177.221 684.727 177.338 678.072C177.462 670.774 176.22 665.362 171.943 660.139C169.253 656.85 156.916 644.911 158.342 641.468C159.698 638.189 168.295 637.686 172.012 636.834C183.76 634.132 195.664 633.19 207.614 633.337C226.122 633.562 244.698 635.835 262.916 639.742C270.448 641.366 278.232 643.047 285.427 646.291C290.272 648.479 294.313 652.357 299.126 654.618C312.911 661.103 327.486 665.506 341.318 672.109C345.757 674.233 360.221 679.885 356.754 688.596C353.862 695.868 344.029 698.081 339.197 702.955C330.977 711.269 321.138 712.55 310.657 714.279Z" stroke="#C2BFB7" stroke-opacity="0.7"/>
<path fill-rule="evenodd" clip-rule="evenodd" d="M298.64 710.099C283.51 712.185 268.029 713.098 252.677 713.142C242.769 713.171 232.317 713.334 222.595 710.651C217.711 709.305 213.467 706.157 208.845 703.911C204.086 701.601 197.518 699.024 195.46 693.729C193.528 688.752 194.249 681.492 192.552 675.492C191.042 670.168 187.882 666.879 184.479 663.281C182.311 660.981 171.177 651.025 172.464 648.828C173.844 646.473 180.532 646.665 184.011 646.34C193.598 645.427 203.219 645.137 212.832 645.469C225.953 645.954 239.173 647.306 252.066 650.368C261.212 652.537 268.111 657.705 276.638 661.495C287.686 666.417 299.129 670.308 310.071 675.693C315.523 678.376 323.593 681.827 326.385 688.752C327.459 691.406 328.501 698.156 327.305 700.81C325.87 704 320.526 705.353 318.003 706.172C311.684 708.217 305.071 709.212 298.64 710.099Z" stroke="#C2BFB7" stroke-opacity="0.7"/>
<path d="M47.361 781.926C51.6066 785.964 42.4577 787.62 49.6346 790.739C62.0477 805.413 88.0613 799.767 102.423 792.339C111.15 787.826 119.962 792.813 128.721 793.139C136.693 793.437 144.304 796.228 152.118 798.473C156.847 799.832 159.903 806.871 164.107 807.54C174.063 809.125 183.936 817.631 194.272 820.341C201.375 822.204 208.251 821.366 215.156 824.342C221.617 827.127 228.804 825.347 234.976 829.275C243.111 834.454 249.822 846.196 256.052 854.477C267.934 870.268 275.224 874.745 291.245 874.745C297.37 874.745 303.597 875.201 309.711 874.745C319.734 873.998 327.723 865.145 337.749 865.145H354.572C367.043 865.145 376.043 862.449 388.025 859.144C393.482 857.639 395.672 856.55 400.303 853.144C407.68 847.718 413.779 848.343 422.444 848.343C433.706 848.343 441.947 843.252 452.802 841.676C475.79 838.339 495.646 821.901 513.906 802.74C518.418 798.005 520.457 798.266 525.894 797.94C533.517 797.483 541.332 792.866 548.131 788.339C560.989 779.778 573.801 775.966 586.514 766.737C591.15 763.372 597.349 761.438 602.37 759.67C611.318 756.519 618.311 752.343 626.831 748.069C639.907 741.511 650.665 737.864 662.217 727.801C668.012 722.753 676.139 711.021 676.139 701.933V671.93C676.139 653.525 684.775 643.893 691.029 627.794C697.701 610.615 705.151 597.503 714.329 581.924C722.287 568.416 723.956 553.614 723.127 536.854C722.885 531.957 718.609 523.507 716.746 518.986C713.007 509.91 706.456 503.17 703.017 494.184C698.362 482.018 708.391 467.598 712.879 458.315C718.516 446.654 735.309 430.314 735.309 416.178C735.309 401.519 734.382 391.091 730.475 377.375C727.505 366.948 716.705 362.325 712.299 352.04C709.366 345.196 709.205 339.487 709.205 331.772C709.205 323.607 711.671 325.471 714.426 319.771C722.632 302.794 731.5 286.816 738.693 268.834C746.145 250.206 758.626 236.09 766.248 217.897C774.479 198.249 762.155 187.664 756.579 172.027C753.908 164.534 749.472 161.015 747.104 153.892C745.923 150.338 738.583 152.632 736.276 152.026C723.703 148.723 717.798 133.41 709.302 122.423C703.151 114.471 697.617 104.304 697.023 92.8212C696.688 86.3659 691.071 86.0631 689.675 80.287C688.094 73.7448 686.862 67.0895 685.228 60.5522C683.136 52.1877 666.235 32.0727 660.477 29.3499C654.751 26.6426 650.358 20.7281 646.168 14.9488C641.653 8.72238 638.652 11.0447 633.792 7.21493C622.991 -1.29763 610.497 1.08114 598.02 1.08114H569.111C560.634 1.08114 551.017 8.29989 542.137 10.1485C533.123 12.025 523.548 8.5496 514.679 11.7486C505.116 15.198 495.975 22.3866 486.834 27.4831C482.031 30.1614 476.874 30.7111 471.752 31.7501C466.139 32.8884 461.681 38.5827 456.669 39.3506C431.588 43.1941 399.934 30.1902 377.583 49.8847C370.084 56.4924 352.189 51.4848 343.744 51.4848C324.343 51.4848 307.581 49.6672 290.665 64.9525C285.278 69.8202 282.938 70.682 277.516 73.4865C271.121 76.7938 264.209 89.1719 259.34 95.8881C253.836 103.479 247.42 106.948 241.067 112.556C236.29 116.772 233.696 125.402 227.918 125.89C224.008 126.22 219.8 125.089 215.929 125.89C207.406 127.654 200.169 138.879 191.372 142.158C186.323 144.04 182.874 147.663 177.353 148.692C170.201 150.025 162.437 150.708 155.212 149.759C150.17 149.096 146.004 143.91 141 142.958C132.936 141.424 105.857 137.289 99.3296 146.292C90.9379 157.865 78.7934 163.032 71.5816 176.294C65.443 187.582 58.7944 189.032 49.0545 194.695C27.0298 207.501 9.96019 237.083 1.87326 267.501C-3.45933 287.559 -2.08048 305.529 -3.4443 326.972C-4.48942 343.404 -5.10334 373.887 4.77374 387.51C10.2717 395.092 15.34 398.444 19.2762 408.444C24.1355 420.79 30.2786 430.793 36.099 442.18C45.8054 461.171 48.1536 477.606 47.8943 500.851C47.7272 515.832 42.6734 528.6 42.6734 542.854C42.6734 564.468 44.4042 582.298 51.2782 601.259C56.7155 616.257 61.5375 626.473 61.8166 643.795C62.1585 665.014 58.8205 675.42 47.5076 690.465C44.6064 694.323 38.618 696.307 37.4525 701.933C35.8827 709.51 29.9279 716.995 26.4307 723.134C21.0565 732.568 24.8137 760.389 33.1985 764.471C36.724 766.187 37.8794 770.256 40.353 773.805C43.7804 778.721 43.4185 778.176 47.361 781.926Z" fill="#B3A189" fill-opacity="0.1"/>
</svg>
