<svg>
  <symbol width="26" height="26" viewbox="0 0 26 26" fill="none" xmlns="http://www.w3.org/2000/svg" id="user">
    <path d="M18.3334 5.8C18.3334 4.52696 17.7714 3.30606 16.7712 2.40588C15.771 1.50571 14.4146 1 13.0001 1C11.5856 1 10.2291 1.50571 9.22892 2.40588C8.22873 3.30606 7.66675 4.52696 7.66675 5.8V8.2C7.66675 9.47304 8.22873 10.6939 9.22892 11.5941C10.2291 12.4943 11.5856 13 13.0001 13C14.4146 13 15.771 12.4943 16.7712 11.5941C17.7714 10.6939 18.3334 9.47304 18.3334 8.2V5.8Z" stroke="currentColor" stroke-width="2" stroke-miterlimit="10"></path>
    <path d="M1 24.9996C3.02667 20.0556 7.66667 16.5996 13 16.5996C18.3333 16.5996 22.9733 20.0556 25 24.9996" stroke="currentColor" stroke-width="2" stroke-miterlimit="10"></path>
  </symbol>
  <symbol width="18" height="18" viewbox="0 0 18 18" fill="currentColor" xmlns="http://www.w3.org/2000/svg" id="handset">
    <path fill-rule="evenodd" clip-rule="evenodd" d="M16.2291 12.2578L13.6891 11.9678C13.0791 11.8978 12.4791 12.1078 12.0491 12.5378L10.2091 14.3778C7.37906 12.9378 5.05906 10.6278 3.61906 7.78781L5.46906 5.93781C5.89906 5.50781 6.10906 4.90781 6.03906 4.29781L5.74906 1.77781C5.62906 0.767812 4.77906 0.0078125 3.75906 0.0078125H2.02906C0.899064 0.0078125 -0.0409359 0.947812 0.0290641 2.07781C0.559064 10.6178 7.38906 17.4378 15.9191 17.9678C17.0491 18.0378 17.9891 17.0978 17.9891 15.9678V14.2378C17.9991 13.2278 17.2391 12.3778 16.2291 12.2578Z" fill="currentColor"></path>
  </symbol>
  <symbol width="14" height="20" viewbox="0 0 14 20" fill="currentColor" xmlns="http://www.w3.org/2000/svg" id="map">
    <path fill-rule="evenodd" clip-rule="evenodd" d="M0 7C0 3.13 3.13 0 7 0C10.87 0 14 3.13 14 7C14 11.17 9.58 16.92 7.77 19.11C7.37 19.59 6.64 19.59 6.24 19.11C4.42 16.92 0 11.17 0 7ZM4.5 7C4.5 8.38 5.62 9.5 7 9.5C8.38 9.5 9.5 8.38 9.5 7C9.5 5.62 8.38 4.5 7 4.5C5.62 4.5 4.5 5.62 4.5 7Z" fill="currentColor"></path>
  </symbol>
  <symbol width="22" height="20" viewbox="0 0 22 20" fill="currentColor" xmlns="http://www.w3.org/2000/svg" id="heart">
    <path d="M11 19C11 19 1 15.14 1 6.5C1 5.04131 1.57939 3.64241 2.61084 2.61096C3.64229 1.57951 5.04131 1 6.5 1C7.384 0.999705 8.25474 1.21323 9.03833 1.62244C9.82192 2.03164 10.4951 2.62436 11 3.34998C11.5055 2.62497 12.1785 2.03279 12.9619 1.62366C13.7454 1.21452 14.6162 1.00055 15.5 1C16.9587 1 18.3575 1.57951 19.3889 2.61096C20.4204 3.64241 21 5.04131 21 6.5C21 15.14 11 19 11 19Z" stroke="currentColor" stroke-width="2" stroke-linejoin="round"></path>
  </symbol>

  <!-- social media icons -->
  <symbol width="32" height="32" viewbox="0 0 32 32" fill="currentColor" xmlns="http://www.w3.org/2000/svg" id="facebook">
    <g clip-path="url(#clip0_450_1570)">
      <path d="M16 0C7.16352 0 0 7.16352 0 16C0 23.5034 5.16608 29.7997 12.135 31.529V20.8896H8.83584V16H12.135V13.8931C12.135 8.44736 14.5997 5.9232 19.9462 5.9232C20.96 5.9232 22.7091 6.12224 23.4246 6.32064V10.7526C23.047 10.713 22.391 10.6931 21.5763 10.6931C18.953 10.6931 17.9392 11.687 17.9392 14.2707V16H23.1654L22.2675 20.8896H17.9392V31.8829C25.8618 30.9261 32.0006 24.1805 32.0006 16C32 7.16352 24.8365 0 16 0Z" fill="currentColor"></path>
    </g>
    <defs>
      <clippath id="clip0_450_1570">
      <rect width="32.0006" height="31.8829" fill="white"></rect>
      </clippath>
    </defs>
  </symbol>
  <symbol width="32" height="32" viewbox="0 0 32 32" fill="currentColor" xmlns="http://www.w3.org/2000/svg" id="telegram">
    <g clip-path="url(#clip0_450_1573)">
      <path fill-rule="evenodd" clip-rule="evenodd" d="M32.001 16C32.001 24.8366 24.8375 32 16.001 32C7.16442 32 0.000976562 24.8366 0.000976562 16C0.000976562 7.16344 7.16442 0 16.001 0C24.8375 0 32.001 7.16344 32.001 16ZM16.5743 11.8119C15.0181 12.4592 11.9078 13.7989 7.2435 15.8311C6.48609 16.1323 6.08932 16.427 6.0532 16.7151C5.99216 17.202 6.60192 17.3937 7.43227 17.6548C7.54522 17.6903 7.66225 17.7271 7.78223 17.7661C8.59916 18.0317 9.69808 18.3424 10.2694 18.3547C10.7876 18.3659 11.3659 18.1523 12.0045 17.7138C16.3625 14.772 18.6122 13.2851 18.7534 13.253C18.853 13.2304 18.9911 13.202 19.0847 13.2851C19.1782 13.3683 19.169 13.5258 19.1591 13.568C19.0987 13.8255 16.7051 16.0508 15.4665 17.2024C15.0803 17.5614 14.8064 17.816 14.7504 17.8742C14.625 18.0045 14.4971 18.1277 14.3743 18.2461C13.6153 18.9778 13.0462 19.5264 14.4058 20.4224C15.0592 20.8529 15.582 21.209 16.1036 21.5642C16.6732 21.9521 17.2414 22.339 17.9765 22.8209C18.1637 22.9437 18.3426 23.0712 18.5168 23.1954C19.1797 23.668 19.7753 24.0926 20.5111 24.0248C20.9386 23.9855 21.3803 23.5835 21.6045 22.3845C22.1346 19.5509 23.1765 13.4113 23.4173 10.8813C23.4384 10.6596 23.4118 10.376 23.3905 10.2514C23.3692 10.1269 23.3247 9.94948 23.1628 9.81813C22.9711 9.66258 22.6752 9.62978 22.5428 9.63211C21.941 9.64271 21.0177 9.96376 16.5743 11.8119Z" fill="currentColor"></path>
    </g>
    <defs>
      <clippath id="clip0_450_1573">
      <rect width="32" height="32" fill="white" transform="translate(0.000976562)"></rect>
      </clippath>
    </defs>
  </symbol>
  <symbol width="32" height="32" viewbox="0 0 32 32" fill="currentColor" xmlns="http://www.w3.org/2000/svg" id="instagram">
    <path d="M16.001 18.8C14.501 18.8 13.201 17.6 13.201 16C13.201 14.5 14.401 13.2 16.001 13.2C17.501 13.2 18.801 14.4 18.801 16C18.801 17.5 17.501 18.8 16.001 18.8Z" fill="currentColor"></path>
    <path fill-rule="evenodd" clip-rule="evenodd" d="M19.401 9.2H12.601C11.801 9.3 11.401 9.4 11.101 9.5C10.701 9.6 10.401 9.8 10.101 10.1C9.86359 10.3374 9.75143 10.5748 9.61586 10.8617C9.58013 10.9373 9.54268 11.0166 9.50098 11.1C9.48551 11.1464 9.46764 11.1952 9.4485 11.2475C9.34388 11.5333 9.20098 11.9238 9.20098 12.6V19.4C9.30098 20.2 9.40098 20.6 9.50098 20.9C9.60098 21.3 9.80098 21.6 10.101 21.9C10.3384 22.1374 10.5758 22.2495 10.8627 22.3851C10.9384 22.4209 11.0175 22.4583 11.101 22.5C11.1474 22.5155 11.1962 22.5333 11.2485 22.5525C11.5343 22.6571 11.9247 22.8 12.601 22.8H19.401C20.201 22.7 20.601 22.6 20.901 22.5C21.301 22.4 21.601 22.2 21.901 21.9C22.1384 21.6626 22.2505 21.4252 22.3861 21.1383C22.4218 21.0626 22.4592 20.9835 22.501 20.9C22.5164 20.8536 22.5343 20.8048 22.5535 20.7525C22.6581 20.4667 22.801 20.0762 22.801 19.4V12.6C22.701 11.8 22.601 11.4 22.501 11.1C22.401 10.7 22.201 10.4 21.901 10.1C21.6636 9.86261 21.4262 9.75045 21.1393 9.61488C21.0637 9.57918 20.9843 9.54167 20.901 9.5C20.8546 9.48453 20.8058 9.46666 20.7535 9.44752C20.4676 9.3429 20.0772 9.2 19.401 9.2ZM16.001 11.7C13.601 11.7 11.701 13.6 11.701 16C11.701 18.4 13.601 20.3 16.001 20.3C18.401 20.3 20.301 18.4 20.301 16C20.301 13.6 18.401 11.7 16.001 11.7ZM21.401 11.6C21.401 12.1523 20.9533 12.6 20.401 12.6C19.8487 12.6 19.401 12.1523 19.401 11.6C19.401 11.0477 19.8487 10.6 20.401 10.6C20.9533 10.6 21.401 11.0477 21.401 11.6Z" fill="currentColor"></path>
    <path fill-rule="evenodd" clip-rule="evenodd" d="M0.000976562 16C0.000976562 7.16344 7.16442 0 16.001 0C24.8375 0 32.001 7.16344 32.001 16C32.001 24.8366 24.8375 32 16.001 32C7.16442 32 0.000976562 24.8366 0.000976562 16ZM12.601 7.7H19.401C20.301 7.8 20.901 7.9 21.401 8.1C22.001 8.4 22.401 8.6 22.901 9.1C23.401 9.6 23.701 10.1 23.901 10.6C24.101 11.1 24.301 11.7 24.301 12.6V19.4C24.201 20.3 24.101 20.9 23.901 21.4C23.601 22 23.401 22.4 22.901 22.9C22.401 23.4 21.901 23.7 21.401 23.9C20.901 24.1 20.301 24.3 19.401 24.3H12.601C11.701 24.2 11.101 24.1 10.601 23.9C10.001 23.6 9.60098 23.4 9.10098 22.9C8.60098 22.4 8.30098 21.9 8.10098 21.4C7.90098 20.9 7.70098 20.3 7.70098 19.4V12.6C7.80098 11.7 7.90098 11.1 8.10098 10.6C8.40098 10 8.60098 9.6 9.10098 9.1C9.60098 8.6 10.101 8.3 10.601 8.1C11.101 7.9 11.701 7.7 12.601 7.7Z" fill="currentColor"></path>
  </symbol>
</svg>