<svg>

  <symbol fill="none" xmlns="http://www.w3.org/2000/svg" viewBox="0 0 27 26" id="user">
    <path d="M18.8327 5.8C18.8327 4.52696 18.2707 3.30606 17.2705 2.40588C16.2703 1.50571 14.9138 1 13.4993 1C12.0849 1 10.7284 1.50571 9.72819 2.40588C8.728 3.30606 8.16602 4.52696 8.16602 5.8V8.2C8.16602 9.47304 8.728 10.6939 9.72819 11.5941C10.7284 12.4943 12.0849 13 13.4993 13C14.9138 13 16.2703 12.4943 17.2705 11.5941C18.2707 10.6939 18.8327 9.47304 18.8327 8.2V5.8Z" stroke="currentColor" stroke-width="2" stroke-miterlimit="10"></path>
    <path d="M1.5 25.0006C3.52667 20.0566 8.16667 16.6006 13.5 16.6006C18.8333 16.6006 23.4733 20.0566 25.5 25.0006" stroke="currentColor" stroke-width="2" stroke-miterlimit="10"></path>
  </symbol>

  <symbol width="18" height="18" viewbox="0 0 18 18" fill="currentColor" xmlns="http://www.w3.org/2000/svg" id="handset">
    <path fill-rule="evenodd" clip-rule="evenodd" d="M16.2291 12.2578L13.6891 11.9678C13.0791 11.8978 12.4791 12.1078 12.0491 12.5378L10.2091 14.3778C7.37906 12.9378 5.05906 10.6278 3.61906 7.78781L5.46906 5.93781C5.89906 5.50781 6.10906 4.90781 6.03906 4.29781L5.74906 1.77781C5.62906 0.767812 4.77906 0.0078125 3.75906 0.0078125H2.02906C0.899064 0.0078125 -0.0409359 0.947812 0.0290641 2.07781C0.559064 10.6178 7.38906 17.4378 15.9191 17.9678C17.0491 18.0378 17.9891 17.0978 17.9891 15.9678V14.2378C17.9991 13.2278 17.2391 12.3778 16.2291 12.2578Z" fill="currentColor"></path>
  </symbol>
  <symbol width="14" height="20" viewbox="0 0 14 20" fill="currentColor" xmlns="http://www.w3.org/2000/svg" id="map">
    <path fill-rule="evenodd" clip-rule="evenodd" d="M0 7C0 3.13 3.13 0 7 0C10.87 0 14 3.13 14 7C14 11.17 9.58 16.92 7.77 19.11C7.37 19.59 6.64 19.59 6.24 19.11C4.42 16.92 0 11.17 0 7ZM4.5 7C4.5 8.38 5.62 9.5 7 9.5C8.38 9.5 9.5 8.38 9.5 7C9.5 5.62 8.38 4.5 7 4.5C5.62 4.5 4.5 5.62 4.5 7Z" fill="currentColor"></path>
  </symbol>
  <symbol width="22" height="20" viewbox="0 0 22 20" fill="currentColor" xmlns="http://www.w3.org/2000/svg" id="heart">
    <path d="M11 19C11 19 1 15.14 1 6.5C1 5.04131 1.57939 3.64241 2.61084 2.61096C3.64229 1.57951 5.04131 1 6.5 1C7.384 0.999705 8.25474 1.21323 9.03833 1.62244C9.82192 2.03164 10.4951 2.62436 11 3.34998C11.5055 2.62497 12.1785 2.03279 12.9619 1.62366C13.7454 1.21452 14.6162 1.00055 15.5 1C16.9587 1 18.3575 1.57951 19.3889 2.61096C20.4204 3.64241 21 5.04131 21 6.5C21 15.14 11 19 11 19Z" stroke="currentColor" stroke-width="2" stroke-linejoin="round"></path>
  </symbol>

  <!-- social media icons -->
  <symbol fill="none" xmlns="http://www.w3.org/2000/svg" viewBox="0 0 33 32" id="facebook">
    <path d="M16.5 0.0839844C7.66352 0.0839844 0.5 7.2475 0.5 16.084C0.5 23.5873 5.66608 29.8837 12.635 31.6129V20.9736H9.33584V16.084H12.635V13.9771C12.635 8.53135 15.0997 6.00718 20.4462 6.00718C21.46 6.00718 23.2091 6.20622 23.9246 6.40462V10.8366C23.547 10.7969 22.891 10.7771 22.0763 10.7771C19.453 10.7771 18.4392 11.771 18.4392 14.3547V16.084H23.6654L22.7675 20.9736H18.4392V31.9669C26.3618 31.0101 32.5006 24.2645 32.5006 16.084C32.5 7.2475 25.3365 0.0839844 16.5 0.0839844Z" fill="currentColor"></path>
  </symbol>

  <symbol fill="none" xmlns="http://www.w3.org/2000/svg" viewBox="0 0 33 33" id="telegram">
    <path fill-rule="evenodd" clip-rule="evenodd" d="M32.5 16.0254C32.5 24.8619 25.3366 32.0254 16.5 32.0254C7.66344 32.0254 0.5 24.8619 0.5 16.0254C0.5 7.18884 7.66344 0.0253906 16.5 0.0253906C25.3366 0.0253906 32.5 7.18884 32.5 16.0254ZM17.0734 11.8373C15.5171 12.4846 12.4068 13.8243 7.74252 15.8565C6.98511 16.1577 6.58834 16.4523 6.55222 16.7405C6.49118 17.2274 7.10095 17.4191 7.93129 17.6802C8.04424 17.7157 8.16127 17.7525 8.28125 17.7915C9.09818 18.0571 10.1971 18.3678 10.7684 18.3801C11.2866 18.3913 11.865 18.1777 12.5035 17.7392C16.8615 14.7974 19.1112 13.3105 19.2524 13.2784C19.3521 13.2558 19.4901 13.2274 19.5837 13.3105C19.6772 13.3937 19.668 13.5511 19.6581 13.5934C19.5977 13.8509 17.2042 16.0762 15.9655 17.2278C15.5793 17.5868 15.3054 17.8414 15.2494 17.8996C15.124 18.0299 14.9962 18.1531 14.8733 18.2715C14.1144 19.0032 13.5452 19.5518 14.9048 20.4478C15.5582 20.8783 16.081 21.2344 16.6026 21.5896C17.1722 21.9775 17.7404 22.3644 18.4755 22.8463C18.6628 22.969 18.8416 23.0966 19.0159 23.2208C19.6788 23.6934 20.2743 24.1179 21.0101 24.0502C21.4377 24.0109 21.8793 23.6089 22.1036 22.4099C22.6336 19.5762 23.6755 13.4367 23.9163 10.9067C23.9374 10.685 23.9108 10.4014 23.8895 10.2768C23.8682 10.1523 23.8237 9.97487 23.6618 9.84352C23.4701 9.68797 23.1742 9.65517 23.0418 9.6575C22.44 9.6681 21.5167 9.98915 17.0734 11.8373Z" fill="currentColor"></path>
  </symbol>
  <symbol fill="none" xmlns="http://www.w3.org/2000/svg" viewBox="0 0 33 33" id="instagram">
    <path d="M16.5 18.8254C15 18.8254 13.7 17.6254 13.7 16.0254C13.7 14.5254 14.9 13.2254 16.5 13.2254C18 13.2254 19.3 14.4254 19.3 16.0254C19.3 17.5254 18 18.8254 16.5 18.8254Z" fill="currentColor"></path>
    <path fill-rule="evenodd" clip-rule="evenodd" d="M19.9 9.22539H13.1C12.3 9.32539 11.9 9.42539 11.6 9.52539C11.2 9.62539 10.9 9.82539 10.6 10.1254C10.3626 10.3628 10.2505 10.6002 10.1149 10.8871C10.0792 10.9627 10.0417 11.042 10 11.1254C9.98453 11.1718 9.96667 11.2206 9.94752 11.2729C9.84291 11.5587 9.7 11.9491 9.7 12.6254V19.4254C9.8 20.2254 9.9 20.6254 10 20.9254C10.1 21.3254 10.3 21.6254 10.6 21.9254C10.8374 22.1628 11.0748 22.2749 11.3617 22.4105C11.4374 22.4463 11.5165 22.4836 11.6 22.5254C11.6464 22.5409 11.6952 22.5587 11.7475 22.5779C12.0333 22.6825 12.4238 22.8254 13.1 22.8254H19.9C20.7 22.7254 21.1 22.6254 21.4 22.5254C21.8 22.4254 22.1 22.2254 22.4 21.9254C22.6374 21.688 22.7495 21.4506 22.8851 21.1637C22.9209 21.088 22.9583 21.0089 23 20.9254C23.0155 20.879 23.0333 20.8302 23.0525 20.7779C23.1571 20.4921 23.3 20.1016 23.3 19.4254V12.6254C23.2 11.8254 23.1 11.4254 23 11.1254C22.9 10.7254 22.7 10.4254 22.4 10.1254C22.1626 9.888 21.9252 9.77584 21.6383 9.64027C21.5627 9.60457 21.4833 9.56706 21.4 9.52539C21.3536 9.50992 21.3048 9.49205 21.2525 9.47291C20.9667 9.36829 20.5762 9.22539 19.9 9.22539ZM16.5 11.7254C14.1 11.7254 12.2 13.6254 12.2 16.0254C12.2 18.4254 14.1 20.3254 16.5 20.3254C18.9 20.3254 20.8 18.4254 20.8 16.0254C20.8 13.6254 18.9 11.7254 16.5 11.7254ZM21.9 11.6254C21.9 12.1777 21.4523 12.6254 20.9 12.6254C20.3477 12.6254 19.9 12.1777 19.9 11.6254C19.9 11.0731 20.3477 10.6254 20.9 10.6254C21.4523 10.6254 21.9 11.0731 21.9 11.6254Z" fill="currentColor"></path>
    <path fill-rule="evenodd" clip-rule="evenodd" d="M0.5 16.0254C0.5 7.18884 7.66344 0.0253906 16.5 0.0253906C25.3366 0.0253906 32.5 7.18884 32.5 16.0254C32.5 24.8619 25.3366 32.0254 16.5 32.0254C7.66344 32.0254 0.5 24.8619 0.5 16.0254ZM13.1 7.72539H19.9C20.8 7.82539 21.4 7.92539 21.9 8.12539C22.5 8.42539 22.9 8.62539 23.4 9.12539C23.9 9.62539 24.2 10.1254 24.4 10.6254C24.6 11.1254 24.8 11.7254 24.8 12.6254V19.4254C24.7 20.3254 24.6 20.9254 24.4 21.4254C24.1 22.0254 23.9 22.4254 23.4 22.9254C22.9 23.4254 22.4 23.7254 21.9 23.9254C21.4 24.1254 20.8 24.3254 19.9 24.3254H13.1C12.2 24.2254 11.6 24.1254 11.1 23.9254C10.5 23.6254 10.1 23.4254 9.6 22.9254C9.1 22.4254 8.8 21.9254 8.6 21.4254C8.4 20.9254 8.2 20.3254 8.2 19.4254V12.6254C8.3 11.7254 8.4 11.1254 8.6 10.6254C8.9 10.0254 9.1 9.62539 9.6 9.12539C10.1 8.62539 10.6 8.32539 11.1 8.12539C11.6 7.92539 12.2 7.72539 13.1 7.72539Z" fill="currentColor"></path>
  </symbol> 

  <!-- booking component icons -->
  
  <symbol width="24" height="24" viewBox="0 0 24 24" fill="none" xmlns="http://www.w3.org/2000/svg" id="icon-down">
    <path d="M4.04724 9.35815L11.4363 15.8426C11.6685 16.0401 12.0363 16.0517 12.2845 15.8775L12.3295 15.8426L19.9509 9.35844C19.9824 9.3317 20 9.29551 20 9.25778V8.14266C20 8.06387 19.9246 8 19.8316 8C19.7868 8 19.7438 8.01512 19.7122 8.042L11.9081 14.6812L4.28913 8.04888C4.22426 7.99241 4.11763 7.99117 4.05097 8.04612C4.01838 8.07298 4 8.10985 4 8.14836V9.25907C4 9.29603 4.01694 9.33155 4.04724 9.35815Z" fill="currentColor"/>
  </symbol>


  <symbol viewBox="0 0 32 32" fill="none" id="icon-prev">
    <path d="M21.531 3.181c-0.175 0.081-2.144 2.012-6.325 6.2-5.444 5.456-6.081 6.112-6.144 6.35-0.156 0.613-0.537 0.194 6.144 6.887 4.581 4.587 6.144 6.113 6.35 6.206 0.556 0.256 1.212-0.063 1.375-0.675 0.15-0.563 0.45-0.231-5.762-6.45l-5.7-5.7 5.7-5.706c4.912-4.919 5.706-5.731 5.762-5.95 0.169-0.625-0.363-1.288-1.025-1.281-0.069 0-0.238 0.056-0.375 0.119z"/>
  </symbol>

  <symbol  viewBox="0 0 32 32" id="icon-next">
    <path d="M9.656 3.15c-0.45 0.2-0.725 0.756-0.6 1.206 0.056 0.194 1.069 1.237 5.769 5.937l5.706 5.706-5.694 5.7c-4.475 4.475-5.713 5.756-5.769 5.931-0.162 0.519 0.238 1.181 0.775 1.281 0.569 0.106 0.25 0.387 6.888-6.244 5.506-5.506 6.144-6.163 6.206-6.406 0.156-0.606 0.538-0.188-6.144-6.881-4.181-4.188-6.15-6.119-6.325-6.2-0.294-0.138-0.55-0.144-0.813-0.031z"/>
  </symbol>

  <symbol id="icon-min" viewBox="0 0 32 32">
    <path d="M29.956 13.099v9.216h-8.789v9.643h-10.325v-9.643h-8.789v-9.216h8.789v-9.643h10.325v9.643h8.789z"/>
  </symbol>

  <symbol id="icon-plus" viewBox="0 0 64 32" fill="black">
    <path d="M6.232 27.477v-20.651h51.712v20.651h-51.712z" fill="black"/>
  </symbol>
<!-- </svg> -->

 


  <symbol fill="none" xmlns="http://www.w3.org/2000/svg" viewBox="0 0 25 24" id="burger">
    <path d="M0.5 0V3.42857H24.5V0H0.5ZM0.5 10.2857V13.7143H24.5V10.2857H0.5ZM0.5 20.5714V24H24.5V20.5714H0.5Z" fill="currentColor"></path>
  </symbol>

  <!-- ask block icons -->
  <symbol xmlns="http://www.w3.org/2000/svg" width="18" height="26" viewBox="0 0 18 26" fill="none" id="arrow">
    <path d="M9 1L1 7.66667M9 1L17 7.66667M9 1V25" stroke="#3D493F" stroke-width="2" stroke-linecap="round" stroke-linejoin="round"/>
  </symbol>

  <!-- memories block icon -->
  <symbol viewBox="0 0 907 530" fill="none" xmlns="http://www.w3.org/2000/svg" id="cloud">
    <g filter="url(#filter0_f_3238_23694)">
      <path d="M787.858 412.371C792.347 422.501 788.268 431.479 778.168 440.96C775.224 445.919 772.716 452.157 762.965 456.098C749.313 461.617 740.934 460.102 722.367 458.631C704.519 457.216 688.761 457.04 670.576 455.648C653.129 454.312 641.424 450.871 625.467 448.276C604.826 444.919 587.529 430.266 585.872 423.288C584.032 415.541 605.001 410.217 603.748 403.254C602.868 398.361 595.767 390.842 584.368 387.609C573.656 384.57 543.269 385.823 530.238 385.189C497.58 383.598 473.608 383.662 450.212 375.453C434.818 370.051 430.267 362.675 413.624 357.669C402.227 354.241 379.012 354.961 364.84 353.786C340.668 351.781 315.42 348.799 296.508 343.149C279.033 337.929 262.345 327.584 257.915 319.625C253.549 311.781 224.029 311.636 213.475 305.781C196.788 296.523 184.167 288.367 161.517 280.738C134.409 271.606 131.985 263.17 131.611 251.079C131.376 243.456 125.771 235.49 138.795 228.793C143.169 226.545 144.12 224.487 143.473 221.871C139.315 205.062 95.7155 192.795 77.1469 178.2C60.5165 165.129 74.5657 155.078 102.207 145.953C113.398 142.259 127.307 139.225 137.125 135.091C141.522 133.24 143.158 131.145 148.318 129.407C159.202 125.741 170.543 125.832 185.073 124.905C207.622 123.466 226.906 119.229 246.221 115.225C282.357 107.735 309.155 94.0391 348.801 89.3939C365.429 87.4457 379.427 85.6437 394.244 82.4718C421.301 76.6795 448.337 74.3744 479.449 72.2293C546.55 67.603 624.895 70.1969 687.116 79.8268C710.669 83.4721 735.891 88.7075 748.764 96.5412C752.734 98.9566 756.353 101.537 760.793 103.857C786.242 117.159 816.136 127.538 831.965 143.026C840.292 151.175 834.367 161.154 829.499 169.352L829.458 169.421C826.943 173.658 822.799 179.835 827.955 184.053C840.812 194.571 839.83 204.448 834.638 215.962C831.706 222.464 827.92 228.829 829.626 235.434C831.591 243.048 847.857 249.121 852.514 256.651C857.788 265.178 857.608 274.593 856.022 283.27C854.841 289.735 846.445 295.254 841.32 301.391C831.208 313.503 808.003 328.745 817.931 341.686C826.663 353.069 831.991 364.339 809.744 374.158C784.253 385.41 781.948 399.031 787.858 412.371Z" fill="#B3A189" fill-opacity="0.2"/>
    </g>
    <defs>
      <filter id="filter0_f_3238_23694" x="0" y="0" width="927" height="530" filterUnits="userSpaceOnUse" color-interpolation-filters="sRGB">
        <feFlood flood-opacity="0" result="BackgroundImageFix"/>
        <feBlend mode="normal" in="SourceGraphic" in2="BackgroundImageFix" result="shape"/>
        <feGaussianBlur stdDeviation="35" result="effect1_foregroundBlur_3238_23694"/>
      </filter>
    </defs>
  </symbol>

  <symbol viewBox="0 0 857 1613" fill="none" xmlns="http://www.w3.org/2000/svg" id='curve-big'>
    <path d="M643.108 3C643.108 4.47276 644.302 5.66667 645.775 5.66667C647.248 5.66667 648.441 4.47276 648.441 3C648.441 1.52724 647.248 0.333333 645.775 0.333333C644.302 0.333333 643.108 1.52724 643.108 3ZM309.96 561.865L309.88 561.371L309.96 561.865ZM126.219 1263.61L126.664 1263.38L126.652 1263.36L126.639 1263.34L126.219 1263.61ZM705.604 1610C705.604 1611.47 706.798 1612.67 708.271 1612.67C709.744 1612.67 710.938 1611.47 710.938 1610C710.938 1608.53 709.744 1607.33 708.271 1607.33C706.798 1607.33 705.604 1608.53 705.604 1610ZM645.662 3.48713C695.731 15.0708 764.968 45.7669 809.985 100.171C832.487 127.366 848.935 160.481 853.923 200.102C858.912 239.724 852.443 285.884 829.057 339.172L829.973 339.574C853.417 286.151 859.93 239.809 854.916 199.977C849.901 160.144 833.362 126.855 810.755 99.5336C765.554 44.9064 696.09 14.1274 645.887 2.51287L645.662 3.48713ZM829.057 339.172C782.309 445.696 696.675 494.13 600.629 519.493C552.599 532.176 501.977 539.086 452.324 544.605C402.684 550.123 353.991 554.251 309.88 561.371L310.04 562.358C354.118 555.243 402.757 551.121 452.434 545.599C502.098 540.079 552.78 533.163 600.884 520.46C697.105 495.051 783.059 446.474 829.973 339.574L829.057 339.172ZM309.88 561.371C216.61 576.427 97.0199 638.158 37.5354 753.12C-21.9686 868.12 -21.2536 1036.23 125.799 1263.88L126.639 1263.34C-20.2926 1035.88 -20.8616 868.157 38.4236 753.58C97.7283 638.965 217.001 577.376 310.04 562.358L309.88 561.371ZM125.774 1263.84C179.169 1368 350.963 1575.15 708.222 1610.5L708.32 1609.5C351.451 1574.2 179.929 1367.29 126.664 1263.38L125.774 1263.84Z" fill="currentColor"/>
  </symbol>




  <!-- <symbol xmlns="http://www.w3.org/2000/svg" viewBox="0 0 36 32" fill="currentColor" id="ask">
    <path
      d="M18.0026 1C8.8026 1 1.33594 7.66667 1.33594 16C1.34084 18.4848 2.02049 20.9215 3.30249 23.05L1.33594 31L8.53564 28.3334C11.3781 30.0937 14.6592 31.0178 18.0026 31C27.2026 31 34.6693 24.3333 34.6693 16C34.6693 7.66667 27.2026 1 18.0026 1Z"
      stroke="#3F5540"
      strokeWidth="2"
      strokeLinejoin="round"
      fill="currentColor"
    />
    <circle cx="9.5" cy="15.5" r="2.5" fill="#FEFEFE" />
    <circle cx="17.5762" cy="15.5" r="2.5" fill="#FEFEFE" />
    <circle cx="25.6543" cy="15.5" r="2.5" fill="#FEFEFE" />
  </symbol> -->
</svg>

