<svg>

  <symbol fill="none" xmlns="http://www.w3.org/2000/svg" viewBox="0 0 27 26" id="user">
    <path d="M18.8327 5.8C18.8327 4.52696 18.2707 3.30606 17.2705 2.40588C16.2703 1.50571 14.9138 1 13.4993 1C12.0849 1 10.7284 1.50571 9.72819 2.40588C8.728 3.30606 8.16602 4.52696 8.16602 5.8V8.2C8.16602 9.47304 8.728 10.6939 9.72819 11.5941C10.7284 12.4943 12.0849 13 13.4993 13C14.9138 13 16.2703 12.4943 17.2705 11.5941C18.2707 10.6939 18.8327 9.47304 18.8327 8.2V5.8Z" stroke="currentColor" stroke-width="2" stroke-miterlimit="10"></path>
    <path d="M1.5 25.0006C3.52667 20.0566 8.16667 16.6006 13.5 16.6006C18.8333 16.6006 23.4733 20.0566 25.5 25.0006" stroke="currentColor" stroke-width="2" stroke-miterlimit="10"></path>
  </symbol>

  <symbol width="18" height="18" viewbox="0 0 18 18" fill="currentColor" xmlns="http://www.w3.org/2000/svg" id="handset">
    <path fill-rule="evenodd" clip-rule="evenodd" d="M16.2291 12.2578L13.6891 11.9678C13.0791 11.8978 12.4791 12.1078 12.0491 12.5378L10.2091 14.3778C7.37906 12.9378 5.05906 10.6278 3.61906 7.78781L5.46906 5.93781C5.89906 5.50781 6.10906 4.90781 6.03906 4.29781L5.74906 1.77781C5.62906 0.767812 4.77906 0.0078125 3.75906 0.0078125H2.02906C0.899064 0.0078125 -0.0409359 0.947812 0.0290641 2.07781C0.559064 10.6178 7.38906 17.4378 15.9191 17.9678C17.0491 18.0378 17.9891 17.0978 17.9891 15.9678V14.2378C17.9991 13.2278 17.2391 12.3778 16.2291 12.2578Z" fill="currentColor"></path>
  </symbol>
  <symbol width="14" height="20" viewbox="0 0 14 20" fill="currentColor" xmlns="http://www.w3.org/2000/svg" id="map">
    <path fill-rule="evenodd" clip-rule="evenodd" d="M0 7C0 3.13 3.13 0 7 0C10.87 0 14 3.13 14 7C14 11.17 9.58 16.92 7.77 19.11C7.37 19.59 6.64 19.59 6.24 19.11C4.42 16.92 0 11.17 0 7ZM4.5 7C4.5 8.38 5.62 9.5 7 9.5C8.38 9.5 9.5 8.38 9.5 7C9.5 5.62 8.38 4.5 7 4.5C5.62 4.5 4.5 5.62 4.5 7Z" fill="currentColor"></path>
  </symbol>
  <symbol width="22" height="20" viewbox="0 0 22 20" fill="currentColor" xmlns="http://www.w3.org/2000/svg" id="heart">
    <path d="M11 19C11 19 1 15.14 1 6.5C1 5.04131 1.57939 3.64241 2.61084 2.61096C3.64229 1.57951 5.04131 1 6.5 1C7.384 0.999705 8.25474 1.21323 9.03833 1.62244C9.82192 2.03164 10.4951 2.62436 11 3.34998C11.5055 2.62497 12.1785 2.03279 12.9619 1.62366C13.7454 1.21452 14.6162 1.00055 15.5 1C16.9587 1 18.3575 1.57951 19.3889 2.61096C20.4204 3.64241 21 5.04131 21 6.5C21 15.14 11 19 11 19Z" stroke="currentColor" stroke-width="2" stroke-linejoin="round"></path>
  </symbol>

  <!-- social media icons -->
  <symbol fill="none" xmlns="http://www.w3.org/2000/svg" viewBox="0 0 33 32" id="facebook">
    <path d="M16.5 0.0839844C7.66352 0.0839844 0.5 7.2475 0.5 16.084C0.5 23.5873 5.66608 29.8837 12.635 31.6129V20.9736H9.33584V16.084H12.635V13.9771C12.635 8.53135 15.0997 6.00718 20.4462 6.00718C21.46 6.00718 23.2091 6.20622 23.9246 6.40462V10.8366C23.547 10.7969 22.891 10.7771 22.0763 10.7771C19.453 10.7771 18.4392 11.771 18.4392 14.3547V16.084H23.6654L22.7675 20.9736H18.4392V31.9669C26.3618 31.0101 32.5006 24.2645 32.5006 16.084C32.5 7.2475 25.3365 0.0839844 16.5 0.0839844Z" fill="currentColor"></path>
  </symbol>

  <symbol fill="none" xmlns="http://www.w3.org/2000/svg" viewBox="0 0 33 33" id="telegram">
    <path fill-rule="evenodd" clip-rule="evenodd" d="M32.5 16.0254C32.5 24.8619 25.3366 32.0254 16.5 32.0254C7.66344 32.0254 0.5 24.8619 0.5 16.0254C0.5 7.18884 7.66344 0.0253906 16.5 0.0253906C25.3366 0.0253906 32.5 7.18884 32.5 16.0254ZM17.0734 11.8373C15.5171 12.4846 12.4068 13.8243 7.74252 15.8565C6.98511 16.1577 6.58834 16.4523 6.55222 16.7405C6.49118 17.2274 7.10095 17.4191 7.93129 17.6802C8.04424 17.7157 8.16127 17.7525 8.28125 17.7915C9.09818 18.0571 10.1971 18.3678 10.7684 18.3801C11.2866 18.3913 11.865 18.1777 12.5035 17.7392C16.8615 14.7974 19.1112 13.3105 19.2524 13.2784C19.3521 13.2558 19.4901 13.2274 19.5837 13.3105C19.6772 13.3937 19.668 13.5511 19.6581 13.5934C19.5977 13.8509 17.2042 16.0762 15.9655 17.2278C15.5793 17.5868 15.3054 17.8414 15.2494 17.8996C15.124 18.0299 14.9962 18.1531 14.8733 18.2715C14.1144 19.0032 13.5452 19.5518 14.9048 20.4478C15.5582 20.8783 16.081 21.2344 16.6026 21.5896C17.1722 21.9775 17.7404 22.3644 18.4755 22.8463C18.6628 22.969 18.8416 23.0966 19.0159 23.2208C19.6788 23.6934 20.2743 24.1179 21.0101 24.0502C21.4377 24.0109 21.8793 23.6089 22.1036 22.4099C22.6336 19.5762 23.6755 13.4367 23.9163 10.9067C23.9374 10.685 23.9108 10.4014 23.8895 10.2768C23.8682 10.1523 23.8237 9.97487 23.6618 9.84352C23.4701 9.68797 23.1742 9.65517 23.0418 9.6575C22.44 9.6681 21.5167 9.98915 17.0734 11.8373Z" fill="currentColor"></path>
  </symbol>
  <symbol fill="none" xmlns="http://www.w3.org/2000/svg" viewBox="0 0 33 33" id="instagram">
    <path d="M16.5 18.8254C15 18.8254 13.7 17.6254 13.7 16.0254C13.7 14.5254 14.9 13.2254 16.5 13.2254C18 13.2254 19.3 14.4254 19.3 16.0254C19.3 17.5254 18 18.8254 16.5 18.8254Z" fill="currentColor"></path>
    <path fill-rule="evenodd" clip-rule="evenodd" d="M19.9 9.22539H13.1C12.3 9.32539 11.9 9.42539 11.6 9.52539C11.2 9.62539 10.9 9.82539 10.6 10.1254C10.3626 10.3628 10.2505 10.6002 10.1149 10.8871C10.0792 10.9627 10.0417 11.042 10 11.1254C9.98453 11.1718 9.96667 11.2206 9.94752 11.2729C9.84291 11.5587 9.7 11.9491 9.7 12.6254V19.4254C9.8 20.2254 9.9 20.6254 10 20.9254C10.1 21.3254 10.3 21.6254 10.6 21.9254C10.8374 22.1628 11.0748 22.2749 11.3617 22.4105C11.4374 22.4463 11.5165 22.4836 11.6 22.5254C11.6464 22.5409 11.6952 22.5587 11.7475 22.5779C12.0333 22.6825 12.4238 22.8254 13.1 22.8254H19.9C20.7 22.7254 21.1 22.6254 21.4 22.5254C21.8 22.4254 22.1 22.2254 22.4 21.9254C22.6374 21.688 22.7495 21.4506 22.8851 21.1637C22.9209 21.088 22.9583 21.0089 23 20.9254C23.0155 20.879 23.0333 20.8302 23.0525 20.7779C23.1571 20.4921 23.3 20.1016 23.3 19.4254V12.6254C23.2 11.8254 23.1 11.4254 23 11.1254C22.9 10.7254 22.7 10.4254 22.4 10.1254C22.1626 9.888 21.9252 9.77584 21.6383 9.64027C21.5627 9.60457 21.4833 9.56706 21.4 9.52539C21.3536 9.50992 21.3048 9.49205 21.2525 9.47291C20.9667 9.36829 20.5762 9.22539 19.9 9.22539ZM16.5 11.7254C14.1 11.7254 12.2 13.6254 12.2 16.0254C12.2 18.4254 14.1 20.3254 16.5 20.3254C18.9 20.3254 20.8 18.4254 20.8 16.0254C20.8 13.6254 18.9 11.7254 16.5 11.7254ZM21.9 11.6254C21.9 12.1777 21.4523 12.6254 20.9 12.6254C20.3477 12.6254 19.9 12.1777 19.9 11.6254C19.9 11.0731 20.3477 10.6254 20.9 10.6254C21.4523 10.6254 21.9 11.0731 21.9 11.6254Z" fill="currentColor"></path>
    <path fill-rule="evenodd" clip-rule="evenodd" d="M0.5 16.0254C0.5 7.18884 7.66344 0.0253906 16.5 0.0253906C25.3366 0.0253906 32.5 7.18884 32.5 16.0254C32.5 24.8619 25.3366 32.0254 16.5 32.0254C7.66344 32.0254 0.5 24.8619 0.5 16.0254ZM13.1 7.72539H19.9C20.8 7.82539 21.4 7.92539 21.9 8.12539C22.5 8.42539 22.9 8.62539 23.4 9.12539C23.9 9.62539 24.2 10.1254 24.4 10.6254C24.6 11.1254 24.8 11.7254 24.8 12.6254V19.4254C24.7 20.3254 24.6 20.9254 24.4 21.4254C24.1 22.0254 23.9 22.4254 23.4 22.9254C22.9 23.4254 22.4 23.7254 21.9 23.9254C21.4 24.1254 20.8 24.3254 19.9 24.3254H13.1C12.2 24.2254 11.6 24.1254 11.1 23.9254C10.5 23.6254 10.1 23.4254 9.6 22.9254C9.1 22.4254 8.8 21.9254 8.6 21.4254C8.4 20.9254 8.2 20.3254 8.2 19.4254V12.6254C8.3 11.7254 8.4 11.1254 8.6 10.6254C8.9 10.0254 9.1 9.62539 9.6 9.12539C10.1 8.62539 10.6 8.32539 11.1 8.12539C11.6 7.92539 12.2 7.72539 13.1 7.72539Z" fill="currentColor"></path>
  </symbol> 

  <!-- booking component icons -->
  
  <symbol width="24" height="24" viewBox="0 0 24 24" fill="none" xmlns="http://www.w3.org/2000/svg" id="icon-down">
    <path d="M4.04724 9.35815L11.4363 15.8426C11.6685 16.0401 12.0363 16.0517 12.2845 15.8775L12.3295 15.8426L19.9509 9.35844C19.9824 9.3317 20 9.29551 20 9.25778V8.14266C20 8.06387 19.9246 8 19.8316 8C19.7868 8 19.7438 8.01512 19.7122 8.042L11.9081 14.6812L4.28913 8.04888C4.22426 7.99241 4.11763 7.99117 4.05097 8.04612C4.01838 8.07298 4 8.10985 4 8.14836V9.25907C4 9.29603 4.01694 9.33155 4.04724 9.35815Z" fill="currentColor"/>
  </symbol>


  <symbol viewBox="0 0 32 32" fill="none" id="icon-prev">
    <path d="M21.531 3.181c-0.175 0.081-2.144 2.012-6.325 6.2-5.444 5.456-6.081 6.112-6.144 6.35-0.156 0.613-0.537 0.194 6.144 6.887 4.581 4.587 6.144 6.113 6.35 6.206 0.556 0.256 1.212-0.063 1.375-0.675 0.15-0.563 0.45-0.231-5.762-6.45l-5.7-5.7 5.7-5.706c4.912-4.919 5.706-5.731 5.762-5.95 0.169-0.625-0.363-1.288-1.025-1.281-0.069 0-0.238 0.056-0.375 0.119z"/>
  </symbol>

  <symbol  viewBox="0 0 32 32" id="icon-next">
    <path d="M9.656 3.15c-0.45 0.2-0.725 0.756-0.6 1.206 0.056 0.194 1.069 1.237 5.769 5.937l5.706 5.706-5.694 5.7c-4.475 4.475-5.713 5.756-5.769 5.931-0.162 0.519 0.238 1.181 0.775 1.281 0.569 0.106 0.25 0.387 6.888-6.244 5.506-5.506 6.144-6.163 6.206-6.406 0.156-0.606 0.538-0.188-6.144-6.881-4.181-4.188-6.15-6.119-6.325-6.2-0.294-0.138-0.55-0.144-0.813-0.031z"/>
  </symbol>

  <symbol id="icon-min" viewBox="0 0 32 32">
    <path d="M29.956 13.099v9.216h-8.789v9.643h-10.325v-9.643h-8.789v-9.216h8.789v-9.643h10.325v9.643h8.789z"/>
  </symbol>

  <symbol id="icon-plus" viewBox="0 0 64 32" fill="black">
    <path d="M6.232 27.477v-20.651h51.712v20.651h-51.712z" fill="black"/>
  </symbol>
<!-- </svg> -->

 


  <symbol fill="none" xmlns="http://www.w3.org/2000/svg" viewBox="0 0 25 24" id="burger">
    <path d="M0.5 0V3.42857H24.5V0H0.5ZM0.5 10.2857V13.7143H24.5V10.2857H0.5ZM0.5 20.5714V24H24.5V20.5714H0.5Z" fill="currentColor"></path>
  </symbol>

  <!-- ask block icons -->
  <symbol xmlns="http://www.w3.org/2000/svg" width="18" height="26" viewBox="0 0 18 26" fill="none" id="arrow">
    <path d="M9 1L1 7.66667M9 1L17 7.66667M9 1V25" stroke="#3D493F" stroke-width="2" stroke-linecap="round" stroke-linejoin="round"/>
  </symbol>

  <!-- memories block icon -->
  <symbol viewBox="0 0 907 530" fill="none" xmlns="http://www.w3.org/2000/svg" id="cloud">
    <g filter="url(#filter0_f_3238_23694)">
      <path d="M787.858 412.371C792.347 422.501 788.268 431.479 778.168 440.96C775.224 445.919 772.716 452.157 762.965 456.098C749.313 461.617 740.934 460.102 722.367 458.631C704.519 457.216 688.761 457.04 670.576 455.648C653.129 454.312 641.424 450.871 625.467 448.276C604.826 444.919 587.529 430.266 585.872 423.288C584.032 415.541 605.001 410.217 603.748 403.254C602.868 398.361 595.767 390.842 584.368 387.609C573.656 384.57 543.269 385.823 530.238 385.189C497.58 383.598 473.608 383.662 450.212 375.453C434.818 370.051 430.267 362.675 413.624 357.669C402.227 354.241 379.012 354.961 364.84 353.786C340.668 351.781 315.42 348.799 296.508 343.149C279.033 337.929 262.345 327.584 257.915 319.625C253.549 311.781 224.029 311.636 213.475 305.781C196.788 296.523 184.167 288.367 161.517 280.738C134.409 271.606 131.985 263.17 131.611 251.079C131.376 243.456 125.771 235.49 138.795 228.793C143.169 226.545 144.12 224.487 143.473 221.871C139.315 205.062 95.7155 192.795 77.1469 178.2C60.5165 165.129 74.5657 155.078 102.207 145.953C113.398 142.259 127.307 139.225 137.125 135.091C141.522 133.24 143.158 131.145 148.318 129.407C159.202 125.741 170.543 125.832 185.073 124.905C207.622 123.466 226.906 119.229 246.221 115.225C282.357 107.735 309.155 94.0391 348.801 89.3939C365.429 87.4457 379.427 85.6437 394.244 82.4718C421.301 76.6795 448.337 74.3744 479.449 72.2293C546.55 67.603 624.895 70.1969 687.116 79.8268C710.669 83.4721 735.891 88.7075 748.764 96.5412C752.734 98.9566 756.353 101.537 760.793 103.857C786.242 117.159 816.136 127.538 831.965 143.026C840.292 151.175 834.367 161.154 829.499 169.352L829.458 169.421C826.943 173.658 822.799 179.835 827.955 184.053C840.812 194.571 839.83 204.448 834.638 215.962C831.706 222.464 827.92 228.829 829.626 235.434C831.591 243.048 847.857 249.121 852.514 256.651C857.788 265.178 857.608 274.593 856.022 283.27C854.841 289.735 846.445 295.254 841.32 301.391C831.208 313.503 808.003 328.745 817.931 341.686C826.663 353.069 831.991 364.339 809.744 374.158C784.253 385.41 781.948 399.031 787.858 412.371Z" fill="currentColor" fill-opacity="0.2"/>
    </g>
    <defs>
      <filter id="filter0_f_3238_23694" x="0" y="0" width="927" height="530" filterUnits="userSpaceOnUse" color-interpolation-filters="sRGB">
        <feFlood flood-opacity="0" result="BackgroundImageFix"/>
        <feBlend mode="normal" in="SourceGraphic" in2="BackgroundImageFix" result="shape"/>
        <feGaussianBlur stdDeviation="35" result="effect1_foregroundBlur_3238_23694"/>
      </filter>
    </defs>
  </symbol>

  <!-- houses block icon -->
  <symbol viewBox="0 0 1062 601" fill="none" xmlns="http://www.w3.org/2000/svg" preserveAspectRatio="none" id="map-cloud">
    <g filter="url(#filter0_f_2028_13705)">
      <path d="M40.8459 481.695C54.9767 508.921 23.8879 528.403 22 556.462C39.0942 560.645 66.7415 569.348 84.0616 574.349C90.2337 576.132 112.222 579.376 117.854 573.634C123.429 567.951 129.332 556.462 137.512 556.462C188.498 556.462 236.419 579 288.117 579H402.655C414.718 579 426.374 563.831 437.585 558.609C454.277 550.834 481.71 556.462 498.997 556.462C519.697 556.462 540.5 557.092 561.058 553.958C573.775 552.02 584.005 548.331 598.1 550.739C619.161 554.337 640.505 563.147 661.299 565.764C680.632 568.196 695.863 552.725 715.075 557.178C735.476 561.907 758.972 571.16 779.736 568.983C797.661 567.104 829.62 560.947 839.361 541.974C846.341 528.377 849.568 525.168 862.918 520.331C884.956 512.345 910.966 511.212 930.828 497.793C945.494 487.885 945.285 471.869 949.187 455.401C952.915 439.665 963.646 433.778 963.646 418.375C963.646 398.893 951.384 397.509 946.75 380.812C935.845 341.519 971.474 326.67 983.467 297.817C990.75 280.296 990.979 259.665 997.114 241.652C1000.23 232.513 1009.98 223.24 1016.28 216.789C1038.58 194 1021.96 177.133 1016.93 152.217C1013.69 136.122 1022.07 133.605 1033.18 125.744C1042.19 119.372 1039.68 107.754 1039.68 97.3041C1039.68 77.9877 1036.26 69.8652 1022.13 59.2049C1012.16 51.6798 1004.02 41.4959 994.19 33.8054C990.562 30.9676 986.178 33.4699 982.979 31.1224C976.739 26.5421 979.272 22 969.332 22H944.963C934.367 22 924.071 22.7109 913.932 26.6506C897.909 32.8768 883.983 53.3052 867.792 54.1965C861.382 54.5494 852.335 52.0672 846.671 56.343C841.968 59.8937 840.778 63.8555 834.649 63.8555C807.887 63.8555 760.359 54.1634 739.77 78.1651C728.643 91.1353 720.871 96.052 703.702 96.052C698.031 96.052 688.348 93.8329 683.557 98.1985C677.96 103.298 674.715 105.711 667.148 105.711H628.969C621.301 105.711 624.414 111.379 619.708 114.833C616.22 117.394 607.206 115.151 603.299 115.37C592.874 115.954 585.763 124.228 575.03 125.029C569.076 125.473 563.716 127.552 557.809 128.249C552.063 128.926 548.977 134.307 542.862 134.688C535.394 135.153 527.754 135.308 520.605 138.086C485.981 151.54 464.338 130.411 432.711 114.833C421.416 109.27 405.02 111.843 392.745 112.15C386.522 112.306 380.641 115.551 374.549 115.37C367.552 115.162 362.056 110.625 355.378 109.288C339.223 106.055 320.439 108.931 304.039 108.931C287.088 108.931 270.013 108.093 254.162 111.971C246.16 113.929 244.339 118.473 238.241 124.671C229.864 133.184 223.66 128.977 214.033 132.005C207.653 134.012 210.175 143.088 203.311 144.168C197.917 145.016 199.281 146.382 195.512 150.071C189.407 156.046 178.819 159.136 171.793 164.738C164.844 170.277 159.998 176.732 154.246 183.698C148.316 190.88 136.05 215.701 136.05 225.017C136.05 244.041 103.423 258.141 91.535 263.832C78.5449 270.05 70.0294 272.305 60.0168 283.329C50.8399 293.432 55.9604 313.482 53.8431 325.721C53.1445 329.759 46.484 342.292 44.0952 346.469C39.4231 354.639 28.4277 369.742 27.8487 378.666C27.1795 388.982 27.8487 399.627 27.8487 409.968C27.8487 436.324 29.6502 460.124 40.8459 481.695Z" fill="#B3A189" fill-opacity="0.2"/>
    </g>
    <defs>
      <filter id="filter0_f_2028_13705" x="0" y="0" width="1062" height="601" filterUnits="userSpaceOnUse" color-interpolation-filters="sRGB">
        <feFlood flood-opacity="0" result="BackgroundImageFix"/>
        <feBlend mode="normal" in="SourceGraphic" in2="BackgroundImageFix" result="shape"/>
        <feGaussianBlur stdDeviation="11" result="effect1_foregroundBlur_2028_13705"/>
      </filter>
    </defs>
  </symbol>

  <symbol  viewBox="0 0 222 271" fill="none" xmlns="http://www.w3.org/2000/svg" preserveAspectRatio="none" id="curve-houses">
    <path d="M0.696573 268C0.696573 269.473 1.89048 270.667 3.36324 270.667C4.836 270.667 6.02991 269.473 6.02991 268C6.02991 266.527 4.836 265.333 3.36324 265.333C1.89048 265.333 0.696573 266.527 0.696573 268ZM106.676 118.349L106.619 117.852L106.676 118.349ZM207.697 3C207.697 4.47276 208.891 5.66667 210.364 5.66667C211.837 5.66667 213.031 4.47276 213.031 3C213.031 1.52724 211.837 0.333333 210.364 0.333333C208.891 0.333333 207.697 1.52724 207.697 3ZM3.85878 267.933C0.850965 245.568 1.9754 211.081 16.1531 180.799C30.3155 150.549 57.5096 124.469 106.732 118.845L106.619 117.852C57.0234 123.518 29.5449 149.836 15.2475 180.375C0.965332 210.88 -0.157303 245.574 2.8677 268.067L3.85878 267.933ZM106.732 118.845C152.95 113.565 187.128 101.391 205.681 82.0831C214.971 72.4156 220.338 60.9641 221.332 47.7243C222.324 34.4943 218.946 19.5152 210.814 2.78144L209.914 3.21856C217.995 19.8454 221.31 34.6458 220.334 47.6495C219.36 60.6436 214.099 71.8801 204.96 81.3902C186.657 100.437 152.778 112.578 106.619 117.852L106.732 118.845Z" fill="#3F5540"/>
  </symbol>

<symbol viewBox="0 0 26 26" fill="none" xmlns="http://www.w3.org/2000/svg" id="house">
  <path d="M25 20.5939V12.4466C25 11.6619 24.9993 11.2693 24.9019 10.9042C24.8155 10.5806 24.6737 10.2744 24.4819 9.99764C24.2653 9.68539 23.9643 9.42645 23.3611 8.90973L16.1611 2.74185C15.0412 1.78248 14.4813 1.30303 13.8511 1.12058C13.2958 0.959808 12.7039 0.959808 12.1486 1.12058C11.5189 1.30289 10.9598 1.78189 9.84154 2.73981L2.63916 8.90973C2.03596 9.42646 1.73506 9.68539 1.51855 9.99764C1.32669 10.2744 1.18382 10.5806 1.09746 10.9042C1 11.2693 1 11.6619 1 12.4466V20.5939C1 21.9624 1 22.6464 1.22836 23.1862C1.53284 23.9059 2.11648 24.4783 2.85156 24.7764C3.40288 25 4.10179 25 5.49961 25C6.89744 25 7.59712 25 8.14844 24.7764C8.88352 24.4783 9.467 23.906 9.77148 23.1863C9.99985 22.6466 10 21.9623 10 20.5938V19.1253C10 17.5032 11.3431 16.1882 13 16.1882C14.6569 16.1882 16 17.5032 16 19.1253V20.5938C16 21.9623 16 22.6466 16.2284 23.1863C16.5328 23.906 17.1165 24.4783 17.8516 24.7764C18.4029 25 19.1018 25 20.4996 25C21.8974 25 22.5971 25 23.1484 24.7764C23.8835 24.4783 24.467 23.9059 24.7715 23.1862C24.9998 22.6464 25 21.9624 25 20.5939Z" stroke="#3F5540" stroke-width="2" stroke-linecap="round" stroke-linejoin="round"/>
</symbol>

<symbol viewBox="0 0 24 22" fill="none" xmlns="http://www.w3.org/2000/svg" id="guests">
  <path d="M15.8768 11.0424C18.148 11.0584 20.002 9.23015 20.0179 6.95901C20.0339 4.68788 18.2057 2.83384 15.9345 2.81791C13.6634 2.80198 11.8094 4.63018 11.7934 6.90132C11.7775 9.17246 13.6057 11.0265 15.8768 11.0424Z" fill="none"/>
  <path d="M15.8778 11.0436C18.1489 11.0596 20.0029 9.23135 20.0189 6.96021C20.0312 5.20335 18.94 3.69609 17.3939 3.09618" stroke="#3F5540" stroke-width="1.5" stroke-linecap="round" stroke-linejoin="round"/>
  <path d="M21.4543 16.8586C23.4564 18.2124 22.08 20.7868 19.6632 20.7699L10.5873 20.7062C8.17051 20.6893 6.83036 18.0958 8.85127 16.7702C10.664 15.5812 12.8357 14.896 15.1661 14.9124C17.4966 14.9287 19.6585 15.6443 21.4543 16.8586Z" fill="none"/>
  <path d="M8.96346 10.179C11.4254 10.1962 13.4351 8.21449 13.4524 5.7526C13.4696 3.29071 11.4879 1.28096 9.026 1.26369C6.56411 1.24642 4.55436 3.22818 4.53709 5.69006C4.51982 8.15195 6.50158 10.1617 8.96346 10.179Z" fill="none" stroke="#3F5540" stroke-width="1.5" stroke-linecap="round" stroke-linejoin="round"/>
  <path d="M15.7478 16.4912C17.9181 17.9587 16.4261 20.7494 13.8063 20.731L3.96812 20.662C1.34831 20.6436 -0.104393 17.8323 2.08625 16.3954C4.05121 15.1065 6.40537 14.3638 8.93151 14.3815C11.4577 14.3992 13.8012 15.1749 15.7478 16.4912Z" fill="none" stroke="#3F5540" stroke-width="1.5"/>
  <path d="M13.4267 20.7269L19.6623 20.7707C22.0792 20.7876 23.4556 18.2132 21.4534 16.8594C20.9006 16.4855 20.3131 16.159 19.6966 15.8855" stroke="#3F5540" stroke-width="1.5" stroke-linecap="round"/>
</symbol>

<symbol viewBox="0 0 24 25" fill="none" xmlns="http://www.w3.org/2000/svg" id="bath">
  <path d="M5.12532 18.398C7.20519 18.6785 9.35322 18.9526 11.5522 18.968C13.7511 18.9834 15.9028 18.7396 17.9864 18.4883C19.903 18.2571 21.4302 16.7188 21.6384 14.7995C21.864 12.7192 22.0898 10.5758 22.157 8.38407C22.1739 7.83204 21.7284 7.38109 21.1761 7.37721L2.09177 7.24334C1.5395 7.23947 1.08766 7.68413 1.09684 8.23634C1.13328 10.4288 1.32897 12.5751 1.52544 14.6584C1.70671 16.5804 3.21208 18.14 5.12532 18.398Z" fill="#C2BFB7" fill-opacity="0.7" stroke="#3F5540" stroke-width="1.5" stroke-linejoin="round"/>
<path d="M9.28257 12.0091C9.33793 12.4886 9.72021 12.8691 10.1999 12.9223C11.1669 13.0297 12.1741 13.1568 13.2098 13.1641C14.2454 13.1713 15.2543 13.0584 16.2227 12.9646C16.7031 12.918 17.0907 12.5429 17.1528 12.0643C17.2638 11.2086 17.3874 10.3186 17.3938 9.4041C17.4002 8.48959 17.2891 7.59797 17.1901 6.74078C17.1348 6.26132 16.7525 5.88082 16.2728 5.82755C15.3058 5.72018 14.2986 5.59307 13.2629 5.5858C12.2272 5.57854 11.2183 5.69151 10.25 5.7853C9.76957 5.83183 9.382 6.20693 9.31991 6.68557C9.20892 7.54129 9.0853 8.43127 9.07889 9.34577C9.07247 10.2603 9.18359 11.1519 9.28257 12.0091Z" fill="#C2BFB7" fill-opacity="0.7" stroke="#3F5540" stroke-width="1.5" stroke-linejoin="round"/>
<path d="M4.90387 18.1387C4.89802 18.9729 4.44708 19.6737 3.49477 20.2666" stroke="#3F5540" stroke-width="1.5" stroke-linecap="round" stroke-linejoin="round"/>
<path d="M18.2192 18.2324C18.2133 19.0666 18.6544 19.7736 19.5983 20.3799" stroke="#3F5540" stroke-width="1.5" stroke-linecap="round" stroke-linejoin="round"/>
</symbol>

<symbol viewBox="0 0 24 25" fill="none" xmlns="http://www.w3.org/2000/svg" id="tv">
  <path d="M19.5 15.364V7.90816C19.5 7.08461 18.8284 6.41699 18 6.41699L6 6.41699C5.17157 6.41699 4.5 7.08461 4.5 7.90816V15.364C4.5 16.1876 5.17157 16.8552 6 16.8552H18C18.8284 16.8552 19.5 16.1876 19.5 15.364Z" fill="#C2BFB7" fill-opacity="0.7" stroke="#3F5540" stroke-width="2" stroke-miterlimit="10"/>
  <path d="M7.5 20.5839C8.79822 19.616 10.3772 19.0928 12 19.0928C13.6228 19.0928 15.2018 19.616 16.5 20.5839" stroke="#3F5540" stroke-width="2" stroke-miterlimit="10"/>
</symbol>

<symbol viewBox="0 0 24 25" fill="none" xmlns="http://www.w3.org/2000/svg" id="parking">
  <path d="M17.8566 10.8233C17.808 9.62738 17.4933 8.46531 16.9545 7.34629C16.7688 6.96058 16.4216 6.69798 16.0251 6.60978C14.6871 6.31216 13.662 6.16446 12.0253 6.15296C10.3916 6.14147 9.31815 6.27393 8.03397 6.55208C7.65072 6.63509 7.3126 6.88311 7.12539 7.25121C6.57228 8.33879 6.23992 9.515 6.17024 10.7088C5.64414 10.8265 5.11312 10.956 4.57248 11.0946C4.0329 11.2329 3.61395 11.6899 3.46307 12.2622C3.45504 12.2927 3.44698 12.3232 3.43892 12.3538C3.21808 13.1904 2.98915 14.0577 2.98291 14.9482C2.97705 15.7858 3.16848 16.6056 3.36525 17.3988C3.53746 18.0929 4.11003 18.6024 4.77929 18.6389C5.22602 18.6633 5.67692 18.6894 6.13173 18.7157C8.01225 18.8244 9.95961 18.9369 11.955 18.9509C13.9504 18.965 15.8992 18.8798 17.781 18.7975C18.2362 18.7776 18.6874 18.7579 19.1344 18.7398C19.8041 18.7127 20.3838 18.2113 20.5657 17.5197C20.7735 16.7293 20.9764 15.9123 20.9823 15.0747C20.9885 14.1842 20.7717 13.3138 20.5626 12.4741C20.5568 12.4507 20.551 12.4273 20.5452 12.404C20.3994 11.8182 19.973 11.3506 19.423 11.2099C18.9053 11.0774 18.3832 10.9468 17.8566 10.8233Z" fill="#C2BFB7" fill-opacity="0.7" stroke="#3F5540" stroke-width="1.5" stroke-linejoin="round"/>
  <path d="M8.27838 20.9743C9.54484 20.9832 10.5783 20.0189 10.5867 18.8204C10.5951 17.6219 9.57522 16.6432 8.30876 16.6343C7.0423 16.6254 6.00882 17.5897 6.00043 18.7882C5.99205 19.9866 7.01192 20.9654 8.27838 20.9743Z" fill="#C2BFB7" fill-opacity="0.7" stroke="#3F5540" stroke-width="1.5" stroke-linecap="round" stroke-linejoin="round"/>
  <path d="M14.962 20.9762C16.2284 20.9851 17.2619 20.0208 17.2703 18.8223C17.2787 17.6239 16.2588 16.6451 14.9923 16.6362C13.7259 16.6273 12.6924 17.5917 12.684 18.7901C12.6756 19.9886 13.6955 20.9673 14.962 20.9762Z" fill="#C2BFB7" fill-opacity="0.7" stroke="#3F5540" stroke-width="1.5" stroke-linecap="round" stroke-linejoin="round"/>
  <path d="M11.584 3.99707L11.5707 5.896" stroke="#3F5540" stroke-width="1.5" stroke-linecap="round" stroke-linejoin="round"/>
</symbol>

  <symbol viewBox="0 0 25 25" fill="none" xmlns="http://www.w3.org/2000/svg" id="kitchen">
    <path d="M12.0379 19.1373C17.1578 19.1732 20.0592 16.1393 20.0973 10.7099L4.09766 10.5977C4.05957 16.0271 6.91808 19.1013 12.0379 19.1373Z" fill="#C2BFB7" fill-opacity="0.7" stroke="#3F5540" stroke-width="1.5" stroke-linecap="round" stroke-linejoin="round"/>
    <path d="M12.1484 3.58398L12.1228 7.23301" stroke="#3F5540" stroke-width="1.5" stroke-linecap="round" stroke-linejoin="round"/>
    <path d="M8.52148 18.5449L7.8482 21.5546" stroke="#3F5540" stroke-width="1.5" stroke-linecap="round" stroke-linejoin="round"/>
    <path d="M15.5645 18.5938L16.1955 21.6126" stroke="#3F5540" stroke-width="1.5" stroke-linecap="round" stroke-linejoin="round"/>
    <path d="M16.3105 5.08984L16.2977 6.91436" stroke="#3F5540" stroke-width="1.5" stroke-linecap="round" stroke-linejoin="round"/>
    <path d="M7.96289 5.03125L7.95009 6.85576" stroke="#3F5540" stroke-width="1.5" stroke-linecap="round" stroke-linejoin="round"/>
  </symbol>

  <symbol viewBox="0 0 24 24" fill="none" xmlns="http://www.w3.org/2000/svg" id="pocket">
    <path d="M13.4266 3.26067L6.1692 7.57199L17.4984 8.64766L15.3655 3.8758C15.0332 3.13225 14.1268 2.84471 13.4266 3.26067Z" fill="#FAFAFA"/>
    <path d="M4.35809 16.9475C4.57713 18.2446 5.60587 19.2928 6.90503 19.4993C8.19502 19.7043 9.35978 19.9048 11.1507 19.9174C12.9417 19.9299 14.1092 19.7457 15.4019 19.5589C16.7038 19.3707 17.7472 18.337 17.9844 17.0431C18.1674 16.0448 18.334 15.1779 18.3458 13.4988C18.3576 11.8196 18.2031 10.9505 18.0341 9.94975C17.8151 8.65265 16.7864 7.60438 15.4872 7.39795C14.1972 7.19296 13.0325 6.9924 11.2415 6.97984C9.45053 6.96728 8.28308 7.15148 6.99034 7.33834C5.68841 7.52654 4.64506 8.56027 4.40785 9.85416C4.22482 10.8525 4.0582 11.7193 4.04642 13.3985C4.03464 15.0776 4.18909 15.9467 4.35809 16.9475Z" fill="#C2BFB7" fill-opacity="0.7" stroke="#3F5540" stroke-width="1.5"/>
    <path d="M19.0318 15.4748L14.5844 15.4436C13.4562 15.4357 12.5481 14.5147 12.556 13.3865C12.5639 12.2583 13.4849 11.3502 14.6131 11.3581L19.0605 11.3893C19.6128 11.3932 20.0573 11.844 20.0535 12.3963L20.0388 14.4819C20.035 15.0341 19.5841 15.4787 19.0318 15.4748Z" fill="#FAFAFA" stroke="#3F5540" stroke-width="1.5" stroke-linecap="round"/>
    <path d="M6.1692 7.57199L13.4266 3.26067C14.1268 2.84471 15.0332 3.13225 15.3655 3.8758L17.4984 8.64766" stroke="#3F5540" stroke-width="1.5" stroke-linecap="round"/>
  </symbol>

  <symbol viewBox="0 0 253 74" fill="none" xmlns="http://www.w3.org/2000/svg" id="ellipse">
    <path d="M44.1531 65.3437C82.3833 72.5557 171.767 81.1114 223.458 57.6376C275.15 34.1639 244.997 16.0449 223.458 9.9196C185.013 -0.157536 95.9485 -7.35002 37.3685 20.8859C-19.8158 48.4491 2.90744 60.9967 21.861 62.6763" stroke="#3F5540"/>
  </symbol>





  <!-- <symbol xmlns="http://www.w3.org/2000/svg" viewBox="0 0 36 32" fill="currentColor" id="ask">
    <path
      d="M18.0026 1C8.8026 1 1.33594 7.66667 1.33594 16C1.34084 18.4848 2.02049 20.9215 3.30249 23.05L1.33594 31L8.53564 28.3334C11.3781 30.0937 14.6592 31.0178 18.0026 31C27.2026 31 34.6693 24.3333 34.6693 16C34.6693 7.66667 27.2026 1 18.0026 1Z"
      stroke="#3F5540"
      strokeWidth="2"
      strokeLinejoin="round"
      fill="currentColor"
    />
    <circle cx="9.5" cy="15.5" r="2.5" fill="#FEFEFE" />
    <circle cx="17.5762" cy="15.5" r="2.5" fill="#FEFEFE" />
    <circle cx="25.6543" cy="15.5" r="2.5" fill="#FEFEFE" />
  </symbol> -->
</svg>

