<svg>

  <symbol fill="none" xmlns="http://www.w3.org/2000/svg" viewBox="0 0 27 26" id="user">
    <path d="M18.8327 5.8C18.8327 4.52696 18.2707 3.30606 17.2705 2.40588C16.2703 1.50571 14.9138 1 13.4993 1C12.0849 1 10.7284 1.50571 9.72819 2.40588C8.728 3.30606 8.16602 4.52696 8.16602 5.8V8.2C8.16602 9.47304 8.728 10.6939 9.72819 11.5941C10.7284 12.4943 12.0849 13 13.4993 13C14.9138 13 16.2703 12.4943 17.2705 11.5941C18.2707 10.6939 18.8327 9.47304 18.8327 8.2V5.8Z" stroke="currentColor" stroke-width="2" stroke-miterlimit="10"></path>
    <path d="M1.5 25.0006C3.52667 20.0566 8.16667 16.6006 13.5 16.6006C18.8333 16.6006 23.4733 20.0566 25.5 25.0006" stroke="currentColor" stroke-width="2" stroke-miterlimit="10"></path>
  </symbol>

  <symbol width="18" height="18" viewbox="0 0 18 18" fill="currentColor" xmlns="http://www.w3.org/2000/svg" id="handset">
    <path fill-rule="evenodd" clip-rule="evenodd" d="M16.2291 12.2578L13.6891 11.9678C13.0791 11.8978 12.4791 12.1078 12.0491 12.5378L10.2091 14.3778C7.37906 12.9378 5.05906 10.6278 3.61906 7.78781L5.46906 5.93781C5.89906 5.50781 6.10906 4.90781 6.03906 4.29781L5.74906 1.77781C5.62906 0.767812 4.77906 0.0078125 3.75906 0.0078125H2.02906C0.899064 0.0078125 -0.0409359 0.947812 0.0290641 2.07781C0.559064 10.6178 7.38906 17.4378 15.9191 17.9678C17.0491 18.0378 17.9891 17.0978 17.9891 15.9678V14.2378C17.9991 13.2278 17.2391 12.3778 16.2291 12.2578Z" fill="currentColor"></path>
  </symbol>
  <symbol width="14" height="20" viewbox="0 0 14 20" fill="currentColor" xmlns="http://www.w3.org/2000/svg" id="map">
    <path fill-rule="evenodd" clip-rule="evenodd" d="M0 7C0 3.13 3.13 0 7 0C10.87 0 14 3.13 14 7C14 11.17 9.58 16.92 7.77 19.11C7.37 19.59 6.64 19.59 6.24 19.11C4.42 16.92 0 11.17 0 7ZM4.5 7C4.5 8.38 5.62 9.5 7 9.5C8.38 9.5 9.5 8.38 9.5 7C9.5 5.62 8.38 4.5 7 4.5C5.62 4.5 4.5 5.62 4.5 7Z" fill="currentColor"></path>
  </symbol>
  <symbol width="22" height="20" viewbox="0 0 22 20" fill="currentColor" xmlns="http://www.w3.org/2000/svg" id="heart">
    <path d="M11 19C11 19 1 15.14 1 6.5C1 5.04131 1.57939 3.64241 2.61084 2.61096C3.64229 1.57951 5.04131 1 6.5 1C7.384 0.999705 8.25474 1.21323 9.03833 1.62244C9.82192 2.03164 10.4951 2.62436 11 3.34998C11.5055 2.62497 12.1785 2.03279 12.9619 1.62366C13.7454 1.21452 14.6162 1.00055 15.5 1C16.9587 1 18.3575 1.57951 19.3889 2.61096C20.4204 3.64241 21 5.04131 21 6.5C21 15.14 11 19 11 19Z" stroke="currentColor" stroke-width="2" stroke-linejoin="round"></path>
  </symbol>

  <!-- social media icons -->
  <symbol fill="none" xmlns="http://www.w3.org/2000/svg" viewBox="0 0 33 32" id="facebook">
    <path d="M16.5 0.0839844C7.66352 0.0839844 0.5 7.2475 0.5 16.084C0.5 23.5873 5.66608 29.8837 12.635 31.6129V20.9736H9.33584V16.084H12.635V13.9771C12.635 8.53135 15.0997 6.00718 20.4462 6.00718C21.46 6.00718 23.2091 6.20622 23.9246 6.40462V10.8366C23.547 10.7969 22.891 10.7771 22.0763 10.7771C19.453 10.7771 18.4392 11.771 18.4392 14.3547V16.084H23.6654L22.7675 20.9736H18.4392V31.9669C26.3618 31.0101 32.5006 24.2645 32.5006 16.084C32.5 7.2475 25.3365 0.0839844 16.5 0.0839844Z" fill="currentColor"></path>
  </symbol>

  <symbol fill="none" xmlns="http://www.w3.org/2000/svg" viewBox="0 0 33 33" id="telegram">
    <path fill-rule="evenodd" clip-rule="evenodd" d="M32.5 16.0254C32.5 24.8619 25.3366 32.0254 16.5 32.0254C7.66344 32.0254 0.5 24.8619 0.5 16.0254C0.5 7.18884 7.66344 0.0253906 16.5 0.0253906C25.3366 0.0253906 32.5 7.18884 32.5 16.0254ZM17.0734 11.8373C15.5171 12.4846 12.4068 13.8243 7.74252 15.8565C6.98511 16.1577 6.58834 16.4523 6.55222 16.7405C6.49118 17.2274 7.10095 17.4191 7.93129 17.6802C8.04424 17.7157 8.16127 17.7525 8.28125 17.7915C9.09818 18.0571 10.1971 18.3678 10.7684 18.3801C11.2866 18.3913 11.865 18.1777 12.5035 17.7392C16.8615 14.7974 19.1112 13.3105 19.2524 13.2784C19.3521 13.2558 19.4901 13.2274 19.5837 13.3105C19.6772 13.3937 19.668 13.5511 19.6581 13.5934C19.5977 13.8509 17.2042 16.0762 15.9655 17.2278C15.5793 17.5868 15.3054 17.8414 15.2494 17.8996C15.124 18.0299 14.9962 18.1531 14.8733 18.2715C14.1144 19.0032 13.5452 19.5518 14.9048 20.4478C15.5582 20.8783 16.081 21.2344 16.6026 21.5896C17.1722 21.9775 17.7404 22.3644 18.4755 22.8463C18.6628 22.969 18.8416 23.0966 19.0159 23.2208C19.6788 23.6934 20.2743 24.1179 21.0101 24.0502C21.4377 24.0109 21.8793 23.6089 22.1036 22.4099C22.6336 19.5762 23.6755 13.4367 23.9163 10.9067C23.9374 10.685 23.9108 10.4014 23.8895 10.2768C23.8682 10.1523 23.8237 9.97487 23.6618 9.84352C23.4701 9.68797 23.1742 9.65517 23.0418 9.6575C22.44 9.6681 21.5167 9.98915 17.0734 11.8373Z" fill="currentColor"></path>
  </symbol>
  <symbol fill="none" xmlns="http://www.w3.org/2000/svg" viewBox="0 0 33 33" id="instagram">
    <path d="M16.5 18.8254C15 18.8254 13.7 17.6254 13.7 16.0254C13.7 14.5254 14.9 13.2254 16.5 13.2254C18 13.2254 19.3 14.4254 19.3 16.0254C19.3 17.5254 18 18.8254 16.5 18.8254Z" fill="currentColor"></path>
    <path fill-rule="evenodd" clip-rule="evenodd" d="M19.9 9.22539H13.1C12.3 9.32539 11.9 9.42539 11.6 9.52539C11.2 9.62539 10.9 9.82539 10.6 10.1254C10.3626 10.3628 10.2505 10.6002 10.1149 10.8871C10.0792 10.9627 10.0417 11.042 10 11.1254C9.98453 11.1718 9.96667 11.2206 9.94752 11.2729C9.84291 11.5587 9.7 11.9491 9.7 12.6254V19.4254C9.8 20.2254 9.9 20.6254 10 20.9254C10.1 21.3254 10.3 21.6254 10.6 21.9254C10.8374 22.1628 11.0748 22.2749 11.3617 22.4105C11.4374 22.4463 11.5165 22.4836 11.6 22.5254C11.6464 22.5409 11.6952 22.5587 11.7475 22.5779C12.0333 22.6825 12.4238 22.8254 13.1 22.8254H19.9C20.7 22.7254 21.1 22.6254 21.4 22.5254C21.8 22.4254 22.1 22.2254 22.4 21.9254C22.6374 21.688 22.7495 21.4506 22.8851 21.1637C22.9209 21.088 22.9583 21.0089 23 20.9254C23.0155 20.879 23.0333 20.8302 23.0525 20.7779C23.1571 20.4921 23.3 20.1016 23.3 19.4254V12.6254C23.2 11.8254 23.1 11.4254 23 11.1254C22.9 10.7254 22.7 10.4254 22.4 10.1254C22.1626 9.888 21.9252 9.77584 21.6383 9.64027C21.5627 9.60457 21.4833 9.56706 21.4 9.52539C21.3536 9.50992 21.3048 9.49205 21.2525 9.47291C20.9667 9.36829 20.5762 9.22539 19.9 9.22539ZM16.5 11.7254C14.1 11.7254 12.2 13.6254 12.2 16.0254C12.2 18.4254 14.1 20.3254 16.5 20.3254C18.9 20.3254 20.8 18.4254 20.8 16.0254C20.8 13.6254 18.9 11.7254 16.5 11.7254ZM21.9 11.6254C21.9 12.1777 21.4523 12.6254 20.9 12.6254C20.3477 12.6254 19.9 12.1777 19.9 11.6254C19.9 11.0731 20.3477 10.6254 20.9 10.6254C21.4523 10.6254 21.9 11.0731 21.9 11.6254Z" fill="currentColor"></path>
    <path fill-rule="evenodd" clip-rule="evenodd" d="M0.5 16.0254C0.5 7.18884 7.66344 0.0253906 16.5 0.0253906C25.3366 0.0253906 32.5 7.18884 32.5 16.0254C32.5 24.8619 25.3366 32.0254 16.5 32.0254C7.66344 32.0254 0.5 24.8619 0.5 16.0254ZM13.1 7.72539H19.9C20.8 7.82539 21.4 7.92539 21.9 8.12539C22.5 8.42539 22.9 8.62539 23.4 9.12539C23.9 9.62539 24.2 10.1254 24.4 10.6254C24.6 11.1254 24.8 11.7254 24.8 12.6254V19.4254C24.7 20.3254 24.6 20.9254 24.4 21.4254C24.1 22.0254 23.9 22.4254 23.4 22.9254C22.9 23.4254 22.4 23.7254 21.9 23.9254C21.4 24.1254 20.8 24.3254 19.9 24.3254H13.1C12.2 24.2254 11.6 24.1254 11.1 23.9254C10.5 23.6254 10.1 23.4254 9.6 22.9254C9.1 22.4254 8.8 21.9254 8.6 21.4254C8.4 20.9254 8.2 20.3254 8.2 19.4254V12.6254C8.3 11.7254 8.4 11.1254 8.6 10.6254C8.9 10.0254 9.1 9.62539 9.6 9.12539C10.1 8.62539 10.6 8.32539 11.1 8.12539C11.6 7.92539 12.2 7.72539 13.1 7.72539Z" fill="currentColor"></path>
  </symbol>

  <symbol fill="none" xmlns="http://www.w3.org/2000/svg" viewBox="0 0 25 24" id="burger">
    <path d="M0.5 0V3.42857H24.5V0H0.5ZM0.5 10.2857V13.7143H24.5V10.2857H0.5ZM0.5 20.5714V24H24.5V20.5714H0.5Z" fill="currentColor"></path>
  </symbol>
  
  <!-- ask block icons -->
  <!-- <symbol xmlns="http://www.w3.org/2000/svg" width="46" height="43" viewBox="0 0 46 43" fill="none" id="ask" >
    <path d="M22 0.5C9.856 0.5 0 9.38881 0 20.4998C0.00647546 23.8128 0.903604 27.0617 2.59585 29.8997L0 40.4997L9.50361 36.9442C13.2557 39.2913 17.5867 40.5234 22 40.4997C34.144 40.4997 44 31.6108 44 20.4998C44 9.38881 34.144 0.5 22 0.5Z" fill="currentColor"/>
    <ellipse cx="11.3" cy="20.3333" rx="3.3" ry="3.3333" fill="#FEFEFE"/>
    <ellipse cx="21.9602" cy="20.3333" rx="3.3" ry="3.3333" fill="#FEFEFE"/>
    <ellipse cx="32.6223" cy="20.3333" rx="3.3" ry="3.3333" fill="#FEFEFE"/>
  </symbol>-->
  <symbol xmlns="http://www.w3.org/2000/svg" width="36" height="32" viewBox="0 0 36 32" fill="none" id="ask">
    <path d="M18.0026 1C8.8026 1 1.33594 7.66667 1.33594 16C1.34084 18.4848 2.02049 20.9215 3.30249 23.05L1.33594 31L8.53564 28.3334C11.3781 30.0937 14.6592 31.0178 18.0026 31C27.2026 31 34.6693 24.3333 34.6693 16C34.6693 7.66667 27.2026 1 18.0026 1Z" stroke="#3F5540" stroke-width="2" stroke-linejoin="round" fill="currentColor"/>
    <circle cx="9.5" cy="15.5" r="2.5" fill="#FEFEFE"/>
    <circle cx="17.5762" cy="15.5" r="2.5" fill="#FEFEFE"/>
    <circle cx="25.6543" cy="15.5" r="2.5" fill="#FEFEFE"/>
  </symbol>



  <symbol xmlns="http://www.w3.org/2000/svg" width="18" height="26" viewBox="0 0 18 26" fill="none" id="arrow">
    <path d="M9 1L1 7.66667M9 1L17 7.66667M9 1V25" stroke="#3D493F" stroke-width="2" stroke-linecap="round" stroke-linejoin="round"/>
  </symbol>






</svg>

