<svg>

  <symbol fill="none" xmlns="http://www.w3.org/2000/svg" viewBox="0 0 27 26" id="user">
    <path d="M18.8327 5.8C18.8327 4.52696 18.2707 3.30606 17.2705 2.40588C16.2703 1.50571 14.9138 1 13.4993 1C12.0849 1 10.7284 1.50571 9.72819 2.40588C8.728 3.30606 8.16602 4.52696 8.16602 5.8V8.2C8.16602 9.47304 8.728 10.6939 9.72819 11.5941C10.7284 12.4943 12.0849 13 13.4993 13C14.9138 13 16.2703 12.4943 17.2705 11.5941C18.2707 10.6939 18.8327 9.47304 18.8327 8.2V5.8Z" stroke="currentColor" stroke-width="2" stroke-miterlimit="10"></path>
    <path d="M1.5 25.0006C3.52667 20.0566 8.16667 16.6006 13.5 16.6006C18.8333 16.6006 23.4733 20.0566 25.5 25.0006" stroke="currentColor" stroke-width="2" stroke-miterlimit="10"></path>
  </symbol>

  <symbol width="18" height="18" viewbox="0 0 18 18" fill="currentColor" xmlns="http://www.w3.org/2000/svg" id="handset">
    <path fill-rule="evenodd" clip-rule="evenodd" d="M16.2291 12.2578L13.6891 11.9678C13.0791 11.8978 12.4791 12.1078 12.0491 12.5378L10.2091 14.3778C7.37906 12.9378 5.05906 10.6278 3.61906 7.78781L5.46906 5.93781C5.89906 5.50781 6.10906 4.90781 6.03906 4.29781L5.74906 1.77781C5.62906 0.767812 4.77906 0.0078125 3.75906 0.0078125H2.02906C0.899064 0.0078125 -0.0409359 0.947812 0.0290641 2.07781C0.559064 10.6178 7.38906 17.4378 15.9191 17.9678C17.0491 18.0378 17.9891 17.0978 17.9891 15.9678V14.2378C17.9991 13.2278 17.2391 12.3778 16.2291 12.2578Z" fill="currentColor"></path>
  </symbol>
  <symbol width="14" height="20" viewbox="0 0 14 20" fill="currentColor" xmlns="http://www.w3.org/2000/svg" id="map">
    <path fill-rule="evenodd" clip-rule="evenodd" d="M0 7C0 3.13 3.13 0 7 0C10.87 0 14 3.13 14 7C14 11.17 9.58 16.92 7.77 19.11C7.37 19.59 6.64 19.59 6.24 19.11C4.42 16.92 0 11.17 0 7ZM4.5 7C4.5 8.38 5.62 9.5 7 9.5C8.38 9.5 9.5 8.38 9.5 7C9.5 5.62 8.38 4.5 7 4.5C5.62 4.5 4.5 5.62 4.5 7Z" fill="currentColor"></path>
  </symbol>
  <symbol width="22" height="20" viewbox="0 0 22 20" fill="currentColor" xmlns="http://www.w3.org/2000/svg" id="heart">
    <path d="M11 19C11 19 1 15.14 1 6.5C1 5.04131 1.57939 3.64241 2.61084 2.61096C3.64229 1.57951 5.04131 1 6.5 1C7.384 0.999705 8.25474 1.21323 9.03833 1.62244C9.82192 2.03164 10.4951 2.62436 11 3.34998C11.5055 2.62497 12.1785 2.03279 12.9619 1.62366C13.7454 1.21452 14.6162 1.00055 15.5 1C16.9587 1 18.3575 1.57951 19.3889 2.61096C20.4204 3.64241 21 5.04131 21 6.5C21 15.14 11 19 11 19Z" stroke="currentColor" stroke-width="2" stroke-linejoin="round"></path>
  </symbol>

  <!-- social media icons -->
<symbol viewBox="0 0 32 32" fill="none" xmlns="http://www.w3.org/2000/svg" id="facebook">
    <path d="M31.5006 16C31.5006 23.7306 25.8411 30.1391 18.4392 31.3085V21.3896H22.2675H22.6841L22.7593 20.9799L23.6572 16.0903L23.7656 15.5H23.1654H18.4392V14.2707C18.4392 13.0256 18.687 12.2997 19.1245 11.8696C19.5642 11.4374 20.3078 11.1931 21.5763 11.1931C22.3901 11.1931 23.0232 11.2132 23.3724 11.2499L23.9246 11.3079V10.7526V6.32064V5.94041L23.5582 5.83882C22.7863 5.62478 20.9894 5.4232 19.9462 5.4232C17.2032 5.4232 15.0942 6.07033 13.6784 7.51618C12.2648 8.95984 11.635 11.1055 11.635 13.8931V15.5H8.83584H8.33584V16V20.8896V21.3896H8.83584H11.635V30.8759C5.19982 28.9905 0.5 23.0437 0.5 16C0.5 7.43966 7.43966 0.5 16 0.5C24.5603 0.5 31.5 7.43966 31.5006 16Z" stroke="#3F5540" fill="currentColor"/>
</symbol>

<symbol viewBox="0 0 44 44" fill="none" xmlns="http://www.w3.org/2000/svg" id="telegram">
  <path d="M43.5 22C43.5 33.8741 33.8741 43.5 22 43.5C10.1259 43.5 0.5 33.8741 0.5 22C0.5 10.1259 10.1259 0.5 22 0.5C33.8741 0.5 43.5 10.1259 43.5 22ZM22.5964 15.7797C20.4528 16.6713 16.1748 18.514 9.76611 21.3062C9.23094 21.5194 8.79143 21.7422 8.47011 21.9808C8.16032 22.2109 7.87615 22.5185 7.82569 22.921C7.78982 23.2072 7.85455 23.4716 8.00866 23.6982C8.15308 23.9106 8.35786 24.0636 8.56305 24.1803C8.95181 24.4015 9.48931 24.5705 10.0255 24.739L10.068 24.7524C10.2237 24.8013 10.3823 24.8512 10.5447 24.904C11.1131 25.0888 11.7833 25.2904 12.4142 25.4486C13.0335 25.6039 13.6548 25.7278 14.1082 25.7376C14.9652 25.7561 15.8629 25.4035 16.7862 24.7698C19.7812 22.7481 22.0504 21.2272 23.5947 20.2065C24.3591 19.7012 24.9438 19.3199 25.3504 19.0614C25.0146 19.4092 24.5648 19.8517 24.0645 20.3334C23.0221 21.337 21.7768 22.4948 20.9246 23.2871L20.8745 23.3337C20.3789 23.7944 20.0071 24.1401 19.9203 24.2302C19.7553 24.4016 19.5862 24.5647 19.4163 24.7285L19.4036 24.7407C19.1523 24.983 18.8904 25.2354 18.6812 25.489C18.4698 25.7453 18.2719 26.0492 18.202 26.4031C18.0449 27.1993 18.5731 27.8667 19.5315 28.4983C20.4264 29.088 21.1425 29.5756 21.8597 30.064L21.8602 30.0644C22.6433 30.5977 23.4276 31.1318 24.4422 31.7969C24.6902 31.9595 24.9283 32.1292 25.169 32.3008C25.1912 32.3165 25.2133 32.3324 25.2356 32.3482C26.0926 32.9598 27.0489 33.6423 28.2472 33.5321C29.1935 33.445 29.8791 32.5669 30.1964 30.8706C30.9249 26.9761 32.3616 18.5133 32.6951 15.0092C32.7296 14.6475 32.6876 14.2111 32.6535 14.0114C32.6188 13.809 32.5311 13.4107 32.1625 13.1117C31.9513 12.9403 31.7045 12.8516 31.5068 12.8043C31.306 12.7563 31.1166 12.7419 30.9862 12.7442C30.4826 12.7531 29.8905 12.894 28.702 13.3253C27.5048 13.7597 25.6494 14.5099 22.5964 15.7797ZM25.8858 18.4588C25.8881 18.4544 25.8897 18.4519 25.8899 18.4517C25.8902 18.4514 25.889 18.4537 25.8858 18.4588Z" stroke="#3F5540" fill="currentColor"/>
</symbol>

<symbol  viewBox="0 0 32 32" fill="none" xmlns="http://www.w3.org/2000/svg" id="instagram">
<path d="M11.2213 9.98507L11.2399 9.98041L11.2581 9.97434C11.5143 9.88893 11.8739 9.79594 12.6313 9.7H19.4C19.9877 9.7 20.3139 9.81943 20.5761 9.91539L20.5806 9.91705L20.5841 9.91831C20.6232 9.93263 20.6652 9.94803 20.7074 9.9626C20.7844 10.0007 20.8573 10.0351 20.9232 10.0663L20.9247 10.067L21.1383 9.61488L20.9247 10.067C21.215 10.2041 21.3777 10.2848 21.5464 10.4536C21.8014 10.7085 21.9426 10.932 22.0149 11.2213L22.0196 11.2399L22.0257 11.2581C22.1111 11.5143 22.2041 11.8739 22.3 12.6313V19.4C22.3 19.9877 22.1806 20.3139 22.0846 20.5761L22.0829 20.5806C22.0683 20.6207 22.0524 20.664 22.0374 20.7073C21.9993 20.7844 21.965 20.8571 21.9338 20.923L21.933 20.9247L22.3851 21.1383L21.933 20.9247C21.7959 21.215 21.7152 21.3777 21.5464 21.5464C21.2915 21.8014 21.068 21.9426 20.7787 22.0149L20.7601 22.0196L20.7419 22.0257C20.4857 22.1111 20.1261 22.2041 19.3687 22.3H12.6C12.0124 22.3 11.6861 22.1806 11.4239 22.0846L11.4194 22.0829L11.4161 22.0817C11.3769 22.0674 11.3348 22.052 11.2927 22.0374C11.2157 21.9993 11.143 21.965 11.0771 21.9339L11.0753 21.933C10.785 21.7959 10.6223 21.7152 10.4536 21.5464C10.1986 21.2915 10.0574 21.068 9.98507 20.7787L9.98041 20.7601L9.97434 20.7419C9.88894 20.4857 9.79595 20.1261 9.7 19.3687V12.6C9.7 12.0123 9.81943 11.6861 9.91539 11.4239L9.91706 11.4194L9.9183 11.416C9.93262 11.3769 9.94803 11.3348 9.9626 11.2926C10.0006 11.2158 10.0349 11.1431 10.066 11.0773L10.067 11.0753L10.067 11.0753C10.2041 10.785 10.2848 10.6223 10.4536 10.4536C10.7085 10.1986 10.932 10.0574 11.2213 9.98507ZM19.4552 7.20305L19.4277 7.2H19.4H12.6C11.6139 7.2 10.9481 7.42222 10.4143 7.63576C9.85566 7.85922 9.29744 8.19545 8.74645 8.74644C8.18901 9.30388 7.95837 9.76518 7.65966 10.3626L7.65279 10.3764L7.64349 10.395L7.63576 10.4143C7.40799 10.9837 7.30306 11.6448 7.20306 12.5448L7.2 12.5723V12.6V19.4C7.2 20.3861 7.42223 21.0519 7.63576 21.5857C7.85922 22.1443 8.19545 22.7026 8.74645 23.2536C9.30389 23.811 9.7652 24.0416 10.3627 24.3403L10.3764 24.3472L10.395 24.3565L10.4143 24.3642C10.9837 24.592 11.6448 24.6969 12.5448 24.7969L12.5723 24.8H12.6H19.4C20.3861 24.8 21.0519 24.5778 21.5857 24.3642C22.1443 24.1408 22.7026 23.8045 23.2536 23.2536C23.811 22.6961 24.0416 22.2348 24.3403 21.6374L24.3472 21.6236L24.3565 21.605L24.3642 21.5857C24.592 21.0163 24.6969 20.3552 24.7969 19.4552L24.8 19.4277V19.4V12.6C24.8 11.6139 24.5778 10.9481 24.3642 10.4143C24.1408 9.85565 23.8045 9.29744 23.2536 8.74644C22.6961 8.18901 22.2348 7.95837 21.6374 7.65966L21.6236 7.65278L21.605 7.64348L21.5857 7.63576C21.0163 7.40799 20.3552 7.30306 19.4552 7.20305ZM16 18.3C14.7644 18.3 13.7 17.3123 13.7 16C13.7 14.7644 14.6877 13.7 16 13.7C17.2356 13.7 18.3 14.6877 18.3 16C18.3 17.2239 17.2239 18.3 16 18.3ZM16 11.2C13.3239 11.2 11.2 13.3239 11.2 16C11.2 18.6761 13.3239 20.8 16 20.8C18.6761 20.8 20.8 18.6761 20.8 16C20.8 14.8267 20.3918 13.7596 19.7077 12.931C19.9148 13.039 20.1503 13.1 20.4 13.1C21.2284 13.1 21.9 12.4284 21.9 11.6C21.9 10.7716 21.2284 10.1 20.4 10.1C19.5716 10.1 18.9 10.7716 18.9 11.6C18.9 11.8497 18.961 12.0852 19.069 12.2923C18.2404 11.6082 17.1733 11.2 16 11.2ZM0.5 16C0.5 7.43959 7.43959 0.5 16 0.5C24.5604 0.5 31.5 7.43959 31.5 16C31.5 24.5604 24.5604 31.5 16 31.5C7.43959 31.5 0.5 24.5604 0.5 16Z" stroke="#3F5540" fill="currentColor"/>
</symbol>


  <!-- booking component icons -->
  
  <symbol width="24" height="24" viewBox="0 0 24 24" fill="none" xmlns="http://www.w3.org/2000/svg" id="icon-down">
    <path d="M4.04724 9.35815L11.4363 15.8426C11.6685 16.0401 12.0363 16.0517 12.2845 15.8775L12.3295 15.8426L19.9509 9.35844C19.9824 9.3317 20 9.29551 20 9.25778V8.14266C20 8.06387 19.9246 8 19.8316 8C19.7868 8 19.7438 8.01512 19.7122 8.042L11.9081 14.6812L4.28913 8.04888C4.22426 7.99241 4.11763 7.99117 4.05097 8.04612C4.01838 8.07298 4 8.10985 4 8.14836V9.25907C4 9.29603 4.01694 9.33155 4.04724 9.35815Z" fill="currentColor"/>
  </symbol>


  <symbol viewBox="0 0 32 32" fill="none" id="icon-prev">
    <path d="M21.531 3.181c-0.175 0.081-2.144 2.012-6.325 6.2-5.444 5.456-6.081 6.112-6.144 6.35-0.156 0.613-0.537 0.194 6.144 6.887 4.581 4.587 6.144 6.113 6.35 6.206 0.556 0.256 1.212-0.063 1.375-0.675 0.15-0.563 0.45-0.231-5.762-6.45l-5.7-5.7 5.7-5.706c4.912-4.919 5.706-5.731 5.762-5.95 0.169-0.625-0.363-1.288-1.025-1.281-0.069 0-0.238 0.056-0.375 0.119z"/>
  </symbol>

  <symbol  viewBox="0 0 32 32" id="icon-next">
    <path d="M9.656 3.15c-0.45 0.2-0.725 0.756-0.6 1.206 0.056 0.194 1.069 1.237 5.769 5.937l5.706 5.706-5.694 5.7c-4.475 4.475-5.713 5.756-5.769 5.931-0.162 0.519 0.238 1.181 0.775 1.281 0.569 0.106 0.25 0.387 6.888-6.244 5.506-5.506 6.144-6.163 6.206-6.406 0.156-0.606 0.538-0.188-6.144-6.881-4.181-4.188-6.15-6.119-6.325-6.2-0.294-0.138-0.55-0.144-0.813-0.031z"/>
  </symbol>

  <symbol id="icon-min" viewBox="0 0 32 32">
    <path d="M29.956 13.099v9.216h-8.789v9.643h-10.325v-9.643h-8.789v-9.216h8.789v-9.643h10.325v9.643h8.789z"/>
  </symbol>

  <symbol id="icon-plus" viewBox="0 0 64 32" fill="black">
    <path d="M6.232 27.477v-20.651h51.712v20.651h-51.712z" fill="black"/>
  </symbol>
<!-- </svg> -->

 


  <symbol fill="none" xmlns="http://www.w3.org/2000/svg" viewBox="0 0 25 24" id="burger">
    <path d="M0.5 0V3.42857H24.5V0H0.5ZM0.5 10.2857V13.7143H24.5V10.2857H0.5ZM0.5 20.5714V24H24.5V20.5714H0.5Z" fill="currentColor"></path>
  </symbol>

  <!-- ask block icons -->
  <symbol viewBox="0 0 28 28" fill="none" xmlns="http://www.w3.org/2000/svg" id="arrow">
    <path d="M14 2L6 8.66667M14 2L22 8.66667M14 2V26" stroke="currentColor" stroke-width="2" stroke-linecap="round" stroke-linejoin="round"/>
  </symbol>


  <!-- memories block icon -->
  <symbol viewBox="0 0 907 530" fill="none" xmlns="http://www.w3.org/2000/svg" id="cloud">
    <g filter="url(#filter0_f_3238_23694)">
      <path d="M787.858 412.371C792.347 422.501 788.268 431.479 778.168 440.96C775.224 445.919 772.716 452.157 762.965 456.098C749.313 461.617 740.934 460.102 722.367 458.631C704.519 457.216 688.761 457.04 670.576 455.648C653.129 454.312 641.424 450.871 625.467 448.276C604.826 444.919 587.529 430.266 585.872 423.288C584.032 415.541 605.001 410.217 603.748 403.254C602.868 398.361 595.767 390.842 584.368 387.609C573.656 384.57 543.269 385.823 530.238 385.189C497.58 383.598 473.608 383.662 450.212 375.453C434.818 370.051 430.267 362.675 413.624 357.669C402.227 354.241 379.012 354.961 364.84 353.786C340.668 351.781 315.42 348.799 296.508 343.149C279.033 337.929 262.345 327.584 257.915 319.625C253.549 311.781 224.029 311.636 213.475 305.781C196.788 296.523 184.167 288.367 161.517 280.738C134.409 271.606 131.985 263.17 131.611 251.079C131.376 243.456 125.771 235.49 138.795 228.793C143.169 226.545 144.12 224.487 143.473 221.871C139.315 205.062 95.7155 192.795 77.1469 178.2C60.5165 165.129 74.5657 155.078 102.207 145.953C113.398 142.259 127.307 139.225 137.125 135.091C141.522 133.24 143.158 131.145 148.318 129.407C159.202 125.741 170.543 125.832 185.073 124.905C207.622 123.466 226.906 119.229 246.221 115.225C282.357 107.735 309.155 94.0391 348.801 89.3939C365.429 87.4457 379.427 85.6437 394.244 82.4718C421.301 76.6795 448.337 74.3744 479.449 72.2293C546.55 67.603 624.895 70.1969 687.116 79.8268C710.669 83.4721 735.891 88.7075 748.764 96.5412C752.734 98.9566 756.353 101.537 760.793 103.857C786.242 117.159 816.136 127.538 831.965 143.026C840.292 151.175 834.367 161.154 829.499 169.352L829.458 169.421C826.943 173.658 822.799 179.835 827.955 184.053C840.812 194.571 839.83 204.448 834.638 215.962C831.706 222.464 827.92 228.829 829.626 235.434C831.591 243.048 847.857 249.121 852.514 256.651C857.788 265.178 857.608 274.593 856.022 283.27C854.841 289.735 846.445 295.254 841.32 301.391C831.208 313.503 808.003 328.745 817.931 341.686C826.663 353.069 831.991 364.339 809.744 374.158C784.253 385.41 781.948 399.031 787.858 412.371Z" fill="currentColor" fill-opacity="0.2"/>
    </g>
    <defs>
      <filter id="filter0_f_3238_23694" x="0" y="0" width="927" height="530" filterUnits="userSpaceOnUse" color-interpolation-filters="sRGB">
        <feFlood flood-opacity="0" result="BackgroundImageFix"/>
        <feBlend mode="normal" in="SourceGraphic" in2="BackgroundImageFix" result="shape"/>
        <feGaussianBlur stdDeviation="35" result="effect1_foregroundBlur_3238_23694"/>
      </filter>
    </defs>
  </symbol>

  <!-- houses block icon -->
  <symbol viewBox="0 0 1062 601" fill="none" xmlns="http://www.w3.org/2000/svg" preserveAspectRatio="none" id="map-cloud">
    <g filter="url(#filter0_f_2028_13705)">
      <path d="M40.8459 481.695C54.9767 508.921 23.8879 528.403 22 556.462C39.0942 560.645 66.7415 569.348 84.0616 574.349C90.2337 576.132 112.222 579.376 117.854 573.634C123.429 567.951 129.332 556.462 137.512 556.462C188.498 556.462 236.419 579 288.117 579H402.655C414.718 579 426.374 563.831 437.585 558.609C454.277 550.834 481.71 556.462 498.997 556.462C519.697 556.462 540.5 557.092 561.058 553.958C573.775 552.02 584.005 548.331 598.1 550.739C619.161 554.337 640.505 563.147 661.299 565.764C680.632 568.196 695.863 552.725 715.075 557.178C735.476 561.907 758.972 571.16 779.736 568.983C797.661 567.104 829.62 560.947 839.361 541.974C846.341 528.377 849.568 525.168 862.918 520.331C884.956 512.345 910.966 511.212 930.828 497.793C945.494 487.885 945.285 471.869 949.187 455.401C952.915 439.665 963.646 433.778 963.646 418.375C963.646 398.893 951.384 397.509 946.75 380.812C935.845 341.519 971.474 326.67 983.467 297.817C990.75 280.296 990.979 259.665 997.114 241.652C1000.23 232.513 1009.98 223.24 1016.28 216.789C1038.58 194 1021.96 177.133 1016.93 152.217C1013.69 136.122 1022.07 133.605 1033.18 125.744C1042.19 119.372 1039.68 107.754 1039.68 97.3041C1039.68 77.9877 1036.26 69.8652 1022.13 59.2049C1012.16 51.6798 1004.02 41.4959 994.19 33.8054C990.562 30.9676 986.178 33.4699 982.979 31.1224C976.739 26.5421 979.272 22 969.332 22H944.963C934.367 22 924.071 22.7109 913.932 26.6506C897.909 32.8768 883.983 53.3052 867.792 54.1965C861.382 54.5494 852.335 52.0672 846.671 56.343C841.968 59.8937 840.778 63.8555 834.649 63.8555C807.887 63.8555 760.359 54.1634 739.77 78.1651C728.643 91.1353 720.871 96.052 703.702 96.052C698.031 96.052 688.348 93.8329 683.557 98.1985C677.96 103.298 674.715 105.711 667.148 105.711H628.969C621.301 105.711 624.414 111.379 619.708 114.833C616.22 117.394 607.206 115.151 603.299 115.37C592.874 115.954 585.763 124.228 575.03 125.029C569.076 125.473 563.716 127.552 557.809 128.249C552.063 128.926 548.977 134.307 542.862 134.688C535.394 135.153 527.754 135.308 520.605 138.086C485.981 151.54 464.338 130.411 432.711 114.833C421.416 109.27 405.02 111.843 392.745 112.15C386.522 112.306 380.641 115.551 374.549 115.37C367.552 115.162 362.056 110.625 355.378 109.288C339.223 106.055 320.439 108.931 304.039 108.931C287.088 108.931 270.013 108.093 254.162 111.971C246.16 113.929 244.339 118.473 238.241 124.671C229.864 133.184 223.66 128.977 214.033 132.005C207.653 134.012 210.175 143.088 203.311 144.168C197.917 145.016 199.281 146.382 195.512 150.071C189.407 156.046 178.819 159.136 171.793 164.738C164.844 170.277 159.998 176.732 154.246 183.698C148.316 190.88 136.05 215.701 136.05 225.017C136.05 244.041 103.423 258.141 91.535 263.832C78.5449 270.05 70.0294 272.305 60.0168 283.329C50.8399 293.432 55.9604 313.482 53.8431 325.721C53.1445 329.759 46.484 342.292 44.0952 346.469C39.4231 354.639 28.4277 369.742 27.8487 378.666C27.1795 388.982 27.8487 399.627 27.8487 409.968C27.8487 436.324 29.6502 460.124 40.8459 481.695Z" fill="#B3A189" fill-opacity="0.2"/>
    </g>
    <defs>
      <filter id="filter0_f_2028_13705" x="0" y="0" width="1062" height="601" filterUnits="userSpaceOnUse" color-interpolation-filters="sRGB">
        <feFlood flood-opacity="0" result="BackgroundImageFix"/>
        <feBlend mode="normal" in="SourceGraphic" in2="BackgroundImageFix" result="shape"/>
        <feGaussianBlur stdDeviation="11" result="effect1_foregroundBlur_2028_13705"/>
      </filter>
    </defs>
  </symbol>
  <!-- a pin on the map -->
  <symbol viewBox="0 0 28 38" fill="none" xmlns="http://www.w3.org/2000/svg" preserveAspectRatio="none" id="pin">
    <path fill-rule="evenodd" clip-rule="evenodd" d="M1 14.125C1 6.86875 6.86875 1 14.125 1C21.3813 1 27.25 6.86875 27.25 14.125C27.25 21.9438 18.9625 32.725 15.5688 36.8313C14.8188 37.7313 13.45 37.7313 12.7 36.8313C9.2875 32.725 1 21.9438 1 14.125ZM9.4375 14.125C9.4375 16.7125 11.5375 18.8125 14.125 18.8125C16.7125 18.8125 18.8125 16.7125 18.8125 14.125C18.8125 11.5375 16.7125 9.4375 14.125 9.4375C11.5375 9.4375 9.4375 11.5375 9.4375 14.125Z" fill="#FAFAFA"/>
    <path d="M15.5688 36.8313L15.9529 37.1513L15.9542 37.1498L15.5688 36.8313ZM12.7 36.8313L12.3155 37.1508L12.3159 37.1513L12.7 36.8313ZM14.125 0.5C6.59261 0.5 0.5 6.59261 0.5 14.125H1.5C1.5 7.14489 7.14489 1.5 14.125 1.5V0.5ZM27.75 14.125C27.75 6.59261 21.6574 0.5 14.125 0.5V1.5C21.1051 1.5 26.75 7.14489 26.75 14.125H27.75ZM15.9542 37.1498C17.6584 35.0877 20.5967 31.3436 23.1115 27.1264C25.614 22.9297 27.75 18.1792 27.75 14.125H26.75C26.75 17.8896 24.7423 22.439 22.2526 26.6142C19.7751 30.7689 16.8728 34.4686 15.1833 36.5127L15.9542 37.1498ZM12.3159 37.1513C13.2658 38.2912 15.003 38.2912 15.9529 37.1513L15.1846 36.5112C14.6345 37.1713 13.6342 37.1713 13.0841 36.5112L12.3159 37.1513ZM0.5 14.125C0.5 18.1792 2.63604 22.9297 5.14097 27.1266C7.65813 31.3439 10.6012 35.0881 12.3155 37.1508L13.0845 36.5117C11.3863 34.4682 8.47937 30.7686 5.99965 26.6141C3.50771 22.439 1.5 17.8895 1.5 14.125H0.5ZM14.125 18.3125C11.8136 18.3125 9.9375 16.4364 9.9375 14.125H8.9375C8.9375 16.9886 11.2614 19.3125 14.125 19.3125V18.3125ZM18.3125 14.125C18.3125 16.4364 16.4364 18.3125 14.125 18.3125V19.3125C16.9886 19.3125 19.3125 16.9886 19.3125 14.125H18.3125ZM14.125 9.9375C16.4364 9.9375 18.3125 11.8136 18.3125 14.125H19.3125C19.3125 11.2614 16.9886 8.9375 14.125 8.9375V9.9375ZM9.9375 14.125C9.9375 11.8136 11.8136 9.9375 14.125 9.9375V8.9375C11.2614 8.9375 8.9375 11.2614 8.9375 14.125H9.9375Z" fill="#3F5540"/>
  </symbol>
  <!-- cloud -->
  <symbol viewBox="0 0 1241 789" fill="none" xmlns="http://www.w3.org/2000/svg" preserveAspectRatio="none" id="house-cloud">
    <g filter="url(#filter0_f_603_2724)">
    <path d="M44.1428 636.852C60.7456 673.268 24.2181 699.325 22 736.855C42.0846 742.449 74.5684 754.09 94.9185 760.78C102.17 763.164 128.005 767.502 134.623 759.823C141.173 752.221 148.109 736.855 157.72 736.855C217.625 736.855 273.929 767 334.671 767H469.246C483.42 767 497.114 746.711 510.286 739.726C529.898 729.327 562.131 736.855 582.441 736.855C606.763 736.855 631.205 737.698 655.36 733.506C670.301 730.913 682.321 725.979 698.882 729.2C723.627 734.012 748.704 745.797 773.136 749.296C795.851 752.55 813.747 731.856 836.32 737.812C860.29 744.137 887.896 756.514 912.292 753.602C933.353 751.088 970.904 742.853 982.348 717.477C990.549 699.291 994.34 694.999 1010.03 688.529C1035.92 677.848 1066.48 676.332 1089.82 658.384C1107.05 645.132 1106.8 623.709 1111.39 601.684C1115.77 580.636 1128.38 572.762 1128.38 552.161C1128.38 526.102 1113.97 524.252 1108.52 501.92C1095.71 449.364 1137.57 429.503 1151.66 390.911C1160.22 367.477 1160.49 339.882 1167.7 315.789C1171.36 303.565 1182.81 291.162 1190.22 282.535C1216.41 252.054 1196.89 229.494 1190.99 196.168C1187.17 174.64 1197.02 171.275 1210.07 160.76C1220.65 152.237 1217.71 136.698 1217.71 122.721C1217.71 96.8848 1213.7 86.0208 1197.09 71.7624C1185.37 61.6973 1175.81 48.0762 1164.26 37.79C1160 33.9944 1154.85 37.3412 1151.09 34.2013C1143.76 28.0752 1146.74 22 1135.06 22H1106.42C1093.97 22 1081.88 22.9509 1069.96 28.2203C1051.14 36.548 1034.78 63.8714 1015.75 65.0636C1008.22 65.5356 997.592 62.2156 990.937 67.9345C985.411 72.6837 984.013 77.9827 976.812 77.9827C945.368 77.9827 889.526 65.0192 865.334 97.122C852.262 114.47 843.13 121.046 822.958 121.046C816.294 121.046 804.917 118.078 799.288 123.917C792.712 130.737 788.9 133.965 780.008 133.965H735.15C726.141 133.965 729.799 141.547 724.27 146.167C720.171 149.591 709.58 146.592 704.99 146.884C692.741 147.665 684.387 158.732 671.776 159.803C664.78 160.398 658.482 163.178 651.542 164.11C644.791 165.016 641.166 172.213 633.981 172.723C625.206 173.345 616.229 173.552 607.829 177.268C567.149 195.263 541.719 167.002 504.56 146.167C491.289 138.726 472.024 142.167 457.602 142.578C450.291 142.786 443.381 147.127 436.223 146.884C428.002 146.606 421.544 140.538 413.698 138.75C394.717 134.425 372.647 138.272 353.378 138.272C333.461 138.272 313.399 137.152 294.776 142.339C285.374 144.957 283.235 151.035 276.069 159.325C266.228 170.711 258.938 165.084 247.627 169.134C240.13 171.818 243.094 183.958 235.029 185.402C228.692 186.537 230.294 188.364 225.866 193.297C218.693 201.289 206.253 205.422 197.997 212.915C189.833 220.324 184.139 228.958 177.381 238.275C170.413 247.881 156.002 281.079 156.002 293.54C156.002 318.985 117.666 337.844 103.699 345.455C88.4368 353.772 78.4315 356.788 66.6673 371.533C55.8851 385.046 61.9013 411.864 59.4137 428.233C58.5928 433.634 50.7672 450.398 47.9605 455.985C42.4711 466.912 29.5521 487.113 28.8719 499.049C28.0856 512.846 28.8719 527.085 28.8719 540.916C28.8719 576.168 30.9885 608.001 44.1428 636.852Z" fill="#B3A189" fill-opacity="0.2"/>
    </g>
    <defs>
      <filter id="filter0_f_603_2724" x="0" y="0" width="1240.09" height="789" filterUnits="userSpaceOnUse" color-interpolation-filters="sRGB">
        <feFlood flood-opacity="0" result="BackgroundImageFix"/>
        <feBlend mode="normal" in="SourceGraphic" in2="BackgroundImageFix" result="shape"/>
        <feGaussianBlur stdDeviation="11" result="effect1_foregroundBlur_603_2724"/>
      </filter>
    </defs>
  </symbol>
  <!-- icons -->
  <symbol viewBox="0 0 53 36" fill="none" xmlns="http://www.w3.org/2000/svg" id="house-bath">
    <path d="M6.29635 29.323C12.7507 30.0851 19.5112 31.1267 26.4841 31.1703C33.4569 31.2138 40.2331 30.2568 46.6987 29.5753C48.6202 29.3728 50.1524 27.8567 50.3676 25.9366C51.0749 19.6282 51.9991 13.0325 52.1324 6.236C52.1432 5.68381 51.6984 5.23313 51.1461 5.22968L2.23045 4.92421C1.67818 4.92076 1.2264 5.36585 1.22858 5.91812C1.25542 12.7156 2.07631 19.3223 2.68474 25.6388C2.86992 27.5614 4.37825 29.0965 6.29635 29.323Z" fill="#C2BFB7" fill-opacity="0.7" stroke="#3F5540" stroke-width="1.5" stroke-linejoin="round"/>
    <path d="M21.1301 16.6222C21.1853 17.101 21.5679 17.4771 22.0477 17.5221C24.7373 17.7745 27.5662 18.1591 30.489 18.1773C33.4119 18.1956 36.2465 17.8463 38.9398 17.6275C39.4202 17.5885 39.8087 17.2171 39.8714 16.7392C40.1633 14.5127 40.5762 12.1739 40.5951 9.7588C40.614 7.3437 40.2377 5.00001 39.9807 2.77008C39.9255 2.29137 39.5428 1.91521 39.063 1.87019C36.3734 1.61785 33.5446 1.23322 30.6217 1.21498C27.6989 1.19674 24.8642 1.54604 22.171 1.7648C21.6905 1.80383 21.302 2.17518 21.2393 2.65315C20.9474 4.87966 20.5346 7.21843 20.5157 9.63352C20.4968 12.0486 20.873 14.3923 21.1301 16.6222Z" fill="#C2BFB7" fill-opacity="0.7" stroke="#3F5540" stroke-width="1.5" stroke-linejoin="round"/>
    <path d="M10.4291 29.3179C10.4145 31.1851 9.32511 32.7539 7.02508 34.0816" stroke="#3F5540" stroke-width="1.5" stroke-linecap="round" stroke-linejoin="round"/>
    <path d="M42.5865 29.5181C42.5719 31.3853 43.6367 32.9675 45.9157 34.3238" stroke="#3F5540" stroke-width="1.5" stroke-linecap="round" stroke-linejoin="round"/>
  </symbol>
  <symbol viewBox="0 0 45 42" fill="none" xmlns="http://www.w3.org/2000/svg" id="house-tv">
    <path d="M43.125 26.1267L43.125 5.61747C43.125 3.35209 41.2782 1.51562 39 1.51562L6 1.51563C3.72182 1.51563 1.875 3.35209 1.875 5.61747L1.875 26.1267C1.875 28.3921 3.72182 30.2286 6 30.2286H39C41.2782 30.2286 43.125 28.3921 43.125 26.1267Z" fill="#B3A189" fill-opacity="0.2" stroke="#3F5540" stroke-width="2" stroke-miterlimit="10"/>
    <path d="M10.125 40.4856C13.6951 37.8231 18.0374 36.3838 22.5 36.3838C26.9626 36.3838 31.3049 37.8231 34.875 40.4856" stroke="#3F5540" stroke-width="2" stroke-miterlimit="10"/>
  </symbol>
  <symbol viewBox="0 0 55 52" fill="none" xmlns="http://www.w3.org/2000/svg" id="house-car">
    <path d="M44.3373 21.1653C44.1976 17.7181 43.2929 14.3687 41.744 11.1433C41.2101 10.0315 40.2119 9.27462 39.0719 9.02042C35.2251 8.16266 32.2779 7.73698 27.5726 7.70391C22.8756 7.6709 19.7894 8.05274 16.0974 8.85454C14.9956 9.09382 14.0234 9.80873 13.4852 10.8697C11.8949 14.0045 10.9394 17.3948 10.739 20.8359C9.2264 21.1751 7.69973 21.5482 6.14537 21.9478C4.59407 22.3466 3.38957 23.6636 2.95577 25.3134C2.93267 25.4013 2.90951 25.4892 2.88633 25.5773C2.25137 27.9888 1.59314 30.4887 1.57517 33.0553C1.55827 35.4696 2.10859 37.8326 2.67428 40.1188C3.16933 42.1196 4.81545 43.588 6.73956 43.6932C8.0239 43.7635 9.32025 43.8386 10.6278 43.9144C16.0343 44.2276 21.633 44.5519 27.3698 44.5922C33.1066 44.6325 38.7092 44.3869 44.1196 44.1497C45.4281 44.0924 46.7253 44.0355 48.0105 43.9833C49.9359 43.9051 51.6025 42.46 52.1255 40.4664C52.7231 38.1883 53.3065 35.8332 53.3234 33.419C53.3413 30.8524 52.7182 28.3435 52.117 25.9233C52.1003 25.8558 52.0835 25.7884 52.0668 25.7211C51.6478 24.0328 50.4218 22.685 48.8405 22.2793C47.3523 21.8976 45.8513 21.5211 44.3373 21.1653Z" fill="#C2BFB7" fill-opacity="0.7" stroke="#3F5540" stroke-width="1.5" stroke-linejoin="round"/>
    <path d="M16.7982 50.4259C20.4392 50.4515 23.4105 47.6719 23.4347 44.2175C23.4589 40.7631 20.5268 37.942 16.8857 37.9164C13.2446 37.8909 10.2734 40.6704 10.2492 44.1248C10.225 47.5792 13.1571 50.4003 16.7982 50.4259Z" fill="#C2BFB7" fill-opacity="0.7" stroke="#3F5540" stroke-width="1.5" stroke-linecap="round" stroke-linejoin="round"/>
    <path d="M36.013 50.4239C39.654 50.4495 42.6253 47.6699 42.6495 44.2155C42.6737 40.7611 39.7416 37.9401 36.1005 37.9145C32.4595 37.8889 29.4882 40.6685 29.464 44.1229C29.4398 47.5772 32.3719 50.3983 36.013 50.4239Z" fill="#C2BFB7" fill-opacity="0.7" stroke="#3F5540" stroke-width="1.5" stroke-linecap="round" stroke-linejoin="round"/>
    <path d="M26.3008 1.49121L26.2625 6.96461" stroke="#3F5540" stroke-width="1.5" stroke-linecap="round" stroke-linejoin="round"/>
  </symbol>
  <symbol viewBox="0 0 49 46" fill="none" xmlns="http://www.w3.org/2000/svg" id="house-pan">
    <path d="M24.5 38.6557C39.14 38.6557 47.375 31.3602 47.375 18.3906H1.625C1.625 31.3602 9.86 38.6557 24.5 38.6557Z" fill="#C2BFB7" fill-opacity="0.7" stroke="#3F5540" stroke-width="1.5" stroke-linecap="round" stroke-linejoin="round"/>
    <path d="M24.5039 1.5L24.5039 10.2172" stroke="#3F5540" stroke-width="1.5" stroke-linecap="round" stroke-linejoin="round"/>
    <path d="M14.4336 37.2998L12.5687 44.5006" stroke="#3F5540" stroke-width="1.5" stroke-linecap="round" stroke-linejoin="round"/>
    <path d="M34.5742 37.2988L36.4391 44.4996" stroke="#3F5540" stroke-width="1.5" stroke-linecap="round" stroke-linejoin="round"/>
    <path d="M36.4336 5.02344L36.4336 9.38202" stroke="#3F5540" stroke-width="1.5" stroke-linecap="round" stroke-linejoin="round"/>
    <path d="M12.5664 5.02344L12.5664 9.38202" stroke="#3F5540" stroke-width="1.5" stroke-linecap="round" stroke-linejoin="round"/>
  </symbol>
  <symbol viewBox="0 0 80 85" fill="none" xmlns="http://www.w3.org/2000/svg" preserveAspectRatio="none" id="curve-houses">
    <path d="M74.2375 3.9189C74.6187 5.34148 76.0809 6.1857 77.5035 5.80452C78.9261 5.42334 79.7703 3.96111 79.3891 2.53853C79.0079 1.11596 77.5457 0.271736 76.1231 0.652915C74.7006 1.03409 73.8563 2.49632 74.2375 3.9189ZM3.79932 84.0898C3.97546 84.3025 4.29066 84.3321 4.50332 84.1559L7.96895 81.2855C8.18162 81.1094 8.21123 80.7942 8.03508 80.5815C7.85894 80.3688 7.54375 80.3392 7.33108 80.5154L4.25052 83.0669L1.69902 79.9863C1.52287 79.7736 1.20768 79.744 0.995011 79.9202C0.782342 80.0963 0.752733 80.4115 0.928878 80.6242L3.79932 84.0898ZM76.6839 2.74575C65.4931 5.74431 48.4416 13.3824 33.5899 26.5638C18.731 39.7515 6.05546 58.5063 3.68658 83.7241L4.68219 83.8176C7.02207 58.9087 19.5371 40.3731 34.2537 27.3117C48.9773 14.244 65.8858 6.67437 76.9427 3.71168L76.6839 2.74575Z" fill="#3F5540"/>
  </symbol>
<!-- booking -->
  <symbol viewBox="0 0 18 19" fill="none" xmlns="http://www.w3.org/2000/svg" preserveAspectRatio="none" id="price-houses">
    <path d="M10.4286 1.26067L3.17115 5.57199L14.5004 6.64766L12.3675 1.8758C12.0351 1.13225 11.1288 0.844707 10.4286 1.26067Z" fill="#FAFAFA"/>
    <path d="M1.36004 14.9475C1.57908 16.2446 2.60783 17.2928 3.90699 17.4993C5.19698 17.7043 6.36173 17.9048 8.15269 17.9174C9.94366 17.9299 11.1111 17.7457 12.4038 17.5589C13.7058 17.3707 14.7491 16.337 14.9863 15.0431C15.1694 14.0448 15.336 13.1779 15.3478 11.4988C15.3595 9.81964 15.2051 8.95052 15.0361 7.94975C14.8171 6.65265 13.7883 5.60438 12.4892 5.39795C11.1992 5.19296 10.0344 4.9924 8.24345 4.97984C6.45248 4.96728 5.28503 5.15148 3.99229 5.33834C2.69036 5.52654 1.64702 6.56027 1.4098 7.85416C1.22678 8.85246 1.06015 9.71933 1.04837 11.3985C1.03659 13.0776 1.19104 13.9467 1.36004 14.9475Z" fill="#C2BFB7" fill-opacity="0.7" stroke="#3F5540" stroke-width="1.5"/>
    <path d="M16.0318 13.4748L11.5844 13.4436C10.4562 13.4357 9.54807 12.5147 9.55598 11.3865C9.5639 10.2583 10.4849 9.35017 11.6131 9.35808L16.0605 9.38928C16.6128 9.39315 17.0573 9.844 17.0535 10.3963L17.0388 12.4819C17.035 13.0341 16.5841 13.4787 16.0318 13.4748Z" fill="#FAFAFA" stroke="#3F5540" stroke-width="1.5" stroke-linecap="round"/>
    <path d="M3.17115 5.57199L10.4286 1.26067C11.1288 0.844707 12.0351 1.13225 12.3675 1.8758L14.5004 6.64766" stroke="#3F5540" stroke-width="1.5" stroke-linecap="round"/>
  </symbol>
  <symbol viewBox="0 0 24 22" fill="none" xmlns="http://www.w3.org/2000/svg" preserveAspectRatio="none" id="guests-houses">
    <path d="M15.8749 10.8334C18.146 10.8494 20 9.02116 20.016 6.75003C20.0319 4.47889 18.2037 2.62486 15.9326 2.60892C13.6614 2.59299 11.8074 4.4212 11.7915 6.69233C11.7755 8.96347 13.6037 10.8175 15.8749 10.8334Z" fill="#C2BFB7" fill-opacity="0.7"/>
    <path d="M15.8778 10.8346C18.1489 10.8506 20.0029 9.02236 20.0189 6.75123C20.0312 4.99437 18.94 3.4871 17.3939 2.8872" stroke="#3F5540" stroke-width="1.5" stroke-linecap="round" stroke-linejoin="round"/>
    <path d="M21.4543 16.6496C23.4564 18.0035 22.08 20.5779 19.6632 20.5609L10.5873 20.4972C8.17051 20.4803 6.83036 17.8868 8.85127 16.5612C10.664 15.3722 12.8357 14.687 15.1661 14.7034C17.4966 14.7197 19.6585 15.4353 21.4543 16.6496Z" fill="#C2BFB7" fill-opacity="0.7"/>
    <path d="M8.96151 9.96902C11.4234 9.98629 13.4332 8.00453 13.4504 5.54264C13.4677 3.08075 11.4859 1.071 9.02405 1.05373C6.56216 1.03646 4.55241 3.01822 4.53514 5.4801C4.51787 7.94199 6.49962 9.95175 8.96151 9.96902Z" fill="#C2BFB7" fill-opacity="0.7" stroke="#3F5540" stroke-width="1.5" stroke-linecap="round" stroke-linejoin="round"/>
    <path d="M15.7459 16.2812C17.9162 17.7488 16.4241 20.5394 13.8043 20.521L3.96617 20.452C1.34636 20.4336 -0.106346 17.6224 2.0843 16.1854C4.04926 14.8965 6.40341 14.1538 8.92956 14.1715C11.4557 14.1893 13.7992 14.9649 15.7459 16.2812Z" fill="#C2BFB7" fill-opacity="0.7" stroke="#3F5540" stroke-width="1.5"/>
    <path d="M13.4267 20.5179L19.6623 20.5617C22.0792 20.5786 23.4556 18.0042 21.4534 16.6504C20.9006 16.2766 20.3131 15.95 19.6966 15.6766" stroke="#3F5540" stroke-width="1.5" stroke-linecap="round"/>
  </symbol>
  <!-- cloud -->
  <symbol viewBox="0 0 282 267" fill="none" xmlns="http://www.w3.org/2000/svg" preserveAspectRatio="none" id="house-cloud-decor">
    <g filter="url(#filter0_f_3129_21741)">
    <path d="M237.969 55.2685C239.27 49.894 238.088 45.131 235.162 40.1014C234.309 37.4703 233.582 34.161 230.757 32.07C226.802 29.1424 224.375 29.9457 218.996 30.7264C213.825 31.4769 209.26 31.5702 203.992 32.3088C198.937 33.0174 195.546 34.8434 190.923 36.22C184.943 38.0008 179.932 45.7746 179.452 49.4763C178.919 53.5863 184.994 56.4112 184.631 60.1052C184.376 62.7011 182.319 66.69 179.017 68.4054C175.913 70.0175 167.11 69.3525 163.335 69.6892C153.873 70.533 146.928 70.4991 140.15 74.8544C135.691 77.7201 134.372 81.6334 129.551 84.289C126.249 86.1075 119.523 85.7257 115.417 86.3491C108.415 87.4125 101.1 88.9949 95.6213 91.992C90.5586 94.7615 85.724 100.25 84.4407 104.472C83.1757 108.634 74.6234 108.71 71.566 111.817C66.7317 116.728 63.0751 121.055 56.5132 125.103C48.6599 129.947 47.9577 134.423 47.8494 140.837C47.7811 144.882 46.1575 149.108 49.9307 152.661C51.1978 153.854 51.4734 154.945 51.2859 156.333C50.0812 165.25 37.4501 171.759 32.0706 179.502C27.2527 186.436 31.3229 191.768 39.3308 196.609C42.5728 198.569 46.6026 200.179 49.4467 202.372C50.7206 203.354 51.1947 204.465 52.6895 205.387C55.8427 207.332 59.1283 207.284 63.3378 207.776C69.8704 208.539 75.457 210.787 81.0526 212.911C91.5215 216.885 99.2851 224.151 110.771 226.615C115.588 227.649 119.643 228.605 123.936 230.288C131.775 233.36 139.607 234.583 148.621 235.721C168.06 238.176 190.757 236.8 208.783 231.691C215.607 229.757 222.914 226.979 226.643 222.823C227.793 221.542 228.842 220.173 230.128 218.942C237.501 211.885 246.161 206.379 250.747 198.162C253.16 193.839 251.443 188.545 250.033 184.196L250.021 184.159C249.292 181.911 248.092 178.634 249.585 176.396C253.31 170.816 253.026 165.577 251.521 159.468C250.672 156.018 249.575 152.642 250.069 149.137C250.639 145.098 255.351 141.876 256.7 137.882C258.228 133.357 258.176 128.363 257.717 123.759C257.375 120.33 254.942 117.402 253.457 114.146C250.528 107.72 243.805 99.6336 246.681 92.7683C249.211 86.7296 250.755 80.7505 244.31 75.5411C236.925 69.5719 236.257 62.3454 237.969 55.2685Z" fill="#B3A189" fill-opacity="0.2"/>
    </g>
    <defs>
      <filter id="filter0_f_3129_21741" x="0" y="0" width="288" height="266.904" filterUnits="userSpaceOnUse" color-interpolation-filters="sRGB">
        <feFlood flood-opacity="0" result="BackgroundImageFix"/>
        <feBlend mode="normal" in="SourceGraphic" in2="BackgroundImageFix" result="shape"/>
        <feGaussianBlur stdDeviation="15" result="effect1_foregroundBlur_3129_21741"/>
      </filter>
    </defs>
  </symbol>
  <!-- arrow -->
  <symbol viewBox="0 0 94 8" fill="none" xmlns="http://www.w3.org/2000/svg" preserveAspectRatio="none" id="arrow-house-small">
    <path d="M0.333333 4C0.333333 5.47276 1.52724 6.66667 3 6.66667C4.47276 6.66667 5.66667 5.47276 5.66667 4C5.66667 2.52724 4.47276 1.33333 3 1.33333C1.52724 1.33333 0.333333 2.52724 0.333333 4ZM93.3536 4.35355C93.5488 4.15828 93.5488 3.8417 93.3536 3.64644L90.1716 0.464458C89.9763 0.269196 89.6597 0.269196 89.4645 0.464459C89.2692 0.659721 89.2692 0.976303 89.4645 1.17157L92.2929 3.99999L89.4645 6.82842C89.2692 7.02368 89.2692 7.34026 89.4645 7.53553C89.6597 7.73079 89.9763 7.73079 90.1716 7.53553L93.3536 4.35355ZM3 4.5L93 4.49999L93 3.49999L3 3.5L3 4.5Z" fill="#3F5540"/>
  </symbol>

  
  <symbol viewBox="0 0 181 118" fill="none" xmlns="http://www.w3.org/2000/svg" preserveAspectRatio="none" id="curve-house">
    <path d="M174.833 3C174.833 4.47276 176.027 5.66667 177.5 5.66667C178.973 5.66667 180.167 4.47276 180.167 3C180.167 1.52724 178.973 0.333333 177.5 0.333333C176.027 0.333333 174.833 1.52724 174.833 3ZM2.54602 117.21C2.66174 117.46 2.9588 117.57 3.20953 117.454L7.29535 115.568C7.54607 115.452 7.65552 115.155 7.5398 114.905C7.42408 114.654 7.12701 114.545 6.87629 114.66L3.24445 116.336L1.56822 112.705C1.4525 112.454 1.15544 112.344 0.904709 112.46C0.653983 112.576 0.544539 112.873 0.660259 113.124L2.54602 117.21ZM177.5 2.5C155.347 2.5 120.043 8.21478 86.0623 25.3536C52.0726 42.4967 19.3842 71.0823 2.53083 116.827L3.46917 117.173C20.2158 71.7177 52.6941 43.3033 86.5127 26.2464C120.34 9.18522 155.487 3.5 177.5 3.5V2.5Z" fill="#3F5540"/>
  </symbol>

<symbol viewBox="0 0 26 26" fill="none" xmlns="http://www.w3.org/2000/svg" id="house">
  <path d="M25 20.5939V12.4466C25 11.6619 24.9993 11.2693 24.9019 10.9042C24.8155 10.5806 24.6737 10.2744 24.4819 9.99764C24.2653 9.68539 23.9643 9.42645 23.3611 8.90973L16.1611 2.74185C15.0412 1.78248 14.4813 1.30303 13.8511 1.12058C13.2958 0.959808 12.7039 0.959808 12.1486 1.12058C11.5189 1.30289 10.9598 1.78189 9.84154 2.73981L2.63916 8.90973C2.03596 9.42646 1.73506 9.68539 1.51855 9.99764C1.32669 10.2744 1.18382 10.5806 1.09746 10.9042C1 11.2693 1 11.6619 1 12.4466V20.5939C1 21.9624 1 22.6464 1.22836 23.1862C1.53284 23.9059 2.11648 24.4783 2.85156 24.7764C3.40288 25 4.10179 25 5.49961 25C6.89744 25 7.59712 25 8.14844 24.7764C8.88352 24.4783 9.467 23.906 9.77148 23.1863C9.99985 22.6466 10 21.9623 10 20.5938V19.1253C10 17.5032 11.3431 16.1882 13 16.1882C14.6569 16.1882 16 17.5032 16 19.1253V20.5938C16 21.9623 16 22.6466 16.2284 23.1863C16.5328 23.906 17.1165 24.4783 17.8516 24.7764C18.4029 25 19.1018 25 20.4996 25C21.8974 25 22.5971 25 23.1484 24.7764C23.8835 24.4783 24.467 23.9059 24.7715 23.1862C24.9998 22.6464 25 21.9624 25 20.5939Z" stroke="#3F5540" stroke-width="2" stroke-linecap="round" stroke-linejoin="round"/>
</symbol>

<symbol viewBox="0 0 24 22" fill="none" xmlns="http://www.w3.org/2000/svg" id="guests">
  <path d="M15.8768 11.0424C18.148 11.0584 20.002 9.23015 20.0179 6.95901C20.0339 4.68788 18.2057 2.83384 15.9345 2.81791C13.6634 2.80198 11.8094 4.63018 11.7934 6.90132C11.7775 9.17246 13.6057 11.0265 15.8768 11.0424Z" fill="none"/>
  <path d="M15.8778 11.0436C18.1489 11.0596 20.0029 9.23135 20.0189 6.96021C20.0312 5.20335 18.94 3.69609 17.3939 3.09618" stroke="#3F5540" stroke-width="1.5" stroke-linecap="round" stroke-linejoin="round"/>
  <path d="M21.4543 16.8586C23.4564 18.2124 22.08 20.7868 19.6632 20.7699L10.5873 20.7062C8.17051 20.6893 6.83036 18.0958 8.85127 16.7702C10.664 15.5812 12.8357 14.896 15.1661 14.9124C17.4966 14.9287 19.6585 15.6443 21.4543 16.8586Z" fill="none"/>
  <path d="M8.96346 10.179C11.4254 10.1962 13.4351 8.21449 13.4524 5.7526C13.4696 3.29071 11.4879 1.28096 9.026 1.26369C6.56411 1.24642 4.55436 3.22818 4.53709 5.69006C4.51982 8.15195 6.50158 10.1617 8.96346 10.179Z" fill="none" stroke="#3F5540" stroke-width="1.5" stroke-linecap="round" stroke-linejoin="round"/>
  <path d="M15.7478 16.4912C17.9181 17.9587 16.4261 20.7494 13.8063 20.731L3.96812 20.662C1.34831 20.6436 -0.104393 17.8323 2.08625 16.3954C4.05121 15.1065 6.40537 14.3638 8.93151 14.3815C11.4577 14.3992 13.8012 15.1749 15.7478 16.4912Z" fill="none" stroke="#3F5540" stroke-width="1.5"/>
  <path d="M13.4267 20.7269L19.6623 20.7707C22.0792 20.7876 23.4556 18.2132 21.4534 16.8594C20.9006 16.4855 20.3131 16.159 19.6966 15.8855" stroke="#3F5540" stroke-width="1.5" stroke-linecap="round"/>
</symbol>

<symbol viewBox="0 0 24 25" fill="none" xmlns="http://www.w3.org/2000/svg" id="bath">
  <path d="M5.12532 18.398C7.20519 18.6785 9.35322 18.9526 11.5522 18.968C13.7511 18.9834 15.9028 18.7396 17.9864 18.4883C19.903 18.2571 21.4302 16.7188 21.6384 14.7995C21.864 12.7192 22.0898 10.5758 22.157 8.38407C22.1739 7.83204 21.7284 7.38109 21.1761 7.37721L2.09177 7.24334C1.5395 7.23947 1.08766 7.68413 1.09684 8.23634C1.13328 10.4288 1.32897 12.5751 1.52544 14.6584C1.70671 16.5804 3.21208 18.14 5.12532 18.398Z" fill="#C2BFB7" fill-opacity="0.7" stroke="#3F5540" stroke-width="1.5" stroke-linejoin="round"/>
<path d="M9.28257 12.0091C9.33793 12.4886 9.72021 12.8691 10.1999 12.9223C11.1669 13.0297 12.1741 13.1568 13.2098 13.1641C14.2454 13.1713 15.2543 13.0584 16.2227 12.9646C16.7031 12.918 17.0907 12.5429 17.1528 12.0643C17.2638 11.2086 17.3874 10.3186 17.3938 9.4041C17.4002 8.48959 17.2891 7.59797 17.1901 6.74078C17.1348 6.26132 16.7525 5.88082 16.2728 5.82755C15.3058 5.72018 14.2986 5.59307 13.2629 5.5858C12.2272 5.57854 11.2183 5.69151 10.25 5.7853C9.76957 5.83183 9.382 6.20693 9.31991 6.68557C9.20892 7.54129 9.0853 8.43127 9.07889 9.34577C9.07247 10.2603 9.18359 11.1519 9.28257 12.0091Z" fill="#C2BFB7" fill-opacity="0.7" stroke="#3F5540" stroke-width="1.5" stroke-linejoin="round"/>
<path d="M4.90387 18.1387C4.89802 18.9729 4.44708 19.6737 3.49477 20.2666" stroke="#3F5540" stroke-width="1.5" stroke-linecap="round" stroke-linejoin="round"/>
<path d="M18.2192 18.2324C18.2133 19.0666 18.6544 19.7736 19.5983 20.3799" stroke="#3F5540" stroke-width="1.5" stroke-linecap="round" stroke-linejoin="round"/>
</symbol>

<symbol viewBox="0 0 24 25" fill="none" xmlns="http://www.w3.org/2000/svg" id="tv">
  <path d="M19.5 15.364V7.90816C19.5 7.08461 18.8284 6.41699 18 6.41699L6 6.41699C5.17157 6.41699 4.5 7.08461 4.5 7.90816V15.364C4.5 16.1876 5.17157 16.8552 6 16.8552H18C18.8284 16.8552 19.5 16.1876 19.5 15.364Z" fill="#C2BFB7" fill-opacity="0.7" stroke="#3F5540" stroke-width="2" stroke-miterlimit="10"/>
  <path d="M7.5 20.5839C8.79822 19.616 10.3772 19.0928 12 19.0928C13.6228 19.0928 15.2018 19.616 16.5 20.5839" stroke="#3F5540" stroke-width="2" stroke-miterlimit="10"/>
</symbol>

<symbol viewBox="0 0 24 25" fill="none" xmlns="http://www.w3.org/2000/svg" id="parking">
  <path d="M17.8566 10.8233C17.808 9.62738 17.4933 8.46531 16.9545 7.34629C16.7688 6.96058 16.4216 6.69798 16.0251 6.60978C14.6871 6.31216 13.662 6.16446 12.0253 6.15296C10.3916 6.14147 9.31815 6.27393 8.03397 6.55208C7.65072 6.63509 7.3126 6.88311 7.12539 7.25121C6.57228 8.33879 6.23992 9.515 6.17024 10.7088C5.64414 10.8265 5.11312 10.956 4.57248 11.0946C4.0329 11.2329 3.61395 11.6899 3.46307 12.2622C3.45504 12.2927 3.44698 12.3232 3.43892 12.3538C3.21808 13.1904 2.98915 14.0577 2.98291 14.9482C2.97705 15.7858 3.16848 16.6056 3.36525 17.3988C3.53746 18.0929 4.11003 18.6024 4.77929 18.6389C5.22602 18.6633 5.67692 18.6894 6.13173 18.7157C8.01225 18.8244 9.95961 18.9369 11.955 18.9509C13.9504 18.965 15.8992 18.8798 17.781 18.7975C18.2362 18.7776 18.6874 18.7579 19.1344 18.7398C19.8041 18.7127 20.3838 18.2113 20.5657 17.5197C20.7735 16.7293 20.9764 15.9123 20.9823 15.0747C20.9885 14.1842 20.7717 13.3138 20.5626 12.4741C20.5568 12.4507 20.551 12.4273 20.5452 12.404C20.3994 11.8182 19.973 11.3506 19.423 11.2099C18.9053 11.0774 18.3832 10.9468 17.8566 10.8233Z" fill="#C2BFB7" fill-opacity="0.7" stroke="#3F5540" stroke-width="1.5" stroke-linejoin="round"/>
  <path d="M8.27838 20.9743C9.54484 20.9832 10.5783 20.0189 10.5867 18.8204C10.5951 17.6219 9.57522 16.6432 8.30876 16.6343C7.0423 16.6254 6.00882 17.5897 6.00043 18.7882C5.99205 19.9866 7.01192 20.9654 8.27838 20.9743Z" fill="#C2BFB7" fill-opacity="0.7" stroke="#3F5540" stroke-width="1.5" stroke-linecap="round" stroke-linejoin="round"/>
  <path d="M14.962 20.9762C16.2284 20.9851 17.2619 20.0208 17.2703 18.8223C17.2787 17.6239 16.2588 16.6451 14.9923 16.6362C13.7259 16.6273 12.6924 17.5917 12.684 18.7901C12.6756 19.9886 13.6955 20.9673 14.962 20.9762Z" fill="#C2BFB7" fill-opacity="0.7" stroke="#3F5540" stroke-width="1.5" stroke-linecap="round" stroke-linejoin="round"/>
  <path d="M11.584 3.99707L11.5707 5.896" stroke="#3F5540" stroke-width="1.5" stroke-linecap="round" stroke-linejoin="round"/>
</symbol>

  <symbol viewBox="0 0 25 25" fill="none" xmlns="http://www.w3.org/2000/svg" id="kitchen">
    <path d="M12.0379 19.1373C17.1578 19.1732 20.0592 16.1393 20.0973 10.7099L4.09766 10.5977C4.05957 16.0271 6.91808 19.1013 12.0379 19.1373Z" fill="#C2BFB7" fill-opacity="0.7" stroke="#3F5540" stroke-width="1.5" stroke-linecap="round" stroke-linejoin="round"/>
    <path d="M12.1484 3.58398L12.1228 7.23301" stroke="#3F5540" stroke-width="1.5" stroke-linecap="round" stroke-linejoin="round"/>
    <path d="M8.52148 18.5449L7.8482 21.5546" stroke="#3F5540" stroke-width="1.5" stroke-linecap="round" stroke-linejoin="round"/>
    <path d="M15.5645 18.5938L16.1955 21.6126" stroke="#3F5540" stroke-width="1.5" stroke-linecap="round" stroke-linejoin="round"/>
    <path d="M16.3105 5.08984L16.2977 6.91436" stroke="#3F5540" stroke-width="1.5" stroke-linecap="round" stroke-linejoin="round"/>
    <path d="M7.96289 5.03125L7.95009 6.85576" stroke="#3F5540" stroke-width="1.5" stroke-linecap="round" stroke-linejoin="round"/>
  </symbol>

  <symbol viewBox="0 0 24 24" fill="none" xmlns="http://www.w3.org/2000/svg" id="pocket">
    <path d="M13.4266 3.26067L6.1692 7.57199L17.4984 8.64766L15.3655 3.8758C15.0332 3.13225 14.1268 2.84471 13.4266 3.26067Z" fill="#FAFAFA"/>
    <path d="M4.35809 16.9475C4.57713 18.2446 5.60587 19.2928 6.90503 19.4993C8.19502 19.7043 9.35978 19.9048 11.1507 19.9174C12.9417 19.9299 14.1092 19.7457 15.4019 19.5589C16.7038 19.3707 17.7472 18.337 17.9844 17.0431C18.1674 16.0448 18.334 15.1779 18.3458 13.4988C18.3576 11.8196 18.2031 10.9505 18.0341 9.94975C17.8151 8.65265 16.7864 7.60438 15.4872 7.39795C14.1972 7.19296 13.0325 6.9924 11.2415 6.97984C9.45053 6.96728 8.28308 7.15148 6.99034 7.33834C5.68841 7.52654 4.64506 8.56027 4.40785 9.85416C4.22482 10.8525 4.0582 11.7193 4.04642 13.3985C4.03464 15.0776 4.18909 15.9467 4.35809 16.9475Z" fill="#C2BFB7" fill-opacity="0.7" stroke="#3F5540" stroke-width="1.5"/>
    <path d="M19.0318 15.4748L14.5844 15.4436C13.4562 15.4357 12.5481 14.5147 12.556 13.3865C12.5639 12.2583 13.4849 11.3502 14.6131 11.3581L19.0605 11.3893C19.6128 11.3932 20.0573 11.844 20.0535 12.3963L20.0388 14.4819C20.035 15.0341 19.5841 15.4787 19.0318 15.4748Z" fill="#FAFAFA" stroke="#3F5540" stroke-width="1.5" stroke-linecap="round"/>
    <path d="M6.1692 7.57199L13.4266 3.26067C14.1268 2.84471 15.0332 3.13225 15.3655 3.8758L17.4984 8.64766" stroke="#3F5540" stroke-width="1.5" stroke-linecap="round"/>
  </symbol>

  <symbol viewBox="0 0 253 74" fill="none" xmlns="http://www.w3.org/2000/svg" id="ellipse" preserveAspectRatio='none'>
    <path d="M44.1531 65.3437C82.3833 72.5557 171.767 81.1114 223.458 57.6376C275.15 34.1639 244.997 16.0449 223.458 9.9196C185.013 -0.157536 95.9485 -7.35002 37.3685 20.8859C-19.8158 48.4491 2.90744 60.9967 21.861 62.6763" stroke="#3F5540"/>
  </symbol>




  <!-- askGrandpa block icon -->
  <symbol viewBox="0 0 24 24" fill="none" xmlns="http://www.w3.org/2000/svg" id='close'>
    <rect x="0.5" y="0.5" width="23" height="23" rx="11.5" stroke="#0C0C0C" />
    <path
      d="M12.7776 12.0054L17.8413 6.95881C18.0529 6.74527 18.0529 6.39933 17.8413 6.18579C17.6335 5.96843 17.2903 5.9619 17.0745 6.1712L12.0109 11.2178L7.01226 6.1712C6.90978 6.06192 6.76719 6 6.61802 6C6.46884 6 6.32625 6.06192 6.22377 6.1712C6.0362 6.37752 6.0362 6.69416 6.22377 6.90047L11.2224 11.9397L6.15867 16.979C5.94711 17.1925 5.94711 17.5385 6.15867 17.752C6.25938 17.856 6.3979 17.914 6.54206 17.9125C6.689 17.9245 6.83468 17.8773 6.94716 17.7812L12.0109 12.7346L17.0745 17.8395C17.1753 17.9435 17.3138 18.0015 17.4579 18C17.6019 18.0007 17.7401 17.9428 17.8413 17.8395C18.0529 17.626 18.0529 17.28 17.8413 17.0665L12.7776 12.0054Z"
      fill="#0C0C0C"
    />
  </symbol>

  <symbol viewBox="0 0 27 23" fill="none" xmlns="http://www.w3.org/2000/svg" id='telegramAsk'>
    <path fillRule="evenodd" clipRule="evenodd" d="M1.86403 9.74591C8.86052 6.69766 13.5259 4.68806 15.8603 3.71712C22.5254 0.944901 23.9103 0.463337 24.813 0.447435C25.0115 0.443938 25.4554 0.493141 25.743 0.726467C25.9858 0.923483 26.0526 1.18962 26.0846 1.37642C26.1165 1.56321 26.1563 1.98873 26.1247 2.32122C25.7635 6.11618 24.2007 15.3256 23.4056 19.576C23.0692 21.3745 22.4067 21.9775 21.7654 22.0365C20.3717 22.1648 19.3134 21.1155 17.9635 20.2306C15.8512 18.846 14.6578 17.984 12.6075 16.6328C10.2379 15.0713 11.774 14.2131 13.1244 12.8105C13.4778 12.4435 19.6186 6.85797 19.7374 6.35127C19.7523 6.2879 19.7661 6.05169 19.6258 5.92696C19.4854 5.80223 19.2783 5.84488 19.1289 5.8788C18.917 5.92689 15.5426 8.15727 9.00553 12.5699C8.0477 13.2277 7.18013 13.5481 6.40282 13.5313C5.5459 13.5128 3.89752 13.0468 2.67212 12.6485C1.16912 12.1599 -0.0254392 11.9016 0.0785799 11.0719C0.132759 10.6397 0.727909 10.1977 1.86403 9.74591Z"
      fill="#FEFEFE"/>
  </symbol>

</svg>

