<svg width="338" height="239" viewBox="0 0 338 239" fill="none" xmlns="http://www.w3.org/2000/svg">
<path d="M177.11 154.043C176.561 154.91 176.729 156.118 176.485 157.121C176.276 157.983 176.107 158.23 176.788 158.834C177.389 159.368 178.041 159.498 178.784 159.459C179.289 159.432 179.545 158.968 180.014 158.834" stroke="#645841" stroke-linecap="round"/>
<path d="M180.015 158.835C180.313 157.516 181.915 156.358 181.83 155.04C181.778 154.234 180.629 153.396 180.197 152.818C179.94 152.473 178.819 152.438 178.473 152.621C177.406 153.186 176.91 154.299 176.749 155.502" stroke="#645841" stroke-linecap="round"/>
<path d="M138.836 119.696C138.632 119.602 139.398 118.487 139.556 118.317C140.053 117.781 140.546 117.481 141.227 117.39C141.537 117.349 142.066 117.25 142.273 117.606C142.425 117.868 142.694 117.926 142.941 117.967" stroke="#645841" stroke-linecap="round"/>
<path d="M138.567 120.119C139.058 120.606 139.579 121.065 139.996 121.629C140.681 122.557 141.664 123.152 142.38 124.065C142.676 124.442 142.996 124.582 143.336 124.862C143.688 125.152 144.001 125.52 144.353 125.817C144.798 126.193 145.17 126.602 145.545 127.068C145.944 127.563 146.156 128.161 146.532 128.66C147.129 129.453 147.489 130.413 148.166 131.132C149.114 132.138 150.161 133.034 151.177 133.946C151.803 134.508 152.486 134.902 153.242 135.243C154.05 135.608 154.768 135.589 155.308 136.364" stroke="#645841" stroke-linecap="round"/>
<path d="M155.864 137.426C156.554 138.218 157.137 139.13 157.837 139.903C158.133 140.23 158.52 140.371 158.819 140.682C159.171 141.048 159.48 141.48 159.821 141.862C161.822 144.105 164.273 145.621 166.567 147.4C167.091 147.806 167.511 148.339 168.022 148.763C168.655 149.289 169.322 149.698 169.902 150.308C170.942 151.403 172.088 152.385 173.237 153.323C174.166 154.081 175 154.677 175.693 155.729C175.934 156.095 176.188 156.495 176.397 156.856" stroke="#645841" stroke-linecap="round"/>
<path d="M160.765 135.406C161.31 136.519 162.578 137.22 163.467 137.895C164.791 138.9 165.926 140.205 167.259 141.216C168.373 142.061 169.584 142.856 170.569 143.9C171.449 144.834 172.528 145.335 173.333 146.401C173.763 146.971 174.142 147.677 174.689 148.112C174.976 148.34 175.348 148.505 175.65 148.708C176.492 149.272 177.175 149.99 178.045 150.489C178.651 150.837 179.105 151.431 179.684 151.816C180.184 152.149 180.423 152.82 180.742 153.35" stroke="#645841" stroke-linecap="round"/>
<path d="M163.542 208.271C163.542 207.119 163.874 205.995 163.969 204.85C164.084 203.466 163.977 202.016 163.977 200.626C163.977 198.38 163.977 196.133 163.977 193.887C163.977 191.711 163.977 189.536 163.977 187.361C163.977 186.583 163.935 185.788 163.977 185.013C164.007 184.45 164.412 184.167 164.412 183.57C164.412 182.098 164.412 180.625 164.412 179.152C164.412 177.21 164.412 175.269 164.412 173.328C164.412 170.381 164.159 167.272 164.428 164.343C164.491 163.651 164.702 163.1 164.702 162.383C164.702 161.366 164.702 160.349 164.702 159.332C164.702 157.73 164.702 156.128 164.702 154.525C164.702 153.392 165.136 152.504 165.136 151.364C165.136 150.421 165.136 149.478 165.136 148.535" stroke="#645841" stroke-linecap="round"/>
<path d="M169.778 162.348C168.732 166.098 169.198 170.389 169.198 174.337C169.198 178.885 169.198 183.434 169.198 187.982C169.198 188.952 169.198 189.923 169.198 190.894C169.198 191.409 169.24 191.954 169.174 192.465C169.096 193.059 168.788 193.558 168.763 194.166C168.686 196.061 168.763 197.982 168.763 199.879C168.763 201.487 168.763 203.096 168.763 204.704C168.763 206.022 168.886 207.099 168.328 208.273" stroke="#645841" stroke-linecap="round"/>
<path d="M163.615 208.055C163.905 209.386 165.57 210.051 166.625 210.076C167.138 210.088 167.709 210.02 168.153 209.696C168.536 209.416 168.63 208.86 168.75 208.393" stroke="#645841" stroke-linecap="round"/>
<path d="M90.0853 157.416C90.0853 162.578 90.0428 167.743 90.0853 172.904C90.0978 174.432 90.3359 175.727 90.6382 177.202C90.9989 178.962 90.8646 180.72 91.3649 182.443C91.8877 184.244 91.5352 186.196 92.218 187.92C92.7247 189.2 92.6172 190.47 92.8025 191.838C93.1399 194.328 94.0066 196.879 94.0664 199.382C94.1254 201.856 94.0664 204.343 94.0664 206.818C94.0664 209.809 93.3645 214.325 94.3507 217.155" stroke="#645841" stroke-linecap="round"/>
<path d="M96.9111 162.311C96.9111 164.16 96.9111 166.01 96.9111 167.86C96.9111 171.172 98.0886 174.301 98.3014 177.599C98.706 183.871 97.8704 190.253 98.3961 196.515C98.5864 198.781 99.1744 200.743 99.897 202.844C100.405 204.321 100.175 205.864 100.576 207.36C100.827 208.294 101.461 209.151 101.461 210.153C101.461 212.051 101.461 213.949 101.461 215.847" stroke="#645841" stroke-linecap="round"/>
<path d="M94.3506 217.481C94.5255 219.623 96.5563 219.766 98.0473 219.766C100.073 219.766 100.472 218.203 101.46 216.502" stroke="#645841" stroke-linecap="round"/>
<path d="M97.8821 161.348C97.7414 162.074 97.5165 163.379 97.9465 164.047C98.7253 165.256 99.2074 165.674 100.483 165.674C101.428 165.674 101.828 165.502 102.359 164.5C102.775 163.716 103.68 162.53 103.68 161.606C103.68 160.497 102.864 159.932 102.343 159.055C101.814 158.165 100.429 158.352 99.6295 158.352C97.9439 158.352 98.172 160.198 98.172 161.68" stroke="#645841" stroke-linecap="round"/>
<path d="M70.9219 120.25C71.3728 122.062 72.8613 123.464 73.7483 125.011C74.4201 126.182 74.9156 127.471 75.6729 128.579C76.34 129.555 77.0304 130.505 77.678 131.5C78.7517 133.151 79.9006 134.653 80.9232 136.353C82.3957 138.801 84.1704 141.055 85.4648 143.638C86.0885 144.882 86.6437 146.008 87.5021 147.076C88.2531 148.012 88.7479 149.009 89.4428 149.97C90.1924 151.006 91.2666 151.732 91.9713 152.78C92.4648 153.515 92.8042 154.293 93.3563 154.999C94.4352 156.378 95.2383 157.969 96.1908 159.427C96.5299 159.946 96.8091 161.208 97.3021 161.349" stroke="#645841" stroke-linecap="round"/>
<path d="M70.9243 119.416C70.2428 116.678 72.4381 116.754 74.1131 116.754" stroke="#645841" stroke-linecap="round"/>
<path d="M74.8379 116.59C75.2596 118.849 77.3565 119.836 78.7273 121.147C80.5063 122.849 81.2244 125.524 82.6328 127.572C83.3903 128.673 83.9711 129.945 84.662 131.103C85.4529 132.429 85.8558 133.996 86.659 135.3C88.2854 137.94 90.2111 140.514 91.5953 143.333C92.9308 146.053 94.7322 148.766 96.4832 151.163C97.569 152.65 98.4481 154.361 99.6961 155.683C100.408 156.437 101.05 156.865 101.572 157.819C101.837 158.301 101.847 159.132 102.233 159.353" stroke="#645841" stroke-linecap="round"/>
<path d="M142.871 118.131C143.757 120.02 145.21 121.5 146.949 122.325C147.61 122.639 148.021 123.184 148.57 123.713C149.658 124.761 150.585 125.969 151.812 126.815C152.597 127.355 153.188 128.088 153.858 128.794C154.388 129.353 155.004 129.742 155.453 130.396C156.049 131.264 156.903 132.244 157.782 132.759C158.631 133.257 159.668 133.692 160.355 134.48C160.55 134.704 160.877 135.311 161.049 135.41" stroke="#645841" stroke-linecap="round"/>
<path d="M169.831 161.419C168.968 158.602 169.595 155.438 170.386 152.713" stroke="#645841" stroke-linecap="round"/>
<path d="M101.808 220.076C101.358 220.076 102.635 220.398 102.705 220.435C103.336 220.768 103.712 221.388 104.308 221.766C105.46 222.497 106.309 223.806 107.433 224.451" stroke="#645841" stroke-linecap="round"/>
<path d="M100.539 219.451C100.462 220.725 100.114 221.882 100.196 223.189C100.31 225.027 101.284 225.565 102.635 226.279C103.863 226.928 106.215 227.507 107.474 226.661C108.213 226.164 108.417 224.959 108.885 224.242" stroke="#645841" stroke-linecap="round"/>
<path d="M101.992 219.243C104.948 219.243 107.672 218.348 110.611 218.213C111.842 218.157 112.699 217.787 113.867 217.461C115.005 217.144 116.148 216.535 117.295 216.535C118.039 216.535 118.921 216.689 119.654 216.512C120.321 216.351 120.826 216.08 121.579 216.015C122.99 215.892 123.987 214.879 125.45 214.695C126.88 214.516 128.194 214.598 129.613 214.244C130.915 213.919 132.339 213.707 133.666 213.527C135.462 213.282 137.188 213.223 138.888 212.369C139.317 212.153 139.704 211.578 140.178 211.536C140.754 211.485 141.335 211.429 141.892 211.235C143.055 210.83 144.137 210.967 145.208 210.414C146.65 209.669 148.613 209.543 150.148 209.245C151.382 209.005 152.587 209.096 153.827 208.99C154.623 208.923 155.41 208.868 156.206 208.828C156.833 208.797 157.387 208.292 157.98 208.088C158.883 207.777 159.472 206.694 160.339 206.537C160.926 206.431 161.322 205.944 161.972 205.912C162.734 205.875 162.857 205.93 163.323 205.287" stroke="#645841" stroke-linecap="round"/>
<path d="M169.308 209.035C167.882 207.726 170.806 209.696 171.304 210.077" stroke="#645841" stroke-linecap="round"/>
<path d="M109.976 224.45C112.633 223.96 115.299 222.575 117.98 222.575C119.439 222.575 120.742 222.008 122.214 221.95C123.786 221.889 125.503 221.597 127.052 221.233C129.524 220.651 132.054 219.659 134.603 219.659C136.668 219.659 138.869 219.963 140.873 219.346C141.933 219.02 143.001 218.943 143.968 218.293C144.503 217.933 144.817 217.789 145.429 217.657C148.736 216.945 152.002 216.239 155.258 215.331C156.057 215.108 156.864 214.895 157.677 214.752C158.186 214.663 158.69 214.782 159.069 214.347C159.574 213.767 161.414 213.544 162.163 213.433C163.933 213.171 165.652 213.19 167.274 212.114C167.728 211.813 168.532 210.944 169.028 210.91C169.903 210.851 170.393 210.885 171.125 210.285" stroke="#645841" stroke-linecap="round"/>
<path d="M107.979 227.368C108.578 226.919 109.27 226.869 109.955 226.697C110.547 226.547 111.095 226.177 111.699 226.129C113.272 226.005 114.753 225.339 116.306 225.042C116.924 224.923 117.474 224.474 118.101 224.313C119.114 224.051 120.094 223.827 121.135 223.827C122.677 223.827 124.275 223.98 125.792 223.607C127.051 223.297 128.434 223.363 129.633 222.854C131.223 222.18 132.957 221.64 134.593 221.119C136.895 220.384 139.258 219.934 141.589 219.336C142.784 219.03 143.748 218.432 145.016 218.411C145.868 218.396 146.811 218.562 147.647 218.376C148.618 218.16 149.291 217.786 150.298 217.786C152.314 217.786 154.331 217.786 156.347 217.786C156.731 217.786 156.936 217.674 157.274 217.473C157.955 217.069 158.681 217.274 159.391 217.022C160.107 216.768 160.558 216.375 161.347 216.339C162.117 216.304 162.786 216.311 163.504 215.957C164.306 215.563 164.901 215.125 165.641 214.592C166.563 213.927 167.522 213.877 168.403 213.203" stroke="#645841" stroke-linecap="round"/>
<path d="M105.62 209.66C106.881 210.022 107.988 211.337 108.886 212.368" stroke="#645841" stroke-linecap="round"/>
<path d="M102.716 210.492C101.506 212.055 103.097 214.16 104.067 215.191C104.706 215.868 106.247 216.607 107.132 216.487C108.108 216.354 108.486 215.326 109.067 214.658" stroke="#645841" stroke-linecap="round"/>
<path d="M105.62 209.661C106.738 209.215 108 209.324 109.128 208.99C109.947 208.748 110.735 208.256 111.507 207.879C112.001 207.638 112.671 207.817 113.191 207.752C114.081 207.64 114.869 207.167 115.741 207C116.706 206.815 117.7 206.649 118.665 206.49C119.912 206.286 121.095 205.874 122.354 205.75C123.761 205.611 125.197 205.704 126.608 205.704C127.471 205.704 128.501 205.881 129.29 205.542C129.884 205.286 130.558 205.346 131.165 205.067C131.685 204.828 132.078 204.477 132.657 204.454C134.773 204.367 136.555 204.396 138.624 203.736C139.213 203.548 139.764 203.122 140.368 203.019C140.744 202.955 141.138 203.062 141.507 202.949C142.774 202.562 144.14 202.912 145.439 202.695C146.334 202.545 147.294 202.423 148.181 202.209C149.485 201.893 150.893 202.17 152.173 201.7C153.567 201.187 154.865 200.833 156.326 200.589C157.132 200.454 157.602 200.458 158.241 199.871" stroke="#645841" stroke-linecap="round"/>
<path d="M158.965 199.871C159.999 200.858 161.4 202.353 162.775 202.579" stroke="#645841" stroke-linecap="round"/>
<path d="M110.882 213.41C114.022 213.41 117.108 212.958 120.237 212.774C121.027 212.727 121.848 212.61 122.616 212.392C123.826 212.047 125.303 212.079 126.446 211.605C128.62 210.704 130.824 210.406 133.14 210.031C135.307 209.681 137.552 210.252 139.652 209.545C141.007 209.089 142.342 209.152 143.725 209.001C145.603 208.796 147.321 207.996 149.118 207.416C151.231 206.733 153.885 206.576 156.064 206.536C157.03 206.519 157.591 206.387 158.443 205.796C159.454 205.093 159.982 204.75 161.144 204.453" stroke="#645841" stroke-linecap="round"/>
<path d="M99.0879 200.702C99.747 200.427 100.436 200.519 101.124 200.494C101.638 200.475 101.97 200.121 102.475 200.031C103.489 199.849 104.386 199.339 105.378 199.082C107.27 198.591 109.242 198.728 111.144 198.214C112.01 197.98 112.889 197.843 113.745 197.577C114.945 197.205 116.206 197.484 117.415 197.138C119.664 196.492 121.695 196.236 123.987 196.073C126.627 195.885 129.246 195.936 131.87 195.587C134.971 195.174 137.828 195.783 140.822 194.453C142.921 193.52 145.162 193.003 147.364 192.497C148.331 192.275 149.214 192.448 150.076 191.953" stroke="#645841" stroke-linecap="round"/>
<path d="M150.983 192.371C151.319 193.057 151.681 194.258 152.193 194.824C152.5 195.164 153.056 195.211 153.161 195.75C153.248 196.199 154.045 196.745 154.431 196.745" stroke="#645841" stroke-linecap="round"/>
<path d="M103.079 206.954C104.43 207.382 106.421 207.402 107.656 206.583C108.367 206.112 109.131 205.68 109.894 205.334C111.54 204.585 113.329 204.973 115.055 204.848C116.624 204.733 118.841 204.266 120.216 203.413C122.042 202.279 124.859 202.83 126.91 202.788C128.261 202.759 129.394 202.38 130.68 202.001C132.368 201.503 134.206 201.29 135.942 201.168C139.215 200.937 142.445 200.496 145.731 200.496C147.064 200.496 148.4 200.529 149.733 200.485C150.769 200.45 151.478 200.041 152.434 199.675C153.297 199.345 154.561 198.646 154.793 197.58" stroke="#645841" stroke-linecap="round"/>
<path d="M98.7256 190.288C100.035 190.288 101.695 190.621 102.959 190.196C103.655 189.962 104.39 189.538 105.076 189.235C105.805 188.913 106.337 188.179 107.072 187.881C107.921 187.538 108.906 187.566 109.784 187.372C111.177 187.065 112.523 186.778 113.947 186.747C115.055 186.723 115.786 186.315 116.81 186.134C118.092 185.908 119.413 186.057 120.681 185.775C121.939 185.496 123.097 185.334 124.371 185.185C126.657 184.917 128.969 184.661 131.266 184.502C132.729 184.401 134.074 184.278 135.5 183.831C136.297 183.582 137.367 183.428 138.101 183.067C139.624 182.318 141.243 182.709 142.778 182.072C143.588 181.736 144.283 181.863 145.127 181.725C145.619 181.644 146.142 181.283 146.629 181.123" stroke="#645841" stroke-linecap="round"/>
<path d="M146.809 181.123C147.208 182.441 148.629 182.861 149.147 184.051C149.476 184.805 149.697 185.608 150.075 186.331" stroke="#645841" stroke-linecap="round"/>
<path d="M97.998 195.497C99.9984 195.243 102.022 195.027 103.996 194.559C104.715 194.389 105.287 193.921 105.982 193.715C108.795 192.877 111.932 192.58 114.833 192.58C116.322 192.58 117.822 192.652 119.309 192.58C119.976 192.549 120.598 192.172 121.264 192.083C123.141 191.831 125.101 192.23 126.95 191.747C127.484 191.608 127.95 191.329 128.462 191.122C129.549 190.683 130.692 190.752 131.819 190.578C134.74 190.128 137.622 189.483 140.559 189.213C142.43 189.041 144.017 188.22 145.74 187.489C146.439 187.192 147.191 187.142 147.857 186.748C148.38 186.438 148.768 186.218 149.349 186.123" stroke="#645841" stroke-linecap="round"/>
<path d="M98.9062 197.37C100.022 197.37 101.212 197.495 102.314 197.232C102.937 197.083 103.499 196.7 104.128 196.584C105.282 196.369 106.55 196.537 107.717 196.537C109.714 196.537 111.693 196.279 113.644 195.797C115.624 195.308 117.6 194.779 119.592 194.408C120.712 194.199 121.809 193.615 122.898 193.459C124.154 193.279 125.412 193.218 126.668 192.996" stroke="#645841" stroke-linecap="round"/>
<path d="M128.663 192.582C131.509 192.836 134.041 192.881 136.808 192.2C137.466 192.038 138.182 192.318 138.835 192.131C139.669 191.891 140.729 191.587 141.526 191.216C143.536 190.282 146.245 191.778 147.574 189.619C147.898 189.095 148.447 188.86 148.905 188.532C149.21 188.313 149.279 187.526 149.53 187.166" stroke="#645841" stroke-linecap="round"/>
<path d="M98.9062 185.707C101.531 185.707 104.155 185.707 106.779 185.707C108.028 185.707 109.185 185.593 110.408 185.291C111.407 185.044 112.303 184.484 113.301 184.295C114.875 183.998 116.242 182.999 117.868 182.999C118.652 182.999 119.267 182.673 120.025 182.606C121.223 182.5 122.443 182.595 123.644 182.583C126.217 182.555 128.697 182.325 131.215 181.877C133.482 181.473 136.001 181.643 138.181 180.824C138.881 180.56 139.503 180.078 140.197 179.805C141.154 179.429 142.385 179.666 143.382 179.666C144.24 179.666 144.474 178.1 144.632 177.375" stroke="#645841" stroke-linecap="round"/>
<path d="M136.849 173.158C137.823 173.597 138.846 174.323 139.891 174.495C140.722 174.631 141.515 174.933 142.303 175.255C142.614 175.382 143.026 175.345 143.288 175.58C143.573 175.837 143.858 176.13 144.143 176.348" stroke="#645841" stroke-linecap="round"/>
<path d="M99.1865 177.988C100.607 177.988 102.166 178.24 103.551 177.821C105.146 177.339 106.81 177.156 108.455 177.156C109.723 177.156 110.997 177.202 112.264 177.156C114.318 177.081 116.216 176.18 118.287 176.157C120.221 176.136 122.148 176.115 124.069 175.824C125.403 175.623 127.079 175.687 128.305 174.983C131.15 173.35 134.89 174.716 137.597 173.162" stroke="#645841" stroke-linecap="round"/>
<path d="M98.7559 182.197C102.955 182.197 107.511 182.535 111.582 181.193C113.178 180.667 114.746 179.953 116.394 179.657C117.442 179.468 118.504 179.578 119.558 179.517C121.41 179.409 123.263 179.061 125.103 178.8C128.22 178.36 131.328 177.863 134.456 177.501C136.275 177.29 138.143 177.412 139.969 177.412C140.816 177.412 142.205 177.727 142.985 177.279" stroke="#645841" stroke-linecap="round"/>
<path d="M139.34 123.244C138.396 124.328 138.905 127.847 138.905 129.308C138.905 130.408 138.905 131.508 138.905 132.608C138.905 133.55 139.196 134.457 139.307 135.391C139.437 136.476 139.629 137.487 139.629 138.589C139.629 139.766 139.404 140.805 139.275 141.964C139.009 144.367 139.05 146.764 139.05 149.183C139.05 151.433 138.905 153.665 138.905 155.913C138.905 157.068 138.905 158.224 138.905 159.379C138.905 160.946 138.659 162.845 139.082 164.362C139.9 167.298 138.777 170.634 139.774 173.495" stroke="#645841" stroke-linecap="round"/>
<path d="M144.557 128.072C143.889 130.668 143.604 133.569 143.897 136.281C144.036 137.564 144.481 138.7 144.678 139.942C144.817 140.821 144.702 141.826 144.702 142.715C144.702 145.34 144.702 147.966 144.702 150.591C144.702 153.536 144.261 156.522 144.477 159.447C144.562 160.606 144.702 161.712 144.702 162.876C144.702 163.829 145.1 164.574 145.137 165.474C145.215 167.363 145.137 169.278 145.137 171.168C145.137 172.666 145.137 174.164 145.137 175.661" stroke="#645841" stroke-linecap="round"/>
<path d="M110.716 157.05C111.406 157.031 112.233 157.057 112.834 156.598C113.479 156.104 113.704 155.32 113.893 154.506" stroke="#645841" stroke-linecap="round"/>
<path d="M111.084 157.727C111.715 158.401 112.467 158.797 113.153 159.376C113.612 159.764 113.855 160.42 114.335 160.695" stroke="#645841" stroke-linecap="round"/>
<path d="M113.816 154.845C114.335 155.577 114.587 155.786 115.466 155.778C116.559 155.768 117.25 155.505 118.028 154.676" stroke="#645841" stroke-linecap="round"/>
<path d="M118.324 154.678C120.088 154.678 121.967 154.731 123.693 154.32C125.324 153.931 126.95 153.622 128.594 153.316C129.675 153.115 130.705 152.717 131.771 152.473" stroke="#645841" stroke-linecap="round"/>
<path d="M114.481 161.037C114.782 159.865 115.844 159.53 116.78 159.444C117.379 159.39 117.834 159.603 118.397 159.765" stroke="#645841" stroke-linecap="round"/>
<path d="M118.917 159.68C119.394 159.368 119.906 159.359 120.448 159.303C121.312 159.212 122.167 159.15 123.017 158.949C124.705 158.55 126.341 158.492 128.058 158.492C129.296 158.492 130.534 158.492 131.772 158.492" stroke="#645841" stroke-linecap="round"/>
<path d="M111.284 72.4479C112.343 72.3507 113.226 71.2381 113.226 70.0059" stroke="#645841" stroke-linecap="round"/>
<path d="M111.189 72.9766C111.75 73.3751 112.474 73.7295 112.813 74.4158C112.987 74.7677 113.095 75.113 113.317 75.4186" stroke="#645841" stroke-linecap="round"/>
<path d="M113.502 70.2168C113.669 70.4898 113.871 70.9179 114.098 71.1252C114.414 71.4139 115.066 71.2786 115.444 71.2786" stroke="#645841" stroke-linecap="round"/>
<path d="M113.688 75.8423C113.688 75.2196 115.296 75.05 115.722 74.8867" stroke="#645841" stroke-linecap="round"/>
<path d="M116.092 74.994C118.91 74.994 121.71 74.8266 124.529 74.9704C126.721 75.0823 128.879 75.2064 131.075 75.2064" stroke="#645841" stroke-linecap="round"/>
<path d="M116.74 71.3855C120.11 71.3855 123.525 71.2845 126.883 71.6569C127.762 71.7543 128.823 72.1463 129.699 71.8338C130.151 71.6724 130.606 71.7041 131.076 71.7041" stroke="#645841" stroke-linecap="round"/>
<path d="M70.1816 45.4414C70.1816 57.4231 70.1816 69.4048 70.1816 81.3865C70.1816 86.8091 70.1816 92.2317 70.1816 97.6543C70.1816 98.8756 69.5969 99.0818 69.3759 100.139C69.1007 101.455 69.3285 103.112 69.3285 104.455C69.3285 106.112 69.3285 107.768 69.3285 109.424C69.3285 113.704 69.4399 118.223 70.6239 122.301C72.1148 127.435 71.0347 133.38 71.0347 138.768C71.0347 141.114 71.2184 143.419 70.5923 145.66C69.4054 149.908 68.7598 154.639 68.7598 159.044C68.7598 162.967 68.6649 166.912 68.7914 170.832C68.8999 174.197 69.1173 177.721 69.5023 181.061C69.6337 182.201 69.7761 183.248 70.7503 183.527" stroke="#645841" stroke-linecap="round"/>
<path d="M146.224 115.531C151.555 115.531 156.885 115.531 162.216 115.531C169.533 115.531 176.565 118.093 183.819 118.093C193.998 118.093 203.525 116.172 213.728 116.172C228.791 116.172 243.854 116.172 258.917 116.172" stroke="#645841" stroke-linecap="round"/>
<path d="M258.915 120.654C256.026 124.178 257.675 135.482 258.791 139.867C260.458 146.419 261.147 152.038 261.147 158.796C261.147 164.089 260.589 169.328 260.589 174.594C260.589 177.035 259.446 184.058 262.263 184.058" stroke="#645841" stroke-linecap="round"/>
<path d="M208.042 201.617C208 202.331 207.752 202.981 207.752 203.697C207.752 204.565 209.785 204.6 210.264 204.612C213.213 204.69 216.116 204.279 219.058 204.279" stroke="#645841" stroke-linecap="round"/>
<path d="M207.898 201.283C209.737 202.221 212.065 201.782 214.034 201.782C215.613 201.782 217.191 201.782 218.769 201.782" stroke="#645841" stroke-linecap="round"/>
<path d="M199.779 196.127C201.242 197.275 202.643 198.673 204.192 199.667C205.289 200.372 206.706 200.497 207.896 200.952" stroke="#645841" stroke-linecap="round"/>
<path d="M199.2 196.291C198.781 197.289 198.358 198.284 198.475 199.416C198.544 200.084 199.573 199.905 199.973 200.026C200.61 200.218 201.083 201.013 201.672 201.375C202.312 201.769 202.827 201.916 203.54 202.059C204.278 202.207 205.526 202.269 206.149 202.78C206.552 203.111 207.26 202.947 207.751 202.947" stroke="#645841" stroke-linecap="round"/>
<path d="M200.072 195.461C200.735 195.461 201.753 195.72 202.311 195.202C203.355 194.232 204.574 194.545 205.822 194.721C207.779 194.998 209.849 194.795 211.813 194.795" stroke="#645841" stroke-linecap="round"/>
<path d="M211.957 194.96C213.069 195.262 217.1 196.004 217.9 194.627" stroke="#645841" stroke-linecap="round"/>
<path d="M223.842 193.465C225.396 193.51 226.883 193.798 228.448 193.798C229.5 193.798 230.552 193.798 231.604 193.798C234.786 193.798 237.976 193.746 241.155 193.632C244.718 193.504 248.246 193.132 251.816 193.132C253.387 193.132 255.125 193.387 256.664 193.021C258.247 192.645 259.751 192.467 261.383 192.467" stroke="#645841" stroke-linecap="round"/>
<path d="M260.948 192.467C261.714 193.722 263.374 194.888 264.556 195.591C265.566 196.192 266.84 196.555 267.954 196.793C268.906 196.996 270.181 197.562 270.805 198.457" stroke="#645841" stroke-linecap="round"/>
<path d="M209.97 170.553C209.782 171.94 209.514 173.139 209.779 174.511C209.93 175.291 210.057 176.195 210.339 176.923C210.507 177.355 210.502 177.784 210.581 178.239C210.701 178.93 211.015 179.541 211.11 180.25C211.29 181.58 211.223 183.046 211.259 184.391C211.274 184.926 211.251 185.461 211.264 185.995C211.282 186.691 211.621 187.209 211.758 187.871C211.92 188.656 211.912 189.455 211.912 190.254C211.912 191.105 211.819 191.939 211.819 192.791C211.819 193.321 211.582 194.63 212.097 194.867" stroke="#645841" stroke-linecap="round"/>
<path d="M214.501 170.445C213.996 170.949 213.81 172.088 213.705 172.811C213.612 173.452 213.669 174.139 213.669 174.787C213.669 175.901 214.167 176.732 214.296 177.795C214.423 178.849 214.765 179.866 214.779 180.933C214.795 182.159 214.83 183.374 214.866 184.596C214.885 185.254 214.827 185.921 214.933 186.572C215.038 187.225 215.149 187.821 215.149 188.489C215.149 189.406 215.149 190.322 215.149 191.238C215.149 191.808 214.675 193.851 215.149 194.123" stroke="#645841" stroke-linecap="round"/>
<path d="M244.097 169.703C244.097 170.918 244.097 172.133 244.097 173.348C244.097 174.213 244.388 174.838 244.569 175.661C244.837 176.871 245.171 178.18 245.201 179.436C245.227 180.465 245.207 181.497 245.207 182.527C245.207 184.343 244.956 186.469 245.289 188.249C245.404 188.863 245.556 189.431 245.577 190.065C245.59 190.487 245.572 190.909 245.69 191.316C245.777 191.619 245.854 191.787 245.854 192.106" stroke="#645841" stroke-linecap="round"/>
<path d="M248.445 169.598C248.078 171.956 248.162 174.062 248.651 176.393C249.127 178.662 248.908 181.184 248.908 183.501C248.908 184.79 248.521 185.948 248.764 187.246C248.943 188.203 249 189.048 249 190.025C249 190.79 249 191.554 249 192.319" stroke="#645841" stroke-linecap="round"/>
<path d="M197.75 156.811C197.75 158.191 197.597 159.685 197.802 161.049C197.945 162.008 198.093 162.905 198.098 163.885C198.105 165.281 197.721 167.789 198.792 168.773" stroke="#645841" stroke-linecap="round"/>
<path d="M198.444 169.438C208.055 169.437 217.663 169.57 227.275 169.57" stroke="#645841" stroke-linecap="round"/>
<path d="M257.728 155.48C257.902 156.586 258.088 157.689 258.166 158.811C258.21 159.441 258.202 159.999 258.372 160.605C258.71 161.816 258.995 163.049 259.349 164.253C259.775 165.698 259.697 167.098 259.697 168.61C259.697 169.519 257.274 169.038 256.635 169.038C254.705 169.038 252.775 169.038 250.846 169.038C245.524 169.038 240.203 169.304 234.88 169.304C233.672 169.304 232.453 169.245 231.246 169.311C230.904 169.33 230.337 169.341 230.03 169.525C229.304 169.961 228.556 169.836 227.74 169.836" stroke="#645841" stroke-linecap="round"/>
<path d="M197.435 156.129C198.48 156.129 199.525 156.129 200.57 156.129C201.439 156.129 202.312 156.156 203.181 156.129C203.834 156.109 204.402 155.727 205.096 155.712C210.468 155.6 215.852 155.712 221.225 155.712C223.18 155.712 225.138 155.674 227.092 155.712C229.125 155.752 231.11 156.299 233.14 156.337C236.492 156.4 239.771 156.157 243.11 155.944C246.269 155.742 249.453 155.995 252.616 155.921C254.006 155.888 255.364 155.504 256.77 155.504" stroke="#645841" stroke-linecap="round"/>
<path d="M241.346 164.46C244.773 164.46 248.201 164.46 251.628 164.46C252.688 164.46 253.447 164.118 254.41 163.627" stroke="#645841" stroke-linecap="round"/>
<path d="M248.967 161.125C250.871 160.891 252.659 160.5 254.592 160.5" stroke="#645841" stroke-linecap="round"/>
<path d="M205.509 203.064C205.396 203.562 204.744 205.315 205.509 205.634C207.847 206.608 210.449 207.044 212.855 207.746C213.763 208.011 214.666 208.304 215.583 208.514" stroke="#645841" stroke-linecap="round"/>
<path d="M215.582 205.189C215.201 206.407 215.119 207.504 215.119 208.778" stroke="#645841" stroke-linecap="round"/>
<path d="M216.161 209.709H217.203" stroke="#645841" stroke-linecap="round"/>
<path d="M215.12 212.9C215.12 215.495 214.931 218.188 215.3 220.757C215.518 222.269 215.173 223.924 214.889 225.395" stroke="#645841" stroke-linecap="round"/>
<path d="M206.668 208.512C206.305 211.164 206.32 213.767 206.32 216.442C206.32 217.219 206.332 217.302 206.668 217.816" stroke="#645841" stroke-linecap="round"/>
<path d="M210.835 211.305C210.642 214.04 210.256 216.806 210.256 219.546" stroke="#645841" stroke-linecap="round"/>
<path d="M205.395 219.016C206.416 220.638 207.923 221.649 209.344 222.759C209.956 223.238 210.505 223.786 211.132 224.244C212.393 225.163 213.699 226.007 214.915 227.005C215.316 227.335 215.675 227.809 216.162 227.921" stroke="#645841" stroke-linecap="round"/>
<path d="M215.931 228.188C215.067 228.758 213.933 229.108 213.358 230.107C213.007 230.718 212.872 231.527 212.74 232.234C212.453 233.779 213.245 236.132 214.902 235.838C215.647 235.705 215.96 235.197 216.536 234.73C217.1 234.272 217.602 233.738 217.732 232.913C218.02 231.086 216.441 229.21 215.352 228.188" stroke="#645841" stroke-linecap="round"/>
<path d="M201.689 225.793C203.479 227.866 205.654 228.812 207.71 230.43C209.198 231.601 210.595 232.909 212.11 234.034" stroke="#645841" stroke-linecap="round"/>
<path d="M204.699 219.68C203.141 220.473 201.584 220.824 201.354 223.032C201.297 223.586 201.246 224.15 201.232 224.708C201.224 225.038 201.201 225.479 201.296 225.801C201.52 226.559 202.003 226.307 202.499 226.591" stroke="#645841" stroke-linecap="round"/>
<path d="M218.478 195.293C218.472 195.295 216.98 192.557 216.795 192.289C216.088 191.262 216.566 190.583 217.447 189.968C219.758 188.356 222.655 188.767 222.681 192.372C222.704 195.474 222.681 198.578 222.681 201.681C222.681 203.889 223.261 205.995 223.261 208.216C223.261 210.913 223.562 213.364 224.195 215.972C224.443 216.992 224.896 217.762 225.258 218.717C225.693 219.866 225.84 221.103 225.87 222.341C225.93 224.803 227.175 226.928 227.175 229.394C227.175 230.84 227.175 232.285 227.175 233.73" stroke="#645841" stroke-linecap="round"/>
<path d="M218.768 196.623C219.831 197.641 220.072 199.716 220.072 201.171C220.072 203.519 219.84 205.461 219.17 207.698C217.986 211.654 218.794 215.99 219.992 219.807C220.407 221.131 220.722 222.469 221.119 223.801C221.509 225.11 221.376 226.485 221.634 227.85C221.889 229.193 222.427 230.425 222.568 231.806C222.686 232.954 222.681 234.068 222.681 235.227" stroke="#645841" stroke-linecap="round"/>
<path d="M228.335 227.074C231.352 227.074 234.37 227.111 237.386 227.074C239.75 227.045 242.087 226.857 244.456 226.982C248.006 227.169 251.523 227.454 255.053 226.852C256.581 226.592 258.095 226.242 259.643 226.242" stroke="#645841" stroke-linecap="round"/>
<path d="M260.078 226.742C260.552 228.122 261.453 229.823 260.368 231.068" stroke="#645841" stroke-linecap="round"/>
<path d="M229.349 233.231C228.027 233.231 228.67 233.251 229.59 233.222C233.418 233.099 237.236 233.064 241.065 233.064C245.233 233.064 249.395 233.113 253.555 232.769C254.777 232.667 256.178 232.758 257.323 232.232" stroke="#645841" stroke-linecap="round"/>
<path d="M242.829 206.275C244.41 204.831 245.973 203.429 247.612 202.078C248.488 201.357 249.544 200.523 250.076 199.453" stroke="#645841" stroke-linecap="round"/>
<path d="M250.222 199.453C252.104 199.02 253.926 198.787 255.842 198.787C257.987 198.787 260.091 198.288 262.228 198.288C264.52 198.288 266.645 197.324 268.92 197.123" stroke="#645841" stroke-linecap="round"/>
<path d="M269.209 197.457C269.737 197.861 270.621 197.889 271.23 198.123C272.517 198.615 273.892 198.91 275.224 199.186C277.853 199.729 280.456 199.953 283.124 199.953" stroke="#645841" stroke-linecap="round"/>
<path d="M242.25 207.273C242.799 207.948 243.243 208.947 243.989 209.363C244.456 209.623 244.782 209.526 245.133 209.973C245.673 210.659 246.74 211.196 247.42 211.692C248.013 212.126 248.824 212.512 249.497 212.672C250.464 212.902 251.392 213.287 252.364 213.513C253.11 213.686 253.639 213.84 254.152 214.484C255.054 215.618 256.157 216.583 257.34 217.313C258.666 218.129 260.106 218.227 261.093 219.587" stroke="#645841" stroke-linecap="round"/>
<path d="M261.093 220.086C266.675 219.757 272.682 219.062 278.196 220.419" stroke="#645841" stroke-linecap="round"/>
<path d="M278.922 220.583C281.402 220.014 283.827 219.295 286.346 218.956C287.961 218.739 289.31 218.381 290.824 217.736C291.647 217.385 292.572 217.435 293.416 217.144C294.064 216.922 294.618 216.59 295.301 216.59" stroke="#645841" stroke-linecap="round"/>
<path d="M295.879 216.091C296.036 215.19 296.773 214.659 297.087 213.835C297.376 213.075 297.627 212.526 298.118 211.866C298.812 210.933 299.607 210.026 300.082 208.936" stroke="#645841" stroke-linecap="round"/>
<path d="M283.992 200.283C285.397 200.477 286.736 201.246 288.099 201.651C288.846 201.873 289.633 201.946 290.209 202.557C290.941 203.336 291.949 203.926 292.769 204.591C294.074 205.648 295.537 206.702 296.989 207.457C297.893 207.927 298.756 208.761 299.646 209.102" stroke="#645841" stroke-linecap="round"/>
<path d="M261.672 221.916C261.672 223.329 261.667 224.557 261.962 225.909" stroke="#645841" stroke-linecap="round"/>
<path d="M265.15 221.582C265.15 222.76 265.205 223.927 265.005 225.076" stroke="#645841" stroke-linecap="round"/>
<path d="M241.97 207.713C241.767 208.554 241.46 209.431 241.42 210.314C241.414 210.448 241.347 210.935 241.446 211.057C241.776 211.468 242.528 211.804 242.946 212.107C244.079 212.927 245.434 213.19 246.708 213.588C247.316 213.778 247.847 214.22 248.414 214.532C249.153 214.939 250.054 215.201 250.736 215.723C251.976 216.672 253.551 216.577 254.821 217.452C255.515 217.929 256.101 218.608 256.887 218.885C257.273 219.021 257.629 219.051 257.945 219.345C258.808 220.147 260.023 221.008 261.105 221.303C261.494 221.409 261.434 220.808 261.485 220.454" stroke="#645841" stroke-linecap="round"/>
<path d="M260.746 222.474C262.917 222.474 265.195 222.723 267.354 222.462C271.411 221.972 275.534 222.177 279.614 222.156" stroke="#645841" stroke-linecap="round"/>
<path d="M280.168 222.473C281.62 222.337 283.068 222.182 284.515 221.989C285.297 221.884 286.09 221.912 286.868 221.8C288.284 221.597 289.537 220.871 290.876 220.396C291.413 220.206 291.973 220.115 292.51 219.924C293.119 219.708 293.694 219.388 294.334 219.305C294.872 219.235 295.105 219.378 295.521 218.969" stroke="#645841" stroke-linecap="round"/>
<path d="M299.962 209.729C299.962 210.327 300.054 210.851 300.054 211.427C300.054 212.362 299.335 212.724 298.831 213.35C298.216 214.115 297.741 215.232 297.228 216.105C296.858 216.734 296.518 217.61 296.077 218.116" stroke="#645841" stroke-linecap="round"/>
<path d="M286.528 199.871C287.945 200.015 289.358 200.496 290.782 200.496C292.928 200.496 295.092 200.216 297.234 200.079" stroke="#645841" stroke-linecap="round"/>
<path d="M297.777 199.038C301.588 198.956 305.107 197.568 308.846 196.955" stroke="#645841" stroke-linecap="round"/>
<path d="M312.295 199.244C312.918 199.304 313.345 199.572 313.908 199.869C314.933 200.41 316.031 200.72 317.073 201.211C319.149 202.19 321.192 202.606 323.323 203.364C326.492 204.491 329.786 205.118 332.981 206.118" stroke="#645841" stroke-linecap="round"/>
<path d="M299.41 201.537C303.019 202.606 306.494 203.832 310.096 204.939C312.099 205.555 313.93 206.578 315.902 207.277C318.076 208.047 320.424 208.401 322.636 209.036" stroke="#645841" stroke-linecap="round"/>
<path d="M299.773 206.746C306.242 209.171 312.928 210.653 319.37 213.203" stroke="#645841" stroke-linecap="round"/>
<path d="M314.653 197.163C316.09 195.596 317.605 194.11 318.847 192.326C320.209 190.369 320.85 188.454 321.549 186.123" stroke="#645841" stroke-linecap="round"/>
<path d="M319.551 198.831C320.956 195.422 322.522 192.207 323.906 188.832" stroke="#645841" stroke-linecap="round"/>
<path d="M312.655 185.078C316.378 185.442 319.9 186.623 323.421 187.821C324.841 188.304 326.357 188.543 327.736 189.152C328.673 189.565 329.41 190.077 330.438 190.077" stroke="#645841" stroke-linecap="round"/>
<path d="M313.926 175.498C312.982 177.828 311.477 179.97 311.396 182.627C311.369 183.513 311.386 184.402 311.386 185.288" stroke="#645841" stroke-linecap="round"/>
<path d="M313.746 175.707C317.74 175.707 321.373 175.627 325.278 176.471C327.771 177.01 330.257 178.207 332.799 178.207" stroke="#645841" stroke-linecap="round"/>
<path d="M318.464 161.961C318.434 164.689 317.86 166.938 316.71 169.298C316.486 169.757 315.177 172.963 315.5 173.232C316.448 174.024 317.769 173.784 318.867 173.88C320.883 174.057 322.85 174.622 324.855 174.864C326.128 175.018 327.542 176.008 328.746 176.45C330.592 177.126 332.817 178.209 334.795 178.209" stroke="#645841" stroke-linecap="round"/>
<path d="M319.009 162.168C323.746 163.86 328.971 163.626 333.888 163.626" stroke="#645841" stroke-linecap="round"/>
<path d="M324.42 175.018C324.288 175.327 324.176 175.629 324.072 175.948" stroke="#645841" stroke-linecap="round"/>
<path d="M327.314 176.346V177.143" stroke="#645841" stroke-linecap="round"/>
<path d="M259.129 230.909C260.156 229.966 261.084 229.287 262.385 228.953C263.509 228.664 264.511 228.129 265.611 227.807C268.806 226.874 272.181 227.669 275.359 226.812C278.724 225.904 281.999 224.512 285.389 223.711C287.292 223.261 289.259 223.173 291.145 222.646C292.821 222.178 294.366 221.249 296.044 220.795C298.859 220.033 301.514 218.772 304.321 217.89C308.168 216.681 312.068 215.663 315.944 214.592C319.231 213.684 322.704 213.861 326.045 213.435C326.81 213.337 327.538 213.536 328.262 213.203" stroke="#645841" stroke-linecap="round"/>
<path d="M330.62 211.121C326.797 211.159 322.761 210.883 318.987 211.7C316.117 212.32 313.334 213.271 310.509 214.049C307.495 214.879 304.46 215.687 301.457 216.548C300.965 216.69 300.522 217.185 300.005 217.37C298.612 217.868 297.269 218.722 295.862 219.106C293.785 219.673 291.695 220.149 289.632 220.842C287.132 221.681 284.671 222.786 282.132 223.399C281.277 223.606 280.305 223.487 279.491 223.851C278.769 224.173 278.267 224.493 277.475 224.672C275.728 225.067 273.963 225.389 272.203 225.691C271.547 225.803 271.137 226.161 270.56 226.327" stroke="#645841" stroke-linecap="round"/>
<path d="M266.388 235.49C265.546 235.035 266.14 234.685 266.58 233.928C267.551 232.256 269.465 231.695 271.016 231.116C271.888 230.789 272.747 230.769 273.657 230.676C275.092 230.529 276.334 229.914 277.719 229.542C279.58 229.041 281.361 228.824 283.264 228.824" stroke="#645841" stroke-linecap="round"/>
<path d="M271.83 235.49C273.612 233.854 275.828 232.369 278.141 232.088C279.568 231.914 281.316 232.254 282.667 231.613C283.074 231.42 282.899 230.47 282.899 230.074" stroke="#645841" stroke-linecap="round"/>
<path d="M280.359 228.199C284.732 228.199 289.119 226.383 293.414 225.537C295.564 225.114 297.369 224.808 299.382 223.744C301.846 222.44 304.614 221.912 307.255 221.256C312.6 219.928 318.188 221.607 323.495 220.04C325.368 219.487 327.382 219.015 329.21 218.293C329.88 218.028 330.483 217.563 331.166 217.367" stroke="#645841" stroke-linecap="round"/>
<path d="M330.984 215.492C327.325 215.492 323.823 215.567 320.278 216.673C318.06 217.365 316.026 217.836 313.706 217.946C312.354 218.009 311.044 217.98 309.704 218.2C307.068 218.632 304.693 218.458 302.113 219.404C299.69 220.291 297.468 221.533 294.875 221.533" stroke="#645841" stroke-linecap="round"/>
<path d="M277.817 233.614C281.172 231.475 284.877 230.941 288.503 229.761C294.209 227.903 300.498 230.469 306.235 228.777C309.416 227.839 312.657 227.092 315.812 226.046C318.281 225.227 320.629 224.144 323.16 223.546C326.694 222.712 330.456 221.95 333.866 220.607C334.84 220.223 335.673 219.51 336.608 219.033" stroke="#645841" stroke-linecap="round"/>
<path d="M332.072 223.826C326.78 224.694 321.656 226.348 316.568 228.154C311.571 229.929 306.411 232.093 301.135 231.962C298.361 231.892 295.579 231.786 292.858 232.436C290.587 232.978 288.113 233.264 285.983 234.241" stroke="#645841" stroke-linecap="round"/>
<path d="M299.23 235.699C302.198 234.445 305.238 233.03 308.364 232.366C311.284 231.745 314.451 231.32 317.416 231.162C320.596 230.993 324.409 231.232 327.416 229.774C328.436 229.279 329.195 228.027 330.259 227.783" stroke="#645841" stroke-linecap="round"/>
<path d="M332.433 230.908C329.933 231.072 327.444 231.528 324.964 231.915C322.93 232.233 320.985 232.94 318.946 233.188C317.076 233.416 315.376 233.658 313.623 234.449C311.127 235.576 308.567 235.922 305.941 236.324" stroke="#645841" stroke-linecap="round"/>
<path d="M303.042 224.658C303.536 225.526 303.926 226.642 304.675 227.158" stroke="#645841" stroke-linecap="round"/>
<path d="M305.944 223.408C305.963 224.674 305.777 226.346 306.489 227.366" stroke="#645841" stroke-linecap="round"/>
<path d="M328.624 232.781C328.679 234.432 328.711 235.798 329.713 236.947" stroke="#645841" stroke-linecap="round"/>
<path d="M330.438 232.99C331.335 234.329 332.074 235.806 332.979 237.156" stroke="#645841" stroke-linecap="round"/>
<path d="M319.551 227.16C319.977 227.869 320.305 228.651 320.821 229.243" stroke="#645841" stroke-linecap="round"/>
<path d="M322.637 227.574C322.783 228.748 323.287 229.601 323.907 230.49" stroke="#645841" stroke-linecap="round"/>
<path d="M329.35 217.992C330.215 218.588 330.989 219.874 331.708 220.7" stroke="#645841" stroke-linecap="round"/>
<path d="M332.617 217.367C332.726 218.992 333.164 220.289 333.706 221.742" stroke="#645841" stroke-linecap="round"/>
<path d="M0.507812 210.225C6.2324 210.098 11.7646 209.202 17.5166 209.202C22.9088 209.202 28.2934 209.534 33.5598 207.98C38.2121 206.607 42.9425 206.132 47.7462 206.132C50.8543 206.132 54.2007 206.533 57.3028 206.047C60.7233 205.512 63.874 204.598 67.3546 204.598" stroke="#645841" stroke-linecap="round"/>
<path d="M7.19336 212.784C11.0215 212.784 15.1955 212.54 18.9287 211.647C20.4107 211.292 21.6702 210.227 23.2366 209.97C26.8238 209.382 30.5611 209.714 34.1796 209.714C39.4643 209.714 45.3877 210.663 50.4704 208.947C53.2737 208 55.9783 207.156 58.8882 207.156" stroke="#645841" stroke-linecap="round"/>
<path d="M87.4072 211.25C90.5378 211.117 93.6546 210.623 96.7658 210.227" stroke="#645841" stroke-linecap="round"/>
<path d="M87.4072 217.39C88.0248 215.465 90.3433 214.832 91.9627 214.832C93.5725 214.832 94.1242 214.046 95.4288 213.297" stroke="#645841" stroke-linecap="round"/>
<path d="M67.3546 210.227C63.7543 211.801 60.3865 211.761 56.5849 211.761C53.6327 211.761 50.9357 212.902 48.0186 213.268C44.7552 213.676 41.6561 214.831 38.3877 214.831" stroke="#645841" stroke-linecap="round"/>
<path d="M34.8228 215.854C28.7785 215.854 23.312 217.113 17.3684 217.871C11.8525 218.575 7.03502 220.458 1.39941 220.458" stroke="#645841" stroke-linecap="round"/>
<path d="M7.19336 215.854H33.0408" stroke="#645841" stroke-linecap="round"/>
<path d="M29.4746 220.458C33.388 220.04 37.2235 218.411 41.1604 218.411C45.0733 218.411 48.6721 216.497 52.5986 216.365C58.3109 216.172 63.9147 215.698 69.5827 214.83" stroke="#645841" stroke-linecap="round"/>
<path d="M69.1369 217.9C62.18 217.9 56.5835 218.251 49.8256 219.975C45.9189 220.972 42.8278 221.482 38.833 221.482" stroke="#645841" stroke-linecap="round"/>
<path d="M21.899 226.086C16.7859 226.259 13.0583 228.369 8.08398 229.667" stroke="#645841" stroke-linecap="round"/>
<path d="M6.36426 225.908C9.20159 225.408 12.0599 224.645 14.9328 224.484C16.6268 224.39 18.2369 224.477 19.9127 224.137C22.4746 223.618 25.0849 224.176 27.5942 223.408" stroke="#645841" stroke-linecap="round"/>
<path d="M26.6885 224.867H27.2328" stroke="#645841" stroke-linecap="round"/>
<path d="M28.501 226.535C31.889 226.683 35.1537 226.66 38.5212 226.327C39.1715 226.263 39.7838 225.963 40.4164 225.795C41.9848 225.378 43.5758 225.222 45.1744 225.054C48.3941 224.715 51.525 223.94 54.7713 223.85C58.2258 223.755 61.4376 223.9 64.7915 222.994" stroke="#645841" stroke-linecap="round"/>
<path d="M32.8564 225.49C34.9849 224.791 37.0941 223.917 39.3383 223.835C41.0875 223.771 42.8406 223.847 44.5904 223.823C45.8088 223.807 46.9412 223.324 48.1589 223.245C51.6409 223.016 55.1767 223.198 58.663 223.198C61.8344 223.198 65.4268 222.877 68.2397 221.115" stroke="#645841" stroke-linecap="round"/>
<path d="M39.208 211.535C39.4053 212.271 40.0076 212.715 40.4782 213.202" stroke="#645841" stroke-linecap="round"/>
<path d="M41.0234 210.701C41.3407 211.794 41.6271 212.823 42.1122 213.826" stroke="#645841" stroke-linecap="round"/>
<path d="M8.90625 220.91C9.90048 222.215 10.7917 223.622 11.8095 224.868" stroke="#645841" stroke-linecap="round"/>
<path d="M12.8965 220.91C13.4757 222.294 13.9636 223.224 15.0739 224.035" stroke="#645841" stroke-linecap="round"/>
<path d="M63.3408 206.746C63.3408 208.221 63.3745 209.679 63.5223 211.12" stroke="#645841" stroke-linecap="round"/>
<path d="M63.7051 207.787V211.12" stroke="#645841" stroke-linecap="round"/>
<path d="M9.81348 210.285C10.0276 210.806 10.5552 212.368 11.0836 212.368" stroke="#645841" stroke-linecap="round"/>
<path d="M11.626 210.076C12.3123 211.039 13.1731 211.76 13.9849 212.576" stroke="#645841" stroke-linecap="round"/>
<path d="M66.4268 218.619C66.8457 219.381 67.0506 220.287 67.334 221.119" stroke="#645841" stroke-linecap="round"/>
<path d="M68.6055 218.619C68.6931 219.39 68.9721 220.162 69.1498 220.91" stroke="#645841" stroke-linecap="round"/>
<path d="M90.2021 53.5681C91.2901 53.1838 92.5583 53.3878 93.6914 53.3878C94.7476 53.3878 95.768 53.0273 96.8492 53.0273C98.3743 53.0273 99.817 53.5319 101.315 53.5681C102.373 53.5936 103.433 53.5681 104.491 53.5681C113.179 53.5681 121.867 53.5681 130.555 53.5681" stroke="#645841" stroke-linecap="round"/>
<path d="M78.582 43.293C78.7522 47.5912 79.6338 51.7574 79.0531 56.0908" stroke="#645841" stroke-linecap="round"/>
<path d="M80.625 42.752C86.1192 43.5013 91.5225 44.1034 97.0419 44.3942C105.213 44.8248 113.305 46.357 121.484 46.357C126.162 46.357 130.735 47.2582 135.424 47.2582" stroke="#645841" stroke-linecap="round"/>
<path d="M136.051 47.9793C136.827 47.9793 137.578 47.6302 138.354 47.9192C139.602 48.3846 138.979 48.821 138.79 49.8819C138.591 50.9956 138.735 52.1754 138.842 53.2867C138.983 54.7395 138.877 56.252 138.877 57.7128" stroke="#645841" stroke-linecap="round"/>
<path d="M132.44 56.4512C132.44 58.3405 132.44 60.2298 132.44 62.1191C132.44 64.4206 131.812 66.5408 131.812 68.8885" stroke="#645841" stroke-linecap="round"/>
<path d="M84.0787 53.9277C84.0787 57.4859 84.3601 61.1272 83.4506 64.5725C82.7812 67.1084 83.7666 69.2562 83.9042 71.7826C84.0106 73.7368 83.9216 75.722 83.9216 77.6808C83.9216 78.5086 83.9216 79.3364 83.9216 80.1642C83.9216 81.7661 83.8702 83.3806 83.9391 84.981C83.9841 86.0271 84.2357 87.0373 84.2357 88.0853C84.2357 89.374 84.1661 90.5878 84.227 91.8806C84.2958 93.3434 83.8551 95.1461 84.7067 96.2867" stroke="#645841" stroke-linecap="round"/>
<path d="M78.4266 58.7949C77.8175 61.446 77.9555 64.0599 77.9555 66.786C77.9555 70.3844 77.9555 73.9827 77.9555 77.5811C77.9555 82.8575 77.8349 88.1382 77.7985 93.4031C77.7641 98.386 77.7985 103.371 77.7985 108.354C77.7985 110.47 78.3235 112.224 78.7057 114.272C78.8291 114.933 78.6076 117.564 79.2117 117.737" stroke="#645841" stroke-linecap="round"/>
<path d="M132.708 171.751C132.708 170.49 132.708 169.229 132.708 167.969C132.708 166.457 131.97 165.137 131.97 163.59C131.97 161.419 131.97 159.248 131.97 157.078C131.97 151.225 131.806 145.349 132.434 139.579C132.774 136.46 132.462 133.084 132.462 129.944C132.462 127.865 132.091 126.099 131.97 124.074C131.93 123.419 131.477 122.979 131.477 122.254C131.477 121.574 131.581 120.777 131.423 120.12C130.7 117.111 131.231 113.347 131.231 110.201C131.231 106.081 130.739 102.196 130.739 98.0388C130.739 96.0909 131.694 94.4503 132.024 92.5932C132.546 89.6573 132.216 86.3137 132.216 83.3341C132.216 81.43 132.216 79.5258 132.216 77.6217C132.216 76.0016 132.182 74.3764 132.216 72.7567C132.248 71.191 132.76 69.6393 132.954 68.0801" stroke="#645841" stroke-linecap="round"/>
<path d="M138.367 62.1465C138.367 65.4421 138.367 68.7377 138.367 72.0333C138.367 77.1359 139.812 81.959 139.844 87.0049C139.877 92.3715 139.844 97.7396 139.844 103.106C139.844 106.813 138.859 110.186 138.859 113.841" stroke="#645841" stroke-linecap="round"/>
<path d="M91.4233 111.569C91.4233 110.055 91.0884 106.973 92.9262 106.738" stroke="#645841" stroke-linecap="round"/>
<path d="M93.126 106.852C93.6199 107.815 94.4211 108.843 94.6289 109.963C94.7814 110.786 94.729 111.65 94.729 112.487" stroke="#645841" stroke-linecap="round"/>
<path d="M91.221 112.717C90.7361 112.753 90.2755 112.931 89.8184 113.062" stroke="#645841" stroke-linecap="round"/>
<path d="M89.7199 113.754C88.7114 113.826 89.4607 114.425 89.8646 114.84C90.2612 115.248 90.8478 115.201 91.3229 115.019" stroke="#645841" stroke-linecap="round"/>
<path d="M95.4307 113.061C95.758 112.975 96.292 112.783 96.3379 113.31C96.365 113.621 96.632 114.759 96.4103 114.991C96.1476 115.265 95.2657 114.946 94.8907 115.138C94.4168 115.379 94.4287 115.743 94.4287 116.281" stroke="#645841" stroke-linecap="round"/>
<path d="M94.0282 116.742C94.0384 117.848 93.9617 119.235 94.2286 120.308" stroke="#645841" stroke-linecap="round"/>
<path d="M42.1553 58.6137C43.431 57.9451 44.6606 57.6268 46.0109 57.2518C46.9442 56.9926 47.8242 56.3252 48.6627 55.8098C49.576 55.2484 50.4634 54.5189 51.4192 54.1074" stroke="#645841" stroke-linecap="round"/>
<path d="M52.362 55.9121C52.3311 58.8888 51.6802 61.6751 51.7688 64.6643C51.9075 69.3444 52.9984 73.8438 53.1296 78.5136C53.2364 82.3137 52.8515 86.0511 52.833 89.8393C52.8169 93.1504 52.833 96.462 52.833 99.7731C52.833 101.399 52.833 103.024 52.833 104.65C52.833 105.959 51.5485 105.481 50.6697 105.481C49.335 105.481 48.0004 105.481 46.6658 105.481C45.5978 105.481 43.3752 104.983 42.627 105.842" stroke="#645841" stroke-linecap="round"/>
<path d="M42.1549 59.6953C42.1549 61.3809 42.0405 63.1207 42.3207 64.7824C42.6801 66.9141 42.9252 69.1571 42.94 71.3315C42.9739 76.3177 42.94 81.3059 42.94 86.2923C42.94 89.2482 42.8794 92.0899 42.5736 95.0245C42.4566 96.1473 42.4995 97.3105 42.2422 98.4092C42.0655 99.1632 41.8234 99.8736 41.6839 100.642C41.5761 101.236 41.5996 101.848 41.492 102.435C41.3623 103.142 40.942 103.745 40.8988 104.478C40.8596 105.142 40.7959 105.721 41.2128 106.2" stroke="#645841" stroke-linecap="round"/>
<path d="M44.668 77.1781C47.0125 76.7066 49.2907 75.9451 51.5767 75.1953" stroke="#645841" stroke-linecap="round"/>
<path d="M11.0557 69.2857C13.7598 64.9398 18.5789 61.3177 22.5882 58.6329C24.8232 57.1362 27.7065 56.6834 30.1513 55.6772C32.2453 54.8155 33.5936 53.2167 35.5153 52.0134C38.9663 49.8525 41.8688 46.3499 45.4118 44.3163C47.1272 43.3317 49.1119 41.4856 50.1857 39.6364C51.359 37.6161 55.4951 37.5402 57.4002 37.1426" stroke="#645841" stroke-linecap="round"/>
<path d="M57.8809 36.5859C61.9757 37.4673 66.159 37.9709 70.2448 38.8643C75.5931 40.0338 81.7731 38.8027 87.2753 38.8027C98.5027 38.8027 109.241 38.345 120.103 41.82C125.064 43.4073 130.368 45.453 135.551 45.453C138.224 45.453 140.953 46.3264 143.57 46.8693C146.041 47.3819 148.401 48.8759 150.811 49.3016C154.984 50.0385 159.084 49.3645 163.283 50.3792C165.552 50.9276 168.402 50.4407 170.712 50.4407C174.982 50.4407 179.291 50.2593 183.558 50.4407C185.445 50.5209 186.854 51.9872 188.708 52.1033C189.969 52.1823 191.253 52.1033 192.516 52.1033C198.722 52.1033 204.343 55.1967 210.485 55.8903C215.997 56.5126 221.813 55.9827 227.328 55.9827C230.658 55.9827 234.435 55.4108 237.681 56.4753C241.094 57.5948 243.569 58.1994 247.175 58.1994C253.224 58.1994 259.257 58.5772 265.251 58.7536C269.565 58.8806 273.805 59.7183 278.125 59.862C284.894 60.0872 291.539 61.5956 297.811 64.2955" stroke="#645841" stroke-linecap="round"/>
<path d="M266.916 66.5156C266.916 93.7326 266.916 120.95 266.916 148.167C266.916 149.752 266.532 150.27 266.058 151.676C265.285 153.969 265.468 156.599 265.468 159.004C265.468 162.051 265.28 165.077 265.844 168.056C266.187 169.87 266.766 171.6 267.104 173.413C267.322 174.582 267.037 176.495 267.453 177.57C267.655 178.091 268.612 178.052 268.15 178.893C267.44 180.187 266.09 180.69 264.985 181.233" stroke="#645841" stroke-linecap="round"/>
<path d="M157.811 121.379C157.75 125.088 157.328 128.747 157.328 132.463" stroke="#645841" stroke-linecap="round"/>
<path d="M167.95 121.379C167.95 125.685 166.473 134.092 169.399 137.45" stroke="#645841" stroke-linecap="round"/>
<path d="M179.055 121.379C181.016 128.601 181.852 135.402 181.951 142.931C182.074 152.25 184.148 160.525 188.227 168.485" stroke="#645841" stroke-linecap="round"/>
<path d="M193.535 124.148C193.535 142.73 192.805 161.235 195.466 179.568" stroke="#645841" stroke-linecap="round"/>
<path d="M206.087 121.379C206.087 126.6 206 131.782 207.321 136.835C207.981 139.36 208.984 141.411 208.984 144.101" stroke="#645841" stroke-linecap="round"/>
<path d="M223.951 119.16C224.113 128.981 224.917 138.68 224.917 148.532" stroke="#645841" stroke-linecap="round"/>
<path d="M213.813 126.367C213.813 131.54 213.813 136.712 213.813 141.885C213.813 146.054 213.306 150.654 214.296 154.631" stroke="#645841" stroke-linecap="round"/>
<path d="M230.707 124.705C230.707 132.487 228.91 144.538 233.121 151.306" stroke="#645841" stroke-linecap="round"/>
<path d="M250.986 131.355C251.527 137.596 250.586 146.207 253.4 151.861" stroke="#645841" stroke-linecap="round"/>
<path d="M240.847 121.379C240.847 128.286 240.35 135.165 241.813 141.884" stroke="#645841" stroke-linecap="round"/>
<path d="M236.503 176.799V194.533" stroke="#645841" stroke-linecap="round"/>
<path d="M224.916 177.35V191.204" stroke="#645841" stroke-linecap="round"/>
<path d="M197.024 65.0508C196.806 70.1208 196.842 75.1259 196.98 80.1944C197.103 84.7062 197.81 89.0959 197.81 93.6079C197.81 98.1623 197.577 102.803 197.81 107.347C197.858 108.278 199.074 107.91 199.623 107.924C201.047 107.961 202.387 108.541 203.794 108.601C205.912 108.691 208.291 108.875 210.39 108.501C211.819 108.246 213.111 108.15 214.562 108.15C215.677 108.15 217.749 108.61 218.646 107.924" stroke="#645841" stroke-linecap="round"/>
<path d="M218.644 66.8555C218.644 71.1947 218.405 75.6433 218.677 79.9682C218.954 84.3645 220.02 88.5379 220.02 92.9806C220.02 95.8515 220.437 99.2279 219.627 101.969C219.043 103.947 219.234 106.085 219.234 108.149" stroke="#645841" stroke-linecap="round"/>
<path d="M197.417 65.503C193.501 64.9411 205.308 65.7286 209.254 65.7286C210.59 65.7286 213.079 65.2056 214.125 66.4056" stroke="#645841" stroke-linecap="round"/>
<path d="M200.365 81.748C204.104 81.748 207.835 81.9737 211.569 81.9737" stroke="#645841" stroke-linecap="round"/>
<path d="M201.937 84.2305C206.368 84.7567 210.666 84.9074 215.106 84.9074" stroke="#645841" stroke-linecap="round"/>
<path d="M219.233 65.502C222.463 65.6216 225.785 65.9602 228.996 66.4046C229.915 66.5317 230.698 66.8412 231.617 66.6302" stroke="#645841" stroke-linecap="round"/>
<path d="M231.42 68.6602C231.42 75.6576 231.813 82.6066 231.813 89.5954C231.813 92.8103 231.863 95.863 231.354 99.0225C231.048 100.922 230.599 102.697 230.142 104.551C229.723 106.254 229.651 107.966 229.651 109.728C229.651 110.464 229.931 111.297 229.149 111.308C226.619 111.344 224.057 111.052 221.592 111.759" stroke="#645841" stroke-linecap="round"/>
<path d="M195.449 64.8236C193.639 65.1353 191.689 65.736 189.88 65.0994C188.74 64.6983 187.668 63.6953 186.44 63.6953C185.97 63.6953 185.501 63.6953 185.031 63.6953" stroke="#645841" stroke-linecap="round"/>
<path d="M184.835 69.3379C184.835 80.675 184.51 92.0115 184.442 103.336C184.431 105.182 184.442 107.03 184.442 108.877C184.442 110.457 183.975 111.571 185.578 111.76C187.268 111.959 189.332 112.553 191.038 112.174C191.75 112.016 192.358 111.477 193.091 111.309" stroke="#645841" stroke-linecap="round"/>
<path d="M191.911 72.2716C191.911 73.7676 191.911 75.2636 191.911 76.7595C191.911 79.3169 191.502 76.984 190.491 76.4587C190.136 76.2745 188.302 75.3852 189.049 74.6785C189.725 74.0397 190.602 73.6258 191.299 72.9987C191.706 72.633 191.727 72.1472 192.107 71.8203" stroke="#645841" stroke-linecap="round"/>
<path d="M196.039 73.173C195.033 73.173 192.501 72.7302 192.501 74.6522C192.501 75.1329 192.324 76.3047 192.643 76.6705C193.351 77.4833 194.73 77.2346 195.646 77.2346" stroke="#645841" stroke-linecap="round"/>
<path d="M190.612 98.1087C190.612 99.5273 190.612 100.946 190.612 102.364C190.612 102.832 190.551 102.898 190.223 102.537C189.946 102.233 189.821 101.974 189.46 101.783C189.32 101.709 188.213 100.848 188.236 100.614C188.279 100.161 188.932 99.6874 189.232 99.4506C189.748 99.0435 190.017 98.3176 190.412 97.7637" stroke="#645841" stroke-linecap="round"/>
<path d="M197.024 97.9941C196.452 98.1037 195.921 98.2555 195.332 98.2625C194.777 98.2691 194.204 98.1603 193.651 98.2497C193.168 98.3279 191.864 98.5193 191.625 99.0676C191.182 100.085 191.034 101.347 192.026 101.905C193.297 102.619 194.442 102.71 195.822 102.71" stroke="#645841" stroke-linecap="round"/>
<path d="M220.268 98.6872C221.401 98.6872 222.322 98.4873 223.273 99.2623C223.877 99.7539 224.446 100.425 224.476 101.333C224.508 102.31 223.773 102.749 222.95 102.892C222.066 103.046 220.268 102.943 220.268 102.943" stroke="#645841" stroke-linecap="round"/>
<path d="M225.379 98.8019C225.498 99.7367 225.68 100.678 225.68 101.626C225.68 102.136 225.621 102.693 225.68 103.198C225.735 103.675 227.876 102.115 228.14 101.882C228.545 101.524 228.656 101.237 228.218 100.847C227.677 100.364 226.994 100.217 226.482 99.7092C225.951 99.1833 225.337 98.8226 224.778 98.3418" stroke="#645841" stroke-linecap="round"/>
<path d="M219.768 74.9941C220.989 74.9941 222.209 74.9941 223.43 74.9941C223.739 74.9941 223.948 75.0055 224.198 75.2242C224.769 75.7221 225.262 76.5628 225.061 77.4478C224.971 77.8448 224.406 78.075 224.109 78.138C223.038 78.3653 221.903 78.166 220.82 78.2274C220.216 78.2616 219.682 78.4447 219.066 78.4447" stroke="#645841" stroke-linecap="round"/>
<path d="M225.68 74.6461C225.68 76.0846 225.641 77.437 225.875 78.825C226.025 79.7135 227.391 78.3433 227.673 78.1094C228.012 77.8281 228.616 77.4499 228.808 76.9911C229.074 76.359 227.855 75.8292 227.55 75.6301C227.201 75.4014 226.39 74.9171 226.281 74.416" stroke="#645841" stroke-linecap="round"/>
<path d="M187.206 61.9883C189.632 63.292 192.453 62.8258 194.998 63.4948C196.887 63.9913 198.918 64.8564 200.872 64.8564C201.881 64.8564 202.891 64.8564 203.9 64.8564C205.393 64.8564 206.886 64.8564 208.38 64.8564C208.765 64.8564 209.102 64.5302 209.503 64.487C210.707 64.3574 211.96 64.4653 213.168 64.4653C216.213 64.4653 219.192 64.2046 222.235 64.2046C224.268 64.2046 226.906 63.7772 228.657 65.1172" stroke="#645841" stroke-linecap="round"/>
<path d="M188.795 61.4642C190.029 57.1437 194.407 58.1508 197.35 59.2769C198.707 59.7959 199.853 60.2766 201.338 60.2909C202.31 60.3003 202.685 59.3675 203.432 58.7482C204.355 57.9834 205.985 57.972 206.984 58.5454C207.394 58.7805 207.876 59.2273 208.328 58.8568C208.835 58.4412 209.182 57.8357 209.64 57.3648C209.835 57.1648 210.35 58.5964 210.625 58.8134C211.388 59.4162 212.213 59.5883 213.148 59.4797C214.253 59.3515 215.212 58.7442 216.353 58.7264C216.894 58.7181 217.752 58.5525 218.227 58.9365C218.546 59.1937 218.741 59.9097 218.946 60.2764C220.168 62.4574 223.199 61.9688 225.079 61.6091C226.022 61.4286 227.12 61.5067 228.063 61.6525C228.576 61.7318 228.707 61.9135 228.827 62.4347C229.039 63.3595 228.576 64.1816 228.088 64.8538" stroke="#645841" stroke-linecap="round"/>
<path d="M52.3652 33.4284C53.3815 31.3773 54.5612 29.3518 55.7368 27.4141C57.0279 25.2858 59.2146 23.8975 60.8648 22.1646C63.7602 19.124 67.0261 16.7735 70.0507 13.9254C71.499 12.5618 72.7752 11.0057 74.1693 9.57985C75.4283 8.29217 76.9142 7.25964 78.2676 6.10339C79.8921 4.71563 81.4948 4.0656 82.5275 1.93164" stroke="#645841" stroke-linecap="round"/>
<path d="M11.118 68.4706C10.362 68.4706 8.75586 67.2392 8.75586 66.3848" stroke="#645841" stroke-linecap="round"/>
<path d="M9.12012 65.9674C10.9329 64.9765 12.5365 63.1296 14.1472 61.7725C16.044 60.1743 18.3369 59.1961 19.8505 57.0909C21.8123 54.3624 24.3261 52.2336 26.5634 49.8135C28.9117 47.2732 30.8632 44.3133 33.3267 41.9103C35.3893 39.8983 37.992 39.1197 40.2817 37.5648C41.726 36.584 42.8601 35.2796 44.37 34.4707" stroke="#645841" stroke-linecap="round"/>
<path d="M49.6396 30.2984C50.049 28.1052 52.0043 25.9198 53.092 24.1103C54.4215 21.8983 56.446 20.6574 58.6237 19.7763C61.1381 18.7589 63.5921 18.2928 65.6899 16.2998C66.9242 15.1271 68.2683 13.9629 69.5964 12.9392C72.477 10.7189 75.3096 7.82021 77.2581 4.47985C78.1869 2.88756 79.6281 2.13451 81.0738 1.30469" stroke="#645841" stroke-linecap="round"/>
<path d="M81.8848 0.566406C91.4314 2.39296 100.484 6.67374 109.927 8.84177C112.548 9.44337 114.963 10.5659 117.671 10.7515C120.602 10.9524 123.55 10.6901 126.483 10.8197C128.942 10.9282 130.849 12.172 133.177 12.6839C136.768 13.4733 140.364 14.4438 143.931 15.3666C147.409 16.2663 150.92 17.1226 154.288 18.4812C157.064 19.6008 160.414 19.4276 163.319 20.0271C167.399 20.8693 171.336 20.9688 175.419 22.0505C177.613 22.6316 179.68 23.8142 181.935 23.892C184.56 23.9827 187.192 24.3012 189.817 24.3012C191.917 24.3012 193.805 25.1197 195.956 25.1197" stroke="#645841" stroke-linecap="round"/>
<path d="M196.312 24.7109C199.982 26.7257 204.07 27.31 207.759 29.2351C210.056 30.4337 212.523 30.4392 214.849 31.4404C215.623 31.7734 216.025 32.5687 216.711 33.0318C218.353 34.1407 220.525 34.8163 222.315 35.5098C224.382 36.3104 227.146 36.3389 229.068 37.4423C231.296 38.7209 233.447 39.5124 235.96 39.9431C242.38 41.043 249.16 42.5805 255.447 44.5354C258.211 45.3946 260.871 46.6374 263.646 47.4454C265.625 48.0216 267.736 48.1703 269.667 48.9459C275.432 51.2624 281.613 51.7495 287.589 53.0836C290.243 53.6759 292.879 54.1076 295.451 55.0842C297.868 56.0018 299.239 57.3428 301.313 58.6763C302.293 59.3062 306.096 62.6433 303.096 63.8143C300.773 64.7209 296.245 67.0029 295.412 63.1777" stroke="#645841" stroke-linecap="round"/>
<path d="M204.869 33.3047C205.703 33.5659 206.172 34.4037 207.087 34.5324C209.276 34.84 211.634 35.7823 213.741 36.4875C225.331 40.3658 237.076 43.5322 248.715 47.2182" stroke="#645841" stroke-linecap="round"/>
<path d="M61.8516 32.125C70.8467 33.9639 79.5812 36.1392 88.7377 36.1392C102.005 36.1392 114.631 38.7835 127.591 41.7591" stroke="#645841" stroke-linecap="round"/>
<path d="M64.6471 29.7183C63.9619 29.5872 66.9426 27.4028 67.0948 27.2651C68.6536 25.8553 70.2303 24.4953 71.0966 22.4035C73.9945 15.4059 78.8796 9.50405 82.8302 3.22461" stroke="#645841" stroke-linecap="round"/>
<path d="M91.2223 11.252C86.9737 11.7939 85.351 19.5977 82.8301 22.4917" stroke="#645841" stroke-linecap="round"/>
<path d="M166.369 41.9004C172.552 41.9004 178.223 42.45 184.351 43.5827C190.563 44.731 197.184 44.8116 203.284 46.5837C214.14 49.7377 225.116 50.4449 236.238 51.7217" stroke="#645841" stroke-linecap="round"/>
<path d="M31.2655 63.5879C31.0899 67.0135 29.8396 70.0343 29.8396 73.4774C29.8396 77.562 29.8396 81.6467 29.8396 85.7313C29.8396 94.7039 29.8396 103.676 29.8396 112.649C29.8396 115.858 29.7444 119.102 30.1564 122.288C30.4886 124.856 31.741 127.168 31.9388 129.723C32.1439 132.371 31.9784 135.136 31.9784 137.793C31.9784 139.741 31.1082 150.457 32.3349 151.161" stroke="#645841" stroke-linecap="round"/>
<path d="M32.334 149.934C36.4439 157.325 43.5652 161.001 50.4348 164.211C52.7787 165.306 54.6202 166.76 56.7721 168.28C58.9952 169.851 61.6336 170.609 64.06 171.622" stroke="#645841" stroke-linecap="round"/>
<path d="M32.3361 153.205C32.3361 156.273 31.7087 159.924 33.0491 162.617" stroke="#645841" stroke-linecap="round"/>
<path d="M39.4639 169.166C42.8055 171.851 46.2032 174.258 49.7421 176.6C51.1658 177.542 52.3749 179.032 53.7228 179.806" stroke="#645841" stroke-linecap="round"/>
<path d="M45.5254 183.897C48.6952 183.245 51.8693 182.148 55.0907 181.919C57.8329 181.724 60.6024 181.851 63.349 181.851" stroke="#645841" stroke-linecap="round"/>
<path d="M48.7329 183.489C49.0802 184.685 51.5912 190.485 50.2776 191.741C48.7354 193.217 45.4703 194.824 44.0987 192.446C42.1275 189.029 43.8088 186.867 44.7127 183.443C45.1548 181.768 45.6773 182.261 47.307 182.261" stroke="#645841" stroke-linecap="round"/>
<path d="M51.5859 192.492C55.5101 192.492 59.0357 192.83 62.2801 190.037" stroke="#645841" stroke-linecap="round"/>
<path d="M19.1465 156.891H26.9889" stroke="#645841" stroke-linecap="round"/>
<path d="M21.2853 155.662C21.6841 158.409 23.0677 160.28 23.0677 163.255C23.0677 165.957 21.12 165.978 19.1465 166.302" stroke="#645841" stroke-linecap="round"/>
<path d="M18.7891 163.025V164.662" stroke="#645841" stroke-linecap="round"/>
<path d="M19.146 165.482C17.0299 163.982 17.1512 161.82 16.829 159.23C16.5439 156.94 18.2708 156.568 19.859 156.07" stroke="#645841" stroke-linecap="round"/>
<path d="M22.71 166.301L29.8394 166.71" stroke="#645841" stroke-linecap="round"/>
<path d="M60.8539 177.35C59.8396 187.053 55.5068 196.081 55.5068 205.995" stroke="#645841" stroke-linecap="round"/>
<path d="M61.9219 176.532C65.8616 179.627 71.6478 181.034 76.359 181.034C79.906 181.034 84.0114 181.609 87.469 180.534C89.1436 180.013 89.5524 177.707 90.0832 176.123" stroke="#645841" stroke-linecap="round"/>
<path d="M72.6166 169.984C69.6628 170.217 58.2513 171.499 62.9918 176.941" stroke="#645841" stroke-linecap="round"/>
<path d="M88.2999 180.623C87.8486 186.667 87.2305 192.559 87.2305 198.629" stroke="#645841" stroke-linecap="round"/>
<path d="M58.356 203.129C57.32 203.922 60.8683 205.347 61.1286 205.402C62.3242 205.657 63.5624 205.584 64.7725 205.584" stroke="#645841" stroke-linecap="round"/>
<path d="M81.8852 104.509C81.1509 103.719 81.1697 104.034 80.9545 105.077C80.3375 108.068 79.3328 111.005 79.0929 114.08C78.6244 120.086 79.0335 126.355 79.0335 132.382C79.0335 139.868 78.0858 146.823 77.2709 154.229C76.8665 157.905 77.1189 161.652 76.5778 165.301C76.2061 167.808 75.4688 169.887 75.4688 172.44" stroke="#645841" stroke-linecap="round"/>
<path d="M84.0249 108.191C83.3166 114.442 81.9114 120.375 81.886 126.697C81.8556 134.29 81.886 141.884 81.886 149.477C81.886 154.226 82.0046 159.072 80.9354 163.709C79.9762 167.869 78.638 171.872 77.9648 176.122" stroke="#645841" stroke-linecap="round"/>
<path d="M82.5983 109.01C78.5848 100.782 79.8507 90.4571 80.816 81.5918" stroke="#645841" stroke-linecap="round"/>
<path d="M82.2419 102.871C80.8762 95.0313 81.529 86.6879 81.529 78.7266" stroke="#645841" stroke-linecap="round"/>
<path d="M84.0241 105.736C84.0241 97.6573 82.9632 88.9384 86.163 81.5918" stroke="#645841" stroke-linecap="round"/>
<path d="M85.0947 103.281C85.4963 99.7187 86.3552 96.3251 87.1345 92.846C88.3984 87.2035 89.3366 81.5391 90.4418 75.8633" stroke="#645841" stroke-linecap="round"/>
<path d="M85.0947 109.011C88.2471 101.986 90.9788 94.7628 93.2936 87.3223" stroke="#645841" stroke-linecap="round"/>
<path d="M84.0225 109.42C88.8593 105.653 91.9721 100.279 93.6472 93.8691" stroke="#645841" stroke-linecap="round"/>
<path d="M85.0947 113.103C89.9813 109.363 94.4738 104.196 95.7889 97.5527" stroke="#645841" stroke-linecap="round"/>
<path d="M84.0226 114.329C82.4078 110.506 83.5334 104.459 83.9433 100.506C84.4612 95.5127 85.4915 90.5647 86.5179 85.6836" stroke="#645841" stroke-linecap="round"/>
<path d="M80.4572 111.875C79.6558 107.391 80.1007 102.439 80.1007 97.8934C80.1007 92.4202 80.484 87.3842 81.1701 82.002" stroke="#645841" stroke-linecap="round"/>
<path d="M83.668 114.33C85.7392 107.252 89.2913 101.076 92.5798 94.6875" stroke="#645841" stroke-linecap="round"/>
<path d="M88.3008 108.601C89.3634 102.857 89.32 97.0042 89.9247 91.1863C90.5015 85.6365 91.7245 81.0198 93.2914 75.8633" stroke="#645841" stroke-linecap="round"/>
<path d="M87.9434 108.598C94.8401 102.696 95.0728 91.3532 95.0728 82.4082" stroke="#645841" stroke-linecap="round"/>
<path d="M283.838 198.806C281.484 198.286 279.555 195.773 277.968 193.921C275.854 191.451 274.841 189.914 274.203 186.729C273.425 182.841 272.462 179.045 272.447 175.016C272.434 171.306 273.329 167.66 274.409 164.192C275.187 161.694 275.8 159.063 276.877 156.71C277.921 154.429 278.62 152.695 278.696 150.081C278.749 148.245 278.486 146.754 278.048 145.014C277.442 142.611 278.29 140.788 278.997 138.658" stroke="#645841" stroke-linecap="round"/>
<path d="M321.139 160.559C321.139 149.583 321.397 138.614 317.643 128.252C314.349 119.157 307.884 111.6 309.354 101.102C309.689 98.706 310.396 96.743 309.448 94.3641C308.119 91.0257 306.037 88.171 304.623 84.8661C303.692 82.6874 304.176 80.4343 303.342 78.3283C302.495 76.1901 301.988 73.5996 301.491 71.3184" stroke="#645841" stroke-linecap="round"/>
<path d="M300.354 71.6478C298.927 70.2821 297.069 67.8716 295.197 67.3619C293.929 67.0168 292.854 69.0162 292.286 69.8499C290.277 72.7985 288.315 75.9951 286.907 79.3842C285.002 83.9727 285.702 89.1834 284.788 94.0579C283.96 98.4723 282.551 102.718 281.75 107.133C280.386 114.65 281.964 121.733 281.845 129.253C281.8 132.13 281.007 134.615 280.485 137.389C279.994 139.999 280.477 141.989 280.991 144.544" stroke="#645841" stroke-linecap="round"/>
<path d="M304.911 178.539C302.706 171.133 297.663 164.134 297.396 156.129C297.176 149.5 300.445 144.168 303.202 138.658" stroke="#645841" stroke-linecap="round"/>
<path d="M297.221 104.007C297.146 99.5614 297.041 95.1017 296.905 90.6587C296.837 88.4422 296.367 86.2736 296.367 84.0664" stroke="#645841" stroke-linecap="round"/>
<path d="M294.089 138.006C293.891 142.852 292.781 147.743 291.352 152.298C289.104 159.467 288.361 166.737 287.824 174.291" stroke="#645841" stroke-linecap="round"/>
<path d="M280.705 174.945C280.645 179.438 280.397 182.852 282.983 186.459C286.219 190.973 292.84 190.771 297.505 191.617" stroke="#645841" stroke-linecap="round"/>
<path d="M237.139 79.4922C240.96 79.6152 244.709 80.4729 248.529 80.4729" stroke="#645841" stroke-linecap="round"/>
<path d="M242.265 94.5273C247.992 96.1067 253.77 96.6936 259.635 97.1425" stroke="#645841" stroke-linecap="round"/>
<path d="M144.212 110.745C144.479 105.22 144.658 99.7742 144.658 94.2378C144.658 84.9184 143.745 75.2219 145.997 66.1758" stroke="#645841" stroke-linecap="round"/>
<path d="M144.212 73.3464C146.31 70.9379 148.394 68.9105 150.906 67.0851C154.58 64.4151 157.069 60.7275 159.831 56.9531" stroke="#645841" stroke-linecap="round"/>
<path d="M240.157 66.6875H259.346" stroke="#645841" stroke-linecap="round"/>
<path d="M170.094 216.789C170.9 218.872 172.404 220.116 173.912 221.57C176.776 224.332 179.671 227.155 182.787 229.539C185.806 231.85 188.547 234.438 191.96 235.744" stroke="#645841" stroke-linecap="round"/>
<path d="M108.065 229.084C110.524 232.587 113.585 235.393 116.544 238.305" stroke="#645841" stroke-linecap="round"/>
<path d="M74.7158 209.266C72.6643 214.735 71.3504 220.421 69.4666 225.941C68.6339 228.381 67.0818 230.234 65.9941 232.419" stroke="#645841" stroke-linecap="round"/>
<path d="M85.0704 213.021C84.5391 215.8 84.3766 218.687 84.3436 221.527C84.3276 222.911 84.2487 224.355 84.5859 225.699C85.4976 229.334 87.6994 232.529 89.613 235.549" stroke="#645841" stroke-linecap="round"/>
<path d="M64.7209 205.302C67.1414 207.33 69.905 207.146 72.8268 206.867C74.9632 206.662 76.203 206.881 78.0254 208.315C79.5254 209.495 80.0578 210.308 82.0128 210.308C83.2289 210.308 85.467 210.701 86.4543 209.613C87.2005 208.791 87.6209 207.638 88.4429 206.89C88.9082 206.466 89.412 206.545 89.8965 206.252C90.3952 205.951 90.5719 204.951 90.7848 204.421C91.5364 202.552 92.24 200.944 92.4302 198.848C92.9049 193.617 89.6927 190.47 86.3837 187.526C85.2457 186.513 84.0482 185.551 83.0727 184.351C82.7499 183.954 82.4787 182.839 82.0834 182.612C81.5786 182.323 80.4125 182.566 79.9131 182.566C78.6414 182.566 77.1553 182.321 75.8955 182.601C74.1969 182.978 71.6088 184.263 70.6565 185.95C68.3944 189.956 66.0032 193.906 64.085 198.164C63.4661 199.537 63.8124 201.667 63.8124 203.17C63.8124 204.805 66.7321 205 67.6281 205.094" stroke="#645841" stroke-linecap="round"/>
<path d="M68.682 194.457C68.3474 194.762 65.5165 197.404 67.3938 197.651C68.1705 197.754 69.4707 198.05 70.2344 197.748C70.6322 197.59 70.7982 197.085 71.0009 196.72" stroke="#645841" stroke-linecap="round"/>
<path d="M69.8413 194.592C68.8 194.673 68.3071 195.114 67.5225 195.79" stroke="#645841" stroke-linecap="round"/>
<path d="M74.028 189.555C73.577 189.714 72.8721 189.849 72.824 190.512C72.7738 191.203 72.9671 191.672 73.5752 191.906C74.3595 192.208 75.2391 192.169 75.8494 191.469C76.2377 191.023 76.389 190.227 76.1376 189.65C75.7343 188.724 74.9703 188.174 74.0794 188.291C73.4377 188.375 73.0092 189.196 73.0092 189.874" stroke="#645841" stroke-linecap="round"/>
<path d="M80.7876 192.107C80.299 193.173 79.8445 194.705 81.2507 194.895C82.0037 194.998 83.2778 195.29 83.8439 194.506C84.1027 194.147 84.2513 193.703 84.3996 193.277" stroke="#645841" stroke-linecap="round"/>
<path d="M83.66 192.106C82.8606 191.764 82.1435 191.124 81.3034 190.913C80.8187 190.791 80.7904 191.382 80.6963 191.787" stroke="#645841" stroke-linecap="round"/>
<path d="M80.0482 199.761C79.6789 200.256 79.7641 200.936 80.3981 200.99C81.8505 201.112 83.9606 200.355 83.4956 198.255C83.2931 197.341 81.9169 197.149 81.2522 197.44C80.7493 197.66 80.246 198.61 80.6039 199.123" stroke="#645841" stroke-linecap="round"/>
<path d="M87.1792 203.695C86.7483 204.502 86.4525 205.432 87.2924 206.011C88.5119 206.851 89.4136 206.189 90.0503 204.971" stroke="#645841" stroke-linecap="round"/>
<path d="M89.3092 202.527C88.6929 202.391 88.0624 202.305 87.4363 202.255C86.9212 202.214 86.9488 202.204 86.8086 202.633" stroke="#645841" stroke-linecap="round"/>
<path d="M70.3219 206.355C70.0126 205.879 68.9259 204.617 69.2414 203.862C69.3794 203.532 70.1003 203.404 70.3013 203.343C71.1901 203.07 72.3558 202.55 73.2959 202.681C73.9501 202.772 73.9718 203.993 73.8362 204.512C73.6819 205.103 72.9767 205.346 72.5447 205.611" stroke="#645841" stroke-linecap="round"/>
</svg>
