<svg width="266" height="201" viewBox="0 0 266 201" fill="none" xmlns="http://www.w3.org/2000/svg">
<path d="M160.181 129.624C161.374 130.817 162.729 131.921 164.095 132.882C164.521 133.182 164.989 133.387 165.408 133.706C165.996 134.152 166.562 134.182 167.273 134.35C167.888 134.496 168.507 134.692 169.115 134.851C169.999 135.083 170.874 135.059 171.775 135.162C173.65 135.376 175.51 135.244 177.388 135.329C179.21 135.412 181.025 135.427 182.852 135.427C184.029 135.427 185.193 135.223 186.346 135.001C187.074 134.861 187.717 134.526 188.424 134.333C188.523 134.306 188.841 134.338 188.885 134.218C189.064 133.724 189.647 133.684 189.875 133.228C190.121 132.735 190.204 132.26 190.105 131.696C189.983 130.996 189.126 130.682 188.776 130.09C188.547 129.704 188.193 129.288 187.895 128.95C187.59 128.605 187.13 128.504 186.755 128.254C186.175 127.867 185.548 127.626 184.999 127.183C183.453 125.936 181.547 126.094 179.731 125.525C178.718 125.208 177.826 124.942 176.79 124.754C175.985 124.607 175.078 124.546 174.256 124.546C172.439 124.546 170.622 124.546 168.805 124.546C167.755 124.546 166.403 124.462 165.437 124.967C164.627 125.389 163.861 126.057 163.105 126.561C162.538 126.94 161.735 127.642 161.735 128.392C161.735 128.681 161.705 128.961 161.816 129.232C161.968 129.607 162.462 130.275 162.817 130.476C164.334 131.334 165.591 132.487 167.285 133.021C168.531 133.413 169.808 133.734 171.073 134.063C171.752 134.239 172.499 134.188 173.157 134.414C173.557 134.551 173.855 134.598 174.285 134.598C176.506 134.598 178.614 134.664 180.768 134.08C181.99 133.748 183.307 133.873 184.561 133.873C185.244 133.873 185.684 133.901 186.087 133.297C186.748 132.305 185.22 130.745 184.51 130.303C183.643 129.765 182.884 129.122 181.942 128.703C181.273 128.405 180.75 128.07 180.134 127.69C179.669 127.402 179.078 127.325 178.557 127.183C176.235 126.55 174.05 126.308 171.649 126.308C170.17 126.308 168.519 126.665 167.411 127.672C166.717 128.304 165.494 129.38 166.11 130.476C167.008 132.071 168.981 133.152 170.716 133.424C172.74 133.74 174.619 134.287 176.68 134.287C177.881 134.287 179.083 134.287 180.284 134.287C180.925 134.287 181.674 134.387 182.305 134.218C183.678 133.85 183.644 132.422 182.771 131.593C180.949 129.862 178.226 129.461 175.897 128.852C175.331 128.704 174.692 128.538 174.101 128.611C173.46 128.69 172.287 128.754 171.844 129.278C170.518 130.849 172.808 131.35 173.94 131.645C174.573 131.809 175.204 131.881 175.857 131.898C176.143 131.906 176.984 132.055 177.233 131.858C177.474 131.667 177.205 130.618 177.175 130.349" stroke="#645841" stroke-linecap="round"/>
<path d="M147.434 182.784C147.434 184.524 148.23 185.645 149.299 186.964C150.028 187.863 150.592 188.839 151.279 189.761C151.93 190.635 152.958 191.273 153.916 191.765C155.956 192.813 158.064 193.405 160.249 194.062C161.803 194.529 163.434 194.969 165.027 195.277C166.813 195.621 168.621 195.821 170.381 196.301C172.036 196.753 173.669 196.67 175.378 196.67C178.425 196.67 181.508 196.784 184.508 196.129C185.519 195.908 186.477 195.373 187.479 195.092C188.051 194.932 188.751 194.844 189.264 194.528C189.928 194.12 190.438 193.243 190.904 192.634C191.452 191.92 191.649 191.084 191.947 190.251C192.258 189.379 192.407 188.732 192.407 187.816C192.407 187.001 192.456 186.259 192.073 185.513C191.361 184.125 190.503 182.973 189.246 182.024C187.46 180.675 185.676 179.503 183.616 178.61C182.923 178.31 182.29 178.061 181.688 177.591C181.105 177.137 180.577 176.76 179.891 176.474C178.801 176.02 177.862 175.513 176.691 175.265C176.035 175.127 175.377 174.996 174.722 174.857C173.991 174.701 173.338 174.343 172.615 174.172C169.893 173.525 167.254 172.836 164.428 172.836C161.717 172.836 159.063 172.943 156.484 173.907C155.386 174.317 154.585 175.723 153.91 176.676C153.229 177.638 153.534 179.344 153.547 180.481C153.558 181.338 153.765 182.114 154.066 182.911C154.379 183.741 154.613 184.747 155.159 185.444C155.715 186.153 156.132 186.978 156.731 187.654C157.375 188.381 158.295 188.786 159.04 189.393C160.17 190.315 161.653 190.83 162.966 191.419C164.348 192.04 165.681 192.423 167.157 192.755C169.747 193.338 172.292 193.561 174.935 193.561C177.813 193.561 180.9 193.99 183.599 192.882C185.7 192.019 187.283 190.378 187.111 187.96C187.025 186.767 186.08 185.829 185.378 184.931C184.155 183.368 182.284 182.439 180.617 181.414C177.899 179.743 174.564 179.239 171.498 178.518C169.045 177.941 165.986 176.431 163.703 178.144C161.977 179.438 160.995 181.173 161.227 183.383C161.271 183.802 161.582 184.119 161.815 184.448C162.27 185.092 162.611 185.803 163.058 186.451C163.66 187.324 164.258 187.932 165.159 188.495C166.744 189.485 168.376 190.097 170.208 190.498C171.433 190.766 172.67 190.983 173.864 191.373C174.759 191.666 175.454 191.889 176.414 191.903C177.396 191.918 178.021 191.904 178.867 191.454C179.461 191.138 179.781 190.265 179.857 189.623C180.214 186.588 175.905 184.762 173.824 183.567C172.364 182.729 170.587 182.09 169.005 182.98C168.4 183.32 168.188 183.775 167.905 184.39C167.529 185.21 167.883 185.838 168.389 186.48C168.962 187.208 169.56 187.857 170.496 188.103C171.301 188.315 172.154 188.337 172.972 188.483C173.32 188.546 173.947 188.803 174.313 188.673C174.991 188.434 174.788 186.635 174.065 186.515" stroke="#645841" stroke-linecap="round"/>
<path d="M72.4102 130.247C73.2767 130.613 74.1173 130.86 75.0468 131.03C75.4826 131.11 76.033 131.284 76.4688 131.284C78.0927 131.284 79.6713 131.491 81.2932 131.491C84.594 131.491 87.8924 131.594 91.2009 131.594C92.111 131.594 92.9046 131.62 93.7685 131.33C94.9418 130.935 96.328 130.946 97.43 130.362C97.7826 130.176 98.0729 129.811 98.3856 129.568C98.7228 129.306 99.1298 129.183 99.2895 128.739C99.5329 128.063 99.6078 127.291 99.5543 126.569C99.4876 125.669 98.2613 124.325 97.4242 123.984C94.1857 122.664 90.7779 121.75 87.2689 121.75C86.3017 121.75 85.2993 122.146 84.3271 122.268C83.4427 122.379 82.6935 122.841 81.8458 122.982C81.0876 123.108 80.2469 123.285 79.4797 123.304C78.3694 123.333 77.4583 123.525 76.3767 123.753C75.4019 123.96 74.2997 124.271 73.5443 124.951C72.807 125.614 72.5801 126.278 72.462 127.294C72.2222 129.356 74.3029 130.052 76.0083 130.408C77.3886 130.697 78.7164 131.169 80.113 131.387C81.0405 131.532 81.9744 131.491 82.9109 131.491C84.0616 131.491 85.1965 131.698 86.3535 131.698C88.4278 131.698 90.5623 131.85 92.6286 131.652C93.3347 131.584 94.2954 131.42 94.9487 131.105C95.2233 130.973 95.4077 130.691 95.6453 130.506C96.0079 130.225 96.5207 130.086 96.8427 129.764C97.5787 129.028 97.1869 127.856 96.5894 127.219C95.5218 126.08 94.5646 125.001 93.2792 124.07C92.5413 123.536 91.8454 123.377 90.9937 123.155C89.5894 122.788 88.4083 122.475 86.958 122.475C85.5628 122.475 83.9974 122.273 82.623 122.544C81.9436 122.678 81.3307 123.021 80.6772 123.235C79.9711 123.467 79.1777 123.505 78.5183 123.863C78.1385 124.069 77.6994 124.308 77.4417 124.652C77.0651 125.154 76.7975 125.52 76.5437 126.091C76.3842 126.45 76.1138 126.407 76.1407 126.874C76.2242 128.322 78.2742 128.773 79.3761 129.061C80.4025 129.33 81.5302 129.164 82.577 129.228C84.2833 129.334 85.9407 129.522 87.6546 129.522C88.7735 129.522 89.8409 129.486 90.9476 129.32C91.7496 129.2 92.101 128.824 92.8014 128.451C93.3283 128.171 93.1353 127.435 93.1353 126.908C93.1353 126.347 93.0112 125.987 92.502 125.665C91.4285 124.986 90.0563 124.548 88.7887 124.548C87.7676 124.548 86.6343 124.399 85.6282 124.594C84.9102 124.733 84.1748 124.947 83.4981 125.221C82.9533 125.443 82.8699 125.617 82.7957 126.183C82.7672 126.4 82.6465 127.134 82.8418 127.294C83.0882 127.496 83.5593 127.573 83.8435 127.668C84.7996 127.987 85.6881 128.159 86.699 128.175C87.2723 128.184 88.2725 128.363 88.7887 128.002C89.2878 127.653 89.5502 126.84 89.186 126.275C88.912 125.85 88.2308 125.902 87.8043 125.895C87.0352 125.882 86.2276 125.837 85.4612 125.912C85.2031 125.938 84.6452 126.313 85.0525 126.517" stroke="#645841" stroke-linecap="round"/>
<path d="M1 131.83C2.8805 130.807 4.47473 130.048 6.6132 130.048C7.83099 130.048 9.14544 130.204 10.3035 129.765C11.1977 129.427 12.2959 129.242 13.1313 128.804C14.9924 127.828 16.7916 127.98 18.8718 128.012C20.6593 128.04 22.0367 128.672 23.7215 129.157C26.7607 130.032 30.0289 130.442 33.1381 131.038C35.9117 131.57 38.9877 131.451 41.777 131.123C45.2163 130.718 50.0844 130.44 53.0317 132.339C55.1158 133.681 57.1765 134.522 59.0267 136.269C61.2351 138.355 64.2238 139.946 66.8456 141.458C68.9125 142.651 71.2289 143.366 73.1092 144.838C73.9799 145.519 75.0399 145.8 75.9511 146.407C76.7899 146.966 77.4222 147.948 78.383 148.302C79.2272 148.613 80.2855 148.622 81.1684 148.754C84.2779 149.221 85.9984 150.585 87.729 153.236C89.7652 156.356 91.5882 159.546 93.5118 162.752C94.5859 164.542 95.7896 166.157 96.9759 167.856C97.7186 168.92 97.9831 170.187 98.7291 171.249C99.507 172.357 100.256 172.79 100.256 174.219C100.256 175.663 99.9036 176.937 98.9695 178.05C97.9548 179.26 98.0751 180.586 97.6546 182.023C97.3425 183.09 97.0506 184.224 96.9476 185.332C96.7443 187.518 94.4986 188.986 93.6532 190.889C93.0191 192.315 92.0379 193.51 91.292 194.89C90.3725 196.591 90.0743 198.141 89.8215 200.037" stroke="#645841" stroke-linecap="round"/>
<path d="M93.3866 188.075C91.937 187.904 90.5114 186.211 89.3146 185.473C88.3123 184.856 87.3919 184.009 86.3171 183.522C84.9719 182.913 83.4403 182.888 81.9905 182.787C78.5633 182.549 75.0724 182.73 71.6407 182.73C69.0642 182.73 66.3039 182.352 63.8643 183.239" stroke="#645841" stroke-linecap="round"/>
<path d="M93.638 166.697C91.5841 165.382 87.4177 166.188 85.1262 166.188C82.5761 166.188 80.012 166.108 77.4629 166.188C76.4039 166.221 75.9293 167.044 75.1299 167.587C71.8051 169.848 67.6549 171.732 64.9781 174.784C63.1675 176.849 62.2986 179.694 59.7891 180.949" stroke="#645841" stroke-linecap="round"/>
<path d="M50.1198 171.532C50.1198 170.703 50.054 170.003 50.5864 169.313C52.2548 167.15 54.226 165.069 56.1713 163.162C57.4934 161.866 58.8213 161.391 60.2857 160.433C61.8336 159.421 63.3095 158.246 64.8244 157.181C66.1397 156.256 67.5158 155.355 68.7833 154.368C70.0248 153.401 70.9771 152.293 72.4029 151.568C74.2974 150.604 76.1113 149.963 78.1151 149.391" stroke="#645841" stroke-linecap="round"/>
<path d="M70.9898 145.828C67.5497 145.828 63.3268 145.195 60.0179 146.45C58.592 146.991 57.2994 148.652 56.2145 149.673C54.2283 151.543 52.0904 153.247 50.1206 155.131C49.2943 155.921 47.8301 155.813 47.8301 157.026" stroke="#645841" stroke-linecap="round"/>
<path d="M33.5771 167.205C35.1788 165.722 37.4233 164.281 39.3035 163.161C40.8708 162.227 42.5872 161.696 44.0118 160.588" stroke="#645841" stroke-linecap="round"/>
<path d="M46.556 149.645C46.556 151.841 46.2229 153.896 47.6871 155.639C49.1442 157.374 49.9269 158.609 50.3736 160.843" stroke="#645841" stroke-linecap="round"/>
<path d="M30.0127 132.084C30.0127 134.347 29.8236 136.4 30.762 138.503C31.8314 140.9 33.8288 142.688 34.9331 145.007C35.2224 145.615 35.6117 146.324 35.6117 147.001C35.6117 148.162 35.5765 149.456 35.2724 150.578C34.7304 152.577 33.1612 154.123 32.4446 156.064C31.9444 157.418 31.0307 157.883 31.0307 159.457C31.0307 160.852 31.0307 162.247 31.0307 163.642" stroke="#645841" stroke-linecap="round"/>
<path d="M21.3584 152.19C21.3584 149.632 25.1793 148.873 27.212 148.26C28.4433 147.888 29.516 147.534 30.8033 147.411C31.7164 147.324 32.13 147.391 32.811 146.846" stroke="#645841" stroke-linecap="round"/>
<path d="M5.07129 135.139C6.66343 136.845 7.92665 138.946 8.94539 141.049C9.87938 142.977 11.8445 146.484 10.4159 148.627" stroke="#645841" stroke-linecap="round"/>
<path d="M4.05469 148.626C8.27078 148.626 13.0843 148.127 16.4122 151.185C20.0569 154.534 23.6565 157.698 27.0448 161.323C27.9654 162.308 28.487 162.764 28.487 164.094C28.487 165.802 29.1938 167.306 29.2505 168.986C29.2903 170.168 29.1647 171.37 29.2505 172.549C29.3355 173.719 30.3893 174.958 31.032 175.858" stroke="#645841" stroke-linecap="round"/>
<path d="M4.81934 151.936C6.88038 153.039 11.4573 154.407 12.1575 157.068C12.5465 158.546 12.4544 160.177 12.4544 161.691C12.4544 164.45 11.7182 166.451 10.5881 168.917C9.86196 170.501 8.25482 171.575 7.36437 173.059" stroke="#645841" stroke-linecap="round"/>
<path d="M8.89062 167.715C11.191 167.715 14.4801 167.225 16.7095 167.814C18.0452 168.166 19.048 169.165 20.1595 169.92C21.0611 170.533 22.0193 170.927 22.8459 171.659C24.3155 172.962 25.0066 174.82 26.1968 176.368" stroke="#645841" stroke-linecap="round"/>
<path d="M15.7617 157.789C18.1446 158.083 22.9531 158.116 24.6269 160.348C25.8407 161.967 26.563 163.818 27.2144 165.679" stroke="#645841" stroke-linecap="round"/>
<path d="M5.58398 177.895C5.58398 175.236 5.94466 174.633 8.49663 173.823C11.2652 172.945 14.7299 172.703 17.5739 173.074C20.3466 173.436 22.8107 174.469 25.4918 175.152C26.641 175.445 27.7134 175.98 28.8851 176.199C31.9804 176.776 35.3095 176.994 38.4431 177.217C40.9639 177.396 43.6172 177.028 46.0358 177.768C47.6565 178.264 49.3886 178.012 50.9986 178.518C52.3119 178.93 53.7471 179.445 55.0141 179.988C57.5337 181.068 59.4366 183.037 61.8291 184.399C63.4007 185.294 64.6853 186.481 66.1557 187.51C66.721 187.906 67.4902 188.138 67.9372 188.585" stroke="#645841" stroke-linecap="round"/>
<path d="M40.4473 162.115C42.8271 162.795 45.5936 164.844 46.9371 166.965C48.2786 169.083 50.0439 170.93 51.2212 173.144C52.1287 174.85 52.2427 177.322 51.504 179.11C50.8785 180.625 49.6094 181.196 49.6094 182.984" stroke="#645841" stroke-linecap="round"/>
<path d="M15.3955 110.168C18.3343 111.871 21.0115 113.837 23.6969 115.894C26.7644 118.244 29.8296 120.383 33.1164 122.411C34.775 123.435 36.6083 124.038 38.2102 125.212C40.0684 126.574 41.5944 128.452 43.6541 129.481" stroke="#645841" stroke-linecap="round"/>
<path d="M21.0859 111.591C23.6398 111.171 26.1305 110.596 28.721 110.417C30.6717 110.281 32.0773 109.524 33.9164 109.129C35.4391 108.802 36.9191 108.661 38.1631 107.729" stroke="#645841" stroke-linecap="round"/>
<path d="M48.5312 106.51C48.5312 108.526 49.751 110.314 49.751 112.405" stroke="#645841" stroke-linecap="round"/>
<path d="M44.4662 113.217C42.4482 113.441 40.5109 114.388 38.5254 114.843C36.8253 115.233 35.1655 115.574 33.4881 116.063C32.123 116.461 30.701 116.714 29.3204 117.068C28.288 117.333 26.5652 117.154 25.7627 117.689" stroke="#645841" stroke-linecap="round"/>
<path d="M50.157 113.625C50.157 114.91 49.8337 116.645 50.3152 117.849C50.6409 118.663 51.5801 118.455 51.5801 119.521" stroke="#645841" stroke-linecap="round"/>
<path d="M52.5967 122.978C52.5967 121.459 53.3885 120.417 54.8443 120.053C56.6279 119.607 58.0828 119.822 59.1023 121.352" stroke="#645841" stroke-linecap="round"/>
<path d="M60.7305 100.004C61.3645 102.698 61.4093 105.468 62.0519 108.125C62.3984 109.557 62.4377 110.991 62.2552 112.45C61.991 114.564 61.747 116.579 61.747 118.707" stroke="#645841" stroke-linecap="round"/>
<path d="M49.3457 103.256C49.3457 101.645 49.7523 100.145 49.7523 98.5801" stroke="#645841" stroke-linecap="round"/>
<path d="M53.6133 98.5807C55.2531 99.1055 56.3491 97.8566 57.5889 96.9431C58.5337 96.2469 59.3037 96.0396 60.4803 95.9491C61.2094 95.8931 61.8286 95.5312 62.5585 95.5312" stroke="#645841" stroke-linecap="round"/>
<path d="M64.5917 95.5319C63.3623 94.8201 63.1919 92.8243 61.7004 93.2505C60.7341 93.5265 59.6023 93.7455 58.6057 93.8829C57.3749 94.0527 56.4443 94.7592 55.2625 95.035C53.9421 95.3431 52.6594 95.2303 51.3321 95.3286C50.1717 95.4146 50.9384 97.6504 51.5806 97.9715" stroke="#645841" stroke-linecap="round"/>
<path d="M50.7674 97.9696C50.5261 96.6184 48.8519 96.1029 47.7405 95.5977C46.896 95.2139 46.1712 95.1938 45.267 95.0895C44.38 94.9871 43.5757 94.5541 42.6806 94.5135C41.9216 94.479 40.8781 94.7141 40.1506 94.4231C39.1169 94.0096 38.2427 93.1184 37.3496 92.4805" stroke="#645841" stroke-linecap="round"/>
<path d="M49.751 87.8066C51.2275 89.3379 52.8071 90.8334 54.7544 91.771C56.0854 92.4118 57.065 93.5775 58.2896 94.3122" stroke="#645841" stroke-linecap="round"/>
<path d="M46.9063 94.3103C46.6169 94.2018 46.4499 93.462 46.2851 93.2148C45.8461 92.5563 45.2663 91.9963 44.8055 91.3512C44.1022 90.3666 43.4308 89.1183 42.1174 89.0133C40.6112 88.8928 35.5215 86.1725 35.5215 88.6179" stroke="#645841" stroke-linecap="round"/>
<path d="M38.5711 98.1735C37.1718 96.6063 37.3513 94.6113 37.3513 92.6392C37.3513 91.0731 37.3513 89.5069 37.3513 87.9408C37.3513 86.989 37.1265 86.3529 36.7414 85.4786C36.1336 84.0983 36.1375 82.5888 35.5216 81.2093C34.6997 79.3683 34.6224 77.1583 33.082 75.8105" stroke="#645841" stroke-linecap="round"/>
<path d="M32.4723 77.8449C29.852 77.8449 27.2317 77.8449 24.6114 77.8449C21.5402 77.8449 18.1181 77.4257 15.1467 78.387C12.2488 79.3246 8.74374 79.089 6.07727 80.5555C5.17855 81.0498 4.41699 82.0671 4.41699 83.1307" stroke="#645841" stroke-linecap="round"/>
<path d="M2.58594 84.959C3.66116 85.2365 4.63294 85.8534 5.63543 86.3143C6.53609 86.7284 7.47378 86.8363 8.36868 87.2066C9.67761 87.7482 11.2318 88.3313 12.3217 89.2396C13.6827 90.3737 14.5888 91.9972 15.3486 93.5653C15.8836 94.6694 16.5927 95.3714 17.0202 96.5471" stroke="#645841" stroke-linecap="round"/>
<path d="M16.8184 97.1582C15.1987 97.4527 14.6789 99.6203 13.7124 100.671C12.1922 102.323 10.7397 103.639 8.86713 104.929C7.63372 105.778 6.43115 106.61 5.21904 107.459C3.73859 108.495 2.88227 110.085 1.97754 111.592" stroke="#645841" stroke-linecap="round"/>
<path d="M129.964 131.563C129.826 133.347 129.226 135.015 130.685 136.435C131.97 137.685 134.028 137.7 135.584 138.456C136.493 138.897 137.615 139.243 138.625 139.178C139.374 139.129 141.814 139.087 141.963 138.041C142.139 136.808 141.87 135.558 142.107 134.324C142.38 132.904 142.784 131.489 142.216 130.011C142.002 129.456 140.489 128.938 139.96 128.64C138.492 127.812 136.977 128.045 135.422 127.666C133.436 127.181 131.748 128.018 130.288 129.434C129.296 130.396 128.989 131.528 128.989 132.862" stroke="#645841" stroke-linecap="round"/>
<path d="M130.452 115.812C129.187 116.345 129.315 118.33 129.315 119.457C129.315 121.752 131.84 121.571 132.554 123.355C133.197 124.963 135.198 125.158 136.704 125.222C137.828 125.27 138.277 125.335 139.004 124.491C139.777 123.596 140.632 122.876 141.35 121.911C142.02 121.011 142.525 120.127 143.371 119.349C144.193 118.592 143.56 117.217 143.263 116.444C142.925 115.563 143.072 115.084 142.343 114.459C141.41 113.66 140.329 112.913 139.167 112.42C138.338 112.068 137.488 111.752 136.587 111.752C135.826 111.752 134.697 111.538 133.943 111.77C133.259 111.981 132.537 112.655 131.949 113.06C131.388 113.447 130.587 113.665 130.235 114.296C129.668 115.311 129.54 116.808 129.152 117.923" stroke="#645841" stroke-linecap="round"/>
<path d="M112.423 131.077C111.443 129.909 110.271 128.385 109.897 126.872C109.601 125.671 109.663 124.426 109.663 123.2C109.663 122.399 110.095 121.583 110.457 120.882C110.844 120.129 111.02 119.425 111.296 118.644C111.538 117.956 112.22 117.934 112.856 117.886C114.577 117.757 116.956 117.33 118.631 117.832C119.956 118.23 120.346 120.664 120.579 121.766C120.82 122.905 122.272 123.974 122.158 125.23C122.035 126.591 119.337 127.697 118.243 128.244C116.166 129.282 113.978 130.102 111.611 130.102" stroke="#645841" stroke-linecap="round"/>
<path d="M112.426 119.709C113.52 120.903 115.024 122.804 115.024 124.509C115.024 124.924 115.197 125.839 114.916 126.196C114.475 126.757 114.119 126.97 113.887 127.666" stroke="#645841" stroke-linecap="round"/>
<path d="M134.186 115.16C134.759 116.182 135.382 117.158 135.711 118.291C135.857 118.794 136.127 119.796 136.09 120.294C136.03 121.099 135.032 122.118 134.601 122.793C134.209 123.407 133.951 124.07 133.699 124.742" stroke="#645841" stroke-linecap="round"/>
<path d="M137.595 129.127C136.641 129.195 135.45 129.81 134.997 130.688C134.546 131.561 134.287 132.303 134.383 133.295C134.429 133.767 134.435 134.273 134.51 134.739C134.625 135.456 135.51 135.973 135.971 136.435" stroke="#645841" stroke-linecap="round"/>
<path d="M183.198 106.525C183.861 106.42 184.504 106.141 185.148 106.042C185.614 105.97 186.149 106.02 186.62 106.028C187.442 106.042 188.09 106.354 188.864 106.552C189.248 106.651 189.675 106.608 190.069 106.608" stroke="#645841" stroke-linecap="round"/>
<path d="M192.966 106.773C192.435 106.722 191.913 106.69 191.38 106.69C191.025 106.69 190.535 106.6 190.193 106.732C189.896 106.846 189.653 107.049 189.384 107.214C189.063 107.411 189.031 107.755 188.823 108.051C188.432 108.607 188.164 109.297 187.834 109.9C187.497 110.516 187.503 111.223 187.503 111.905C187.503 112.719 187.666 113.359 188 114.099C188.271 114.7 188.391 114.958 189.071 115.055C189.359 115.096 189.512 115.26 189.766 115.345C190.038 115.436 190.39 115.449 190.676 115.511C191.039 115.589 191.438 115.547 191.807 115.547" stroke="#645841" stroke-linecap="round"/>
<path d="M193.049 107.518C193.049 108.758 193.049 109.998 193.049 111.238C193.049 111.99 192.873 112.994 193.178 113.68C193.303 113.963 193.106 114.582 192.915 114.797C192.249 115.55 191.106 115.612 190.234 115.961" stroke="#645841" stroke-linecap="round"/>
<path d="M192.138 97.418C192.138 97.9759 192.138 98.5339 192.138 99.0919C192.138 99.7782 191.973 100.419 191.973 101.097C191.973 102.382 191.973 103.666 191.973 104.951" stroke="#645841" stroke-linecap="round"/>
<path d="M191.145 96.8398C191.091 97.1131 190.636 97.3383 190.41 97.4515C190.001 97.6556 189.515 97.9783 189.159 98.2654C188.42 98.8618 188.042 100.034 187.926 100.928C187.822 101.736 187.911 102.629 188.087 103.421C188.193 103.895 188.736 104.153 189.168 104.253C189.525 104.335 190.561 104.363 190.732 104.704" stroke="#645841" stroke-linecap="round"/>
<path d="M182.537 101.889C182.537 102.565 182.537 103.241 182.537 103.917C182.537 104.804 183.195 105.323 184.027 105.531" stroke="#645841" stroke-linecap="round"/>
<path d="M172.768 113.231C173.387 113.231 174.006 113.231 174.625 113.231C175.229 113.231 175.982 113.339 176.566 113.14C176.71 113.091 176.775 112.939 176.92 112.91C177.208 112.852 177.578 112.891 177.863 112.937C178.88 113.1 179.91 113.487 180.912 113.728C181.71 113.921 182.407 114.045 183.142 114.363C184.51 114.953 185.916 115.135 187.401 115.135C188.127 115.135 188.812 115.297 189.489 115.466" stroke="#645841" stroke-linecap="round"/>
<path d="M137.837 125.398C138.003 125.855 138.783 126.02 139.171 126.18C139.527 126.328 139.804 126.584 140.072 126.852C140.349 127.129 140.72 127.133 141.01 127.367C141.14 127.472 141.165 127.559 141.314 127.633" stroke="#645841" stroke-linecap="round"/>
<path d="M114.826 131.275C115.807 131.42 116.728 131.767 117.687 132.011C118.647 132.256 119.623 132.44 120.575 132.719C121.131 132.883 121.707 132.963 122.175 133.29C122.958 133.835 123.784 134.192 124.511 134.816C124.898 135.148 125.354 135.37 125.822 135.566C126.08 135.674 126.537 135.65 126.755 135.801C127.011 135.977 126.999 136.186 127.371 136.27C127.752 136.355 128.118 136.404 128.494 136.518C129.168 136.722 129.966 136.803 130.591 137.116C130.927 137.284 131.42 137.237 131.685 137.502C132.046 137.863 132.37 138.258 132.706 138.643" stroke="#645841" stroke-linecap="round"/>
<path d="M124.841 120.762C125.204 121.393 125.585 122.003 125.917 122.652C126.145 123.097 126.396 123.53 126.892 123.705C127.53 123.93 128.171 124.138 128.833 124.284C130.737 124.704 132.523 125.318 134.443 125.646" stroke="#645841" stroke-linecap="round"/>
<path d="M115.82 129.537C116.949 129.574 118.075 129.667 119.205 129.694C119.985 129.713 120.971 129.845 121.734 129.616C122.057 129.519 122.365 129.129 122.654 128.958C123.466 128.478 124.257 127.982 125.055 127.477C125.638 127.108 126.596 126.687 126.954 126.056C127.215 125.595 127.564 125.189 127.823 124.736" stroke="#645841" stroke-linecap="round"/>
<path d="M143.136 115.3C143.136 114.933 143.35 114.748 143.651 114.555C144.358 114.102 145.04 113.657 145.858 113.442C147.281 113.068 148.794 112.912 150.19 112.458C151.15 112.146 152.084 111.833 153.06 111.575C153.656 111.417 154.227 111.238 154.761 110.931C154.982 110.804 155.339 110.746 155.584 110.664C155.97 110.536 156.392 110.466 156.794 110.416" stroke="#645841" stroke-linecap="round"/>
<path d="M156.793 110.662C156.708 110.645 157.411 110.323 157.478 110.295C158.088 110.039 158.74 109.987 159.378 109.835C160.184 109.642 160.655 109.138 161.36 108.749C162.332 108.213 162.987 107.552 164.119 107.361C165.263 107.167 166.472 106.938 167.637 106.938" stroke="#645841" stroke-linecap="round"/>
<path d="M168.135 106.855C168.705 106.561 169.193 106.291 169.818 106.119C170.443 105.947 171.041 105.692 171.667 105.521C172.069 105.411 172.523 105.425 172.908 105.263C173.406 105.055 173.969 104.793 174.426 104.5C174.736 104.301 175.127 103.923 175.461 103.806C176.272 103.519 177.312 104.055 178.105 103.571C178.764 103.169 179.492 102.875 180.147 102.458C180.662 102.13 181.039 101.731 181.462 101.309" stroke="#645841" stroke-linecap="round"/>
<path d="M181.625 108.18C180.988 108.376 180.735 109.225 180.209 109.587C179.685 109.947 179.152 110.152 178.576 110.396C177.808 110.722 177.206 111.166 176.392 111.39C175.077 111.751 173.707 112.118 172.428 112.585C171.979 112.749 171.55 112.993 171.085 113.11C170.693 113.208 170.283 113.226 169.889 113.326C168.066 113.787 166.289 114.456 164.458 114.875C162.924 115.227 161.543 115.822 160.071 116.361C158.952 116.77 157.779 117.437 156.585 117.612C156.285 117.656 156.102 117.728 155.84 117.883C155.208 118.258 154.515 118.418 153.83 118.665C152.899 119.001 152.005 119.369 151.053 119.649C150.361 119.852 149.664 119.949 148.974 120.164C148.003 120.466 147.014 120.588 146.04 120.845C145.479 120.992 145.14 121.187 144.642 121.47C144.169 121.739 143.574 121.876 143.18 122.27C142.902 122.548 142.529 122.745 142.191 122.942C141.891 123.116 141.523 123.148 141.248 123.365C140.604 123.872 139.898 124.244 139.243 124.735" stroke="#645841" stroke-linecap="round"/>
<path d="M66.3174 108.264C67.4111 108.561 68.5216 108.808 69.6009 109.156C69.8936 109.25 70.136 109.295 70.3459 109.505C70.7635 109.923 71.4503 110.173 71.937 110.503C72.4273 110.836 72.9035 111.191 73.3902 111.529C74.1919 112.086 75.0309 112.438 75.8827 112.908C77.0164 113.534 78.1392 114.226 79.3686 114.651C80.1273 114.914 80.7963 115.322 81.5852 115.511C82.3037 115.683 83.0171 115.837 83.7282 116.04C84.485 116.256 85.1209 116.6 85.816 116.964C86.5798 117.365 87.3949 117.531 88.1659 117.88C88.6924 118.117 89.0662 118.523 89.5409 118.841C90.6118 119.557 91.8381 119.961 92.9716 120.551C95.0335 121.626 96.9421 122.95 99.1339 123.743C100.961 124.404 103.052 124.369 104.735 125.357C105.673 125.907 106.504 126.591 107.329 127.298C107.888 127.777 108.541 128.14 109.201 128.461C110.326 129.009 111.364 129.663 112.59 129.951" stroke="#645841" stroke-linecap="round"/>
<path d="M63.0068 107.436C63.4355 107.843 63.8594 107.954 64.4416 107.932C65.1484 107.907 66.1193 107.86 66.7134 107.399C67.7452 106.599 68.3417 105.323 69.1323 104.309C69.5115 103.822 69.5233 103.205 69.3807 102.635" stroke="#645841" stroke-linecap="round"/>
<path d="M66.8123 106.608C66.8123 105.616 66.4717 104.622 65.5706 104.06C64.1366 103.166 62.3017 103.158 60.7695 102.469" stroke="#645841" stroke-linecap="round"/>
<path d="M61.2686 97.4609C62.04 98.4252 62.3213 100.384 63.4158 101.088C64.3219 101.67 65.8317 102.103 66.9164 102.17C67.8757 102.23 68.9312 102.011 69.8756 102.207C71.6909 102.583 72.0564 104.502 72.1582 105.978C72.267 107.555 74.0693 108.312 75.0633 109.235C76.207 110.297 77.2594 110.94 78.8075 110.94C79.9202 110.94 81.033 110.94 82.1457 110.94C82.6882 110.94 83.3785 111.285 83.896 111.463C84.3732 111.628 84.961 112.413 85.4658 112.69C86.9223 113.49 88.1461 114.184 89.7964 114.585C90.9515 114.865 92.0903 115 93.297 115C94.8476 115 96.5252 114.817 98.0065 115.397C98.948 115.765 99.9271 115.868 100.857 116.281C101.234 116.448 101.369 116.869 101.715 117.111C103.369 118.269 104.598 117.923 106.478 117.923C107.175 117.923 108.573 117.699 108.878 118.41C109.058 118.83 109.469 119.036 109.501 119.547C109.532 120.056 109.869 120.211 110.313 120.359" stroke="#645841" stroke-linecap="round"/>
<path d="M120.543 121.007C121.748 121.007 123.138 121.062 124.062 120.159C125.131 119.113 126.108 117.951 126.967 116.748C127.87 115.483 128.818 114.283 129.926 113.176C130.923 112.178 132.186 112.4 133.535 112.4" stroke="#645841" stroke-linecap="round"/>
<path d="M183.554 100.869C184.934 100.12 186.141 99.0579 187.379 98.1084C187.674 97.882 188.017 97.8392 188.263 97.531C188.53 97.1975 188.711 96.7935 189.003 96.4845C189.582 95.8716 189.835 95.4282 190.6 95.1582C191.122 94.9738 191.757 94.1827 192.007 95.1853C192.168 95.8257 192.323 96.2442 192.323 96.9356C192.323 97.6766 192.161 98.3851 192.161 99.1189C192.161 99.8511 192.013 100.261 192.612 100.617C193.227 100.981 193.876 100.869 194.597 100.869" stroke="#645841" stroke-linecap="round"/>
<path d="M193.788 101.195C193.889 100.656 195 100.87 195.448 100.87C196.253 100.87 196.578 100.717 197.198 100.221" stroke="#645841" stroke-linecap="round"/>
<path d="M186.645 88.0332C187.096 88.1837 187.416 88.5215 187.854 88.7111C188.265 88.8892 188.728 88.8962 189.145 89.072C189.871 89.3783 190.458 90.0082 190.935 90.6331C191.345 91.1715 191.648 91.7994 192.135 92.2764C192.505 92.639 192.903 93.043 193.212 93.4619C193.504 93.8575 193.91 94.1282 194.35 94.3481C194.713 94.5294 194.894 95.0089 195.157 95.293C195.665 95.8402 196.051 96.5186 196.308 97.215C196.362 97.3619 196.454 97.4885 196.469 97.6464C196.483 97.7841 196.579 97.825 196.616 97.9516C196.646 98.0566 196.669 98.068 196.754 98.1247C196.829 98.1752 196.79 98.3742 196.865 98.4592C196.968 98.5756 196.992 98.8218 196.997 98.9786C197.002 99.1217 197.103 99.1707 197.103 99.3102C197.103 99.6005 197.261 99.8718 197.261 100.182" stroke="#645841" stroke-linecap="round"/>
<path d="M161.63 84.1314C162.381 84.1314 163.296 83.9811 164.008 84.2523C165.025 84.6397 166.042 84.846 167.128 84.9546C167.725 85.0143 168.774 84.6994 169.246 85.1158C169.715 85.5296 170.477 85.2074 171.008 85.4843C171.481 85.7308 172.088 85.7338 172.614 85.8124C173.155 85.8932 173.555 86.2034 174.123 86.2845C175.137 86.4294 176.126 86.722 177.151 86.722C178.066 86.722 179.087 86.5685 179.937 86.9293C180.608 87.214 181.486 87.3649 182.211 87.4992C182.602 87.5716 182.948 87.7583 183.339 87.7583C183.648 87.7583 183.75 87.9513 184.048 87.9655C184.319 87.9784 184.594 87.9655 184.865 87.9655C185.715 87.9655 186.563 88.1431 187.329 88.4836" stroke="#645841" stroke-linecap="round"/>
<path d="M130.94 79.6289C131.426 79.6705 131.668 79.8747 132.042 80.1352C132.286 80.3046 132.621 80.5895 132.924 80.6322C133.418 80.702 133.963 80.8409 134.433 81.0002C134.766 81.113 135.108 81.1756 135.45 81.251C135.776 81.3227 136.083 81.438 136.4 81.5206C136.754 81.6129 137.1 81.6633 137.448 81.7948C137.826 81.938 138.274 81.9299 138.664 82.0527C138.989 82.1551 139.324 82.2449 139.665 82.2449C140.232 82.2449 140.809 82.1991 141.362 82.3293" stroke="#645841" stroke-linecap="round"/>
<path d="M119.247 109.417C120.067 108.985 120.671 108.228 121.4 107.667C122.095 107.132 122.821 106.66 123.553 106.182C124.362 105.653 125.097 105.033 125.994 104.65C127.453 104.029 129.023 103.58 130.571 103.251C131.594 103.035 132.522 102.785 133.576 102.785C134.789 102.785 135.891 103.103 137.042 103.464C140.689 104.609 144.241 105.178 148.055 104.754" stroke="#645841" stroke-linecap="round"/>
<path d="M154.479 101.126C155.603 100.018 156.735 98.8472 158.072 97.9945C158.48 97.7343 158.896 97.5597 159.327 97.3497C159.77 97.1336 160.087 96.7429 160.542 96.538C161.34 96.1779 162.59 96.0614 163.46 96.0487C165.536 96.0184 167.614 96.0487 169.689 96.0487C171.238 96.0487 173.111 96.3298 174.606 95.8472C175.491 95.5613 176.221 94.9607 177.116 94.7015C177.888 94.4778 178.664 94.2679 179.436 94.0395C180.538 93.7134 181.679 93.5016 182.792 93.2047C183.717 92.958 184.708 92.5254 185.671 92.5254" stroke="#645841" stroke-linecap="round"/>
<path d="M70.958 92.6289C72.9435 92.6798 75.0306 93.055 76.9222 93.6652C77.4308 93.8292 77.8716 94.2967 78.2521 94.6496C78.801 95.1586 79.3549 95.5889 79.9619 96.0255C80.614 96.4945 81.3308 96.8498 81.9884 97.3036C82.5889 97.718 83.1189 98.1714 83.7558 98.5413C85.1545 99.3539 86.5453 100.129 88.1023 100.597C89.7877 101.103 91.5242 101.456 93.2375 101.852" stroke="#645841" stroke-linecap="round"/>
<path d="M86.3965 102.889C86.9022 103.011 87.2774 103.54 87.7321 103.793C88.7196 104.34 89.8085 104.915 90.8984 105.226C91.7771 105.477 92.7068 105.422 93.5812 105.675C95.6031 106.259 97.6219 106.876 99.5224 107.782C100.56 108.276 101.411 109.022 102.458 109.521" stroke="#645841" stroke-linecap="round"/>
<path d="M56.1381 89.625C56.1381 90.0607 56.0668 90.4167 56.3453 90.7649" stroke="#645841" stroke-linecap="round"/>
<path d="M58.3164 89.3149C59.0903 89.2694 59.8538 89.2022 60.6307 89.2113C61.4082 89.2203 62.1382 89.4425 62.9047 89.5106C64.8865 89.6868 66.8049 88.9004 68.7826 88.9004" stroke="#645841" stroke-linecap="round"/>
<path d="M66.0892 88.2781C65.6886 88.228 66.7958 87.1983 66.8376 87.1612C67.5122 86.5621 68.2606 86.1638 68.9676 85.6299C70.0092 84.8434 71.2647 84.5331 72.3527 83.8107C73.2215 83.2338 73.9155 82.4478 74.9203 82.0836C75.6637 81.8141 76.3035 81.346 77.0504 81.0934C78.1657 80.7162 79.3471 80.465 80.4931 80.1953" stroke="#645841" stroke-linecap="round"/>
<path d="M55.9336 88.7962C55.9336 87.4753 57.5093 87.6687 57.8795 86.6201C58.0367 86.1745 58.8472 85.856 59.2266 85.5377C59.8579 85.0083 60.6771 84.6527 61.2645 84.087C61.5785 83.7846 61.9338 83.4773 62.1857 83.1198C62.4395 82.7596 62.8648 82.7339 63.2334 82.5211C63.9866 82.0861 64.6635 81.4061 65.329 80.8516C65.5928 80.6317 65.8356 80.3245 66.1695 80.2183C66.4605 80.1257 66.6022 79.8774 66.8603 79.7347C67.1544 79.5722 67.4642 79.4459 67.7469 79.2626C68.299 78.9048 68.7739 78.6477 69.4049 78.5142C69.7422 78.4429 69.9608 78.1463 70.3145 78.1228C70.5678 78.1059 70.8224 78.1626 71.0629 78.0537C71.3257 77.9347 71.5712 77.7677 71.8343 77.6507C72.0475 77.556 72.28 77.65 72.4906 77.5355C73.3792 77.0526 74.34 76.7492 75.254 76.3151C75.6074 76.1472 75.8921 75.8477 76.2327 75.6818C76.4287 75.5863 76.6611 75.6696 76.8659 75.6127C77.4251 75.4574 78.0092 75.2377 78.57 75.0716C79.7841 74.7118 81.02 74.3792 82.2545 74.1735C82.5299 74.1276 82.7613 73.9695 83.0489 73.9259C83.7059 73.8264 84.0833 73.8306 84.4939 73.2581C85.1769 72.3061 86.5791 72.7223 87.5451 72.3197C87.848 72.1936 88.1561 72.2161 88.4778 72.2161C88.8423 72.2161 89.114 72.0684 89.4622 72.0204C90.0959 71.933 90.785 72.0089 91.4253 72.0089C91.9473 72.0089 92.4693 72.0089 92.9912 72.0089C93.5115 72.0089 94.6423 72.2456 95.104 71.957C95.4725 71.7267 95.9951 71.9958 96.4051 71.7498C96.7441 71.5464 97.1132 71.5845 97.4817 71.4792C97.8624 71.3704 98.1449 71.1799 98.5582 71.1799C98.7866 71.1799 99.0149 71.1799 99.2433 71.1799C99.4855 71.1799 99.5245 71.0238 99.7326 70.9841C100.504 70.8372 101.408 70.9726 102.197 70.9726C103.57 70.9726 104.96 70.9974 106.255 70.6214C107.393 70.2912 108.378 70.1874 109.583 70.299C110.15 70.3516 110.712 70.3508 111.281 70.3508C112.539 70.3508 113.551 70.9726 114.793 70.9726" stroke="#645841" stroke-linecap="round"/>
<path d="M96.6582 75.324C97.1625 75.0252 97.82 74.8712 98.3853 74.7253C99.0304 74.5588 99.7003 74.3626 100.354 74.2302C101.525 73.9931 102.78 73.9769 103.97 73.9769C104.994 73.9769 105.914 73.8431 106.917 73.666" stroke="#645841" stroke-linecap="round"/>
<path d="M81.4248 79.1582C81.5627 79.6639 82.4475 79.6972 82.8583 79.7742C83.3247 79.8617 83.8277 80.0623 84.2918 80.0908C85.992 80.1955 87.606 80.8162 89.3003 80.8162C90.1586 80.8162 90.9957 80.7396 91.8449 80.609C92.9115 80.4449 93.9835 80.5356 95.0573 80.5053C95.7572 80.4856 96.1816 79.7954 96.6578 79.6763" stroke="#645841" stroke-linecap="round"/>
<path d="M99.0424 77.9141C96.2569 77.9141 93.5302 78.2249 90.7524 78.2249C88.8641 78.2249 86.9758 78.2249 85.0875 78.2249C84.794 78.2249 84.294 78.1312 84.0167 78.248C83.6313 78.4103 83.3465 78.6898 82.9805 78.8467" stroke="#645841" stroke-linecap="round"/>
<path d="M81.1123 79.2616C81.3053 78.4654 81.9678 78.0136 82.6609 77.6093C83.435 77.1578 84.169 76.692 84.8946 76.1643C85.4896 75.7317 86.2959 75.6477 86.9787 75.4274C88.0005 75.0978 88.923 74.9093 89.9953 74.9093C91.5593 74.9093 93.1233 74.9093 94.6872 74.9093C95.3446 74.9093 96.5822 74.6592 97.0706 75.0705C97.3071 75.2697 97.9962 75.093 98.3141 75.2202" stroke="#645841" stroke-linecap="round"/>
<path d="M99.3522 75.7383C99.3522 76.0938 99.3831 77.0023 99.1795 77.2984C98.7051 77.9885 98.2545 78.7216 97.7979 79.4688" stroke="#645841" stroke-linecap="round"/>
<path d="M78.5225 80.9199C78.5225 82.0556 79.4302 82.8927 80.4913 83.2342C81.33 83.5041 82.3214 84.1697 83.1856 84.2417C83.6476 84.2802 84.124 84.8398 84.5846 85.0016C85.0403 85.1618 85.3933 85.4429 85.7244 85.7961C85.8722 85.9536 85.8634 86.0528 85.8799 86.2509C85.9012 86.5064 86.1162 86.6455 86.1735 86.8841C86.276 87.3115 86.1907 87.8345 86.1907 88.2773" stroke="#645841" stroke-linecap="round"/>
<path d="M77.5889 82.9941C77.6887 83.4997 77.7068 84.1675 77.9688 84.6291C78.1705 84.9845 78.5664 85.3691 78.8381 85.6826C79.4321 86.368 80.417 87.2469 81.1927 87.7149C82.1772 88.3087 83.1366 88.8459 84.2497 89.0793C84.8183 89.1985 85.3442 89.4256 85.9134 89.5341C86.1528 89.5796 86.0862 89.8579 86.0862 90.0407" stroke="#645841" stroke-linecap="round"/>
<path d="M87.0215 89.2094C87.6956 88.9319 88.2181 88.3082 88.8407 87.9314C89.9479 87.2612 91.3047 87.2016 92.5482 87.0103C93.2862 86.8967 93.7724 86.7756 94.4019 86.4346C94.6662 86.2914 95.0107 86.2994 95.3 86.2619C96.2641 86.1368 97.2152 86.1304 98.1843 86.0892C99.0191 86.0536 99.6794 85.78 100.458 85.5768C101.369 85.3393 102.301 85.2812 103.227 85.122C104.368 84.926 105.308 84.4109 106.503 84.6499" stroke="#645841" stroke-linecap="round"/>
<path d="M108.575 84.6504C108.138 85.2679 107.609 85.9787 107.038 86.4638C106.822 86.6471 106.781 86.8455 106.491 86.9532C106.005 87.1338 105.489 87.2324 105.006 87.4137C103.158 88.1067 101.123 88.5543 99.1912 89.0602C98.1963 89.3208 97.1391 89.1789 96.14 89.4287C95.3102 89.6361 94.5072 90.0206 93.676 90.2462C91.4573 90.8481 88.891 90.557 86.6064 90.557" stroke="#645841" stroke-linecap="round"/>
<path d="M107.643 84.6502C107.578 83.4155 105.945 82.7169 105.133 82.0711C104.736 81.7559 104.544 81.5611 104.05 81.3688C103.33 81.0881 102.558 80.8436 101.897 80.4361C101.278 80.054 100.729 79.5405 100.078 79.2617" stroke="#645841" stroke-linecap="round"/>
<path d="M87.7451 87.9653C88.0409 87.6511 88.288 87.0288 88.3496 86.6182C88.4068 86.2372 88.3977 85.7812 88.3669 85.3977C88.2869 84.4032 87.5413 84.2006 86.8125 83.8203" stroke="#645841" stroke-linecap="round"/>
<path d="M89.506 84.5477C89.506 83.8028 89.6479 82.9592 88.9879 82.4406C88.5363 82.0858 87.9099 82.3299 87.5371 81.957" stroke="#645841" stroke-linecap="round"/>
<path d="M103.598 78.3301C104.979 78.3301 105.922 78.4984 107.086 79.2167C108.009 79.7859 108.946 80.4746 109.919 80.9437C110.569 81.257 110.874 81.7378 111.427 82.193C111.733 82.4448 111.952 83.0422 112.199 83.3732C112.517 83.801 112.791 84.2821 113.028 84.7549" stroke="#645841" stroke-linecap="round"/>
<path d="M104.326 79.0547C104.877 79.6058 105.396 80.2136 106.03 80.6666C106.455 80.9698 106.908 81.2215 107.331 81.5072C107.833 81.846 108.428 82.1446 108.897 82.5146C109.342 82.8655 109.632 83.3611 110.106 83.6833C110.436 83.907 110.804 84.0718 111.165 84.236" stroke="#645841" stroke-linecap="round"/>
<path d="M121.63 84.0297C123.443 84.0297 125.289 84.1428 127.099 84.0297C127.922 83.9782 128.779 83.3552 129.621 83.2237C130.371 83.1065 131.184 82.8327 131.912 82.6019C132.46 82.428 133.025 82.3254 133.34 81.8535" stroke="#645841" stroke-linecap="round"/>
<path d="M124.531 75.7383C125.229 75.9633 125.848 76.2044 126.431 76.6652C126.65 76.8385 126.841 77.0249 127.11 77.12C127.365 77.2099 127.618 77.1894 127.813 77.3963C128.43 78.0509 129.377 78.5657 130.133 79.0601C130.88 79.5486 131.671 80.0171 132.361 80.5857C132.547 80.7396 132.675 80.9358 132.712 81.1786C132.807 81.7953 132.407 82.2318 132.407 82.7848" stroke="#645841" stroke-linecap="round"/>
<path d="M105.566 78.0177C105.2 77.9491 105.504 77.5562 105.647 77.396C106.023 76.9724 106.55 76.8405 107.086 76.7512C107.575 76.6697 107.993 76.3782 108.491 76.3597C109.056 76.3388 109.329 76.314 109.815 76.0488" stroke="#645841" stroke-linecap="round"/>
<path d="M120.905 79.5733C121.678 79.5733 122.452 79.5001 123.185 79.7748C123.732 79.98 124.047 80.3288 124.538 80.6153C125.231 81.0194 126.354 81.767 126.708 82.4748" stroke="#645841" stroke-linecap="round"/>
<path d="M124.325 79.3652C125.291 79.4024 125.92 80.2428 126.789 80.5512C127.231 80.7081 127.461 81.155 127.895 81.3284C128.222 81.4594 128.484 81.7581 128.781 81.9559" stroke="#645841" stroke-linecap="round"/>
<path d="M107.64 74.9109C108.037 75.4272 108.657 75.5152 109.229 75.763C109.668 75.9533 109.995 76.2852 110.472 76.3847C111.381 76.5742 112.253 76.8207 113.155 77.041C114.123 77.2776 115.158 77.1907 116.148 77.1907C116.993 77.1907 117.837 77.1907 118.682 77.1907C119.745 77.1907 120.118 77.1187 120.984 76.4308C121.494 76.026 121.841 75.4364 122.303 74.9743C122.658 74.6188 122.652 74.2614 123.183 74.1855" stroke="#645841" stroke-linecap="round"/>
<path d="M123.601 73.977C124.221 73.977 124.668 73.5625 125.259 73.5625" stroke="#645841" stroke-linecap="round"/>
<path d="M126.086 73.873C125.615 74.1349 125.391 74.3354 125.131 74.7826C124.984 75.0343 124.773 75.5309 124.509 75.6577C124.279 75.768 124.179 76.0131 123.968 76.1528C123.637 76.3714 123.182 76.5284 122.805 76.6479C122.216 76.8344 121.608 77.0392 121.009 77.1891" stroke="#645841" stroke-linecap="round"/>
<path d="M109.611 74.5996C110.408 74.5996 111.225 74.9746 111.995 75.1465C113.264 75.43 114.516 75.738 115.783 76.0389C116.912 76.3071 117.64 75.7395 118.73 75.7395" stroke="#645841" stroke-linecap="round"/>
<path d="M107.85 74.7028C108.749 73.7672 109.651 72.9905 110.958 72.757C111.609 72.6408 112.259 72.3841 112.898 72.2158C113.376 72.0901 113.863 72.0951 114.355 72.0316C115.507 71.8829 116.741 72.0086 117.901 72.0086C118.11 72.0086 118.21 72.0498 118.385 72.164C118.863 72.476 119.66 72.5677 120.21 72.7167C120.66 72.8389 121.425 72.7723 121.425 73.3557" stroke="#645841" stroke-linecap="round"/>
<path d="M114.687 71.4901C116.663 71.4901 118.769 70.942 120.76 71.4038C121.387 71.549 122.082 71.7096 122.666 71.9622C122.906 72.0663 123.281 72.2155 123.541 72.2155C124.087 72.2155 124.162 72.5913 124.577 72.8718C124.748 72.9876 124.975 72.8731 125.043 73.1136C125.124 73.3971 125.13 73.4248 125.36 73.5626" stroke="#645841" stroke-linecap="round"/>
<path d="M105.676 92.7826C107.538 92.4923 109.456 92.2534 111.348 92.4078C112.666 92.5154 113.785 93.1718 115.131 93.1718C116.446 93.1718 117.677 93.4495 118.98 93.5393C120.436 93.6398 121.916 93.5483 123.376 93.5609C128.631 93.6062 133.886 93.6907 139.145 93.6907" stroke="#645841" stroke-linecap="round"/>
<path d="M105.224 92.2051C105.557 92.605 105.774 93.1578 106.281 93.3456C106.836 93.551 107.373 94.1658 107.854 94.5044C108.407 94.8939 109.056 95.4895 109.776 95.5162C110.134 95.5294 110.495 95.5162 110.852 95.5162" stroke="#645841" stroke-linecap="round"/>
<path d="M111.017 96.0948C111.943 96.3288 113.105 96.5329 114.052 96.2557C115.335 95.88 116.529 95.8464 117.86 95.8464C119.857 95.8464 121.852 95.7637 123.847 95.7637C125.591 95.7637 127.336 95.7637 129.08 95.7637C130.357 95.7637 131.539 95.851 132.796 96.0626C133.787 96.2294 134.916 96.4378 135.767 97.0053" stroke="#645841" stroke-linecap="round"/>
<path d="M136.348 97.5016C136.615 97.0035 137.677 96.8401 138.187 96.7107C138.892 96.532 139.612 96.5541 140.316 96.3428C141.168 96.0874 141.978 95.6788 142.473 94.9355" stroke="#645841" stroke-linecap="round"/>
<path d="M142.722 94.2734C142.701 94.0448 142.586 93.9057 142.478 93.717C142.276 93.362 142.339 92.7265 142.221 92.319C141.938 91.3471 141.666 90.7323 141.977 89.7207" stroke="#645841" stroke-linecap="round"/>
<path d="M142.225 90.0531C141.653 89.8331 141.309 89.3343 140.754 89.1149C140.274 88.9253 139.877 88.5686 139.402 88.3699C138.787 88.1128 137.925 88.0664 137.259 88.0664" stroke="#645841" stroke-linecap="round"/>
<path d="M136.016 91.0471C136.196 90.1453 138.57 90.9599 138.996 91.1115C139.772 91.3882 140.441 91.4538 140.817 92.206" stroke="#645841" stroke-linecap="round"/>
<path d="M120.536 84.3396C119.468 84.3396 118.454 84.1741 117.399 84.1741C116.757 84.1741 115.543 83.9633 115.072 84.3396" stroke="#645841" stroke-linecap="round"/>
<path d="M114.08 85.5836C113.199 85.5836 112.08 85.3821 111.385 86.0435C111.085 86.3291 110.804 86.8726 111.183 87.1563" stroke="#645841" stroke-linecap="round"/>
<path d="M113.666 86.9902C113.023 87.3355 112.316 87.507 111.633 87.7536C111.405 87.8361 111.28 87.8708 111.183 88.0663" stroke="#645841" stroke-linecap="round"/>
<path d="M113.749 88.0664C113.441 88.169 110.954 89.2813 111.762 89.8875" stroke="#645841" stroke-linecap="round"/>
<path d="M113.498 89.8867C113.047 89.9736 112.651 90.2442 112.257 90.4662" stroke="#645841" stroke-linecap="round"/>
<path d="M115.073 86.2441C114.818 86.5156 114.908 87.1511 114.908 87.4858C114.908 87.9482 114.983 88.3453 115.064 88.7918C115.113 89.0613 115.073 89.3656 115.073 89.638" stroke="#645841" stroke-linecap="round"/>
<path d="M115.321 90.2993C115.729 90.1882 116.078 89.8179 116.508 89.6877C117.553 89.3712 118.727 89.088 119.819 89.0577C120.729 89.0324 121.63 89.1012 122.532 88.9289C123.061 88.828 123.521 88.7266 124.059 88.7266C124.893 88.7266 125.727 88.7298 126.542 88.9335C127.041 89.0581 127.517 89.2487 128.014 89.3796C129.575 89.791 131.26 89.8854 132.87 89.8854" stroke="#645841" stroke-linecap="round"/>
<path d="M134.194 86.0801C134.305 86.7693 134.881 87.3542 135.086 88.0253C135.322 88.7972 134.825 89.7364 134.111 90.0534" stroke="#645841" stroke-linecap="round"/>
<path d="M134.523 90.6321C134.338 90.7367 134.165 90.9186 134.008 91.0644C133.52 91.5199 132.898 91.3771 132.266 91.3771C130.553 91.3771 128.944 91.4367 127.303 90.9126C126.431 90.634 125.465 90.3193 124.549 90.232C123.611 90.1427 122.859 90.2294 121.951 89.8963C121.445 89.7109 120.819 89.3857 120.263 89.4824C119.885 89.5481 119.401 89.9748 119.127 90.2182" stroke="#645841" stroke-linecap="round"/>
<path d="M110.852 87.9005C110.35 87.9005 109.68 87.7375 109.298 88.0937C108.597 88.7458 107.758 89.1753 107.293 90.0389C106.914 90.7414 106.134 91.5561 106.134 92.3705" stroke="#645841" stroke-linecap="round"/>
<path d="M137.422 84.5879C137.776 84.8668 138.218 84.9518 138.595 85.1949C139.292 85.645 139.948 86.1821 140.581 86.7171C141.033 87.0983 141.566 87.3766 141.965 87.8208C142.358 88.2571 142.662 88.7646 143.097 89.1682C143.64 89.6729 143.796 90.0688 143.796 90.7962" stroke="#645841" stroke-linecap="round"/>
<path d="M143.88 92.0391C144.603 91.6677 145.225 91.1545 145.922 90.7423C146.491 90.4056 147.242 90.2033 147.89 90.0893C149.858 89.7431 151.668 88.9827 153.684 88.9028C154.739 88.8611 155.892 89.0597 156.917 88.7695C157.666 88.5575 158.453 88.5625 159.226 88.5625C160.815 88.5625 162.405 88.5625 163.995 88.5625" stroke="#645841" stroke-linecap="round"/>
<path d="M164.74 88.5625C164.685 89.5111 163.958 89.8211 163.162 90.1721C162.622 90.4107 162.181 90.787 161.64 91.0274C161.149 91.2458 160.565 91.273 160.049 91.4229C159.463 91.5932 158.87 91.7408 158.283 91.9058C157.301 92.182 156.199 92.2123 155.193 92.3151C154.455 92.3904 153.712 92.3702 152.972 92.3702C152.651 92.3702 152.256 92.3093 151.946 92.4208C150.915 92.7919 149.712 92.6186 148.626 92.6186C147.316 92.6186 145.879 92.7882 144.625 92.3702" stroke="#645841" stroke-linecap="round"/>
<path d="M160.021 84.7528C160.633 84.7528 161.239 84.6907 161.823 84.8999C162.723 85.2219 163.434 86.0199 164.27 86.4865C164.526 86.6294 165.042 86.8991 165.231 87.1349C165.41 87.3583 165.467 87.691 165.649 87.9351C165.899 88.2689 166.127 88.6044 166.312 88.9744" stroke="#645841" stroke-linecap="round"/>
<path d="M160.187 84.4238C158.676 84.4238 157.266 84.738 155.753 84.8653C154.375 84.9813 152.97 84.9205 151.587 84.9205C148.383 84.9205 145.179 84.9205 141.976 84.9205" stroke="#645841" stroke-linecap="round"/>
<path d="M141.891 85.0034C141.891 85.2909 142.126 84.5799 142.134 84.47C142.156 84.1949 142.286 83.9596 142.305 83.6974C142.353 82.9919 141.921 82.5662 141.56 82.0234" stroke="#645841" stroke-linecap="round"/>
<path d="M141.893 83.678C141.343 83.678 140.858 83.5124 140.302 83.5124C139.808 83.5124 138.79 83.2906 138.499 83.678" stroke="#645841" stroke-linecap="round"/>
<path d="M139.326 84.2584C138.753 84.1542 138.168 84.1757 137.588 84.1757" stroke="#645841" stroke-linecap="round"/>
<path d="M140.237 85.004C139.795 84.4415 138.986 84.6666 138.499 84.3418" stroke="#645841" stroke-linecap="round"/>
<path d="M138.748 83.4297H140.238" stroke="#645841" stroke-linecap="round"/>
<path d="M143.134 83.0158C143.134 82.7476 143.184 82.4116 143.083 82.1559C143.01 81.9686 142.886 81.9059 142.886 81.6914" stroke="#645841" stroke-linecap="round"/>
<path d="M141.81 82.0216C141.844 81.3667 142.29 80.5996 142.886 80.3016C143.13 80.1797 143.391 80.1035 143.621 79.9521C143.841 79.8074 143.987 79.5952 144.247 79.5107C144.921 79.2913 145.686 79.2122 146.381 79.0692C147.646 78.8087 148.957 78.4439 150.198 78.0851C152.22 77.5001 154.461 77.6344 156.544 77.6344" stroke="#645841" stroke-linecap="round"/>
<path d="M158.033 78.2148C158.067 79.1027 158.273 79.6228 158.843 80.3027C159.059 80.5612 159.44 80.9994 159.44 81.3604C159.44 82.3436 159.235 82.9522 158.695 83.7609" stroke="#645841" stroke-linecap="round"/>
<path d="M149.179 82.1055C149.224 81.5334 150.077 81.3338 150.535 81.2823C152.255 81.0891 153.99 81.1122 155.718 81.1122" stroke="#645841" stroke-linecap="round"/>
<path d="M153.233 82.6839C154.56 82.6839 155.976 82.4983 157.124 83.2633" stroke="#645841" stroke-linecap="round"/>
<path d="M146.778 86.8242C146.26 86.8515 146.379 87.2695 146.078 87.6106C145.83 87.8921 145.784 88.2036 145.784 88.5625" stroke="#645841" stroke-linecap="round"/>
<path d="M147.523 87.5684C146.82 87.7752 146.695 88.4694 146.695 89.1411" stroke="#645841" stroke-linecap="round"/>
<path d="M134.274 78.9141C135.108 79.2474 135.997 79.4277 136.872 79.622C137.357 79.7297 137.832 79.8619 138.325 79.9454C139.047 80.0678 139.747 80.2837 140.458 80.4565C140.927 80.5703 141.404 80.6337 141.874 80.7424C142.296 80.8401 142.693 80.8971 143.135 80.8971" stroke="#645841" stroke-linecap="round"/>
<path d="M134.188 78.6174C134.378 78.2695 134.661 78.179 134.999 77.9892C135.435 77.7437 135.796 77.4681 136.171 77.1406" stroke="#645841" stroke-linecap="round"/>
<path d="M137.564 77.4355C138.297 77.6324 139.048 77.8211 139.794 77.9489C140.35 78.0442 140.953 78.1926 141.477 78.406C141.628 78.4678 141.773 78.5485 141.92 78.6216C142.259 78.7913 142.601 78.8603 142.97 78.9404C143.325 79.0176 143.691 79.0667 144.02 79.2077" stroke="#645841" stroke-linecap="round"/>
<path d="M136.973 77.4365C138.016 77.1234 139.09 77.024 140.151 76.7848C140.56 76.6928 141.376 76.5867 141.656 76.2129" stroke="#645841" stroke-linecap="round"/>
<path d="M146.722 76.6758C147.373 76.6758 147.935 76.7496 148.566 76.9102C149.101 77.0462 149.659 77.1886 150.21 77.2384C150.843 77.2956 151.487 77.2665 152.122 77.2665" stroke="#645841" stroke-linecap="round"/>
<path d="M143.345 70.8961C143.704 70.8727 144.043 70.7695 144.404 70.7695C144.951 70.7695 145.498 70.7695 146.045 70.7695" stroke="#645841" stroke-linecap="round"/>
<path d="M143.007 71.4023C142.945 71.9237 142.906 72.5064 143.035 73.0197C143.183 73.6079 143.405 74.2139 143.429 74.8247C143.462 75.6866 143.344 76.5369 143.344 77.3937" stroke="#645841" stroke-linecap="round"/>
<path d="M146.044 71.5273C146.093 72.6084 146.319 73.6777 146.639 74.7106C146.856 75.4098 147.078 76.0748 147.223 76.7944C147.267 77.0109 147.394 77.2549 147.394 77.4766" stroke="#645841" stroke-linecap="round"/>
<path d="M146.887 77.9432C146.199 77.9432 145.512 77.9432 144.824 77.9432C144.502 77.9432 143.934 77.8129 143.807 78.1964" stroke="#645841" stroke-linecap="round"/>
<path d="M144.399 70.7267C144.161 70.697 144.146 70.0605 144.146 69.8828" stroke="#645841" stroke-linecap="round"/>
<path d="M140.517 68.9985C141.164 69.0595 141.785 69.2094 142.436 69.2094C143.395 69.2094 144.354 69.2094 145.313 69.2094C145.842 69.2094 146.343 69.211 146.855 69.043C147.417 68.8587 148.007 68.8546 148.575 68.7031" stroke="#645841" stroke-linecap="round"/>
<path d="M146.932 64.2305C147.725 65.2421 148.546 66.3065 149.112 67.4653C149.24 67.7289 149.258 67.9554 149.325 68.2341C149.384 68.48 149.597 68.648 149.759 68.8295" stroke="#645841" stroke-linecap="round"/>
<path d="M142.247 64.4414C142.091 65.0326 141.79 65.563 141.624 66.1526C141.515 66.5404 141.464 66.9535 141.296 67.3246C140.965 68.0523 140.138 68.5818 140.138 69.4202" stroke="#645841" stroke-linecap="round"/>
<path d="M143.136 64.4813C143.718 64.533 144.284 64.6501 144.87 64.6501C145.242 64.6501 145.595 64.5998 145.963 64.5423C146.329 64.4851 146.672 64.3284 147.034 64.2727C147.155 64.2542 147.102 63.9804 147.102 63.8906" stroke="#645841" stroke-linecap="round"/>
<path d="M146.594 63.2998C146.004 63.2611 145.43 63.1393 144.836 63.131C144.487 63.1262 144.138 63.131 143.79 63.131C143.629 63.131 143.476 63.1554 143.317 63.1826C142.86 63.2607 142.296 63.2578 141.87 63.4452C141.52 63.5992 142.372 64.0093 142.426 64.0312C142.624 64.1115 142.818 64.1252 143.028 64.146C143.323 64.1752 143.611 64.2468 143.907 64.2632C144.242 64.2818 144.574 64.2649 144.906 64.2281" stroke="#645841" stroke-linecap="round"/>
<path d="M49.8174 12.4219C49.8174 13.881 50.0513 15.2399 50.1858 16.682C50.2885 17.7826 50.2319 18.9049 50.2319 20.0096C50.2319 21.3912 50.2319 22.7729 50.2319 24.1546C50.2319 25.114 50.067 26.2626 50.2779 27.2058C50.376 27.6442 50.7185 28.0504 50.75 28.5069C50.7671 28.7548 50.7125 28.8635 50.9112 29.025C51.0299 29.1214 51.0481 29.6817 51.0609 29.8425C51.1144 30.5165 51.6206 31.0002 51.8899 31.5926" stroke="#645841" stroke-linecap="round"/>
<path d="M49.5088 11.4922C52.6536 11.7656 55.5489 13.2522 58.7315 13.369C62.6075 13.5112 66.4553 13.5647 70.3375 13.5647" stroke="#645841" stroke-linecap="round"/>
<path d="M71.373 14.2891C71.5686 15.3318 72.1389 16.3157 72.4208 17.3403C72.8777 19.0008 72.9422 20.7661 73.411 22.4352C73.8534 24.0102 74.4479 25.4793 74.7409 27.0983C74.9507 28.258 74.9999 29.3849 74.9999 30.5583" stroke="#645841" stroke-linecap="round"/>
<path d="M74.0664 31.9035C72.2145 31.9035 70.3627 31.9035 68.5109 31.9035C65.8966 31.9035 63.3228 31.5847 60.7159 31.5006C58.8672 31.4409 57.01 31.489 55.1605 31.489C54.1497 31.489 53.137 31.4705 52.1265 31.4948C51.7743 31.5033 51.3314 31.4686 51.7869 31.6963" stroke="#645841" stroke-linecap="round"/>
<path d="M198.495 7.63086C197.786 9.40269 197.716 11.3641 197.236 13.2016C196.256 16.9594 197.227 20.7186 197.123 24.4705C197.064 26.6029 195.997 28.6282 195.497 30.6775C195.283 31.5558 195.316 32.2154 194.932 33.0812" stroke="#645841" stroke-linecap="round"/>
<path d="M196.204 34.6081C200.378 33.5309 204.211 32.7083 208.533 32.9538C210.763 33.0805 212.973 33.0811 215.207 33.0811C220.748 33.0811 226.306 32.9407 231.835 33.3356" stroke="#645841" stroke-linecap="round"/>
<path d="M234.126 4.83203C234.126 7.68341 234.126 10.5348 234.126 13.3862C234.126 16.3975 233.825 19.595 234.239 22.5907C234.53 24.6958 234.992 26.835 235.653 28.8543C235.956 29.7795 236.934 31.0417 235.908 31.5548" stroke="#645841" stroke-linecap="round"/>
<path d="M200.528 5.596C201.44 4.64969 202.724 4.27169 204.007 4.1114C206.436 3.80767 208.897 3.45206 211.345 3.34789C214.443 3.21603 217.6 3.54791 220.691 3.30547C223.825 3.05964 226.626 1.14232 229.853 1.02909C231.443 0.973278 233.04 1.01495 234.632 1.01495" stroke="#645841" stroke-linecap="round"/>
<path d="M142.248 2.0332C143.342 6.34038 142.757 11.3344 142.757 15.7481C142.757 22.6385 142.757 29.5289 142.757 36.4194C142.757 41.6367 143.194 46.9759 142.192 52.0855C142.016 52.9823 142.069 53.8717 141.966 54.7719C141.907 55.2897 141.509 55.5431 141.485 56.0444C141.453 56.6998 141.516 57.1981 141.23 57.7694" stroke="#645841" stroke-linecap="round"/>
<path d="M136.651 5.85156C136.651 28.4387 136.142 50.9608 136.142 73.5494" stroke="#645841" stroke-linecap="round"/>
<path d="M67.4238 52.1688C71.4271 51.9133 75.0282 51.2992 79.0744 51.9568C82.0078 52.4334 85.0017 53.5834 87.982 53.6959C94.117 53.9274 100.109 52.0477 105.854 50.1328" stroke="#645841" stroke-linecap="round"/>
<path d="M78.1143 46.3164C83.4541 46.3164 88.794 46.3164 94.1338 46.3164C99.4487 46.3164 104.216 46.7016 109.418 47.8434" stroke="#645841" stroke-linecap="round"/>
<path d="M12.9629 55.2246C21.2125 55.2246 29.4516 56.4509 37.6497 57.2606" stroke="#645841" stroke-linecap="round"/>
<path d="M12.4541 48.0979C14.0026 47.3458 15.8965 46.1033 17.5866 45.8498C18.6553 45.6895 19.7908 45.8997 20.8386 46.0902C23.0556 46.4933 25.2269 46.6807 27.4698 46.8254" stroke="#645841" stroke-linecap="round"/>
<path d="M3.5459 26.4661C6.34494 25.8247 8.94803 24.5531 11.8314 24.2463C13.6137 24.0567 15.089 24.027 16.7801 23.4121" stroke="#645841" stroke-linecap="round"/>
<path d="M198.238 59.5515C203.635 58.6613 209.217 59.0124 214.668 59.0425C223.199 59.0897 231.527 60.3917 239.92 61.7855C247.313 63.0131 256.779 62.8705 263.391 59.0425" stroke="#645841" stroke-linecap="round"/>
<path d="M225.727 54.2051C229.86 54.2051 233.993 54.2051 238.127 54.2051C244.214 54.2051 250.197 54.625 256.267 54.9686" stroke="#645841" stroke-linecap="round"/>
<path d="M162.102 81.4371C169.772 80.9396 177.801 79.9352 185.459 81.1826C188.125 81.6168 190.692 82.7096 193.405 82.7096" stroke="#645841" stroke-linecap="round"/>
<path d="M162.61 72.5293H176.863" stroke="#645841" stroke-linecap="round"/>
<path d="M200.785 126.23C203.042 130.019 208.326 132.127 212.068 134.106C217.006 136.718 222.181 137.857 227.565 139.238C231.563 140.264 235.592 141.178 239.597 142.179C241.855 142.744 243.776 143.295 245.323 145.064" stroke="#645841" stroke-linecap="round"/>
<path d="M208.42 144.301C213.01 145.304 217.686 146.2 222.135 147.737C222.793 147.964 223.495 148.252 224.058 148.684C228.241 151.894 233.379 155.552 238.706 156.262" stroke="#645841" stroke-linecap="round"/>
<path d="M109.418 139.719C114.037 141.13 118.637 142.703 123.189 144.314C126.112 145.348 127.821 146.496 129.905 148.64C132.281 151.083 134.452 153.906 136.65 156.516" stroke="#645841" stroke-linecap="round"/>
<path d="M113.49 148.373C115.066 150.211 117.879 151.16 119.924 152.374C122.718 154.035 125.321 155.959 127.997 157.79" stroke="#645841" stroke-linecap="round"/>
<path d="M136.903 144.809C138.607 146.939 141.593 148.277 143.945 149.531C145.476 150.348 146.795 151.375 148.215 152.359C154.959 157.032 162.034 161.16 168.716 165.932" stroke="#645841" stroke-linecap="round"/>
<path d="M228.018 85.5098C228.629 85.6208 229.47 86.455 229.856 86.9237C230.659 87.8986 233.015 87.9755 234.126 88.0548" stroke="#645841" stroke-linecap="round"/>
<path d="M234.635 87.5449C236.022 88.5278 237.259 88.5303 238.848 88.874C239.624 89.0418 240.324 89.0719 241.125 89.0719C242.197 89.0719 242.933 89.3918 243.938 89.5527C246.848 90.0183 249.585 90.5745 252.422 91.3483C253.071 91.5253 253.214 92.1034 253.892 92.126C255.528 92.1805 257.175 92.126 258.813 92.126" stroke="#645841" stroke-linecap="round"/>
<path d="M235.908 80.9292C239.061 80.9292 242.214 80.9292 245.367 80.9292C246.637 80.9292 246.082 79.8599 246.965 79.3597C248.24 78.6373 250.829 79.1476 252.253 79.1476C254.052 79.1476 255.829 79.064 257.598 79.4587C258.779 79.7224 261.523 79.7314 262.122 80.9292" stroke="#645841" stroke-linecap="round"/>
<path d="M259.321 93.3984H263.393" stroke="#645841" stroke-linecap="round"/>
<path d="M257.453 93.6914C258.162 94.2233 257.859 96.1356 257.806 96.8841C257.611 99.6427 256.592 102.317 255.954 104.992C255.571 106.598 255.531 108.247 255.298 109.878C254.948 112.329 254.543 114.748 254.484 117.229C254.373 121.919 254.892 126.744 254.08 131.384C253.71 133.501 253.477 135.82 252.653 137.798" stroke="#645841" stroke-linecap="round"/>
<path d="M252.004 95.5078C251.45 97.7022 250.678 99.9186 250.483 102.181C250.33 103.966 250.546 105.736 250.253 107.515C249.894 109.69 250.016 111.9 249.655 114.087C249.458 115.277 249.181 116.401 248.891 117.561" stroke="#645841" stroke-linecap="round"/>
<path d="M214.904 78.5137C214.904 80.4547 214.904 82.3958 214.904 84.3369C214.904 85.4356 215.08 86.5742 215.294 87.6521C215.582 89.1126 215.776 90.6959 216.209 92.1132C216.549 93.2269 216.82 94.3328 217.11 95.4572C217.379 96.5016 217.985 97.4046 218.018 98.5201C218.083 100.734 218.407 102.907 218.407 105.136C218.407 107.132 218.407 109.129 218.407 111.125C218.407 113.525 218.613 115.992 218.104 118.339C217.773 119.868 216.889 121.178 216.389 122.678C215.968 123.94 215.397 125.034 215.092 126.339C214.96 126.901 214.792 127.458 214.775 128.04C214.764 128.393 214.803 128.672 214.58 128.969C214.3 129.343 214.385 129.824 214.385 130.274" stroke="#645841" stroke-linecap="round"/>
<path d="M235.01 83.4414C234.966 84.5524 234.635 85.6104 234.621 86.7278C234.593 88.9804 234.621 91.235 234.621 93.4879C234.621 97.2299 234.88 100.943 234.88 104.687C234.88 106.386 234.995 108.188 234.563 109.848C234.265 110.995 233.812 112.084 233.655 113.264C233.349 115.568 232.212 117.866 232.156 120.182C232.138 120.931 232.187 121.683 232.156 122.431C232.109 123.59 231.298 124.636 231.147 125.804C230.976 127.13 231.068 128.316 230.527 129.609C229.824 131.293 230.21 133.621 230.21 135.461" stroke="#645841" stroke-linecap="round"/>
<path d="M218.667 116.135C218.629 115.981 221.358 116.71 221.694 116.769C222.684 116.941 223.621 117.204 224.591 117.489C225.451 117.742 225.997 118.326 226.804 118.671C228.204 119.272 229.794 119.281 231.251 119.767" stroke="#645841" stroke-linecap="round"/>
<path d="M219.186 107.312C219.673 107.361 220.236 107.625 220.713 107.759C221.44 107.964 222.172 108.055 222.904 108.235C223.631 108.413 224.292 108.827 225.03 108.876C225.801 108.928 226.487 109.37 227.099 109.777" stroke="#645841" stroke-linecap="round"/>
<path d="M236.955 112.631C236.999 111.536 239.393 111.187 240.184 110.959C241.187 110.67 242.225 110.574 243.24 110.339C244.287 110.097 245.139 109.624 246.122 109.258C246.947 108.951 247.302 108.379 247.96 107.853C248.334 107.553 248.776 107.364 249.149 107.053" stroke="#645841" stroke-linecap="round"/>
<path d="M249.282 106.922C246.811 106.752 244.532 105.425 242.082 105.243C241.723 105.217 241.509 105.193 241.21 104.977C240.679 104.592 240.115 104.489 239.509 104.27C238.702 103.979 237.916 103.627 237.088 103.42" stroke="#645841" stroke-linecap="round"/>
<path d="M229.304 102.252H231.768" stroke="#645841" stroke-linecap="round"/>
<path d="M228.134 88.373C228.134 90.0114 228.134 91.6498 228.134 93.2882C228.134 94.6191 227.801 96.5598 228.329 97.7925C228.753 98.782 228.657 100.507 228.509 101.576C228.358 102.672 228.134 103.599 228.134 104.718" stroke="#645841" stroke-linecap="round"/>
<path d="M224.504 89.4102C224.504 92.3554 224.504 95.3006 224.504 98.2459C224.504 99.3653 224.504 100.485 224.504 101.604C224.504 102.584 224.085 103.282 223.855 104.199" stroke="#645841" stroke-linecap="round"/>
<path d="M220.093 88.6328C220.182 89.553 220.718 90.36 220.857 91.2778C221.001 92.2334 221.39 93.1078 221.39 94.0813C221.39 95.6163 221.39 97.1514 221.39 98.6865C221.39 99.7988 221.39 100.911 221.39 102.023C221.39 102.795 221.131 103.469 221.131 104.2" stroke="#645841" stroke-linecap="round"/>
<path d="M219.574 104.07C221.462 104.098 223.297 104.587 225.124 104.993C225.541 105.086 225.923 105.409 226.32 105.526C226.96 105.714 227.664 105.838 228.323 105.951C228.839 106.04 229.318 106.214 229.822 106.348C230.433 106.509 231.032 106.476 231.509 106.795" stroke="#645841" stroke-linecap="round"/>
<path d="M219.316 106.015C219.205 105.904 221.076 105.153 221.392 105.107" stroke="#645841" stroke-linecap="round"/>
<path d="M225.8 103.55C226.693 103.17 227.714 103.007 228.654 102.771" stroke="#645841" stroke-linecap="round"/>
<path d="M215.423 86.297C216.154 86.297 216.94 86.2144 217.664 86.3259C218.627 86.474 219.511 86.8388 220.497 86.9168C221.318 86.9819 222.203 86.8191 222.997 87.0754C223.369 87.1952 223.752 87.3094 224.143 87.3348C224.927 87.386 225.724 87.8766 226.493 88.0555C227.868 88.3758 229.32 88.5024 230.73 88.5024" stroke="#645841" stroke-linecap="round"/>
<path d="M215.683 80.7188C216.225 80.7188 216.489 81.1079 217.009 81.1079C217.359 81.1079 217.711 81.1175 218.061 81.1079C218.458 81.0971 218.734 80.8483 219.135 80.7836C219.576 80.7124 220 80.5377 220.432 80.4737C220.69 80.4355 221.17 80.572 221.383 80.3944C221.856 80.0007 222.865 80.0413 223.423 80.1278C224.298 80.2634 225.099 80.7798 225.974 80.8485C226.357 80.8785 226.388 80.9002 226.666 81.1512C227.361 81.7794 228.345 82.5012 229.232 82.8376C230.103 83.1682 230.86 83.571 231.877 83.7457C232.994 83.9377 233.24 83.8727 233.714 82.9241" stroke="#645841" stroke-linecap="round"/>
<path d="M235.529 100.048C236.081 100.048 236.636 100.067 237.187 100.048C237.706 100.03 238.179 99.643 238.686 99.5508C239.206 99.4562 239.763 99.6222 240.279 99.5075C241.321 99.2759 242.403 98.9099 243.443 98.6211" stroke="#645841" stroke-linecap="round"/>
<path d="M234.622 95.248C235.595 96.1652 237.167 96.9018 238.449 97.1867C239.165 97.3459 239.991 97.664 240.618 98.0443C241.252 98.4282 241.854 98.4262 242.535 98.6209" stroke="#645841" stroke-linecap="round"/>
<path d="M241.889 100.955C241.085 101.29 241.5 103.754 241.5 104.587" stroke="#645841" stroke-linecap="round"/>
<path d="M240.589 111.982C240.226 112.799 240.459 114.088 240.459 114.966" stroke="#645841" stroke-linecap="round"/>
<path d="M239.811 117.691V121.453" stroke="#645841" stroke-linecap="round"/>
<path d="M233.974 117.819C234.35 117.779 234.641 117.527 235.011 117.458C235.414 117.384 235.734 117.391 236.121 117.228C236.985 116.864 237.918 116.708 238.86 116.651C239.656 116.603 240.596 116.186 241.354 115.931C242.524 115.537 243.679 115.263 244.871 114.965" stroke="#645841" stroke-linecap="round"/>
<path d="M246.558 110.426C246.344 111.687 246.169 112.686 246.169 113.979C246.169 115.11 246.169 116.242 246.169 117.373C246.169 119.458 246.169 121.544 246.169 123.629C246.169 126.233 246.169 128.837 246.169 131.441" stroke="#645841" stroke-linecap="round"/>
<path d="M260.567 111.074C260.567 112.451 260.172 113.809 259.904 115.168C259.651 116.456 259.007 117.529 258.874 118.865C258.771 119.894 258.645 120.85 258.621 121.885C258.589 123.287 258.202 124.677 257.958 126.05C257.731 127.329 257.689 128.768 257.317 130.007C257.081 130.793 257.276 132.762 256.546 133.127" stroke="#645841" stroke-linecap="round"/>
<path d="M261.346 114.965C262.363 115.041 263.296 115.484 264.329 115.484" stroke="#645841" stroke-linecap="round"/>
<path d="M258.753 108.867C258.852 109.09 259.263 109.182 259.452 109.328C259.901 109.678 260.212 109.985 260.756 110.222C262.07 110.793 263.306 111.285 264.72 111.462" stroke="#645841" stroke-linecap="round"/>
<path d="M259.269 108.997C260.806 107.577 262.842 106.874 264.847 106.402" stroke="#645841" stroke-linecap="round"/>
<path d="M218.667 96.1562C219.243 96.3826 220.032 96.5824 220.353 97.0643" stroke="#645841" stroke-linecap="round"/>
<path d="M222.427 99.1387C223.417 99.2853 224.362 99.7343 225.338 99.9603C225.8 100.067 226.178 100.196 226.578 100.436" stroke="#645841" stroke-linecap="round"/>
<path d="M226.578 100.955C227.122 101.144 227.618 101.362 228.135 101.604" stroke="#645841" stroke-linecap="round"/>
<path d="M221.519 96.5448C221.778 95.4438 224.611 95.8364 225.41 95.6367" stroke="#645841" stroke-linecap="round"/>
<path d="M226.06 95.6372C226.655 95.4575 227.266 95.3589 227.876 95.248" stroke="#645841" stroke-linecap="round"/>
<path d="M229.174 95.3785C229.616 95.1706 230.123 95.2488 230.601 95.2488" stroke="#645841" stroke-linecap="round"/>
<path d="M229.304 101.215C229.571 100.844 230.043 100.674 230.471 100.566" stroke="#645841" stroke-linecap="round"/>
<path d="M215.553 73.1953C216.201 73.5323 216.062 74.4357 216.201 75.0619C216.344 75.7048 216.345 76.3248 216.418 76.9717C216.533 77.995 216.72 78.9026 216.72 79.941" stroke="#645841" stroke-linecap="round"/>
<path d="M216.849 73.8422C217.389 73.8422 218.01 73.7501 218.542 73.8566C218.974 73.9429 218.962 74.0902 219.328 73.7701C219.64 73.4969 219.897 73.3858 220.279 73.2585C221.437 72.8727 222.428 72.6747 223.652 72.6747C224.027 72.6747 224.887 72.4993 225.18 72.7612C225.487 73.0354 226.731 73.4796 226.765 73.7846C226.823 74.2989 227.704 74.1017 228.063 74.1017C228.805 74.1017 229.108 74.0933 229.691 73.5828" stroke="#645841" stroke-linecap="round"/>
<path d="M230.6 72.2871V82.0165" stroke="#645841" stroke-linecap="round"/>
<path d="M229.822 77.6055C225.268 77.6055 220.754 77.7352 216.201 77.7352" stroke="#645841" stroke-linecap="round"/>
</svg>
