<svg width="235" height="185" viewBox="0 0 235 185" fill="none" xmlns="http://www.w3.org/2000/svg">
<path d="M149.722 182.401C148.922 182.2 148.562 179.753 148.562 179.051C148.562 176.987 149.142 174.972 149.142 172.852C149.142 170.814 149.409 168.826 149.915 166.845C150.234 165.598 150.99 164.572 151.397 163.367C151.715 162.422 151.718 161.422 152.073 160.485C153.104 157.761 153.682 154.174 155.374 151.805C156.707 149.939 157.943 147.461 160.189 146.588C167.019 143.932 174.854 147.21 181.605 148.682C184.051 149.215 186.405 150.086 188.851 150.614C189.614 150.778 189.886 150.749 190.365 151.258C190.886 151.812 192.801 151.635 193.457 151.725C195.945 152.066 198.3 152.915 200.671 153.706C206.242 155.563 212.122 156.32 217.707 158.182C220.068 158.969 222.382 160.479 224.599 161.628C226.598 162.664 229.26 163.41 231.459 163.85" stroke="#645841" stroke-linecap="round"/>
<path d="M152.91 155.155C151.891 154.964 152.25 151.201 152.363 150.437C152.875 146.978 155.471 144.591 158.546 143.304C159.743 142.803 160.307 142.014 161.38 141.468C162.568 140.864 163.734 140.335 164.923 139.761C167.935 138.307 171.102 136.415 174.552 136.637C176.263 136.747 177.512 137.97 179.206 138.296C180.652 138.574 181.995 138.765 183.312 139.471C188.605 142.309 195.096 142.228 200.735 144.27C202.875 145.044 204.579 146.863 206.726 147.716C209.453 148.799 212.414 149.343 215.196 150.292C217.446 151.06 219.463 152.185 221.798 152.82C224.389 153.525 226.991 154.046 229.43 155.155" stroke="#645841" stroke-linecap="round"/>
<path d="M211.17 148.199C213.945 145.423 216.896 143.484 220.155 141.371C224.007 138.874 228.466 137.882 232.909 136.895" stroke="#645841" stroke-linecap="round"/>
<path d="M217.257 149.358C222.306 147.953 227.331 146.258 232.329 144.721" stroke="#645841" stroke-linecap="round"/>
<path d="M176.388 129.939C179.757 129.939 183.172 131.14 186.468 131.775C190.037 132.462 192.109 133.414 195.131 135.495C198.676 137.936 202.179 140.345 205.952 142.403C209.722 144.459 213.635 145.882 217.546 147.62" stroke="#645841" stroke-linecap="round"/>
<path d="M178.418 137.475C179.29 134.275 183.343 131.678 186.534 131.678" stroke="#645841" stroke-linecap="round"/>
<path d="M199.576 143.851C200.986 142.293 201.826 140.906 203.634 139.793" stroke="#645841" stroke-linecap="round"/>
<path d="M181.315 130.518C181.315 129.589 181.313 128.317 181.911 127.539C182.415 126.885 183.83 126.401 184.504 125.752C185.611 124.686 187.247 123.804 188.562 122.982" stroke="#645841" stroke-linecap="round"/>
<path d="M176.968 129.648C175.701 130.746 174.499 131.731 173.602 133.127C173.153 133.825 172.35 135.175 171.573 135.445C170.458 135.833 169.909 136.439 169.238 137.378C167.882 139.277 166.578 140.892 164.794 142.402" stroke="#645841" stroke-linecap="round"/>
<path d="M190.59 120.084C191.915 120.983 192.849 121.358 194.39 121.726C196.884 122.323 199.262 123.454 201.83 123.804C203.451 124.025 204.846 124.452 206.435 124.915C210.264 126.031 214.189 126.406 218.029 127.427C219.13 127.72 220.255 127.536 221.362 127.813C223.301 128.298 225.036 129.599 226.95 130.019C227.639 130.171 228.595 129.707 229.204 130.068C230.075 130.584 230.728 130.695 231.748 130.808" stroke="#645841" stroke-linecap="round"/>
<path d="M190.59 122.402C189.74 122.189 189.661 120.374 189.721 119.632C189.769 119.032 190.349 118.542 190.783 118.183C192.347 116.891 193.76 115.489 195.26 114.125C198.031 111.606 201.244 111.678 204.793 111.678C211.216 111.678 218.05 110.92 223.665 114.689C226.766 116.77 230.359 116.79 233.778 118.344" stroke="#645841" stroke-linecap="round"/>
<path d="M190.011 118.909C190.011 117.963 190.2 117.336 190.771 116.64C191.182 116.141 191.367 115.559 191.755 115.06C192.34 114.308 193.04 113.533 193.8 112.955C197.235 110.345 201.887 108.915 206.205 108.995C207.975 109.028 209.674 109.496 211.424 109.69C212.216 109.778 212.858 110.112 213.627 110.294C214.77 110.564 215.958 110.535 217.089 110.831C218.163 111.112 219.225 111.242 220.315 111.434C221.755 111.689 223.088 112.288 224.504 112.608C225.007 112.721 225.524 112.577 226.019 112.733C227.27 113.125 228.517 113.293 229.782 113.605C230.246 113.719 230.599 113.952 231.081 113.952" stroke="#645841" stroke-linecap="round"/>
<path d="M150.302 110.229C150.302 112.856 148.892 115.25 148.853 117.829C148.803 121.09 148.096 124.981 149.722 127.909" stroke="#645841" stroke-linecap="round"/>
<path d="M158.418 113.127C156.567 115.595 155.099 117.822 154.94 120.953C154.818 123.342 154.36 125.642 154.36 128.054C154.36 130.686 149.866 129.069 147.983 129.069" stroke="#645841" stroke-linecap="round"/>
<path d="M157.839 124.431C160.315 123.479 162.908 122.597 165.423 121.758C166.34 121.453 167.322 121.533 168.273 121.533" stroke="#645841" stroke-linecap="round"/>
<path d="M159.577 127.62C159.646 128.728 165.754 126.532 166.791 126.042C167.62 125.65 168.179 125.693 169.046 125.591C170.778 125.387 172.595 123.85 174.07 122.982" stroke="#645841" stroke-linecap="round"/>
<path d="M158.708 112.258C162.54 111.508 166.425 110.836 170.012 109.359" stroke="#645841" stroke-linecap="round"/>
<path d="M160.156 108.2C163.713 107.276 167.181 105.592 170.881 105.592" stroke="#645841" stroke-linecap="round"/>
<path d="M137.493 98.8477C138.053 99.3306 138.829 99.6173 139.473 99.9754C140.386 100.482 141.324 100.801 142.345 100.998C143.237 101.171 144.031 101.78 144.876 102.1C145.643 102.39 146.374 102.737 147.092 103.122C147.935 103.575 148.654 104.221 149.544 104.591C150.475 104.979 151.353 105.202 152.245 105.693" stroke="#645841" stroke-linecap="round"/>
<path d="M137.257 99.6738C137.257 100.496 137.138 101.324 137.978 101.798C139.268 102.526 141.02 101.937 142.331 101.562" stroke="#645841" stroke-linecap="round"/>
<path d="M140.561 101.207C140.561 102.077 140.461 102.82 140.981 103.554C141.896 104.845 143.895 103.807 144.81 103.095" stroke="#645841" stroke-linecap="round"/>
<path d="M144.692 102.977C144.692 103.777 144.684 104.412 145.269 105.022C145.677 105.447 146.372 105.561 146.915 105.678C148.059 105.923 149.096 105.972 150.239 105.809" stroke="#645841" stroke-linecap="round"/>
<path d="M149.176 105.457C148.634 106.067 148.611 107.32 149.583 107.555C150.118 107.685 150.804 107.596 151.353 107.581C152.027 107.563 152.279 107.193 152.717 106.755" stroke="#645841" stroke-linecap="round"/>
<path d="M153.661 107.698C154.294 106.875 155.562 106.574 156.533 106.412C157.988 106.17 159.507 106.281 160.978 106.281" stroke="#645841" stroke-linecap="round"/>
<path d="M153.425 105.691C154.824 105.612 156.122 105.048 157.496 104.812C158.722 104.603 159.927 104.299 161.096 103.868C163.263 103.07 165.553 103.211 167.823 102.977" stroke="#645841" stroke-linecap="round"/>
<path d="M153.072 104.04C154.359 102.928 155.692 101.878 157.393 101.47C159.4 100.988 161.546 101.541 163.576 101.09" stroke="#645841" stroke-linecap="round"/>
<path d="M141.034 99.0831C143.075 98.4621 145.344 98.0496 147.224 97.0244C148.554 96.2987 150.181 96.4867 151.656 96.4867" stroke="#645841" stroke-linecap="round"/>
<path d="M149.412 99.5551C150.401 99.0057 151.497 98.908 152.585 98.6765C153.387 98.5059 154.144 97.959 154.959 97.9029C156.034 97.8287 157.032 97.5488 158.145 97.5488" stroke="#645841" stroke-linecap="round"/>
<path d="M141.034 106.754C141.034 107.823 140.717 108.617 140.345 109.593C140.126 110.169 140.109 110.901 140.09 111.514C140.071 112.088 139.798 112.606 139.749 113.179C139.642 114.431 139.777 115.7 139.683 116.956C139.594 118.147 139.618 119.427 139.375 120.601C139.289 121.017 139.146 121.299 139.146 121.742" stroke="#645841" stroke-linecap="round"/>
<path d="M139.146 123.277H140.444" stroke="#645841" stroke-linecap="round"/>
<path d="M143.04 108.996C143.04 111.021 142.922 113.041 142.922 115.067C142.922 116.918 142.988 118.779 142.915 120.627C142.893 121.183 143.085 123.458 142.397 123.84C141.855 124.141 140.715 123.804 140.325 123.512" stroke="#645841" stroke-linecap="round"/>
<path d="M143.983 122.922C144.459 122.474 144.869 121.809 145.4 121.506" stroke="#645841" stroke-linecap="round"/>
<path d="M145.4 119.027C145.4 116.616 145.512 114.166 145.387 111.756C145.306 110.198 145.164 108.672 145.164 107.107" stroke="#645841" stroke-linecap="round"/>
<path d="M153.308 112.656C152.795 115.94 152.954 119.262 152.954 122.583C152.954 123.939 153.204 125.571 152.718 126.858C152.376 127.764 152.234 128.693 152.128 129.651" stroke="#645841" stroke-linecap="round"/>
<path d="M159.68 96.3681C159.715 95.2332 159.985 94.0985 160.244 92.9981C160.483 91.978 160.657 90.8586 161.03 89.8772C161.435 88.8121 162.188 87.9177 162.814 86.9792C163.173 86.4409 163.478 85.8425 163.928 85.3926" stroke="#645841" stroke-linecap="round"/>
<path d="M165.935 88.3438C164.928 89.7755 163.69 91.2677 163.247 92.9989C163.023 93.8715 162.652 94.6736 162.276 95.4248" stroke="#645841" stroke-linecap="round"/>
<path d="M172.19 96.9587C171.784 96.401 172.093 94.8926 172.196 94.3164C172.331 93.5636 172.403 92.3152 173.134 92.002" stroke="#645841" stroke-linecap="round"/>
<path d="M175.731 95.3064C175.731 94.2598 175.568 92.4104 176.793 92.002" stroke="#645841" stroke-linecap="round"/>
<path d="M158.618 84.5664C159.045 85.4709 160.79 85.5135 161.628 85.6941C162.902 85.9691 164.077 86.4503 165.319 86.7891C166.525 87.118 167.77 87.4794 168.945 87.9233C170.025 88.3313 171.276 88.4035 172.4 88.6577C173.576 88.9235 174.755 89.2904 175.849 89.7591" stroke="#645841" stroke-linecap="round"/>
<path d="M178.209 84.0957C178.126 84.8622 177.837 85.5778 177.579 86.2987C177.358 86.9177 177.363 87.5814 177.133 88.187C176.865 88.8966 176.678 89.6315 176.438 90.3506" stroke="#645841" stroke-linecap="round"/>
<path d="M178.445 83.623C179.127 83.7049 179.922 85.1984 180.255 85.7342C180.74 86.5157 180.606 87.4631 180.386 88.3175C180.162 89.1852 179.807 89.5622 179.206 90.1927C178.648 90.778 177.565 90.6505 176.793 90.8221" stroke="#645841" stroke-linecap="round"/>
<path d="M160.743 76.7773C163.456 77.5135 166.211 78.0963 168.847 79.0131C170.257 79.5035 171.692 79.7429 173.069 80.2654C173.745 80.5217 174.357 80.5086 174.905 81.026C175.2 81.3043 175.709 81.4154 175.908 81.7341C176.078 82.0053 176.332 82.1079 176.636 82.2127C177.738 82.5927 178.709 83.2482 179.862 83.5043" stroke="#645841" stroke-linecap="round"/>
<path d="M160.153 76.8965C159.692 78.4163 158.935 80.1738 158.861 81.7614C158.818 82.6891 158.21 84.2501 158.737 85.0397" stroke="#645841" stroke-linecap="round"/>
<path d="M161.214 72.4102C161.92 72.9143 162.859 72.8811 163.686 73.0265C165.349 73.3191 166.896 73.9542 168.531 74.3378C168.984 74.444 169.323 74.5476 169.724 74.7574C170.494 75.1593 171.358 75.2743 172.176 75.5442C174.147 76.1946 176.19 76.5082 178.208 77.0128" stroke="#645841" stroke-linecap="round"/>
<path d="M181.868 70.4043C181.409 72.0157 180.89 73.6071 180.524 75.2364C180.392 75.8228 179.861 76.4344 179.861 77.0132" stroke="#645841" stroke-linecap="round"/>
<path d="M182.221 69.6973C183.145 69.9492 183.246 71.3209 183.782 71.9134C184.309 72.4968 184.358 73.015 184.345 73.8016C184.329 74.8223 183.309 75.6995 182.47 76.1882C181.062 77.0082 179.299 77.0003 177.854 77.7224" stroke="#645841" stroke-linecap="round"/>
<path d="M178.563 79.7285C178.526 80.8686 178.097 81.606 177.619 82.5609" stroke="#645841" stroke-linecap="round"/>
<path d="M176.91 78.3125V81.3809" stroke="#645841" stroke-linecap="round"/>
<path d="M180.923 79.1387C179.632 80.2866 179.035 81.8363 179.035 83.5053" stroke="#645841" stroke-linecap="round"/>
<path d="M167.233 74.7715C167.233 75.5755 166.997 76.3478 166.997 77.1318" stroke="#645841" stroke-linecap="round"/>
<path d="M165.346 74.1816C165.309 75.2141 165.046 75.7526 164.52 76.542" stroke="#645841" stroke-linecap="round"/>
<path d="M168.767 75.5977C168.767 76.1266 169.019 77.8065 168.413 77.958" stroke="#645841" stroke-linecap="round"/>
<path d="M163.103 66.1562C162.501 67.5021 162.277 68.9084 162.277 70.3655C162.277 70.9726 161.647 72.6863 162.277 73.0012" stroke="#645841" stroke-linecap="round"/>
<path d="M162.276 66.747C163.633 66.747 165.001 66.6958 166.355 66.7995C168.258 66.9453 170.119 67.477 172.019 67.5797C173.94 67.6835 175.841 68.3563 177.678 68.8713C178.817 69.1908 179.961 69.6975 181.159 69.6975" stroke="#645841" stroke-linecap="round"/>
<path d="M156.848 95.543C157.47 95.5741 157.979 95.98 158.559 96.1789C159.586 96.5316 160.644 96.5428 161.68 96.8018C163.213 97.1852 163.242 99.3874 164.755 99.5555" stroke="#645841" stroke-linecap="round"/>
<path d="M165.096 97.9238C168.084 99.752 170.931 101.485 174.312 102.496C175.819 102.947 177.615 103.145 178.926 104.048C181.951 106.13 185.113 108.117 188.4 109.761" stroke="#645841" stroke-linecap="round"/>
<path d="M168.609 99.0329C170.087 96.7345 172.579 96.5867 175.011 96.0326C177.086 95.5597 178.761 94.8383 180.939 94.7893C182.684 94.7501 184.69 94.7887 185.995 93.4844" stroke="#645841" stroke-linecap="round"/>
<path d="M185.625 94.9648C189.364 96.246 193.618 97.1239 196.989 99.2393C201.439 102.031 206.664 104.602 211.765 105.877C213.026 106.192 214.707 105.885 215.659 106.678C217.642 108.331 220.016 108.808 222.43 109.576" stroke="#645841" stroke-linecap="round"/>
<path d="M173.418 106.801C173.418 107.925 173.806 108.639 173.932 109.719C174.157 111.659 174.058 113.835 173.962 115.791C173.883 117.413 173.048 118.651 173.048 120.292C173.048 122.446 173.134 124.508 172.493 126.591" stroke="#645841" stroke-linecap="round"/>
<path d="M172.493 121.968C176.543 121.968 180.482 120.955 184.515 120.674" stroke="#645841" stroke-linecap="round"/>
<path d="M183.59 111.611V118.824" stroke="#645841" stroke-linecap="round"/>
<path d="M183.775 119.934C185.493 121.651 187.451 122.921 189.509 124.187" stroke="#645841" stroke-linecap="round"/>
<path d="M171.014 128.072C173.715 128.18 176.374 129.05 178.946 129.798C181.015 130.4 183.067 131.001 185.07 131.771" stroke="#645841" stroke-linecap="round"/>
<path d="M170.829 127.701V132.695" stroke="#645841" stroke-linecap="round"/>
<path d="M179.271 26.8555C178.986 27.32 178.693 27.8488 178.589 28.3897C178.513 28.7829 178.337 28.9307 178.228 29.2748C177.903 30.3047 179.323 30.9949 179.979 31.4581" stroke="#645841" stroke-linecap="round"/>
<path d="M180.452 31.5762C179.867 32.3472 179.201 33.0031 178.465 33.6284C178.263 33.8003 177.974 34.1521 177.974 34.4348C177.974 35.3877 179.186 35.601 179.442 36.4149C179.697 37.2233 179.919 39.1277 180.885 39.4571C181.243 39.5794 181.27 39.7112 181.527 39.9685C181.969 40.4098 182.36 40.662 182.93 40.8995" stroke="#645841" stroke-linecap="round"/>
<path d="M182.575 41.4897C183.129 41.4897 183.98 41.6625 184.502 41.4635C184.821 41.3422 184.789 40.7006 184.87 40.4407C185.107 39.6754 186.778 39.705 187.413 39.8899C188.689 40.2611 189.066 39.2692 189.066 38.1328C189.066 36.7575 190.101 36.4184 191.072 35.6151C191.622 35.1605 192.37 34.2316 192.37 33.4908C192.37 32.6426 192.544 31.9418 193.105 31.2878C193.496 30.8311 194.086 29.9818 193.76 29.3077C193.517 28.804 192.839 28.828 192.39 28.7242C191.945 28.6215 192.134 27.595 192.134 27.2687C192.134 26.6982 192.134 26.1278 192.134 25.5574C192.134 24.7915 191.799 24.3829 191.301 23.7937C190.641 23.0109 189.865 22.3392 189.262 21.5055C189.111 21.2959 188.984 20.8098 188.712 20.7318C188.48 20.6656 188.323 20.7139 188.095 20.5745C187.811 20.4 187.53 19.9238 187.197 19.8992C186.08 19.8164 184.752 20.8586 184.365 21.8923C184.298 22.069 184.446 22.4348 184.266 22.5545C183.963 22.7568 183.563 22.695 183.23 22.961C182.723 23.3668 182.683 24.2323 181.926 24.3641C181.566 24.4267 181.169 24.3702 180.805 24.3772C180.387 24.3853 180.135 24.6539 179.821 24.9083C179.468 25.1943 179.165 26.0906 179.06 26.5278C178.904 27.1782 178.762 27.4688 178.326 28.0358" stroke="#645841" stroke-linecap="round"/>
<path d="M182.458 27.2105C181.584 27.7483 180.719 28.9485 181.337 29.9773C181.718 30.613 182.445 30.8376 182.458 31.6558C182.466 32.1896 182.532 32.7996 182.261 33.2818C182.124 33.5255 181.506 34.1745 181.547 34.4751C181.581 34.7371 182.176 35.4013 182.392 35.5635C182.635 35.7452 182.593 35.9733 182.707 36.2453C182.994 36.9261 183.313 37.1239 184.045 37.1239C184.522 37.1239 185.027 37.1727 185.5 37.0977C186.012 37.0164 185.815 36.6704 186.116 36.4289C186.646 36.0054 187.242 36.055 187.795 35.7602C188.105 35.5949 188.557 35.5634 188.903 35.4061C189.517 35.1272 189.966 34.4864 190.195 33.8588C190.473 33.0964 190.13 32.226 190.385 31.505C190.648 30.7599 191.638 29.9659 191.663 29.1906C191.694 28.2369 190.719 28.3299 190.306 27.6695C189.8 26.8597 191.231 25.854 190.535 25.1583C190.254 24.8769 189.899 24.7523 189.565 24.5551C189.211 24.3457 189.121 23.8167 188.857 23.5126C188.127 22.6708 187.516 23.1778 186.726 23.7421C186.024 24.2437 185.271 24.6679 184.549 25.1386C184.277 25.3162 184.121 25.6853 183.874 25.9123C183.666 26.1034 183.221 26.4045 182.956 26.4958C182.232 26.7455 181.884 26.9682 181.396 27.5645" stroke="#645841" stroke-linecap="round"/>
<path d="M69.8461 111.426C70.2967 111.464 70.5554 111.769 70.9866 111.889C72.6115 112.34 74.4736 112.351 76.1447 112.351C76.7299 112.351 77.3592 112.416 77.9428 112.351C78.2176 112.321 78.35 112.042 78.5799 111.92C78.9582 111.718 79.4651 111.796 79.8745 111.796C80.5208 111.796 81.3256 111.668 81.9604 111.817C82.8678 112.03 83.6495 112.587 84.6113 112.701C85.6893 112.827 86.9861 112.817 88.0329 112.557C88.9407 112.331 89.9258 111.979 90.6634 111.385C91.0297 111.09 91.2751 110.603 91.7114 110.399C93.8586 109.397 96.3392 110.938 98.4005 111.396C99.3615 111.609 101.884 111.789 102.706 111.242C103.72 110.566 105.103 107.551 104.494 106.443C103.9 105.364 102.507 105.323 101.452 105.323C100.492 105.323 99.3399 105.504 98.4313 105.128C98.0206 104.958 97.2227 104.862 96.9209 104.542C96.3078 103.893 95.8473 103.197 94.8967 103.104C94.5522 103.07 94.1699 102.708 93.9719 102.405C93.6144 101.858 93.6383 101.54 92.893 101.264C92.2699 101.034 91.5538 101.034 90.9716 100.792C89.7488 100.282 88.896 98.7506 88.896 97.4524C88.896 95.7221 88.0692 95.0005 86.2759 94.5137C84.8909 94.1378 83.5036 93.9424 82.0939 93.7122C81.0409 93.5403 80.4492 92.8888 79.5252 92.3765C78.92 92.041 78.2752 91.7428 77.6346 91.4826C75.6634 90.6818 72.7187 92.5289 71.0482 93.2499C68.2682 94.4497 65.6917 95.1788 64.1434 97.7915C63.3467 99.1358 63.648 99.7701 64.2975 101.069" stroke="#645841" stroke-linecap="round"/>
<path d="M63.7422 96.0742C63.8683 96.915 64.3719 97.6722 64.5231 98.5402C64.781 100.021 64.8519 101.481 64.8519 102.979C64.8519 103.419 64.6915 105.217 65.2218 104.952" stroke="#645841" stroke-linecap="round"/>
<path d="M64.2969 107.541C64.3617 109.939 64.6333 112.341 64.9339 114.713C65.3458 117.962 65.7928 121.207 66.1258 124.454C66.2722 125.881 66.1464 127.38 66.1464 128.81C66.1464 129.876 66.0712 130.975 66.1875 132.037C66.3351 133.384 66.8596 134.701 67.1431 136.024C67.6334 138.312 68.1809 140.62 68.1809 142.969C68.1809 144.97 68.1809 146.97 68.1809 148.97" stroke="#645841" stroke-linecap="round"/>
<path d="M67.8105 98.4785C67.5789 100.975 67.4145 103.347 67.6358 105.856C67.8181 107.921 68.5415 109.879 68.6941 111.918C68.7933 113.243 68.7352 114.588 68.7352 115.915C68.7352 118.832 69.5431 121.555 70.4615 124.31C70.8136 125.366 71.3246 126.251 71.3246 127.372C71.3246 128.917 71.3246 130.461 71.3246 132.006C71.3246 135.331 71.6945 138.609 71.6945 141.942" stroke="#645841" stroke-linecap="round"/>
<path d="M65.2217 95.8906C65.2642 96.2308 65.9157 96.8273 66.1464 97.0003" stroke="#645841" stroke-linecap="round"/>
<path d="M64.667 96.2599C65.8161 96.2599 66.7074 96.0204 67.8112 95.7051" stroke="#645841" stroke-linecap="round"/>
<path d="M67.8109 96.0742C67.7482 96.8892 67.626 97.6559 67.626 98.4786" stroke="#645841" stroke-linecap="round"/>
<path d="M63.0021 96.0745C62.8473 95.1265 62.5075 94.2639 63.8447 94.4922C64.5432 94.6114 65.2013 94.9416 65.9202 94.9648C66.4384 94.9815 66.965 94.927 67.482 94.9648C68.2449 95.0206 67.9958 96.0875 67.9958 96.6294" stroke="#645841" stroke-linecap="round"/>
<path d="M44.6924 99.2198C45.439 99.1224 46.113 98.7679 46.8707 98.6957C48.6541 98.5259 50.5069 98.6649 52.2959 98.6649C54.6935 98.6649 57.091 98.6649 59.4885 98.6649" stroke="#645841" stroke-linecap="round"/>
<path d="M53.0146 105.322C56.5646 104.525 59.8563 103.473 63.5569 103.473" stroke="#645841" stroke-linecap="round"/>
<path d="M80.9426 148.417C80.9426 147.151 80.6695 145.787 81.6002 144.8C82.166 144.199 82.5339 143.526 83.3881 143.279C84.9956 142.815 86.6353 142.561 88.1968 141.902C89.0623 141.537 90.0479 141.654 90.8889 141.306C91.6482 140.993 92.0495 140.518 92.9439 140.464C93.6726 140.42 94.3905 140.288 95.1222 140.279C96.9304 140.257 98.7628 140.221 100.568 140.32C102.629 140.433 104.495 140.789 106.466 141.327C108.765 141.954 111.734 142.453 113.556 144.081C114.44 144.871 114.911 146.462 115.015 147.574C115.141 148.931 115.408 150.57 114.891 151.89C114.448 153.024 113.351 154.123 112.61 155.075C112.226 155.569 112.049 156.182 111.562 156.596C110.945 157.119 110.191 157.498 109.487 157.89C105.966 159.851 101.688 159.514 97.7732 159.514C95.4558 159.514 93.4069 158.181 91.341 157.335C90.4423 156.967 88.8857 156.971 88.2379 156.185C87.5929 155.401 86.6231 154.753 86.1418 153.862C85.714 153.071 85.2246 152.377 84.7444 151.622C84.4303 151.129 84.4811 150.353 84.0662 149.968C83.2629 149.222 83.3829 148.058 84.056 147.276C85.6913 145.377 89.017 145.02 91.3307 144.533C93.9185 143.988 96.3028 143.383 98.9857 143.259C100.657 143.181 102.368 143.162 104.02 143.433C106.712 143.876 108.341 144.327 109.641 146.927C110.209 148.064 110.353 150.141 110.155 151.427C110.071 151.972 108.488 152.799 108.089 153.01C106.395 153.904 104.423 154.52 102.633 155.208C101.199 155.76 99.5899 155.765 98.0712 155.804C97.2999 155.824 95.6829 156.124 94.9681 155.722C93.7117 155.015 92.2247 152.79 92.2247 151.283C92.2247 148.011 97.1628 148.786 99.3658 148.786C100.192 148.786 102.607 148.71 102.757 149.906C102.818 150.395 103.03 152.294 102.335 152.455C101.263 152.702 99.974 152.412 98.9548 152.105C97.9962 151.816 96.9012 151.701 96.0264 151.201C94.9179 150.568 96.1368 149.996 96.8484 149.711" stroke="#645841" stroke-linecap="round"/>
<path d="M148.081 176.158C146.05 175.795 144.184 175.456 142.388 174.401C141.36 173.797 140.369 173.108 139.368 172.459C138.646 171.992 137.787 171.719 137.097 171.226C136.204 170.588 135.809 169.583 135.299 168.657C133.851 166.028 133.215 162.96 132.833 159.985C132.563 157.891 132.827 156.922 134.374 155.403C135.648 154.152 137.267 153.152 138.422 151.796C139.091 151.011 140.733 149.761 141.834 149.71C145.159 149.557 148.208 149.649 151.41 150.45" stroke="#645841" stroke-linecap="round"/>
<path d="M152.149 151.929C150.327 151.929 148.505 151.929 146.683 151.929C146.376 151.929 145.354 151.727 145.121 152.135C144.736 152.808 144.006 153.342 143.539 154.005C142.697 155.198 142.585 156.816 141.782 158.022C140.96 159.254 139.77 160.823 139.531 162.286C139.353 163.38 139.342 164.531 139.398 165.636C139.458 166.843 140.069 167.428 140.805 168.287C141.324 168.892 143.026 169.308 143.734 169.489C146.244 170.133 148.841 170.054 151.409 170.054" stroke="#645841" stroke-linecap="round"/>
<path d="M73.3564 98.8671C73.6499 97.6933 75.7734 97.5002 76.7463 97.3405C76.9142 97.3129 78.2117 97.0497 78.3468 97.3076C78.5963 97.784 78.3796 98.8304 78.3796 99.3596C78.3796 100.648 80.3593 100.624 81.3345 100.87C82.4525 101.151 83.575 101.406 84.7161 101.576C85.1346 101.638 85.6494 101.592 86.0622 101.707C86.4079 101.803 86.3848 102.246 86.4315 102.536C86.5643 103.359 86.5243 104.265 87.2769 104.81C89.5004 106.42 92.2776 106.93 94.9266 107.288" stroke="#645841" stroke-linecap="round"/>
<path d="M150.302 157.764C148.553 157.764 147.086 158.48 145.39 158.649C144.608 158.728 144.334 159.363 144.231 160.082C144.058 161.293 144.993 161.763 145.761 162.562C147.569 164.446 151.325 164.72 153.78 164.72" stroke="#645841" stroke-linecap="round"/>
<path d="M97.2598 116.896C100.175 121.506 104.371 125.548 106.374 130.713C107.166 132.756 107.073 134.972 107.743 137.057C108.682 139.985 109.9 142.34 111.752 144.722" stroke="#645841" stroke-linecap="round"/>
<path d="M106.534 117.766C107.255 120.846 107.921 123.965 109.272 126.848C110.352 129.152 112.01 131.027 113.33 133.176C114.411 134.936 115.344 136.584 116.775 138.103C118.058 139.464 118.704 140.361 119.287 142.113" stroke="#645841" stroke-linecap="round"/>
<path d="M86.5361 165.59C87.5662 168.274 88.6289 170.977 89.177 173.786C89.5171 175.529 91.1257 177.455 92.0432 178.923" stroke="#645841" stroke-linecap="round"/>
<path d="M90.8838 167.039C94.9274 173.047 100.088 178.354 105.086 183.56" stroke="#645841" stroke-linecap="round"/>
<path d="M131.462 122.113C133.397 125.829 134.95 129.616 137.194 133.192C138.931 135.959 141.101 138.59 142.718 141.42C144.12 143.874 145.319 146.605 145.954 149.359" stroke="#645841" stroke-linecap="round"/>
<path d="M141.026 130.52C144.149 134.141 147.303 137.773 150.591 141.244" stroke="#645841" stroke-linecap="round"/>
<path d="M74.9404 87.041L76.0998 89.3598" stroke="#645841" stroke-linecap="round"/>
<path d="M88.8535 92.8379C90.5786 94.1605 91.8163 95.9766 93.0402 97.7492C95.0423 100.649 97.0745 103.426 99.288 106.171" stroke="#645841" stroke-linecap="round"/>
<path d="M77.839 2.11523C77.839 6.92993 77.839 11.7446 77.839 16.5593C77.839 18.5829 77.839 20.6065 77.839 22.63C77.839 25.1339 78.3044 27.201 78.6764 29.6186C78.8249 30.5838 79.2068 31.1681 79.4493 32.034C79.8118 33.3287 78.8493 35.9117 78.5153 37.1869C78.0591 38.9288 76.2412 40.1871 76.0999 41.9532C75.9806 43.4454 76.0999 44.9973 76.0999 46.4942C76.0999 49.6824 76.4007 52.4672 77.2593 55.5439C77.5498 56.5847 78.1289 57.3683 78.1289 58.4746C78.1289 59.5052 78.1289 60.5357 78.1289 61.5663C78.1289 64.8609 77.7309 68.7425 78.6119 71.9364C78.9164 73.0399 79.1039 74.5336 79.6425 75.5434C79.9245 76.0722 80.1578 76.2758 80.1578 76.896" stroke="#645841" stroke-linecap="round"/>
<path d="M83.0576 2.69531C85.2133 6.57553 84.5586 11.3026 86.3748 15.2554C87.0177 16.6547 86.8256 18.1555 86.8256 19.6675C86.8256 22.5123 86.8256 25.3571 86.8256 28.2019" stroke="#645841" stroke-linecap="round"/>
<path d="M93.4912 6.17383C93.651 10.9139 95.0474 15.4548 95.6812 20.1348C95.9573 22.1736 96.0268 24.1276 96.0998 26.1733C96.1778 28.357 97.2623 30.22 98 32.228C98.7604 34.2979 98.5562 36.9176 98.3703 39.0555C98.1256 41.8693 97.5491 44.4767 97.5491 47.3323" stroke="#645841" stroke-linecap="round"/>
<path d="M48.8545 7.04297C49.1919 12.7781 50.8834 18.3166 50.8834 24.0796C50.8834 26.8351 50.5136 29.8645 51.2377 32.5496C51.7552 34.4687 51.703 36.4441 51.8818 38.411C52.1012 40.8248 52.7164 43.1058 53.3632 45.4317C54.079 48.0057 54.8838 50.6153 55.2956 53.2576C56.1655 58.8397 59.1296 63.9304 59.289 69.618C59.3883 73.1572 58.7093 76.5783 58.7093 80.0847" stroke="#645841" stroke-linecap="round"/>
<path d="M38.4204 5.59375C38.4204 10.6048 37.7595 16.1678 38.7747 21.1167C39.3027 23.691 39.014 26.2706 39.4832 28.8299C40.5534 34.6674 43.484 40.1361 45.6666 45.5928" stroke="#645841" stroke-linecap="round"/>
<path d="M31.1744 2.98633C29.539 7.84126 29.7251 12.9238 29.7251 17.994C29.7251 21.9231 29.7251 25.8521 29.7251 29.7812C29.7251 33.9893 29.7251 38.1975 29.7251 42.4057" stroke="#645841" stroke-linecap="round"/>
<path d="M29.7256 44.1426C29.7256 46.5157 29.6743 48.6005 30.3053 50.8091" stroke="#645841" stroke-linecap="round"/>
<path d="M38.9996 27.623C38.9379 28.2094 38.6774 28.5573 38.4199 29.0723" stroke="#645841" stroke-linecap="round"/>
<path d="M34.6533 20.666C34.6533 24.8581 34.6533 29.0501 34.6533 33.2422C34.6533 38.9359 36.817 43.8621 38.7112 49.0711" stroke="#645841" stroke-linecap="round"/>
<path d="M101.027 20.9551C100.94 21.3052 100.431 21.2449 101.092 21.2449C101.918 21.2449 102.745 21.2449 103.571 21.2449C104.752 21.2449 105.933 21.2449 107.114 21.2449" stroke="#645841" stroke-linecap="round"/>
<path d="M104.506 25.3025C105.099 23.1673 109.097 24.433 110.593 24.433" stroke="#645841" stroke-linecap="round"/>
<path d="M14.0722 5.30273C13.791 5.30273 11.3733 5.30273 12.8484 5.30273C14.5717 5.30273 16.12 5.68512 17.7758 6.10787C18.3507 6.25466 18.5142 6.75197 19.1284 6.75197C19.8584 6.75197 20.5884 6.75197 21.3184 6.75197" stroke="#645841" stroke-linecap="round"/>
<path d="M14.3623 12.5504C16.7937 12.4346 19.1633 11.9707 21.6085 11.9707" stroke="#645841" stroke-linecap="round"/>
<path d="M139.088 25.9611C138.941 25.4542 139.983 25.6782 140.335 25.6782C140.869 25.6782 141.403 25.6782 141.938 25.6782C142.999 25.6782 144.061 25.6782 145.122 25.6782" stroke="#645841" stroke-linecap="round"/>
<path d="M145.783 26.2441C145.783 27.8071 145.57 29.5845 145.877 31.1202C146.014 31.8028 146.245 32.8597 146.003 33.5451C145.829 34.0362 145.837 34.4711 145.72 34.9696C145.539 35.744 145.281 36.5343 145.07 37.3055C144.849 38.1167 144.831 39.0833 144.463 39.8195" stroke="#645841" stroke-linecap="round"/>
<path d="M144.746 40.3852C143.924 40.3646 143.108 40.3061 142.284 40.2909C141.866 40.2831 141.533 40.0169 141.101 40.0081C140.211 39.9899 139.319 40.0081 138.43 40.0081" stroke="#645841" stroke-linecap="round"/>
<path d="M139.656 26.5273C139.536 27.7081 139.561 28.8877 139.561 30.0731C139.561 31.4506 139.39 32.8034 139.373 34.1739C139.361 35.072 139.462 36.0133 139.362 36.9079C139.318 37.302 139.109 37.6375 139.017 38.0182C138.911 38.4528 138.901 38.9036 138.901 39.3485" stroke="#645841" stroke-linecap="round"/>
<path d="M117.97 14.4297V50.3174" stroke="#645841" stroke-linecap="round"/>
<path d="M106.856 1.46289C106.964 2.71307 107.955 3.48831 108.58 4.52428C109.683 6.35301 111.088 8.21391 112.645 9.66947C114.212 11.1342 116.581 13.2514 116.581 15.5864" stroke="#645841" stroke-linecap="round"/>
<path d="M127 1C129.767 4.57938 131.781 8.76995 134.718 12.1265C135.549 13.0761 136.406 14.9505 136.956 16.0497" stroke="#645841" stroke-linecap="round"/>
<path d="M137.187 16.2814C141.661 15.7892 145.958 15.3553 150.474 15.3553C152.938 15.3553 154.825 15.0746 157.15 14.2491C160.963 12.8951 164.391 12.5769 168.405 12.5769C172.049 12.5769 175.582 12.1681 179.197 11.8051C184.598 11.2628 190.069 11.9129 195.482 11.6121C197.191 11.5172 198.652 11.0375 200.267 10.5317C202.195 9.92742 204.16 10.03 206.158 10.03C210.731 10.03 214.659 8.66391 219.034 7.41881C221.784 6.63607 224.886 6.6703 227.485 5.63086" stroke="#645841" stroke-linecap="round"/>
<path d="M138.345 16.7441C135.798 17.7628 136.724 24.48 136.724 26.5715C136.724 32.6469 136.895 38.7532 136.956 44.8369C136.981 47.3613 137.187 49.8795 137.187 52.4132C137.187 53.8825 137.276 55.3859 137.136 56.8509C137.017 58.087 136.596 59.2586 136.518 60.504C136.291 64.1404 135.538 67.8328 133.251 70.6915" stroke="#645841" stroke-linecap="round"/>
<path d="M124.685 21.6074H132.788" stroke="#645841" stroke-linecap="round"/>
<path d="M125.611 27.1638C129.091 26.8363 132.544 27.0456 136.03 27.1638" stroke="#645841" stroke-linecap="round"/>
<path d="M204.563 50.5486C207.492 50.5043 210.403 50.2965 213.336 50.3686C215.082 50.4114 216.56 50.7779 218.224 50.986C220.661 51.2906 222.887 51.7063 225.401 51.7063" stroke="#645841" stroke-linecap="round"/>
<path d="M205.027 60.04C207.515 59.3163 210.286 59.577 212.848 59.577C214.029 59.577 214.539 59.6385 215.472 59.9371C216.993 60.4237 219.067 60.1326 220.643 60.3101C223.161 60.5939 225.661 60.9538 228.181 61.1977" stroke="#645841" stroke-linecap="round"/>
<path d="M143.438 45.916C143.42 47.8705 143.354 49.7513 142.872 51.6529C142.102 54.6903 141.744 57.7562 141.097 60.8113C140.251 64.8036 137.761 68.2927 137.187 72.3108" stroke="#645841" stroke-linecap="round"/>
<path d="M147.606 53.3262C147.606 55.1183 147.374 56.8827 147.374 58.6772C147.374 62.9225 147.525 67.0284 146.448 71.1543" stroke="#645841" stroke-linecap="round"/>
<path d="M2.43557 14.6602C1.22945 17.2985 1.9725 21.2512 1.9725 24.063C1.9725 27.5779 2.46812 30.9247 3.00154 34.392C3.5907 38.2215 4.49286 41.9006 4.8924 45.7628C5.17483 48.493 5.44551 51.0584 5.44551 53.8151C5.44551 58.7916 5.61778 63.4545 4.42933 68.3116C3.52338 72.0142 3.13017 75.4828 3.13017 79.258" stroke="#645841" stroke-linecap="round"/>
<path d="M5.90723 103.569C6.54448 103.502 7.12165 103.157 7.73377 102.977C9.5324 102.448 11.3605 102.031 13.2391 101.961C16.8999 101.825 20.5875 101.948 24.2498 101.948C27.6784 101.948 31.1124 102.007 34.5402 101.948C38.6153 101.878 42.7174 100.618 46.6571 99.6328" stroke="#645841" stroke-linecap="round"/>
<path d="M9.14844 109.126C15.1512 109.126 21.1539 109.126 27.1566 109.126C33.4122 109.126 40.078 109.961 46.1938 108.432" stroke="#645841" stroke-linecap="round"/>
<path d="M1.74047 101.254C-0.0557831 100.937 1.93141 96.4137 2.31931 95.6976C2.783 94.8415 3.09013 93.649 3.72137 92.9063C4.1202 92.4371 4.5979 91.8385 4.80186 91.247C5.36364 89.6178 5.17786 87.01 4.62178 85.4072C4.33075 84.5684 3.54117 83.76 3.3998 82.9118C3.21797 81.8208 3.36121 80.5963 3.36121 79.4902" stroke="#645841" stroke-linecap="round"/>
<path d="M7.99121 98.4746C12.7959 97.9776 17.8309 96.666 22.6679 97.8958C24.7591 98.4274 26.941 98.2431 29.0865 98.2431C31.2072 98.2431 33.3478 98.4032 35.4665 98.5261C36.8474 98.6061 38.1857 98.7061 39.5698 98.7061C40.0586 98.7061 40.4622 98.7903 40.7532 98.3202C41.3349 97.3806 41.9408 97.1501 43.0557 97.0983C45.1305 97.0018 47.3159 96.9377 49.3843 97.0854C51.1071 97.2085 52.6203 98.3974 54.3751 98.3974C55.4192 98.3974 56.2422 97.5621 57.0763 97.0854" stroke="#645841" stroke-linecap="round"/>
<path d="M61.2445 97.0866C61.1646 95.942 60.487 94.5938 59.881 93.6136C59.18 92.4796 58.885 91.3493 58.4789 90.0634C57.7545 87.7694 56.1507 85.7283 56.1507 83.2074C56.1507 82.0652 55.4882 78.5663 54.6329 77.8179C54.2173 77.4542 54.3022 75.7588 54.0412 75.1809C53.5949 74.1928 53.2523 73.2318 52.6777 72.3125" stroke="#645841" stroke-linecap="round"/>
<path d="M12.1924 65.4776C14.5391 65.4776 17.0449 65.2703 19.366 65.6417C19.8979 65.7268 20.2791 66.1979 20.7121 66.4789C21.3472 66.891 21.9367 67.3107 22.5507 67.7511C23.3166 68.3006 24.1399 68.374 24.4549 69.3188" stroke="#645841" stroke-linecap="round"/>
<path d="M24.8975 69.7618C25.0293 69.1025 26.9574 68.2865 27.5322 68.0709C28.4013 67.745 29.0446 66.9281 29.9535 66.61C31.1127 66.2042 32.4751 65.6539 33.7045 65.5594C35.125 65.4501 36.6162 65.625 38.0464 65.625" stroke="#645841" stroke-linecap="round"/>
<path d="M40.1158 65.9199C38.6821 66.3637 37.194 67.0885 36.0283 68.0211C34.9742 68.8644 33.4878 69.3512 32.1378 69.4739C30.9618 69.5808 29.9175 70.3495 28.7151 70.4096C26.7551 70.5076 24.7921 70.4999 22.8301 70.4999" stroke="#645841" stroke-linecap="round"/>
<path d="M12.7832 66.3633C14.0189 66.6837 15.2036 67.6291 16.3536 68.1936C17.0219 68.5217 17.6319 68.9602 18.2989 69.2853C19.9313 70.0809 21.7452 70.1511 23.4205 70.7955" stroke="#645841" stroke-linecap="round"/>
<path d="M12.9307 65.6242C14.363 65.0226 15.9031 64.6409 17.2808 63.9334C19.2768 62.9084 21.123 62.3655 23.3546 61.9471C24.3301 61.7642 25.3741 61.3131 26.3423 61.2084C28.6569 60.9582 31.2304 61.877 33.4667 62.3739" stroke="#645841" stroke-linecap="round"/>
<path d="M34.2061 63.1133C35.5071 63.6169 36.7006 64.0892 38.0801 64.3773C38.7141 64.5097 39.044 64.9174 39.5247 65.3294" stroke="#645841" stroke-linecap="round"/>
<path d="M25.4893 63.4085C25.6548 62.4703 28.4208 62.6484 29.1335 62.6698C29.6197 62.6843 30.1834 63.1701 30.6602 63.4085" stroke="#645841" stroke-linecap="round"/>
<path d="M15.1467 69.0234C15.1467 70.3774 15.3261 71.8591 14.605 73.0781C14.1879 73.7832 13.6322 74.3973 13.2097 75.0808C12.845 75.6707 12.9306 76.6302 12.9306 77.2969" stroke="#645841" stroke-linecap="round"/>
<path d="M14.1123 77.8872C16.1762 76.9866 18.532 76.7053 20.7606 76.7053C22.3195 76.7053 23.5797 76.4962 25.0533 76.0323C26.7261 75.5057 28.421 75.6711 30.1668 75.6711C32.9411 75.6711 35.7153 75.6711 38.4896 75.6711" stroke="#645841" stroke-linecap="round"/>
<path d="M41.5925 75.9668C41.5925 77.8266 37.1121 77.4442 35.9455 77.4442C34.7605 77.4442 33.6411 77.7162 32.4654 77.7397C31.5504 77.758 30.1968 77.471 29.33 77.7725C27.3684 78.4548 25.6774 78.7739 23.5845 78.7739C21.5237 78.7739 19.5568 78.7057 17.5107 78.4784" stroke="#645841" stroke-linecap="round"/>
<path d="M42.4789 75.9664C42.4789 75.172 42.5438 74.3266 42.3229 73.5533C42.1392 72.9103 41.9736 72.3761 42.0438 71.6737C42.0791 71.3213 42.2759 71.0787 42.4706 70.7955C42.7996 70.3171 42.8969 69.775 43.037 69.2196C43.3065 68.151 43.8085 67.468 43.8085 66.3633" stroke="#645841" stroke-linecap="round"/>
<path d="M34.0576 74.0463C34.0576 72.7527 34.7693 72.2563 36.0111 71.8958C36.8335 71.657 37.7858 71.6824 38.6376 71.6824" stroke="#645841" stroke-linecap="round"/>
<path d="M42.9236 66.8058C42.6013 66.6362 42.32 66.4412 42.0371 66.2148" stroke="#645841" stroke-linecap="round"/>
<path d="M7.46484 61.6367C10.5746 61.6367 13.6754 61.7845 16.7725 61.7845" stroke="#645841" stroke-linecap="round"/>
<path d="M25.6367 61.7832C27.5627 61.7832 29.3586 61.7813 31.2509 62.2018C32.4375 62.4655 33.8821 62.2264 35.0921 62.2264C36.1427 62.2264 37.1933 62.2264 38.2439 62.2264C39.3125 62.2264 40.4278 62.1372 41.486 62.3249C42.5722 62.5176 43.5903 62.873 44.6953 62.9651" stroke="#645841" stroke-linecap="round"/>
<path d="M47.9453 57.9414C48.1442 59.2344 49.1109 60.2475 49.275 61.5364C49.3521 62.1426 49.704 62.6793 49.8331 63.2765C49.9199 63.6781 49.8421 64.0721 49.9644 64.4748C50.3239 65.6582 50.8303 67.0832 50.9001 68.3161C50.9355 68.9408 50.7003 69.6847 51.1956 70.0562" stroke="#645841" stroke-linecap="round"/>
<path d="M48.0938 56.9083C47.426 56.4227 48.5495 56.6129 48.89 56.6129C49.6588 56.6129 50.4276 56.6129 51.1964 56.6129" stroke="#645841" stroke-linecap="round"/>
<path d="M52.3779 56.6133C52.5091 57.6626 52.6288 58.8062 52.9525 59.8143C53.1802 60.5235 53.3034 61.4171 53.6255 62.0797C53.9701 62.7885 54.4128 63.1345 54.4463 63.9839C54.4601 64.3333 54.4279 64.6853 54.4463 65.0345C54.5036 66.1226 55.017 67.1892 55.0373 68.2848C55.0591 69.4659 55.0373 70.6493 55.0373 71.8306" stroke="#645841" stroke-linecap="round"/>
<path d="M45.1393 57.4981C43.4649 57.4981 41.7905 57.4981 40.1161 57.4981C38.7794 57.4981 37.9827 56.7891 36.8002 56.3161C33.8351 55.1301 30.4474 55.5774 27.2545 55.5774C25.7733 55.5774 24.3081 55.4297 22.8305 55.4297C21.7191 55.4297 20.9856 56.6478 19.8592 56.7922C19.1101 56.8882 18.3024 57.2026 17.561 57.2026C16.3353 57.2026 15.1096 57.2026 13.8839 57.2026C12.4833 57.2026 11.1313 56.7594 9.71435 56.7594C8.81558 56.7594 8.02926 56.9382 7.16992 57.2026" stroke="#645841" stroke-linecap="round"/>
<path d="M42.4795 65.3299C42.8566 65.6652 43.8916 65.4777 44.3509 65.4777C44.9884 65.4777 45.6258 65.4777 46.2633 65.4777C47.307 65.4777 48.2329 64.991 49.2756 64.8867" stroke="#645841" stroke-linecap="round"/>
<path d="M8.35156 66.9531H9.82897" stroke="#645841" stroke-linecap="round"/>
<path d="M14.7036 70.7965C13.9699 70.7965 13.2042 70.7619 12.5039 71.0181C12.1527 71.1466 12.0161 71.2397 11.6339 71.2397C10.6808 71.2397 9.701 71.1859 8.79395 71.3875" stroke="#645841" stroke-linecap="round"/>
<path d="M7.16895 60.0098C7.16895 63.665 7.16895 67.3202 7.16895 70.9754C7.16895 72.3347 7.04762 74.2794 6.13477 75.3748" stroke="#645841" stroke-linecap="round"/>
<path d="M81.8516 81.1113C83.0227 82.5528 84.3454 83.6033 85.8905 84.6358C86.9715 85.3581 89.3236 86.229 89.9295 87.4914C91.027 89.7779 93.5048 90.7627 95.3577 92.3536C97.7037 94.3679 99.4893 96.4547 101.249 99.0423C101.962 100.091 103.194 100.429 103.847 101.473C104.482 102.489 105.12 103.47 105.7 104.522C106.758 106.443 109.455 106.855 111.025 108.201" stroke="#645841" stroke-linecap="round"/>
<path d="M111.486 108.895C110.468 108.831 110.958 103.968 111.139 102.991C111.465 101.229 112.453 99.867 113.338 98.2441" stroke="#645841" stroke-linecap="round"/>
<path d="M112.645 90.3711C112.708 93.3451 112.876 96.2889 112.876 99.2723C112.876 100.713 112.951 102.181 112.863 103.62C112.793 104.785 112.413 105.855 112.413 107.054C112.413 110.15 112.27 113.289 112.439 116.38C112.515 117.774 112.972 119.008 112.825 120.419C112.725 121.381 112.246 122.131 111.95 123.017" stroke="#645841" stroke-linecap="round"/>
<path d="M112.876 89.4455C114.866 89.4455 116.719 88.9824 118.664 88.9824" stroke="#645841" stroke-linecap="round"/>
<path d="M119.358 90.1406C118.913 92.0111 118.664 93.8274 118.664 95.7489C118.664 96.6622 118.623 97.5915 118.715 98.5016C118.827 99.5998 119.418 100.554 119.551 101.64C119.904 104.523 119.59 107.598 119.59 110.516C119.59 114.088 117.539 117.239 117.249 120.793C117.097 122.657 116.812 124.361 116.812 126.26" stroke="#645841" stroke-linecap="round"/>
<path d="M111.95 125.797H114.266" stroke="#645841" stroke-linecap="round"/>
<path d="M122.369 109.82C119.745 109.82 127.617 109.82 130.241 109.82C132.577 109.82 135.262 109.029 137.419 108.199" stroke="#645841" stroke-linecap="round"/>
<path d="M121.906 102.875C125.338 102.531 129.097 103.254 132.454 102.54C133.671 102.282 134.895 101.74 136.03 101.254" stroke="#645841" stroke-linecap="round"/>
<path d="M127.462 95.0014C129.65 94.9737 131.819 94.7699 134.009 94.7699C136.074 94.7699 138.123 95.0181 140.068 94.2554C142.472 93.3125 145.116 92.9464 147.592 92.1844C151.671 90.9296 155.779 89.8972 159.877 88.75" stroke="#645841" stroke-linecap="round"/>
<path d="M123.759 90.3714C125.153 90.3714 126.547 90.4291 127.926 90.1914C130.097 89.817 131.49 87.981 133.535 87.413C136.117 86.6957 137.27 84.3516 140.069 84.3516C146.618 84.3516 153.071 85.0462 159.646 85.0462" stroke="#645841" stroke-linecap="round"/>
<path d="M120.979 65.8281C121.187 67.236 123.035 67.8914 124.182 68.465C125.51 69.129 126.611 70.1442 127.925 70.819C132.067 72.9442 136.34 74.2382 140.776 75.5525C141.798 75.8555 142.691 76.6077 143.618 77.1218C145.722 78.2886 147.809 79.2142 150.037 80.1318C151.968 80.927 153.225 80.7084 154.783 82.267" stroke="#645841" stroke-linecap="round"/>
<path d="M118.32 65.7836C118.354 65.0171 118.5 64.1287 118.738 63.3989C118.959 62.7247 118.998 62.2264 118.998 61.512C118.998 60.3926 118.3 59.4393 118.24 58.345C118.178 57.1975 118.08 56.0788 117.943 54.9395" stroke="#645841" stroke-linecap="round"/>
<path d="M116.212 54.9395H117.944" stroke="#645841" stroke-linecap="round"/>
<path d="M115.308 54.9395C115.308 55.4804 115.302 56.0218 115.308 56.5627C115.314 57.0582 115.61 57.4551 115.61 57.9475C115.61 58.4259 115.61 58.9042 115.61 59.3825" stroke="#645841" stroke-linecap="round"/>
<path d="M115.761 62.3184V65.0294" stroke="#645841" stroke-linecap="round"/>
<path d="M79.1621 55.7672C79.3945 55.6863 79.6298 55.6987 79.8733 55.6919C80.3729 55.6778 80.8481 55.5943 81.3376 55.4994C81.8732 55.3955 82.385 55.3906 82.9274 55.3906" stroke="#645841" stroke-linecap="round"/>
<path d="M83.9809 55.7676C83.9809 58.0141 83.8783 60.2966 83.9851 62.541C84.0297 63.4766 84.0563 64.4042 84.0563 65.344C84.0563 66.4757 84.5081 67.5067 84.5081 68.6449" stroke="#645841" stroke-linecap="round"/>
<path d="M79.5382 56.2949C79.5382 58.4674 79.5107 60.6937 79.7307 62.8549C79.8455 63.9833 79.9818 65.0978 80.1197 66.2228C80.2416 67.2163 80.5775 68.1815 80.6594 69.1848C80.715 69.8655 80.6366 70.51 80.8184 71.1805C80.9992 71.847 80.9489 72.4953 80.9732 73.1761C81.0016 73.972 81.0443 74.7589 81.0443 75.5566C81.0443 76.2057 81.2665 76.748 81.3456 77.3807" stroke="#645841" stroke-linecap="round"/>
<path d="M80.8936 83.7051C80.8936 84.9568 81.0442 86.167 81.0442 87.4202C81.0442 88.4912 81.0442 89.5622 81.0442 90.6333" stroke="#645841" stroke-linecap="round"/>
<path d="M81.3457 90.8594C82.9149 90.9756 84.4546 91.444 86.0147 91.6877" stroke="#645841" stroke-linecap="round"/>
<path d="M85.5622 91.3878C85.5622 90.0016 85.5622 88.6154 85.5622 87.2292C85.5622 86.5698 85.5249 86.0749 85.3028 85.4679C85.2121 85.2201 85.1104 84.9523 85.1104 84.6855" stroke="#645841" stroke-linecap="round"/>
<path d="M85.4707 63.4075C88.2298 63.3909 90.9849 63.2598 93.7442 63.2598" stroke="#645841" stroke-linecap="round"/>
<path d="M83.8467 59.123H97.7343" stroke="#645841" stroke-linecap="round"/>
<path d="M86.0625 55.8738C87.2345 55.8738 88.369 55.5783 89.5508 55.5783C90.4438 55.5783 91.2839 55.5133 92.1527 55.4305C92.8433 55.3648 93.4802 54.7373 94.1965 54.618C95.9471 54.3262 97.4824 54.4602 99.2196 54.6918C100.694 54.8884 102.025 55.1351 103.512 55.1351C104.717 55.1351 105.611 55.249 106.779 55.5537C107.945 55.8579 109.461 55.5783 110.653 55.5783C111.961 55.5783 113.269 55.5783 114.576 55.5783" stroke="#645841" stroke-linecap="round"/>
<path d="M101.829 71.0556C102.944 70.6327 104.172 70.6791 105.343 70.6791C106.845 70.6791 108.351 70.7322 109.845 70.5661C111.501 70.3822 113.072 70.4188 114.702 69.972C115.43 69.7725 116.169 69.6046 116.89 69.3821C117.33 69.2466 117.711 69.0977 118.171 69.0977" stroke="#645841" stroke-linecap="round"/>
<path d="M121.183 68.7949C121.378 68.9897 121.529 69.3736 121.397 69.6609C121.334 69.7962 121.117 69.8511 120.999 69.9078C120.637 70.0811 120.304 70.2963 119.983 70.5353C119.632 70.7962 119.253 70.9844 118.853 71.1545C118.242 71.4145 117.728 71.8132 117.075 71.9829C116.778 72.0602 116.595 72.0577 116.389 72.2925C116.071 72.6542 115.711 72.8478 115.284 73.0706C114.733 73.3585 114.16 73.3255 113.577 73.4974C113.155 73.6221 112.781 73.6145 112.335 73.6145C111.427 73.6145 110.519 73.6145 109.611 73.6145C108.112 73.6145 106.613 73.6145 105.114 73.6145C104.588 73.6145 104.028 73.6623 103.503 73.6145C102.837 73.554 102.419 72.8531 102.131 72.3343" stroke="#645841" stroke-linecap="round"/>
<path d="M101.452 71.2046C101.319 71.1898 101.189 71.066 101.084 70.9954C100.643 70.6976 100.221 70.3719 99.7789 70.075C98.8854 69.475 98.2063 68.8128 97.4444 68.0668C96.669 67.3076 95.4355 66.995 94.6748 66.2344" stroke="#645841" stroke-linecap="round"/>
<path d="M94.1484 65.707C93.7376 65.9125 94.3171 67.6525 94.4162 67.9662C94.5719 68.4593 94.8078 69.1088 95.2487 69.4347C95.6223 69.7108 96.0633 69.8571 96.4411 70.125C97.113 70.6014 97.7439 70.9033 98.5413 71.1207C98.6932 71.1621 98.929 71.2713 99.0182 71.4052C99.5493 72.2018 100.209 72.4441 101.077 72.7858" stroke="#645841" stroke-linecap="round"/>
<path d="M94.8246 65.6333C94.6921 65.6333 94.4982 65.6826 94.4314 65.5329C94.2756 65.184 94.258 64.4463 94.4523 64.1062C94.721 63.6359 95.361 63.7506 95.8036 63.7506" stroke="#645841" stroke-linecap="round"/>
<path d="M101.603 70.9793C101.603 70.7602 101.589 70.5368 101.603 70.3183C101.635 69.8071 102.363 69.2289 102.682 68.8958C103.11 68.4486 103.57 68.3615 104.063 68.0423C104.487 67.7681 104.858 67.4131 105.293 67.1387" stroke="#645841" stroke-linecap="round"/>
<path d="M113.652 63.8242C114.726 63.9642 115.592 65.0347 116.497 65.5521C116.662 65.6461 116.7 65.7972 116.874 65.8742C117.214 66.0253 117.511 66.3492 117.853 66.5269C118.164 66.6887 118.478 66.8583 118.782 67.0331C119.222 67.2866 119.725 67.415 120.154 67.6816C120.69 68.0145 121.108 68.5216 121.108 69.171" stroke="#645841" stroke-linecap="round"/>
<path d="M109.283 64.1256C109.79 63.9333 110.221 63.5844 110.773 63.5231C111.594 63.4318 112.319 62.7796 113.015 62.3851C113.412 62.1602 113.785 62.0618 114.111 61.7409C114.569 61.2903 115.06 60.8696 115.534 60.4355" stroke="#645841" stroke-linecap="round"/>
<path d="M95.2021 63.222C95.2512 62.9438 95.8117 62.6594 96.018 62.4857C96.3616 62.1963 96.7654 61.9359 97.135 61.6783C97.7566 61.245 98.3768 60.7708 99.047 60.4357C99.3345 60.2919 99.6513 60.1988 99.9213 60.0257C100.319 59.7707 100.611 59.5557 101.093 59.532C102.151 59.48 103.158 58.6827 104.105 58.2769C104.774 57.9902 105.595 58.1012 106.31 58.1012C106.866 58.1012 107.339 58.0708 107.854 58.2811C108.219 58.4307 108.577 58.5276 108.966 58.5991C109.854 58.762 110.739 58.9779 111.577 59.2726C112.014 59.4264 112.475 59.4676 112.916 59.6241C113.129 59.6996 113.355 59.6826 113.577 59.6826" stroke="#645841" stroke-linecap="round"/>
<path d="M116.363 60.8887C115.753 61.2809 115.496 61.8965 115.007 62.3948C114.531 62.8812 114.195 63.3784 113.618 63.7754C113.309 63.9886 112.996 64.0083 112.69 64.177C112.353 64.3624 112.201 64.4746 111.794 64.5201C110.695 64.6434 109.737 65.1058 108.606 65.1058" stroke="#645841" stroke-linecap="round"/>
<path d="M108.38 64.0507C105.622 64.0507 102.897 64.0459 100.147 63.9084C99.5561 63.8789 99.0635 63.7997 98.4857 63.6741C97.7939 63.5237 97.0362 63.5988 96.3311 63.5988" stroke="#645841" stroke-linecap="round"/>
<path d="M96.9346 64.5781C97.5829 64.5781 98.2278 64.6345 98.8758 64.6492C99.6016 64.6657 100.439 64.5269 101.143 64.7329C103.067 65.2958 105.034 65.1053 107.026 65.1053" stroke="#645841" stroke-linecap="round"/>
<path d="M100.698 62.1686C101.086 61.4575 101.963 60.8625 102.673 60.4951C103.609 60.0112 104.798 60.2106 105.819 60.2106" stroke="#645841" stroke-linecap="round"/>
<path d="M109.585 67.741C109.717 67.1032 110.749 66.828 111.275 66.6281C112.041 66.3372 112.732 66.4228 113.543 66.5151C114.613 66.637 115.576 66.8669 116.588 67.2138" stroke="#645841" stroke-linecap="round"/>
<path d="M73.2841 14.8926C72.9559 18.7225 72.4762 21.8773 73.1812 25.6846C73.88 29.4582 75.1634 33.1053 75.831 36.8883" stroke="#645841" stroke-linecap="round"/>
<path d="M79.5358 19.9844C78.6385 22.3499 78.4836 24.9549 79.0084 27.4192C79.8814 31.5185 80.7278 35.4846 81.1565 39.6647" stroke="#645841" stroke-linecap="round"/>
<path d="M54.5303 59.5774C58.2913 59.5774 62.1799 59.8986 65.9269 59.5774C68.8626 59.3258 71.6963 58.8828 74.6737 58.8828" stroke="#645841" stroke-linecap="round"/>
<path d="M64.0225 82.9629C66.0316 84.4697 70.102 84.0971 72.4091 84.1206C75.8642 84.1557 79.3213 84.1206 82.7767 84.1206" stroke="#645841" stroke-linecap="round"/>
<path d="M70.5625 81.8778C74.0364 80.5601 77.884 80.8075 81.5327 80.8075" stroke="#645841" stroke-linecap="round"/>
</svg>
