<svg width="226" height="168" viewBox="0 0 226 168" fill="none" xmlns="http://www.w3.org/2000/svg">
<path d="M84.2249 103.832C84.1847 104.494 83.2836 104.773 83.0502 105.356C82.794 105.997 82.6514 106.634 82.6514 107.317C82.6514 107.889 83.1429 108.17 83.5365 108.552C84.0346 109.037 84.6763 109.026 85.3122 109.153C86.7094 109.433 88.1765 109.219 89.5684 109.59C90.5033 109.84 91.6248 109.536 92.5844 109.536C93.5278 109.536 94.4711 109.536 95.4145 109.536C96.0131 109.536 96.5915 109.463 97.1848 109.437C97.4579 109.426 97.7607 109.374 98.0153 109.273C98.1916 109.203 98.3892 109.128 98.5562 109.039C98.7524 108.933 98.6305 108.781 98.7529 108.672C99.0687 108.392 99.8997 108.421 100.299 108.345C100.655 108.277 100.974 108.097 101.359 108.061C101.668 108.031 101.601 107.774 101.818 107.689C102.028 107.606 102.157 107.559 102.277 107.35C102.444 107.058 102.38 106.7 102.43 106.378C102.471 106.108 102.819 105.423 102.556 105.159C102.206 104.81 102.061 104.352 101.632 104.006C100.841 103.369 100.406 102.5 99.3593 102.209C98.8596 102.07 98.3104 101.99 97.8404 101.766C97.4211 101.567 96.8008 101.668 96.3434 101.668C95.0946 101.668 93.7313 101.535 92.4915 101.717C91.9126 101.802 91.681 102.229 91.0764 102.165C90.8611 102.143 90.8647 102.203 90.754 102.351C90.6176 102.533 90.3317 102.415 90.1475 102.52C89.7864 102.727 89.393 102.717 89.0657 102.979C88.7645 103.22 88.4375 103.36 88.1588 103.673C87.9742 103.881 87.6684 104.288 87.4157 104.373C87.0243 104.503 86.3152 104.569 86.17 104.946C85.9448 105.532 85.7895 106.412 86.4377 106.82C86.6911 106.98 86.931 107.077 87.2299 107.077C87.6499 107.077 87.9846 107.282 88.3882 107.356C89.0221 107.471 89.2436 107.794 89.9399 107.689C90.8347 107.554 91.6064 108.159 92.4915 108.159C93.433 108.159 94.3746 108.159 95.3162 108.159C95.8152 108.159 96.3142 108.159 96.8133 108.159C97.0206 108.159 97.4056 108.236 97.5782 108.093C97.8248 107.889 97.8979 107.864 98.2338 107.864C98.5917 107.864 99.0397 107.698 99.2719 107.416C99.4164 107.24 99.4181 107.129 99.4795 106.93C99.5369 106.743 99.7455 106.736 99.7636 106.542C99.7833 106.331 99.9501 106.232 99.9603 106.017C99.9688 105.84 99.9603 105.66 99.9603 105.482C99.9603 104.999 99.9016 104.767 99.6161 104.367C99.1687 103.741 98.4206 103.403 97.6492 103.345C97.0777 103.303 96.6744 103.045 96.0702 103.045C94.8876 103.045 93.6469 103.005 92.5024 103.291C91.7061 103.49 90.835 104.212 90.8141 105.132C90.8003 105.741 90.8408 105.823 91.4261 106.061C91.9668 106.281 92.5997 106.425 93.1417 106.58C94.2109 106.885 95.1442 106.979 96.245 106.979C97.0032 106.979 97.6788 107.007 98.0262 106.186C98.4659 105.147 97.1491 104.618 96.3434 104.618C96.0265 104.618 95.7096 104.618 95.3927 104.618C94.9956 104.618 94.8509 104.745 94.513 104.821C94.237 104.882 94.1541 105.278 94.371 105.454C94.7393 105.754 95.1924 105.7 95.6331 105.7" stroke="#645841" stroke-linecap="round"/>
<path d="M87.3732 119.369C87.5078 119.01 90.6125 119.271 91.0666 119.271C92.254 119.271 93.0212 120.218 94.0389 120.67C94.4777 120.865 94.8137 121.301 95.2409 121.539C95.8321 121.867 96.115 122.587 96.3773 123.161C96.6332 123.721 96.7501 125.6 96.1806 126.035C95.7516 126.363 95.4195 126.783 95.2299 127.281C95.1558 127.476 94.9483 127.884 94.7983 128.024C94.5266 128.278 94.6049 128.302 94.2356 128.439C93.8727 128.574 93.6552 129.217 93.3286 129.45C92.9671 129.708 92.3728 130.041 91.919 130.089C91.6704 130.116 91.5892 130.415 91.3507 130.504C91.2438 130.545 90.9043 130.83 90.8153 130.925C90.6733 131.077 90.4164 131.269 90.2307 131.362C90.0251 131.465 89.9252 131.659 89.7881 131.739C89.6368 131.828 89.333 131.748 89.1653 131.761C89.0499 131.77 89.0763 131.839 89.0232 131.914C88.9283 132.048 88.5992 132.03 88.4604 132.067C88.3017 132.109 87.8364 132.338 87.772 132.499C87.6729 132.747 87.3115 132.646 87.0781 132.646" stroke="#645841" stroke-linecap="round"/>
<path d="M87.8633 121.533C88.1103 121.338 88.9024 121.37 89.2183 121.457C89.4822 121.53 89.6412 121.744 89.9012 121.828C90.418 121.996 90.9125 122.102 91.4365 122.227C91.9382 122.348 92.354 122.757 92.6604 123.151C93.076 123.685 93.0756 124.03 93.0756 124.68C93.0756 125.186 92.7332 126.036 92.338 126.352C92.2544 126.419 92.2056 126.517 92.125 126.582C91.991 126.689 91.7919 126.596 91.666 126.713C91.4515 126.912 91.5431 127.026 91.2071 127.194C90.5644 127.515 89.8712 128.418 89.1418 128.418" stroke="#645841" stroke-linecap="round"/>
<path d="M88.0615 123.992C88.1306 123.578 88.9994 123.441 89.34 123.62C89.7353 123.828 89.7396 124.33 90.0285 124.533C90.3982 124.791 89.966 125.639 89.7443 125.86C89.4033 126.201 88.9482 126.565 88.4549 126.647" stroke="#645841" stroke-linecap="round"/>
<path d="M86.291 130.286C86.5165 129.885 87.5504 129.991 87.9629 129.991" stroke="#645841" stroke-linecap="round"/>
<path d="M79.1104 114.355C79.9264 114.307 80.761 113.953 81.5745 113.83C82.0709 113.756 82.7795 113.895 83.2354 113.667C84.0197 113.274 84.9541 113.186 85.563 113.923C85.7595 114.161 86.2757 114.519 86.2896 114.825C86.3211 115.518 86.8253 115.985 86.8797 116.639C86.9183 117.102 86.9524 117.562 86.9999 118.027C87.0666 118.679 86.9616 119.464 87.1966 120.081C87.5115 120.908 87.3715 121.925 87.3715 122.802C87.3715 123.295 87.3996 123.748 87.4643 124.233C87.5149 124.612 87.3688 125.055 87.4807 125.419C87.6918 126.105 87.8873 126.83 88.1145 127.512C88.3057 128.085 88.0252 128.974 88.4533 129.402" stroke="#645841" stroke-linecap="round"/>
<path d="M74.9803 118.289C74.9803 119.015 74.922 119.762 74.9803 120.485C75.0188 120.963 76.7462 120.805 77.1548 120.725C78.5156 120.46 79.8865 120.13 81.2362 119.873C82.2244 119.685 83.1803 119.374 84.1593 119.152C84.3716 119.104 84.9968 119.168 85.1428 119.01C85.4154 118.715 85.1519 117.688 85.0116 117.365C84.8514 116.997 84.9684 116.352 84.6346 116.092C84.2414 115.786 83.6319 115.966 83.1868 116.038C82.8847 116.086 82.7989 116.341 82.542 116.453C82.2785 116.568 81.9053 116.59 81.6187 116.611C81.1666 116.645 80.7392 116.817 80.2801 116.89C79.5607 117.004 79.4313 117.446 78.8158 117.731C78.4223 117.914 77.8916 118.109 77.4827 118.207C76.8286 118.364 76.2036 118.636 75.5212 118.764C75.1464 118.834 74.9141 118.814 74.5869 118.977" stroke="#645841" stroke-linecap="round"/>
<path d="M74.9806 118.387C74.9439 118.068 74.7035 117.798 74.6091 117.48C74.3924 116.748 75.7539 116.697 76.2264 116.584C77.3105 116.324 78.1879 115.827 79.3188 115.709C80.429 115.594 81.5458 115.535 82.6626 115.535C82.8309 115.535 83.023 115.56 83.1871 115.513C83.3597 115.463 83.4311 115.283 83.6024 115.251C84.3502 115.108 84.7396 115.943 85.1103 116.42" stroke="#645841" stroke-linecap="round"/>
<path d="M77.1436 154.8C77.9712 154.8 79.3692 155.084 80.1531 154.745C80.6093 154.548 81.0081 154.589 81.4937 154.526C81.9426 154.469 82.361 154.224 82.8069 154.123C83.6604 153.929 84.9335 153.272 85.3923 152.584" stroke="#645841" stroke-linecap="round"/>
<path d="M84.7773 121.066C84.9752 121.771 85.3277 122.608 85.3861 123.337C85.4609 124.272 85.8479 125.023 85.7691 125.929C85.6778 126.98 85.7623 128.069 85.7623 129.124C85.7623 129.742 85.7623 130.359 85.7623 130.977C85.7623 131.563 85.5973 132.381 85.8854 132.899C86.4664 133.945 86.3779 135.796 86.3779 136.948C86.3779 137.691 86.0187 138.422 86.0085 139.206C86.0045 139.512 86.209 140.146 86.0564 140.396C85.8968 140.657 85.8854 140.807 85.8854 141.107C85.8854 142.183 85.8854 143.259 85.8854 144.335C85.8854 145.603 86.1316 146.721 86.1316 148.001C86.1316 148.259 86.1316 148.517 86.1316 148.774C86.1316 149.241 86.5706 149.392 86.6241 149.78C86.6966 150.306 86.8703 150.683 86.8703 151.23" stroke="#645841" stroke-linecap="round"/>
<path d="M75.2969 122.666C75.2969 123.982 75.6662 125.167 75.6662 126.483C75.6662 126.956 75.5858 127.513 75.7278 127.967C75.8741 128.435 75.6943 128.759 76.0971 129.13C76.4667 129.47 76.2818 129.516 76.2818 129.937C76.2818 131.42 76.0781 133.093 76.2955 134.56C76.531 136.15 76.2818 138.051 76.2818 139.711C76.2818 140.698 76.5451 142.115 76.0903 142.939C75.8443 143.385 76.0356 144.468 76.0356 144.977C76.0356 145.616 76.0356 146.254 76.0356 146.893C76.0356 147.134 75.9167 147.767 76.0903 147.973C76.461 148.413 76.4049 148.973 76.4049 149.533C76.4049 150.09 76.6512 150.472 76.6512 151.01C76.6512 152.173 76.8974 153.152 76.8974 154.307" stroke="#645841" stroke-linecap="round"/>
<path d="M127.574 108.869C127.574 109.273 127.523 109.67 127.523 110.072" stroke="#645841" stroke-linecap="round"/>
<path d="M127.373 108.87C127.95 108.87 128.528 108.87 129.105 108.87C129.333 108.87 129.75 108.927 129.985 108.836C130.031 108.819 130.038 108.75 130.083 108.728C130.223 108.658 130.476 108.645 130.623 108.619C131.048 108.544 131.443 108.424 131.86 108.321C132.541 108.154 133.23 108.03 133.918 107.892C134.562 107.763 135.241 107.92 135.87 107.717C136.06 107.655 136.449 107.616 136.594 107.486C136.785 107.314 136.912 107.374 137.092 107.569C137.397 107.899 137.196 108.639 136.764 108.739C136.387 108.826 136.044 108.943 135.655 108.97C135.534 108.979 135.454 109.067 135.316 109.07C134.993 109.077 134.679 109.059 134.363 109.143C133.914 109.263 133.513 109.271 133.049 109.271C132.751 109.271 132.482 109.366 132.185 109.371C131.856 109.377 131.369 109.347 131.06 109.455C130.849 109.528 130.717 109.563 130.492 109.572C130.32 109.579 130.276 109.706 130.119 109.733C129.564 109.83 129.031 109.923 128.465 109.923C128.14 109.923 127.862 110.073 127.523 110.073" stroke="#645841" stroke-linecap="round"/>
<path d="M124.866 107.014C125.158 107.072 125.353 107.445 125.562 107.632C125.75 107.8 125.91 107.935 126.069 108.133C126.197 108.291 126.465 108.33 126.626 108.451C126.83 108.604 127.053 108.708 127.272 108.818" stroke="#645841" stroke-linecap="round"/>
<path d="M124.817 108.518C125.144 108.712 125.473 108.942 125.837 109.061C126.068 109.136 126.146 109.239 126.349 109.345C126.677 109.515 127.179 109.596 127.374 109.921" stroke="#645841" stroke-linecap="round"/>
<path d="M132.035 104.256C132.82 104.756 133.642 105.269 134.213 106.022C134.384 106.247 134.646 106.387 134.815 106.623C134.965 106.834 135.231 106.978 135.444 107.113" stroke="#645841" stroke-linecap="round"/>
<path d="M137.798 110.404C137.798 115.36 137.026 120.1 137.026 125.068C137.026 127.564 137.026 130.002 137.026 132.55C137.026 134.344 136.618 136.793 137.412 138.381" stroke="#645841" stroke-linecap="round"/>
<path d="M130.079 141.469C132.57 141.016 134.817 139.926 137.411 139.926" stroke="#645841" stroke-linecap="round"/>
<path d="M128.728 111.178C128.728 109.084 129.113 115.354 129.113 117.449C129.113 119.759 128.92 122.103 128.92 124.448C128.92 129.954 128.728 135.374 128.728 140.891" stroke="#645841" stroke-linecap="round"/>
<path d="M125.256 110.404C125.256 112.734 125.256 115.064 125.256 117.393C125.256 118.724 125.641 119.786 125.641 121.113C125.641 122.431 125.448 123.649 125.448 124.961C125.448 125.479 125.448 125.997 125.448 126.515C125.448 127.21 125.171 127.617 125.073 128.251C124.827 129.853 125.063 131.655 125.063 133.279C125.063 134.067 125.877 134.191 125.448 135.004C125.084 135.697 125.256 136.642 125.256 137.406C125.256 137.868 125.088 138.707 125.341 139.11C125.716 139.705 126.527 140.038 126.992 140.503" stroke="#645841" stroke-linecap="round"/>
<path d="M75.0674 150.498C75.0867 150.827 75.3816 151.005 75.3816 151.345C75.3816 151.571 75.5481 151.602 75.6042 151.799C75.6506 151.961 75.5517 152.185 75.6697 152.322C76.3275 153.085 76.7281 154.044 77.4242 154.74" stroke="#645841" stroke-linecap="round"/>
<path d="M74.804 137.441C74.804 138.59 74.804 139.74 74.804 140.889C74.804 141.374 74.7536 141.892 74.8177 142.373C74.9102 143.067 75.1734 143.68 75.1734 144.397C75.1734 146.446 75.0502 148.45 75.0502 150.492" stroke="#645841" stroke-linecap="round"/>
<path d="M86.9304 151.598C86.7019 151.92 86.1869 152.383 85.752 152.383" stroke="#645841" stroke-linecap="round"/>
<path d="M137.964 121.805C137.964 121.84 139.467 120.991 139.687 120.874C140.32 120.541 141.071 120.039 141.657 119.616C142.007 119.363 142.061 119.148 142.471 118.966C143.192 118.646 143.77 118.423 144.544 118.33C144.991 118.276 145.506 118.03 145.85 117.728C146.303 117.331 146.595 117.123 147.143 116.839C147.718 116.54 148.179 116.148 148.784 115.888C149.042 115.778 149.154 115.392 149.468 115.307C150.383 115.06 151.942 115.714 152.738 115.197C153.079 114.976 153.322 114.869 153.73 114.787C154.161 114.701 154.381 114.332 154.776 114.144C155.105 113.987 155.21 113.849 155.398 113.556C155.556 113.31 155.85 113.339 156.089 113.227C156.322 113.119 156.48 112.758 156.705 112.708C157.462 112.539 158.099 112.456 158.716 111.962C159.028 111.712 159.504 111.732 159.879 111.709C160.324 111.682 160.474 111.08 160.884 110.998C161.261 110.922 161.838 111.093 162.245 111.093C162.68 111.093 163.146 111.046 163.579 111.1C163.93 111.144 164.619 111.333 164.899 111.518C165.301 111.783 165.566 111.614 165.973 111.771C166.326 111.906 166.661 112.189 167.047 112.201C167.561 112.219 168.037 112.129 168.545 112.085C169.482 112.004 170.455 112.078 171.397 112.078C172.446 112.078 173.494 112.078 174.543 112.078C175.115 112.078 175.505 111.606 176.103 111.586C176.539 111.571 176.902 111.34 177.361 111.34" stroke="#645841" stroke-linecap="round"/>
<path d="M178.222 97.9199C177.349 97.9199 176.744 98.033 175.91 98.2414C175.568 98.3271 175.465 98.7817 175.192 98.7817C174.684 98.7817 174.14 98.9012 173.722 99.1921C172.996 99.6958 172.256 99.6435 171.396 99.6435C170.204 99.6435 169.011 99.6435 167.819 99.6435C167.513 99.6435 167.199 99.6227 166.895 99.6504C166.372 99.698 165.958 99.9918 165.445 100.013C164.657 100.045 163.931 100.307 163.188 100.389C162.95 100.416 162.227 100.417 162.101 100.628C161.956 100.869 161.459 100.734 161.205 100.779C160.414 100.92 159.74 101.295 158.961 101.463C158.775 101.503 158.527 101.441 158.359 101.545C158.207 101.639 158.168 101.851 158.004 101.955C157.526 102.26 157.009 102.298 156.478 102.414C155.691 102.585 154.921 103.091 154.187 103.405C153.794 103.574 153.603 103.87 153.161 103.98C152.632 104.112 152.036 104.235 151.499 104.315C150.58 104.453 149.653 104.638 148.749 104.828C148.41 104.9 147.942 105.086 147.58 105.197C147.347 105.269 147.185 105.469 146.951 105.533C146.681 105.606 146.365 105.538 146.089 105.553C145.524 105.584 144.942 105.965 144.379 106.1C143.744 106.252 143.113 106.415 142.457 106.415C142.038 106.415 141.835 106.612 141.458 106.723C141.041 106.845 140.557 106.784 140.124 106.784C139.591 106.784 139.057 106.784 138.524 106.784C138.148 106.784 137.956 107.154 137.594 107.154" stroke="#645841" stroke-linecap="round"/>
<path d="M138.415 109.733C139.21 109.444 140.108 109.537 140.939 109.537C142.037 109.537 143.136 109.537 144.234 109.537C145.162 109.537 146.111 109.349 146.971 109.001C147.859 108.642 148.806 108.935 149.692 108.662C150.63 108.374 151.564 108.116 152.522 107.908C153.716 107.65 154.927 107.376 156.123 107.127C156.468 107.055 156.776 106.866 157.112 106.799C157.514 106.719 157.851 106.818 158.237 106.63C159.027 106.246 159.805 106.172 160.598 105.805C161.884 105.208 163.389 105.33 164.652 104.718C165.558 104.278 166.726 104.411 167.7 104.138C168.627 103.879 169.52 103.562 170.46 103.341C171.425 103.114 172.43 103.112 173.383 102.827C173.893 102.675 174.674 102.699 175.098 102.357C175.38 102.131 175.608 102.127 175.94 102.019C176.278 101.908 176.613 101.892 176.912 101.724C177.127 101.603 177.248 101.397 177.48 101.297C177.76 101.177 177.919 101.239 178.049 100.98" stroke="#645841" stroke-linecap="round"/>
<path d="M178.048 95.7676C179.615 95.8851 180.924 97.1444 182.473 97.1444" stroke="#645841" stroke-linecap="round"/>
<path d="M179.03 95.6691C179.124 95.2934 179.516 95.4055 179.823 95.3522C180.247 95.2784 180.678 95.0782 181.096 94.9643C181.323 94.9023 181.46 94.7018 181.707 94.6857C182.13 94.6581 182.438 94.574 182.844 94.4343C183.352 94.2594 183.964 94.1525 184.494 94.0464C184.965 93.9521 185.479 93.9582 185.915 94.1721C186.84 94.626 186.241 95.5595 185.598 95.9423C185.051 96.2675 184.215 96.6067 183.587 96.7018C183.194 96.7613 182.124 96.8039 181.882 97.046" stroke="#645841" stroke-linecap="round"/>
<path d="M186.603 95.6699C186.603 96.2818 186.702 96.8838 186.702 97.4893C186.702 98.6428 185.972 98.3469 184.975 98.5985C184.533 98.7099 184.204 98.9868 183.751 99.0192C183.273 99.0533 182.719 99.2459 182.249 99.3579C181.943 99.4307 180.939 99.6432 180.801 99.5054" stroke="#645841" stroke-linecap="round"/>
<path d="M181.097 97.5371C181.097 97.8343 181.293 98.0466 181.293 98.3239C181.293 98.6845 181.293 99.0451 181.293 99.4057" stroke="#645841" stroke-linecap="round"/>
<path d="M180.998 101.176C180.998 101.565 180.958 101.977 181.063 102.356C181.152 102.675 181.293 102.908 181.293 103.241C181.293 103.798 181.121 104.364 181.096 104.924C181.084 105.196 180.922 105.371 180.757 105.58C180.483 105.926 180.581 106.11 180.495 106.519C180.45 106.731 180.259 106.962 180.156 107.153C180.059 107.335 180.072 107.772 180.025 107.994C179.979 108.213 180.169 108.393 180.102 108.606C180.002 108.923 180.014 109.227 180.014 109.557C180.014 110.114 180.014 110.672 180.014 111.229C180.014 112.484 180.014 113.638 180.014 114.901C180.014 116.427 180.113 117.93 180.113 119.452C180.113 120.029 180.113 120.606 180.113 121.184C180.113 121.636 180.262 122.626 179.861 122.932C179.177 123.456 179.874 124.422 179.37 124.926C179.086 125.21 178.26 124.852 177.927 124.713C177.356 124.475 176.787 124.212 176.179 124.09" stroke="#645841" stroke-linecap="round"/>
<path d="M177.851 96.0625C177.851 97.1225 177.851 98.1824 177.851 99.2424C177.851 99.745 177.851 100.248 177.851 100.75C177.851 101.168 177.935 101.675 177.703 102.045C177.492 102.383 177.639 102.744 177.458 103.089C177.248 103.487 177.327 104.22 177.266 104.673C177.213 105.074 177.261 105.514 177.261 105.919C177.261 106.923 177.015 108.251 177.359 109.181C177.558 109.717 178.137 110.204 177.753 110.82C177.538 111.164 177.556 112.031 177.556 112.437C177.556 113.641 177.458 114.821 177.458 116.027C177.458 117.289 177.567 118.589 177.305 119.824C177.182 120.403 176.969 120.956 176.873 121.534C176.754 122.246 176.277 122.994 176.277 123.698" stroke="#645841" stroke-linecap="round"/>
<path d="M185.817 98.9141C186.244 99.3403 186.112 99.9181 186.112 100.488" stroke="#645841" stroke-linecap="round"/>
<path d="M185.424 116.52C185.424 117.663 185.326 118.785 185.326 119.918C185.326 120.266 185.534 121.405 185.123 121.573C184.63 121.775 183.902 121.812 183.534 122.245C183.079 122.78 184.068 123.838 183.282 124.07C183.05 124.139 182.953 124.193 182.845 124.409C182.729 124.642 182.427 124.557 182.244 124.704C181.775 125.083 180.729 125.469 180.113 125.469" stroke="#645841" stroke-linecap="round"/>
<path d="M186.347 154.678C186.347 155.781 185.441 156.606 185.355 157.639C185.26 158.789 184.933 159.73 184.405 160.71C183.775 161.88 183.646 163.377 183.269 164.657C183.172 164.986 183.084 165.851 182.749 166.032C182.332 166.258 182.679 166.57 182.161 166.743" stroke="#645841" stroke-linecap="round"/>
<path d="M182.162 166.742C182.162 167.526 182.013 167.535 181.273 167.481C180.571 167.429 180.103 166.986 180.384 166.263C180.607 165.688 180.885 165.171 181.122 164.622C181.299 164.213 181.477 164.002 181.731 163.65C181.968 163.323 181.938 163.012 182.1 162.686C182.477 161.932 182.834 161.056 182.894 160.189C182.925 159.734 183.237 159.375 183.27 158.931C183.301 158.521 183.167 158.024 183.297 157.631C183.814 156.082 184.642 154.764 185.363 153.322" stroke="#645841" stroke-linecap="round"/>
<path d="M189.795 152.953C189.862 153.755 190.509 154.32 190.643 155.094C190.713 155.494 190.642 155.928 190.657 156.332C190.668 156.647 190.789 156.916 190.848 157.221C190.947 157.727 190.813 158.264 190.937 158.76C191.13 159.531 191.765 160.136 191.765 160.956C191.765 161.782 191.888 162.73 191.703 163.541C191.633 163.851 191.612 164.386 191.436 164.649C190.819 165.576 191.591 165.511 192.449 165.511C192.92 165.511 194.029 165.664 194.097 164.95C194.148 164.42 194.104 163.868 194.104 163.336C194.104 161.857 193.612 160.528 193.612 159.054C193.612 158.631 193.666 158.159 193.529 157.755C193.407 157.392 193.259 157.093 193.242 156.701C193.23 156.407 193.291 156.111 193.119 155.853C192.925 155.562 192.825 155.054 192.681 154.718C192.4 154.059 192.276 153.451 191.888 152.83" stroke="#645841" stroke-linecap="round"/>
<path d="M171.697 143.352C171.826 144.32 172.244 145.26 172.354 146.211C172.439 146.949 172.539 147.584 172.819 148.283C173.112 149.015 173.595 149.814 173.954 150.533C174.168 150.961 174.433 151.314 174.543 151.778C174.614 152.082 175.122 151.97 175.35 151.97C177.633 151.97 176.062 149.881 176.006 148.618C175.97 147.794 175.893 147.128 175.459 146.388C175.052 145.694 174.93 144.854 174.283 144.336" stroke="#645841" stroke-linecap="round"/>
<path d="M166.65 139.902C166.398 141.32 166.339 142.876 165.836 144.218C165.706 144.565 165.326 144.885 165.295 145.251C165.273 145.524 165.218 145.804 165.159 146.072C165.054 146.543 164.836 146.88 164.803 147.385C164.776 147.796 164.434 148.067 164.434 148.466C164.434 149.259 163.839 149.532 163.668 150.203C163.568 150.594 163.307 150.914 163.223 151.291C163.16 151.575 163.203 152.006 162.902 152.187C162.417 152.477 162.177 153.188 162.067 153.76C161.957 154.33 161.796 154.792 161.629 155.347C161.562 155.572 163.976 155.907 164.311 155.907C165.265 155.907 164.745 154.327 164.926 153.767C165.426 152.218 166.182 150.769 166.964 149.389C167.314 148.771 167.692 148.214 167.854 147.508C168.052 146.64 168.441 146.26 168.907 145.538C169.328 144.886 169.37 143.98 169.755 143.281C170.022 142.795 170.097 142.565 170.097 141.995" stroke="#645841" stroke-linecap="round"/>
<path d="M194.322 147.434C194.322 148.013 194.322 148.592 194.322 149.171C194.322 149.642 194.086 150.046 194.086 150.497" stroke="#645841" stroke-linecap="round"/>
<path d="M194.086 147.278C193.944 147.249 193.885 147.103 193.754 147.059C193.521 146.981 193.195 147.042 192.951 147.042C192.471 147.042 192.023 147.104 191.686 147.474C191.405 147.781 191.312 147.889 190.961 148.081C190.675 148.237 190.407 148.198 190.106 148.281C189.87 148.346 189.751 148.324 189.547 148.482C189.362 148.626 189.032 148.497 188.814 148.548C188.402 148.643 188.144 148.849 187.696 148.718C187.432 148.64 187.4 148.632 187.142 148.731C186.69 148.905 186.276 148.525 185.898 148.875C185.676 149.08 185.385 149.092 185.191 149.355C184.674 150.058 184.429 150.912 184.506 151.795C184.553 152.33 185.216 152.282 185.645 152.401C186.125 152.535 186.596 152.393 187.085 152.384C187.729 152.372 188.307 152.191 188.945 152.109C189.605 152.024 190.22 151.704 190.865 151.611C191.208 151.562 191.293 151.526 191.568 151.336C191.672 151.265 191.758 151.107 191.869 151.066C192.407 150.867 193.007 150.812 193.536 150.577" stroke="#645841" stroke-linecap="round"/>
<path d="M195.185 145.391C195.185 145.881 195.52 146.257 195.674 146.683C195.752 146.899 195.902 147.076 195.954 147.303C195.981 147.424 195.937 147.58 196.006 147.687C196.304 148.151 196.281 148.293 196.914 148.298C197.556 148.304 198.201 148.28 198.843 148.298C199.12 148.306 199.375 148.455 199.646 148.455C199.825 148.455 199.981 148.309 200.17 148.298C200.59 148.274 200.948 148.121 201.348 148.045C201.951 147.931 202.119 147.872 202.413 147.338C202.607 146.986 202.806 146.693 202.806 146.286C202.806 145.832 202.806 145.378 202.806 144.924C202.806 144.498 202.588 144.721 202.339 144.488C201.872 144.05 200.699 144.458 200.161 144.606C199.161 144.882 198.231 145.077 197.193 145.077C196.704 145.077 196.353 144.763 195.844 144.763C195.287 144.763 194.824 144.876 194.321 145.077" stroke="#645841" stroke-linecap="round"/>
<path d="M168.619 127.592C169.488 128.183 170.468 129.394 170.822 130.396C171.122 131.247 172.078 132.349 172.764 132.975C173.174 133.349 173.689 133.752 174.036 134.185C174.48 134.741 175.346 134.969 175.951 135.321C177.294 136.101 178.705 136.819 180.206 137.236C180.914 137.433 181.483 137.501 182.121 137.893C182.787 138.301 183.44 138.744 184.084 139.185C184.897 139.743 185.593 140.358 186.252 141.08C186.728 141.601 187.375 141.87 187.873 142.325C188.302 142.716 188.704 143.335 189.097 143.782C189.499 144.236 189.891 144.728 190.247 145.225C190.739 145.912 191.627 146.833 191.765 147.66" stroke="#645841" stroke-linecap="round"/>
<path d="M179.357 141.101C179.6 141.389 179.952 141.558 180.19 141.851C180.304 141.992 180.317 142.058 180.404 142.215C180.57 142.513 180.87 142.796 180.936 143.129C181.06 143.747 181.503 144.261 181.947 144.677C182.268 144.978 182.479 145.303 182.88 145.507C183.107 145.623 183.226 145.828 183.459 145.933C184.107 146.225 185.238 146.545 185.698 145.747C185.878 145.435 185.809 144.835 185.595 144.571C185.253 144.148 184.945 143.791 184.448 143.533C183.683 143.135 183.103 142.505 182.643 141.792C182.579 141.693 182.565 141.645 182.565 141.528C182.565 141.238 182.375 140.931 182.217 140.706C181.828 140.15 181.467 139.785 180.9 139.391C180.754 139.29 180.612 139.308 180.451 139.244C180.343 139.2 180.225 139.184 180.117 139.141C180.04 139.11 180.013 139.027 179.928 139.004C179.644 138.93 179.482 139.276 179.385 139.475C178.901 140.47 179.736 141.02 180.36 141.753" stroke="#645841" stroke-linecap="round"/>
<path d="M181.412 142.305C181.831 142.704 182.076 143.252 182.495 143.636C182.632 143.761 182.744 143.893 182.844 144.048C182.898 144.133 183.417 145.045 183.417 144.611C183.417 144.293 183.409 144.157 183.242 143.887C183.011 143.514 182.535 143.291 182.214 143.006" stroke="#645841" stroke-linecap="round"/>
<path d="M160.546 130.249C160.782 129.675 162.404 129.437 162.969 129.273C163.441 129.136 163.908 128.937 164.382 128.828C164.953 128.696 165.297 128.192 165.863 128.109C166.372 128.033 166.835 127.924 167.327 127.783" stroke="#645841" stroke-linecap="round"/>
<path d="M170.256 127.475C171.734 126.619 173.495 126.703 175.034 125.934" stroke="#645841" stroke-linecap="round"/>
<path d="M175.496 126.242C177.016 126.918 179.199 127.742 180.274 129.085C180.707 129.626 181.319 129.998 181.747 130.558C182.313 131.299 183.219 131.525 183.725 132.33C184.224 133.125 184.861 133.546 185.557 134.162C185.928 134.491 186.585 134.746 186.85 135.13C187.711 136.377 188.982 136.875 190.241 137.63C191.369 138.307 192.528 139.066 193.606 139.814C194.472 140.415 195.273 140.957 196.286 141.278C196.52 141.352 196.78 141.464 196.928 141.672C197.419 142.359 198.522 142.721 199.266 143.076C200.553 143.69 201.533 144.732 202.776 145.354" stroke="#645841" stroke-linecap="round"/>
<path d="M161.162 130.557C161.833 130.652 162.432 131.148 162.909 131.601C163.327 132 163.755 132.056 164.168 132.423C164.857 133.036 165.705 133.583 166.556 133.956C167.15 134.216 167.396 134.816 167.944 135.112C168.489 135.407 169.051 135.675 169.588 135.994C170.873 136.758 171.907 138.069 172.927 139.128C174.24 140.491 176.27 141.416 177.808 142.51C178.58 143.059 179.457 143.551 180.274 144C181.375 144.604 182.683 145.139 183.699 145.849C184.162 146.174 184.62 146.761 185.197 146.877C185.602 146.958 185.803 147.094 186.13 147.356" stroke="#645841" stroke-linecap="round"/>
<path d="M159.776 130.557C159.776 133.807 162.549 134.54 165.205 135.506C166.316 135.91 167.22 136.787 168.048 137.595C168.825 138.354 169.737 138.986 170.445 139.804C171.362 140.863 172.573 141.558 173.528 142.544C174.237 143.277 175.011 143.965 175.703 144.719C176.161 145.219 176.605 145.546 177.244 145.875C178.05 146.29 178.589 147.011 179.402 147.433C180.5 148.004 181.401 149.165 182.398 149.908C183.256 150.546 184.127 151.208 184.899 151.98" stroke="#645841" stroke-linecap="round"/>
<path d="M121.4 99.209C122.567 99.3513 123.779 99.615 124.93 99.8537C125.67 100.007 126.391 100.238 127.126 100.411C127.592 100.52 127.972 100.574 128.339 100.892C129.367 101.78 130.497 102.061 131.825 102.061" stroke="#645841" stroke-linecap="round"/>
<path d="M121.598 98.7181C121.625 98.1708 121.89 97.6683 122.139 97.1882C122.55 96.3922 122.814 95.6344 123.444 94.9481C124.039 94.3008 124.554 93.5893 125.144 92.9211C125.453 92.5708 125.91 92.1189 126.067 91.6699C126.125 91.5032 126.049 91.2634 126.16 91.1181C126.298 90.9371 126.656 90.8855 126.854 90.7957C127.79 90.3701 128.269 89.4472 129.017 88.796C129.508 88.3692 129.894 87.9751 130.198 87.4082C130.44 86.9569 130.842 86.7273 131.181 86.3647C131.761 85.7447 131.894 84.932 132.416 84.283C132.873 83.714 132.628 83.022 133.006 82.3926" stroke="#645841" stroke-linecap="round"/>
<path d="M133.595 82.1953C136.414 82.1953 139.195 82.7854 142.025 82.7854C145.745 82.7854 149.47 83.0672 153.166 82.6324C154.337 82.4945 155.503 82.6731 156.668 82.7854C158.074 82.9209 159.439 83.4298 160.848 83.4738C161.473 83.4934 162.102 83.4738 162.727 83.4738C163.318 83.4738 163.898 83.3645 164.486 83.3645C165.249 83.3645 166.006 83.4738 166.77 83.4738C167.859 83.4738 168.948 83.4738 170.038 83.4738C170.879 83.4738 171.587 83.6398 172.392 83.7798C172.891 83.8666 173.664 83.9703 174.103 84.206C174.558 84.4505 174.948 84.7961 175.425 85.031C175.769 85.201 176.089 85.3101 176.375 85.5391" stroke="#645841" stroke-linecap="round"/>
<path d="M131.234 102.553C131.473 101.917 132.891 102.014 133.447 101.979C134.086 101.939 134.738 102.031 135.365 101.875C135.802 101.767 136.207 101.597 136.627 101.438C137.048 101.279 137.575 101.229 137.922 100.919C138.367 100.523 138.443 100.349 139.113 100.193C140.415 99.8886 141.757 99.8106 143.074 99.597C144.086 99.433 145.547 99.378 146.38 98.7174C147.223 98.0483 148.7 98.1093 149.713 97.8869C150.685 97.6732 151.518 97.1659 152.45 96.8597C153.934 96.3723 155.376 95.7507 156.875 95.319C157.618 95.1052 158.28 94.642 159.023 94.3901C160.248 93.9743 161.524 93.9298 162.754 93.5597C164.121 93.1486 165.266 92.2457 166.628 91.8331C167.66 91.5206 168.774 91.4319 169.764 90.9808C171.308 90.2776 172.497 89.0119 173.966 88.2052C174.77 87.7639 175.62 86.7348 176.572 87.2108" stroke="#645841" stroke-linecap="round"/>
<path d="M139.004 100.881C141.164 100.881 143.351 100.979 145.495 100.979" stroke="#645841" stroke-linecap="round"/>
<path d="M145.889 99.2085C146.884 98.9943 147.916 99.1998 148.926 99.2085C149.684 99.2151 150.442 99.2085 151.199 99.2085" stroke="#645841" stroke-linecap="round"/>
<path d="M152.281 97.1436C152.354 96.5613 153.87 96.7128 154.292 96.6737C155.451 96.5664 156.512 96.0055 157.685 96.0672C158.5 96.1101 159.361 96.4797 160.16 96.6573C160.962 96.8356 161.692 96.9469 162.509 96.9469" stroke="#645841" stroke-linecap="round"/>
<path d="M161.428 93.4066C161.624 93.314 161.836 93.3191 162.051 93.2973C163.192 93.1818 164.33 93.0373 165.471 92.9149C166.388 92.8164 167.368 92.5215 168.29 92.5215C170.068 92.5215 171.845 92.5215 173.623 92.5215" stroke="#645841" stroke-linecap="round"/>
<path d="M173.918 89.7674C174.425 89.2387 175.856 89.4469 176.519 89.4942C177.604 89.5717 178.714 89.9123 179.764 90.1826C180.507 90.374 181.126 90.5541 181.884 90.5541" stroke="#645841" stroke-linecap="round"/>
<path d="M2.54395 115.037C3.14763 115.758 3.45754 116.433 4.44121 116.376C6.26561 116.272 8.09427 115.827 9.82217 115.251C12.4744 114.367 15.2623 113.956 17.9794 113.322C22.6857 112.222 27.5131 112.912 32.1928 111.66C33.8504 111.217 35.7693 111.155 37.2951 110.32C38.9046 109.439 40.5808 109.106 42.2901 108.477" stroke="#645841" stroke-linecap="round"/>
<path d="M57.918 105.581C58.3072 104.932 59.9423 104.935 60.6406 104.702C61.7825 104.321 63.0697 104.23 64.2636 104.23C65.9339 104.23 67.3054 104.754 68.9157 105.002" stroke="#645841" stroke-linecap="round"/>
<path d="M70.2676 106.353C70.993 106.353 71.8383 106.258 72.54 106.074C73.586 105.8 74.1982 105.242 75.1126 104.723C76.0643 104.183 76.0722 102.937 76.2059 102.001C76.4036 100.617 76.8187 100.583 75.8415 99.2994C74.7743 97.8974 72.7084 96.0952 70.9965 95.5049C69.2091 94.8886 66.7219 95.3548 64.8545 95.3548C61.4426 95.3548 57.7238 95.8022 54.4999 94.4973C53.7896 94.2098 53.0465 94.1369 52.3132 93.9078C51.0749 93.5208 49.7154 93.2103 48.4329 92.9538C46.0852 92.4842 43.6373 92.6536 41.2512 92.6536C40.5756 92.6536 39.1576 92.3281 38.8072 93.0288C38.6936 93.2561 37.5763 93.4674 37.2744 93.6184" stroke="#645841" stroke-linecap="round"/>
<path d="M36.1165 95.7422C34.2115 96.2795 32.3549 96.8225 30.4247 97.2857C28.9182 97.6473 27.9698 98.7928 26.7266 99.5903C25.9476 100.09 25.0931 100.458 24.3041 100.941C23.535 101.412 22.9276 102.025 22.0746 102.367C21.1793 102.725 20.3427 102.873 19.5449 103.449C19.0371 103.816 18.5356 104.139 17.937 104.339C15.9757 104.993 14.6691 106.402 12.5561 106.815C10.2725 107.262 8.0663 107.988 5.80308 108.562C5.2386 108.705 3.84397 108.874 3.70215 109.441" stroke="#645841" stroke-linecap="round"/>
<path d="M6.40239 108.475C5.36852 108.108 4.02843 107.943 3.10093 107.392C2.37413 106.961 1.73668 106.261 1 105.967" stroke="#645841" stroke-linecap="round"/>
<path d="M6.78824 106.932C6.64254 105.961 5.70896 105.081 5.05176 104.424" stroke="#645841" stroke-linecap="round"/>
<path d="M15.2785 105.389C12.1556 104.885 9.61921 102.936 6.78906 101.723" stroke="#645841" stroke-linecap="round"/>
<path d="M19.5222 103.073C17.9383 102.83 16.5066 101.925 14.8916 101.723" stroke="#645841" stroke-linecap="round"/>
<path d="M23.5752 100.179C23.1223 99.9105 22.7464 99.793 22.2246 99.793" stroke="#645841" stroke-linecap="round"/>
<path d="M21.8385 99.5996H21.6455" stroke="#645841" stroke-linecap="round"/>
<path d="M26.4689 99.0208C26.3518 97.9671 25.3248 97.6389 24.7324 96.8984" stroke="#645841" stroke-linecap="round"/>
<path d="M29.3633 97.2859C28.9204 95.8939 26.4357 94.775 25.3115 94.0059" stroke="#645841" stroke-linecap="round"/>
<path d="M33.8009 95.9353C32.8056 95.1156 31.9064 94.4829 30.7139 94.0059" stroke="#645841" stroke-linecap="round"/>
<path d="M38.0455 94.1983C37.047 93.4851 36.2411 93.2109 35.1514 92.8477" stroke="#645841" stroke-linecap="round"/>
<path d="M182.457 102.797C179.947 103.048 181.633 105.897 181.282 107.388C181.089 108.208 180.655 108.898 180.598 109.745C180.568 110.182 180.146 110.468 180.133 110.985C180.118 111.58 180.037 112.048 180.598 112.328" stroke="#645841" stroke-linecap="round"/>
<path d="M180.248 113.373C180.276 114.032 181.074 113.543 181.488 113.864C182.022 114.278 182.872 114.62 183.49 114.929C183.858 115.114 183.996 115.439 184.368 115.588C184.607 115.683 184.765 115.904 185.014 115.995C185.516 116.177 186.065 116.236 186.59 116.305C187.406 116.413 188.052 116.628 188.888 116.628C189.401 116.628 190.723 116.372 191.136 116.757C192.005 117.568 193.155 118.09 194.093 118.823C194.97 119.509 195.904 120.082 196.883 120.606C197.287 120.822 197.655 121.15 198.084 121.316C198.832 121.605 199.748 121.831 200.525 122.013C201.326 122.202 202.446 122.253 203.147 122.73C203.735 123.131 204.207 123.321 204.6 123.951C204.799 124.269 204.927 124.231 205.239 124.403C205.88 124.755 206.28 125.287 206.996 125.552C207.598 125.776 208.198 126.081 208.778 126.34C209.546 126.684 210.128 126.918 210.651 127.625C211.525 128.808 212.877 130.288 214.422 130.46" stroke="#645841" stroke-linecap="round"/>
<path d="M215.933 131.041C214.811 131.041 215.119 129.825 215.119 128.974C215.119 128.303 215.176 127.681 215.229 127.024C215.355 125.448 215.939 123.723 217.45 123.156C217.698 123.063 217.828 123.194 218.025 122.956C218.239 122.696 218.48 122.47 218.703 122.219C219.121 121.75 219.333 121.148 220.091 121.044C220.604 120.974 221.012 120.812 221.57 120.812C222.089 120.812 222.652 120.856 223.152 120.689C223.44 120.593 223.589 120.354 223.837 120.23" stroke="#645841" stroke-linecap="round"/>
<path d="M182.456 102.912C181.454 102.224 182.054 102.443 182.676 101.924C183.247 101.449 184.045 101.589 184.723 101.388C185.498 101.158 186.281 100.704 187.106 100.704C188.051 100.704 189.181 100.344 190.076 100.045C191.012 99.7331 191.815 98.9684 192.646 98.4436C193.596 97.8441 194.419 97.7979 195.514 97.7979C196.592 97.7979 197.676 97.8572 198.729 97.6816" stroke="#645841" stroke-linecap="round"/>
<path d="M200.242 98.2617C200.513 98.2918 200.771 98.4535 201.056 98.4942" stroke="#645841" stroke-linecap="round"/>
<path d="M219.421 105.121C219.79 105.781 220.357 105.773 220.842 106.258C221.096 106.512 221.253 106.728 221.565 106.955C222.293 107.487 223.101 107.965 223.864 108.44C224.301 108.712 224.479 108.957 225 108.957" stroke="#645841" stroke-linecap="round"/>
<path d="M218.723 125.811C218.152 125.918 218.491 130.416 218.491 131.035C218.491 133.978 218.712 137.009 218.471 139.94C218.392 140.912 218.057 141.818 218.032 142.801C217.997 144.22 218.026 145.643 218.026 147.063C218.026 148.783 218.026 150.503 218.026 152.223C218.026 153.842 218.142 155.472 218.142 157.079" stroke="#645841" stroke-linecap="round"/>
<path d="M221.978 122.324C221.978 131.546 221.978 140.767 221.978 149.989C221.978 151.161 221.772 152.296 221.475 153.424C221.269 154.204 221.397 155.109 221.397 155.917C221.397 156.612 220.916 156.498 220.351 156.498C219.783 156.498 219.376 156.847 218.84 156.847" stroke="#645841" stroke-linecap="round"/>
<path d="M216.515 127.902C216.991 128.021 216.735 130.361 216.799 130.77C216.968 131.847 217.083 132.964 216.967 134.069C216.555 137.979 216.747 141.987 216.747 145.932C216.747 147.749 216.747 149.566 216.747 151.383C216.747 152.086 216.847 152.825 216.566 153.475C216.309 154.07 216.282 154.699 216.282 155.341C216.282 155.944 216.515 156.358 216.515 156.962" stroke="#645841" stroke-linecap="round"/>
<path d="M187.339 116.977C187.339 118.49 187.304 120.009 187.339 121.523C187.36 122.459 187.687 123.331 187.687 124.267C187.687 124.795 187.687 125.322 187.687 125.849C187.687 128.433 187.687 131.016 187.687 133.599" stroke="#645841" stroke-linecap="round"/>
<path d="M190.012 116.744C190.012 118.244 190.36 119.646 190.36 121.155C190.36 122.969 190.36 124.784 190.36 126.599C190.36 129.629 190.36 132.66 190.36 135.691" stroke="#645841" stroke-linecap="round"/>
<path d="M191.755 118.139C191.755 121.159 191.755 124.179 191.755 127.199C191.755 127.82 191.987 128.342 191.987 128.955C191.987 129.689 191.987 130.423 191.987 131.157C191.987 132.397 191.987 136.117 191.987 134.877" stroke="#645841" stroke-linecap="round"/>
<path d="M191.755 135.691C191.718 136.359 191.198 136.604 190.709 136.97" stroke="#645841" stroke-linecap="round"/>
<path d="M188.036 134.18C188.128 134.455 188.397 134.622 188.598 134.813C188.842 135.044 188.79 135.362 188.966 135.626C189.169 135.93 189.428 136.036 189.663 136.272" stroke="#645841" stroke-linecap="round"/>
<path d="M201.056 101.052C201.913 101.208 202.859 102.098 203.639 102.511C204.861 103.159 206.556 103.24 207.888 103.454C208.478 103.549 209.069 103.607 209.657 103.699C209.963 103.747 210.3 103.667 210.587 103.803C210.852 103.927 210.958 104.074 211.259 104.074C211.953 104.074 212.837 104.193 213.442 104.539C214.143 104.94 215.097 104.771 215.883 104.771C216.687 104.771 216.782 104.506 217.045 103.816C217.73 102.017 214.959 100.528 213.777 100.018C213.334 99.8273 213.112 99.491 212.628 99.3727C212.161 99.2588 211.714 99.1024 211.233 99.0756C210.414 99.0301 209.521 98.6056 208.689 98.4686C208.15 98.38 207.747 98.0503 207.178 98.0295C206.688 98.0116 206.195 98.0295 205.705 98.0295C205 98.0295 204.292 98.0071 203.587 98.0295C202.473 98.0648 201.428 99.2709 200.914 100.148C200.63 100.631 200.526 101.098 200.591 101.659C200.617 101.886 201.174 102.112 201.34 102.24C201.839 102.623 202.307 102.679 202.916 102.679" stroke="#645841" stroke-linecap="round"/>
<path d="M200.473 100.82C200.473 101.846 201.108 102.685 201.17 103.7C201.208 104.312 201.563 104.833 201.661 105.444C201.89 106.87 202.597 108.227 203.146 109.538" stroke="#645841" stroke-linecap="round"/>
<path d="M218.141 103.262C217.821 103.45 217.577 103.645 217.45 104.004C217.228 104.634 216.622 105.085 216.34 105.696C216.125 106.162 215.967 106.986 215.939 107.504C215.906 108.113 215.755 108.984 215.326 109.461C215.158 109.647 214.654 110.039 214.654 110.236" stroke="#645841" stroke-linecap="round"/>
<path d="M203.587 109.402C203.885 109.718 204.106 110.094 204.502 110.296C204.715 110.405 204.893 110.505 205.117 110.591C205.298 110.66 205.461 110.771 205.643 110.835C206.013 110.967 206.426 110.974 206.808 111.067C207.712 111.286 208.607 111.526 209.516 111.724C210.379 111.912 211.372 111.867 212.251 111.792C212.541 111.768 212.808 111.588 213.005 111.39" stroke="#645841" stroke-linecap="round"/>
<path d="M204.392 104.434C204.831 104.704 205.228 105.039 205.669 105.312C206.177 105.625 206.693 106.142 207.287 106.274C207.735 106.374 208.228 106.478 208.688 106.445C209.105 106.415 210.045 106.332 210.26 105.901" stroke="#645841" stroke-linecap="round"/>
<path d="M203.965 106.941C204.139 107.068 207.215 109.322 207.42 108.503" stroke="#645841" stroke-linecap="round"/>
<path d="M200.782 99.895C200.726 98.7675 200.406 97.6914 200.112 96.6246C199.828 95.5949 199.761 94.6636 199.761 93.5759C199.761 91.5727 199.761 89.5695 199.761 87.5663C199.761 87.1319 199.673 86.6026 199.859 86.1993C200.065 85.7542 200.042 85.2583 200.277 84.8323C200.489 84.4473 200.472 83.9786 200.829 83.6458C201.294 83.2119 201.727 82.7509 202.227 82.3511C202.433 82.1864 202.609 82.1466 202.805 81.9436C202.947 81.7959 203.24 81.6765 203.341 81.5412C203.609 81.1834 203.884 81.0636 204.301 80.8551C205.403 80.3037 206.773 80.4889 208.004 80.4889C209.074 80.4889 210.107 80.459 211.058 80.9119C211.807 81.2687 212.759 81.2806 213.467 81.7424C213.917 82.0356 214.381 82.2237 214.762 82.6296C215.082 82.9709 215.517 83.3243 215.866 83.6252C216.418 84.1014 216.681 84.8839 217.269 85.3069C217.45 85.4372 217.638 85.5987 217.826 85.7092C217.999 85.8112 217.913 85.9835 218.001 86.1322C218.409 86.8194 219.001 87.7919 219.095 88.5877C219.181 89.3147 219.353 89.9628 219.353 90.6975C219.353 91.5104 219.299 92.3533 219.508 93.1478C219.701 93.881 219.855 94.644 219.616 95.3917C219.314 96.3352 218.951 97.2935 218.796 98.265C218.7 98.8654 218.61 99.3378 218.61 99.9466C218.61 100.452 218.368 100.854 218.326 101.334C218.305 101.581 218.195 101.725 218.094 101.938C217.966 102.209 218.016 102.521 217.919 102.794C217.714 103.37 217.507 103.832 217.682 104.445" stroke="#645841" stroke-linecap="round"/>
<path d="M3.37695 134.557C4.6015 134.557 5.82605 134.557 7.0506 134.557C8.44422 134.557 9.60536 133.931 10.8052 133.242C12.265 132.403 14.0085 132.273 15.6629 132.199C16.389 132.167 17.5087 132.43 18.1727 132.068C18.9442 131.647 19.6121 131.521 20.4802 131.278C21.3626 131.031 22.2424 130.645 23.162 130.57C24.285 130.478 25.5175 130.743 26.613 130.428C28.8853 129.775 30.9127 128.333 33.2924 128.04C34.6675 127.87 35.8622 127.481 37.1887 127.088C39.2706 126.472 41.2112 126.454 43.3519 126.35C44.8434 126.277 46.8339 126.1 48.2703 125.692C50.1047 125.171 52.0345 124.474 53.9275 124.194C55.0887 124.022 56.529 123.779 57.5202 123.202C58.6158 122.565 59.977 122.793 61.123 122.453C62.1011 122.164 63.1823 122.252 64.1186 121.806C65.2963 121.245 66.8802 121.454 67.9643 120.804C68.8004 120.302 69.6488 120.561 70.4944 120.267C71.5929 119.886 72.6284 119.438 73.8745 119.438" stroke="#645841" stroke-linecap="round"/>
<path d="M75.6962 137.835C75.4151 137.273 73.4238 137.723 72.8726 137.845C72.4247 137.945 72.044 138.199 71.5772 138.199C71.1099 138.199 70.5784 138.128 70.1199 138.23C69.4205 138.385 68.9574 138.746 68.2072 138.746C67.2795 138.746 66.3518 138.746 65.4241 138.746C63.761 138.746 62.0979 138.746 60.4348 138.746C59.2941 138.746 58.1002 138.257 56.9737 138.017C56.1031 137.832 55.1505 137.904 54.302 137.633C53.6124 137.412 53.2368 137.106 52.4601 137.106C50.4833 137.106 49.0088 136.121 47.0964 135.771C45.0403 135.394 42.7514 135.649 40.67 135.649C40.0012 135.649 39.324 135.617 38.6561 135.649C38.1512 135.673 37.9898 136.159 37.5429 136.196C35.7189 136.343 34.1593 137.111 32.3006 137.349C29.6182 137.693 26.8045 137.471 24.1032 137.471C22.8214 137.471 22.0757 137.687 21.0064 138.422C19.6031 139.387 18.1866 140.249 16.5535 140.75C15.9428 140.937 15.4449 141.274 14.7926 141.296C14.325 141.312 13.7885 141.201 13.3555 141.418C12.6123 141.789 12.0671 141.797 11.2505 141.843C9.77567 141.925 8.08921 142.66 6.79757 143.32C5.71578 143.873 4.73567 144.751 3.61981 145.223C2.7662 145.584 1.86936 145.87 1.00879 146.215" stroke="#645841" stroke-linecap="round"/>
<path d="M4.28809 128.364C5.26066 126.71 8.86966 125.15 10.765 125.085C12.472 125.026 14.1407 125.267 15.8454 125.267C17.9646 125.267 20.5565 125.339 22.5248 124.538C23.7844 124.026 25.0803 123.927 26.2288 123.172C27.0124 122.657 27.512 121.911 28.3338 121.441" stroke="#645841" stroke-linecap="round"/>
<path d="M28.1514 121.26C30.4143 121.26 32.3748 119.985 34.6283 119.985C36.6753 119.985 38.723 119.93 40.7612 120.126C41.8833 120.235 43.0763 120.208 44.2021 120.157C45.7046 120.088 46.4628 119.294 47.7239 118.629C48.6223 118.154 49.4046 117.567 50.173 116.908C51.6229 115.665 53.8873 115.852 55.6582 115.795" stroke="#645841" stroke-linecap="round"/>
<path d="M56.751 115.429C59.3094 115.429 61.9304 115.785 64.3209 114.802C66.4263 113.936 68.1993 112.093 70.4335 111.614C74.2565 110.795 78.0129 110.875 81.8897 110.875" stroke="#645841" stroke-linecap="round"/>
<path d="M80.6151 110.877C79.3917 110.485 78.9039 109.806 78.0648 108.893C77.5617 108.345 77.6566 107.648 77.073 107.112C76.5778 106.657 76.3991 106.217 76.2432 105.594" stroke="#645841" stroke-linecap="round"/>
<path d="M56.2041 73.5332C56.2041 75.6413 58.068 77.0091 58.4306 78.9577C58.5831 79.7774 58.9903 80.3508 59.1592 81.1436C59.4373 82.4486 60.0119 84.3928 60.7582 85.4548C61.4086 86.3804 62.0876 87.1914 62.6608 88.1468C62.9301 88.5956 63.1605 89.1175 63.4907 89.5232C63.7656 89.8609 64.1753 89.9467 64.442 90.2923C64.7446 90.6846 64.7807 91.1349 65.029 91.527C65.312 91.9739 65.7237 92.3337 66.0005 92.8021C66.4759 93.6067 66.9015 94.3816 67.3161 95.2108" stroke="#645841" stroke-linecap="round"/>
<path d="M2.10156 78.4497C2.81035 77.7693 3.28976 77.3567 4.28753 77.3567C5.17137 77.3567 6.0552 77.3567 6.93904 77.3567C7.69577 77.3567 9.13757 77.0649 9.81319 77.4377C10.3589 77.7387 10.7336 77.721 11.3919 77.721" stroke="#645841" stroke-linecap="round"/>
<path d="M49.8291 73.8965H55.4762" stroke="#645841" stroke-linecap="round"/>
<path d="M14.291 74.2793C14.291 75.0284 14.5135 75.7282 14.5135 76.4715C14.5135 76.8755 14.4868 77.2888 14.5218 77.6912C14.5544 78.0659 14.7475 78.3451 14.8267 78.6884C14.9817 79.3602 15.5912 80.1801 16.203 80.452C16.5367 80.6003 16.757 80.8042 17.0354 81.0207C17.3583 81.2719 18.1381 81.1582 18.5188 81.1772" stroke="#645841" stroke-linecap="round"/>
<path d="M18.667 81.3274C18.9393 81.3769 19.2457 81.5812 19.5241 81.6653C19.8442 81.7619 20.1079 81.7667 20.4059 81.9455C20.5599 82.0379 20.7954 81.9949 20.9663 81.9949C21.2494 81.9949 21.4661 82.0849 21.7327 82.168C22.2041 82.3149 22.8292 82.2175 23.311 82.2175C25.4386 82.2175 27.5662 82.2175 29.6938 82.2175C30.8864 82.2175 32.0843 82.2144 33.2747 82.135C34.1799 82.0747 35.0578 81.5216 35.9325 81.2944C36.7845 81.0731 37.7539 80.8328 38.545 80.4373C39.3303 80.0447 40.0434 79.7929 40.8855 79.5473C41.7574 79.293 42.385 78.64 43.1601 78.204C43.4136 78.0613 43.6962 77.9594 43.943 77.8084C44.231 77.6321 44.456 77.3494 44.7259 77.145C45.2897 76.7178 45.8289 76.2894 46.4154 75.8882C46.8538 75.5882 47.2308 75.1867 47.6516 74.858C47.9512 74.6239 48.4139 74.4191 48.5581 74.0586" stroke="#645841" stroke-linecap="round"/>
<path d="M48.557 73.8357C48.0772 73.6358 48.2135 72.8512 47.7782 72.5294C47.4469 72.2845 47.1956 71.7142 46.814 71.5446C46.5436 71.4244 46.2941 71.3056 46.0929 71.0913C45.8266 70.8077 45.4033 70.7345 45.0792 70.5309C44.867 70.3976 44.8015 70.3496 44.5518 70.3496" stroke="#645841" stroke-linecap="round"/>
<path d="M14.3652 74.2802C15.0797 73.6337 16.3033 73.2632 17.2414 73.0357C18.2262 72.797 19.2726 72.5742 20.299 72.5742" stroke="#645841" stroke-linecap="round"/>
<path d="M16.8867 71.166C17.1472 71.1897 17.3124 71.3814 17.5213 71.5163C17.9593 71.7991 18.4346 71.9975 18.8564 72.3033C19.7734 72.9682 20.7467 73.6715 21.7697 74.1617C22.9396 74.7223 24.194 74.9433 25.4576 75.196C26.2825 75.361 27.2951 75.2828 28.1113 75.1301C28.9209 74.9786 29.8221 74.8111 30.5508 74.4048C30.6872 74.3288 30.7673 74.2622 30.9051 74.207" stroke="#645841" stroke-linecap="round"/>
<path d="M31.2754 74.3554C31.9922 74.4322 32.7059 74.7669 33.4099 74.8004C34.2882 74.8422 35.1871 74.79 36.0471 74.6108C38.1362 74.1756 40.1147 73.4587 42.1209 72.7566C43.6098 72.2354 44.9197 71.4139 45.7718 70.0575C46.1589 69.4414 46.5547 68.7984 46.5547 68.0508" stroke="#645841" stroke-linecap="round"/>
<path d="M46.2579 67.9762C45.6539 67.2095 44.516 66.4848 43.6207 66.0848C42.7556 65.6982 41.9022 65.1116 40.9629 64.9186C40.2514 64.7724 39.5085 64.6768 38.7831 64.622C36.9919 64.4865 35.1768 64.5643 33.3809 64.5643C32.6296 64.5643 31.8783 64.5643 31.127 64.5643C30.1365 64.5643 29.0769 64.4419 28.1065 64.6549C27.434 64.8025 26.787 65.0182 26.1245 65.1988C25.8174 65.2826 25.4843 65.2668 25.1891 65.3884C24.8976 65.5084 24.6328 65.6541 24.3197 65.718C23.9638 65.7907 23.5263 65.7946 23.2236 66.023C22.1576 66.8272 20.8007 67.3035 19.9312 68.3759C19.6726 68.6948 19.4948 68.9576 19.1565 69.1917C18.8404 69.4106 18.6854 69.8247 18.4271 70.1106C17.9996 70.584 17.5345 71.0742 17.3311 71.6847" stroke="#645841" stroke-linecap="round"/>
<path d="M31.4238 73.9832C32.2545 73.9109 33.0109 73.6293 33.8138 73.4475C35.0799 73.1608 36.3817 72.8259 37.6213 72.4503C38.2288 72.2662 38.6539 71.8202 39.2036 71.5355C40.3132 70.9609 41.5575 70.6276 42.7309 70.2169C43.4557 69.9632 44.404 69.681 44.8489 69.0137" stroke="#645841" stroke-linecap="round"/>
<path d="M30.1636 73.9838C29.561 73.5821 28.6669 73.3137 27.9384 73.2421C27.5664 73.2055 27.2408 73.0069 26.867 72.9619C26.2326 72.8855 25.6357 72.7822 25.0416 72.5333C24.363 72.249 23.6683 72.1698 22.9648 71.977C22.5131 71.8533 22.1296 71.5853 21.675 71.4537C20.8719 71.2212 20.0397 71.1006 19.2439 70.848C18.5072 70.6141 17.8227 70.2639 17.1094 69.9785" stroke="#645841" stroke-linecap="round"/>
<path d="M15.5508 74.1328C16.0213 74.7141 16.8954 75.1999 17.5204 75.5874C17.9423 75.849 18.4504 76.1465 18.8061 76.5022C19.0553 76.7514 19.2419 77.0985 19.5396 77.2892C19.9908 77.5783 20.3786 77.7374 20.7428 78.1381" stroke="#645841" stroke-linecap="round"/>
<path d="M21.6338 78.6569C22.2109 78.8647 22.7878 79.0015 23.3809 79.1514C24.1167 79.3374 24.7782 79.7232 25.5484 79.7613C26.3202 79.7994 27.0923 79.8491 27.8642 79.8849C29.0052 79.9378 30.0808 79.9272 31.2184 79.7365C35.5518 79.0102 39.7728 77.6929 44.0336 76.6543" stroke="#645841" stroke-linecap="round"/>
<path d="M11.1973 112.646C11.7232 112.618 12.1587 112.431 12.4456 111.965C12.9342 111.171 13.6083 110.723 14.4599 110.338C17.1525 109.12 19.5009 106.836 21.751 104.948C23.4909 103.487 25.4866 101.972 27.6994 101.335C30.737 100.461 34.1865 100.039 36.3901 97.666" stroke="#645841" stroke-linecap="round"/>
<path d="M20.8994 110.604C23.3612 109.945 26.0066 109.439 28.3324 108.382C29.8411 107.696 31.0037 106.546 32.2476 105.479C33.3291 104.55 34.3647 103.725 35.5858 102.982C36.5208 102.414 37.3293 101.734 38.1675 101.034C39.5581 99.8718 41.0009 98.9801 42.5176 98.0078" stroke="#645841" stroke-linecap="round"/>
<path d="M37.751 106.519C41.1337 104.697 45.0825 103.261 48.0589 100.807C49.2409 99.8321 50.0535 98.5253 51.1607 97.4779C51.7232 96.9458 52.352 96.5136 52.9007 95.9648" stroke="#645841" stroke-linecap="round"/>
<path d="M48.9863 105.838C49.4798 103.793 53.04 103.085 54.4902 101.837C55.7754 100.731 56.8239 99.6773 58.5188 99.3691" stroke="#645841" stroke-linecap="round"/>
<path d="M20.3887 107.711C21.7279 108.526 23.2935 108.848 24.6821 109.583C25.8564 110.205 27.3853 110.483 28.3891 111.286" stroke="#645841" stroke-linecap="round"/>
<path d="M21.5801 103.455C24.5213 104.346 27.6197 104.591 30.5357 105.479C31.1545 105.667 31.7495 105.63 32.3797 105.744C35.8452 106.369 39.2821 107.51 42.6876 108.392" stroke="#645841" stroke-linecap="round"/>
<path d="M32.9854 99.1992C35.6111 100.318 38.8469 101.582 41.7423 101.582C43.0825 101.582 44.5547 102.039 45.7993 102.509C46.8931 102.922 47.9342 103.198 49.0997 103.322C50.5434 103.476 51.797 104.306 53.2418 104.306" stroke="#645841" stroke-linecap="round"/>
<path d="M42.3477 96.4746C45.4316 96.4746 48.5835 97.885 51.5586 98.5835C56.2983 99.6963 61.0734 100.73 65.8383 101.751" stroke="#645841" stroke-linecap="round"/>
<path d="M1.17871 66.4641C2.25737 66.3597 3.36543 65.9278 4.43456 65.7162C5.45362 65.5146 6.45285 65.3494 7.47889 65.2101C8.51185 65.0698 9.48135 64.6747 10.5383 64.5605C11.5559 64.4504 12.605 64.3505 13.5298 63.8881C14.1886 63.5587 14.5729 63.3138 15.3806 63.2309C16.366 63.1298 17.1803 62.7198 18.1227 62.5359C19.6422 62.2395 20.9233 61.3709 22.5117 61.2971C23.8343 61.2355 25.1623 61.3515 26.4852 61.2668C31.3777 60.9537 36.3334 61.1611 41.2385 61.1611C44.7708 61.1611 48.2489 61.2482 51.7615 61.433" stroke="#645841" stroke-linecap="round"/>
<path d="M2.13086 61.8407C2.43032 61.1918 3.36703 60.8366 4.00429 60.6018C5.02007 60.2275 5.82973 59.801 6.94287 59.801C8.04073 59.801 9.02966 59.8942 10.0476 59.4838C10.5203 59.2931 11.0834 59.1475 11.5736 58.9927C11.8753 58.8975 12.1921 58.8819 12.5027 58.8341C13.4928 58.6818 14.3872 58.214 15.3658 58.0182C16.9602 57.6994 18.574 58.0459 20.1551 57.6405C21.1546 57.3843 22.4985 57.6254 23.5243 57.6254C24.844 57.6254 26.3288 57.8139 27.6262 57.5423C29.4748 57.1554 31.2728 57.2175 33.1634 57.2175C35.3994 57.2175 37.6355 57.2175 39.8715 57.2175C42.1478 57.2175 44.4242 57.2175 46.7005 57.2175C47.7489 57.2175 48.8332 57.1257 49.8581 57.3535" stroke="#645841" stroke-linecap="round"/>
<path d="M50.2168 53.2266C50.2168 53.4747 50.2158 53.7204 50.2592 53.9659C50.3493 54.4769 50.2892 54.9136 50.3054 55.4213C50.3371 56.4214 50.702 57.372 50.702 58.3824C50.702 58.7584 50.702 59.1345 50.702 59.5106C50.702 60.0233 50.8564 60.4761 50.933 60.9776C51.0639 61.8345 51.063 62.6965 51.191 63.5498C51.3195 64.4063 51.5902 65.2039 51.7647 66.0487C51.9261 66.8299 52.3292 67.5166 52.3654 68.3128C52.3805 68.6459 52.5681 68.9788 52.658 69.2986C52.7478 69.6178 52.7927 69.9422 52.8813 70.2612C53.1425 71.2012 53.3838 72.1749 53.8209 73.0489" stroke="#645841" stroke-linecap="round"/>
<path d="M50.0771 52.3268C51.2116 52.3268 52.2617 52.4008 53.3385 52.0419C53.6464 51.9392 53.9572 51.7882 54.2588 51.6645C54.7503 51.4629 55.3104 51.4673 55.8298 51.4258" stroke="#645841" stroke-linecap="round"/>
<path d="M55.6221 51.7031C55.9128 52.1504 55.9644 52.6504 56.0841 53.1625C56.2359 53.8116 56.5712 54.3611 56.7541 54.9915C56.8895 55.4579 56.9062 55.9493 57.0198 56.42C57.18 57.0838 57.4356 57.7276 57.6012 58.3953C57.8257 59.3004 58.0524 60.2297 58.2096 61.1446C58.3653 62.0505 58.426 62.9628 58.5639 63.8707C58.6854 64.6717 58.7143 65.4334 58.8873 66.2272C59.0783 67.1035 59.3502 68.0275 59.4264 68.9226C59.4942 69.7201 59.4341 70.5445 59.4341 71.3445C59.4341 73.413 59.7909 75.3891 60.1965 77.4168" stroke="#645841" stroke-linecap="round"/>
<path d="M57.6328 56.5547C57.9623 56.6897 58.3014 56.7958 58.6301 56.932C58.8245 57.0126 59.0414 57.0017 59.2269 57.0861C59.7172 57.3089 60.1393 57.7083 60.6362 57.8947C60.8833 57.9873 61.025 58.0095 61.2061 58.2143C61.3858 58.4174 61.6673 58.4404 61.853 58.634C62.0898 58.8809 62.3819 58.9071 62.6231 59.1884" stroke="#645841" stroke-linecap="round"/>
<path d="M63.1771 59.5352C63.1207 60.523 62.9075 61.4526 63.2926 62.4076C63.5749 63.1076 63.5499 63.8849 63.8702 64.5254" stroke="#645841" stroke-linecap="round"/>
<path d="M63.8712 64.8724C63.1303 64.8724 62.5839 64.5851 61.9074 64.3564C61.2359 64.1295 60.6513 63.6548 59.9668 63.4631C59.6251 63.3675 59.3342 63.3978 59.0195 63.209" stroke="#645841" stroke-linecap="round"/>
<path d="M6.61719 66.5996C6.65079 67.8094 6.72242 69.0298 6.96468 70.2181C7.16418 71.1966 7.56399 72.0782 7.71254 73.0735C7.89093 74.2687 8.38486 75.3108 8.38486 76.5258" stroke="#645841" stroke-linecap="round"/>
<path d="M11.5117 66.0547C11.5117 67.4391 11.5137 68.8057 11.7157 70.1793C11.7862 70.6587 11.9196 71.1422 11.9196 71.6297" stroke="#645841" stroke-linecap="round"/>
<path d="M47.9531 62.5195C48.6599 64.4396 49.2591 66.3904 50.3478 68.1323C51.2422 69.5634 51.4885 70.791 51.4885 72.4457" stroke="#645841" stroke-linecap="round"/>
<path d="M17.6308 62.9277C17.6308 63.6732 17.5802 64.3222 17.9028 64.9674" stroke="#645841" stroke-linecap="round"/>
<path d="M76.8628 56.0098C76.3928 56.4522 75.6697 56.7062 75.0405 56.7761C74.1327 56.877 74.6598 58.4562 74.787 58.9968C74.9067 59.5057 74.6411 60.4059 74.5577 60.8674C74.4167 61.6482 74.2122 62.3525 73.9543 63.0941C73.7831 63.5861 75.0539 63.3992 75.2939 63.3958C76.2313 63.3826 77.0082 62.6834 77.7318 62.201" stroke="#645841" stroke-linecap="round"/>
<path d="M77.6231 51.666C77.6231 52.9941 77.5169 54.3909 77.8404 55.6849" stroke="#645841" stroke-linecap="round"/>
<path d="M78.1659 51.3401C77.3238 51.3401 79.8443 51.2006 80.6822 51.1168C81.6003 51.025 82.5219 50.5602 83.3796 50.2539" stroke="#645841" stroke-linecap="round"/>
<path d="M83.5957 50.7969V53.0779" stroke="#645841" stroke-linecap="round"/>
<path d="M84.0312 53.8392C84.0312 53.1024 85.2131 53.0142 85.7571 52.9462C86.3344 52.874 86.7489 52.7081 87.3019 52.6203C87.943 52.5185 88.5314 52.2547 89.1363 52.0531C90.8821 51.4712 92.9475 51.7755 94.7664 51.7755C95.2471 51.7755 95.7278 51.7755 96.2086 51.7755C96.547 51.7755 96.5398 51.9992 96.806 52.0832C97.03 52.154 97.3513 52.1013 97.5844 52.1013C97.8784 52.1013 98.5154 52.2192 98.7792 52.0531C99.191 51.7938 99.2439 51.2451 98.9602 50.8583C98.7334 50.5489 98.402 50.5128 98.1577 50.3091C97.884 50.0811 98.0036 49.6031 98.3628 49.6031C98.703 49.6031 99.4794 49.9556 99.7809 50.0979C100.291 50.3387 100.81 50.2992 101.332 50.4781C101.707 50.6067 101.963 50.6893 102.364 50.6893C102.661 50.6893 102.951 50.6564 103.245 50.6048C103.497 50.5606 103.465 50.3565 103.691 50.279C104.243 50.0896 104.451 49.7192 104.451 50.5264C104.451 51.157 105.37 51.2324 105.912 51.2324C106.676 51.2324 107.293 51.045 108.036 50.9307C109.213 50.7496 110.544 50.9065 111.741 50.9065C112.73 50.9065 113.707 51.005 114.698 51.0152C115.333 51.0217 116.435 51.1267 116.997 51.516C117.455 51.8329 117.268 50.9008 117.268 50.5686C117.268 50.3912 117.182 49.935 117.287 49.7781C117.426 49.5691 118.394 49.7117 118.608 49.7117C119.247 49.7117 119.889 49.7297 120.527 49.7117C120.836 49.703 121.134 49.4839 121.42 49.4945C121.662 49.5035 121.657 50.0373 121.722 50.2126C121.92 50.7468 121.83 51.3931 121.83 51.9565C121.83 52.7239 122.037 53.3993 122.162 54.153C122.26 54.7412 122.342 55.5737 122.591 56.1202C122.731 56.4297 122.663 56.7189 122.711 57.0435C122.763 57.3942 122.995 57.6989 123.061 58.0391C123.357 59.5512 123.677 61.0385 123.677 62.583C123.677 63.078 123.469 65.6538 124.003 65.7873" stroke="#645841" stroke-linecap="round"/>
<path d="M78.2871 62.5254C79.4736 64.3051 78.9264 67.2022 78.9264 69.2497C78.9264 70.473 78.9264 71.6964 78.9264 72.9197C78.9264 74.3004 78.9048 75.6827 78.9264 77.0632C78.9459 78.3097 79.5789 79.1636 79.8261 80.307C80.4205 83.056 81.2243 85.8521 80.1576 88.6176C79.6025 90.0569 79.1395 91.0435 79.1395 92.6191C79.1395 93.5267 79.1395 94.4343 79.1395 95.342" stroke="#645841" stroke-linecap="round"/>
<path d="M79.1396 95.3425C79.9813 95.3425 81.1999 95.1059 81.9572 95.4846C83.4728 96.2424 84.8152 98.8301 86.3849 97.2604" stroke="#645841" stroke-linecap="round"/>
<path d="M86.8096 86.8184C86.8096 88.5393 87.3999 90.1507 87.4489 91.8142C87.4855 93.059 87.4489 94.3099 87.4489 95.5552" stroke="#645841" stroke-linecap="round"/>
<path d="M84.0408 86.3926C82.8791 86.9734 85.1579 93.1018 85.5324 93.8509" stroke="#645841" stroke-linecap="round"/>
<path d="M84.0404 54.6406C84.0404 56.0526 83.9244 57.5191 84.0523 58.9262C84.1756 60.2832 84.8378 61.4564 85.2006 62.7382C86.0284 65.6631 86.1714 68.8555 86.1714 71.9013" stroke="#645841" stroke-linecap="round"/>
<path d="M78.7129 56.7715C78.7129 58.5693 78.8229 60.1314 79.4942 61.7792C79.7217 62.3375 80.1967 62.7923 80.5242 63.2945C80.9517 63.9501 80.7949 64.6089 80.8438 65.3426C80.8846 65.9542 81.3834 66.3644 81.5305 66.9527C81.6881 67.583 81.6962 68.1626 81.6962 68.8113C81.6962 70.3804 81.9578 71.6689 82.3355 73.1798" stroke="#645841" stroke-linecap="round"/>
<path d="M84.8926 61.2465C85.962 61.052 86.5275 60.0906 87.5444 59.9679C89.0234 59.7894 90.2896 58.5749 91.6761 58.0382C94.9619 56.7663 98.1188 56.7715 101.585 56.7715C104.197 56.7715 106.81 56.7715 109.422 56.7715C110.527 56.7715 111.632 56.7715 112.737 56.7715C114.315 56.7715 115.403 57.2086 116.857 57.6239" stroke="#645841" stroke-linecap="round"/>
<path d="M117.496 53.7891C117.555 55.5548 118.135 57.0105 118.135 58.7139C118.135 60.2595 117.626 62.8691 118.775 64.0176" stroke="#645841" stroke-linecap="round"/>
<path d="M88.9414 61.248C88.9414 62.1085 88.8577 62.6839 89.5807 63.1659" stroke="#645841" stroke-linecap="round"/>
<path d="M93.2031 59.3301C93.5732 60.1812 93.9857 61.0386 94.2686 61.8872" stroke="#645841" stroke-linecap="round"/>
<path d="M114.939 59.7559C116.125 60.4965 116.755 62.9678 117.07 64.2308" stroke="#645841" stroke-linecap="round"/>
<path d="M90.2207 65.5098C90.4103 67.3114 91.8374 70.0682 93.204 71.2396C95.1149 72.8776 96.4747 74.4783 98.9576 75.099" stroke="#645841" stroke-linecap="round"/>
<path d="M90.8594 65.5103C90.9884 64.9944 91.853 64.9061 92.3037 64.7526C93.0719 64.4911 93.6163 64.199 94.3518 63.8529C94.9617 63.5659 95.7388 63.5924 96.3998 63.5924" stroke="#645841" stroke-linecap="round"/>
<path d="M99.3838 75.3109C101.169 75.3109 103.507 75.666 105.185 74.9794C105.923 74.6776 106.614 74.356 107.387 74.1271C108.492 73.7995 109.822 74.08 110.962 73.985C112.647 73.8446 114.112 72.9638 115.792 72.7538C117.128 72.5868 117.634 71.325 118.775 70.8359" stroke="#645841" stroke-linecap="round"/>
<path d="M112.808 64.4434C114.949 64.5124 116.607 65.3728 117.756 66.9531C118.082 67.401 117.828 68.0219 118.017 68.5395C118.246 69.1707 118.561 69.7438 118.561 70.41" stroke="#645841" stroke-linecap="round"/>
<path d="M113.873 62.3125C113.873 63.1017 113.873 63.891 113.873 64.6802C113.873 65.6209 113.272 66.4604 113.068 67.3794C112.779 68.6795 111.955 69.4807 111.955 70.8363" stroke="#645841" stroke-linecap="round"/>
<path d="M111.955 70.8353C111.402 70.7892 110.89 70.2732 110.476 69.9C110.181 69.6346 109.416 69.65 109.019 69.4383C108.703 69.2695 108.296 69.3556 107.954 69.3436C107.471 69.3267 107.394 69.0271 107.007 68.9411C106.185 68.7584 105.176 68.9174 104.331 68.9174C102.516 68.9174 100.7 68.9404 98.8856 68.9174C97.3199 68.8976 96.6 68.0588 95.334 67.4258" stroke="#645841" stroke-linecap="round"/>
<path d="M95.334 67.2136C95.334 65.5578 95.7955 64.1729 95.9733 62.5728C96.1151 61.2968 97.5432 60.6766 98.5304 60.3945" stroke="#645841" stroke-linecap="round"/>
<path d="M98.7432 60.6087C99.3465 60.5182 99.798 60.0278 100.401 59.9694C101.007 59.9108 101.651 59.9694 102.259 59.9694C103.439 59.9694 104.619 59.9694 105.799 59.9694C106.891 59.9694 107.592 60.3215 108.593 60.3956C109.217 60.4419 111.205 61.8812 111.529 62.3135" stroke="#645841" stroke-linecap="round"/>
<path d="M102.58 63.3778C103.469 63.3778 104.978 63.2714 105.729 62.8569C106.78 62.2772 107.602 63.5266 107.907 64.4433" stroke="#645841" stroke-linecap="round"/>
<path d="M94.4814 68.4922C95.738 68.4922 96.7074 69.7708 97.9975 69.7708C98.7979 69.7708 99.6639 70.0662 100.448 70.1969" stroke="#645841" stroke-linecap="round"/>
<path d="M103.645 71.4758C104.736 71.4758 105.569 70.9792 106.616 70.8483C107.518 70.7355 108.487 70.8365 109.398 70.8365" stroke="#645841" stroke-linecap="round"/>
<path d="M118.562 71.4766H118.349" stroke="#645841" stroke-linecap="round"/>
<path d="M118.349 71.0501C117.134 69.8348 116.152 69.7715 114.514 69.7715" stroke="#645841" stroke-linecap="round"/>
<path d="M97.6787 74.0325C97.9955 73.0822 100.413 72.7539 101.301 72.7539" stroke="#645841" stroke-linecap="round"/>
<path d="M120.479 64.8691C121.652 65.1134 122.934 65.9405 123.889 66.6568C124.413 67.0497 125.214 67.151 125.76 67.521C126.384 67.9445 127.04 68.4268 127.523 69.0008C127.876 69.4191 128.579 69.3993 129.051 69.6756C130.614 70.5919 131.744 71.8932 133.526 72.6116C134.01 72.8071 134.512 72.7296 135.017 72.7536C135.688 72.7856 136.079 73.1526 136.675 73.3692C138.036 73.8644 139.435 74.3873 140.842 74.7425C143.016 75.2914 145.075 75.9008 147.164 76.6604C147.838 76.9054 148.58 76.7547 149.271 76.9445C150.23 77.2081 151.224 77.617 152.16 77.9626C152.956 78.2568 153.522 78.2941 154.362 78.2941C155.388 78.2941 156.808 79.8134 157.605 80.425C158.241 80.913 158.968 80.9227 159.713 81.088C160.511 81.2655 161.02 81.9699 161.82 82.1298" stroke="#645841" stroke-linecap="round"/>
<path d="M84.2539 73.8204C85.0067 73.8204 86.1756 73.5901 86.8584 73.9625C87.6045 74.3695 87.7901 74.3894 88.6342 74.4597C89.2224 74.5087 89.8458 75.3876 90.3626 75.6909C91.2552 76.2148 92.0679 76.9091 92.9671 77.3957C94.2296 78.0789 94.9533 79.005 96.0688 79.8344C96.869 80.4295 97.1533 80.8715 97.7973 81.6102C98.8987 82.8737 100.149 83.7206 101.444 84.8067C103.489 86.5221 106.048 87.739 108.263 89.258C110.379 90.7097 112.463 92.2106 114.561 93.6856C115.847 94.59 117.05 95.2419 118.633 95.343C119.022 95.3678 119.427 95.6378 119.675 95.9349C120.544 96.9776 120.796 98.4288 121.759 99.3918" stroke="#645841" stroke-linecap="round"/>
<path d="M83.6135 74.6719C83.6135 75.4272 83.2271 75.6212 82.8558 76.2109C82.5119 76.7572 82.7611 77.9912 82.7611 78.6141C82.7611 80.2614 82.9742 81.8031 82.9742 83.4088C82.9742 83.7935 82.8106 84.6894 83.1044 84.9833C83.4721 85.351 84.7175 85.1135 85.1998 85.1135C87.5995 85.1135 89.253 85.7817 91.1191 87.1734C92.1441 87.9378 93.0228 89.3503 93.5105 90.4882C94.0562 91.7615 95.2971 92.9256 96.1505 93.9925C97.3939 95.5466 99.5244 95.5089 101.348 95.7209C102.21 95.8211 102.746 96.3227 103.55 96.5141C105.493 96.9767 105.582 99.1135 106.462 100.527C106.774 101.028 107.411 101.262 107.776 101.735C108.524 102.703 109.225 103.208 110.345 103.759C112.607 104.872 114.835 105.453 117.282 105.997" stroke="#645841" stroke-linecap="round"/>
<path d="M117.922 106.637C119.441 107.939 120.648 110.021 121.829 111.656C122.098 112.029 122.387 112.339 122.657 112.722C122.806 112.933 123.257 112.824 123.462 113.03" stroke="#645841" stroke-linecap="round"/>
<path d="M90.8594 92.1465C91.3025 92.9441 91.9593 94.1876 92.7772 94.6089C93.9192 95.1972 94.9928 95.759 95.9263 96.6925C96.5592 97.3254 96.8309 98.0533 97.5955 98.563C98.6097 99.2391 99.5594 99.9493 100.52 100.694C101.409 101.384 102.587 101.856 103.337 102.707C104.078 103.546 105.332 103.596 106.155 104.364C106.789 104.956 107.413 105.209 108.108 105.702C109.085 106.393 109.857 107.514 111.056 107.868C112.992 108.44 114.433 110.585 115.744 111.941C117.219 113.467 118.999 114.553 120.503 116.013C121.842 117.312 123.063 119.095 124.955 119.636" stroke="#645841" stroke-linecap="round"/>
<path d="M135.822 84.6875C135.395 87.817 133.805 90.3756 131.998 92.8443C131.213 93.9178 130.663 95.047 129.796 96.0644C129.424 96.5013 128.928 97.1361 128.79 97.6863" stroke="#645841" stroke-linecap="round"/>
<path d="M142.428 85.7539C142.305 87.3217 141.575 88.8461 141.197 90.371C140.814 91.9172 141.078 93.0271 139.859 94.1238C138.567 95.287 138.275 97.7396 136.675 98.5396" stroke="#645841" stroke-linecap="round"/>
<path d="M151.591 83.623C151.518 84.494 151.066 85.3542 150.833 86.192C150.383 87.8111 149.904 89.3842 149.555 91.034C149.227 92.5784 148.607 93.9806 148.607 95.5563" stroke="#645841" stroke-linecap="round"/>
<path d="M158.41 85.5391C158.41 87.0778 158.985 89.7121 157.912 90.9138C157.561 91.3079 157.039 91.8756 156.918 92.3581" stroke="#645841" stroke-linecap="round"/>
<path d="M165.868 84.2617C165.868 86.6291 166.321 88.6076 164.376 90.2284" stroke="#645841" stroke-linecap="round"/>
<path d="M136.461 85.5391C142.245 85.5391 147.998 85.9653 153.781 85.9653C156.282 85.9653 159.029 85.6542 161.511 86.06C162.465 86.2158 161.85 86.5284 161.393 86.6045" stroke="#645841" stroke-linecap="round"/>
<path d="M131.561 89.1621C133.743 89.7824 135.809 90.4234 138.072 90.7011C141.99 91.1821 145.898 90.9402 149.827 91.1273C153.59 91.3065 157.406 91.6298 161.157 91.956C161.805 92.0124 161.237 92.2168 161.015 92.2638C160.024 92.4737 158.983 92.6111 157.984 92.7847" stroke="#645841" stroke-linecap="round"/>
<path d="M130.92 95.1289C136.498 95.9708 142.596 95.5329 147.754 98.1122" stroke="#645841" stroke-linecap="round"/>
<path d="M74.0361 1.41797C74.2516 4.86605 75.4591 8.47055 76.3123 11.7767C76.7962 13.6518 76.9055 15.3881 77.1716 17.3044C77.4606 19.3854 78.4504 21.1113 78.8439 23.1573C79.4674 26.3996 80.5568 29.4394 81.5845 32.5869C82.1334 34.268 82.9482 36.2065 83.9303 37.6966C84.744 38.9311 86.1944 39.1815 86.578 40.7159" stroke="#645841" stroke-linecap="round"/>
<path d="M93.2675 6.01562C93.2675 12.8257 93.3755 19.6451 93.2675 26.4543C93.1868 31.5353 89.5049 36.0332 89.5049 41.133" stroke="#645841" stroke-linecap="round"/>
<path d="M84.9058 42.8059C86.6044 42.8059 88.8492 43.1789 90.48 42.713C93.1858 41.9399 90.5001 39.9316 89.1794 39.5543C87.6344 39.1128 84.8223 39.0078 83.9768 40.5297C82.5444 43.108 85.3258 44.014 87.4142 44.4781" stroke="#645841" stroke-linecap="round"/>
<path d="M86.5778 45.7324C84.8634 47.5004 83.6514 49.537 83.6514 52.0034" stroke="#645841" stroke-linecap="round"/>
<path d="M89.9219 44.4785C92.7344 45.2456 93.6648 48.6838 92.0122 50.7495" stroke="#645841" stroke-linecap="round"/>
<path d="M33.9025 47.4055C36.1146 49.2684 43.9468 48.367 39.8483 44.572C37.4963 42.3942 35.2613 43.1633 32.6483 44.2933C31.9021 44.6159 30.3071 44.5047 31.1154 45.9191C31.9583 47.3941 34.9714 46.9875 36.4108 46.9875" stroke="#645841" stroke-linecap="round"/>
<path d="M34.7383 48.6582C31.92 49.2219 32.6479 52.3415 32.6479 54.5111" stroke="#645841" stroke-linecap="round"/>
<path d="M39.7549 49.4941C43.0292 50.0111 44.3536 52.9439 44.3536 55.7651" stroke="#645841" stroke-linecap="round"/>
<path d="M44.3541 3.08984C45.416 6.01007 45.3737 11.9842 44.7025 15.0047C43.8993 18.6192 41.8771 22.1568 40.9167 25.7582C40.6165 26.8839 39.9216 27.6116 39.6625 28.7775C39.2577 30.5991 38.7684 32.0269 38.1528 33.7711C37.5625 35.4436 38.0831 38.1078 38.0831 39.8794" stroke="#645841" stroke-linecap="round"/>
<path d="M25.1231 1C25.1231 5.04106 24.7051 9.06816 24.7051 13.1238C24.7051 17.9305 25.4545 21.4362 26.9347 25.9909C28.0358 29.3788 30.1057 32.1407 31.2083 35.5135C31.9213 37.6945 33.5569 39.1328 33.9025 41.5522" stroke="#645841" stroke-linecap="round"/>
<path d="M36.8286 7.27148C37.0311 11.0177 38.1554 14.477 38.0828 18.3269C38.0416 20.5097 36.852 21.6989 36.0157 23.6224C34.8704 26.2566 34.7383 28.6905 34.7383 31.5192" stroke="#645841" stroke-linecap="round"/>
<path d="M80.7246 8.94336C80.4824 12.4553 79.303 14.555 80.9568 17.9085C82.621 21.2831 84.8942 23.6675 85.7413 27.3382" stroke="#645841" stroke-linecap="round"/>
<path d="M83.6522 6.43359C82.7207 8.23824 81.9784 12.8947 83.1876 14.7949C84.3501 16.6215 86.5786 16.6886 86.5786 18.9755" stroke="#645841" stroke-linecap="round"/>
<path d="M59.8218 67.4727C55.4537 61.6485 64.1198 63.292 66.9289 63.292" stroke="#645841" stroke-linecap="round"/>
<path d="M67.7646 62.8732C69.4792 61.4294 72.7208 62.0371 74.8717 62.0371" stroke="#645841" stroke-linecap="round"/>
<path d="M47.6989 11.8691C47.6989 16.9535 46.0061 25.8376 49.7428 29.7994C51.7358 31.9125 53.1995 32.2507 53.4589 35.2342C53.7844 38.9776 53.5518 42.8122 53.5518 46.5684" stroke="#645841" stroke-linecap="round"/>
<path d="M56.8955 10.1973C56.8955 15.169 57.4668 19.4283 59.9613 23.8076C60.8779 25.4167 61.3471 27.4813 61.7265 29.2888C63.2835 36.7078 61.2671 43.4414 60.6581 50.7494" stroke="#645841" stroke-linecap="round"/>
<path d="M66.0937 12.2871C65.6918 20.7285 63.5408 28.3927 66.4886 36.6045C68.57 42.4027 71.3733 45.8133 67.766 51.5851" stroke="#645841" stroke-linecap="round"/>
<path d="M73.2002 7.27148C73.2002 17.6128 77.9243 27.0252 76.5447 37.3721" stroke="#645841" stroke-linecap="round"/>
<path d="M78.2168 30.2637C78.4661 32.3416 79.3721 34.2638 80.0284 36.2327C80.8156 38.5945 80.7251 40.9075 80.7251 43.363C80.7251 47.7267 76.7671 49.4625 74.0361 52.421" stroke="#645841" stroke-linecap="round"/>
<path d="M108.318 2.25391C109.531 2.40553 109.055 3.61824 109.247 4.53003C109.686 6.60582 111.359 7.08614 112.592 8.52486C113.927 10.0828 115.762 10.8246 116.773 12.7055C117.578 14.2058 118.308 15.6871 118.77 17.3042" stroke="#645841" stroke-linecap="round"/>
<path d="M119.187 20.2305C119.187 24.0705 119.187 27.9105 119.187 31.7504C119.187 37.296 118.244 42.3498 117.515 47.8227" stroke="#645841" stroke-linecap="round"/>
<path d="M119.605 18.1409C127.786 18.1409 135.357 17.9882 143.435 16.8867" stroke="#645841" stroke-linecap="round"/>
<path d="M132.983 2.67188C133.631 4.94019 135.867 7.78691 137.42 9.56992C138.677 11.0141 139.643 13.4151 140.927 14.3777" stroke="#645841" stroke-linecap="round"/>
<path d="M142.599 19.8125C142.599 22.3166 142.684 24.8351 142.599 27.3376C142.515 29.8073 141.337 32.2446 140.741 34.6305C139.764 38.5373 140.45 42.3801 139.998 46.3363C139.532 50.4096 139.011 54.3795 138.836 58.4601C138.737 60.7781 137.582 62.5778 137.582 65.0098C137.582 66.1092 137.582 67.2085 137.582 68.3079" stroke="#645841" stroke-linecap="round"/>
<path d="M149.287 11.4515C153.496 12.5929 157.701 12.2876 162.038 12.2876C169.945 12.2876 177.676 12.0054 185.543 11.4979C189.948 11.2137 194.441 11.4797 198.851 11.4515C202.159 11.4303 205.105 10.4585 208.327 10.2437C209.035 10.1965 213.762 10.1973 212.833 10.1973" stroke="#645841" stroke-linecap="round"/>
<path d="M154.723 20.6489C159.062 20.8191 163.48 21.7453 167.822 21.2992C171.318 20.9401 174.581 19.3947 178.065 19.0231C190.326 17.7152 203.035 18.5586 215.342 18.5586" stroke="#645841" stroke-linecap="round"/>
<path d="M185.241 34.0273H219.94" stroke="#645841" stroke-linecap="round"/>
<path d="M108.318 21.9023C110.252 27.6022 112.081 33.4325 112.081 39.461" stroke="#645841" stroke-linecap="round"/>
<path d="M2.12891 10.1975C5.02438 10.1975 7.91986 10.1975 10.8153 10.1975C12.9981 10.1975 14.1742 10.5427 15.5069 8.94336" stroke="#645841" stroke-linecap="round"/>
<path d="M2.96582 27.3383C8.95531 25.7411 14.809 25.666 20.9425 25.666" stroke="#645841" stroke-linecap="round"/>
<path d="M9.23633 42.8066C9.39817 45.7197 16.1506 44.4789 18.3873 44.4789C20.5751 44.4789 23.387 44.6133 25.1227 43.2247" stroke="#645841" stroke-linecap="round"/>
<path d="M18.8516 37.7892C21.7908 37.7224 24.6775 37.3711 27.6309 37.3711" stroke="#645841" stroke-linecap="round"/>
<path d="M162.665 74.5793C167.373 74.5793 172.226 74.9175 176.926 74.5561C180.083 74.3132 182.804 75.783 185.798 76.5767C191.154 77.9963 196.485 78.6302 201.963 79.178" stroke="#645841" stroke-linecap="round"/>
<path d="M193.184 74.1598C196.643 73.8453 199.988 73.2717 203.426 74.3688C205.379 74.992 207.367 75.0404 209.302 75.7391C212.042 76.7285 214.582 77.7705 217.431 78.3404" stroke="#645841" stroke-linecap="round"/>
<path d="M146.779 31.5176C146.779 35.1718 146.779 38.8259 146.779 42.4801C146.779 46.3229 145.638 49.5842 145.316 53.3266C145.032 56.614 144.943 59.9834 145.316 63.2672C145.57 65.5089 146.361 67.7276 146.361 69.9794" stroke="#645841" stroke-linecap="round"/>
<path d="M129.639 27.7559H140.09" stroke="#645841" stroke-linecap="round"/>
<path d="M115.424 132.271C118.995 137.939 122.202 144.385 126.386 149.598C128.008 151.618 129.146 153.774 130.056 156.194C131.25 159.366 132.692 161.714 134.655 164.462" stroke="#645841" stroke-linecap="round"/>
<path d="M106.645 133.943C107.126 136.99 111.325 139.897 113.171 142.305C114.42 143.934 115.222 145.174 116.26 146.903" stroke="#645841" stroke-linecap="round"/>
<path d="M60.2402 145.648C60.3589 147.725 61.323 149.961 62.168 151.85C62.9019 153.49 64.5824 154.437 65.257 156.123C65.8253 157.544 66.791 158.488 67.4867 159.816C68.4808 161.714 70.1438 163.379 70.6918 165.297" stroke="#645841" stroke-linecap="round"/>
<path d="M43.0996 146.068C44.5783 148.41 46.6405 150.285 48.0235 152.757C48.8346 154.208 50.2067 155.183 50.2067 156.938" stroke="#645841" stroke-linecap="round"/>
<path d="M196.111 138.125C200.231 142.039 205.81 145.417 210.744 148.159" stroke="#645841" stroke-linecap="round"/>
<path d="M203.636 154.43C207.273 155.433 209.989 158.506 213.205 160.329C214.571 161.104 217.432 161.337 217.432 163.209" stroke="#645841" stroke-linecap="round"/>
</svg>
