<svg width="422" height="227" viewBox="0 0 422 227" fill="none" xmlns="http://www.w3.org/2000/svg">
<path d="M139.023 127.416C140.055 127.674 140.813 126.503 141.685 126.254C142.062 126.146 142.524 125.726 142.826 125.494C143.33 125.105 144.315 124.672 144.706 124.184C145.247 123.508 146.79 123.045 147.6 122.811C148.559 122.533 149.454 121.696 150.346 121.227C150.824 120.975 151.2 120.516 151.655 120.213C152.499 119.65 153.444 119.453 154.317 118.945C155.29 118.379 156.291 117.962 157.274 117.445C157.696 117.224 157.868 116.778 158.32 116.569C159.267 116.132 159.972 115.303 160.792 114.699C161.311 114.317 161.86 113.969 162.291 114.784C162.773 115.693 163.606 116.282 163.971 117.255C164.163 117.768 165.148 118.282 165.597 118.565C166.062 118.858 167.253 119.254 167.53 119.642C168.342 120.78 169.602 121.398 170.846 121.998C172.064 122.584 172.942 123.647 174.11 124.29C175.466 125.035 176.732 125.866 178.102 126.592C178.603 126.857 178.846 127.558 179.328 127.764C179.786 127.961 179.914 127.834 180.32 128.24C180.958 128.877 181.718 129.267 182.56 129.507" stroke="#645841" stroke-linecap="round"/>
<path d="M139.402 127.986C140.332 128.575 141.666 128.95 142.317 129.898C142.574 130.271 142.733 130.747 143.015 131.028" stroke="#645841" stroke-linecap="round"/>
<path d="M143.585 131.407C143.585 130.391 143.41 130.039 144.451 129.791C145.67 129.501 144.551 128.243 145.518 127.953C146.248 127.734 146.573 127.414 147.367 127.414C147.754 127.414 148.141 127.414 148.528 127.414C149.335 127.414 149.623 126.267 149.838 125.513C150.087 124.644 151.043 124.704 151.845 124.753C152.551 124.796 153.165 125.133 153.957 125.133C154.391 125.133 154.833 125.156 155.267 125.133C156.45 125.069 157.35 123.677 158.33 123.126C159.05 122.721 159.583 121.953 159.745 121.141" stroke="#645841" stroke-linecap="round"/>
<path d="M159.936 121.332C160.107 121.848 160.59 122.419 160.886 122.864C161.137 123.24 161.929 123.662 162.386 123.761C163.512 124.005 164.677 124.374 165.871 124.374C166.7 124.374 169.259 123.949 169.737 124.754C170.236 125.594 170.06 125.465 169.843 126.444C169.695 127.106 169.786 127.593 170.297 127.986C171.024 128.545 172.553 128.061 173.434 128.187C173.867 128.249 173.994 129.209 174.004 129.591C174.032 130.625 174.075 130.648 175.06 130.648C175.617 130.648 176.263 130.56 176.813 130.648C176.875 130.657 177.784 131.884 177.986 132.073C178.473 132.53 178.635 131.565 178.905 131.176C179.291 130.618 179.561 129.905 179.898 129.317" stroke="#645841" stroke-linecap="round"/>
<path d="M217.889 128.459C218.765 128.751 219.612 128.839 219.998 129.74C220.363 130.592 221.164 131.189 221.164 132.152C221.164 133.329 221.738 132.374 222.229 131.883C222.646 131.465 223.47 131.007 224.076 131.007C224.221 131.007 224.821 131.091 224.898 130.953C225.114 130.563 224.845 129.849 224.945 129.416C225.075 128.854 225.793 128.012 226.354 127.785C226.559 127.702 226.781 127.786 226.98 127.711C227.22 127.621 227.238 127.367 227.533 127.367C228.232 127.367 228.93 127.367 229.629 127.367C230.668 127.367 230.505 126.007 230.505 125.184" stroke="#645841" stroke-linecap="round"/>
<path d="M230.623 125.061C230.244 125.061 230.944 124.712 231.081 124.697C231.461 124.656 231.871 124.697 232.254 124.697C233.2 124.697 233.718 124.482 234.599 124.239C236.293 123.772 237.706 122.455 239.115 121.449C239.33 121.295 239.706 121.031 239.964 120.963C240.264 120.885 240.892 121.877 241.116 122.015C241.518 122.262 241.97 122.292 242.323 122.621C242.578 122.86 243.005 123.109 243.307 123.268C243.771 123.514 244.173 123.728 244.668 123.875C245.026 123.981 245.134 124.333 245.483 124.441C246.422 124.73 247.373 124.888 248.307 125.155C248.944 125.337 249.795 125.182 250.457 125.182C251.098 125.182 250.688 125.319 250.538 125.668C250.349 126.108 250.411 126.576 250.087 127.002C249.889 127.262 250.001 128.827 250.457 128.687C250.929 128.542 251.141 128.051 251.556 127.885C251.812 127.782 252.408 127.73 252.701 127.73C253.596 127.73 254.375 127.835 255.242 127.979C255.502 128.023 255.846 129.293 255.856 129.577C255.877 130.2 256.418 130.489 257.042 130.52C257.239 130.53 257.55 130.455 257.736 130.54C257.969 130.648 258.005 130.851 258.282 130.891C258.745 130.957 258.948 131.365 259.185 131.726C259.558 132.295 259.52 132.461 260.223 132.461" stroke="#645841" stroke-linecap="round"/>
<path d="M216.797 128.701C217.747 128.301 218.622 127.885 219.58 127.502C220.115 127.288 220.509 126.913 221.043 126.706C221.834 126.401 222.276 125.673 223.031 125.325C223.944 124.903 224.768 124.217 225.653 123.714C225.99 123.522 226.23 123.339 226.542 123.121C227.02 122.787 227.649 122.745 228.025 122.272C228.254 121.983 228.331 121.964 228.679 121.894C228.974 121.835 229.203 121.49 229.481 121.355C230.063 121.073 230.517 120.529 231.085 120.263C232.136 119.773 233.018 119.12 233.915 118.417C234.444 118.003 235.205 117.823 235.654 117.325C236.119 116.808 236.581 116.417 237.123 115.977C237.45 115.712 237.774 115.534 238.141 115.35C238.529 115.156 238.758 114.71 239.213 114.508C239.521 114.371 239.639 113.787 239.9 113.591C240.303 113.289 242.275 115.306 242.609 115.64C242.924 115.955 243.203 116.287 243.512 116.597C244.275 117.36 244.919 117.78 245.844 118.322C246.483 118.697 246.95 119.24 247.543 119.697C248.239 120.235 249.105 120.542 249.841 121.005C250.892 121.667 251.951 122.507 253.123 123.013C254.41 123.569 255.642 124.194 256.803 124.995C258.007 125.825 259.235 126.629 260.429 127.488C260.82 127.77 261.276 127.77 261.655 128.027C262.002 128.263 262.519 128.459 262.956 128.459C263.418 128.459 262.68 129.185 262.538 129.369C262.297 129.682 261.942 129.938 261.925 130.373C261.912 130.7 261.803 130.997 261.803 131.323C261.803 131.863 261.439 132.157 261.439 132.705" stroke="#645841" stroke-linecap="round"/>
<path d="M261.075 132.703C261.075 133.253 260.173 132.824 259.74 132.824" stroke="#645841" stroke-linecap="round"/>
<path d="M151.529 134.039C151.821 133.573 154.2 133.918 154.778 133.918C155.417 133.918 156.043 133.805 156.678 133.797C158.596 133.771 160.516 133.797 162.434 133.797C163.589 133.797 165.199 134.074 166.275 133.608C167.195 133.21 168.623 133.554 169.605 133.554" stroke="#645841" stroke-linecap="round"/>
<path d="M160.385 137.922C160.439 138.677 160.765 139.553 161.032 140.254C161.348 141.085 161.274 141.928 161.416 142.781C161.742 144.736 161.477 146.9 161.477 148.88C161.477 149.695 161.458 150.483 161.382 151.293C161.256 152.631 160.991 154.062 160.991 155.404C160.991 156.775 160.991 158.145 160.991 159.515" stroke="#645841" stroke-linecap="round"/>
<path d="M153.836 149.324C155.166 149.324 156.496 149.324 157.826 149.324C158.422 149.324 159.023 149.345 159.618 149.324C160.17 149.304 160.639 149.052 161.175 148.98C163.155 148.716 165.302 148.96 167.302 148.96" stroke="#645841" stroke-linecap="round"/>
<path d="M151.65 134.523C151.65 135.701 151.65 136.878 151.65 138.055C151.65 139.221 151.896 140.288 152.001 141.438C152.294 144.659 152.014 148.028 152.014 151.264C152.014 152.374 152.014 153.484 152.014 154.594C152.014 155.832 152.257 156.995 152.257 158.24C152.257 160.08 152.257 161.92 152.257 163.759" stroke="#645841" stroke-linecap="round"/>
<path d="M152.744 164.245C153.132 164.245 153.548 164.286 153.93 164.218C154.359 164.142 154.608 163.76 155.056 163.76C155.781 163.76 156.507 163.76 157.233 163.76C158.951 163.76 160.67 163.76 162.388 163.76C164.754 163.76 167.12 163.76 169.485 163.76" stroke="#645841" stroke-linecap="round"/>
<path d="M169.726 133.918C169.726 135.149 169.693 136.374 169.82 137.598C169.952 138.869 170.09 140.098 170.09 141.385C170.09 144.946 170.09 148.507 170.09 152.068C170.09 153.215 170.09 154.363 170.09 155.511C170.09 156.771 169.292 157.938 169.241 159.218C169.18 160.731 169.554 162.491 168.998 163.882" stroke="#645841" stroke-linecap="round"/>
<path d="M234.508 150.416C238.503 150.416 242.511 150.537 246.518 150.537" stroke="#645841" stroke-linecap="round"/>
<path d="M240.693 138.527V161.334" stroke="#645841" stroke-linecap="round"/>
<path d="M154.523 137.632C154.551 137.196 157.136 137.438 157.603 137.438C158.676 137.438 159.749 137.438 160.822 137.438C161.714 137.438 162.606 137.438 163.498 137.438C164.649 137.438 165.694 137.826 166.83 137.826" stroke="#645841" stroke-linecap="round"/>
<path d="M154.91 160.695C158.953 160.695 162.989 160.598 167.023 160.598" stroke="#645841" stroke-linecap="round"/>
<path d="M167.217 137.826C167.217 139.054 167.217 140.281 167.217 141.509C167.217 142.73 167.309 143.973 167.066 145.169C166.863 146.172 167.038 147.322 167.023 148.346C167.01 149.256 166.732 150.168 166.732 151.064C166.732 154.275 166.732 157.485 166.732 160.696" stroke="#645841" stroke-linecap="round"/>
<path d="M154.717 138.309C154.607 139.013 154.634 139.697 154.62 140.408C154.611 140.901 154.427 141.336 154.427 141.84C154.427 142.958 154.427 144.076 154.427 145.194C154.427 146.03 154.241 146.736 154.152 147.552C154.094 148.089 154.145 148.644 154.136 149.183C154.118 150.318 154.039 151.455 154.039 152.597C154.039 155.263 154.039 157.93 154.039 160.597" stroke="#645841" stroke-linecap="round"/>
<path d="M233.908 138.178C234.198 137.715 235.339 138.178 235.783 138.178C236.607 138.178 237.432 138.178 238.256 138.178C239.561 138.178 240.941 138.03 242.238 138.183C242.782 138.247 243.293 138.488 243.851 138.488C244.324 138.488 244.797 138.488 245.27 138.488C245.818 138.488 246.365 138.488 246.913 138.488" stroke="#645841" stroke-linecap="round"/>
<path d="M233.445 161.789C234.8 161.525 236.396 161.712 237.784 161.712C238.368 161.712 238.951 161.712 239.535 161.712C240.162 161.712 240.892 161.823 241.496 161.634C242.491 161.323 243.72 161.634 244.764 161.634C245.378 161.634 245.991 161.634 246.605 161.634" stroke="#645841" stroke-linecap="round"/>
<path d="M234.371 138.102C234.322 138.751 234.073 139.375 234.001 140.028C233.954 140.459 233.984 140.903 233.984 141.336C233.984 142.643 233.984 143.95 233.984 145.258C233.984 146.875 233.868 148.541 234.001 150.151C234.208 152.655 234.061 155.201 234.061 157.712C234.061 158.282 234.1 158.872 234.044 159.441C234.003 159.862 233.789 160.289 233.709 160.713C233.621 161.181 233.674 161.702 233.674 162.176" stroke="#645841" stroke-linecap="round"/>
<path d="M246.913 138.721C246.913 140.133 246.449 141.492 246.449 142.896C246.449 144.046 246.294 145.153 246.294 146.302C246.294 147.13 246.294 147.957 246.294 148.784C246.294 149.051 246.198 149.527 246.371 149.751C246.578 150.021 246.579 150.281 246.642 150.599C246.786 151.317 246.681 152.137 246.681 152.869C246.681 153.888 246.585 154.951 246.801 155.94C246.975 156.734 246.836 157.7 246.836 158.52C246.836 159.326 246.836 160.131 246.836 160.937" stroke="#645841" stroke-linecap="round"/>
<path d="M230.27 165.195C231.166 165.243 232.055 165.378 232.953 165.415C233.764 165.448 234.578 165.408 235.387 165.488C235.616 165.51 235.807 165.622 236.032 165.651C236.437 165.703 236.874 165.66 237.279 165.66C238.899 165.66 240.52 165.679 242.139 165.66C242.47 165.656 242.777 165.564 243.102 165.509C243.744 165.401 244.397 165.428 245.046 165.428C245.777 165.428 246.508 165.428 247.239 165.428C247.931 165.428 248.618 165.35 249.312 165.35" stroke="#645841" stroke-linecap="round"/>
<path d="M231.119 135.471C231.831 135.48 232.406 135.687 233.089 135.763C233.703 135.831 234.275 135.746 234.878 135.901C236.37 136.285 238.043 136.09 239.574 136.09C242.768 136.09 245.962 136.09 249.155 136.09" stroke="#645841" stroke-linecap="round"/>
<path d="M249.979 136.539C249.979 136.156 249.979 138.249 249.979 138.8C249.979 139.763 249.699 141.251 250.085 142.145C251.04 144.352 250.455 147.639 250.455 150.052C250.455 153.022 250.455 155.993 250.455 158.963C250.455 160.392 251.088 164.267 249.979 165.098" stroke="#645841" stroke-linecap="round"/>
<path d="M231.177 135.348C231.177 140.822 230.939 146.325 230.939 151.822C230.939 153.485 230.994 155.158 230.939 156.82C230.905 157.851 230.463 158.661 230.463 159.742C230.463 161.376 230.317 163.084 230.701 164.621" stroke="#645841" stroke-linecap="round"/>
<path d="M256.275 137.821C255.932 137.692 258.385 134.893 258.781 134.539C259.467 133.925 259.77 132.902 260.417 132.227C261.028 131.59 261.442 131.573 262.265 131.409C263.306 131.2 264.412 131.291 265.471 131.291C267.565 131.291 269.599 130.987 271.689 130.987C276.507 130.987 281.348 131.204 286.142 130.751C288.68 130.51 291.262 130.711 293.802 130.801C295.129 130.848 296.457 130.835 297.785 130.835C298.167 130.835 298.65 130.804 299 130.995C299.324 131.172 299.409 131.744 299.818 131.965C300.425 132.295 301.071 132.584 301.691 132.894C302.654 133.375 303.353 134.165 304.231 134.75C304.937 135.221 305.372 135.577 305.749 136.37C306.187 137.29 305.194 137.792 304.576 138.183C303.252 139.023 300.806 138.25 299.405 137.905C298.297 137.632 297.182 137.109 296.064 136.943C295.152 136.808 294.167 136.91 293.246 136.91C290.986 136.91 288.714 137.517 286.462 137.517C285.239 137.517 284.148 137.11 282.995 136.918C281.528 136.673 279.479 136.974 278.143 137.584C277.637 137.816 276.984 137.814 276.507 138.074C275.854 138.43 275.335 138.207 274.718 138.453C272.74 139.245 270.797 139.187 268.694 139.187C267.723 139.187 266.358 138.936 265.505 138.496C264.42 137.936 262.854 137.976 261.683 137.795C261.152 137.714 260.764 137.365 260.215 137.365C259.911 137.365 259.607 137.365 259.304 137.365C258.563 137.365 258.017 137.442 257.338 137.669" stroke="#645841" stroke-linecap="round"/>
<path d="M92.627 135.792C92.977 135.277 93.4817 134.823 93.9428 134.407C94.5647 133.845 95.1951 133.193 95.9328 132.786C96.578 132.43 97.0728 131.754 97.7474 131.475C98.0307 131.358 98.341 131.395 98.6385 131.346C99.4086 131.217 100.248 131.304 101.026 131.304C102.135 131.304 103.245 131.304 104.355 131.304C104.675 131.304 105.028 131.267 105.347 131.318C105.592 131.357 105.802 131.495 106.044 131.54C106.598 131.64 107.238 131.553 107.799 131.553C108.916 131.553 110.034 131.553 111.151 131.553C114.027 131.553 116.904 131.553 119.78 131.553C123.052 131.553 126.324 131.553 129.597 131.553C130.315 131.553 131.034 131.553 131.753 131.553C132.196 131.553 132.639 131.553 133.082 131.553C133.227 131.553 133.699 131.633 133.83 131.516C134.283 131.114 134.796 131.62 135.169 131.923C135.453 132.153 135.907 132.409 136.056 132.772C136.115 132.918 136.089 133.081 136.213 133.197C136.319 133.296 136.395 133.313 136.425 133.465C136.478 133.73 136.856 134.111 137.007 134.351C137.211 134.676 137.415 134.965 137.626 135.275C138.059 135.914 136.394 136.35 135.973 136.438C135.237 136.593 134.358 136.479 133.664 136.263C132.765 135.983 131.645 136.265 130.709 136.207C130.368 136.187 130 135.959 129.647 135.894C129.203 135.811 128.906 135.395 128.493 135.21C127.179 134.622 125.738 134.184 124.31 134.005C123.707 133.93 122.777 133.868 122.278 134.273C121.939 134.548 121.545 134.689 121.184 134.924C120.908 135.104 120.898 135.21 120.547 135.21C120.243 135.21 120.169 135.46 119.854 135.46C119.596 135.46 119.335 135.542 119.092 135.626C117.997 136.003 116.777 135.46 115.68 135.46C115.1 135.46 114.426 135.543 113.852 135.418C112.897 135.21 112.089 134.878 111.114 134.878C110.45 134.878 109.742 135.024 109.106 135.224C108.502 135.413 107.914 135.507 107.31 135.663C107.127 135.71 106.828 135.816 106.672 135.93C106.233 136.253 105.625 136.374 105.075 136.374C104.427 136.374 103.991 135.915 103.366 135.875C102.765 135.837 102.083 135.589 101.501 135.423C100.877 135.244 100.234 135.293 99.5896 135.293C99.2707 135.293 98.9476 135.278 98.6293 135.293C98.1466 135.317 97.5181 135.662 97.0687 135.838C96.4707 136.072 96.0606 136.207 95.4342 136.207C94.7478 136.207 94.0613 136.207 93.3749 136.207" stroke="#645841" stroke-linecap="round"/>
<path d="M82.7969 133.278C85.3553 133.152 87.4998 131.911 89.9314 131.382C91.4477 131.053 92.9918 130.85 94.461 130.34C95.6252 129.937 96.8142 129.612 98.021 129.364C100.364 128.881 102.579 128.246 104.837 127.461C106.127 127.012 107.476 126.906 108.788 126.563C111.229 125.925 113.576 125.239 115.937 124.349C116.503 124.136 117.123 123.848 117.63 123.51C117.98 123.277 117.919 123.8 118.209 124.002C118.775 124.396 119.301 124.719 119.953 124.921C124.012 126.175 128.149 127.124 132.304 128.011C133.857 128.342 135.433 128.598 136.957 129.052C138.312 129.457 139.729 129.484 141.089 129.906C143.41 130.628 145.802 130.941 148.129 131.636C149.134 131.936 150.261 132.105 151.175 132.627" stroke="#645841" stroke-linecap="round"/>
<path d="M246.775 135.102C248.719 134.767 250.66 134.248 252.564 133.734C254.243 133.282 256.152 133.155 257.745 132.468C260.37 131.335 263.427 131.061 266.182 130.312C267.853 129.857 269.621 129.573 271.247 128.98C272.71 128.447 274.275 128.422 275.777 128.047C276.999 127.741 278.207 127.215 279.402 126.817C280.134 126.573 281.328 126.148 281.913 125.681C282.304 125.368 283.258 125.714 283.642 125.818C285.865 126.42 288.108 126.868 290.335 127.425C291.393 127.689 292.303 128.326 293.403 128.561C295.171 128.938 296.922 129.433 298.671 129.892C301.373 130.602 304.082 131.537 306.84 131.976C308.804 132.289 310.704 132.74 312.65 133.148C314.304 133.495 316.026 133.656 317.628 134.19" stroke="#645841" stroke-linecap="round"/>
<path d="M263.885 54.6387C263.885 58.2007 265.167 64.8012 263.133 67.7839C261.517 70.1539 262.381 74.7213 262.381 77.4758C262.381 81.2448 262.381 85.0139 262.381 88.7829C262.381 100.461 262.381 112.14 262.381 123.818" stroke="#645841" stroke-linecap="round"/>
<path d="M140.566 56.1426C140.566 79.036 140.064 147.714 140.064 124.821" stroke="#645841" stroke-linecap="round"/>
<path d="M155.102 57.6471C160.213 55.2215 165.06 50.2295 170.642 48.7072C175.097 47.4922 178.851 44.2594 183.564 43.4992C186.758 42.9841 190.98 40.8956 192.95 38.3191C196.211 34.0542 201.361 35.4802 204.898 38.152C207.041 39.7713 209.73 40.6238 212.306 41.9118C214.897 43.2073 216.639 44.5157 219.491 45.3374C221.295 45.857 223.157 45.9345 224.95 46.4235C225.981 46.7049 226.829 47.5138 227.902 47.6211C231.174 47.9483 234.471 49.1516 237.12 50.8795C239.912 52.7004 248.344 51.6069 248.344 55.6419" stroke="#645841" stroke-linecap="round"/>
<path d="M180.945 50.9833C182.992 49.164 185.997 49.7491 188.338 48.7086C190.886 47.576 193.548 46.553 196.033 45.2788C197.302 44.628 197.963 43.6006 199.107 42.8086C200.944 41.5373 203.452 41.1905 205.256 42.6664C206.412 43.6119 207.977 44.4794 209.343 45.0833C211.757 46.1497 214.276 47.4125 216.754 48.2821C218.071 48.7442 219.699 49.7037 221.09 49.7037C223.965 49.7037 218.881 50.0236 218.336 50.0236C214.781 50.0236 211.227 50.0236 207.673 50.0236C200.47 50.0236 193.267 50.0236 186.063 50.0236" stroke="#645841" stroke-linecap="round"/>
<path d="M163.672 55.7791C166.725 55.6464 169.636 54.5807 172.664 54.4996C175.419 54.4258 178.188 54.4996 180.945 54.4996C188.848 54.4996 196.75 54.4996 204.652 54.4996C215.409 54.4996 226.167 54.4996 236.924 54.4996" stroke="#645841" stroke-linecap="round"/>
<path d="M169.672 62.164C175.373 62.164 181.139 62.3853 186.821 62.0409C188.922 61.9136 191.277 62.4117 193.347 61.9758C194.453 61.7431 195.385 61.9035 196.502 61.9035" stroke="#645841" stroke-linecap="round"/>
<path d="M206.137 62.4251C209.914 62.4251 213.691 62.4251 217.468 62.4251C219.672 62.4251 221.827 62.4382 223.995 62.0994C225.007 61.9413 226.186 62.2704 227.135 61.839C227.942 61.472 228.934 61.6436 229.812 61.6436C230.994 61.6436 232.176 61.6436 233.358 61.6436" stroke="#645841" stroke-linecap="round"/>
<path d="M204.967 98.1122C205.516 97.3373 207.026 97.7428 207.89 97.5912C208.592 97.4681 209.267 97.4609 209.974 97.4609C212.676 97.4609 215.262 98.1122 217.962 98.1122C220.959 98.1122 224.002 98.468 226.993 98.2135C228.477 98.0871 229.99 98.2601 231.464 98.1049C232.088 98.0393 232.583 97.7214 233.23 97.7214" stroke="#645841" stroke-linecap="round"/>
<path d="M169.148 97.7219C171.995 97.7219 174.841 97.7219 177.687 97.7219C178.642 97.7219 179.614 97.6722 180.567 97.7436C181.511 97.8145 182.315 98.1127 183.287 98.1127C185.058 98.1127 186.828 98.1127 188.598 98.1127C191.493 98.1127 194.387 98.1127 197.281 98.1127" stroke="#645841" stroke-linecap="round"/>
<path d="M169.539 63.0762C169.539 64.3304 169.539 65.5846 169.539 66.8388C169.539 68.5476 169.93 70.1809 169.93 71.8604C169.93 75.4012 169.93 78.9419 169.93 82.4826C169.93 83.1459 169.93 83.8092 169.93 84.4725C169.93 85.1173 169.704 85.7057 169.677 86.3465C169.587 88.4611 169.669 90.5982 169.669 92.7141C169.669 94.3831 169.669 96.0522 169.669 97.7212" stroke="#645841" stroke-linecap="round"/>
<path d="M196.373 62.0332C196.916 62.0332 197.458 62.0332 198.001 62.0332C198.604 62.0332 198.581 62.1954 198.587 62.8147C198.608 65.0622 198.587 67.3108 198.587 69.5584C198.587 74.3823 198.587 79.2062 198.587 84.0301C198.587 89.0339 198.457 94.0263 198.457 99.0227" stroke="#645841" stroke-linecap="round"/>
<path d="M205.228 62.6855C205.228 56.4071 205.098 75.2419 205.098 81.5204C205.098 84.3978 205.098 87.2752 205.098 90.1527C205.098 90.4544 205.125 90.7494 205.011 91.0355C204.72 91.7636 204.775 92.3078 204.678 93.0615C204.518 94.3011 204.577 95.5597 204.577 96.8096" stroke="#645841" stroke-linecap="round"/>
<path d="M234.011 61.123C234.011 63.679 233.936 66.2494 233.881 68.8075C233.864 69.6216 233.673 70.4179 233.635 71.2315C233.575 72.5032 233.621 73.7863 233.621 75.0592C233.621 77.4014 233.881 79.7259 233.881 82.078C233.881 83.7043 233.621 85.2921 233.621 86.9115C233.621 88.6484 233.735 90.4263 233.592 92.1575C233.447 93.9067 232.709 95.5294 232.709 97.2732C232.709 97.8569 232.709 98.4406 232.709 99.0242" stroke="#645841" stroke-linecap="round"/>
<path d="M206.922 79.6187C207.658 79.0488 208.832 79.228 209.708 79.228C211.15 79.228 212.592 79.228 214.035 79.228C216.825 79.228 219.616 79.228 222.407 79.228C224.609 79.228 227.341 79.6228 229.527 79.0399C230.389 78.8098 230.897 78.707 231.799 78.707" stroke="#645841" stroke-linecap="round"/>
<path d="M219.945 63.2051C219.437 64.0096 219.466 65.1269 219.569 66.056C219.682 67.076 219.815 68.0211 219.815 69.0661C219.815 72.0296 219.945 74.9974 219.945 77.9661C219.945 79.4977 220.123 81.1653 219.815 82.6767C219.672 83.3774 219.64 84.0852 219.583 84.7967C219.504 85.7847 219.257 86.7471 219.185 87.7345C219.091 89.0333 218.643 90.2647 218.643 91.555C218.643 92.3509 218.643 93.1469 218.643 93.9428" stroke="#645841" stroke-linecap="round"/>
<path d="M183.735 62.9453C183.735 65.2656 183.735 67.5859 183.735 69.9062C183.735 71.1247 183.769 72.3492 183.735 73.5675C183.713 74.3819 183.366 75.172 183.272 75.9842C183.172 76.8504 183.214 77.7333 183.214 78.6036C183.214 80.8467 183.214 83.0898 183.214 85.3329C183.214 86.7361 183.423 88.3074 183.157 89.6889C182.813 91.4709 182.303 93.1285 182.303 94.9566C182.303 95.6608 182.303 96.3651 182.303 97.0694" stroke="#645841" stroke-linecap="round"/>
<path d="M170.842 80.1387C179.536 80.1387 188.201 80.2689 196.891 80.2689" stroke="#645841" stroke-linecap="round"/>
<path d="M169.502 59.7493C169.502 57.994 172.15 57.3668 173.547 57.3391C174.097 57.3282 174.649 57.3391 175.2 57.3391C175.692 57.3391 176.097 57.5094 176.571 57.5931C177.092 57.685 177.497 58.0259 178.034 58.0825C178.498 58.1312 178.86 58.1773 179.272 58.3272C179.753 58.5023 180.451 58.4515 180.943 58.3364C181.687 58.1627 182.312 57.4302 182.956 57.0159C183.038 56.9632 183.403 56.6115 183.483 56.6835C183.873 57.0344 184.179 57.5981 184.526 58.004C184.712 58.2211 184.946 58.456 185.163 58.6319C185.453 58.8661 186.553 58.4815 186.862 58.4011C187.224 58.3071 187.592 58.2152 187.911 58.0178C188.609 57.5847 189.176 57.2425 189.947 56.9975C190.641 56.7764 191.241 56.7574 191.96 56.7574C192.244 56.7574 192.578 56.7073 192.856 56.7712C193.162 56.842 193.453 57.1136 193.733 57.2606C194.147 57.4786 194.443 57.7949 194.901 57.9532C195.364 58.1132 195.864 58.1636 196.337 58.2949C196.867 58.4421 197.518 58.1861 197.99 57.9763C198.359 57.8121 198.562 57.4499 198.886 57.2653C199.195 57.0886 199.255 58.542 199.255 58.752C199.255 59.2506 199.255 59.7493 199.255 60.2479" stroke="#645841" stroke-linecap="round"/>
<path d="M204.576 61.4926C204.576 61.2713 204.544 61.0708 204.489 60.8555C204.33 60.2327 204.33 59.6122 204.327 58.9717C204.325 58.4592 204.327 57.9466 204.327 57.4341C204.327 57.2349 204.594 57.7303 204.738 57.8682C205.242 58.3513 205.929 58.786 206.636 58.8331C206.925 58.8524 207.178 58.9334 207.476 58.9162C207.981 58.8871 208.035 58.4541 208.395 58.2191C209.369 57.5821 210.582 57.1495 211.631 56.6723C212.404 56.3213 213.57 57.12 214.097 57.6327C214.315 57.8453 214.55 57.9977 214.771 58.1867C214.886 58.2853 215.249 58.5007 215.385 58.5007C215.801 58.5007 216.216 58.5007 216.632 58.5007C217.218 58.5007 217.536 57.9085 218.059 57.7343C218.684 57.5259 219.554 55.761 220.247 56.2291C220.531 56.4208 220.413 56.7137 220.589 56.9032C220.769 57.0977 220.913 57.3103 221.083 57.4988C221.309 57.7507 221.746 57.7355 222.029 57.8774C222.39 58.0575 222.93 58.1292 223.341 58.0852C223.61 58.0563 223.862 57.7372 224.089 57.605C224.403 57.4217 224.776 57.3192 225.132 57.2633C225.441 57.2148 225.688 57.0748 225.977 57.014C226.69 56.864 227.748 56.7781 228.429 57.0232C228.883 57.1869 229.237 57.4413 229.726 57.4988C230.081 57.5405 230.464 57.5034 230.82 57.5034C231.048 57.5034 231.276 57.4971 231.504 57.5034C231.676 57.5082 231.836 57.5677 232.007 57.5819C232.301 57.6064 232.391 57.4594 232.626 57.351C233.156 57.1064 233.371 57.8438 233.618 58.1221C233.975 58.5238 233.786 59.1194 233.914 59.6181C234.01 59.9939 233.997 60.36 233.997 60.7446" stroke="#645841" stroke-linecap="round"/>
<path d="M203.352 99.0135C203.352 99.9456 203.551 100.85 203.551 101.787C203.551 101.826 203.506 102.291 203.565 102.318C203.713 102.387 204.162 102.199 204.311 102.167C204.613 102.103 204.888 101.937 205.181 101.876C205.828 101.739 206.498 101.487 207.165 101.54C208.146 101.618 209.03 102.249 210.013 102.333C210.196 102.349 210.338 102.48 210.518 102.488C210.675 102.494 210.842 102.466 211.001 102.466C211.489 102.466 211.949 102.478 212.425 102.362C212.859 102.256 213.357 102.159 213.774 102.001C214.003 101.915 214.139 101.764 214.394 101.706C214.812 101.611 215.171 101.486 215.571 101.341C216.307 101.073 217.046 101.089 217.809 101.138C218.022 101.152 218.227 101.456 218.422 101.558C218.676 101.693 219.069 101.929 219.27 102.13C219.399 102.259 219.589 102.173 219.76 102.208C220.033 102.262 220.185 102.428 220.413 102.2C221.009 101.604 221.67 101.536 222.508 101.536C223.109 101.536 223.447 101.718 223.998 101.964C224.282 102.091 224.69 101.957 224.935 102.112C225.177 102.265 225.333 102.267 225.628 102.267C226.07 102.267 226.346 102.169 226.764 101.997C227.266 101.791 227.778 101.666 228.277 101.466C228.665 101.311 229.032 101.006 229.457 100.942C230.346 100.809 231.269 100.872 232.164 100.872C232.555 100.872 232.868 100.891 233.226 101.057C233.422 101.147 233.715 101.3 233.931 101.333C234.292 101.389 234.39 101.181 234.558 100.891C234.956 100.202 234.82 99.3158 234.82 98.5488" stroke="#645841" stroke-linecap="round"/>
<path d="M167.968 98.6816C167.853 99.546 167.902 100.436 167.902 101.308C167.902 101.459 167.839 101.69 168.012 101.739C168.717 101.94 169.362 102.009 170.1 102.001C170.441 101.997 170.655 101.815 170.93 101.636C171.16 101.486 171.562 101.494 171.826 101.566C172.073 101.633 172.26 101.689 172.479 101.798C172.687 101.902 172.754 102.062 172.947 102.167C173.601 102.521 174.358 102.599 175.097 102.599C175.842 102.599 176.6 102.585 177.174 102.071C177.776 101.532 178.781 101.404 179.553 101.404C179.872 101.404 180.287 101.439 180.582 101.581C180.947 101.756 181.436 101.936 181.755 102.185C181.898 102.298 182.453 102.871 182.692 102.65C183.227 102.153 183.709 101.438 184.484 101.286C184.651 101.253 184.781 101.164 184.941 101.116C185.22 101.033 185.539 101.072 185.827 101.072C186.247 101.072 186.725 101.135 187.117 101.3C187.406 101.422 187.652 101.613 187.914 101.78C187.994 101.831 188.163 101.851 188.213 101.935C188.29 102.063 188.546 102.05 188.674 102.067C189.136 102.132 189.601 102.184 190.068 102.197C190.472 102.208 190.902 102.234 191.307 102.2C191.541 102.181 191.858 101.858 192.089 101.769C192.812 101.489 193.613 101.486 194.376 101.566C194.863 101.617 195.288 101.802 195.755 101.927C195.869 101.958 196.32 101.934 196.412 102.012C196.92 102.448 197.479 102.555 198.086 102.798C199.399 103.323 199.104 99.6802 199.104 99.0136" stroke="#645841" stroke-linecap="round"/>
<path d="M164.048 98.1523C164.334 98.2275 164.501 98.6814 164.616 98.9195C164.799 99.2949 164.802 99.6847 164.912 100.078C165.09 100.721 165.166 101.208 164.742 101.778C164.516 102.081 164.446 102.431 164.255 102.733C164.113 102.957 164.048 102.983 164.048 103.257C164.048 103.58 163.797 103.761 163.857 104.101C163.952 104.652 164.49 104.814 164.657 105.26C164.715 105.414 164.858 105.481 164.897 105.654C164.941 105.853 164.912 106.079 164.912 106.281C164.912 106.786 164.815 107.175 164.609 107.642C164.477 107.942 164.197 108.059 164.181 108.413C164.17 108.676 164.181 108.942 164.181 109.206C164.181 109.723 164.278 110.336 164.616 110.744C164.891 111.075 165.443 111.071 165.834 111.135C166.647 111.268 166.979 111.059 167.331 110.338C167.559 109.872 167.58 109.192 167.456 108.686C167.31 108.089 167.302 107.577 167.302 106.96C167.302 106.454 167.337 106.083 167.515 105.617C167.598 105.401 167.757 105.307 167.906 105.149C168.083 104.963 168.281 104.981 168.467 104.843C168.907 104.516 168.895 103.908 168.895 103.427C168.895 102.775 168.895 102.123 168.895 101.472" stroke="#645841" stroke-linecap="round"/>
<path d="M198.438 102.931C198.397 103.124 198.284 103.292 198.25 103.488C198.201 103.775 198.28 104.083 198.302 104.37C198.32 104.602 198.627 104.819 198.807 104.956C199.144 105.214 199.24 105.329 199.427 105.734C199.581 106.068 199.899 106.491 199.899 106.863C199.899 107.259 199.783 107.569 199.537 107.896C199.386 108.098 199.193 108.267 199.047 108.475C198.923 108.651 198.962 108.888 198.837 109.039C198.66 109.251 198.752 109.924 198.774 110.197C198.805 110.583 198.951 110.784 199.279 110.92C199.852 111.157 200.471 112.024 201.182 111.591C201.479 111.411 201.787 111.064 202.038 110.817C202.273 110.585 202.526 110.306 202.68 110.013C202.798 109.788 202.764 109.494 202.82 109.249C202.886 108.957 202.913 108.657 202.879 108.357C202.849 108.098 202.754 107.886 202.754 107.615C202.754 107.343 202.624 107.342 202.566 107.136C202.375 106.47 202.375 105.392 202.739 104.812C202.877 104.592 203.074 104.396 203.181 104.163C203.283 103.942 203.503 103.893 203.646 103.713C204.114 103.128 204.081 102.303 204.081 101.604" stroke="#645841" stroke-linecap="round"/>
<path d="M233.758 101.602C233.512 102.295 233.625 103.1 233.625 103.826C233.625 104.323 233.297 105.237 233.854 105.482C234.263 105.662 234.722 105.775 235.09 106.028C235.473 106.292 235.351 106.934 235.351 107.326C235.351 107.97 235.141 108.454 234.728 108.938C234.476 109.234 234.422 109.792 234.422 110.174C234.422 111.316 235.489 111.759 236.48 111.759C237.594 111.759 237.956 110.4 238.062 109.462C238.128 108.878 238.036 108.306 237.775 107.784C237.624 107.481 237.506 107.224 237.461 106.884C237.406 106.47 237.277 105.754 237.421 105.346C237.48 105.177 237.605 105.074 237.741 104.977C237.819 104.921 237.843 104.831 237.889 104.752C238.06 104.459 238.302 104.21 238.486 103.926C238.841 103.379 238.521 102.846 238.077 102.476C237.695 102.157 237.571 101.753 237.24 101.366C236.931 101.005 237.269 100.144 237.336 99.7764C237.548 98.6098 237.772 97.4787 237.874 96.291" stroke="#645841" stroke-linecap="round"/>
<path d="M237.74 96.9565C237.719 96.1635 237.143 95.6249 237.143 94.8468C237.143 94.4586 237.129 94.2357 237.405 93.9432C237.668 93.6628 237.966 93.4629 238.242 93.2019C238.425 93.0284 238.763 92.6939 238.799 92.4421C238.828 92.2336 238.807 91.9926 238.788 91.7856C238.768 91.5794 238.617 91.419 238.603 91.2324C238.554 90.5411 238.205 89.8571 238.205 89.1596C238.205 88.413 238.419 87.7946 238.57 87.0979C238.642 86.7658 238.736 86.4627 238.736 86.1205C238.736 85.3011 238.282 84.7958 237.973 84.0588C237.829 83.7157 237.62 83.4347 237.519 83.0666C237.465 82.871 237.536 82.4469 237.574 82.2552C237.637 81.9397 237.685 81.4901 237.939 81.2741C238.082 81.1527 238.224 80.8584 238.271 80.6914" stroke="#645841" stroke-linecap="round"/>
<path d="M238.138 80.4909C237.634 80.3304 237.342 79.5338 237.342 79.0452C237.342 78.511 237.567 78.0507 237.607 77.5404C237.647 77.0402 237.812 76.5316 238.109 76.1241C238.439 75.6713 238.802 75.0887 238.802 74.516C238.802 73.9975 238.894 73.4001 238.504 72.9928C238.044 72.513 237.649 71.7007 237.611 71.0343C237.59 70.6699 237.565 70.412 237.803 70.1307C237.96 69.9446 238.047 69.6556 238.175 69.441C238.301 69.2306 238.404 69.0506 238.404 68.8066" stroke="#645841" stroke-linecap="round"/>
<path d="M238.54 68.6072C238.254 68.4108 237.836 68.2128 237.592 67.9692C237.429 67.8059 237.32 67.5829 237.15 67.4123C236.926 67.1892 237.104 66.5572 237.197 66.3058C237.324 65.9665 237.552 65.7253 237.71 65.4096C237.876 65.0783 237.852 64.6831 237.987 64.3363C238.48 63.0677 238.274 61.6573 238.274 60.3235C238.274 59.8565 238.187 59.3511 237.942 58.9478C237.894 58.8684 237.811 58.5054 237.721 58.5531C237.371 58.7383 237.239 59.1083 236.984 59.3793C236.206 60.2032 235.474 61.1177 234.689 61.902" stroke="#645841" stroke-linecap="round"/>
<path d="M167.976 60.8635C167.976 60.2945 168.064 59.7932 167.774 59.3006C167.307 58.5086 166.489 57.5135 166.102 58.8447C165.922 59.4661 165.913 60.0179 165.639 60.6103C165.431 61.062 165.284 61.9102 165.241 62.3975C165.185 63.044 164.552 64.3528 165.118 64.9662C165.745 65.6452 165.762 66.4631 165.762 67.3902C165.762 69.1173 164.123 70.3122 164.199 72.0212C164.223 72.5557 164.542 73.0291 164.916 73.3743C165.312 73.7403 165.893 73.8528 165.893 74.4379C165.893 74.7816 165.948 75.2369 165.704 75.5233C165.353 75.9369 165.664 76.3509 165.48 76.8113C165.4 77.0121 165.137 77.0711 165.111 77.3033C165.09 77.4954 165.111 77.7032 165.111 77.8966C165.111 78.3239 164.916 78.7078 164.858 79.1123C164.806 79.4749 164.601 79.7202 164.438 80.0457C164.254 80.4145 163.909 80.6865 163.736 81.0515C163.564 81.4146 164.107 81.4127 164.301 81.5001C164.758 81.7068 165.407 82.7803 165.647 83.1788C165.882 83.5708 165.893 83.866 165.893 84.3148C165.893 84.7273 165.893 85.1397 165.893 85.5521C165.893 86.1974 165.281 86.5136 165.241 87.0717C165.211 87.4913 164.981 87.6008 164.981 88.0195C164.981 88.2783 165.042 88.9558 165.169 89.17C165.601 89.8989 165.893 90.3602 165.893 91.2829C165.893 91.7715 165.35 91.9906 165.082 92.4117C164.594 93.1793 164.647 93.057 164.974 93.8733C165.127 94.2579 165.502 94.6527 165.502 95.0528C165.502 95.4711 165.28 96.1162 165.14 96.5216C164.881 97.2726 164.27 97.7007 164.069 98.5042" stroke="#645841" stroke-linecap="round"/>
<path d="M126.529 58.6497C126.648 59.0067 130.372 55.5499 130.874 55.0292C133.161 52.6571 135.244 51.299 138.031 49.6263C145.556 45.1112 152.003 38.698 159.838 35.1164C163.773 33.3175 167.113 30.1027 170.644 27.6247C172.274 26.4804 174.108 25.4182 175.49 23.9763C179.837 19.44 183.343 14.7806 188.468 11.1931C189.872 10.2106 191.415 9.56328 192.757 8.51953C193.407 8.01404 194.243 7.91982 194.873 7.46122C195.356 7.11014 195.336 6.24992 195.765 5.79022C197.642 3.77917 199.463 4.03094 200.221 1" stroke="#645841" stroke-linecap="round"/>
<path d="M200.721 1.5C204.48 1.84179 207.853 4.20084 210.635 6.62442C212.247 8.0281 214.522 8.54072 216.4 9.52083C218.168 10.4432 219.816 12.2007 221.72 13.2527C227.017 16.1802 232.425 20.214 237.176 23.9472C238.581 25.0505 239.978 26.6404 241.549 27.4563C243.692 28.5689 245.519 29.0751 247.565 30.5755C255.953 36.7267 264.534 42.2257 272.741 48.5388C273.617 49.2127 279.607 52.8408 278.116 54.3316C276.931 55.5164 272.942 57.6458 271.404 57.6458" stroke="#645841" stroke-linecap="round"/>
<path d="M127.029 59.6523C129.044 59.6523 130.142 63.4655 132.042 61.4069C134.381 58.8738 137.609 56.9308 139.812 54.3887C140.904 53.1289 143.167 52.6063 144.575 51.5201C145.887 50.5081 146.955 49.0815 148.084 47.8717C150.44 45.3471 154.046 43.6892 156.857 41.8561C159.298 40.264 161.851 38.8014 164.321 37.2051C168.006 34.8232 171.38 32.1507 174.82 29.435C176.802 27.8701 179.172 25.5888 181.616 24.6726C184.465 23.6039 186.604 20.223 188.021 17.5987C188.937 15.9031 190.32 13.963 191.948 12.8363C192.895 12.1807 194.908 12.337 195.596 11.3045C197.459 8.51053 201.079 5.94158 202.225 2.50391" stroke="#645841" stroke-linecap="round"/>
<path d="M200.721 6.01367C204.633 6.3146 208.409 8.73958 210.747 11.7786C212.01 13.4208 213.537 12.7525 214.339 14.7586C214.976 16.3489 216.736 17.9736 218.183 18.769C221.181 20.418 223.757 22.7556 226.176 25.1745C228.981 27.98 233.105 29.2821 236.257 31.7472C237.809 32.9605 239.148 34.8309 241.215 35.0892C242.184 35.2104 242.023 35.7101 242.663 36.2589C243.418 36.906 244.52 36.655 245.364 37.3729C247.249 38.9746 248.847 39.3082 251.129 39.8516C252.843 40.2595 253.741 41.2178 255.613 41.634C257.739 42.1064 259.996 43.3183 261.323 45.0874C264.835 49.7709 269.382 54.1304 274.412 56.6452" stroke="#645841" stroke-linecap="round"/>
<path d="M418.937 118.797C418.839 121.485 418.297 124.014 418.297 126.723C418.297 128.916 417.657 130.885 417.657 133.014C417.657 135.22 415.486 132.03 414.938 131.592C413.427 130.383 413.499 128.52 413.499 126.794" stroke="#645841" stroke-linecap="round"/>
<path d="M292.582 126.794C292.291 125.796 292.28 126.039 292.866 126.332C293.711 126.755 294.702 126.622 295.585 126.829C296.343 127.008 296.863 127.373 297.7 127.505C298.234 127.589 299.618 127.569 299.921 128.073C300.421 128.907 303.92 128.15 304.773 128.056C307.6 127.741 310.373 127.753 313.232 127.753C317.879 127.753 322.525 128.073 327.182 128.073C328.324 128.073 329.514 128.17 330.647 128.002C331.989 127.803 333.078 127.002 334.397 126.847C336.51 126.599 338.337 126.928 340.35 126.047C341.671 125.47 342.432 124.555 343.976 124.555C350.384 124.555 356.66 124.989 363.026 125.443C366.182 125.669 369.106 125.494 372.16 126.332C373.247 126.63 374.608 126.506 375.572 127.149C376.686 127.892 377.04 128.073 378.451 128.073C381.03 128.073 383.581 127.802 386.129 127.753C389.903 127.682 393.534 126.794 397.431 126.794C399.511 126.794 401.936 126.446 403.935 127.007C406.238 127.654 408.845 128.713 411.257 128.713" stroke="#645841" stroke-linecap="round"/>
<path d="M263.475 117.517C264.234 118.731 274.189 117.837 275.95 117.837C281.779 117.837 287.608 117.837 293.437 117.837C309.91 117.837 326.384 117.837 342.858 117.837C368.13 117.837 393.348 117.197 418.616 117.197" stroke="#645841" stroke-linecap="round"/>
<path d="M407.74 92.2461C407.929 94.7961 408.9 98.1974 410.335 100.35C410.541 100.659 411.089 100.776 411.223 101.078C411.537 101.785 411.674 102.519 412.076 103.229C412.655 104.25 413.194 105.394 413.836 106.356C415.283 108.527 416.522 111.014 418.083 113.038C418.943 114.153 420.204 115.233 420.535 116.557" stroke="#645841" stroke-linecap="round"/>
<path d="M263.795 94.166C311.467 94.166 359.101 94.4859 406.781 94.4859" stroke="#645841" stroke-linecap="round"/>
<path d="M1.49219 117.838C13.5647 117.838 25.6372 117.838 37.7096 117.838C40.6715 117.838 43.6333 117.838 46.5952 117.838C50.4893 117.838 54.1616 118.653 58.0397 118.869C66.1569 119.32 74.328 119.117 82.4572 119.117C85.4696 119.117 88.432 118.798 91.4316 118.798C96.6968 118.798 102.351 119.374 107.55 118.478C113.85 117.391 120.689 118.158 127.098 118.158C130.652 118.158 134.244 118.013 137.796 118.158C138.963 118.205 138.401 124.233 138.401 125.515" stroke="#645841" stroke-linecap="round"/>
<path d="M2.13281 124.234C5.49553 124.234 8.37849 125.806 11.6759 126.136C15.5435 126.522 19.3889 125.095 23.0671 124.092C27.691 122.831 32.0623 122.954 36.822 122.954C37.7342 122.954 38.6465 122.954 39.5587 122.954C41.3562 122.954 42.5269 123.601 44.2147 123.861C48.0439 124.45 51.6296 125.194 55.5527 125.194C60.9788 125.194 66.4049 125.194 71.831 125.194C80.2141 125.194 89.0969 131.028 96.8171 125.514" stroke="#645841" stroke-linecap="round"/>
<path d="M0.535156 115.598C2.51343 114.094 3.76665 111.741 5.83094 110.302C7.57752 109.085 8.80066 107.368 10.4514 106.108C11.5873 105.241 12.407 103.982 13.7213 103.336C14.7301 102.839 15.4073 102.451 16.227 101.683C17.4454 100.541 18.8233 99.5488 20.0478 98.3242" stroke="#645841" stroke-linecap="round"/>
<path d="M21.0059 96.0864C22.3589 95.8609 24.4881 94.5234 25.4842 93.5273" stroke="#645841" stroke-linecap="round"/>
<path d="M28.3613 94.8047C49.0187 94.8047 69.6501 95.1246 90.3113 95.1246C96.0087 95.1246 101.69 95.3827 107.372 95.4444C112.528 95.5005 117.68 96.0842 122.815 96.0842C123.982 96.0842 125.149 96.0842 126.315 96.0842C127.01 96.0842 127.743 96.0141 128.43 96.1197C128.958 96.2009 129.183 96.69 129.692 96.724C132.463 96.9087 135.3 96.724 138.08 96.724" stroke="#645841" stroke-linecap="round"/>
<path d="M45.6372 12.918C45.6372 14.7552 44.8719 16.1973 44.642 18.036C44.5332 18.9068 44.1009 19.7026 43.7002 20.4707C43.2321 21.3677 43.2589 22.4274 42.7583 23.2785C42.0671 24.4535 41.7681 26.2368 41.23 27.5613C40.6098 29.0879 40.1993 29.7246 40.1993 31.3999C40.1993 32.6054 39.5048 34.2191 39.0441 35.3451C38.2705 37.2362 38.294 38.9854 37.9246 40.9252C37.6996 42.1062 36.8374 43.0813 36.6095 44.2661C36.181 46.4942 36.2486 48.5502 35.6143 50.7704C35.0206 52.8484 35.8464 55.1279 35.2411 57.1857C34.678 59.1004 34.2351 60.589 34.1038 62.6237C33.8509 66.5437 31.5843 69.9635 31.1716 73.8017C30.9433 75.9241 30.0827 77.9327 29.8032 80.0571C29.5519 81.9667 28.3173 83.4059 28.0438 85.3884C27.8384 86.878 27.524 88.6866 27.0131 90.08C26.4914 91.5029 25.8047 91.9352 25.8047 93.5276" stroke="#645841" stroke-linecap="round"/>
<path d="M26.4431 93.207C26.323 94.1673 28.1694 94.4734 29.0021 94.8064" stroke="#645841" stroke-linecap="round"/>
<path d="M44.6758 11.957C47.3474 11.957 50.019 11.957 52.6905 11.957C54.9153 11.957 57.1019 12.5726 59.3547 12.5968C65.3811 12.6616 71.4031 12.9167 77.4456 12.9167C85.8573 12.9167 94.2689 12.9167 102.681 12.9167C105.194 12.9167 107.553 13.5564 110.091 13.5564C116.797 13.5564 123.502 13.5564 130.208 13.5564C142.419 13.5564 154.631 13.8763 166.834 13.8763C168.185 13.8763 169.535 13.8763 170.886 13.8763C172.329 13.8763 173.388 14.5161 174.742 14.5161C177.13 14.5161 179.517 14.5161 181.904 14.5161" stroke="#645841" stroke-linecap="round"/>
<path d="M221.252 11.6376C224.42 11.6376 227.514 11.6667 230.653 11.9397C233.452 12.1831 236.075 12.5972 238.952 12.5972C245.527 12.5972 252.103 12.5972 258.678 12.5972C260.301 12.5972 261.924 12.5972 263.547 12.5972C266.838 12.5972 269.755 11.5627 272.948 11.3533C278.057 11.0182 283.312 11.3177 288.427 11.3177C293.216 11.3177 297.953 11.273 302.715 11.0156C307.584 10.7524 312.534 11.3797 317.393 10.9445C319.392 10.7655 321.125 10.0382 323.151 10.0382C325.947 10.0382 328.743 10.0382 331.539 10.0382C336.423 10.0382 341.242 10.1695 346.112 10.3403C353.902 10.6137 361.666 9.39845 369.463 9.39845C373.278 9.39845 377.092 9.39845 380.907 9.39845C382.82 9.39845 384.777 9.25384 386.558 8.58098C387.995 8.03833 390.067 7.15929 391.57 7.15929C393.306 7.15929 395.061 7.23468 396.795 7.15929C398.441 7.08772 399.939 6.51953 401.664 6.51953" stroke="#645841" stroke-linecap="round"/>
<path d="M402.621 5.55859C402.621 6.97759 402.573 8.40564 402.621 9.82365C402.686 11.7481 403.58 13.4221 403.58 15.3327C403.58 18.6375 403.549 21.9443 403.58 25.2489C403.621 29.503 404.554 33.5617 404.896 37.742C405.097 40.214 406.14 42.4676 406.14 44.9748C406.14 47.3739 406.14 49.773 406.14 52.1721C406.14 65.9465 406.459 79.7377 406.459 93.5254" stroke="#645841" stroke-linecap="round"/>
<path d="M130.814 102.525C130.361 105.393 127.624 107.308 126.944 110.37C126.421 112.722 125.115 115.416 123.283 116.332" stroke="#645841" stroke-linecap="round"/>
<path d="M125.166 101.271C124.182 103.83 121.043 107.08 118.891 108.802" stroke="#645841" stroke-linecap="round"/>
<path d="M37.9384 97.5059C30.864 99.5934 27.0826 104.321 22.9118 109.743C19.9564 113.585 16.089 117.066 12.8359 120.726" stroke="#645841" stroke-linecap="round"/>
<path d="M391.88 24.709C391.88 43.0641 391.533 62.4654 394.391 80.5619" stroke="#645841" stroke-linecap="round"/>
<path d="M381.214 12.7852C381.214 17.1191 380.837 21.6355 381.771 25.8942C383.165 32.2452 385.262 37.6229 385.607 44.1632" stroke="#645841" stroke-linecap="round"/>
<path d="M292.728 84.3271C288.254 77.9899 293.582 67.1839 295.377 60.6192C297.177 54.0386 298.376 47.8285 298.376 41.0254" stroke="#645841" stroke-linecap="round"/>
<path d="M125.168 23.4551V41.6543" stroke="#645841" stroke-linecap="round"/>
<path d="M117.01 25.9648C117.01 39.9559 116.795 53.4826 115.127 67.3839" stroke="#645841" stroke-linecap="round"/>
<path d="M147.734 141.879C146.79 145.712 147.614 149.689 148.142 153.513" stroke="#645841" stroke-linecap="round"/>
<path d="M149.98 170.863C154.343 171.038 158.676 171.272 163.044 171.272" stroke="#645841" stroke-linecap="round"/>
<path d="M175.084 134.939C175.084 137.34 174.268 139.623 174.268 142.061C174.268 144.761 174.093 147.359 173.859 150.044" stroke="#645841" stroke-linecap="round"/>
<path d="M226.929 136.164C226.929 140.912 226.739 145.696 227.847 150.35C228.469 152.962 228.168 155.856 228.154 158.526C228.126 163.51 226.496 167.918 224.684 172.496" stroke="#645841" stroke-linecap="round"/>
<path d="M175.904 195.158C177.733 194.113 180.111 194.372 182.133 194.357C187.272 194.319 192.435 194.24 197.573 194.379C200.711 194.464 203.759 194.883 206.939 194.735C210.204 194.583 213.418 193.649 216.661 193.556C224.668 193.327 232.757 193.956 240.776 193.956" stroke="#645841" stroke-linecap="round"/>
<path d="M222.355 203.166C225.105 201.429 228.941 201.898 232.1 201.964C235.473 202.036 239.183 202.367 242.378 203.166" stroke="#645841" stroke-linecap="round"/>
<path d="M188.719 129.086H204.336" stroke="#645841" stroke-linecap="round"/>
<path d="M181.111 117.471C185.516 117.471 189.921 117.471 194.326 117.471C195.931 117.471 197.787 117.752 199.354 117.404C201.273 116.978 202.722 116.052 204.738 115.869" stroke="#645841" stroke-linecap="round"/>
<path d="M197.127 20.9629H211.943" stroke="#645841" stroke-linecap="round"/>
<path d="M207.539 26.1717C210.803 25.3013 214.576 25.7712 217.951 25.7712" stroke="#645841" stroke-linecap="round"/>
<path d="M140.359 209.282C141.902 209.282 143.445 209.282 144.987 209.282C145.524 209.282 146.168 209.382 146.691 209.24C147.139 209.117 147.245 208.648 147.741 208.558C149.742 208.195 152.035 208.516 154.072 208.516C158.052 208.516 162.031 208.516 166.011 208.516C181.219 208.516 196.428 208.516 211.636 208.516C216.653 208.516 221.451 210.233 226.442 210.304C232.759 210.395 239.155 210.741 245.408 211.667C246.882 211.886 248.375 211.674 249.837 211.894C250.757 212.033 251.566 212.793 252.392 212.86C254.538 213.034 256.769 212.86 258.922 212.86" stroke="#645841" stroke-linecap="round"/>
<path d="M140.867 203.149C159.781 203.149 178.694 203.149 197.607 203.149C207.367 203.149 217.218 202.76 226.95 203.546C230.014 203.794 233.088 204.427 236.149 204.427C239.46 204.427 242.74 204.514 246.029 204.938C248.812 205.296 252.12 205.479 254.688 206.712C255.731 207.212 257.226 206.549 257.996 207.521C258.701 208.412 258.919 209.974 258.919 211.07" stroke="#645841" stroke-linecap="round"/>
<path d="M139.848 202.895C139.848 204.215 139.848 205.535 139.848 206.855C139.848 208.24 140.083 208.693 140.87 209.794" stroke="#645841" stroke-linecap="round"/>
<path d="M260.963 140.037C260.963 142.299 260.963 144.561 260.963 146.823C260.963 148.634 260.197 150.121 260.197 151.891C260.197 156.749 260.257 161.612 260.197 166.47C260.143 170.75 259.883 175.07 258.919 179.246C258.582 180.707 258.664 182.214 258.664 183.703C258.664 185.795 258.664 187.886 258.664 189.978C258.664 191.667 258.458 193.48 259.047 195.088C260.469 198.975 258.664 203.077 258.664 206.984" stroke="#645841" stroke-linecap="round"/>
<path d="M140.868 137.225C140.868 139.856 140.868 142.486 140.868 145.117C140.868 146.588 141.165 147.864 141.351 149.305C141.517 150.592 141.223 151.852 141.138 153.124C140.902 156.654 141.525 159.486 139.747 162.72C137.84 166.186 138.924 171.141 138.625 174.985C138.257 179.728 138.568 184.602 138.568 189.365C138.568 190.595 139.125 191.739 139.392 192.929C139.637 194.023 139.772 194.87 139.903 195.981C140.019 196.971 140.671 197.841 140.811 198.891C140.898 199.539 140.868 200.197 140.868 200.85" stroke="#645841" stroke-linecap="round"/>
<path d="M262.445 142.898H283.469" stroke="#645841" stroke-linecap="round"/>
<path d="M286.734 144.533C286.585 146.025 285.695 147.5 285.418 149.012C285.023 151.174 284.488 153.085 284.488 155.295C284.488 157.518 284.057 159.63 283.91 161.838C283.775 163.866 283.805 165.912 283.638 167.938C283.451 170.22 283.11 172.384 283.048 174.685C282.972 177.539 282.856 180.38 282.856 183.236C282.856 187.269 282.856 191.302 282.856 195.335C282.856 197.263 282.856 199.19 282.856 201.118C282.856 202.447 283.139 202.91 281.608 202.91C280.162 202.91 278.355 203.235 277.05 202.502C275.879 201.844 274.4 202.093 273.103 202.093C270.435 202.093 267.766 202.093 265.098 202.093" stroke="#645841" stroke-linecap="round"/>
<path d="M260.811 211.074C262.594 211.917 264.37 212.707 266.367 212.707C268.922 212.707 271.477 212.707 274.033 212.707C275.942 212.707 277.873 212.774 279.782 212.685C282.976 212.534 286.031 211.408 289.182 210.916C290.978 210.635 292.585 210.258 294.41 210.258C295.865 210.258 297.321 210.258 298.776 210.258" stroke="#645841" stroke-linecap="round"/>
<path d="M259.385 208.215C261.192 208.697 262.752 209.447 264.669 209.621C266.075 209.749 267.466 209.235 268.887 209.235C273.122 209.235 277.324 209.848 281.542 209.848C286.392 209.848 291.242 209.848 296.091 209.848C296.441 209.848 297.166 209.71 297.486 209.893C298 210.187 296.5 210.958 296.352 211.027C294.544 211.871 292.866 211.685 290.818 211.685" stroke="#645841" stroke-linecap="round"/>
<path d="M259.997 213.727C259.997 214.465 259.86 215.403 260.224 216.086C260.637 216.86 261.505 216.574 261.879 217.265C262.187 217.833 266.019 217.571 266.665 217.594C268.918 217.675 271.313 217.79 273.548 217.503C278.804 216.829 284.244 217.605 289.526 217.605C291.163 217.605 292.811 217.666 294.447 217.605C294.908 217.588 294.697 216.36 294.697 216.018C294.697 213.613 293.073 213.487 290.864 213.364C287.661 213.186 284.422 213.319 281.214 213.319C276.991 213.319 272.769 213.319 268.547 213.319C265.501 213.319 262.402 213.168 259.385 213.523" stroke="#645841" stroke-linecap="round"/>
<path d="M259.995 220.871C259.995 221.851 260.327 222.043 260.823 222.788C260.997 223.049 261.959 222.912 262.15 222.912C263.929 222.912 265.611 223.12 267.366 223.389C268.719 223.595 270.085 223.505 271.448 223.536C274.195 223.598 276.932 223.729 279.681 223.729C282.554 223.729 285.426 223.729 288.299 223.729C289.14 223.729 290.695 224.066 291.338 223.423C291.938 222.823 293.444 222.8 293.867 222.096C294.753 220.62 292.806 219.553 291.61 219.42C289.774 219.216 288.127 218.83 286.235 218.83C283.969 218.83 281.868 219.226 279.636 219.42C275.146 219.81 270.484 219.442 265.983 219.442C265.053 219.442 264.123 219.442 263.193 219.442C261.711 219.442 259.335 219.058 258.158 219.647" stroke="#645841" stroke-linecap="round"/>
<path d="M261.426 224.137C261.426 224.694 262.619 225.543 263.217 225.566C264.681 225.62 265.853 225.669 267.141 224.953" stroke="#645841" stroke-linecap="round"/>
<path d="M288.164 224.954C288.819 225.911 289.65 226.179 290.715 226.179C291.513 226.179 291.747 225.34 292.042 224.75" stroke="#645841" stroke-linecap="round"/>
<path d="M300.613 209.032C305.735 209.032 310.795 209.44 315.911 209.44C320.896 209.44 325.883 209.483 330.868 209.44C332.452 209.427 334.03 209.167 335.608 209.032C338.7 208.768 341.806 208.828 344.906 208.828" stroke="#645841" stroke-linecap="round"/>
<path d="M347.359 211.278C350.359 209.748 354.786 210.462 358.041 210.462C360.551 210.462 363.061 210.462 365.571 210.462C370.29 210.462 374.433 209.935 378.997 208.965C379.871 208.779 381.389 208.97 382.172 208.489C383.053 207.946 383.8 208.012 384.826 208.012C386.233 208.012 387.452 207.973 388.795 208.421" stroke="#645841" stroke-linecap="round"/>
<path d="M295.717 216.178C304.901 216.178 314.067 216.382 323.25 216.382C327.413 216.382 331.552 216.178 335.723 216.178" stroke="#645841" stroke-linecap="round"/>
<path d="M336.744 216.178H388.997" stroke="#645841" stroke-linecap="round"/>
<path d="M333.885 216.178C333.885 217.122 333.333 220.186 334.543 220.736C335.894 221.35 338.231 220.769 339.646 220.714C340.553 220.678 344.097 221.224 344.749 220.441C345.143 219.969 344.54 217.847 344.499 217.198" stroke="#645841" stroke-linecap="round"/>
<path d="M386.547 216.789C386.547 217.73 386.547 218.671 386.547 219.613C386.547 219.764 386.438 220.494 386.592 220.622C387.033 220.989 388.952 220.667 389.45 220.667C390.048 220.667 396.533 221.166 396.685 220.406C396.957 219.042 395.324 217.448 395.324 215.973" stroke="#645841" stroke-linecap="round"/>
<path d="M304.29 183.314C304.088 184.862 303.493 186.302 303.474 187.896C303.46 189.041 303.259 189.938 302.998 191.048C302.672 192.43 302.836 193.895 302.555 195.3C301.865 198.752 300.82 202.241 300.82 205.767" stroke="#645841" stroke-linecap="round"/>
<path d="M297.144 174.945C297.144 178.323 296.701 182.048 297.461 185.366C298.18 188.502 297.935 191.598 297.768 194.778C297.643 197.142 297.576 199.57 297.552 201.934C297.539 203.28 297.444 204.687 297.575 206.027C297.643 206.731 298.064 207.306 298.164 208.012" stroke="#645841" stroke-linecap="round"/>
<path d="M304.492 178.007C307.755 178.007 311.133 177.7 314.335 178.325C315.737 178.598 317.302 178.415 318.723 178.415C320.866 178.415 323.012 178.38 325.153 178.461C330.579 178.666 336.007 178.62 341.437 178.62" stroke="#645841" stroke-linecap="round"/>
<path d="M349.195 177.803C350.265 178.355 351.495 178.211 352.665 178.211C354.646 178.211 356.627 178.211 358.607 178.211C362.711 178.211 366.863 179.091 370.99 179.209C378.413 179.421 385.858 179.232 393.284 179.232" stroke="#645841" stroke-linecap="round"/>
<path d="M301.039 180.459C300.387 180.785 300.422 182.016 300.334 182.644C300.282 183.014 300.113 183.359 300.102 183.73C300.074 184.707 300.791 184.575 301.547 184.204C301.896 184.034 302.347 183.902 302.663 183.678C302.966 183.464 303.528 183.33 303.894 183.28C304.751 183.161 305.585 182.906 306.455 182.863C307.383 182.818 308.426 182.701 309.252 183.193C309.94 183.603 310.609 183.97 311.188 184.517C311.623 184.927 312.476 185.037 313.061 185.037C314.462 185.037 315.393 184.135 316.656 183.684C317.142 183.511 317.679 183.578 318.153 183.372C318.541 183.203 319.071 183.168 319.489 183.164C320.325 183.156 321.198 183.095 322.032 183.164C322.531 183.206 323.099 183.722 323.506 184.002C323.672 184.117 324.072 184.493 324.292 184.493C324.686 184.493 325.384 183.336 325.719 183.106C326.267 182.732 326.989 182.186 327.615 181.973C328.835 181.559 330.037 182.272 331.268 182.459C332.209 182.602 332.922 183.367 333.869 183.517C335.036 183.701 336.068 183.892 337.262 183.892C337.819 183.892 338.044 183.796 338.516 183.528C339.369 183.045 339.993 182.12 340.886 181.765C341.671 181.454 342.613 181.603 343.441 181.603C344.045 181.603 344.525 181.63 344.996 182.048C345.392 182.401 345.578 182.819 346.036 183.118C346.269 183.27 346.47 183.459 346.713 183.58" stroke="#645841" stroke-linecap="round"/>
<path d="M347.027 185.35C347.38 185.026 347.785 184.778 348.108 184.419C348.54 183.939 349.089 183.783 349.628 183.454C350.109 183.16 350.544 182.79 351.027 182.5C351.304 182.334 351.839 182.434 352.148 182.436C352.933 182.444 353.652 182.406 354.258 182.945C354.626 183.272 355.201 183.462 355.663 183.604C356.428 183.839 357.144 183.813 357.894 183.5C358.764 183.137 359.743 183.305 360.634 183.003C362.276 182.446 364.084 182.495 365.708 181.87C366.341 181.627 367.509 182.058 368.119 182.194C368.929 182.374 370.076 182.481 370.772 183.003C371.235 183.35 371.442 184.101 372.101 184.101" stroke="#645841" stroke-linecap="round"/>
<path d="M371.893 184.725C372.858 184.725 373.28 183.843 374.147 183.627C375.122 183.383 376.573 182.974 377.58 183.395C378.033 183.585 378.436 183.807 378.915 183.939C379.298 184.044 379.707 184.119 380.037 184.355C380.647 184.791 381.202 185.213 381.961 185.378C382.43 185.48 382.918 185.453 383.395 185.453C384.052 185.453 385.074 185.642 385.661 185.326C386.11 185.084 386.437 184.692 386.932 184.459C387.461 184.21 388.09 184.109 388.666 184.101C389.212 184.092 389.785 184.055 390.331 184.101C390.675 184.129 390.979 184.32 391.302 184.424C391.703 184.554 392.034 184.554 392.377 184.823C392.77 185.132 394.186 185.52 394.672 185.216C395.098 184.95 394.894 183.573 394.88 183.164C394.843 182.085 394.45 181.036 394.053 180.043" stroke="#645841" stroke-linecap="round"/>
<path d="M343.802 184.518C344.154 184.913 344.17 185.449 344.264 185.951C344.379 186.565 344.551 187.177 344.611 187.801C344.705 188.779 344.648 189.76 344.432 190.714C344.211 191.688 343.778 192.577 343.675 193.569C343.617 194.122 343.448 194.643 343.351 195.188C343.217 195.94 343.225 196.714 343.12 197.471C342.608 201.143 342.865 204.947 342.865 208.655" stroke="#645841" stroke-linecap="round"/>
<path d="M348.797 185.453C348.797 188.599 348.739 191.752 348.797 194.898C348.821 196.204 349.178 197.47 349.207 198.776C349.229 199.748 349.213 200.723 349.213 201.695C349.213 203.031 349.358 204.392 348.947 205.649C348.568 206.809 348.797 208.273 348.797 209.487" stroke="#645841" stroke-linecap="round"/>
<path d="M390.097 185.662C390.097 186.6 389.999 187.533 389.993 188.471C389.984 190.004 390.128 191.595 389.878 193.113C389.436 195.792 388.783 198.472 388.167 201.106C387.999 201.826 387.727 202.624 387.704 203.361C387.675 204.295 387.704 205.235 387.704 206.17C387.704 206.929 387.704 207.688 387.704 208.447" stroke="#645841" stroke-linecap="round"/>
<path d="M394.782 185.35C396.306 189.743 397.175 194.387 397.175 199.037C397.175 200.347 397.281 201.706 397.013 202.996C396.87 203.688 396.669 204.366 396.51 205.054C396.384 205.601 396.469 206.18 396.435 206.736C396.393 207.443 396.257 208.151 396.187 208.857C396.097 209.758 395.839 210.663 395.823 211.568C395.816 211.949 396.043 212.9 395.487 212.978C394.575 213.107 393.394 212.148 392.748 211.614C392.104 211.082 391.595 210.649 390.863 210.25C390.178 209.876 389.515 209.203 389.164 208.551" stroke="#645841" stroke-linecap="round"/>
<path d="M350.973 184.074C351.917 184.212 352.577 184.887 353.346 185.391C353.966 185.797 354.692 186.474 355.35 186.788C356.129 187.159 356.751 187.465 357.427 188.054C358.088 188.629 357.863 189.391 358.411 190.022C359.333 191.084 361.055 191.791 362.347 192.345C362.711 192.501 363.025 192.775 363.317 193.032C364.067 193.691 365.158 193.709 366.081 193.973" stroke="#645841" stroke-linecap="round"/>
<path d="M356.182 184.463C357.054 184.865 358.56 185.052 359.177 185.823C359.469 186.188 360.104 186.528 360.494 186.778C360.944 187.067 361.633 187.259 362.028 187.61C362.416 187.955 362.603 188.603 362.904 189.021C363.265 189.525 363.762 189.917 364.315 190.194C364.888 190.481 365.485 190.895 366.08 191.105C367.019 191.437 367.666 192.094 368.555 192.538" stroke="#645841" stroke-linecap="round"/>
<path d="M371.941 198.01C373.12 198.702 374.153 199.386 375.067 200.354C375.839 201.171 376.441 202.199 377.079 203.111C377.826 204.178 378.342 205.242 379.568 205.781C380.263 206.087 380.839 206.691 381.449 207.127" stroke="#645841" stroke-linecap="round"/>
<path d="M372.33 195.145C373.565 196.22 375.256 196.497 376.266 197.851C377.735 199.818 379.923 201.381 381.925 202.735C383.052 203.498 384.092 204.318 385.152 205.166C385.575 205.504 385.875 205.824 386.397 205.955" stroke="#645841" stroke-linecap="round"/>
<path d="M386.006 186.549C384.986 187.644 383.349 188.905 381.983 189.588C381.274 189.942 380.717 190.531 380.022 190.919C378.883 191.556 377.971 192.109 376.694 192.489C375.045 192.981 373.641 193.901 372.171 194.754C371.334 195.241 370.785 196.044 370.001 196.607C369.115 197.241 368.113 197.826 367.121 198.271C365.931 198.804 364.475 199.399 363.554 200.355C362.884 201.049 362.135 201.685 361.433 202.352C360.779 202.974 359.718 203.119 359.132 203.741C357.967 204.979 356.085 205.499 354.762 206.592C354.172 207.079 353.608 207.55 352.895 207.837C352.36 208.052 352.083 208.25 351.752 208.69" stroke="#645841" stroke-linecap="round"/>
<path d="M380.926 185.635C379.574 185.758 378.523 186.557 377.554 187.436C376.203 188.663 374.806 189.85 373.473 191.091C372.886 191.637 372.408 192.168 371.78 192.682C371.058 193.273 370.129 193.291 369.291 193.623C368.833 193.805 368.416 193.79 367.945 193.855C367.396 193.93 366.062 194.157 365.673 194.52C364.909 195.234 363.847 195.423 363.024 196.105C362.731 196.348 362.403 196.446 362.098 196.662C361.34 197.199 360.697 197.893 359.956 198.457C358.851 199.299 357.554 199.973 356.671 201.076C356.297 201.544 355.71 201.865 355.398 202.371C355.054 202.93 354.753 203.333 354.226 203.739C353.151 204.564 352.139 205.498 351.013 206.242C350.633 206.494 350.218 206.639 349.812 206.836C349.49 206.991 349.339 207.323 349.03 207.494C348.777 207.635 348.512 207.721 348.234 207.776" stroke="#645841" stroke-linecap="round"/>
<path d="M302.648 205.693C303.21 205.591 303.771 205.432 304.342 205.389C304.77 205.358 305.373 205.567 305.709 205.23C306.149 204.79 306.758 204.427 307.301 204.123C309.329 202.988 310.829 201.099 312.88 199.897C314.431 198.989 316.298 198.721 317.75 197.705C318.22 197.376 318.743 197.401 319.197 197.032C319.608 196.698 319.973 196.296 320.318 195.896C321.344 194.709 322.479 193.552 323.878 192.828C324.645 192.432 325.245 191.962 325.962 191.497C326.73 190.999 327.561 190.733 328.292 190.122C328.775 189.718 329.287 189.549 329.768 189.196C330.318 188.792 330.681 188.184 331.215 187.763C331.479 187.555 331.788 187.567 332.055 187.401C332.665 187.022 332.968 186.452 333.676 186.128C334.423 185.785 335.057 185.075 335.731 184.594" stroke="#645841" stroke-linecap="round"/>
<path d="M341.854 183.943C339.959 184.322 338.588 185.391 337.05 186.483C336.296 187.019 335.625 187.643 334.908 188.227C334.175 188.824 333.467 189.449 332.737 190.05C331.755 190.859 330.659 191.474 329.662 192.243C326.48 194.697 323.461 197.353 320.292 199.804C319.925 200.088 319.508 200.144 319.163 200.455C318.528 201.029 317.874 201.286 317.101 201.599C315.304 202.326 313.626 203.441 311.985 204.471C310.833 205.195 310.27 206.339 308.96 206.809C308.34 207.031 307.884 207.478 307.231 207.641C306.758 207.759 306.443 208.045 306.037 208.299" stroke="#645841" stroke-linecap="round"/>
<path d="M304.213 185.246C305.562 187 307.587 187.635 309.524 188.473C310.155 188.747 310.604 189.047 311.304 189.161C311.771 189.236 312.648 189.491 313.004 189.826C314.359 191.101 316.365 191.627 317.816 192.836C318.474 193.385 318.764 194.234 319.321 194.884" stroke="#645841" stroke-linecap="round"/>
<path d="M311.766 185.377C314.007 186.498 316.32 187.309 317.945 189.197C318.689 190.062 320.44 190.756 321.404 191.238" stroke="#645841" stroke-linecap="round"/>
<path d="M324.924 198.01C326.98 199.332 329.196 200.453 331.103 201.975C331.789 202.523 332.461 202.401 333.274 202.626C333.829 202.78 334.282 203.109 334.808 203.321C335.847 203.739 336.796 204.307 337.789 204.782C339.056 205.39 340.372 206.037 341.595 206.736" stroke="#645841" stroke-linecap="round"/>
<path d="M328.439 195.666C329.63 196.992 331.553 197.897 333.128 198.734C334.179 199.292 335.164 200.015 336.189 200.623C337.023 201.117 337.879 201.569 338.714 202.062C339.216 202.359 339.939 202.402 340.35 202.772C340.981 203.34 341.398 204.066 341.985 204.653" stroke="#645841" stroke-linecap="round"/>
<path d="M394.098 129.021C392.49 133.259 392.466 137.691 392.466 142.187C392.466 143.191 392.404 144.219 392.556 145.215C392.711 146.225 393.304 147.109 393.463 148.106C393.608 149.012 393.486 150.012 393.486 150.93C393.486 152.511 393.633 154.171 393.395 155.738C392.331 162.753 392.874 170.092 392.874 177.192" stroke="#645841" stroke-linecap="round"/>
<path d="M399.817 127.795C399.44 130.432 398.592 132.751 398.592 135.438C398.592 137.055 398.348 138.549 398.206 140.144C398.104 141.293 398.27 142.455 398.138 143.602C397.994 144.868 397.35 145.932 397.186 147.163C397.009 148.491 397.174 149.931 397.163 151.268C397.149 152.924 397.163 154.305 397.345 155.94C397.47 157.066 397.367 158.256 397.367 159.387C397.367 164.057 397.571 168.692 397.571 173.358C397.571 174.923 397.571 176.487 397.571 178.052C397.571 179.128 395.73 179.846 394.918 180.252" stroke="#645841" stroke-linecap="round"/>
<path d="M351.849 129.225C351.292 130.785 350.487 132.591 350.261 134.237C350.042 135.833 350.216 137.534 350.216 139.147C350.216 141.487 350.216 143.826 350.216 146.166C350.216 150.793 350.216 155.419 350.216 160.046C350.216 163.668 349.88 167.867 351.1 171.272C351.982 173.733 350.752 176.401 350.012 178.62" stroke="#645841" stroke-linecap="round"/>
<path d="M347.153 130.039C346.288 133.301 345.725 136.146 345.725 139.496C345.725 142.188 345.725 144.879 345.725 147.57C345.725 152.167 345.725 156.763 345.725 161.359C345.725 164.994 345.521 168.603 345.521 172.245C345.521 174.022 346.069 176.092 345.316 177.598" stroke="#645841" stroke-linecap="round"/>
<path d="M305.721 139.43C305.721 141.66 305.232 143.844 305.097 146.075C304.961 148.316 303.954 150.489 303.884 152.697C303.764 156.497 303.884 160.325 303.884 164.127C303.884 166.658 303.938 169.195 303.884 171.725C303.86 172.861 303.68 173.977 303.68 175.127C303.68 175.929 304.088 176.527 304.088 177.395" stroke="#645841" stroke-linecap="round"/>
<path d="M296.94 137.594C296.94 145.675 296.328 153.685 296.328 161.77C296.328 163.013 296.386 164.124 296.623 165.342C296.924 166.888 297.571 168.232 297.927 169.776C298.202 170.967 297.961 172.501 297.961 173.722" stroke="#645841" stroke-linecap="round"/>
<path d="M307.939 137.03C315.435 137.03 323.093 137.37 330.58 136.959C335.984 136.663 341.647 136.391 346.965 136.391" stroke="#645841" stroke-linecap="round"/>
<path d="M351.76 137.988C351.882 142.596 352.4 147.119 352.4 151.743C352.4 154.922 352.965 158.77 352.062 161.855C350.573 166.942 351.44 171.963 351.44 177.014" stroke="#645841" stroke-linecap="round"/>
<path d="M367.51 140.11C373.539 140.11 377.51 139.7 382.437 136.182" stroke="#645841" stroke-linecap="round"/>
<path d="M373.141 145.914C376.055 144.368 378.861 144.125 382.084 144.125" stroke="#645841" stroke-linecap="round"/>
<path d="M134.101 137.758C134.101 141.779 134.321 145.807 134.043 149.813C133.884 152.102 133.926 154.393 133.926 156.687C133.926 158.439 133.784 160.258 133.965 162.004C134.158 163.868 134.983 165.641 135.192 167.476C135.362 168.97 135.921 170.254 136.399 171.663C136.562 172.143 137.047 172.635 137.081 173.124C137.2 174.835 136.92 176.563 137.256 178.246" stroke="#645841" stroke-linecap="round"/>
<path d="M136.377 136.529C136.377 138.175 135.852 139.706 135.852 141.34C135.852 143.157 135.852 144.975 135.852 146.792C135.852 149.974 136.027 153.168 136.027 156.335C136.027 158.259 135.703 160.371 136.436 162.158C136.663 162.713 136.707 163.359 136.728 163.95C136.76 164.859 137.062 165.707 137.078 166.618C137.118 168.797 137.078 170.982 137.078 173.161" stroke="#645841" stroke-linecap="round"/>
<path d="M95.7148 136.881C95.7148 137.614 95.7148 138.348 95.7148 139.081C95.7148 140.088 96.0885 140.961 96.2114 141.944C96.3028 142.675 96.2241 143.429 96.2407 144.164C96.2777 145.811 96.5666 147.443 96.5912 149.091C96.6403 152.384 97.4405 155.427 98.2563 158.605C98.9308 161.232 99.4713 163.886 100.097 166.521C100.299 167.373 100.363 168.244 100.564 169.092C100.888 170.456 101.493 171.759 101.849 173.123C102.111 174.124 102.18 175.045 102.21 176.074C102.238 177.058 102.551 177.849 102.706 178.781C102.784 179.245 102.711 179.743 102.726 180.212C102.75 180.976 103.033 181.699 103.076 182.471C103.133 183.486 103.576 184.396 103.602 185.431C103.617 186.015 103.602 186.6 103.602 187.184" stroke="#645841" stroke-linecap="round"/>
<path d="M96.9434 137.408C97.1351 137.816 97.2724 138.266 97.4789 138.664C97.6478 138.99 98.0083 139.029 98.1508 139.385C98.4867 140.225 98.3434 141.143 98.6279 141.965C98.9313 142.842 99.0953 143.557 99.1829 144.497C99.3032 145.787 99.709 146.907 99.7867 148.217C99.9291 150.62 99.855 153.018 99.9425 155.422C100.007 157.186 99.9729 159.337 100.449 161.05C100.878 162.594 101.375 164.102 101.773 165.646C102.093 166.89 102.199 168.111 102.63 169.347C102.953 170.273 103.078 170.968 103.078 171.956C103.078 173.936 103.078 175.916 103.078 177.896C103.078 179.675 103.078 181.453 103.078 183.232C103.078 184.052 103.561 184.714 103.604 185.511C103.63 186.007 103.604 186.513 103.604 187.01" stroke="#645841" stroke-linecap="round"/>
<path d="M102.2 137.23C102.2 141.375 102.2 145.52 102.2 149.665C102.2 151.833 102.2 154.001 102.2 156.17C102.2 157.78 101.773 159.07 101.441 160.61C101.222 161.626 101.331 163.515 100.623 164.222" stroke="#645841" stroke-linecap="round"/>
<path d="M106.76 137.582C106.01 140.581 105.533 143.623 105.533 146.716C105.533 149.681 105.435 152.596 105.26 155.557C105.106 158.167 105.332 160.513 105.669 163.074C106.05 165.966 105.708 169.158 105.708 172.072C105.708 174.947 105.708 177.823 105.708 180.699C105.708 188.342 105.708 196.022 105.708 203.66" stroke="#645841" stroke-linecap="round"/>
<path d="M101.325 184.73C101.325 186.483 101.325 188.236 101.325 189.989C101.325 191.745 101.06 193.403 100.975 195.149C100.923 196.205 100.386 197.053 100.118 198.051C99.8285 199.125 99.923 200.26 99.923 201.362C99.923 202.537 99.923 203.712 99.923 204.887" stroke="#645841" stroke-linecap="round"/>
<path d="M133.891 186.519C133.891 185.854 134.345 185.474 134.68 184.955C135.036 184.403 135.342 183.82 135.687 183.263C135.993 182.77 136.528 182.427 136.859 181.933C137.416 181.1 137.676 180.218 138.358 179.461" stroke="#645841" stroke-linecap="round"/>
<path d="M139.339 178.657C139.339 178.281 139.244 176.963 139.607 176.781" stroke="#645841" stroke-linecap="round"/>
<path d="M141.217 176.869C141.217 177.338 141.218 177.801 141.262 178.269C141.296 178.627 141.494 179.274 141.356 179.629C141.116 180.244 140.638 180.681 140.522 181.356C140.456 181.744 140.32 182.113 140.234 182.498" stroke="#645841" stroke-linecap="round"/>
<path d="M139.339 184.285C139.17 185.583 138.024 186.759 137.324 187.809C136.938 188.387 136.258 188.729 135.914 189.328C135.739 189.633 135.751 189.985 135.527 190.271C135.356 190.49 135.124 190.639 134.991 190.886C134.905 191.046 134.851 191.264 134.693 191.343" stroke="#645841" stroke-linecap="round"/>
<path d="M134.694 188.842C134.494 188.117 134.605 187.273 134.605 186.52" stroke="#645841" stroke-linecap="round"/>
<path d="M71.5195 173.309H103.932" stroke="#645841" stroke-linecap="round"/>
<path d="M107.779 174.406C111.353 175.127 114.937 175.505 118.583 175.505C119.57 175.505 120.633 175.67 121.513 175.23" stroke="#645841" stroke-linecap="round"/>
<path d="M120.965 136.5C122.537 136.814 121.753 141.72 122.186 143.092C123.301 146.634 122.613 151.213 122.613 154.904C122.613 158.871 122.613 162.839 122.613 166.806C122.613 169.287 123.047 172.033 121.789 174.131" stroke="#645841" stroke-linecap="round"/>
<path d="M72.8938 132.656C71.6233 132.894 72.3445 142.488 72.3445 144.086C72.3445 145.733 72.8938 147.228 72.8938 148.862C72.8938 151.487 72.8938 154.112 72.8938 156.736C72.8938 159.338 72.1208 163.782 73.4432 166.03C74.4836 167.798 73.9925 170.77 73.9925 172.759" stroke="#645841" stroke-linecap="round"/>
<path d="M74.2676 131.557C74.5937 133.296 81.7433 132.655 83.332 132.655" stroke="#645841" stroke-linecap="round"/>
<path d="M63.0059 130.459C63.8813 133.742 63.2805 137.894 63.2805 141.278C63.2805 146.309 63.2805 151.34 63.2805 156.37C63.2805 157.782 63.8299 158.84 63.8299 160.246C63.8299 162.22 63.8299 164.194 63.8299 166.167C63.8299 167.82 63.8299 169.474 63.8299 171.127C63.8299 171.452 63.8299 174.364 63.8299 172.76" stroke="#645841" stroke-linecap="round"/>
<path d="M59.4373 128.262C59.4373 136.024 59.4373 143.786 59.4373 151.548C59.4373 153.369 59.4373 155.19 59.4373 157.011C59.4373 158.916 58.6133 160.616 58.6133 162.459C58.6133 165.069 58.6133 167.678 58.6133 170.288" stroke="#645841" stroke-linecap="round"/>
<path d="M25.6502 125.789C25.6502 130.453 25.1009 134.978 25.1009 139.645C25.1009 144.035 24.8262 148.427 24.8262 152.83C24.8262 159.29 24.8262 165.75 24.8262 172.21" stroke="#645841" stroke-linecap="round"/>
<path d="M19.609 125.789C20.8327 126.906 20.1584 129.653 20.1584 131.222C20.1584 132.921 21.1333 134.217 21.2418 135.952C21.4105 138.651 21.2571 141.413 21.2571 144.116C21.2571 148.435 21.2571 152.753 21.2571 157.072C21.2571 158.252 21.3393 159.155 21.6844 160.277C21.9615 161.177 21.8064 162.278 21.8064 163.206C21.8064 165.328 21.8064 167.449 21.8064 169.57C21.8064 171.993 22.3588 175.507 21.6844 177.826C20.9462 180.363 21.2571 183.139 21.2571 185.791C21.2571 186.931 21.2571 188.07 21.2571 189.209C21.2571 190.888 20.2278 192.448 20.1584 194.184C20.1349 194.771 19.7574 194.857 19.6395 195.329C19.4963 195.902 19.609 196.619 19.609 197.206C19.609 197.71 19.6416 198.229 19.5938 198.732C19.5275 199.427 18.9366 199.667 18.8155 200.273C18.6252 201.224 18.8451 202.056 18.495 202.989C18.1053 204.028 17.9609 204.56 17.9609 205.721" stroke="#645841" stroke-linecap="round"/>
<path d="M26.4742 178.527C26.4742 183.294 26.4742 188.06 26.4742 192.826C26.4742 195.313 25.6502 197.614 25.6502 200.074C25.6502 200.854 25.6912 201.646 25.6502 202.424C25.5797 203.764 24.8262 204.917 24.8262 206.27" stroke="#645841" stroke-linecap="round"/>
<path d="M23.1777 177.43C25.8914 177.43 28.3738 178.528 31.0977 178.528C33.6664 178.528 36.2352 178.528 38.8039 178.528C42.0187 178.528 45.2335 178.528 48.4482 178.528C51.4047 178.528 54.2823 179.078 57.238 179.078" stroke="#645841" stroke-linecap="round"/>
<path d="M26.4746 172.211C31.0629 174.013 36.6825 174.683 41.6125 174.683C46.6427 174.683 51.4112 175.232 56.4146 175.232" stroke="#645841" stroke-linecap="round"/>
<path d="M62.7344 177.703C63.4935 179.525 70.0743 178.802 72.1345 178.802C76.2547 178.802 80.3749 178.802 84.4951 178.802C89.5105 178.802 94.5259 178.802 99.5414 178.802" stroke="#645841" stroke-linecap="round"/>
<path d="M58.9062 180.174C59.6825 180.416 59.2857 184.736 59.3444 185.442C59.5137 187.473 59.4321 189.529 59.4321 191.567C59.4321 193.205 59.1513 195.155 59.6171 196.747C59.9305 197.817 60.4837 199.98 60.4837 199.98" stroke="#645841" stroke-linecap="round"/>
<path d="M65.0418 180C64.6848 181.771 64.5164 183.596 64.0291 185.336C63.673 186.608 63.2891 187.784 63.2891 189.114C63.2891 191.535 63.2891 193.957 63.2891 196.378C63.2891 198.776 63.6396 201.079 63.6396 203.486" stroke="#645841" stroke-linecap="round"/>
<path d="M27.0078 200.33C27.2078 201.03 29.9591 199.048 30.4451 198.753C31.3924 198.176 32.5011 197.676 33.5708 197.399C33.9687 197.296 34.4368 197.277 34.8074 197.078C35.8483 196.517 36.5309 195.715 37.3489 194.897C38.1431 194.102 38.9848 193.608 39.8903 192.969C42.4179 191.184 44.9673 189.453 47.3394 187.477C47.8526 187.049 48.466 186.742 48.9752 186.308C49.4747 185.883 49.7502 185.252 50.2606 184.828C51.3064 183.96 52.5031 183.105 53.6492 182.394C54.473 181.883 55.2691 181.123 55.8108 180.31C56.0872 179.896 56.1538 179.663 56.6288 179.473" stroke="#645841" stroke-linecap="round"/>
<path d="M26.6582 197.701C28.3008 197.225 29.1065 196.058 30.4363 195.091C31.315 194.452 32.8348 193.844 33.8833 193.494C34.8415 193.175 35.7477 192.727 36.7071 192.404C37.3465 192.188 38.0492 192.117 38.4891 191.576C39.5655 190.251 41.4284 189.588 42.608 188.324C43.3184 187.563 43.9264 186.812 44.7112 186.172C45.4045 185.606 45.7124 184.703 46.425 184.146C47.1383 183.589 47.7978 183.068 48.4796 182.462C49.2589 181.769 50.4839 181.462 51.1379 180.699C51.871 179.844 52.9418 179.36 53.8254 178.771" stroke="#645841" stroke-linecap="round"/>
<path d="M29.9883 180.174C30.6595 180.174 32.0494 180.591 32.5005 181.06C33.3348 181.928 34.2494 182.429 35.4801 182.725C36.2971 182.922 37.0745 183.249 37.895 183.426C38.5049 183.558 39.2336 183.521 39.6185 184.098C40.1018 184.823 40.9016 185.081 41.7315 185.081" stroke="#645841" stroke-linecap="round"/>
<path d="M27.3613 180.875C28.1686 181.204 28.796 181.868 29.5425 182.316C30.0844 182.641 30.9163 182.55 31.3536 182.842C31.7597 183.113 32.2711 183.07 32.7169 183.387C33.6403 184.043 34.7188 184.96 35.8328 185.228C36.6056 185.413 36.4846 185.43 37.0013 186.094C37.2406 186.402 37.6887 186.328 37.8874 186.659C38.2199 187.213 39.2798 186.996 39.2798 187.886" stroke="#645841" stroke-linecap="round"/>
<path d="M47.166 189.287C49.5852 191.52 52.5717 193.061 55.248 194.935C56.8959 196.088 58.2055 196.818 59.0845 198.577" stroke="#645841" stroke-linecap="round"/>
<path d="M46.1133 192.094C46.1133 193.477 48.7596 194.499 49.755 195.034C51.0145 195.711 52.3096 196.457 53.4747 197.293C53.9057 197.603 54.5978 197.874 54.8769 198.316C55.2107 198.844 55.8821 198.925 56.2791 199.397C57.0118 200.268 57.5882 201.29 58.3823 202.084" stroke="#645841" stroke-linecap="round"/>
<path d="M27.3613 202.959C30.2313 202.959 32.8737 202.434 35.7257 202.434C37.6891 202.434 39.6072 202.885 41.4999 203.388C42.7798 203.728 44.0914 203.72 45.3851 204.031C48.9534 204.887 52.324 206.29 56.0086 206.29C57.5769 206.29 59.6353 206.667 61.1499 206.251C61.8249 206.065 62.3778 205.401 62.9416 205.063" stroke="#645841" stroke-linecap="round"/>
<path d="M26.6582 206.465C30.1957 206.64 33.6941 207.11 37.2232 207.341C38.8375 207.447 40.3011 208.129 41.9166 208.198C46.0004 208.374 50.1265 208.218 54.2149 208.218C55.9871 208.218 57.7593 208.218 59.5314 208.218C60.4586 208.218 61.2687 208.435 61.8879 207.692" stroke="#645841" stroke-linecap="round"/>
<path d="M64.3418 205.414C66.6917 205.414 69.0417 205.414 71.3916 205.414C71.9701 205.414 72.4244 205.418 72.9691 205.277C74.4981 204.883 76.189 204.77 77.7598 204.674C79.2457 204.583 80.5961 204.146 82.0443 203.914C84.5554 203.512 87.3117 203.836 89.8536 203.836C91.0992 203.836 92.3905 203.746 93.6317 203.875C96.5202 204.175 99.5717 205.033 102.376 205.764" stroke="#645841" stroke-linecap="round"/>
<path d="M65.2168 208.043C67.7907 208.043 70.342 208.479 72.8996 208.734C75.3623 208.981 77.9532 208.744 80.4265 208.744C86.6324 208.744 92.8384 208.744 99.0443 208.744" stroke="#645841" stroke-linecap="round"/>
<path d="M67.3223 201.382C69.9773 201.382 72.6324 201.382 75.2874 201.382C77.8176 201.382 80.5072 201.092 82.9994 201.537C87.9476 202.422 92.9612 202.433 97.9949 202.433" stroke="#645841" stroke-linecap="round"/>
<path d="M66.9727 199.629C72.6138 199.629 78.255 199.629 83.8961 199.629C85.2503 199.629 86.5377 199.937 87.869 199.979C88.9724 200.014 90.0755 199.964 91.1797 200.018C93.0507 200.11 94.8969 200.155 96.7689 200.155" stroke="#645841" stroke-linecap="round"/>
<path d="M103.806 204.787C103.566 205.208 103.471 205.755 103.471 206.241" stroke="#645841" stroke-linecap="round"/>
<path d="M104.924 204.338C105.71 204.601 106.698 204.45 107.521 204.45C109.625 204.45 111.729 204.45 113.834 204.45C117.828 204.45 121.804 204.227 125.8 204.227C129.076 204.227 132.305 204.786 135.568 204.786C136.144 204.786 136.719 204.786 137.295 204.786C137.988 204.786 137.674 205.102 137.854 205.656C137.974 206.023 138.21 206.727 137.997 207.11C137.852 207.372 136.874 207.339 136.674 207.358C135.383 207.479 134.092 207.47 132.797 207.47C130.317 207.47 127.876 207.387 125.403 207.203C124.028 207.101 122.67 207.158 121.302 206.948C119.084 206.607 116.837 206.128 114.585 206.128C112.499 206.128 110.436 206.081 108.353 205.954C106.1 205.816 103.826 205.904 101.568 205.904" stroke="#645841" stroke-linecap="round"/>
<path d="M100.226 208.143C100.012 208.89 99.5133 210.45 100.114 211.05" stroke="#645841" stroke-linecap="round"/>
<path d="M101.346 208.254C104.374 208.254 107.389 208.478 110.424 208.478C116.607 208.478 122.814 208.335 128.995 208.565C130.608 208.625 132.222 208.56 133.835 208.602C135.037 208.633 136.232 208.792 137.433 208.813C137.583 208.816 137.996 208.74 138.141 208.844C138.389 209.021 138.36 209.505 138.365 209.77C138.374 210.241 137.971 210.138 137.557 210.149C136.368 210.179 135.175 210.155 133.985 210.155C122.956 210.155 111.927 210.155 100.898 210.155" stroke="#645841" stroke-linecap="round"/>
<path d="M99.2207 212.838C99.2654 213.866 99.4234 214.906 99.5624 215.926C99.6005 216.205 99.672 216.307 99.8917 216.417" stroke="#645841" stroke-linecap="round"/>
<path d="M100.227 213.287C106.553 213.411 112.892 213.238 119.215 213.411C123.922 213.54 128.623 213.615 133.332 213.71C134.336 213.73 135.341 213.734 136.345 213.734C136.594 213.734 137.106 213.665 137.371 213.759C137.626 213.851 137.443 214.921 137.333 215.114C137.185 215.373 136.57 215.299 136.376 215.3C135.196 215.305 134.012 215.25 132.835 215.17C131.078 215.05 129.303 214.741 127.541 214.741C123.83 214.741 120.118 214.741 116.407 214.741C110.972 214.741 105.547 214.853 100.115 214.853" stroke="#645841" stroke-linecap="round"/>
<path d="M100.674 220.22C100.698 219.285 100.786 218.362 100.786 217.424" stroke="#645841" stroke-linecap="round"/>
<path d="M135.344 217.09C135.349 217.369 135.686 218.959 135.095 218.668C134.42 218.336 133.516 218.133 132.964 217.643C131.829 216.634 129.434 216.835 128.012 216.692C127.437 216.635 126.786 216.558 126.229 216.761C125.784 216.923 125.531 217.235 125.235 217.593C124.83 218.083 124.602 218.121 123.936 218.097C121.611 218.011 119.518 216.978 117.164 216.978C116.611 216.978 115.954 216.888 115.411 217.028C114.874 217.167 114.34 217.402 113.815 217.519C113.307 217.632 112.644 217.59 112.131 217.624C111.192 217.686 110.254 217.697 109.347 217.432C107.689 216.946 105.624 217.135 103.917 217.202C103.656 217.212 103.625 217.285 103.507 217.5C103.288 217.895 102.976 218.07 102.587 218.264C101.976 218.57 101.473 218.811 100.785 218.879" stroke="#645841" stroke-linecap="round"/>
<path d="M127.238 137.986C127.238 141.31 127.238 144.634 127.238 147.958C127.238 151.172 127.949 154.245 127.897 157.466C127.865 159.374 127.458 161.212 127.458 163.122C127.458 164.942 127.458 166.762 127.458 168.583C127.458 172.223 127.458 175.864 127.458 179.505C127.458 184.771 127.458 190.037 127.458 195.303C127.458 195.974 127.092 198.38 127.848 198.716C130.333 199.821 133.338 199.423 136.015 199.423" stroke="#645841" stroke-linecap="round"/>
<path d="M127.018 139.303C129.094 139.13 131.729 138.922 133.6 137.986" stroke="#645841" stroke-linecap="round"/>
<path d="M31.7695 134.566V157.825" stroke="#645841" stroke-linecap="round"/>
<path d="M41.2838 133.512C41.0474 139.894 40.2266 146.09 40.2266 152.542" stroke="#645841" stroke-linecap="round"/>
</svg>
