<svg width="276" height="202" viewBox="0 0 276 202" fill="none" xmlns="http://www.w3.org/2000/svg">
<path d="M154.565 25.1376C155.23 25.1376 155.894 25.1376 156.558 25.1376C157.472 25.1376 158.327 24.6068 159.259 24.9268C159.574 25.0349 159.951 25.2773 160.22 25.4715C160.572 25.7257 160.914 25.8734 161.292 26.0735C161.545 26.207 161.767 26.4339 162.015 26.588C162.183 26.6926 162.266 26.8931 162.349 27.0588" stroke="#645841" stroke-linecap="round"/>
<path d="M193.563 64.0684C198.604 64.0684 203.641 64.1893 208.68 64.1893C211.187 64.1893 213.694 64.1893 216.201 64.1893C217.029 64.1893 217.733 64.5523 218.54 64.5523C219.127 64.5523 219.714 64.5523 220.301 64.5523" stroke="#645841" stroke-linecap="round"/>
<path d="M223.328 40.2324C223.328 40.916 223.086 41.5348 223.086 42.2354C223.086 43.0823 223.086 43.9292 223.086 44.7761C223.086 45.8179 222.935 46.7989 222.817 47.8276C222.752 48.402 222.443 48.8914 222.334 49.4542C222.167 50.3136 221.864 51.0909 221.742 51.968C221.634 52.7399 221.302 53.4205 221.151 54.1794C221.001 54.9272 221.03 55.686 221.03 56.4445C221.03 57.3709 221.26 58.6451 220.909 59.5229C220.601 60.2924 220.788 61.3689 220.788 62.1913C220.788 62.9777 220.788 63.7641 220.788 64.5505" stroke="#645841" stroke-linecap="round"/>
<path d="M195.26 42.0485C196.083 41.758 196.882 41.7623 197.727 41.6049C198.568 41.4479 199.339 41.2212 200.207 41.2016C201.322 41.1765 202.425 41.1623 203.541 41.1075C204.917 41.04 206.52 41.3373 207.856 41C209.099 40.6861 210.371 40.2461 211.66 40.1262C212.995 40.002 214.387 40.1127 215.726 40.1127C216.193 40.1127 216.665 40.1302 217.131 40.1127C217.666 40.0927 218.135 39.8298 218.664 39.7699C219.505 39.6747 220.366 39.7887 221.211 39.7431C221.925 39.7045 222.619 39.5078 223.328 39.5078" stroke="#645841" stroke-linecap="round"/>
<path d="M194.654 42.291C194.654 46.4634 194.815 50.6667 194.593 54.8332C194.535 55.9293 194.337 56.9663 194.157 58.046C194.009 58.9248 194.097 59.8192 193.928 60.6943C193.784 61.4396 193.534 62.3168 193.202 62.9795" stroke="#645841" stroke-linecap="round"/>
<path d="M196.192 56.8263C195.722 56.2262 195.27 55.2107 195.621 54.4288C196.01 53.5663 196.123 52.6311 196.561 51.7911C196.683 51.5572 196.644 51.2894 196.655 51.0363C196.681 50.4264 196.974 49.9564 197.268 49.4451C197.952 48.2585 198.492 47.0037 199.065 45.7566C199.107 45.6663 199.336 45.162 199.353 45.5379C199.382 46.1771 199.479 46.8069 199.511 47.4421C199.532 47.8508 199.658 48.2427 199.666 48.6516C199.677 49.2153 199.629 49.7876 199.674 50.35C199.704 50.7187 199.82 51.0631 199.82 51.4351C199.82 52.091 199.654 52.7187 199.606 53.3694C199.581 53.7046 199.662 54.1095 199.58 54.4374C199.557 54.5317 199.491 54.596 199.451 54.6818C199.314 54.9801 199.371 55.3523 199.357 55.6683" stroke="#645841" stroke-linecap="round"/>
<path d="M200.36 49.3372C200.209 48.8033 200.162 48.2419 200.051 47.6988C199.964 47.271 199.819 46.8647 199.819 46.425C199.819 46.0855 201.069 44.6106 201.26 44.7652C201.576 45.0207 201.646 45.3802 201.668 45.7688C201.722 46.7179 201.904 47.6235 201.904 48.5824C201.904 50.0063 201.904 51.4302 201.904 52.8541C201.904 53.6661 201.729 54.0976 201.32 54.8442C200.867 55.6719 200.52 56.4645 200.283 57.3661" stroke="#645841" stroke-linecap="round"/>
<path d="M206.149 52.6579C206.033 51.0997 205.964 49.5453 205.995 47.983C206.005 47.4308 206.288 47.1986 206.655 46.825C206.986 46.4876 207.097 46.0781 207.256 45.6412C207.303 45.5118 207.6 45.0907 207.616 45.4354C207.638 45.9056 207.684 46.3809 207.822 46.8336C207.946 47.2417 208.212 47.56 208.371 47.9487C208.905 49.2553 208.156 50.7027 208.156 52.0403" stroke="#645841" stroke-linecap="round"/>
<path d="M209.314 50.4941C209.171 49.3513 208.801 48.2247 208.967 47.063C209.008 46.7777 209.01 46.472 209.1 46.1966C209.236 45.7761 209.456 46.6398 209.494 46.7542C209.591 47.0433 209.765 47.1618 209.915 47.4104C210.079 47.6843 210.139 48.1058 210.236 48.4097C210.457 49.0987 210.561 49.7775 210.627 50.4941" stroke="#645841" stroke-linecap="round"/>
<path d="M213.736 52.4922C213.736 52.8591 213.716 53.2296 213.768 53.5924" stroke="#645841" stroke-linecap="round"/>
<path d="M213.927 52.4297C214.435 52.3423 214.944 52.2999 215.45 52.2236C216.045 52.1337 216.691 52.2097 217.295 52.2097C217.445 52.2097 217.595 52.2041 217.744 52.2097C217.928 52.2165 218.1 52.2878 218.282 52.304C218.53 52.326 218.632 52.3636 218.64 52.6427C218.646 52.8524 218.632 53.0591 218.617 53.2679C218.612 53.3492 218.641 53.4973 218.607 53.5735C218.576 53.6428 218.237 53.6611 218.191 53.6661C217.657 53.7234 217.137 53.6353 216.606 53.5892C216.002 53.5369 215.397 53.5909 214.793 53.5561C214.384 53.5325 213.992 53.467 213.581 53.467" stroke="#645841" stroke-linecap="round"/>
<path d="M214.24 52.3657C214.382 51.8601 214.755 51.2779 215.209 50.9931C215.488 50.8183 215.758 50.6208 215.973 50.368C216.014 50.3195 216.189 49.9832 216.275 50.0274C216.372 50.0777 216.435 50.227 216.486 50.3121C216.584 50.4748 216.681 50.6351 216.8 50.7836C216.982 51.0101 217.139 51.2869 217.345 51.4891C217.54 51.6802 217.738 51.8317 217.958 51.9885C218.055 52.0574 218.109 52.1457 218.232 52.1457" stroke="#645841" stroke-linecap="round"/>
<path d="M210.021 63.0356C209.577 62.2671 210.357 61.3057 210.843 60.7333C211.036 60.5063 211.269 60.2987 211.152 59.9659C210.919 59.3056 210.18 58.8146 209.631 58.4379C208.8 57.8683 207.87 57.7413 206.883 57.5402C206.357 57.433 205.762 57.3806 205.249 57.2045C205.001 57.1194 204.923 56.8725 204.81 56.6597C204.713 56.4759 204.579 56.1466 204.32 56.2246C203.277 56.5395 202.265 57.6928 202.093 58.7668C201.943 59.7081 202.127 60.9166 201.449 61.6789" stroke="#645841" stroke-linecap="round"/>
<path d="M200.341 61.8652C199.361 61.8777 198.415 61.9631 197.442 62.0502" stroke="#645841" stroke-linecap="round"/>
<path d="M218.671 60.5082C218.531 60.2995 218.23 59.9631 218.344 59.6857C218.415 59.5149 218.608 59.4902 218.608 59.2928C218.608 58.8817 218.451 58.5633 218.304 58.1891C218.17 57.8476 218.12 57.4741 218.056 57.1151C217.993 56.7618 217.865 56.4877 217.892 56.1285C217.912 55.8666 217.989 55.6143 217.965 55.3496C217.95 55.1861 217.957 54.9104 217.853 54.7698C217.603 54.4295 216.872 55.1056 216.781 55.3304C216.675 55.5931 216.743 55.8968 216.676 56.1704C216.613 56.4297 216.521 56.6813 216.463 56.9422C216.422 57.1292 216.431 57.3175 216.393 57.5028C216.352 57.7054 216.213 57.8596 216.079 58.0075C215.941 58.1596 215.862 58.3521 215.747 58.5209C215.583 58.7624 215.432 59.0184 215.356 59.3032C215.249 59.7035 215.311 59.9501 215.464 60.3196" stroke="#645841" stroke-linecap="round"/>
<path d="M218.326 57.24C218.259 56.6562 218.291 56.0494 218.358 55.4658C218.405 55.0525 218.701 54.7851 218.967 54.5071C219.267 54.1936 219.587 53.8658 219.8 53.4855C219.972 53.1786 220.077 53.0113 220.041 52.6438C220.013 52.362 219.955 52.0415 220.093 51.7741C220.142 51.6802 220.292 51.5614 220.403 51.6257C220.719 51.8102 220.768 52.4519 220.904 52.745" stroke="#645841" stroke-linecap="round"/>
<path d="M210.879 47.8396C210.756 47.4409 210.781 47.186 211.043 46.8442C211.233 46.5962 211.442 46.4137 211.685 46.226C211.886 46.0716 212.005 45.9029 212.087 45.6672C212.129 45.5456 212.183 45.4937 212.312 45.4699C212.656 45.4067 212.95 45.7896 213.261 45.8977C213.394 45.944 213.508 46.0309 213.645 46.0724C213.859 46.1373 214.085 46.1663 214.305 46.2051" stroke="#645841" stroke-linecap="round"/>
<path d="M214.461 46.207C214.644 46.4452 214.807 46.6475 214.807 46.951C214.807 47.1554 214.821 47.3057 214.922 47.4888C215.049 47.7196 215.13 47.9754 215.257 48.2083C215.323 48.3285 215.349 48.4612 215.413 48.5803C215.493 48.7316 215.641 48.8722 215.75 49.0046" stroke="#645841" stroke-linecap="round"/>
<path d="M215.624 47.5267C215.566 47.2137 215.805 46.7748 215.981 46.5226C216.054 46.417 216.133 46.3428 216.169 46.21C216.259 45.8781 216.169 45.5106 216.4 45.2181C216.529 45.0536 216.969 45.0435 217.156 45.019C217.215 45.0112 217.367 44.9824 217.409 45.0469C217.556 45.2703 217.694 45.4936 217.828 45.7245C217.924 45.8909 217.982 45.9718 218.022 46.1559C218.077 46.4077 218.242 46.6115 218.345 46.8422C218.542 47.2815 218.61 47.8244 218.61 48.3021C218.61 48.5232 218.586 48.7621 218.631 48.9796C218.668 49.1542 218.797 49.3468 218.876 49.5035C219.066 49.8799 219.113 50.2966 219.241 50.6945C219.31 50.9084 219.396 51.1339 219.396 51.3616" stroke="#645841" stroke-linecap="round"/>
<path d="M218.952 47.8398C219.019 47.5689 219.129 47.215 219.343 47.0226C219.447 46.9299 219.609 46.8776 219.689 46.7606C219.941 46.3918 220.205 45.8807 220.133 45.4229C220.128 45.3968 220.081 45.0666 220.175 45.0911C220.375 45.1437 220.585 45.4519 220.719 45.5941C220.85 45.7325 221.011 45.8559 221.083 46.0376C221.171 46.2638 221.262 46.4774 221.341 46.7082" stroke="#645841" stroke-linecap="round"/>
<path d="M30.2688 178.879C29.7475 179.074 29.2663 179.701 29.1749 180.259C29.0824 180.823 29.0934 181.313 28.7542 181.79C28.4761 182.181 28.3919 182.576 28.4681 183.052C28.6375 184.11 29.5586 185.328 30.2015 186.14C31.292 187.518 32.7354 187.951 34.3245 188.37C36.0951 188.837 37.8559 188.875 39.676 188.875C40.8756 188.875 42.2909 188.665 43.4456 189.026C45.0746 189.535 46.7422 189.734 48.4689 189.481C49.955 189.262 51.3255 188.755 52.7686 188.361C53.3601 188.2 53.9136 188.125 54.4935 187.907C55.0527 187.697 55.4127 187.449 56.0333 187.478C56.728 187.51 57.4409 187.55 58.1369 187.512C58.6486 187.483 58.8724 187.096 59.3149 186.939C60.0417 186.682 61.0689 186.77 61.713 186.266C63.0393 185.228 64.515 184.164 65.979 183.304C67.0133 182.697 67.3356 181.796 68.1499 180.982C68.8517 180.28 69.0078 179.291 69.614 178.609C70.0134 178.16 69.7144 177.373 69.8328 176.825C69.9556 176.257 70.0356 175.429 69.5551 175C69.1727 174.657 68.9708 174.199 68.5033 173.956C68.1903 173.793 67.8368 173.703 67.5357 173.552C67.2628 173.416 67.1965 173.162 66.8541 173.047C66.4218 172.903 65.9439 172.792 65.592 172.484C64.9184 171.894 63.9866 171.551 63.1687 171.188C62.5807 170.927 61.9848 170.765 61.3512 170.666C60.7665 170.575 60.3404 170.228 59.7945 170.119C58.7956 169.919 57.6006 170.094 56.5887 170.094C55.3742 170.094 54.1598 170.094 52.9453 170.094C50.225 170.094 47.5249 170.11 44.8087 170.245C43.8908 170.291 43.0133 170.924 42.1161 171.121C41.4151 171.274 40.9173 171.761 40.265 172.029C39.681 172.269 39.086 172.453 38.5232 172.745C37.6669 173.187 36.4329 173.107 35.7044 173.754C34.7482 174.604 33.6253 175.204 32.6921 176.085C32.3284 176.429 31.8094 176.744 31.3626 176.96C30.9 177.184 30.6264 177.535 30.2015 177.818C29.091 178.559 28.9057 179.448 28.9057 180.696" stroke="#645841" stroke-linecap="round"/>
<path d="M45.7237 147.308C45.3239 147.542 44.8959 147.582 44.793 148.097C44.6827 148.648 44.4915 149.287 44.8016 149.808C45.0867 150.288 45.4266 150.953 45.9124 151.245C46.6626 151.695 47.5643 151.88 48.3657 152.214C50.3923 153.059 52.4371 152.752 54.5503 152.905C55.5387 152.976 56.4776 152.956 57.4496 152.763C58.51 152.553 59.4944 152.48 60.5891 152.48C61.26 152.48 61.8515 152.171 62.5277 152.171C63.2396 152.171 63.8498 152.159 64.5306 151.94C65.1094 151.753 65.7519 151.803 66.3277 151.579C67.0831 151.286 67.7935 150.988 68.5751 150.747C69.6775 150.408 70.5505 149.78 71.4658 149.126C71.6218 149.015 71.7421 148.886 71.8604 148.736C71.9798 148.585 72.1503 148.587 72.2764 148.461C72.4536 148.284 72.5123 147.811 72.5123 147.565C72.5123 147.117 72.6167 146.459 72.3536 146.064C71.8274 145.275 70.7655 144.884 69.8789 144.623C69.3432 144.465 68.7447 144.41 68.2319 144.22C68.016 144.14 67.8202 144.172 67.6015 144.134C67.2306 144.069 66.8886 143.895 66.5078 143.834C65.9094 143.738 65.3702 143.474 64.8008 143.328C64.1108 143.15 63.3408 143.139 62.6306 143.139C60.9622 143.139 59.2938 143.139 57.6254 143.139C57.258 143.139 56.8906 143.139 56.5232 143.139C55.9778 143.139 55.2616 143.009 54.739 143.19C53.6713 143.561 52.6866 144.128 51.6252 144.511C50.5271 144.908 49.4973 145.609 48.3099 145.609C48.0806 145.609 47.9417 145.718 47.7309 145.789C47.4385 145.888 47.0916 145.841 46.7873 145.841C46.4774 145.841 45.8616 146.041 45.6293 146.27C45.3332 146.561 45.0847 147.09 44.6858 147.248C44.2768 147.409 44.1797 147.601 44.1797 148.002" stroke="#645841" stroke-linecap="round"/>
<path d="M34.7073 179.369C33.9711 179.57 34.2233 181.019 34.2233 181.614C34.2233 182.092 34.1237 182.681 34.2771 183.133C34.3687 183.403 35.0557 183.639 35.2853 183.778C35.7427 184.056 36.1395 184.438 36.5758 184.733C36.8537 184.92 37.1856 184.946 37.4496 185.177C37.6843 185.381 37.7447 185.505 38.068 185.566C39.6728 185.871 41.2559 186.217 42.8536 186.514C44.3571 186.794 45.907 186.481 47.3973 186.252C47.9771 186.163 48.4886 185.761 49.0642 185.681C49.8472 185.571 50.644 185.49 51.4302 185.418C51.8489 185.38 52.3841 185.106 52.7879 184.961C53.381 184.75 54.0243 184.644 54.643 184.545C55.8766 184.346 57.0624 183.799 58.2591 183.469C60.1379 182.951 62.1046 181.814 63.1322 180.102C63.85 178.905 65.3081 177.258 64.0799 175.807C63.2725 174.853 61.679 173.852 60.4637 173.468C59.4916 173.161 58.526 173.067 57.5601 172.675C57.2807 172.561 56.9677 172.653 56.6729 172.607C56.0553 172.512 55.5039 172.352 54.8715 172.352C53.8968 172.352 52.9867 172.061 52.0216 172.003C51.0616 171.944 50.0859 171.989 49.1247 171.989C47.2263 171.989 45.5364 172.22 43.9022 173.226C42.5769 174.041 40.9079 174.53 39.829 175.74C39.4899 176.12 39.0589 176.455 38.6998 176.829C38.2853 177.26 38.453 177.439 38.31 177.958C38.0633 178.852 38.0218 180.34 38.6729 181.036C39.0968 181.489 39.6036 181.749 40.0979 182.112C40.9853 182.762 41.9893 183.093 43.0687 183.281C44.5173 183.534 46.1683 183.751 47.6326 183.476C49.429 183.139 51.1474 182.587 52.9156 182.199C53.7018 182.026 54.2945 181.453 55.0933 181.298C55.9816 181.126 56.9296 180.822 57.6004 180.189C58.3366 179.495 58.6239 178.656 58.3398 177.662C57.851 175.951 56.3757 175.424 54.8312 175C52.8469 174.456 50.9124 174.299 48.8559 174.537C46.9977 174.751 46.0878 175.782 44.8969 177.097C43.981 178.109 43.3038 179.383 43.7812 180.767C44.4172 182.612 47.4813 182.152 49.0373 182.152C50.1689 182.152 52.4137 182.213 53.1374 181.09C53.8386 180.002 53.443 178.903 52.4249 178.287C52.0443 178.057 49.8199 177.112 49.4742 177.803C49.3156 178.12 49.1046 178.315 49.1046 178.697C49.1046 179.398 50.6617 179.395 51.1613 179.49" stroke="#645841" stroke-linecap="round"/>
<path d="M48.5835 148.385C48.1719 148.638 47.9693 148.766 48.026 149.26C48.048 149.452 48.0303 149.642 48.0431 149.835C48.08 150.388 49.2898 151.032 49.7158 151.207C50.5503 151.55 51.6108 151.596 52.495 151.705C53.3313 151.808 54.15 151.859 54.9912 151.859C56.3744 151.859 57.6855 151.842 59.0485 151.602C59.618 151.501 60.1538 151.473 60.7212 151.336C61.2772 151.202 61.832 151.094 62.3853 150.95C63.1824 150.742 63.9923 150.623 64.8128 150.564C65.1305 150.541 65.4479 150.564 65.7649 150.547C66.2578 150.519 66.7257 150.176 67.1888 150.023C67.9149 149.785 68.3377 149.542 68.9473 149.14C69.2981 148.909 69.4013 148.513 69.1789 148.179C68.9901 147.896 68.712 147.688 68.5356 147.399C68.3588 147.108 68.2647 146.795 67.9437 146.627C66.4543 145.844 64.5626 145.39 62.857 145.374C61.7942 145.365 60.7997 145.143 59.7347 145.143C58.8884 145.143 58.042 145.143 57.1957 145.143C56.3134 145.143 55.4994 145.199 54.6909 145.597C53.7448 146.064 52.867 146.629 51.9632 147.167C51.2556 147.588 49.431 148.871 50.5822 149.792C51.2597 150.334 52.4888 150.493 53.3099 150.607C54.2749 150.741 55.3216 150.624 56.295 150.624C58.3971 150.624 60.726 150.886 62.7713 150.375C63.8005 150.118 64.5564 148.352 63.3546 147.802C62.4121 147.37 61.2241 147.245 60.2236 147.013C59.091 146.75 57.968 146.605 56.8011 146.687C56.4013 146.714 55.9603 147.188 55.6774 147.424C55.4044 147.652 54.925 147.906 54.7338 148.213C54.1547 149.144 56.0467 149.525 56.5437 149.629C57.4111 149.811 58.2981 149.75 59.1171 149.449C59.699 149.234 60.2399 149.164 59.7604 148.445C59.4916 148.042 58.7241 147.922 58.2765 147.922C58.0278 147.922 57.6942 147.864 57.4616 147.973C57.0157 148.184 57.2695 148.382 57.4616 148.694" stroke="#645841" stroke-linecap="round"/>
<path d="M142.997 176.024C141.857 176.333 140.689 177.639 140.766 178.859C140.836 179.964 141.322 181.006 141.881 181.939C142.265 182.579 142.69 183.206 143.267 183.689C143.767 184.107 144.304 184.482 144.807 184.898C145.774 185.7 147.018 186.098 148.04 186.807C149.066 187.518 150.289 187.795 151.489 188.068C152.656 188.333 153.78 188.75 154.971 188.934C156.165 189.119 157.239 189.69 158.428 189.86C159.447 190.006 160.437 190.419 161.465 190.581C162.475 190.74 163.601 190.615 164.621 190.615C165.921 190.615 167.36 191.003 168.636 190.679C169.325 190.504 170.056 190.473 170.733 190.263C171.387 190.061 172.021 189.794 172.676 189.59C174.518 189.016 176.294 188.32 178.153 187.802C179.212 187.506 180.304 187.344 180.996 186.395C181.749 185.363 182.327 183.648 181.563 182.458C181.281 182.018 180.922 181.691 180.49 181.403C180.123 181.158 179.859 180.854 179.521 180.579C178.591 179.823 177.722 178.979 176.69 178.357C175.968 177.922 175.293 177.47 174.529 177.105C173.267 176.503 171.882 176.375 170.549 175.986C169.489 175.676 168.468 175.209 167.392 174.961C166.246 174.696 165.084 174.477 163.939 174.197C160.022 173.24 156.057 172.732 152.003 172.859C149.939 172.924 148.126 173.963 146.308 174.828C145.699 175.117 145.195 175.713 144.811 176.247C144.459 176.737 144.309 177.215 144.309 177.838C144.309 178.491 144.209 179.224 144.399 179.854C144.852 181.356 146.473 182.287 147.466 183.414C148.103 184.138 148.903 184.795 149.726 185.297C150.459 185.744 151.35 185.913 152.179 186.086C154.488 186.568 156.917 186.901 159.277 186.978C160.117 187.006 160.945 187.033 161.782 187.107C162.776 187.194 163.748 187.437 164.741 187.51C165.99 187.601 167.264 187.527 168.516 187.527C171.44 187.527 174.997 186.621 176.991 184.353C178.35 182.806 176.067 180.374 174.503 180.039C172.882 179.691 171.348 179.354 169.901 178.525C168.379 177.653 166.579 177.44 164.909 176.976C164.287 176.804 163.669 176.605 163.052 176.419C161.982 176.097 160.886 175.901 159.818 175.57C158.794 175.252 157.738 175.09 156.695 174.849C155.97 174.682 155.272 174.48 154.525 174.48C153.676 174.48 152.72 174.82 151.969 175.201C151.501 175.438 151.102 175.817 150.674 176.119C150.309 176.375 149.946 176.605 149.713 176.994C149.42 177.482 148.756 177.781 148.534 178.31C148.267 178.945 148.251 180.093 148.542 180.708C149.077 181.838 150.546 182.667 151.596 183.255C152.379 183.694 153.166 184.121 154.062 184.272C154.791 184.395 155.46 184.492 156.155 184.756C157.196 185.153 158.297 185.361 159.389 185.563C160.613 185.789 161.847 186.114 163.086 186.24C164.236 186.358 165.415 186.292 166.568 186.292C167.902 186.292 169.344 186.45 170.643 186.069C171.567 185.798 172.905 185.444 172.59 184.25C172.392 183.502 171.884 183.152 171.252 182.766C170.463 182.286 169.656 181.83 168.893 181.308C167.909 180.635 166.898 180.004 165.861 179.417C164.73 178.777 163.623 178.106 162.37 177.736C161.317 177.424 160.234 177.316 159.174 177.054C158.176 176.806 157.36 176.749 156.331 176.788C155.6 176.815 154.955 176.794 154.336 177.234C153.932 177.522 153.276 177.858 153.011 178.289C152.627 178.914 152.88 180.156 153.204 180.755C153.518 181.336 154.242 181.678 154.795 181.977C156.618 182.964 158.782 183.193 160.787 183.598C161.736 183.79 162.629 184.048 163.601 184.053C164.028 184.055 164.932 184.237 165.333 184.002C166.063 183.574 165.537 182.569 165.23 182.089C164.638 181.16 163.325 180.413 162.331 179.979C161.54 179.633 160.529 179.327 159.698 179.67C159.418 179.785 158.967 179.838 158.797 180.116C158.717 180.247 158.517 180.442 158.514 180.596C158.493 181.52 160.594 182.13 161.062 181.351" stroke="#645841" stroke-linecap="round"/>
<path d="M193.953 151.784C193.953 152.113 193.828 152.745 194.005 153.036C194.379 153.651 195.138 154.168 195.802 154.392C196.675 154.686 197.619 154.846 198.508 155.095C199.278 155.311 200.178 155.404 200.919 155.695C201.363 155.87 201.943 155.847 202.304 156.154C203.447 157.126 204.903 157.617 206.408 157.651C206.865 157.662 207.285 157.772 207.734 157.836C208.259 157.911 208.772 157.867 209.291 157.999C210.213 158.233 211.259 158.114 212.207 158.114C212.755 158.114 213.307 158.095 213.854 158.114C214.238 158.128 214.586 158.277 214.961 158.337C215.545 158.431 216.155 158.423 216.745 158.423C217.506 158.423 218.2 158.325 218.932 158.097C219.331 157.973 219.696 157.752 220.099 157.656C220.554 157.546 220.835 157.39 221.154 157.042C221.403 156.77 221.685 156.626 221.763 156.244C221.848 155.829 221.823 155.412 221.823 154.988C221.823 154.291 221.327 153.921 221.042 153.328C220.675 152.565 219.782 152.256 219.095 151.861C218.785 151.683 218.575 151.411 218.229 151.291C217.794 151.14 217.361 150.971 216.916 150.849C215.83 150.55 214.615 150.177 213.485 150.103C212.519 150.039 211.672 149.8 210.727 149.554C209.849 149.325 209.004 148.985 208.098 148.928C207.411 148.884 206.762 148.721 206.065 148.692C205.293 148.66 204.532 148.619 203.758 148.619C202.566 148.619 201.373 148.619 200.181 148.619C199.002 148.619 197.895 148.53 196.78 148.966C196.065 149.246 195.143 150.078 194.88 150.78C194.712 151.228 194.504 151.608 194.786 152.067C195.086 152.557 195.801 152.622 196.278 152.869C197.056 153.272 197.998 153.393 198.847 153.603C199.669 153.805 200.517 153.943 201.322 154.212C203.051 154.788 204.874 155.101 206.632 155.601C207.984 155.986 209.449 156.397 210.843 156.502C211.72 156.568 212.546 156.648 213.434 156.648C213.779 156.648 214.177 156.701 214.519 156.635C215.022 156.537 215.658 156.019 216.046 155.726C216.679 155.248 218.293 154.114 217.482 153.096C217.29 152.855 217.115 152.588 216.831 152.449C216.444 152.26 216.088 152.122 215.767 151.823C215.329 151.415 214.761 151.382 214.214 151.124C213.599 150.833 212.742 150.657 212.078 150.523C210.697 150.245 209.36 149.772 207.97 149.515C206.192 149.187 204.229 149.391 202.428 149.391C201.856 149.391 200.157 149.804 200.052 150.566C200.007 150.893 199.887 151.193 200.091 151.505C200.246 151.743 200.496 151.826 200.747 151.938C201.105 152.099 201.438 152.332 201.811 152.453C202.884 152.803 203.976 152.982 205.053 153.285C205.926 153.531 206.651 153.977 207.558 154.139C208.447 154.297 209.282 154.697 210.2 154.718C210.826 154.732 211.454 154.712 212.078 154.679C212.462 154.659 213.069 154.752 213.429 154.572C214.616 153.978 214.689 152.613 213.717 151.763C213.404 151.489 212.906 151.308 212.542 151.098C212.202 150.901 211.688 150.834 211.306 150.755C210.244 150.534 209.164 150.394 208.077 150.394C207.569 150.394 207.047 150.699 206.786 151.141C206.143 152.227 208.005 152.556 208.656 152.556C208.833 152.556 210.24 152.705 210.38 152.539C210.469 152.434 210.28 152.033 210.217 151.956C210.028 151.723 209.534 151.6 209.243 151.561C208.976 151.525 208.699 151.471 208.699 151.784" stroke="#645841" stroke-linecap="round"/>
<path d="M151.027 135.956C150.305 136.505 149.979 136.795 149.946 137.706C149.927 138.217 149.714 138.678 149.714 139.194C149.714 139.595 149.689 140.008 149.723 140.408C149.802 141.344 150.221 142.341 150.675 143.157C150.939 143.632 151.312 144.215 151.696 144.594C151.985 144.879 152.431 144.964 152.811 145.066C154.316 145.47 155.79 145.954 157.331 146.232C157.859 146.327 158.398 146.301 158.931 146.301C159.514 146.301 160.068 146.417 160.647 146.447C161.445 146.487 162.253 146.455 163.053 146.455C163.451 146.455 163.648 146.478 163.966 146.211C164.509 145.756 165.042 145.282 165.377 144.65C165.796 143.86 165.849 143.205 165.849 142.325C165.849 141.953 165.852 141.591 165.789 141.223C165.694 140.671 165.202 140.432 164.803 140.108C164.496 139.858 164.231 139.569 163.936 139.31C163.586 139.002 163.106 138.812 162.692 138.598C161.888 138.182 161.26 137.575 160.484 137.118C159.723 136.67 158.985 136.206 158.228 135.737C157.357 135.198 156.084 135.544 155.23 135.004C154.906 134.799 154.136 134.894 153.767 134.837C153.295 134.763 152.837 134.721 152.36 134.721C151.697 134.721 151.245 134.949 151.181 135.647" stroke="#645841" stroke-linecap="round"/>
<path d="M169.863 132.944C169.086 133.27 168.839 134.754 168.86 135.526C168.886 136.499 169.701 137.012 170.481 137.439C171.141 137.8 171.929 138.107 172.531 138.562C172.791 138.759 172.986 139.033 173.256 139.232C173.776 139.614 174.108 140.158 174.624 140.54C175.301 141.04 176.07 141.078 176.811 141.385C177.146 141.523 177.689 141.457 178.042 141.427C178.921 141.354 179.805 141.15 180.68 141.033C182.669 140.766 183.726 138.989 183.215 137.07C183.083 136.578 182.878 136.11 182.739 135.62C182.593 135.112 182.115 134.684 181.851 134.235C181.516 133.666 181.241 132.869 181.122 132.232C181.001 131.588 180.72 131.038 180.397 130.478C180.055 129.885 179.029 129.825 178.45 129.667C177.369 129.373 176.223 129.435 175.113 129.53C174.669 129.568 174.255 129.794 173.818 129.89C173.434 129.975 173.112 130.242 172.72 130.242C172.279 130.242 172.003 130.568 171.673 130.825C171.376 131.057 171.024 131.226 170.708 131.434C170.215 131.76 169.979 132.09 169.563 132.515C169.375 132.707 169.159 132.858 168.963 133.038C168.58 133.391 168.658 133.715 168.551 134.179" stroke="#645841" stroke-linecap="round"/>
<path d="M170.713 145.376C170.392 145.698 170.181 146.044 169.898 146.376C169.594 146.734 169.279 146.989 169.101 147.444C168.827 148.143 168.741 148.761 168.951 149.494C169.179 150.294 170.133 150.777 170.778 151.201C171.694 151.804 172.835 151.899 173.836 152.281C174.373 152.487 175.053 152.882 175.465 153.294C175.918 153.747 176.507 153.936 177.044 154.263C177.799 154.722 178.528 155.104 179.428 155.104C181.522 155.104 183.338 153.433 184.284 151.647C184.764 150.738 184.873 149.719 184.978 148.713C185.015 148.366 185.062 147.951 184.867 147.645C184.582 147.198 184.208 146.832 183.962 146.354C183.643 145.735 182.971 145.105 182.319 144.853C181.779 144.644 181.451 144.22 180.968 143.914C180.336 143.513 179.5 143.298 178.755 143.223C177.943 143.142 177.014 143.17 176.216 143.343C175.643 143.468 175.061 143.653 174.513 143.858C174.191 143.979 173.78 143.96 173.441 144.047C172.666 144.246 171.859 144.835 171.288 145.368C171.21 145.44 171.111 145.452 171.022 145.505C170.759 145.661 170.575 145.942 170.336 146.131C169.835 146.527 169.337 146.616 169.169 147.229" stroke="#645841" stroke-linecap="round"/>
<path d="M149.561 152.016C149.561 153.263 149.478 154.246 150.187 155.336C150.501 155.818 150.945 156.111 151.431 156.408C151.691 156.567 151.986 156.63 152.229 156.82C152.436 156.982 152.561 157.076 152.812 157.163C153.383 157.361 153.884 157.751 154.451 157.986C154.755 158.113 155.054 158.232 155.351 158.372C155.71 158.542 156.133 158.615 156.518 158.698C156.972 158.796 157.404 158.976 157.856 159.084C158.571 159.255 159.475 159.272 160.206 159.179C161.384 159.028 162.549 158.201 163.5 157.54C164.374 156.933 165.277 156.3 165.507 155.207C165.601 154.76 165.58 154.174 165.507 153.732C165.453 153.401 165.288 153.11 165.207 152.788C165.155 152.583 165.185 152.358 165.104 152.162C164.707 151.197 163.925 150.513 163.474 149.597C163.32 149.282 163.03 149.15 162.72 149.022C162.367 148.878 162.161 148.55 161.819 148.37C161.631 148.272 161.568 148.12 161.416 147.993C161.257 147.861 160.976 147.884 160.79 147.796C160.374 147.6 160.027 147.478 159.571 147.358C158.891 147.179 158.264 147.028 157.564 146.998C157.043 146.976 156.579 146.766 156.046 146.766C155.402 146.766 154.794 146.519 154.15 146.475C152.671 146.372 151.638 147.072 150.676 148.07C150.111 148.656 149.512 149.306 149.407 150.146C149.361 150.512 149.179 150.892 149.115 151.27C149.042 151.697 149.176 152.019 149.33 152.402" stroke="#645841" stroke-linecap="round"/>
<path d="M153.386 146.319C154.052 146.207 154.754 146.276 155.356 145.975" stroke="#645841" stroke-linecap="round"/>
<path d="M160.872 158.785C161.148 158.766 161.38 158.637 161.66 158.637" stroke="#645841" stroke-linecap="round"/>
<path d="M160.872 159.129C161.296 158.951 161.794 158.976 162.229 158.823C162.433 158.751 162.657 158.643 162.875 158.637C163.195 158.627 163.523 158.665 163.841 158.631C164.185 158.595 164.542 158.473 164.876 158.388C165.184 158.309 165.54 158.272 165.834 158.158C166.372 157.948 166.86 157.86 167.424 157.744C167.937 157.639 168.387 157.397 168.907 157.307C169.464 157.21 170.107 157.007 170.637 156.809C170.94 156.695 171.261 156.69 171.54 156.507C171.828 156.319 172.076 156.095 172.421 156.023C172.913 155.921 173.435 155.837 173.904 155.656C174.234 155.53 174.547 155.496 174.871 155.322C175.137 155.18 175.451 155.117 175.749 155.09" stroke="#645841" stroke-linecap="round"/>
<path d="M165.848 145.188C165.867 145.591 166.027 145.907 166.192 146.266C166.382 146.676 166.646 146.854 167.041 147.032C167.477 147.229 168.042 147.707 168.261 148.146C168.328 148.279 168.424 148.403 168.486 148.537C168.521 148.615 168.503 148.702 168.508 148.784C168.515 148.91 168.614 148.912 168.65 149.016C168.722 149.223 168.675 149.438 168.781 149.632C168.895 149.839 168.999 149.977 169.148 150.163" stroke="#645841" stroke-linecap="round"/>
<path d="M177.376 141.936C177.592 141.951 177.81 142.135 177.942 142.308C178.099 142.512 178.334 142.654 178.501 142.863C178.6 142.988 178.723 143.135 178.876 143.194C179.069 143.27 179.285 143.329 179.346 143.512" stroke="#645841" stroke-linecap="round"/>
<path d="M153.335 134.594C153.789 134.594 154.294 134.54 154.742 134.463C155.114 134.398 155.454 134.299 155.834 134.299C156.201 134.299 156.569 134.299 156.937 134.299C157.489 134.299 158.068 134.35 158.617 134.277C158.96 134.231 159.274 134.2 159.621 134.2C160.478 134.2 161.328 134.011 162.103 133.658" stroke="#645841" stroke-linecap="round"/>
<path d="M165.108 133.807C165.489 134.148 165.873 134.483 166.307 134.756C166.491 134.872 166.677 134.946 166.816 135.115C167.221 135.605 167.848 135.804 168.231 136.322C168.479 136.657 168.607 137.103 168.885 137.408C169.311 137.877 169.668 138.423 170.015 138.949C170.583 139.807 171.658 140.273 172.624 140.523C173.144 140.657 173.71 140.735 174.173 140.999" stroke="#645841" stroke-linecap="round"/>
<path d="M183.025 140.415C184.211 140.119 185.597 140.319 186.816 140.319C187.686 140.319 188.556 140.319 189.425 140.319C190.117 140.319 190.821 140.354 191.509 140.276C192.196 140.197 192.771 139.798 193.409 139.562C194.504 139.156 195.631 138.822 196.733 138.439C197.22 138.27 197.775 138.386 198.231 138.139C198.721 137.873 199.102 137.457 199.557 137.145C200.01 136.835 200.834 136.481 201.377 136.367C203.124 135.999 204.819 135.408 206.569 135.014C207.608 134.78 208.592 134.613 209.613 134.294C210.265 134.091 210.973 133.787 211.654 133.747C212.608 133.691 213.523 133.302 214.478 133.264C215.209 133.234 216.037 133.044 216.733 132.813C217.875 132.432 218.906 131.741 220.051 131.384C220.966 131.099 221.855 130.937 222.8 130.826C223.766 130.712 224.996 130.657 225.839 130.268" stroke="#645841" stroke-linecap="round"/>
<path d="M184.377 152.4C185.771 152.216 187.168 151.78 188.527 151.433C189.098 151.287 189.609 150.977 190.197 150.843C190.606 150.749 190.976 150.682 191.335 150.467" stroke="#645841" stroke-linecap="round"/>
<path d="M196.745 148.532C197.765 148.265 198.716 147.892 199.591 147.297C199.949 147.053 200.236 146.712 200.654 146.577C201.484 146.311 202.262 145.88 203.07 145.611C205.209 144.898 207.266 143.958 209.47 143.442C209.992 143.32 210.517 143.196 211.038 143.066C211.51 142.948 211.884 142.689 212.38 142.615C213.566 142.439 214.761 142.023 215.913 141.692C216.609 141.491 217.331 141.531 218.028 141.359C218.636 141.208 219.208 140.999 219.8 140.8C221.32 140.29 222.878 140.013 224.385 139.447" stroke="#645841" stroke-linecap="round"/>
<path d="M220.908 120.988C220.415 120.988 219.872 121.216 219.48 121.514C219.074 121.823 218.746 121.81 218.256 121.923C217.443 122.109 216.591 122.474 215.802 122.749C211.067 124.4 206.113 125.991 201.107 126.497C199.017 126.708 196.844 126.634 194.793 127.136C193.859 127.364 192.948 127.723 192.012 127.925C191.558 128.023 191.142 128.241 190.68 128.312C189.268 128.528 187.82 128.977 186.433 129.348C185.474 129.605 184.514 129.683 183.604 130.073" stroke="#645841" stroke-linecap="round"/>
<path d="M220.523 121.28C221.592 120.937 222.713 120.507 223.852 120.507C224.653 120.507 225.388 120.496 226.166 120.26C227.351 119.9 228.313 119.647 229.393 119.035C231.137 118.048 233.096 117.758 234.923 117.027" stroke="#645841" stroke-linecap="round"/>
<path d="M244.489 122.441C243.204 122.441 241.919 122.441 240.634 122.441C239.662 122.441 238.676 122.371 237.724 122.597C235.833 123.046 234.329 124.063 233.138 125.582C231.916 127.141 230.859 128.836 230.325 130.742C230.002 131.895 229.708 133.047 229.466 134.221C229.137 135.819 229.247 137.411 229.219 139.032C229.201 140.083 228.929 141.088 228.929 142.151C228.929 143.002 229.174 143.861 229.407 144.675C229.637 145.481 229.606 146.309 229.606 147.139C229.606 147.543 229.468 148.254 229.654 148.626C230.351 150.02 228.991 150.032 227.963 149.813C227.661 149.749 227.375 149.79 227.077 149.673C226.7 149.526 226.343 149.259 225.933 149.212C225.312 149.139 225.054 148.702 224.913 148.095C224.68 147.095 224.773 146.005 224.773 144.986C224.773 144.397 224.58 143.852 224.58 143.257C224.58 142.525 224.646 141.917 224.827 141.206C225.086 140.187 225.16 139.287 225.16 138.242C225.16 137.142 225.16 136.041 225.16 134.94C225.16 133.718 225.028 132.415 225.181 131.203C225.244 130.709 225.423 130.242 225.498 129.748C225.554 129.379 225.51 129.016 225.547 128.648C225.671 127.381 226.676 126.212 227.528 125.346C229.462 123.379 231.891 121.684 234.341 120.417C235.111 120.019 235.984 120.043 236.747 119.671C237.012 119.541 237.286 119.284 237.589 119.257C237.826 119.237 237.976 119.217 238.185 119.101C238.325 119.025 238.49 119.076 238.631 118.994C238.83 118.879 238.808 118.688 239.077 118.672C239.34 118.656 239.423 118.645 239.651 118.527C240.15 118.269 240.856 118.382 241.396 118.382" stroke="#645841" stroke-linecap="round"/>
<path d="M245.936 109.973C245.102 110.758 244.305 111.396 243.644 112.34C242.854 113.468 242.745 114.947 242.333 116.228C242.036 117.154 241.15 117.734 240.932 118.714C240.817 119.23 240.654 119.511 240.911 120.024" stroke="#645841" stroke-linecap="round"/>
<path d="M241.201 119.926C242.218 120.427 243.569 121.187 244.262 122.116C244.667 122.661 245.509 123.293 245.545 124.001C245.577 124.653 245.55 125.313 245.55 125.966C245.55 126.691 245.835 127.447 246.033 128.141" stroke="#645841" stroke-linecap="round"/>
<path d="M247.196 128.142C247.358 127.107 247.73 126.077 247.776 125.028C247.818 124.039 247.797 123.026 247.765 122.037C247.718 120.584 247.575 118.814 247.078 117.425C246.644 116.216 247.193 115.298 247.894 114.317C248.528 113.429 249.301 112.557 250.031 111.745C250.323 111.419 250.848 111.056 250.949 110.601C251.099 109.925 250.824 109.409 250.417 108.888C249.991 108.344 249.789 107.918 249.102 107.949C248.253 107.987 247.708 108.201 247.153 108.77C246.909 109.02 246.617 109.221 246.321 109.399C245.881 109.662 245.75 109.995 245.553 110.456" stroke="#645841" stroke-linecap="round"/>
<path d="M246.809 128.43C245.311 128.652 243.727 128.816 242.213 128.913C240.996 128.991 239.722 129.523 238.546 129.847C237.585 130.112 236.75 130.703 235.84 131.093C235.412 131.276 235.115 131.396 234.653 131.426C234.222 131.453 233.874 131.875 233.526 132.091C232.748 132.574 231.923 133.373 231.689 134.271C231.291 135.798 231.442 137.423 231.442 139.007C231.442 139.703 231.463 140.108 231.883 140.628C232.219 141.045 233.135 141.075 233.638 141.187C236.212 141.759 238.742 141.634 241.364 141.67C241.962 141.678 242.714 141.901 243.287 142.1C244.186 142.411 244.846 143.146 245.67 143.608C247.563 144.668 249.763 145.209 251.877 145.659C252.701 145.835 253.497 146.015 254.315 146.212C255.656 146.536 257.033 146.626 258.363 146.996C260.845 147.687 263.329 148.4 265.848 148.977C267.628 149.385 269.44 149.794 271.163 150.368" stroke="#645841" stroke-linecap="round"/>
<path d="M248.062 128.238C248.656 128.768 249.189 129.238 249.963 129.484C250.613 129.69 251.304 129.714 251.971 129.828C253.484 130.085 254.967 130.313 256.503 130.418C258.921 130.583 261.307 131.055 263.692 131.487C265.259 131.77 266.7 132.378 268.25 132.684C270.572 133.142 272.88 133.693 275.22 134.037" stroke="#645841" stroke-linecap="round"/>
<path d="M249.61 113.066C249.751 112.315 251.913 112.958 252.327 113.066C253.367 113.335 254.432 113.292 255.463 113.517C256.811 113.811 258.18 114.033 259.527 114.333C261.449 114.76 263.369 114.709 265.326 114.709C267.779 114.709 270.047 116.062 272.515 116.062" stroke="#645841" stroke-linecap="round"/>
<path d="M251.352 111.616C251.352 111.04 251.131 109.604 251.954 109.587C253.128 109.562 254.249 110.008 255.401 110.178C256.539 110.345 257.648 110.182 258.762 110.489C259.673 110.74 260.879 110.642 261.811 110.704C263.031 110.785 264.218 110.736 265.43 110.918C266.879 111.137 268.28 111.569 269.736 111.735C270.904 111.868 272.052 112.123 273.194 112.39" stroke="#645841" stroke-linecap="round"/>
<path d="M251.157 110.167C250.887 109.693 250.557 109.284 251.146 108.986C251.795 108.658 252.499 108.463 253.186 108.234" stroke="#645841" stroke-linecap="round"/>
<path d="M254.73 107.752C256.658 108.147 258.592 108.463 260.508 108.912C261.388 109.118 262.301 109.424 263.214 109.379C263.981 109.34 264.729 109.298 265.501 109.298C266.706 109.298 267.921 109.253 269.125 109.304C269.887 109.335 270.881 109.509 271.547 109.878" stroke="#645841" stroke-linecap="round"/>
<path d="M232.021 142.059C231.504 143.074 231.315 143.824 231.35 144.947C231.384 146.027 231.757 147.148 231.989 148.201C232.05 148.48 232.112 149.366 232.295 149.581C232.643 149.991 233.808 149.977 234.287 149.983C236.607 150.016 238.685 150.528 240.934 151.068C242.827 151.522 244.252 152.85 246.093 153.371C249.222 154.258 252.438 154.859 255.586 155.675C257.525 156.177 259.5 156.708 261.497 156.861C262.76 156.958 264.077 157.429 265.31 157.715C266.445 157.978 267.546 158.434 268.655 158.794C269.384 159.031 270.098 159.309 270.84 159.508C271.233 159.614 271.431 159.938 271.838 159.938" stroke="#645841" stroke-linecap="round"/>
<path d="M209.601 162.064C210.007 160.885 210.474 159.727 211.748 159.417C212.204 159.307 212.626 159.208 213.08 159.068" stroke="#645841" stroke-linecap="round"/>
<path d="M222.838 154.816C223.891 154.05 225.27 154.212 226.027 153.076" stroke="#645841" stroke-linecap="round"/>
<path d="M227.962 153.365C229.119 153.618 230.043 154.267 231.173 154.579C235.828 155.864 240.417 157.383 245.089 158.616C246.289 158.933 247.316 159.537 248.504 159.873C249.514 160.158 250.53 160.424 251.543 160.699C252.487 160.956 253.25 161.534 254.196 161.827C255.369 162.191 256.598 162.409 257.793 162.686C259.667 163.12 261.527 163.607 263.398 164.05C265.785 164.615 268.132 165.326 270.518 165.908C271.754 166.209 273.158 166.799 274.448 166.799" stroke="#645841" stroke-linecap="round"/>
<path d="M209.02 163.125C210.132 163.559 211.223 164.046 212.327 164.499C214.022 165.196 215.764 165.728 217.476 166.373C220.087 167.357 222.666 168.139 225.374 168.848C227.314 169.357 229.208 169.973 231.114 170.593C235.43 171.999 239.898 172.848 244.209 174.293C245.533 174.737 246.794 175.34 248.123 175.769C249.427 176.191 250.762 176.528 252.08 176.902C252.858 177.123 253.572 177.345 254.217 177.847C255.081 178.521 256.037 178.921 257.014 179.41C258.531 180.168 259.886 181.224 261.412 181.976C263.982 183.242 267.048 183.569 269.82 184.129C271.433 184.455 272.985 184.829 274.351 185.74" stroke="#645841" stroke-linecap="round"/>
<path d="M208.943 162.466C208.059 162.466 207.019 162.619 206.167 162.315C205.602 162.114 205.036 161.95 204.457 161.797" stroke="#645841" stroke-linecap="round"/>
<path d="M208.313 161.915C207.054 161.091 205.781 160.306 204.457 159.594" stroke="#645841" stroke-linecap="round"/>
<path d="M209.058 161.089C208.689 160.794 208.275 160.549 207.882 160.289C207.393 159.966 206.936 159.618 206.461 159.279" stroke="#645841" stroke-linecap="round"/>
<path d="M209.176 159.988C208.592 159.613 207.973 159.3 207.366 158.965" stroke="#645841" stroke-linecap="round"/>
<path d="M223.265 154.556C222.529 154.231 222.087 153.6 221.573 153.021" stroke="#645841" stroke-linecap="round"/>
<path d="M223.501 153.967C223.176 153.503 222.685 153.126 222.281 152.738C221.81 152.285 221.4 151.825 220.982 151.33" stroke="#645841" stroke-linecap="round"/>
<path d="M225.074 153.925C224.633 153.423 224.209 152.937 223.854 152.369C223.68 152.091 223.519 151.807 223.303 151.564" stroke="#645841" stroke-linecap="round"/>
<path d="M225.743 152.826C225.082 152.396 224.601 151.919 224.13 151.291" stroke="#645841" stroke-linecap="round"/>
<path d="M226.648 153.338C226.56 152.884 226.348 152.446 226.132 152.04C225.912 151.625 225.688 151.425 225.35 151.135" stroke="#645841" stroke-linecap="round"/>
<path d="M163.037 27.3516C163.037 29.9468 163.763 33.911 162.563 36.2261C161.099 39.049 161.613 42.1643 161.613 45.2061C161.613 46.6575 161.139 49.1315 161.719 50.5071C162.314 51.9213 162.325 53.1606 162.325 54.6872C162.325 55.9112 161.936 56.6481 161.56 57.7597C161.063 59.2326 160.969 60.7646 160.426 62.2167C159.559 64.5392 159.477 66.5847 159.477 69.0078C159.477 71.6759 159.477 74.344 159.477 77.012C159.477 78.6911 159.477 80.3702 159.477 82.0493C159.477 83.5538 158.998 86.0795 159.833 87.4162C160.709 88.8181 159.981 90.9101 160.664 92.4798C161.36 94.0823 161.089 97.2909 160.268 98.7434C158.999 100.989 157.815 103.686 157.815 106.392" stroke="#645841" stroke-linecap="round"/>
<path d="M154.255 25.6895C154.141 27.4073 153.543 28.9832 153.543 30.7267C153.543 32.1443 153.349 33.9393 152.963 35.2892C152.151 38.1311 152.357 41.3389 152.357 44.2825C152.357 47.1287 152.416 49.9816 152.357 52.8273C152.321 54.5123 152.119 56.1861 152.119 57.891C152.119 59.4765 152.179 60.8826 151.631 62.3876C150.707 64.9283 149.19 67.1811 148.361 69.7852C147.811 71.5137 147.609 73.0367 147.609 74.8357C147.609 76.1367 147.609 77.4378 147.609 78.7389C147.609 79.968 148.084 80.9474 148.084 82.1806C148.084 83.4697 148.263 84.7428 148.335 86.031C148.543 89.7803 148.613 93.4674 148.335 97.2264C148.195 99.1076 148.084 100.935 148.084 102.831" stroke="#645841" stroke-linecap="round"/>
<path d="M161.378 25.8044C162.151 25.3625 162.857 25.2832 163.737 25.2356C164.441 25.1976 164.82 24.8318 165.465 24.6984C166.467 24.491 167.686 24.6668 168.709 24.6668C171.123 24.6668 173.583 24.8053 175.977 24.4772C178.463 24.1367 180.832 23.3171 183.288 22.9393C185.114 22.6583 186.607 21.8551 188.344 21.4014C190.02 20.9636 191.791 21.0028 193.442 20.4744C194.342 20.1864 195.14 19.7345 196.075 19.5475C198.69 19.0245 201.492 19.0663 204.144 18.7259C205.708 18.5251 207.291 18.6934 208.853 18.4836C210.212 18.301 211.485 17.775 212.782 17.3565C214.792 16.7077 216.903 16.1067 218.986 15.7554C222.639 15.1393 226.427 15.3762 230.12 15.3762C233.749 15.3762 237.462 14.1087 241.032 13.4802C244.755 12.825 248.055 11.1493 251.587 9.87771C253.419 9.21828 255.412 9.44722 257.212 8.74009C258.535 8.22019 259.937 8.27325 261.341 7.8974C262.437 7.60405 263.184 7.41286 264.333 7.41286C266.494 7.41286 268.48 6.94709 270.59 6.46484" stroke="#645841" stroke-linecap="round"/>
<path d="M60.2607 1.24219C62.1392 1.38307 63.969 2.12787 65.7859 2.46853C69.6041 3.18446 73.2131 4.97321 77.0868 5.50144C78.3149 5.66891 79.3791 5.97793 80.5284 6.43768C81.7031 6.90753 82.9879 6.92129 84.1811 7.41348C86.2065 8.24897 88.5 8.40663 90.4052 9.5497" stroke="#645841" stroke-linecap="round"/>
<path d="M108.207 13.1113C112.032 13.2968 116.455 13.4656 120.049 15.0629C121.183 15.567 122.362 15.6399 123.477 16.2497C124.277 16.6872 124.643 16.909 125.534 16.909" stroke="#645841" stroke-linecap="round"/>
<path d="M143.339 21.8926C144.667 21.9625 147.567 21.9717 148.482 22.9475C149.792 24.3455 152.457 24.9906 154.257 25.2156" stroke="#645841" stroke-linecap="round"/>
<path d="M129.077 23.2957C131.421 22.626 133.81 22.1411 136.168 21.5414C137.841 21.1162 139.497 20.587 141.203 20.298C141.982 20.1659 142.621 19.928 143.36 19.6662C144.434 19.2856 145.58 19.2695 146.647 18.8798C147.393 18.6071 148.187 18.5216 148.932 18.2412C149.835 17.9018 150.743 17.595 151.688 17.3943C155.081 16.6738 158.469 15.7457 161.958 15.5795C162.985 15.5307 164.023 15.6065 165.043 15.4653C166.066 15.3238 166.957 14.8752 167.947 14.6453C170.384 14.0796 172.778 13.5569 175.267 13.2136C175.97 13.1166 176.681 13.0955 177.384 12.9985C178.449 12.8516 179.438 12.4379 180.476 12.1785C182.346 11.711 184.238 11.1643 186.048 10.5116C188.801 9.51878 191.735 9.0902 194.503 8.0986C196.909 7.23722 199.242 6.23013 201.668 5.44364C202.974 5.02051 204.296 4.65242 205.607 4.24723C206.775 3.88638 207.984 3.87371 209.156 3.4541C209.92 3.18089 210.782 3.04709 211.515 2.72819C212.165 2.44564 213.057 2.52298 213.767 2.36523" stroke="#645841" stroke-linecap="round"/>
<path d="M129.562 23.0526C131.174 23.0526 132.028 23.9975 133.319 24.5783C134.569 25.1409 136.241 24.89 137.5 24.4304C138.63 24.0178 139.782 23.8076 140.934 23.4693C142.807 22.9194 144.475 22.0524 146.419 21.7016C147.803 21.4517 149.149 21.3588 150.546 21.3588C151.062 21.3588 151.324 21.0393 151.783 20.9017C153.512 20.3829 155.55 20.2467 157.092 19.2079C157.795 18.7346 158.39 18.1452 159.257 18.0854C159.834 18.0456 160.29 17.7374 160.843 17.6351C161.742 17.4686 162.543 17.3662 163.464 17.3662C164.343 17.3662 165.024 17.2777 165.864 17.1377C166.925 16.9609 167.987 17.1147 169.063 16.8756C169.701 16.7338 170.545 16.6344 171.086 16.2774C171.377 16.086 171.654 16.1132 171.987 16.0757C172.71 15.9945 173.398 15.8214 174.131 15.8001C175.14 15.7709 176.055 15.4402 177.055 15.4305C177.839 15.4229 178.624 15.4305 179.408 15.4305C182.195 15.4305 184.631 14.4788 187.352 14.0324C187.945 13.9352 188.454 13.7558 189.006 13.5216C189.748 13.2065 190.472 13.1777 191.244 12.9906C191.844 12.845 192.396 12.5595 192.998 12.4126C193.894 12.1941 194.858 12.1607 195.7 11.7606C197.241 11.0283 198.709 10.7541 200.345 10.3289C201.181 10.1116 201.979 9.81722 202.838 9.6971C203.717 9.57435 204.592 9.55634 205.446 9.30054C207.239 8.76396 208.98 8.10944 210.756 7.5328C212.927 6.82793 215.152 6.16088 217.276 5.38867" stroke="#645841" stroke-linecap="round"/>
<path d="M218.365 5.1479C221.116 5.08393 223.845 4.68033 226.592 4.54297" stroke="#645841" stroke-linecap="round"/>
<path d="M128.839 19.0605C128.839 20.1384 129.202 21.1299 129.202 22.2062" stroke="#645841" stroke-linecap="round"/>
<path d="M128.354 18.4543C131.332 18.4543 134.929 18.9781 137.67 17.6074" stroke="#645841" stroke-linecap="round"/>
<path d="M152.912 12.1667C155.556 11.7464 158.23 11.0807 160.897 10.8426C162.375 10.7106 163.731 10.4408 165.159 10.0562C167.121 9.5274 169.123 9.18429 171.094 8.69172C172.901 8.23991 174.727 7.70744 176.477 7.06513C178.07 6.48063 179.545 5.57013 181.142 5.02854C182.687 4.50456 184.329 4.41545 185.887 3.95984C187.937 3.36054 189.976 2.69473 191.99 2.00391" stroke="#645841" stroke-linecap="round"/>
<path d="M93.8711 15.7949C94.5718 15.992 95.4552 16.3388 96.0488 16.7628C96.4618 17.0578 96.9753 17.3677 97.5007 17.3677" stroke="#645841" stroke-linecap="round"/>
<path d="M99.5586 18.0923C100.043 17.1567 101.472 16.858 102.395 16.4927C103.047 16.2347 103.598 15.7523 104.196 15.3971C104.977 14.934 105.853 14.6619 106.697 14.3418" stroke="#645841" stroke-linecap="round"/>
<path d="M95.6885 14.8269C97.1435 15.6892 99.4432 14.6103 100.877 14.1279C102.738 13.502 104.618 12.933 106.436 12.1921C108.053 11.5335 109.493 10.3273 111.188 9.89342C112.195 9.63565 113.174 9.29829 114.199 9.14062" stroke="#645841" stroke-linecap="round"/>
<path d="M94.9612 9.98633C94.103 10.2204 93.5936 11.8707 93.3883 12.5942C93.0684 13.7222 92.4535 14.6388 91.9365 15.6726" stroke="#645841" stroke-linecap="round"/>
<path d="M93.8711 11.5612C95.8367 10.4731 98.0767 9.73717 100.236 9.12806C102.438 8.50711 104.471 7.79842 106.561 6.84278C108.023 6.17401 109.625 5.47784 111.172 5.04144C112.977 4.53239 114.769 3.86785 116.616 3.57617" stroke="#645841" stroke-linecap="round"/>
<path d="M149.716 6.33669C149.552 5.72149 148.926 5.38164 148.871 4.7455C148.834 4.3205 149.069 3.90549 149.244 3.53603C149.434 3.13702 149.531 2.72234 149.716 2.32227" stroke="#645841" stroke-linecap="round"/>
<path d="M150.797 6.33566C151.021 5.62391 151.234 4.87788 151.333 4.13545C151.422 3.46739 151.175 2.97093 150.874 2.39844" stroke="#645841" stroke-linecap="round"/>
<path d="M119.61 4.94626C119.124 4.22339 118.667 3.47013 118.409 2.63025C118.301 2.27664 118.75 2.20287 118.992 2.08984" stroke="#645841" stroke-linecap="round"/>
<path d="M120.841 4.09941C121.003 3.71593 121.152 3.32892 121.304 2.94141" stroke="#645841" stroke-linecap="round"/>
<path d="M125.858 14.6738C124.991 15.8122 122.845 19.3934 125.447 20.0607C126.092 20.2262 127.011 20.4323 127.66 20.1722C128.227 19.9444 128.763 19.2365 128.993 18.6968C129.242 18.114 129.498 16.8025 128.792 16.4494" stroke="#645841" stroke-linecap="round"/>
<path d="M117.136 11.3555C116.447 12.9672 115.717 14.4382 116.287 16.2234C116.668 17.4172 117.646 18.4225 118.89 18.6466C119.565 18.7683 120.507 18.7984 121.065 18.3378C121.814 17.7186 122.386 16.7844 122.386 15.8031C122.386 15.53 122.386 15.257 122.386 14.9839" stroke="#645841" stroke-linecap="round"/>
<path d="M116.907 11.7413C117.932 11.7495 119.446 11.5463 120.364 12.0929C121.479 12.7568 121.841 14.1598 123.221 14.499C124.312 14.7675 125.484 14.6749 126.6 14.6749C127.641 14.6749 128.682 14.6749 129.723 14.6749" stroke="#645841" stroke-linecap="round"/>
<path d="M127.171 14.7521C126.297 13.7014 124.868 11.6207 126.189 10.2745C126.775 9.67796 127.982 9.85831 128.737 9.54538C129.2 9.35327 129.366 9.69798 129.642 10.0429" stroke="#645841" stroke-linecap="round"/>
<path d="M125.707 10.2754C125.199 9.95977 124.373 9.69829 124.223 9.05736C124.176 8.85676 123.978 8.46646 124.18 8.32824C125.003 7.76644 125.647 7.2213 126.689 7.20026C127.609 7.18167 128.499 7.41899 129.421 7.41899C129.898 7.41899 130.407 7.43293 130.785 7.77068C131.303 8.23296 131.055 8.7669 130.802 9.2718" stroke="#645841" stroke-linecap="round"/>
<path d="M127.946 7.72656C127.793 8.29695 127.715 8.8368 127.715 9.42497" stroke="#645841" stroke-linecap="round"/>
<path d="M122.618 12.2806C122.209 10.8331 121.992 9.62961 122.506 8.19755C122.739 7.54989 122.842 6.93557 122.849 6.25038C122.854 5.85285 122.722 5.76267 122.3 5.69282C121.831 5.61509 120.874 5.47753 120.443 5.73571C120.214 5.87327 120.43 6.83192 120.456 7.02239C120.559 7.78632 120.608 8.57909 120.225 9.26978" stroke="#645841" stroke-linecap="round"/>
<path d="M118.834 9.27055C118.418 9.27055 117.309 9.05224 117.071 9.43782C116.938 9.65462 116.981 9.95237 116.981 10.197" stroke="#645841" stroke-linecap="round"/>
<path d="M119.299 8.19C118.774 7.64574 118.422 7.19195 118.235 6.44012C118.073 5.78984 118.102 5.14478 118.063 4.48438" stroke="#645841" stroke-linecap="round"/>
<path d="M130.183 15.7539C131.409 16.0034 132.685 16.7813 133.978 16.5688C134.664 16.4561 135.311 16.1879 136.003 16.0842C136.406 16.0237 136.786 16.028 137.131 15.8311" stroke="#645841" stroke-linecap="round"/>
<path d="M131.883 11.7415C133.415 11.9359 134.959 12.1832 136.506 12.2047C137.818 12.2229 139.125 11.6827 140.375 11.3555" stroke="#645841" stroke-linecap="round"/>
<path d="M135.355 8.42166C135.355 7.46936 135.322 6.58663 134.934 5.69819C134.879 5.57072 134.861 5.22178 134.763 5.13635C134.612 5.00428 134.354 4.85083 134.18 4.75034C133.939 4.61134 133.699 4.47999 133.468 4.32574C133.282 4.20204 133.198 3.99587 133.004 3.86683C132.625 3.61361 132.054 3.66611 131.606 3.71242C130.927 3.78267 130.931 5.60622 130.963 6.08849C131.013 6.84425 131.34 7.53874 131.34 8.31014C131.34 8.80207 131.421 9.06675 131.885 9.30946C132.782 9.77813 133.916 9.65625 134.892 9.88847" stroke="#645841" stroke-linecap="round"/>
<path d="M136.053 6.02831C135.829 5.66219 135.772 5.21536 135.685 4.80168C135.654 4.65596 135.421 4.05109 135.47 3.88386C135.476 3.86252 138.327 4.1755 138.618 4.1755C138.856 4.1755 139.17 4.12309 139.399 4.18837C139.7 4.2745 139.756 5.06337 139.759 5.30778C139.771 6.42306 139.878 7.62587 139.755 8.73891C139.689 9.33214 138.049 9.46723 137.619 9.51949C136.816 9.61708 134.395 9.27074 135.204 9.27074" stroke="#645841" stroke-linecap="round"/>
<path d="M141.455 9.42442C140.864 9.52292 140.518 7.9605 140.408 7.52872C140.324 7.19705 142.8 7.34001 143.11 7.34001C143.445 7.34001 145.246 7.12474 145.392 7.41721" stroke="#645841" stroke-linecap="round"/>
<path d="M145.394 6.7207C145.847 7.04262 146.275 7.40388 146.839 7.48842C147.173 7.53855 147.06 7.64034 147.105 7.93018C147.138 8.14584 147.596 9.19783 147.169 9.25116C145.834 9.41808 144.398 9.26832 143.052 9.26832C142.567 9.26832 142.124 9.28688 141.654 9.40557C141.213 9.51669 141.008 9.54793 140.916 9.96313" stroke="#645841" stroke-linecap="round"/>
<path d="M141.532 13.5945C141.575 14.1243 141.646 15.1988 142.244 15.413C142.529 15.5149 143.12 15.4912 143.376 15.3272C144.338 14.7118 144.72 13.1932 144.637 12.1277C144.609 11.7626 144.543 11.415 144.543 11.0469" stroke="#645841" stroke-linecap="round"/>
<path d="M146.086 10.8145C146.202 11.4835 146.377 12.1784 146.215 12.856C146.086 13.3912 145.79 13.8806 145.511 14.3485C144.88 15.4106 144.218 16.4821 143.414 17.4237C142.855 18.079 142.097 18.2711 141.24 18.097C140.676 17.9827 140.219 17.494 140.219 16.9133" stroke="#645841" stroke-linecap="round"/>
<path d="M138.987 16.9922C138.862 18.5598 138.013 20.8174 140.09 21.3798C140.681 21.54 141.295 21.6204 141.865 21.3583C142.32 21.1494 142.432 20.5862 142.616 20.1574" stroke="#645841" stroke-linecap="round"/>
<path d="M146.623 14.8291C146.1 16.2471 146.107 18.0768 147.756 18.6891C148.537 18.9793 149.432 19.2197 150.106 18.6376C150.403 18.381 150.82 17.9463 151.092 17.6683C151.282 17.475 151.658 17.1905 151.774 16.9178C151.974 16.4488 151.896 15.7475 151.873 15.2494C151.826 14.2562 151.154 13.8756 150.406 13.4395" stroke="#645841" stroke-linecap="round"/>
<path d="M151.645 14.4446C151.96 13.6044 152.044 12.7685 152.142 11.8885C152.172 11.6205 150.388 11.7426 150.101 11.7426" stroke="#645841" stroke-linecap="round"/>
<path d="M147.476 13.5929C148.403 13.4588 149.317 13.3613 150.255 13.3613" stroke="#645841" stroke-linecap="round"/>
<path d="M150.255 11.8184C150.153 10.5595 150.375 8.3484 149.328 7.41797" stroke="#645841" stroke-linecap="round"/>
<path d="M148.094 7.57227H148.557" stroke="#645841" stroke-linecap="round"/>
<path d="M147.396 11.9727C147.885 12.0859 148.372 12.1878 148.863 12.2815" stroke="#645841" stroke-linecap="round"/>
<path d="M164.412 134.069C163.399 133.917 162.394 133.796 161.378 133.689" stroke="#645841" stroke-linecap="round"/>
<path d="M103.548 130.467C105.38 130.96 107.217 131.436 109.046 131.941C109.378 132.033 110.418 132.271 110.837 132.574C111.24 132.865 111.713 133.505 112.059 133.89C113.159 135.112 115.588 135.253 117.189 135.386C118.804 135.521 119.421 136.163 120.675 137.145C122.748 138.767 125.409 139.58 127.585 141.085C129.229 142.221 130.592 143.1 132.431 143.929C134.145 144.701 135.657 145.573 137.318 146.436C139.229 147.428 141.356 148.068 143.48 148.395C144.331 148.526 145.195 148.401 146.04 148.563C146.873 148.724 147.613 148.941 148.294 149.427" stroke="#645841" stroke-linecap="round"/>
<path d="M101.082 130.654C100.378 128.842 99.141 127.085 100.324 125.261C101.718 123.111 103.95 121.602 104.516 118.983C104.703 118.12 105.276 117.425 105.507 116.581C105.692 115.901 105.633 115.171 105.633 114.474C105.633 112.859 105.865 112.298 107.339 111.504" stroke="#645841" stroke-linecap="round"/>
<path d="M102.658 130.434C102.187 131.187 101.85 132.049 102.157 132.937C102.255 133.222 102.439 133.452 102.583 133.713C102.682 133.892 102.729 134.08 102.795 134.27C102.947 134.704 103.08 135.066 103.536 135.287C103.921 135.473 104.308 135.397 104.647 135.164C105.031 134.9 105.169 134.609 105.263 134.168C105.354 133.741 105.256 133.46 105.123 133.057C105.028 132.767 105.029 132.435 104.887 132.161C104.54 131.489 103.788 131.208 103.13 130.945" stroke="#645841" stroke-linecap="round"/>
<path d="M105.172 135.392C106.895 135.283 108.526 134.614 110.169 134.133" stroke="#645841" stroke-linecap="round"/>
<path d="M106.577 111.372C106.759 111.323 106.869 111.171 107.034 111.09C107.496 110.864 108.165 111.041 108.661 110.989C109.343 110.917 110.13 110.581 110.771 110.337C112.017 109.863 112.65 108.75 113.836 108.146C114.693 107.709 115.534 107.948 116.491 107.85C116.708 107.828 116.799 107.679 116.995 107.635C117.419 107.541 117.922 107.558 118.353 107.528C120.278 107.394 122.014 107.025 123.898 106.6C124.862 106.383 125.797 106.17 126.782 106.17" stroke="#645841" stroke-linecap="round"/>
<path d="M126.903 106.533C129.888 106.533 132.865 106.433 135.843 106.284C137.708 106.191 139.551 106.291 141.422 106.291" stroke="#645841" stroke-linecap="round"/>
<path d="M142.869 105.565C145.7 105.565 148.427 105.484 151.244 105.161C152.035 105.071 152.861 104.718 153.637 104.718C154.062 104.718 154.525 104.778 154.934 104.657C155.485 104.495 156.041 104.396 156.608 104.355C157.172 104.314 157.713 103.946 158.295 103.878C159.432 103.744 161.318 104.356 162.227 103.629" stroke="#645841" stroke-linecap="round"/>
<path d="M162.35 103.873C163.976 102.976 165.277 102.059 167.135 102.059C168.161 102.059 169.188 102.059 170.214 102.059" stroke="#645841" stroke-linecap="round"/>
<path d="M181.676 97.2031C181.302 97.8702 180.856 98.5484 180.655 99.2961C180.53 99.7586 180.612 100.271 180.633 100.741C180.662 101.378 180.67 102.013 180.672 102.65C180.674 103.16 180.757 103.784 180.586 104.28C180.194 105.418 179.051 106.162 179.051 107.471" stroke="#645841" stroke-linecap="round"/>
<path d="M177.274 107.624C173.996 107.311 170.687 107.084 167.393 107.084" stroke="#645841" stroke-linecap="round"/>
<path d="M166.934 106.543C166.7 106.28 166.85 105.408 166.861 105.072C166.882 104.448 167.09 103.959 167.303 103.386C167.628 102.512 168.104 101.479 168.169 100.538C168.203 100.045 168.207 99.8014 168.632 99.5176" stroke="#645841" stroke-linecap="round"/>
<path d="M168.551 99.0561C169.771 99.0561 171.017 99.1308 172.231 98.9875C173.28 98.8637 174.243 98.6007 175.31 98.5929C176.865 98.5816 178.421 98.5929 179.976 98.5929" stroke="#645841" stroke-linecap="round"/>
<path d="M157.633 108.709C157.837 109.936 158.104 112.156 159.206 112.943" stroke="#645841" stroke-linecap="round"/>
<path d="M159.445 113.672C159.892 113.225 160.779 113.309 161.368 113.309C163.748 113.309 166.112 114.131 168.459 114.458C170.185 114.699 171.729 115.003 173.48 115.003" stroke="#645841" stroke-linecap="round"/>
<path d="M174.811 114.759C175.546 114.672 176.271 114.44 176.961 114.181C177.257 114.07 177.396 113.855 177.714 113.791" stroke="#645841" stroke-linecap="round"/>
<path d="M158.117 108.105C159.331 108.44 160.789 108.226 162.029 108.226C162.644 108.226 163.097 107.863 163.683 107.863" stroke="#645841" stroke-linecap="round"/>
<path d="M176.022 108.467C176.63 108.994 177.234 109.498 177.777 110.093C178.124 110.474 178.58 110.722 178.805 111.189C179.174 111.952 178.9 112.427 178.563 113.185" stroke="#645841" stroke-linecap="round"/>
<path d="M177.474 113.672C178.967 114.098 180.291 114.956 181.816 115.352C182.642 115.567 183.489 115.605 184.141 116.213C184.679 116.713 185.03 117.167 185.459 117.725C185.603 117.913 185.59 118.149 185.862 118.215C186.436 118.355 187.171 118.204 187.744 118.094C189.268 117.803 190.82 117.906 192.368 117.906C194.805 117.906 197.231 118.027 199.668 118.027C200.942 118.027 202.186 118.269 203.452 118.269C204.204 118.269 204.32 118.21 203.902 117.449C203.536 116.781 203.283 116.219 202.706 115.702C202.271 115.312 202.068 115.018 201.819 114.499C201.472 113.775 200.798 113.337 200.279 112.751C199.922 112.348 199.64 112.001 199.184 111.709C198.901 111.528 198.855 111.041 198.498 111.01C197.14 110.892 195.701 111.252 194.324 111.252C192.299 111.252 190.258 111.173 188.235 111.266C186.442 111.348 184.901 111.897 183.214 112.368C182.843 112.471 182.497 112.526 182.125 112.603C181.64 112.703 181.31 113.142 180.928 113.423C180.561 113.694 180.135 113.933 180.135 114.398" stroke="#645841" stroke-linecap="round"/>
<path d="M201.328 101.641C201.35 102.965 201.434 104.286 201.51 105.608C201.544 106.213 201.579 106.843 201.815 107.41C202.054 107.985 202.376 108.35 202.376 108.979" stroke="#645841" stroke-linecap="round"/>
<path d="M200.462 110.027C199.586 110.127 198.657 110.082 197.934 110.644" stroke="#645841" stroke-linecap="round"/>
<path d="M186.342 111.015C185.835 109.89 185.798 108.767 185.787 107.554C185.779 106.612 185.563 105.745 185.294 104.848" stroke="#645841" stroke-linecap="round"/>
<path d="M186.339 104.106C187.226 103.727 188.19 103.501 189.148 103.393C189.919 103.306 190.651 103.067 191.416 102.975C192.101 102.893 192.804 102.934 193.492 102.934C195.384 102.934 197.275 102.934 199.166 102.934" stroke="#645841" stroke-linecap="round"/>
<path d="M172.035 102.073C172.87 101.39 173.532 100.963 174.625 100.963" stroke="#645841" stroke-linecap="round"/>
<path d="M173.573 102.566C174.217 102.019 175.204 101.693 176.04 101.641" stroke="#645841" stroke-linecap="round"/>
<path d="M189.484 106.635C189.332 106.011 189.281 105.527 189.926 105.21C190.108 105.121 190.273 105.094 190.471 105.094" stroke="#645841" stroke-linecap="round"/>
<path d="M189.978 107.372C190.256 107.026 190.577 106.718 190.903 106.447" stroke="#645841" stroke-linecap="round"/>
<path d="M194.665 113.234C195.556 112.962 196.591 113.089 196.964 114.067C197.142 114.532 197.307 115 197.502 115.454" stroke="#645841" stroke-linecap="round"/>
<path d="M195.961 115.27C196.246 115.755 196.875 116.456 196.455 117.01C196.246 117.286 195.98 117.526 195.776 117.798" stroke="#645841" stroke-linecap="round"/>
<path d="M172.772 109.842C173.289 110.153 173.997 110.562 174.068 111.233C174.087 111.422 174.068 111.624 174.068 111.815" stroke="#645841" stroke-linecap="round"/>
<path d="M172.53 111.26C172.618 111.618 172.819 112.093 172.736 112.473C172.699 112.642 172.634 112.817 172.592 112.986" stroke="#645841" stroke-linecap="round"/>
<path d="M178.881 106.758C179.125 107.111 179.593 107.371 179.936 107.594C180.437 107.918 180.979 108.288 181.567 108.443C182.004 108.559 182.452 108.595 182.889 108.731" stroke="#645841" stroke-linecap="round"/>
<path d="M181.406 98.7422C182.412 98.7422 183.42 98.987 184.407 99.1602C185.354 99.3262 186.283 99.6433 187.21 99.8865C188.354 100.186 189.506 100.45 190.65 100.75C190.891 100.813 191.257 100.863 191.472 101.017C191.779 101.236 192.048 101.452 192.383 101.641C193.144 102.069 193.819 102.313 194.357 102.997" stroke="#645841" stroke-linecap="round"/>
<path d="M194.481 102.812C195.084 102.391 195.677 101.945 196.359 101.654C197.015 101.374 197.726 101.286 198.408 101.093C199.226 100.861 200.01 100.565 200.833 100.346" stroke="#645841" stroke-linecap="round"/>
<path d="M201.942 100.775C203.947 100.93 205.912 100.988 207.917 101.022C210.027 101.058 212.082 101.645 214.112 102.166C215.784 102.596 217.499 102.798 219.162 103.27C220.057 103.523 221.1 103.633 221.923 104.044" stroke="#645841" stroke-linecap="round"/>
<path d="M223.526 105.463C222.17 107.109 220.919 108.86 219.181 110.129C217.697 111.213 216.123 112.221 214.33 112.678C213.747 112.827 213.17 112.981 212.597 113.165C212.346 113.245 212.357 113.244 212.24 113.418" stroke="#645841" stroke-linecap="round"/>
<path d="M210.82 112.742C209.142 112.495 207.573 112.269 205.989 111.652C204.593 111.109 203.298 110.354 201.816 110.09" stroke="#645841" stroke-linecap="round"/>
<path d="M215.88 105.277C216.297 106.361 215.879 107.425 215.065 108.189C214.741 108.493 214.394 108.761 214.003 108.971C213.821 109.068 213.77 109.087 213.66 109.224" stroke="#645841" stroke-linecap="round"/>
<path d="M217.917 106.02C217.815 106.401 217.657 106.716 217.461 107.061C217.154 107.601 216.857 108.192 216.485 108.692C216.124 109.176 215.663 109.583 215.238 110.007C214.84 110.404 214.565 110.749 214.278 111.2" stroke="#645841" stroke-linecap="round"/>
<path d="M197.318 94.7344C197.078 95.2748 196.858 95.8419 196.756 96.4268C196.634 97.1314 196.393 97.6979 196.393 98.4139C196.393 98.9758 196.393 99.5377 196.393 100.1C196.393 100.597 196.428 100.972 196.146 101.395" stroke="#645841" stroke-linecap="round"/>
<path d="M198.425 94.0547C198.322 94.8825 198.117 95.6386 198.117 96.4837C198.117 97.1743 198.209 97.8426 197.994 98.5154C197.869 98.9039 197.868 99.3971 197.617 99.7316C197.327 100.118 197.213 100.646 197.007 101.085" stroke="#645841" stroke-linecap="round"/>
<path d="M203.485 92.9434C203.702 93.7588 204.061 94.634 204.15 95.4786C204.223 96.1737 204.135 96.8673 204.376 97.5411C204.782 98.6779 204.7 99.8952 205.15 101.022" stroke="#645841" stroke-linecap="round"/>
<path d="M204.597 93.5C204.753 93.8544 204.84 94.2224 204.936 94.5963C205.04 94.9998 205.288 95.3075 205.426 95.6927C205.704 96.469 206.015 97.2469 206.015 98.084C206.015 98.9405 206.015 99.797 206.015 100.654" stroke="#645841" stroke-linecap="round"/>
<path d="M206.754 100.715C207.09 100.197 207.372 99.5491 207.576 98.9679C207.827 98.2528 208.188 97.6602 208.583 97.0151C208.878 96.5342 209.151 95.9479 209.299 95.4014C209.428 94.9296 209.344 94.4153 209.344 93.9316" stroke="#645841" stroke-linecap="round"/>
<path d="M210.636 94.8574C209.86 95.8653 209.208 96.7193 208.91 97.9614C208.745 98.6476 208.579 99.3257 208.286 99.9691C208.143 100.282 207.931 100.427 207.861 100.778" stroke="#645841" stroke-linecap="round"/>
<path d="M218.715 98.9883C218.085 99.9712 217.543 101.119 217.543 102.318" stroke="#645841" stroke-linecap="round"/>
<path d="M219.891 99.6035C219.513 100.252 219.068 100.844 218.712 101.502C218.552 101.796 218.226 102.159 218.226 102.502" stroke="#645841" stroke-linecap="round"/>
<path d="M222.354 102.01C221.749 102.521 221.201 103.077 220.688 103.675" stroke="#645841" stroke-linecap="round"/>
<path d="M222.479 103.121C222.185 103.411 221.904 103.704 221.554 103.923" stroke="#645841" stroke-linecap="round"/>
<path d="M183.623 98.7423C184.33 98.6994 185.088 98.4042 185.764 98.1907C186.392 97.9926 186.936 97.6337 187.57 97.4473" stroke="#645841" stroke-linecap="round"/>
<path d="M189.426 96.3361C189.814 96.1116 190.232 95.8195 190.652 95.6646C190.98 95.5438 191.278 95.3455 191.461 95.041" stroke="#645841" stroke-linecap="round"/>
<path d="M189.056 96.2754C188.707 96.4793 188.388 96.7106 188.025 96.8921C187.722 97.0436 187.446 97.3817 187.145 97.5704" stroke="#645841" stroke-linecap="round"/>
<path d="M191.459 94.732C191.127 94.732 190.701 94.8006 190.372 94.7217C190.099 94.656 189.894 94.5632 189.608 94.547C189.065 94.5163 189.13 93.9299 189.509 93.6905C189.629 93.6145 189.713 93.4707 189.835 93.4027C190.061 93.2761 190.435 93.252 190.691 93.252C191.228 93.252 191.777 93.5924 192.26 93.807" stroke="#645841" stroke-linecap="round"/>
<path d="M187.02 99.5419C188.24 99.1209 189.43 98.3287 190.459 97.5891C190.883 97.2844 191.366 97.1373 191.789 96.832C192.142 96.5762 192.442 96.2251 192.837 96.0337C193.476 95.7236 193.991 95.7185 194.69 95.7185C195.097 95.7185 195.386 95.6296 195.715 95.4102" stroke="#645841" stroke-linecap="round"/>
<path d="M196.765 94.731C196.894 94.7083 196.884 94.6443 196.949 94.5469" stroke="#645841" stroke-linecap="round"/>
<path d="M197.193 94.3008C196.743 94.3008 196.739 94.3303 196.398 94.5612C196.157 94.7247 195.94 94.9209 195.713 95.1025" stroke="#645841" stroke-linecap="round"/>
<path d="M192.199 93.6852C192.566 93.8566 192.861 93.6447 193.179 93.49C193.393 93.3859 193.594 93.2414 193.813 93.1508C194.082 93.0396 194.546 93.1302 194.824 93.1302C195.183 93.1302 195.912 93.2896 196.215 93.0377C196.449 92.842 196.789 92.7547 197.044 92.5752C197.357 92.3537 197.697 92.3469 198.065 92.2669C198.491 92.1741 198.845 92.0766 199.264 91.9448C200.057 91.6953 200.789 91.3115 201.511 90.9102" stroke="#645841" stroke-linecap="round"/>
<path d="M203.794 90.293C204.041 90.306 204.288 90.3332 204.534 90.3546" stroke="#645841" stroke-linecap="round"/>
<path d="M198.121 94.1787C198.88 93.4705 200.067 92.9454 201.105 92.9454C201.465 92.9454 201.737 92.7207 202.082 92.6987C202.327 92.683 202.467 92.6226 202.685 92.5137" stroke="#645841" stroke-linecap="round"/>
<path d="M201.081 91.1574C201.63 91.0239 201.921 90.6047 202.424 90.4106C202.767 90.278 203.215 90.2978 203.582 90.1981C204.387 89.9795 205.05 90.1171 205.864 90.2255C206.556 90.3179 207.132 90.4628 207.707 90.8559C209.14 91.8366 211.118 91.5216 212.551 92.5141" stroke="#645841" stroke-linecap="round"/>
<path d="M202.746 92.6367C203.252 92.871 203.779 92.8804 204.302 93.0478C205.401 93.3999 206.498 93.7374 207.618 94.0174C207.818 94.0674 208.032 94.0117 208.211 94.1168C208.428 94.2445 208.742 94.3177 208.975 94.4251" stroke="#645841" stroke-linecap="round"/>
<path d="M208.914 93.9922C209.295 94.2039 209.632 94.2729 210.052 94.3485C210.709 94.467 211.411 94.7539 212.028 94.9994C212.457 95.1698 212.828 95.5101 213.217 95.7532C213.792 96.112 214.319 96.5512 214.913 96.8769C215.805 97.3659 216.577 98.0243 217.469 98.518C217.813 98.7088 218.065 98.9693 218.466 99.0353C218.681 99.0708 218.948 99.1122 219.103 99.2751C219.557 99.7514 220.295 99.9573 220.823 100.344C221.166 100.595 221.498 100.867 221.851 101.105C222.192 101.334 222.297 101.998 222.543 102.338C222.666 102.508 222.744 102.719 222.889 102.872C223.051 103.044 223.216 103.144 223.358 103.338C223.71 103.82 224.152 104.09 224.578 104.496C224.93 104.833 225.413 104.967 225.712 105.37C225.943 105.681 226.111 105.779 226.435 106.004C226.62 106.133 226.859 106.319 226.98 106.514C227.12 106.743 227.264 106.972 227.401 107.203C227.489 107.351 227.588 107.483 227.685 107.624C227.817 107.815 227.85 108.051 227.99 108.234C228.337 108.689 228.933 108.62 229.405 108.847C229.823 109.048 230.165 109.431 230.553 109.683C230.757 109.816 230.809 110.146 230.937 110.345C231.146 110.671 231.297 111.037 231.471 111.383C231.703 111.844 231.971 112.276 232.156 112.76C232.34 113.238 232.563 113.495 232.889 113.877C233.125 114.153 233.296 114.492 233.489 114.798C233.597 114.97 233.752 115.078 233.828 115.268" stroke="#645841" stroke-linecap="round"/>
<path d="M212.856 92.5762C213.134 92.9176 213.69 93.0609 214.08 93.2751C214.394 93.4481 214.75 93.6748 215.042 93.8986C215.698 94.4011 216.494 94.806 217.245 95.1525C217.386 95.2177 217.545 95.2259 217.68 95.3033C217.91 95.4351 218.103 95.6215 218.331 95.7555C218.978 96.1351 219.244 96.8025 219.846 97.2356C220.542 97.7366 221.255 98.2136 221.949 98.7156C223.318 99.706 224.795 100.544 226.101 101.621C226.405 101.871 226.757 102.107 227.003 102.416C227.259 102.738 227.559 102.931 227.856 103.207C228.222 103.548 228.563 103.965 228.883 104.348C229.551 105.147 230.208 105.945 230.853 106.76C231.071 107.035 231.222 107.36 231.419 107.651C231.727 108.107 232.12 108.491 232.481 108.905C233.021 109.525 233.348 110.356 233.913 110.94C234.312 111.353 234.541 111.868 234.92 112.296C235.429 112.872 235.543 113.676 236.085 114.236C236.209 114.364 236.404 114.648 236.537 114.715" stroke="#645841" stroke-linecap="round"/>
<path d="M234.821 117.182C235.329 117.145 236.248 116.904 236.676 117.303C237.464 118.035 237.96 118.854 238.451 119.722" stroke="#645841" stroke-linecap="round"/>
<path d="M236.153 115.367C236.724 115.69 237.236 116.666 237.363 117.303" stroke="#645841" stroke-linecap="round"/>
<path d="M233.246 115.609L234.698 118.029" stroke="#645841" stroke-linecap="round"/>
<path d="M109.783 112.691C109.27 112.691 108.692 112.623 108.185 112.733C107.63 112.853 107.88 113.087 107.663 113.448" stroke="#645841" stroke-linecap="round"/>
<path d="M106.149 114.66C109.241 112.32 112.232 110.519 116.213 111.294C117.497 111.544 118.168 112.439 119.057 113.313C120.279 114.516 121.741 115.546 123.315 116.242C125.406 117.166 127.722 117.518 129.928 118.067C131.555 118.472 133.611 118.755 135.111 119.574C136.476 120.318 136.774 121.906 138.309 122.544C141.001 123.663 143.935 123.985 146.723 124.782C148.028 125.155 149.181 126.095 150.493 126.541C153.57 127.586 156.144 128.451 158.857 130.26" stroke="#645841" stroke-linecap="round"/>
<path d="M165.975 133.289C164.437 132.63 162.468 132.512 160.825 132.229" stroke="#645841" stroke-linecap="round"/>
<path d="M75.7256 105.566C76.7302 105.624 78.0523 106.302 78.7099 107.018C79.6142 108.003 80.587 108.748 80.9952 110.07C81.3974 111.372 81.5845 112.613 81.7076 113.968C81.7628 114.575 81.8542 115.165 81.7883 115.776C81.6733 116.843 81.268 117.849 81.143 118.915C81.0248 119.924 81.0516 120.953 81.0489 121.967C81.0409 125.094 81.0659 128.222 80.9952 131.35C80.9536 133.188 80.9891 134.602 80.202 136.176" stroke="#645841" stroke-linecap="round"/>
<path d="M73.304 105.928C73.304 109.051 73.304 112.174 73.304 115.297C73.304 116.718 73.304 118.138 73.304 119.559C73.304 120.525 73.42 121.579 73.2234 122.53C72.8919 124.132 72.5781 125.611 72.5781 127.262C72.5781 128.095 72.5781 128.928 72.5781 129.762" stroke="#645841" stroke-linecap="round"/>
<path d="M74.5146 112.824C75.3326 112.966 76.1547 113.196 76.9545 113.416C77.3796 113.533 77.6786 113.775 78.1039 113.846C79.3428 114.052 79.9256 114.122 80.8059 115.002" stroke="#645841" stroke-linecap="round"/>
<path d="M82.2598 116.694C85.1295 115.027 88.7282 114.674 91.905 113.945C94.8185 113.276 97.7918 113.186 100.771 113.186" stroke="#645841" stroke-linecap="round"/>
<path d="M91.3311 101.088C92.3081 101.663 93.1562 102.311 94.275 102.661C95.2279 102.958 96.2342 103.125 97.172 103.467C97.8203 103.704 98.237 104.246 98.8322 104.57C99.3475 104.85 99.8523 105.028 100.21 105.524C100.881 106.455 101.004 107.719 101.198 108.804C101.643 111.293 101.915 113.811 102.354 116.298C102.562 117.478 102.825 118.496 102.825 119.706C102.825 123.829 102.704 127.939 102.704 132.06" stroke="#645841" stroke-linecap="round"/>
<path d="M89.0332 93.9512C89.0332 95.9234 89.1589 97.835 89.3962 99.7921C89.5176 100.794 89.7515 101.77 89.9272 102.763C90.0568 103.496 90.111 104.255 90.4178 104.941C90.6641 105.491 90.843 106.203 90.8883 106.803C90.9396 107.48 90.8348 108.167 90.848 108.846C90.8609 109.513 91.0428 109.742 91.3319 110.284" stroke="#645841" stroke-linecap="round"/>
<path d="M89.3947 101.693C87.6321 101.73 85.8774 101.814 84.1116 101.814C82.8604 101.814 81.2137 101.514 80.025 101.996C79.5818 102.175 79.1061 102.419 78.627 102.419" stroke="#645841" stroke-linecap="round"/>
<path d="M71.974 93.832C71.5204 95.1173 71.445 96.3753 71.611 97.7036" stroke="#645841" stroke-linecap="round"/>
<path d="M72.3379 98.4258V98.5469" stroke="#645841" stroke-linecap="round"/>
<path d="M71.4922 93.9488C72.3857 93.4826 73.2921 93.176 74.2749 92.9405C74.8366 92.8059 75.4101 92.5316 75.9821 92.4969C76.859 92.4438 77.6679 92.0512 78.5362 92.013C79.4308 91.9737 80.33 92.0499 81.2248 92.0063C81.9948 91.9687 82.7562 91.8492 83.5302 91.9054C84.4859 91.9749 85.4266 92.2817 86.36 92.4835C87.4275 92.7143 87.9251 93.5364 88.3092 94.4327" stroke="#645841" stroke-linecap="round"/>
<path d="M72.8223 99.5151C73.684 98.3561 75.4082 98.037 76.7476 97.8078C78.189 97.5613 79.7181 97.7087 81.1703 97.7003C82.4191 97.6931 83.5804 97.6502 84.7864 97.3508C85.6451 97.1376 86.4698 96.8664 87.3405 96.7324" stroke="#645841" stroke-linecap="round"/>
<path d="M34.7106 147.065C36.2217 145.435 37.455 143.684 38.8174 141.929C40.222 140.12 41.8756 137.896 42.0706 135.524C42.1824 134.164 42.0907 132.755 42.0907 131.39C42.0907 129.456 42.1417 127.692 41.6337 125.811C41.3246 124.667 41.154 123.507 40.6524 122.424C40.251 121.558 39.6048 120.658 39.3887 119.715C38.9629 117.857 37.3557 116.519 36.4649 114.869C35.7788 113.598 34.7546 112.332 33.5814 111.562C32.9871 111.172 32.4195 110.968 31.7868 110.641C31.5052 110.496 31.247 110.264 31.0811 110.043" stroke="#645841" stroke-linecap="round"/>
<path d="M37.8599 116.453C37.8599 118.043 38.0632 119.582 38.3237 121.145C38.4896 122.14 38.8034 123.102 38.9152 124.109C39.0223 125.072 38.7567 125.974 38.5186 126.898C38.1301 128.407 37.5292 129.842 37.1408 131.348C36.9544 132.07 36.9362 132.903 36.3409 133.418C35.6407 134.024 35.1031 134.775 34.3446 135.327C33.2077 136.154 32.2032 137.411 30.9638 138.056C29.6172 138.757 28.0122 139.803 26.4873 139.803" stroke="#645841" stroke-linecap="round"/>
<path d="M42.0889 127.584C44.1457 127.155 46.1152 127.32 48.1919 127.195C49.7594 127.1 51.523 126.426 52.9776 125.891" stroke="#645841" stroke-linecap="round"/>
<path d="M41.1211 120.929C43.8191 120.929 46.5459 121.138 49.2002 120.62C50.0507 120.454 50.8919 120.48 51.7409 120.23C52.1964 120.096 52.5049 119.961 52.9777 119.961" stroke="#645841" stroke-linecap="round"/>
<path d="M61.6911 106.412C60.9766 107.906 59.7634 109.239 58.9218 110.687C58.2145 111.904 57.496 113.091 56.9323 114.384C56.7447 114.814 56.7704 115.3 56.6634 115.755C56.4955 116.468 56.3706 117.091 56.1123 117.785C55.8589 118.465 55.8661 119.212 55.6821 119.909C55.4733 120.699 54.9464 121.475 54.5529 122.181C53.8845 123.379 53.9316 124.525 53.948 125.85C53.958 126.659 54.1582 127.419 54.2572 128.216C54.3462 128.934 54.3203 129.593 54.7277 130.219C55.0523 130.719 55.5164 131.147 55.709 131.725C55.8292 132.086 55.9113 132.472 56.0854 132.814C56.2763 133.189 56.9486 133.561 57.3356 133.755" stroke="#645841" stroke-linecap="round"/>
<path d="M73.0635 105.928C70.0097 106.355 67.8109 107.957 65.2532 109.504C64.3834 110.029 63.4107 110.352 62.5915 110.955C61.2257 111.961 60.348 113.517 59.3787 114.874C58.5739 116.001 57.9273 116.86 57.6445 118.255C57.4014 119.454 56.6986 120.312 56.354 121.454C56.053 122.452 56.3251 123.596 56.3608 124.613C56.4034 125.827 56.4669 126.943 56.8783 128.108C57.1426 128.857 57.8243 129.486 58.2764 130.125C58.863 130.954 59.5118 131.738 60.0508 132.598C60.9698 134.066 62.3314 135.11 63.304 136.51C64.1974 137.797 65.7618 138.464 67.068 139.219C67.7246 139.598 68.2869 140.225 68.8828 140.698C69.2079 140.956 69.7969 140.907 69.7969 141.376" stroke="#645841" stroke-linecap="round"/>
<path d="M17.0508 108.832C19.2538 108.832 21.4368 108.73 23.6378 108.711C28.2465 108.671 32.8407 108.011 37.4436 107.985C41.4079 107.963 45.3839 108.099 49.3405 107.797C53.6995 107.464 57.978 106.22 62.3464 105.955C64.1961 105.843 66.0551 106.01 67.905 105.915C69.1004 105.854 70.3569 105.34 71.501 105.021C72.6897 104.689 73.5392 104.355 74.7945 104.355C75.9253 104.355 77.0412 104.428 78.1686 104.47C79.921 104.535 81.5844 105.037 83.324 105.182C84.4501 105.276 85.6077 105.202 86.7384 105.202" stroke="#645841" stroke-linecap="round"/>
<path d="M87.8232 104.96C87.5437 104.366 86.8821 104.253 86.3713 103.898C85.3559 103.194 84.5421 102.42 83.4005 101.889C81.4532 100.983 79.1172 100.611 77.0219 100.181C75.6851 99.9077 74.4292 99.3703 73.1033 99.059C71.9043 98.7775 71.155 98.697 70.2803 97.8223" stroke="#645841" stroke-linecap="round"/>
<path d="M5.67285 100.85C5.92032 101.415 8.91442 100.97 9.43685 100.97C13.2986 100.97 17.1631 101.009 21.0246 100.964C22.8522 100.942 24.5894 100.706 26.395 100.5C28.6601 100.242 31.0049 100.253 33.2844 100.245C37.2365 100.23 41.1889 100.245 45.141 100.245C46.9978 100.245 48.7685 99.8921 50.6122 99.7875C52.3123 99.6911 54.0314 99.7606 55.734 99.7606C58.2261 99.7606 60.8186 99.9731 63.3023 99.7338C65.5508 99.517 67.6152 98.5508 69.9162 98.5508" stroke="#645841" stroke-linecap="round"/>
<path d="M6.27832 101.693C7.86157 102.235 9.297 102.659 10.5733 103.737C11.5745 104.582 12.8303 105.185 13.9004 105.955C14.6084 106.464 15.4402 106.569 16.1319 107.084C16.8636 107.629 17.5691 108.105 18.2559 108.711" stroke="#645841" stroke-linecap="round"/>
<path d="M17.4072 102.059C19.223 102.725 21.0481 103.318 22.623 104.478C23.2141 104.914 23.6417 105.574 24.29 105.923C24.8786 106.24 25.3705 106.712 25.8762 107.14" stroke="#645841" stroke-linecap="round"/>
<path d="M26.4873 103.387C28.786 104.13 31.1462 105.004 33.2356 106.23C34.2462 106.823 35.1773 107.59 36.1661 108.226" stroke="#645841" stroke-linecap="round"/>
<path d="M61.4453 100.363C64.0668 102.002 66.6757 103.664 69.3094 105.283C69.5233 105.415 69.6826 105.508 69.9143 105.566" stroke="#645841" stroke-linecap="round"/>
<path d="M69.6748 101.572C70.7346 102.269 71.8858 102.808 73.0019 103.407C73.5805 103.718 74.1637 104.021 74.7293 104.355C82.6953 109.055 72.0585 102.77 76.329 105.565" stroke="#645841" stroke-linecap="round"/>
<path d="M61.8574 61.9453C80.9077 61.9453 99.9519 62.5283 118.986 62.5283" stroke="#645841" stroke-linecap="round"/>
<path d="M62.4395 51.4499C76.8086 51.4499 90.3476 51.7392 104.476 49.6363C112.714 48.4103 121.171 49.2274 129.478 48.5352" stroke="#645841" stroke-linecap="round"/>
<path d="M240.825 49.1172C243.799 49.2697 246.657 50.1855 249.634 50.2831C254.459 50.4413 259.317 50.2831 264.143 50.2831" stroke="#645841" stroke-linecap="round"/>
<path d="M248.985 67.7734H264.142" stroke="#645841" stroke-linecap="round"/>
<path d="M212.843 179.117C209.315 180.86 206.013 182.725 203.257 185.594C202.053 186.847 201.472 188.403 200.31 189.643C198.659 191.404 197.628 193.749 195.938 195.44" stroke="#645841" stroke-linecap="round"/>
<path d="M220.421 191.357C212.223 194.685 203.918 197.562 195.938 201.268" stroke="#645841" stroke-linecap="round"/>
<path d="M126.562 147.637C117.616 149.164 108.995 152.037 100.135 153.79C94.7281 154.86 89.3963 155.696 84.0068 156.964" stroke="#645841" stroke-linecap="round"/>
<path d="M121.901 158.715C114.818 159.659 107.758 162.006 100.915 163.961" stroke="#645841" stroke-linecap="round"/>
<path d="M27.4636 151.135C22.5647 152.519 17.373 154.251 13.5376 157.742C10.8684 160.171 8.91459 162.411 5.89453 164.543" stroke="#645841" stroke-linecap="round"/>
<path d="M25.7152 166.875C17.5242 171.517 8.11357 175.267 0.648438 180.866" stroke="#645841" stroke-linecap="round"/>
</svg>
