<svg width="407" height="289" viewBox="0 0 407 289" fill="none" xmlns="http://www.w3.org/2000/svg">
<path d="M137.451 204.373C137.451 203.181 138.081 202.379 138.723 201.48C139.383 200.556 140.658 198.375 141.834 198.223C142.449 198.143 142.597 197.615 143.265 197.615C144.033 197.615 144.813 197.58 145.581 197.615C146.381 197.652 147.349 198.485 147.875 198.996C148.996 200.086 149.714 200.376 149.714 202.065C149.714 202.503 150.008 202.735 149.873 203.18C149.609 204.052 148.212 203.777 147.511 203.777C146.505 203.777 145.498 203.777 144.491 203.777C143.291 203.777 142.379 204.279 141.232 204.362C139.998 204.451 138.941 204.77 137.656 204.77" stroke="#645841" stroke-linecap="round"/>
<path d="M179.143 202.584C179.143 201.201 179.826 200.079 180.664 199.073C181.487 198.085 181.717 196.23 183.139 195.783C184.266 195.428 184.989 195.23 186.216 195.23C187.995 195.23 188.944 195.424 189.997 196.931C190.405 197.513 190.835 198.068 191.246 198.653C191.65 199.228 191.797 199.959 192.223 200.497C193.758 202.438 190.717 202.577 189.407 202.739C187.129 203.02 184.707 202.783 182.413 202.783C181.335 202.783 180.004 202.51 179.143 203.18" stroke="#645841" stroke-linecap="round"/>
<path d="M137.245 200.796C136.387 199.909 136.996 198.83 137.223 197.837C137.546 196.421 138.534 196.622 139.857 196.622C141.201 196.622 142.544 196.622 143.888 196.622C145.791 196.622 147.36 195.565 149.213 195.441C154.945 195.056 160.74 195.231 166.495 195.231C167.513 195.231 168.531 195.231 169.549 195.231C170.568 195.231 171.393 194.534 172.399 194.436C173.399 194.339 174.227 193.84 175.272 193.84C176.184 193.84 177.096 193.84 178.008 193.84C179.242 193.84 180.476 193.84 181.71 193.84C184.192 193.84 186.675 193.84 189.158 193.84C189.97 193.84 190.469 193.914 191.111 194.282C191.422 194.459 191.202 196.265 191.202 196.622" stroke="#645841" stroke-linecap="round"/>
<path d="M150.938 201.193C151.207 198.833 156.596 200.398 158.011 200.398C159.348 200.398 160.531 200.421 161.815 200.089C162.863 199.817 164.155 200 165.221 200C165.43 200 166.079 200.122 166.221 199.868C166.356 199.625 166.331 199.433 166.675 199.404C167.384 199.343 167.831 198.965 168.514 198.841C169.102 198.734 169.755 198.808 170.354 198.808C171.379 198.808 172.405 198.808 173.431 198.808C174.758 198.808 175.727 198.803 176.939 198.366C177.615 198.123 178.112 197.917 178.733 197.615" stroke="#645841" stroke-linecap="round"/>
<path d="M136.428 192.848V196.425" stroke="#645841" stroke-linecap="round"/>
<path d="M136.428 192.845C141.166 192.845 145.905 192.845 150.644 192.845C152.933 192.845 155.223 192.845 157.513 192.845C158.743 192.845 159.973 192.845 161.203 192.845C162.619 192.845 163.891 192.485 165.245 192.448C165.737 192.434 165.969 191.969 166.46 191.873C166.94 191.78 167.507 191.851 167.993 191.851C168.726 191.851 169.248 191.6 169.946 191.476C170.483 191.381 171.043 191.518 171.581 191.443C172.08 191.374 172.39 191.081 172.762 190.791C173.213 190.441 174.295 190.659 174.851 190.659C176.642 190.659 178.354 190.986 180.12 191.056C182.341 191.145 184.585 191.056 186.808 191.056C187.266 191.056 187.724 191.056 188.182 191.056C188.885 191.056 188.564 191.342 188.954 191.763C189.37 192.213 189.67 193.317 190.18 193.441" stroke="#645841" stroke-linecap="round"/>
<path d="M140.449 192.507C140.264 192.326 140.187 192.243 140.137 192" stroke="#645841" stroke-linecap="round"/>
<path d="M146.077 192.508C145.838 192.256 145.66 192.034 145.66 191.697" stroke="#645841" stroke-linecap="round"/>
<path d="M140.24 191.391C141.663 191.391 143.629 190.761 144.928 191.391" stroke="#645841" stroke-linecap="round"/>
<path d="M177.895 190.634C178.135 190.4 178.432 190.029 178.766 189.901C179.075 189.782 179.388 189.668 179.704 189.561C180.087 189.432 180.503 189.284 180.911 189.273C181.348 189.261 181.786 189.273 182.223 189.273C182.541 189.273 182.782 189.295 183.072 189.419C183.234 189.489 183.39 189.581 183.531 189.685C183.71 189.816 183.899 189.841 184.113 189.889C184.336 189.939 184.504 190.035 184.679 190.183C184.787 190.273 184.9 190.451 185.021 190.51" stroke="#645841" stroke-linecap="round"/>
<path d="M180.141 182.836C180.925 182.836 181.772 182.881 182.547 182.753C182.825 182.708 183.098 182.718 183.378 182.712C183.672 182.706 183.943 182.596 184.236 182.588C184.413 182.584 185.04 182.477 185.188 182.625C185.34 182.777 185.437 183.023 185.547 183.203C185.68 183.421 185.788 183.634 185.886 183.869C186.034 184.226 186.091 184.596 186.374 184.889C186.614 185.138 186.791 185.433 187.045 185.673C187.186 185.805 187.428 185.897 187.479 186.095" stroke="#645841" stroke-linecap="round"/>
<path d="M187.863 186.715C187.863 187.096 187.946 187.587 187.814 187.957C187.688 188.31 187.262 188.593 186.881 188.651C186.673 188.683 186.521 188.748 186.327 188.814C186.064 188.903 185.752 188.855 185.478 188.86C185.184 188.865 184.873 188.911 184.583 188.963C184.44 188.989 184.339 188.96 184.258 189.066" stroke="#645841" stroke-linecap="round"/>
<path d="M168.012 187.126C168.402 187.197 168.74 187.236 169.124 187.136C169.606 187.009 170.161 187.095 170.656 187.085C171.151 187.076 171.67 186.898 172.145 186.774C172.674 186.635 173.231 186.623 173.752 186.464C174.332 186.287 174.966 186.343 175.567 186.343C176.232 186.343 176.903 186.37 177.567 186.338C178.069 186.314 178.565 186.208 179.066 186.182C179.297 186.171 179.529 186.192 179.759 186.171C180.137 186.136 180.494 186.058 180.878 186.054C181.639 186.045 182.391 186.084 183.15 186.095C183.964 186.107 184.772 186.178 185.584 186.178C186.042 186.178 186.506 186.219 186.958 186.219C187.096 186.219 187.235 186.219 187.373 186.219C187.57 186.219 187.566 186.282 187.566 186.466" stroke="#645841" stroke-linecap="round"/>
<path d="M137.145 191.808C137.145 191.524 137.085 191.156 137.182 190.882C137.297 190.559 137.531 190.367 137.608 190.01C137.738 189.403 137.645 188.706 137.645 188.086" stroke="#645841" stroke-linecap="round"/>
<path d="M138.062 188.086C139.24 188.086 140.36 187.827 141.53 187.718C142.252 187.65 142.987 187.682 143.712 187.682C144.365 187.682 145.019 187.682 145.672 187.682C146.241 187.682 147.417 187.894 147.928 187.556C148.797 186.982 150.537 187.277 151.562 187.277C152.866 187.277 154.17 187.277 155.473 187.277C157.813 187.277 160.152 187.277 162.491 187.277C163.496 187.277 164.501 187.277 165.506 187.277C165.942 187.277 166.378 187.277 166.814 187.277C167.227 187.277 167.583 187.115 168.021 187.115" stroke="#645841" stroke-linecap="round"/>
<path d="M137.062 184.123C137.062 184.491 137.05 184.855 137.103 185.22C137.162 185.622 137.341 185.939 137.413 186.326C137.524 186.92 137.644 187.389 137.644 188.007" stroke="#645841" stroke-linecap="round"/>
<path d="M137.312 191.566H139.476" stroke="#645841" stroke-linecap="round"/>
<path d="M146.465 191.891C147.015 191.631 147.487 191.565 148.064 191.469C148.401 191.413 148.67 191.163 149.012 191.163C149.553 191.163 150.106 191.199 150.644 191.154C150.983 191.126 151.427 191.006 151.745 190.884C152.151 190.728 152.562 190.758 152.993 190.758C153.817 190.758 154.642 190.758 155.466 190.758C156.22 190.758 156.973 190.758 157.727 190.758C158.225 190.758 158.692 190.516 159.206 190.516C159.644 190.516 160.054 190.517 160.469 190.673C161.086 190.905 161.906 190.758 162.554 190.758C163.514 190.758 164.475 190.839 165.438 190.839" stroke="#645841" stroke-linecap="round"/>
<path d="M170.516 190.193C171.878 190.193 173.232 190.227 174.593 190.275" stroke="#645841" stroke-linecap="round"/>
<path d="M138.926 183.664C139.392 183.664 139.864 183.686 140.329 183.664C140.846 183.641 141.336 183.427 141.858 183.406C142.719 183.372 143.589 183.406 144.451 183.406C146.253 183.406 148.022 183.276 149.828 183.276C150.524 183.276 151.221 183.276 151.918 183.276C152.415 183.276 152.903 183.269 153.395 183.197C154.091 183.096 154.824 183.175 155.508 183.039C155.697 183.002 155.849 182.895 156.043 182.867C156.508 182.799 156.998 182.825 157.465 182.824C158.01 182.822 158.784 182.962 159.319 182.795C159.698 182.677 160.032 182.731 160.442 182.745C161.197 182.771 161.953 182.759 162.709 182.759C164.605 182.759 166.471 182.768 168.359 182.925C168.821 182.963 169.285 182.953 169.748 182.953C170.222 182.953 170.668 183.049 171.137 183.075C171.471 183.094 171.811 183.018 172.149 183.018C172.513 183.018 172.878 183.028 173.242 183.004C174.005 182.952 174.729 182.759 175.494 182.759C175.893 182.759 176.233 182.544 176.632 182.465C177.079 182.376 177.785 182.523 178.146 182.242" stroke="#645841" stroke-linecap="round"/>
<path d="M154.607 169.143C154.702 169.251 154.735 169.385 154.81 169.505C154.877 169.612 154.969 169.622 155.055 169.697C155.193 169.818 155.534 169.798 155.734 169.803C156.076 169.811 156.242 169.757 156.516 169.574C156.706 169.447 156.754 169.242 156.898 169.102" stroke="#645841" stroke-linecap="round"/>
<path d="M154.396 168.938C153.947 169.211 153.559 169.519 153.099 169.804C152.872 169.945 152.697 170.156 152.48 170.312C152.403 170.368 152.229 170.568 152.303 170.67C152.574 171.046 153.139 171.244 153.505 171.527C153.668 171.653 153.831 171.73 153.971 171.866" stroke="#645841" stroke-linecap="round"/>
<path d="M154.268 172.114C154.424 172.083 154.467 171.819 154.607 171.716C154.79 171.581 154.874 171.517 155.107 171.454C155.372 171.383 155.633 171.248 155.912 171.248C156.225 171.248 156.653 171.156 156.9 171.351C157.114 171.52 157.046 171.774 157.067 172.009C157.091 172.277 157.81 172.153 157.984 172.073C158.195 171.975 158.511 172.032 158.738 172.032C159.073 172.032 159.409 172.032 159.744 172.032C160.122 172.032 160.5 172.032 160.878 172.032C161.178 172.032 161.479 172.044 161.778 172.011C161.996 171.987 162.237 171.916 162.449 171.908C163.98 171.855 165.522 171.908 167.054 171.908C168.082 171.908 169.094 172.114 170.127 172.114C170.619 172.114 171.112 172.123 171.605 172.112C171.848 172.107 172.09 172.078 172.333 172.078C172.673 172.078 173.008 172.153 173.346 172.179C173.755 172.209 174.164 172.189 174.571 172.243C174.87 172.282 175.233 172.431 175.538 172.376C175.663 172.353 175.765 172.284 175.896 172.279C176.16 172.27 176.426 172.279 176.69 172.279C177.327 172.279 177.857 172.26 178.446 172.05C178.539 172.017 178.585 171.888 178.681 171.949C178.76 172 178.745 172.143 178.761 172.22C178.808 172.442 178.874 172.681 178.98 172.882C179.059 173.03 179.179 173.121 179.254 173.267C179.284 173.325 179.959 173.192 180.057 173.187" stroke="#645841" stroke-linecap="round"/>
<path d="M157.195 169.104C160.05 169.104 162.907 169.067 165.759 169.186C166.631 169.223 167.501 169.284 168.375 169.269C168.725 169.263 169.031 169.173 169.367 169.09C169.663 169.016 169.961 169.021 170.265 169.021C171.355 169.021 172.38 168.609 173.469 168.609C174.254 168.609 175.039 168.609 175.824 168.609C176.248 168.609 176.657 168.503 177.084 168.531C177.196 168.538 177.281 168.604 177.386 168.609C177.542 168.616 177.699 168.597 177.855 168.615C178.165 168.652 178.407 168.856 178.722 168.856C178.953 168.856 178.773 168.487 178.729 168.37C178.65 168.159 178.648 167.855 178.659 167.632C178.673 167.336 178.845 167.173 179.087 167.032C179.306 166.905 179.545 166.821 179.794 166.778C179.935 166.753 179.984 166.766 180.058 166.67" stroke="#645841" stroke-linecap="round"/>
<path d="M146.039 118.634C145.998 118.983 145.691 119.309 145.463 119.571C145.298 119.76 145.267 119.949 145.086 120.085C144.601 120.447 145.186 120.984 145.249 121.349C145.336 121.858 145.492 122.338 145.234 122.839C144.998 123.298 144.326 123.463 143.86 123.482C143.651 123.49 142.368 123.919 142.693 124.272C142.938 124.537 143.361 124.602 143.683 124.743C143.913 124.843 144.106 124.975 144.318 125.105C144.428 125.173 144.557 125.156 144.636 125.27C144.882 125.629 145.108 126.372 145.108 126.808C145.108 127.299 145.139 127.733 145.212 128.215C145.308 128.851 145.524 129.489 146.017 129.968C146.116 130.064 146.557 129.203 146.663 129.081C146.835 128.885 147.109 128.728 147.25 128.524C147.479 128.195 147.378 127.551 147.169 127.231C146.963 126.916 147.036 126.495 147.036 126.136C147.036 125.717 147.135 125.227 147.635 125.227C148.21 125.227 148.623 125.291 148.934 124.761C149.155 124.385 148.244 124.028 148.033 123.884C147.466 123.496 147.363 122.829 147.243 122.189C147.131 121.592 147.294 121.068 147.627 120.573C147.92 120.138 147.762 120.051 147.513 119.643C147.368 119.405 147.285 119.34 147.088 119.144C146.885 118.942 146.629 118.585 146.77 118.311" stroke="#645841" stroke-linecap="round"/>
<path d="M159.668 120.25C159.263 120.25 159.003 120.344 159.003 120.76C159.003 120.937 158.906 121.539 159.114 121.597C159.337 121.659 159.734 121.632 159.971 121.607C160.412 121.561 160.464 120.935 160.561 120.652C160.691 120.273 160.688 120.073 160.499 119.733C160.218 119.229 159.896 119.284 159.402 119.151C158.945 119.028 158.432 119.086 157.961 119.086C157.477 119.086 157.248 119.375 156.831 119.567C156.293 119.816 156.071 120.175 155.72 120.63C155.564 120.833 155.295 121.067 155.229 121.316C155.166 121.553 155.24 121.759 155.114 121.988C154.96 122.268 155.002 122.622 155.014 122.936C155.033 123.415 155.442 123.494 155.561 123.884C155.673 124.252 156.182 124.242 156.414 124.513C156.724 124.875 157.426 124.115 157.585 123.942C157.793 123.714 157.802 123.206 157.74 122.915C157.701 122.734 157.03 122.6 156.942 122.771" stroke="#645841" stroke-linecap="round"/>
<path d="M156.077 126.715C156.077 127.193 156.355 127.311 156.823 127.297C157.196 127.285 157.237 126.978 157.326 126.686C157.44 126.31 157.331 125.752 156.927 125.58C156.68 125.475 156.33 125.466 156.07 125.422C155.794 125.375 155.33 125.215 155.043 125.303C154.039 125.612 154.371 127.735 154.622 128.381C154.959 129.246 155.856 130.387 156.801 130.694C157.132 130.801 157.475 130.9 157.813 130.866C158.185 130.83 158.744 130.95 159.091 130.759C159.344 130.619 159.663 130.429 159.8 130.17C159.882 130.013 159.916 129.844 159.929 129.67C159.941 129.517 160.035 129.444 160.059 129.297C160.149 128.728 159.645 128.03 159.002 128.209C158.297 128.405 158.86 130.021 159.335 129.559" stroke="#645841" stroke-linecap="round"/>
<path d="M162.259 129.559C162.417 129.566 162.751 129.695 162.843 129.523C162.931 129.358 162.97 129.018 162.895 128.841C162.766 128.538 161.854 128.395 161.543 128.395C160.915 128.395 161.02 129.998 161.296 130.327C161.62 130.716 161.823 131.129 162.367 131.232C162.876 131.329 163.43 131.628 163.958 131.559C164.261 131.52 164.51 131.218 164.749 131.06C165.003 130.892 165.254 130.793 165.487 130.593C165.989 130.163 166.276 129.634 166.662 129.121C166.844 128.879 166.91 128.78 166.861 128.489C166.829 128.295 167.132 127.97 167.216 127.806C167.451 127.344 167.396 127.118 167.112 126.715C166.973 126.517 166.833 126.32 166.662 126.147C166.541 126.026 166.503 125.849 166.388 125.738C166.161 125.517 165.734 125.486 165.439 125.486C164.826 125.486 164.355 125.623 164.054 126.208C163.713 126.872 164.96 127.256 165.384 126.844" stroke="#645841" stroke-linecap="round"/>
<path d="M164.919 123.548C164.919 123.327 164.929 123.076 164.638 123.038C164.117 122.97 163.892 123.068 163.552 123.418C162.819 124.175 164.18 125.076 164.863 125.153C165.641 125.24 166.48 124.784 166.994 124.244C167.465 123.75 167.462 123.133 167.441 122.499C167.411 121.601 167.082 120.951 166.551 120.244C166.182 119.752 165.634 119.589 165.125 119.267C164.474 118.854 163.707 118.772 162.969 118.944C162.839 118.974 162.446 119.139 162.404 119.256C162.273 119.615 162.087 120.01 162.064 120.398C162.027 121.032 162.309 121.285 162.935 121.285C163.297 121.285 163.477 121.273 163.626 120.912C163.735 120.645 163.45 120.486 163.39 120.251" stroke="#645841" stroke-linecap="round"/>
<path d="M139.858 132.147C139.724 132.063 138.876 131.371 138.673 131.519C138.532 131.621 138.59 131.985 138.58 132.126C138.55 132.546 138.403 133.17 138.558 133.584C138.671 133.885 138.786 133.877 139.105 133.95C139.619 134.068 140.153 134.189 140.656 134.349C140.864 134.415 140.849 134.566 140.959 134.719C141.234 135.101 141.926 135.131 142.347 135.121C142.661 135.113 142.917 135.031 143.13 134.794C143.253 134.658 143.3 134.409 143.499 134.359C143.836 134.276 143.923 134.408 144.142 134.604C144.462 134.89 144.993 134.807 145.375 134.733" stroke="#645841" stroke-linecap="round"/>
<path d="M145.574 134.602C146.202 134.84 146.898 135.542 147.631 135.363C148.025 135.268 147.994 134.791 148.373 134.703C148.881 134.584 149.428 134.586 149.947 134.609C150.159 134.619 150.436 134.782 150.611 134.642C150.932 134.384 151.526 133.686 151.49 133.23C151.466 132.927 149.496 132.888 149.068 132.806C148.602 132.718 148.698 132.45 148.698 132.049C148.698 131.542 148.498 131.288 147.915 131.244C147.506 131.214 146.959 131.159 146.638 131.435C146.301 131.723 145.971 132.103 145.489 131.952C145.189 131.858 144.827 131.863 144.51 131.887C144.302 131.903 144.203 132.073 144.016 132.131C143.868 132.177 143.671 132.146 143.517 132.146C143.087 132.146 143.108 132.097 142.885 131.736C142.632 131.325 141.939 131.203 141.493 131.18C140.81 131.144 140.618 131.632 140.123 132.016" stroke="#645841" stroke-linecap="round"/>
<path d="M182.083 90.6543C182.083 92.0144 182.06 93.3388 182.291 94.6825C182.362 95.1009 182.913 95.267 183.331 95.267" stroke="#645841" stroke-linecap="round"/>
<path d="M182.332 90.8952C182.585 90.7458 182.78 90.5723 183.081 90.5723" stroke="#645841" stroke-linecap="round"/>
<path d="M183.08 90.5723C183.229 90.8518 183.168 91.2013 183.163 91.5029C183.152 92.2631 183.181 93.0111 183.237 93.7688C183.262 94.1041 183.247 94.4445 183.247 94.7803" stroke="#645841" stroke-linecap="round"/>
<path d="M180.836 91.3826C180.662 91.1122 180.193 91.2208 179.907 91.2208C179.363 91.2208 178.819 91.2208 178.275 91.2208C176.493 91.2208 174.727 91.0136 172.949 90.978C170.78 90.9345 168.652 90.6543 166.477 90.6543C164.772 90.6543 163.068 90.6543 161.363 90.6543" stroke="#645841" stroke-linecap="round"/>
<path d="M161.861 93.3242C163.535 93.5568 165.117 93.7018 166.799 93.7288C168.22 93.7517 169.615 94.0256 171.034 94.0525C172.092 94.0726 173.152 94.0525 174.21 94.0525C174.76 94.0525 175.244 93.9346 175.782 93.8997C176.591 93.8472 177.417 93.8907 178.227 93.8907C179.094 93.8907 179.932 93.787 180.752 94.0525" stroke="#645841" stroke-linecap="round"/>
<path d="M160.696 90.6546C160 91.1929 159.148 91.8994 158.339 91.1222C158.112 90.9044 158.103 90.5622 157.913 90.3669C157.814 90.2647 157.674 90.5628 157.617 90.6141C157.289 90.9108 157.07 91.1793 156.679 91.3964C156.414 91.5437 156.137 91.7066 155.823 91.7066C155.301 91.7066 155.846 91.9456 156.055 92.0843C156.458 92.353 157.138 92.6257 157.395 93.0464C157.491 93.2028 157.535 93.3305 157.645 93.487C157.764 93.6561 157.662 93.8492 157.969 93.7747C158.296 93.6952 158.735 93.6314 159.032 93.487C159.454 93.2817 160.113 93.2384 160.572 93.1723C161.227 93.0778 161.373 93.3295 161.778 93.8107" stroke="#645841" stroke-linecap="round"/>
<path d="M131.523 184.697H136.837" stroke="#645841" stroke-linecap="round"/>
<path d="M131.237 184.445C131.201 184.04 131.063 183.662 131.089 183.249C131.126 182.67 131.438 182.171 131.755 181.693C132.318 180.844 132.781 179.853 133.197 178.924C133.496 178.257 133.48 177.558 133.701 176.878C134 175.963 134.035 175.091 133.974 174.122C133.896 172.89 132.996 171.982 132.772 170.804C132.548 169.626 132.578 168.283 132.666 167.095C132.742 166.065 133.082 164.737 133.521 163.791C133.692 163.423 133.972 163.046 134.201 162.707C134.57 162.161 134.817 161.58 135.065 160.977" stroke="#645841" stroke-linecap="round"/>
<path d="M135.232 161.138C135.232 160.221 135.232 159.304 135.232 158.386C135.232 157.707 135.266 157.019 135.218 156.341C135.14 155.224 134.764 154.063 134.516 152.969C134.172 151.458 133.734 150.057 133.734 148.491C133.734 147.603 134.043 146.877 134.215 146.023C134.386 145.176 134.554 144.322 134.696 143.469C134.791 142.898 135.05 142.367 135.191 141.801C135.34 141.201 135.481 140.59 135.584 139.981C135.766 138.904 136.148 137.896 136.148 136.802C136.148 136.223 136.229 135.57 136.009 135.017C135.833 134.576 135.474 134.069 135.195 133.677C134.955 133.34 134.984 133.058 134.844 132.688C134.751 132.443 134.65 132.351 134.65 132.086" stroke="#645841" stroke-linecap="round"/>
<path d="M134.607 132.016V132.209" stroke="#645841" stroke-linecap="round"/>
<path d="M134.605 131.627C134.498 131.405 134.689 131.391 134.849 131.254C135.022 131.105 135.122 130.841 135.219 130.643C135.331 130.413 135.547 130.258 135.654 130.033C135.805 129.716 135.935 129.351 135.987 129.006C136.029 128.722 136.123 128.469 136.23 128.201C136.354 127.893 136.372 127.637 136.43 127.318C136.562 126.592 136.918 125.921 136.932 125.17C136.959 123.746 137.195 121.994 136.533 120.681C136.269 120.157 136.272 119.576 136.038 119.036C135.855 118.611 135.736 118.066 135.736 117.6" stroke="#645841" stroke-linecap="round"/>
<path d="M135.934 117.924C135.703 117.769 135.764 116.994 135.816 116.731C135.999 115.807 136.466 114.974 136.466 114.016C136.466 113.401 136.336 112.635 136.51 112.041C136.657 111.541 136.995 111.058 137.086 110.554C137.13 110.313 137.046 110.105 137.134 109.869C137.221 109.638 137.248 109.399 137.33 109.168C137.463 108.793 137.428 108.414 137.581 108.026C137.754 107.588 137.927 107.111 137.991 106.644C138.121 105.699 137.916 104.688 138.165 103.767C138.426 102.798 138.021 101.597 137.851 100.66C137.755 100.131 137.483 99.6283 137.367 99.0982C137.287 98.7332 137.197 98.3884 137.197 98.0137" stroke="#645841" stroke-linecap="round"/>
<path d="M137.248 98.5284C137.248 98.3038 137.248 98.0793 137.248 97.8547C137.248 97.5 137.313 97.2059 137.395 96.8662C137.453 96.6261 137.563 96.3895 137.606 96.1487C137.639 95.9578 137.619 95.7556 137.621 95.5629C137.625 95.1328 137.764 94.695 137.873 94.2815C138.019 93.7301 138.191 93.1674 138.479 92.6706C138.715 92.2645 138.876 91.7758 139.018 91.3307C139.134 90.9623 139.275 90.5854 139.281 90.1957C139.287 89.7978 139.247 89.4035 139.247 89.0059" stroke="#645841" stroke-linecap="round"/>
<path d="M138.402 81.5254C138.253 82.1183 138.288 82.6106 138.368 83.2058" stroke="#645841" stroke-linecap="round"/>
<path d="M138.438 81.2266C138.675 81.2424 138.894 81.358 139.13 81.358C139.249 81.358 139.369 81.358 139.488 81.358" stroke="#645841" stroke-linecap="round"/>
<path d="M145.621 81.839C147.562 81.839 149.611 81.6399 151.544 81.8654C153.126 82.0501 154.555 82.3152 156.161 82.3152C158.752 82.3152 161.238 82.7915 163.816 82.7915C166.967 82.7915 169.925 82.8053 173.031 83.1973C174.694 83.4072 176.373 83.1364 178.01 83.6118C179.045 83.9121 179.988 84.3316 181.049 84.5379" stroke="#645841" stroke-linecap="round"/>
<path d="M138.764 80.7269C137.282 80.7269 135.824 80.5778 134.355 80.4102" stroke="#645841" stroke-linecap="round"/>
<path d="M134.844 80.251C135.29 79.1442 135.908 78.9321 136.839 78.3106C138.082 77.4808 139.475 76.4744 140.975 76.1584C141.485 76.0511 142.031 75.6806 142.517 75.6469C143.347 75.5892 144.174 75.7443 144.966 75.9644" stroke="#645841" stroke-linecap="round"/>
<path d="M147.906 78.3474C149.117 78.3474 150.566 78.4694 151.153 77.2449C151.321 76.895 151.432 76.4911 151.199 76.1512C151.13 76.0506 151.446 76.1247 151.571 76.1247C152.048 76.1247 152.526 76.1247 153.004 76.1247C154.071 76.1247 155.259 75.8168 156.314 75.9748C157.085 76.09 157.298 77.2597 157.502 77.8358C157.787 78.6376 160.948 80.5448 161.257 78.9824C161.343 78.5476 161.324 78.0306 161.294 77.5888C161.276 77.3249 160.762 77.0563 160.931 77.0949C161.479 77.2204 162.68 77.9136 162.926 77.5536" stroke="#645841" stroke-linecap="round"/>
<path d="M165.211 76.7598L165.701 77.5536" stroke="#645841" stroke-linecap="round"/>
<path d="M162.791 77.6504C163.128 77.2682 163.557 76.8979 163.98 76.6162C164.293 76.4077 164.416 76.2189 164.815 76.1672C165.26 76.1095 165.268 76.8522 165.384 77.1333" stroke="#645841" stroke-linecap="round"/>
<path d="M166.248 78.1052C166.716 77.9359 167.188 77.7785 167.681 77.6958C167.84 77.6691 168.11 77.6447 167.917 77.861C167.524 78.3021 167.012 78.4173 166.928 79.0748C166.853 79.6543 167.202 79.7252 167.762 79.8218C168.788 79.9989 169.952 79.8389 170.584 78.9491C170.947 78.4372 171.227 77.908 171.85 77.6204C172.342 77.3936 172.946 77.2339 173.472 77.096C174.909 76.7188 176.433 76.68 177.889 77.0709C178.021 77.1066 178.731 77.2343 178.745 77.4731C178.759 77.6923 178.339 77.9159 178.206 78.0262C177.71 78.4386 177.602 78.8425 177.453 79.4124C177.393 79.6395 177.214 79.9368 177.541 80.0086C178.526 80.224 179.664 80.1535 180.662 80.0445C181.681 79.9331 182.707 79.9721 183.727 79.9044C184.261 79.869 184.768 79.7295 185.308 79.7572C186.094 79.7974 186.854 80.022 187.598 80.2564C188.539 80.5531 189.321 81.1323 190.271 81.4235C190.874 81.6082 190.779 81.8251 190.977 82.307" stroke="#645841" stroke-linecap="round"/>
<path d="M184.863 84.8906H187.855" stroke="#645841" stroke-linecap="round"/>
<path d="M183.598 85.1484V88.3806" stroke="#645841" stroke-linecap="round"/>
<path d="M187.653 86.7012C187.595 87.298 187.407 87.8965 187.461 88.5004C187.516 89.1175 187.593 89.6683 187.553 90.3032C187.508 91.0338 187.458 91.8102 187.564 92.537C187.649 93.1102 187.901 93.6285 188.041 94.1818C188.177 94.718 188.181 95.324 188.185 95.8733C188.19 96.5076 188.269 97.2088 188.111 97.827C187.917 98.5876 187.567 99.5845 186.988 100.147" stroke="#645841" stroke-linecap="round"/>
<path d="M186.656 102.732C186.638 103.714 186.609 104.696 186.589 105.677C186.559 107.188 185.979 108.696 186.183 110.217C186.314 111.186 186.692 112.128 186.855 113.097C187.002 113.969 187.167 114.776 187.195 115.665C187.222 116.528 187.457 117.38 187.369 118.247C187.275 119.17 186.952 120.21 186.434 120.998C185.741 122.053 185.127 123.432 185.127 124.711" stroke="#645841" stroke-linecap="round"/>
<path d="M141.211 139.312C141.211 140.794 141.211 142.276 141.211 143.758C141.211 145.525 140.778 147.209 140.712 148.962C140.634 151.057 140.231 153.084 140.231 155.189C140.231 157.321 140.213 159.428 139.796 161.53C138.975 165.675 139.109 169.913 138.218 174.029C138.063 174.746 138.109 175.488 138.109 176.216C138.109 176.967 137.761 177.538 137.646 178.262C137.479 179.318 137.619 180.477 137.619 181.543" stroke="#645841" stroke-linecap="round"/>
<path d="M168.701 164.583C166.704 159.819 165.466 155.334 166.424 150.186C167.27 145.636 168.172 141.093 169.022 136.551" stroke="#645841" stroke-linecap="round"/>
<path d="M175.43 102.912C173.865 104.053 174.59 111.111 175.003 112.983C176.289 118.82 175.47 124.171 174.469 130.01" stroke="#645841" stroke-linecap="round"/>
<path d="M148.203 101.668C148.203 97.3896 149.596 93.3017 150.766 89.209" stroke="#645841" stroke-linecap="round"/>
<path d="M142.758 87.0273C142.758 94.3653 142.437 101.688 142.437 109.038C142.437 110.59 142.437 112.141 142.437 113.693C142.437 115.35 141.841 116.604 141.548 118.175C141.133 120.392 141.267 122.32 140.195 124.404" stroke="#645841" stroke-linecap="round"/>
<path d="M184.495 180.885C184.495 178.845 184.466 176.816 184.722 174.789C184.974 172.787 185.704 170.854 186.275 168.926C186.492 168.193 186.639 167.373 186.696 166.615C186.771 165.613 186.319 164.574 185.993 163.639C185.523 162.292 184.292 160.599 185.078 159.197" stroke="#645841" stroke-linecap="round"/>
<path d="M184.829 156.444C184.829 156.124 184.818 155.802 184.829 155.482C184.856 154.716 185.296 153.956 185.61 153.27C186.364 151.627 187.164 149.875 187.062 148.042C186.996 146.854 186.656 145.705 186.549 144.522C186.451 143.443 186.601 142.336 186.42 141.267C186.174 139.819 185.824 138.579 186.077 137.104" stroke="#645841" stroke-linecap="round"/>
<path d="M186.328 136.781C186.398 135.875 186.482 134.981 186.702 134.097C186.94 133.142 187.146 132.428 186.938 131.422C186.691 130.226 186 129.296 185.634 128.167C185.353 127.297 185.317 126.353 185.246 125.451" stroke="#645841" stroke-linecap="round"/>
<path d="M183.082 98.4219C183.047 100.633 182.5 102.806 182.5 105.022C182.5 107.396 182.861 109.794 182.657 112.175C182.62 112.601 182.53 113.028 182.486 113.456C182.423 114.06 182.048 114.603 182 115.191C181.964 115.638 181.793 116.004 181.677 116.432C181.577 116.8 181.655 117.179 181.566 117.538C181.295 118.625 181.501 119.966 181.501 121.081" stroke="#645841" stroke-linecap="round"/>
<path d="M181.75 123.023C181.555 123.97 181.334 124.74 181.334 125.703C181.334 126.475 181.334 127.246 181.334 128.018C181.334 129.415 181.334 130.812 181.334 132.208C181.334 134.513 181.334 136.818 181.334 139.123C181.334 141.426 181.417 143.726 181.417 146.024C181.417 146.611 181.428 147.199 181.417 147.786C181.409 148.212 181.167 148.568 181.167 148.982C181.167 149.387 181.194 149.798 181.103 150.196C181.009 150.607 180.758 150.989 180.668 151.428" stroke="#645841" stroke-linecap="round"/>
<path d="M180.918 151.752C180.918 153.613 181.085 155.445 181.085 157.309C181.085 158.644 181.085 159.979 181.085 161.315C181.085 162.493 180.918 163.685 180.918 164.866C180.918 165.481 180.975 166.124 180.909 166.736C180.832 167.444 180.571 168.187 180.336 168.854C179.854 170.218 180.301 171.864 180.068 173.278C179.904 174.269 179.67 175.135 179.67 176.142C179.67 178.075 179.753 180.002 179.753 181.937" stroke="#645841" stroke-linecap="round"/>
<path d="M113.13 64.8525C111.733 64.8525 115.937 64.7516 117.302 64.4644C119.619 63.9773 122.015 63.944 124.323 63.4237C126.078 63.028 127.884 62.9081 129.674 62.7533C130.989 62.6396 132.218 62.1338 133.465 61.7478C135.024 61.2656 136.831 61.4697 138.327 60.9364C139.086 60.6657 139.584 59.8734 140.304 59.5075C141.324 58.9896 142.454 59.0137 143.569 58.9783C145.279 58.924 146.912 58.502 148.649 58.502C149.415 58.502 150.125 58.4786 150.88 58.3785C152.047 58.2238 153.224 58.2023 154.399 58.1845C155.479 58.1681 156.457 57.5307 157.556 57.426C159.347 57.2551 161.015 56.6988 162.78 56.4028C163.812 56.2297 164.872 56.0802 165.9 55.8912C166.732 55.7383 167.377 55.165 168.113 54.7975C169.027 54.3411 170.007 54.1034 170.997 53.8626C172.408 53.5196 174.056 53.4973 175.333 52.9453" stroke="#645841" stroke-linecap="round"/>
<path d="M175.006 52.9453C176.124 53.8398 177.249 54.731 178.416 55.5649C179.095 56.0496 179.885 56.2667 180.611 56.6674C181.242 57.0157 181.879 57.387 182.534 57.6906C183.169 57.9851 183.965 57.9946 184.638 58.2198C186.238 58.7547 187.747 59.1016 189.436 59.287C190.941 59.4522 191.768 59.8869 193.001 60.6806C196.031 62.6303 199.011 64.3998 202.561 65.3553C203.819 65.6939 205.117 65.7464 206.28 66.3696C207.552 67.0515 208.664 67.758 210.089 68.1513C211.382 68.5082 212.759 68.6342 213.935 69.3067C214.86 69.8357 215.771 70.3199 216.765 70.7179C217.363 70.9576 217.888 71.3144 218.506 71.5206C219.044 71.7 219.692 71.7262 220.175 72.0322C220.617 72.3122 220.801 72.7944 221.245 73.0553C221.839 73.4044 222.544 73.6263 223.168 73.902" stroke="#645841" stroke-linecap="round"/>
<path d="M222.516 74.5352C221.863 75.0394 221.431 75.772 220.684 76.1581C219.666 76.6841 218.813 77.4625 217.791 77.9927C216.712 78.5521 215.552 78.5993 214.535 79.298C213.791 79.8092 212.998 80.2214 212.158 80.5593C210.668 81.1589 209.541 81.9392 208.222 82.7556C207.726 83.0623 207.143 83.2646 206.68 83.6023C206.279 83.8949 206.01 84.2634 205.537 84.3785" stroke="#645841" stroke-linecap="round"/>
<path d="M128.089 68.4062C128.089 68.6282 128.067 68.8583 128.251 69.0168C128.43 69.1705 128.365 69.4364 128.554 69.6201C128.922 69.9781 129.05 70.3826 129.274 70.8196C129.621 71.4935 129.969 72.1941 130.345 72.8523C130.886 73.7986 130.931 74.8822 131.28 75.8977C131.45 76.3948 131.565 76.8937 131.678 77.406C131.829 78.0834 131.77 78.7494 131.841 79.4315C131.962 80.5953 131.944 81.753 131.944 82.9222C131.944 83.9659 131.457 84.8812 131.15 85.8707C130.999 86.3579 130.965 86.8578 130.836 87.3467C130.736 87.728 130.516 88.0565 130.449 88.4492C130.409 88.6807 130.24 88.8669 130.216 89.0849C130.161 89.5955 129.978 90.0566 129.95 90.5789" stroke="#645841" stroke-linecap="round"/>
<path d="M125.963 70.0215C126.244 70.768 126.395 71.4537 126.827 72.1475C127.368 73.0155 127.807 73.9243 128.168 74.8805C128.769 76.4774 128.555 78.3005 128.555 79.9694C128.555 80.5914 128.688 81.2024 128.688 81.8153C128.688 82.2228 128.557 82.6258 128.504 83.0291C128.445 83.4686 128.524 83.8797 128.386 84.3076C128.316 84.5238 128.09 84.8087 128.09 85.0187" stroke="#645841" stroke-linecap="round"/>
<path d="M127.759 85.5371C127.759 86.3378 127.786 87.1432 127.759 87.9433C127.735 88.6565 127.436 89.3496 127.227 90.0262C127.033 90.6518 126.849 91.3132 126.61 91.9224C126.369 92.539 125.989 93.0838 125.75 93.7037C125.584 94.1324 125.222 94.543 124.967 94.9319C124.758 95.2505 124.634 95.6212 124.391 95.9159C124.038 96.3423 123.656 96.7392 123.345 97.198C123.157 97.4768 122.992 97.7328 122.921 98.0635C122.852 98.3791 122.64 98.7699 122.64 99.0835C122.64 99.2854 122.601 99.5294 122.67 99.7227C122.777 100.024 123.065 100.255 123.224 100.534C123.442 100.919 123.746 101.106 124.091 101.368C124.459 101.645 125.612 101.304 125.993 101.163C126.744 100.884 126.938 100.43 127.338 99.8233C127.596 99.4307 127.988 99.1065 128.224 98.7243" stroke="#645841" stroke-linecap="round"/>
<path d="M129.82 90.9015C130.41 90.0483 131.4 89.3729 132.228 88.7468C132.677 88.407 132.935 87.9517 133.454 87.6945C133.884 87.4818 134.206 87.1703 134.607 86.9224C135.338 86.4697 136.006 86.0005 136.645 85.4284C137.273 84.8666 138.053 84.4846 138.75 84.0134C139.893 83.2411 140.657 81.9724 141.476 80.9106C141.769 80.5305 142.196 80.2653 142.473 79.8619C142.631 79.6316 142.877 79.523 143.045 79.2873C143.22 79.0418 143.431 78.7979 143.581 78.5547" stroke="#645841" stroke-linecap="round"/>
<path d="M143.447 78.9428C143.569 78.3253 144.082 77.8201 144.459 77.3339C145.095 76.5141 145.702 75.6325 146.276 74.7697C147.187 73.4002 148.332 72.203 149.142 70.7834C149.295 70.5152 149.503 70.2962 149.689 70.0507C149.981 69.6626 150.177 69.2321 150.39 68.801C150.666 68.2429 150.722 67.6094 150.963 67.0341C151.167 66.5457 151.28 65.9932 151.343 65.4683C151.385 65.1193 151.341 64.8543 151.491 64.5273" stroke="#645841" stroke-linecap="round"/>
<path d="M151.691 64.2696C152.302 63.8868 152.671 63.7525 153.423 63.7525C153.788 63.7525 154.155 63.7425 154.52 63.7525C154.968 63.7647 155.166 63.8995 155.547 64.0757" stroke="#645841" stroke-linecap="round"/>
<path d="M155.345 65.0469C155.238 66.3725 154.819 68.0455 154.045 69.1625C153.832 69.4707 153.697 69.7982 153.551 70.1393C153.345 70.6196 153.002 71.0227 152.731 71.4681C152.365 72.068 152.028 72.719 151.619 73.2889C150.99 74.1659 150.451 75.0744 149.776 75.9213C149.624 76.1128 149.516 76.3339 149.363 76.5246C149.167 76.7681 148.885 76.9107 148.643 77.1028C148.352 77.333 148.247 77.6849 148.033 77.9755" stroke="#645841" stroke-linecap="round"/>
<path d="M147.967 78.1035C147.564 78.4542 147.283 79.0422 147 79.4933C146.533 80.238 145.853 80.8758 145.338 81.5978C144.675 82.5279 143.985 83.4262 143.347 84.3739C142.754 85.2559 142.128 85.8516 141.254 86.4784C140.322 87.1463 139.387 87.8075 138.521 88.5542C137.813 89.1643 137.317 89.8806 136.549 90.4216C136.014 90.7984 135.528 91.2358 135.005 91.6283C134.799 91.7829 134.569 91.8483 134.351 91.9767C134.157 92.0914 134.019 92.3138 133.86 92.4687C133.513 92.8061 133.083 93.0543 132.682 93.327C132.281 93.5999 132.035 94.0337 131.615 94.2966C130.898 94.7444 130.645 95.3486 130.182 96.0097C129.992 96.2796 129.763 96.5075 129.569 96.771C129.481 96.8898 129.448 97.0304 129.321 97.1122C129.212 97.1833 129.264 97.297 129.177 97.3672C129.012 97.5012 128.895 97.7277 128.771 97.9131C128.637 98.1129 128.546 98.3236 128.424 98.5308" stroke="#645841" stroke-linecap="round"/>
<path d="M208.711 74.1465C208.72 74.3864 208.906 74.6603 209.127 74.7894C209.244 74.8578 209.257 74.9931 209.377 75.0681C209.597 75.2058 209.948 74.9016 210.126 74.7939" stroke="#645841" stroke-linecap="round"/>
<path d="M208.63 74.3086C208.468 74.3944 208.399 74.6104 208.316 74.7582C208.075 75.1836 207.68 75.5312 207.497 75.9855C207.245 76.6132 207.175 77.1561 206.781 77.7344C206.028 78.8392 205.933 80.2653 205.301 81.4254C204.57 82.7691 203.409 83.8395 203.05 85.3413C202.94 85.7998 202.683 86.1751 202.361 86.5102C202.116 86.766 202.222 87.2707 202.222 87.5802" stroke="#645841" stroke-linecap="round"/>
<path d="M210.458 74.9551C210.418 75.6134 210.246 76.2855 210.047 76.9152C209.804 77.6825 209.691 78.4779 209.418 79.2396C208.961 80.5143 208.203 81.5325 207.421 82.6429C206.848 83.4555 206.269 84.2282 205.715 85.0526C205.006 86.1061 204.246 87.1164 203.801 88.3076" stroke="#645841" stroke-linecap="round"/>
<path d="M202.889 89.8438V90.4102" stroke="#645841" stroke-linecap="round"/>
<path d="M203.969 88.4707C203.693 88.819 203.596 89.3396 203.512 89.7655C203.39 90.3816 203.099 90.9389 202.938 91.5458C202.624 92.7332 202.456 93.9941 202.277 95.2054C202.085 96.5093 202.249 97.8749 202.222 99.1887C202.201 100.183 201.72 101.124 201.514 102.097C201.311 103.061 201.057 103.997 201.057 104.984C201.057 105.583 201.113 106.186 200.909 106.76C200.701 107.341 200.641 107.848 200.641 108.459" stroke="#645841" stroke-linecap="round"/>
<path d="M199.724 90.6543C199.724 91.72 199.69 92.7913 199.761 93.8553C199.822 94.7787 199.998 95.6957 199.95 96.6247C199.86 98.3946 199.081 100.059 198.887 101.817C198.798 102.622 198.642 103.334 198.642 104.151C198.642 105.076 198.614 106.001 198.725 106.92" stroke="#645841" stroke-linecap="round"/>
<path d="M199.475 90.6544C199.632 90.1071 199.796 89.5139 199.725 88.937C199.673 88.5146 199.162 88.1214 198.893 87.858C198.209 87.1906 197.506 86.5258 196.729 85.9607C196.094 85.4987 195.838 84.7815 195.25 84.2973C194.797 83.9246 194.21 83.5917 193.701 83.2902C193.4 83.1121 193.124 82.8983 192.818 82.7283C192.421 82.5077 192.105 82.141 191.694 81.9595C191.254 81.765 190.95 81.393 190.612 81.0648C190.311 80.7713 189.943 80.577 189.572 80.377" stroke="#645841" stroke-linecap="round"/>
<path d="M191.902 78.5977C192.39 78.7755 192.903 79.319 193.336 79.6317C194.079 80.1689 194.846 80.6723 195.573 81.2322C196.707 82.1054 197.189 83.5135 198.208 84.5051C198.489 84.7777 198.976 85.0288 199.327 85.2335C199.813 85.5168 200.28 85.8223 200.825 85.9888C201.187 86.0992 201.123 86.0715 201.38 86.3214C201.643 86.5775 201.905 86.5611 202.055 86.8519" stroke="#645841" stroke-linecap="round"/>
<path d="M179.836 66.9434C179.566 66.9808 180.201 67.2802 180.261 67.321C180.571 67.5301 180.827 67.8618 181.209 67.9189C181.484 67.9601 181.652 68.4313 181.787 68.6338C182.098 69.0995 182.419 69.5599 182.767 70.0005C183.333 70.7172 183.846 71.5331 184.547 72.1315C184.971 72.4933 185.319 72.8818 185.874 73.0307C186.263 73.1351 186.813 73.4616 187.094 73.741C187.345 73.9894 187.63 74.1813 187.89 74.4334C188.338 74.8698 189.076 75.0551 189.401 75.5978C189.761 76.1976 190.472 76.5245 190.95 77.014C191.376 77.4503 191.703 78.2567 192.235 78.5156" stroke="#645841" stroke-linecap="round"/>
<path d="M189.157 80.2954C188.687 79.0592 187.223 78.6863 186.309 77.7778C186.176 77.6455 186.125 77.4557 185.967 77.3462C185.581 77.0781 185.189 76.8892 184.834 76.5684C184.134 75.9341 183.45 75.2486 182.708 74.6667C182.141 74.2224 181.709 73.571 181.27 73.0122C180.78 72.3886 180.458 71.5356 179.874 71.0071C179.149 70.352 178.102 69.5037 178.006 68.4805" stroke="#645841" stroke-linecap="round"/>
<path d="M194.413 84.8184C194.413 87.9207 194.295 90.9969 194.205 94.0935C194.184 94.8177 193.893 95.4721 193.893 96.2097C193.893 96.9338 193.893 97.658 193.893 98.3821C193.893 99.474 193.893 100.566 193.893 101.658C193.893 102.282 194.043 102.868 194.089 103.487C194.135 104.091 194.081 104.699 194.124 105.305C194.195 106.294 194.205 107.274 194.205 108.265C194.205 108.651 194.35 108.922 194.402 109.289C194.459 109.69 194.413 110.123 194.413 110.528C194.413 112.051 194.592 113.408 194.934 114.906" stroke="#645841" stroke-linecap="round"/>
<path d="M198.954 88.123C198.954 88.6711 198.963 89.2199 198.954 89.7679C198.943 90.4515 198.754 91.1103 198.754 91.7969C198.754 93.838 198.754 95.879 198.754 97.9201C198.754 98.4607 198.802 99.139 198.607 99.6547C198.515 99.8975 198.344 100.084 198.304 100.348C198.255 100.672 198.307 101.006 198.274 101.332C198.231 101.77 198.223 102.198 198.223 102.639C198.223 103.651 198.483 104.497 198.821 105.447" stroke="#645841" stroke-linecap="round"/>
<path d="M198.555 107C199.258 108.377 200.245 109.661 200.468 111.216C200.72 112.972 200.38 114.704 200.161 116.442C199.992 117.782 199.755 119.105 199.751 120.46C199.747 121.783 199.957 123.032 200.217 124.324" stroke="#645841" stroke-linecap="round"/>
<path d="M199.512 125.893C199.512 128.199 199.603 130.526 199.512 132.832C199.445 134.513 198.879 136.114 198.73 137.78C198.564 139.634 198.488 141.447 198.488 143.309C198.488 151.709 198.488 160.108 198.488 168.508C198.488 170.931 198.488 173.355 198.488 175.778C198.488 178.199 197.209 180.447 197.209 182.869C197.209 183.653 197.813 185.436 197.308 186.09C196.484 187.159 193.517 186.601 192.348 186.601" stroke="#645841" stroke-linecap="round"/>
<path d="M194.907 117.932C194.907 120.781 195.121 123.739 194.722 126.571C194.412 128.777 193.664 131.084 192.917 133.192C192.268 135.02 192.348 136.81 192.348 138.721C192.348 140.702 192.348 142.683 192.348 144.665C192.348 146.706 193.05 148.214 193.485 150.138C194.136 153.018 193.883 156.05 193.883 158.985C193.883 164.911 193.735 170.872 192.092 176.622C191.387 179.092 191.837 182.046 191.837 184.612" stroke="#645841" stroke-linecap="round"/>
<path d="M119.941 188.096C124.472 188.206 129.046 188.457 133.559 188.87C135.501 189.048 137.12 189.774 138.875 189.091" stroke="#645841" stroke-linecap="round"/>
<path d="M121.732 190.584C121.732 191.295 121.233 194.449 122.23 194.537C126.434 194.909 130.813 194.565 135.037 194.565" stroke="#645841" stroke-linecap="round"/>
<path d="M190.026 191.564C191.799 191.446 195.255 191.241 196.174 189.398C196.641 188.463 195.646 186.627 194.57 186.517C191.997 186.254 189.448 187.665 186.818 187.665" stroke="#645841" stroke-linecap="round"/>
<path d="M121.256 188.841C119.061 188.938 117.11 189.002 114.996 188.461" stroke="#645841" stroke-linecap="round"/>
<path d="M114.082 188.334C114.271 186.735 115.383 185.392 115.719 183.797C116.092 182.029 115.908 180.112 115.908 178.315C115.908 177.037 115.427 175.875 115.531 174.588C115.719 172.255 116.983 169.979 117.734 167.789" stroke="#645841" stroke-linecap="round"/>
<path d="M126.733 147.881C126.733 149.129 126.794 150.397 126.704 151.643C126.634 152.618 126.186 153.517 125.936 154.454C125.243 157.063 124.988 159.7 124.603 162.353C124.488 163.149 124.527 163.948 124.516 164.748C124.504 165.651 124.309 166.531 124.27 167.432C124.194 169.164 124.304 170.83 124.777 172.505C124.989 173.257 125.404 174.012 125.429 174.795C125.473 176.183 125.429 177.578 125.429 178.966C125.429 180.626 125.387 182.143 124.878 183.743C124.436 185.135 124.516 186.513 124.516 187.956" stroke="#645841" stroke-linecap="round"/>
<path d="M126.734 147.625C126.734 146.789 126.547 146.012 126.444 145.187C126.318 144.186 126.342 143.186 126.342 142.179C126.342 140.088 126.426 138.002 126.14 135.929C125.815 133.581 126.082 131.05 126.082 128.686C126.082 127.131 126.29 125.614 126.342 124.064C126.386 122.775 127.015 121.785 127.292 120.563C127.625 119.093 127.508 117.558 127.864 116.103C128.295 114.34 128.904 112.641 129.226 110.84C129.4 109.867 129.603 109.111 129.603 108.106C129.603 106.996 129.968 105.995 129.994 104.914C130.044 102.881 130.124 100.83 130.124 98.7988" stroke="#645841" stroke-linecap="round"/>
<path d="M120.866 100.955C120.905 101.791 121.264 102.532 121.46 103.337C121.716 104.394 121.529 105.677 121.518 106.761C121.508 107.752 121.265 108.713 121.257 109.706C121.247 110.87 121.257 112.036 121.257 113.2C121.257 114.14 121.257 115.079 121.257 116.019C121.257 116.902 120.892 117.658 120.866 118.527C120.816 120.149 120.866 121.78 120.866 123.402" stroke="#645841" stroke-linecap="round"/>
<path d="M120.692 124.078C120.692 127.165 121.215 130.735 120.476 133.729C120.196 134.864 119.547 135.911 119.307 137.052C119.045 138.295 119.261 139.765 119.261 141.027C119.261 143.378 119.67 145.634 119.67 147.972C119.67 149.84 119.723 151.715 119.67 153.581C119.632 154.918 118.885 156.072 118.853 157.424C118.816 158.953 118.853 160.487 118.853 162.017C118.853 163.116 119.157 165.013 118.444 165.915C117.756 166.784 117.683 167.981 117.422 168.995" stroke="#645841" stroke-linecap="round"/>
<path d="M121.084 101.335C121.396 99.3806 121.868 97.4526 122.397 95.5536C122.86 93.8914 122.915 92.2929 122.915 90.5723" stroke="#645841" stroke-linecap="round"/>
<path d="M122.748 90.6551C122.51 89.6135 122.586 88.4953 122.582 87.4361C122.578 86.4719 122.528 85.4847 122.633 84.5229C122.693 83.9648 122.81 83.423 122.961 82.8819C123.241 81.8801 123.313 80.911 123.349 79.8742C123.374 79.1568 123.366 78.4264 123.488 77.7162C123.61 77.0076 123.747 76.3762 123.747 75.6526C123.747 74.1491 123.747 72.6536 123.664 71.1523" stroke="#645841" stroke-linecap="round"/>
<path d="M113.594 65.7305C113.602 66.4044 113.615 67.0782 113.732 67.7446C113.843 68.3742 114.083 68.97 114.204 69.5969C114.435 70.7884 114.735 71.9835 115.082 73.1485C115.236 73.6635 115.393 74.1543 115.646 74.6322C115.796 74.914 115.825 74.8723 116.173 74.8569C117.609 74.7935 119.002 74.586 120.418 74.3894" stroke="#645841" stroke-linecap="round"/>
<path d="M119.086 64.2716C119.676 65.1942 120.312 66.093 119.96 67.2119C119.91 67.37 119.823 68.5095 119.904 68.4032C120.404 67.7454 121.174 67.2474 122.003 67.113C122.379 67.0521 122.857 67.0797 123.228 67.1399C123.762 67.2264 124.357 67.2455 124.86 67.4411C125.478 67.6813 125.885 68.166 126.4 68.5516C126.663 68.7491 126.521 68.7141 126.668 68.4392C127.115 67.6007 127.505 66.7914 128.351 66.2273C129.065 65.751 129.681 65.9663 130.514 66.0564C131.344 66.146 131.952 66.1654 132.743 65.8811C133.171 65.7272 133.488 65.5509 133.889 65.3281C134.271 65.1163 134.635 64.8634 135.008 64.6358C135.387 64.4046 135.549 64.0411 136.025 64.0288C136.657 64.0125 137.32 63.9714 137.93 64.1547C138.427 64.3042 138.776 64.6495 139.262 64.8201C141.017 65.4368 142.945 64.7734 144.366 63.7591C144.708 63.5145 144.948 63.176 145.286 62.9319C145.677 62.6489 146.183 62.539 146.566 62.2575C147.125 61.8468 148.02 61.8991 148.619 62.2575C149.482 62.7738 150.433 63.1975 151.448 63.3365C151.995 63.4114 152.527 63.4841 153.08 63.4579C153.759 63.4257 154.247 63.0104 154.786 62.6531" stroke="#645841" stroke-linecap="round"/>
<path d="M154.705 62.8156C154.778 62.1023 155.658 62.0245 155.963 61.4669C156.257 60.9287 156.63 60.2259 157.183 59.8754C157.657 59.5751 158.154 59.4977 158.709 59.4977C159.323 59.4977 159.505 59.7366 160.086 59.9653C160.831 60.258 161.939 60.611 162.759 60.5497C163.177 60.5184 163.626 60.3088 164.021 60.1856C164.703 59.9725 165.369 59.8447 166.069 59.7045C168.715 59.1744 170.955 57.5156 171.931 55.0469" stroke="#645841" stroke-linecap="round"/>
<path d="M172.098 54.9648C172.371 55.9834 172.643 56.9964 173.318 57.8422C174.112 58.8363 175.086 59.7205 176.138 60.4407C177.219 61.1804 178.282 62.116 179.541 62.5717C180.809 63.0309 182.232 62.9764 183.563 62.9764C184.118 62.9764 184.908 62.8255 185.431 63.0303C185.914 63.2196 186.659 63.4856 186.98 63.907C187.536 64.6366 188.081 65.3958 188.593 66.1504C189.135 66.9496 189.706 67.5081 190.72 67.5081C191.131 67.5081 191.618 67.5728 192.014 67.4542C192.499 67.3092 192.854 67.2199 193.369 67.1754C194.297 67.0952 195.202 66.8675 196.023 67.4227C196.621 67.8277 197.311 68.3499 197.793 68.8838C198.288 69.4311 199.088 69.6437 199.596 70.1382C200.163 70.6891 201.093 70.9879 201.871 70.9879C202.896 70.9879 203.71 70.8212 204.719 70.9519C204.914 70.9772 205.329 70.9137 205.496 71.0418C205.697 71.1961 205.846 71.4697 206.041 71.6443C206.414 71.9784 206.867 72.3828 207.345 72.5614C208.34 72.9336 209.103 73.6584 210.211 73.6584C211.416 73.6584 211.824 75.1258 212.125 76.0052" stroke="#645841" stroke-linecap="round"/>
<path d="M211.875 76.5738C212.948 75.8601 213.987 75.6508 215.273 75.814C215.883 75.8914 215.643 76.3956 215.888 76.8346C216.12 77.2507 216.35 77.7877 216.887 77.7877C217.493 77.7877 218.093 77.7436 218.699 77.7068" stroke="#645841" stroke-linecap="round"/>
<path d="M88.4846 57.2871C88.4846 59.5167 88.5421 61.7555 88.471 63.9841C88.4284 65.322 88.2121 66.6703 87.8394 67.96C87.4711 69.2346 86.892 70.4404 86.6576 71.751C86.4827 72.729 86.3145 73.6956 86.1211 74.6702C86.0648 74.9539 85.8698 75.8548 86.1143 76.1034C86.5981 76.5952 88.3231 76.3293 88.96 76.2949C89.855 76.2465 90.3669 75.9654 91.0111 75.3901C92.2747 74.2616 93.2484 72.3052 92.3694 70.6546C91.8777 69.7312 91.0993 69.0274 90.3455 68.3166C90.1333 68.1165 89.9516 67.9336 89.9516 67.6298C89.9516 66.6241 92.6856 68.5275 93.035 68.5808C94.0655 68.738 94.5388 67.9268 94.6922 67.009C94.8165 66.2652 94.9835 66.0437 95.6838 66.4079C97.0424 67.1146 97.2686 67.0406 98.6314 66.5797C99.8382 66.1715 101.53 67.0864 102.061 68.1713C102.289 68.6368 103.051 69.2677 103.616 69.2677C105.577 69.2677 106.058 66.5901 108.221 67.2071C108.908 67.403 109.269 67.9852 109.783 68.4091C109.874 68.4838 110.115 68.7796 110.204 68.8186C111.036 69.1804 112.365 68.8521 113.193 68.6337C113.827 68.4663 114.192 68.1902 114.646 67.7487" stroke="#645841" stroke-linecap="round"/>
<path d="M218.596 78.4747C219.636 78.4563 220.545 78.2155 221.554 78.0448C221.928 77.9815 222.562 77.9451 222.915 78.0944C223.884 78.5042 224.845 80.3402 225.976 79.4503C226.807 78.7958 227.392 78.1413 228.526 78.0531C230.052 77.9344 232.345 77.8026 233.696 78.6235C234.23 78.9482 234.667 79.4234 235.235 79.7232C235.967 80.11 236.941 79.9633 237.743 80.1945C238.709 80.4728 239.821 79.9797 240.804 79.9629C241.522 79.9507 241.808 80.0281 242.334 80.4756C242.713 80.7982 243.046 80.8559 243.524 80.8559C244.848 80.8559 246.241 80.4526 247.52 80.7071C248.24 80.8502 248.957 81.0805 249.586 81.4512C250.483 81.9796 251.534 82.0465 252.562 82.0465C254.059 82.0465 255.067 81.4664 256.388 81.013C257.848 80.512 260.306 80.4495 261.668 81.2445C262.118 81.5073 262.127 82.0404 262.705 82.1622C263.748 82.382 264.708 82.6081 265.792 82.6335C267.691 82.678 269.232 82.306 271.037 81.8976C273.282 81.3901 275.904 81.7263 277.831 82.9559C278.961 83.6771 279.717 84.3103 281.087 84.4938C282.404 84.6702 283.661 84.7253 284.99 84.7253C287.006 84.7253 289.023 84.458 291.043 84.5847C291.674 84.6243 292.268 84.8631 292.888 84.9568C294.211 85.1566 295.512 84.8401 296.799 84.5765" stroke="#645841" stroke-linecap="round"/>
<path d="M214.361 132.945C218.172 134.579 221.814 134.072 225.856 134.291C229.565 134.491 233.275 134.436 236.99 134.436C242.421 134.436 247.853 134.436 253.285 134.436C255.069 134.436 257.052 134.678 258.809 134.312C260.496 133.96 262.067 133.877 263.79 133.877" stroke="#645841" stroke-linecap="round"/>
<path d="M264.365 99.0352C264.365 101.391 263.937 103.899 263.481 106.218C262.627 110.566 262.641 114.767 262.641 119.177C262.641 123.79 263.024 128.312 263.024 132.943" stroke="#645841" stroke-linecap="round"/>
<path d="M215.319 96.2422C215.319 97.5739 215.319 98.9057 215.319 100.237C215.319 102.485 214.779 104.675 214.744 106.924C214.672 111.496 214.744 116.075 214.744 120.648C214.744 121.797 214.744 122.946 214.744 124.095C214.744 125.335 214.203 126.445 214.169 127.686C214.143 128.625 213.714 131.384 214.361 132.013" stroke="#645841" stroke-linecap="round"/>
<path d="M215.703 95.8692C217.325 93.8501 220.359 95.2524 222.515 95.5794C225.073 95.9673 227.683 95.8692 230.264 95.8692C232.799 95.8692 235.291 96.1408 237.821 96.3039C240.356 96.4674 242.94 96.2327 245.452 96.6144C248.205 97.0327 251.011 96.6195 253.775 96.9146C255.641 97.1137 257.382 97.7002 259.278 97.7323C260.079 97.7458 260.882 97.7323 261.684 97.7323" stroke="#645841" stroke-linecap="round"/>
<path d="M220.683 99.4102C220.683 101.97 220.683 104.53 220.683 107.09C220.683 110.733 220.322 114.268 220.151 117.896C219.972 121.721 220.109 125.576 220.109 129.405" stroke="#645841" stroke-linecap="round"/>
<path d="M220.684 99.4102C224.982 99.6035 229.301 99.8833 233.605 99.7414C234.058 99.7264 238.118 99.0811 238.118 100.083C238.118 100.905 237.902 101.699 237.82 102.515C237.616 104.538 237.735 106.613 237.735 108.643C237.735 112.903 237.986 117.115 238.107 121.363C238.164 123.352 238.118 125.346 238.118 127.335C238.118 128.362 238.566 130.087 237.139 130.151C232.628 130.352 228.074 130.151 223.557 130.151" stroke="#645841" stroke-linecap="round"/>
<path d="M243.236 130.117C243.436 130.896 247.928 130.409 248.865 130.34C250.46 130.223 252.06 130.266 253.66 130.266C254.68 130.266 255.701 130.266 256.721 130.266C257.35 130.266 258.156 130.154 258.693 130.415" stroke="#645841" stroke-linecap="round"/>
<path d="M259.457 117.766V130.713" stroke="#645841" stroke-linecap="round"/>
<path d="M259.457 105.561V106.305" stroke="#645841" stroke-linecap="round"/>
<path d="M259 116.425C259 114.656 259 112.887 259 111.117C259 110.295 259.405 109.583 259.45 108.761C259.514 107.619 259.612 106.475 259.612 105.33C259.612 104.509 259.612 103.687 259.612 102.866C259.612 102.685 259.726 102.094 259.476 102.023C258.47 101.737 257.188 102.04 256.143 101.923C252.851 101.558 249.604 100.204 246.297 100.204C245.497 100.204 244.738 100.055 243.934 100.055C243.546 100.055 242.499 99.8722 242.208 100.212C242.002 100.452 242.161 101.376 242.182 101.642C242.266 102.679 242.654 103.663 242.828 104.685C242.998 105.679 242.956 106.63 243.236 107.612C243.865 109.809 243.543 112.305 243.543 114.565C243.543 115.424 243.33 116.133 243.185 116.971C242.939 118.399 242.808 119.853 242.573 121.287C242.356 122.613 242.471 124.015 242.471 125.355C242.471 126.336 242.471 127.317 242.471 128.298C242.471 128.826 242.342 129.557 242.624 129.968" stroke="#645841" stroke-linecap="round"/>
<path d="M199.883 133.291H211.635" stroke="#645841" stroke-linecap="round"/>
<path d="M201.562 126.527H213.315" stroke="#645841" stroke-linecap="round"/>
<path d="M201.959 125.475C204.051 125.475 206.142 125.475 208.234 125.475C208.825 125.475 209.437 125.435 210.028 125.475C210.388 125.499 210.734 125.626 211.082 125.707C211.84 125.883 212.58 125.906 213.348 126.006" stroke="#645841" stroke-linecap="round"/>
<path d="M202.426 102.035C205.186 102.035 207.931 102.12 210.686 102.178C211.952 102.205 213.554 102.401 214.751 102.111" stroke="#645841" stroke-linecap="round"/>
<path d="M205.236 99.9875C206.733 99.9875 208.23 99.9692 209.726 99.9917C211.331 100.016 212.927 100.263 214.519 100.443" stroke="#645841" stroke-linecap="round"/>
<path d="M264.768 103.77C267.393 104.594 270.398 104.571 273.135 104.608C275.856 104.646 278.564 104.967 281.271 105.196" stroke="#645841" stroke-linecap="round"/>
<path d="M269.535 106.624C273.267 106.624 277.068 106.415 280.782 106.743" stroke="#645841" stroke-linecap="round"/>
<path d="M265.135 127.07C265.451 127.293 265.377 127.272 265.923 127.387C267.688 127.761 269.525 127.88 271.322 127.988C273.415 128.115 275.435 128.146 277.482 128.497" stroke="#645841" stroke-linecap="round"/>
<path d="M264.768 130.758H274.548" stroke="#645841" stroke-linecap="round"/>
<path d="M264.158 99.2404C268.039 99.2404 271.923 99.1873 275.804 99.2404C277.833 99.2682 279.854 99.4964 281.88 99.6032C282.964 99.6604 286.971 99.101 287.782 100.109C288.443 100.929 286.94 103.454 286.716 104.255C286.38 105.462 286.223 106.627 286.223 107.87" stroke="#645841" stroke-linecap="round"/>
<path d="M215.128 94.7501C214.425 94.7501 210.311 95.0687 210.189 94.6673C210.056 94.2269 213.652 93.597 213.978 93.4874C214.685 93.2503 215.29 92.4805 216.001 92.3488C217.325 92.1035 221.833 93.843 221.833 91.7692C221.833 90.603 222.403 90.1488 223.707 90.0925C225.275 90.0247 226.753 90.2001 228.283 90.5582C229.48 90.8383 230.261 92.3281 231.413 92.3281C232.634 92.3281 232.945 91.4238 232.945 90.2788" stroke="#645841" stroke-linecap="round"/>
<path d="M232.947 90.094C234.65 89.5421 236.648 89.4807 238.301 90.0836C239.14 90.3896 239.665 91.3129 240.504 91.6879C241.089 91.949 242.065 91.9811 242.409 91.4706C242.776 90.927 242.457 89.7642 243.208 89.5765C244.25 89.3158 244.634 90.5541 244.634 91.2946C244.634 92.0915 246.749 91.2894 247.316 91.129C248.98 90.6582 250.45 90.9209 252.042 91.5844C253.837 92.3323 250.058 92.7095 249.626 92.9196C249.222 93.1159 249.272 94.1838 249.785 94.1927C251.543 94.2232 253.27 94.2078 255.011 93.996C256.366 93.8314 260.152 92.3999 260.152 94.762C260.152 95.9132 261.385 95.4968 262.345 95.4968C264.087 95.4968 266.063 95.2151 267.773 95.5175C268.586 95.6612 271.109 98.4301 269.199 98.4777C266.443 98.5465 263.676 98.4777 260.919 98.4777" stroke="#645841" stroke-linecap="round"/>
<path d="M206.123 145.426C219.664 145.426 233.2 145.612 246.739 145.612" stroke="#645841" stroke-linecap="round"/>
<path d="M229.307 151.202C236.066 151.433 242.806 151.575 249.572 151.575C252.682 151.575 256.008 151.289 259.002 150.457" stroke="#645841" stroke-linecap="round"/>
<path d="M217.207 161.43C217.856 161.758 218.567 162.401 219.258 162.569" stroke="#645841" stroke-linecap="round"/>
<path d="M217.5 160.667C219.202 160.776 220.995 161.133 222.697 160.931C224.281 160.743 225.866 160.764 227.461 160.667C230.163 160.504 232.865 160.453 235.566 160.245C239.741 159.925 243.892 159.487 248.082 159.428C249.976 159.4 251.871 159.321 253.762 159.243C255.494 159.171 257.236 159.342 258.808 158.578" stroke="#645841" stroke-linecap="round"/>
<path d="M222.285 163.899C222.439 163.728 222.565 163.731 222.811 163.714C223.642 163.656 224.481 163.653 225.312 163.635C226.187 163.616 227.077 163.656 227.949 163.572C229.057 163.465 230.135 163.174 231.237 163.023C233.78 162.675 236.357 162.614 238.897 162.221C241.757 161.779 244.634 161.92 247.523 161.899C250.656 161.877 253.797 161.701 256.931 161.82C258.172 161.867 259.341 162.039 260.587 161.883C262.058 161.7 263.471 161.43 264.96 161.43" stroke="#645841" stroke-linecap="round"/>
<path d="M229.804 165.512C229.429 166.97 228.697 168.28 228.697 169.827C228.697 171.047 229.218 172.18 229.218 173.394" stroke="#645841" stroke-linecap="round"/>
<path d="M225.41 166.08C225.481 166.795 225.596 167.509 225.747 168.211C225.951 169.163 226.384 170.082 226.517 171.045C226.625 171.829 226.582 172.64 226.582 173.429C226.582 173.777 226.434 174.365 226.777 174.532" stroke="#645841" stroke-linecap="round"/>
<path d="M200.391 179.585C208.562 178.697 216.621 178.336 224.827 178.093C225.162 178.083 227.755 178.145 226.512 177.541" stroke="#645841" stroke-linecap="round"/>
<path d="M204.592 172.578C211.379 172.578 218.262 172.287 225.008 173.162" stroke="#645841" stroke-linecap="round"/>
<path d="M198.887 157.979H212.998" stroke="#645841" stroke-linecap="round"/>
<path d="M240.621 149.513C248.443 149.513 256.21 148.637 264.04 148.637" stroke="#645841" stroke-linecap="round"/>
<path d="M213.911 134.203C213.911 134.816 213.827 135.352 214.359 135.775C215.015 136.297 215.908 136.872 216.709 137.136C217.801 137.495 218.826 136.272 219.412 135.511" stroke="#645841" stroke-linecap="round"/>
<path d="M219.781 135.868C220.761 136.82 221.593 137.213 222.96 137.439C223.936 137.601 225.343 137.594 226.274 137.208C226.808 136.987 227.332 136.691 227.829 136.403C228.154 136.214 228.534 135.799 228.923 135.749C229.565 135.666 229.798 136.67 230.308 136.918C230.947 137.228 231.919 137.056 232.611 137.056C233.435 137.056 234.031 137.119 234.75 136.7C235.656 136.171 236.179 135.915 237.263 136C238.069 136.062 238.836 136.474 239.436 136.977C239.903 137.368 241.068 137.709 241.65 137.836C242.908 138.109 244.573 138.17 245.82 137.776C246.674 137.507 247.369 136.99 248.279 136.819C249.414 136.604 251.627 136.262 252.599 137.142C253.204 137.69 253.52 138.148 254.358 138.41C255.753 138.847 257.285 138.597 258.616 138.113C259.84 137.668 261.205 137.511 262.494 137.4C263.561 137.308 263.896 135.982 264.158 135.154" stroke="#645841" stroke-linecap="round"/>
<path d="M268.825 169.748C268.5 161.837 266.469 154.371 266.469 146.39C266.469 143.126 265.595 138.46 267.451 135.539C268.759 133.479 271.75 133.447 273.865 132.643C280.306 130.192 284.062 123.585 285.515 117.463C286.164 114.729 288.416 110.032 290.751 108.139C292.015 107.115 293.17 107.727 294.481 107.216C298.7 105.575 300.684 98.7377 301.681 94.901C302.987 89.8694 302.43 84.7883 303.153 79.7216C303.947 74.1636 307.558 69.389 307.702 63.7148C307.82 59.0615 307.785 54.3672 307.702 49.7128C307.63 45.6669 306.524 41.7696 306.524 37.7157C306.524 35.0888 307.431 32.958 307.702 30.4283C308.009 27.5596 310.581 25.6887 311.76 23.1409C313.041 20.3713 313.921 17.3413 316.734 15.6626C320.348 13.506 324.329 29.6597 325.439 31.6375C330.269 40.25 327.151 50.6704 328.711 60.0234C330.241 69.2008 334.209 78.636 334.209 87.9C334.209 94.8864 333.815 101.208 336.27 107.853C337.945 112.383 340.901 115.977 343.11 120.232C345.268 124.39 346.133 129.246 347.102 133.756C348.419 139.886 351.038 145.967 352.011 152.118C352.844 157.385 348.346 162.201 348.346 167.457" stroke="#645841" stroke-linecap="round"/>
<path d="M247.029 173.757C242.72 172.16 236.884 173.612 232.402 173.725C226.815 173.866 225.429 176.982 222.355 181.649C219.3 186.286 215.727 192.648 218.526 198.165C222.286 205.573 230.465 207.432 237.932 209.494C247.69 212.188 258.738 210.989 268.758 210.989C280.03 210.989 290.843 211.043 302.006 212.708C312.414 214.26 322.462 215.572 332.996 215.572C341.548 215.572 350.1 215.572 358.652 215.572C366.754 215.572 375.216 216.395 382.509 212.517C387.051 210.101 388.976 206.037 392.489 202.62C394.315 200.845 396.759 200.374 398.413 198.26C399.961 196.281 399.364 193.796 400.507 191.641C401.178 190.376 401.08 187.219 400.278 186.072C399.186 184.511 397.109 183.669 395.435 182.89C392.48 181.516 389.957 179.513 387.188 177.83C381.308 174.257 374.992 171.86 368.961 168.602" stroke="#645841" stroke-linecap="round"/>
<path d="M216.988 201.252C220.291 213.566 231.042 218.779 243.233 219.455C261.332 220.459 279.446 219.344 297.49 220.919C302.973 221.397 308.473 220.614 313.983 221.11C322.316 221.859 330.368 223.837 338.461 225.788C343.56 227.017 349.037 228.073 354.3 227.22C360.372 226.236 365.93 223.798 372.168 223.592C376.296 223.456 380.213 222.608 384.406 222.319C389.607 221.961 391.948 221.258 394.649 216.973C398.141 211.433 400.769 207.517 400.769 200.68" stroke="#645841" stroke-linecap="round"/>
<path d="M399.591 222.446C397.17 231.078 380.263 230.223 373.805 229.765C362.253 228.946 351.029 226.823 339.64 224.928C333.062 223.833 326.917 224.481 320.3 225.023C309.783 225.885 299.372 226.424 289.081 228.778C283.829 229.98 278.892 229.892 273.504 229.892C261.534 229.892 249.675 228.264 237.736 227.601C231.165 227.236 227.228 222.925 223.01 218.563C220.137 215.592 221.533 211.286 217.578 209.844" stroke="#645841" stroke-linecap="round"/>
<path d="M226.414 227.602C226.715 228.936 226.792 232.585 228.378 233.33C232.635 235.328 238.536 235.339 243.071 235.557C256.404 236.197 268.844 238.854 281.849 241.604C288.295 242.966 293.642 247.175 299.782 249.368C309.979 253.011 323.686 247.863 334.012 246.313C352.273 243.573 373.468 260.285 390.462 247.395C393.721 244.923 396.839 241.127 399.592 238.103C401.049 236.502 403.184 234.821 403.715 232.757" stroke="#645841" stroke-linecap="round"/>
<path d="M397.235 228.746C393.775 230.008 391.349 232.069 388.268 233.965C382.96 237.232 376.101 237.994 369.943 237.656C360.476 237.138 351.352 234.663 341.8 234.474C335.721 234.354 329.577 234.385 323.539 235.142C313.268 236.431 303.893 238.828 293.433 238.357C278.036 237.662 263.692 233.735 248.797 230.465" stroke="#645841" stroke-linecap="round"/>
<path d="M215.222 224.164C215.022 219.3 213.455 214.687 213.455 209.844" stroke="#645841" stroke-linecap="round"/>
<path d="M213.455 213.854C215.824 217.145 218.795 219.619 221.702 222.446" stroke="#645841" stroke-linecap="round"/>
<path d="M217.578 196.672C220.761 200.21 225.264 203.021 229.032 205.9C236.744 211.795 244.444 217.041 253.87 219.998C268.468 224.577 283.925 228.61 299.127 230.722C308.888 232.078 318.48 232.759 328.318 232.759C334.084 232.759 339.689 229.244 344.811 227.031" stroke="#645841" stroke-linecap="round"/>
<path d="M404.302 214.428C397.445 222.763 390.221 228.616 379.17 229.193C369.046 229.722 358.809 229.546 348.834 231.58C346.385 232.079 344.503 232.356 343.631 234.476" stroke="#645841" stroke-linecap="round"/>
<path d="M396.646 207.553C385.954 209.787 375.367 212.625 366.212 218.627C361.115 221.969 355.72 225.882 350.112 228.365C338.431 233.536 327.252 232.5 314.9 231.42C312.614 231.22 305.36 232.255 304.756 229.319" stroke="#645841" stroke-linecap="round"/>
<path d="M399.004 182.922C400.727 190.014 402.097 197.276 404.534 204.179C405.535 207.015 406.574 210.311 405.81 213.344C403.899 220.94 389.436 222.683 383.1 224.737" stroke="#645841" stroke-linecap="round"/>
<path d="M401.357 227.029C402.586 229.355 408.24 237.322 403.386 239.249C399.354 240.85 393.976 240.804 389.773 241.381C385.809 241.926 382.226 242.854 378.385 243.641" stroke="#645841" stroke-linecap="round"/>
<path d="M404.305 224.738C404.511 216.703 404.894 208.732 404.894 200.68" stroke="#645841" stroke-linecap="round"/>
<path d="M353.647 176.621C352.704 176.951 348.213 178.326 347.658 177.067C346.767 175.044 358.407 173.893 359.341 173.916C364.079 174.035 367.074 177.194 371.907 177.194" stroke="#645841" stroke-linecap="round"/>
<path d="M367.193 184.068C371.75 184.874 376.234 185.993 380.807 186.741C384.055 187.273 387.957 187.08 390.755 189.033C394.254 191.474 395.509 193.949 396.645 197.816" stroke="#645841" stroke-linecap="round"/>
<path d="M368.961 189.224C361.332 189.224 353.83 188.594 346.25 187.76C343.116 187.415 338.144 187.896 335.975 185.787" stroke="#645841" stroke-linecap="round"/>
<path d="M295.919 178.914C286.687 179.334 276.636 180.536 267.416 179.391C262.387 178.767 256.401 175.993 251.283 177.291C248.255 178.059 243.693 178.358 241.007 179.741C238.367 181.101 235.823 184.51 233.48 186.361" stroke="#645841" stroke-linecap="round"/>
<path d="M227.591 191.514C225.788 193.413 222.926 195.643 222.846 198.515C222.746 202.112 226.441 205.629 228.834 207.807C234.232 212.718 240.373 216.619 247.618 217.863" stroke="#645841" stroke-linecap="round"/>
<path d="M323.016 76.9531C323.629 89.4791 329.734 100.056 335.974 110.749" stroke="#645841" stroke-linecap="round"/>
<path d="M325.962 168.031C324.107 162.408 325.232 157.878 325.864 152.247C326.848 143.474 324.575 135.713 322.428 127.361" stroke="#645841" stroke-linecap="round"/>
<path d="M283.552 161.728C279.474 158.336 273.171 155.069 271.934 149.572C270.849 144.746 273.187 139.841 274.716 135.379" stroke="#645841" stroke-linecap="round"/>
<path d="M300.044 127.931C298.964 124.421 296.562 120.016 298.997 116.603C300.728 114.175 302.946 112.002 304.756 109.602" stroke="#645841" stroke-linecap="round"/>
<path d="M313.592 52.895C313.592 47.764 313.208 43.0188 312.414 38.002" stroke="#645841" stroke-linecap="round"/>
<path d="M50.1816 205.733C66.0566 200.803 77.6826 195.787 87.0718 182.442C88.7758 180.021 94.1659 169.528 88.9204 167.827C80.3351 165.044 72.3326 162.051 67.8632 153.681C62.0976 142.883 81.908 139.372 88.7596 134.455C94.4217 130.391 101.215 125.709 95.7519 118.98C87.9834 109.411 81.1414 97.2071 75.4984 86.2322C69.5981 74.7567 71.18 62.7353 63.2017 52.3906" stroke="#645841" stroke-linecap="round"/>
<path d="M36.7422 43.8145C39.4285 57.1245 54.4816 63.1647 56.7748 76.2821C58.743 87.5409 57.3893 99.8302 57.3893 111.22" stroke="#645841" stroke-linecap="round"/>
<path d="M2.08635 38.079C-0.435173 31.4972 4.34547 26.803 7.61682 21.4667C11.9498 14.3988 16.4383 7.56195 21.2587 0.791016" stroke="#645841" stroke-linecap="round"/>
<path d="M35.2695 2.94141C40.512 11.608 46.696 18.9841 48.9114 28.9952C50.8102 37.5759 54.9472 42.8721 61.0784 48.8343" stroke="#645841" stroke-linecap="round"/>
<path d="M3.56055 91.8594H27.8946" stroke="#645841" stroke-linecap="round"/>
<path d="M27.1562 94.7266C27.6846 104.318 27.9671 113.849 30.5974 123.171C32.0399 128.283 34.5511 133.013 36.1689 138.07C40.9259 152.939 43.4124 168.375 46.3286 183.644" stroke="#645841" stroke-linecap="round"/>
<path d="M92.8754 83.2285C92.8754 87.3474 90.9961 91.3736 90.9961 95.4527C90.9961 101.49 90.9961 107.528 90.9961 113.566" stroke="#645841" stroke-linecap="round"/>
<path d="M88.3641 139.154C88.3641 148.073 87.9883 156.929 87.9883 165.836" stroke="#645841" stroke-linecap="round"/>
<path d="M90.2441 184.843C97.2579 183.845 103.909 182.185 110.917 181.188" stroke="#645841" stroke-linecap="round"/>
<path d="M94.7539 175.339C100.581 175.069 106.199 174.242 112.044 174.242" stroke="#645841" stroke-linecap="round"/>
<path d="M95.3887 174.116C95.3887 172.082 95.2522 170.968 94.0795 169.2C93.2677 167.976 93.2813 165.803 93.2813 164.408C93.2813 162.597 94.0907 160.943 94.4414 159.181C94.6016 158.376 95.1345 157.63 95.3036 156.79C95.531 155.66 95.5803 154.461 95.5803 153.312C95.5803 150.827 94.783 148.579 94.8139 146.108C94.8402 144.012 95.7719 142.1 95.7719 139.95C95.7719 138.346 95.7719 136.741 95.7719 135.137C95.7719 133.848 95.1971 132.909 95.1971 131.639" stroke="#645841" stroke-linecap="round"/>
<path d="M96.7271 118.599C96.7271 115.591 97.9308 112.957 98.0576 109.998C98.1254 108.414 97.4347 106.925 96.9613 105.433C96.4549 103.838 96.1523 102.192 96.1523 100.527" stroke="#645841" stroke-linecap="round"/>
<path d="M96.3457 100.896C96.3457 98.7229 96.7441 97.1365 97.7719 95.2451C99.0373 92.9166 99.4111 90.1623 99.4111 87.5652C99.4111 85.2944 99.3391 83.1647 99.9432 80.9617C100.313 79.6145 101.27 78.706 101.71 77.4219" stroke="#645841" stroke-linecap="round"/>
<path d="M100.178 76.8652C105.803 76.8652 111.404 77.4242 117.037 77.4242" stroke="#645841" stroke-linecap="round"/>
<path d="M100.75 100.153C102.526 98.3527 105.14 98.8028 107.498 99.1388C109.583 99.436 111.463 99.5942 113.586 99.5942" stroke="#645841" stroke-linecap="round"/>
<path d="M104.965 160.703C106.717 159.873 108.31 159.06 110.287 159.026C111.194 159.011 112.104 159.026 113.011 159.026" stroke="#645841" stroke-linecap="round"/>
<path d="M105.396 109.787H113.396" stroke="#645841" stroke-linecap="round"/>
<path d="M88.9276 17.8164C88.6529 20.2206 85.9818 23.1914 84.5883 25.2391C82.0569 28.9589 79.2212 32.8639 77.1382 36.8308C74.9506 40.9967 71.6965 44.966 68.9039 48.7783C68.0453 49.9504 67.8964 51.118 67.2048 52.3371C66.683 53.2568 65.2256 54.1351 65.4272 55.3113C65.4841 55.6432 90.9862 54.8792 93.4238 54.8792C99.748 54.8792 106.982 55.1984 112.977 57.1416C119.245 59.1733 125.671 60.4364 132.216 61.2851" stroke="#645841" stroke-linecap="round"/>
<path d="M89.3984 18.2734C94.8446 19.8141 100.853 19.6265 106.416 20.8663C113.947 22.5447 121.255 25.9877 128.975 26.7384C133.382 27.1669 137.43 27.8823 141.889 27.8823C146.37 27.8823 151.21 27.4125 155.691 27.984C158.068 28.2871 160.257 29.2995 162.618 29.6109C166.144 30.0758 169.857 29.8509 173.414 30.0684C177.544 30.321 181.081 31.9818 185.151 32.6867C189.912 33.5112 194.907 33.8766 199.581 35.0254C201.738 35.5554 203.844 36.7219 206.064 36.9573C210.282 37.4049 214.341 37.6513 218.533 38.4571C223.457 39.4036 228.068 39.9972 233.067 40.2874C236.398 40.4808 239.511 41.5696 242.896 41.6092C247.625 41.6647 252.29 42.5244 257.012 42.5244C263.607 42.5244 270.363 42.6023 276.67 44.3546" stroke="#645841" stroke-linecap="round"/>
<path d="M279.963 42.9824C284.036 48.7826 288.002 54.6403 292.197 60.319C295.155 64.3237 297.573 68.7576 301.607 71.809" stroke="#645841" stroke-linecap="round"/>
<path d="M219.266 68.6074C219.605 70.3666 230.099 69.9801 231.578 69.9801C240.568 69.9801 249.258 70.6576 258.111 72.0392C261.341 72.5433 264.509 73.4034 267.73 73.8948C269.662 74.1895 271.614 73.8915 273.534 74.149C274.542 74.2843 275.27 74.9686 276.304 75.0133C278.878 75.1245 281.318 75.8673 283.833 75.9285C287.558 76.019 291.295 75.9285 295.021 75.9285" stroke="#645841" stroke-linecap="round"/>
<path d="M276.668 48.0156C276.668 50.7452 277.7 52.389 279.282 54.6249C282.377 58.9992 284.899 63.4871 287.49 68.1485" stroke="#645841" stroke-linecap="round"/>
<path d="M124.688 32.9156C139.741 32.9156 154.418 32.3348 169.283 34.3899C175.821 35.2937 182.342 35.9297 188.549 38.203C192.813 39.7645 197.138 41.0319 201.541 42.1685C220.757 47.1295 240.189 44.6423 259.73 46.6425" stroke="#645841" stroke-linecap="round"/>
<path d="M80.4579 47.1002C80.4579 50.6337 80.169 39.7506 81.7649 36.5762C83.5159 33.0933 86.2374 29.7473 88.4569 26.5098" stroke="#645841" stroke-linecap="round"/>
<path d="M80.9297 51.6758C82.9267 53.8952 90.9308 52.5909 93.451 52.5909C96.305 52.5909 101.169 51.6908 103.933 52.9976C109.7 55.7237 116.051 55.7939 122.336 55.7939" stroke="#645841" stroke-linecap="round"/>
<path d="M221.619 49.8457C228.264 52.0611 235.835 51.2184 242.767 51.2184C246.286 51.2184 248.846 50.8769 252.204 49.8457" stroke="#645841" stroke-linecap="round"/>
<path d="M98.436 187.557C98.436 193.322 96.8976 198.658 95.7396 204.288C94.7662 209.021 94.7866 215.46 91.2455 219.272C79.3494 232.08 73.4611 246.975 70.7012 263.973" stroke="#645841" stroke-linecap="round"/>
<path d="M189.729 199.918C184.032 205.55 178.301 211.003 172.459 216.4C162.076 225.991 182.193 232.475 188.316 234.942C195.976 238.029 203.315 241.505 210.658 245.244C216.848 248.395 224.696 250.981 230.047 255.482C234.781 259.465 238.257 265.687 242.245 270.341C247.308 276.249 252.611 281.877 257.91 287.572" stroke="#645841" stroke-linecap="round"/>
<path d="M311.07 270.716C337.862 261.698 371.301 264.302 394.275 247.117" stroke="#645841" stroke-linecap="round"/>
</svg>
