<svg width="435" height="328" viewBox="0 0 435 328" fill="none" xmlns="http://www.w3.org/2000/svg">
<path d="M434.227 11.0672C433.896 6.92989 430.497 2.19566 426.44 0.989491C420.992 -0.630079 418.302 3.1219 414.644 6.25738C405.282 14.2827 402.276 28.7053 402.276 40.4987C402.276 62.1997 402.908 83.9808 402.276 105.66C402.073 112.639 396.999 119.232 395.863 126.274C394.883 132.351 393.165 138.684 390.824 144.368C385.593 157.072 384.113 172.412 382.522 185.938C381.199 197.185 378.31 209.199 375.021 220.008C371.098 232.895 369.025 246.357 364.943 259.231C359.084 277.71 361.049 297.885 361.049 317.178" stroke="#645841" stroke-linecap="round"/>
<path d="M325.812 304.769C329.586 304.23 334.822 298.474 328.004 298.474C325.515 298.474 324.644 298.19 322.525 296.866C321.015 295.922 322.592 292.08 321.149 290.477C318.992 288.081 312.855 285.981 309.772 287.75C306.028 289.898 305.373 295.933 305.692 299.92C305.825 301.576 307.394 301.691 308.653 302.321C310.236 303.113 312.03 304.379 313.036 305.888C314.469 308.037 316.603 305.954 318.678 305.608" stroke="#645841" stroke-linecap="round"/>
<path d="M327.494 317.779C330.144 317.779 331.463 315.599 332.041 313C332.389 311.431 331.357 311.042 330.012 310.552C326.496 309.27 322.457 308.127 318.682 308.127" stroke="#645841" stroke-linecap="round"/>
<path d="M308.611 308.547C307.486 311.64 306.838 316.681 310.849 318.106C313.24 318.955 315.829 318.074 318.193 318.665C318.993 318.865 318.563 320.231 319.009 320.81C321.744 324.365 325.632 324.043 329.501 325.613C330.308 325.941 332.195 327.989 332.485 326.103C332.71 324.641 332.531 323.033 332.531 321.556" stroke="#645841" stroke-linecap="round"/>
<path d="M346.8 288.403C346.939 287.006 348.478 286.298 348.478 284.836C348.478 282.565 345.086 280.43 343.046 280.43C339.536 280.43 338.019 286.893 340.155 289.243C341.409 290.622 343.093 291.166 344.701 291.947C346.23 292.689 347.98 291.911 349.318 292.786C352.232 294.694 353.293 298.632 357.291 298.475C359.176 298.401 358.55 296.091 358.55 294.698" stroke="#645841" stroke-linecap="round"/>
<path d="M360.229 292.601C362.618 292.601 366.704 293.757 366.92 290.526C367.076 288.185 366.842 287.809 365.031 286.516C362.2 284.493 363.101 281.466 364.005 278.752" stroke="#645841" stroke-linecap="round"/>
<path d="M360.648 274.135C357.96 274.135 356.117 274.082 353.98 276C353.416 276.506 351.515 276.892 351.438 277.585C351.32 278.653 351.415 279.774 351.415 280.849" stroke="#645841" stroke-linecap="round"/>
<path d="M341.762 264.902C342.275 266.955 345.339 262.497 345.539 261.965" stroke="#645841" stroke-linecap="round"/>
<path d="M345.539 261.964V260.705" stroke="#645841" stroke-linecap="round"/>
<path d="M342.602 252.732C340.566 252.909 338.759 253.991 336.727 253.991" stroke="#645841" stroke-linecap="round"/>
<path d="M335.887 252.732V253.572" stroke="#645841" stroke-linecap="round"/>
<path d="M335.469 254.41C334.078 254.41 332.687 254.41 331.296 254.41C330.029 254.41 330.434 255.773 330.434 256.742C330.434 257.831 330.062 259.412 331.133 260.076C332.391 260.854 332.951 261.183 332.951 262.71C332.951 266.047 335.021 266.717 338.267 267.653C341.226 268.505 344.56 270.268 345.961 267" stroke="#645841" stroke-linecap="round"/>
<path d="M320.779 273.714C321.324 275.531 325.057 275.152 326.468 274.927C328.637 274.58 329.592 271.873 329.592 269.938" stroke="#645841" stroke-linecap="round"/>
<path d="M328.753 266.582C328.612 265.168 328.015 264.107 327.494 262.805" stroke="#645841" stroke-linecap="round"/>
<path d="M323.719 259.865C320.692 259.865 317.095 259.066 315.652 262.476C314.65 264.844 311.549 261.442 311.549 264.9" stroke="#645841" stroke-linecap="round"/>
<path d="M312.388 269.1C312.388 270.478 311.741 271.67 312.015 273.11C312.504 275.679 318.289 274.975 320.362 274.975" stroke="#645841" stroke-linecap="round"/>
<path d="M335.466 238.463C334.133 236.685 333.138 235.025 333.834 232.588C334.243 231.155 335.805 229.413 335.886 228.018C335.986 226.272 334.997 223.355 337.424 223.355C341.01 223.355 344.699 225.685 344.699 229.464C344.699 231.811 344.012 233.486 346.424 234.29C347.313 234.586 350.71 237.125 350.294 237.904C348.164 241.885 341.068 241.572 338.404 238.463" stroke="#645841" stroke-linecap="round"/>
<path d="M354.772 248.116C354.772 250.631 358.739 251.908 360.741 250.121C362.922 248.173 360.654 244.791 360.274 242.8C360.034 241.537 360.438 240.172 358.782 240.142C354.627 240.067 350.361 239.906 346.216 240.165C344.728 240.258 346.936 243.502 347.358 244.152C347.804 244.84 347.55 245.495 348.291 246.017C348.952 246.484 349.589 247.129 350.156 247.696" stroke="#645841" stroke-linecap="round"/>
<path d="M362.326 262.803C364.257 262.349 363.585 258.404 363.585 256.928" stroke="#645841" stroke-linecap="round"/>
<path d="M359.39 253.572C357.203 253.572 354.052 253.192 352.442 255.017C351.065 256.577 351.461 258.483 350.927 260.263C350.284 262.406 346.724 261.225 345.634 262.571C344.958 263.407 346.074 265.523 346.357 266.325C348.211 271.579 356.735 273.149 359.39 267.84" stroke="#645841" stroke-linecap="round"/>
<path d="M226.357 262.803C226.668 261.666 228.615 260.235 229.715 259.936C231.964 259.322 233.477 258.051 235.59 257.068C236.854 256.48 237.926 256.199 239.32 256.089C240.602 255.988 240.738 255.329 241.698 254.643C243.595 253.289 245.655 252.324 247.597 251.03C252.191 247.967 256.713 246.93 261.865 245.434C263.51 244.957 264.862 244.695 266.318 243.662C267.528 242.804 268.19 241.715 269.582 241.214C271.697 240.453 274.226 240.534 275.877 238.883" stroke="#645841" stroke-linecap="round"/>
<path d="M242.723 261.965C245.699 267.575 253.241 266.161 258.67 266.161" stroke="#645841" stroke-linecap="round"/>
<path d="M257.413 265.321C257.413 263.116 258.389 258.376 256.527 256.928C253.581 254.637 250.167 253.622 246.502 253.244C244.215 253.009 244.224 253.36 243.145 255.249" stroke="#645841" stroke-linecap="round"/>
<path d="M245.662 272.457C243.854 273.21 243.931 277.14 244.59 278.845C245.216 280.464 246.157 281.86 247.761 282.529C249.148 283.106 250.933 283.062 252.167 283.788C254.718 285.288 254.895 281.44 254.895 279.801C254.895 273.308 246.505 273.132 243.145 269.1" stroke="#645841" stroke-linecap="round"/>
<path d="M272.939 254.41C271.894 256.501 270.834 259.523 272.123 261.777C274.347 265.67 278.604 265.321 282.591 265.321" stroke="#645841" stroke-linecap="round"/>
<path d="M282.59 262.803C282.59 261.585 283.21 256.751 282.404 256.182C279.456 254.101 277.943 253.99 274.197 253.99" stroke="#645841" stroke-linecap="round"/>
<path d="M293.502 236.365C296.708 236.526 299.542 236.764 302.734 236.365" stroke="#645841" stroke-linecap="round"/>
<path d="M295.18 233.847C295.18 231.704 294.376 229.052 296.719 228.205C299.074 227.353 302.862 227.139 305.392 227.645C307.636 228.094 309.278 233.116 309.961 235.013C310.246 235.803 305.394 235.956 304.529 236.178C302.631 236.667 300.805 237.428 298.957 238.044" stroke="#645841" stroke-linecap="round"/>
<path d="M292.244 248.535C292.244 251.222 291.496 255.112 293.293 257.325C294.507 258.818 297.763 258.907 299.472 259.423C301.316 259.98 302.509 260.286 304.414 260.286" stroke="#645841" stroke-linecap="round"/>
<path d="M293.502 248.115C296.651 248.115 300.361 247.081 302.128 250.027C303.093 251.635 303.993 252.713 303.993 254.597C303.993 256.602 303.72 258.197 304.833 259.866" stroke="#645841" stroke-linecap="round"/>
<path d="M288.886 266.58C286.181 267.595 289.807 271.447 290.588 272.618C291.519 274.015 293.76 273.714 295.181 273.714" stroke="#645841" stroke-linecap="round"/>
<path d="M295.601 273.715C296.197 269.845 297.413 265.322 291.824 265.322" stroke="#645841" stroke-linecap="round"/>
<path d="M138.305 303.21C149.872 300.456 161.778 300.702 173.25 297.813C177.811 296.664 179.835 295.1 182.764 291.684" stroke="#645841" stroke-linecap="round"/>
<path d="M107.013 264.514C102.213 266.773 97.9194 266.927 92.8338 267.944C86.422 269.227 80.2623 271.773 74.2635 274.21C68.2744 276.644 62.0785 278.631 56.791 281.803" stroke="#645841" stroke-linecap="round"/>
<path d="M144.889 306.504C144.513 308.636 142.558 309.495 142.419 311.901C142.302 313.929 142.419 315.999 142.419 318.03" stroke="#645841" stroke-linecap="round"/>
<path d="M55.1481 285.098C53.8683 287.737 53.72 290.846 52.175 293.285C50.4553 296 48.6138 296.853 47.7383 299.917" stroke="#645841" stroke-linecap="round"/>
<path d="M73.2597 262.868C73.2597 259.295 72.6904 258.477 71.4301 255.641C69.3048 250.859 68.24 247.564 67.3135 242.468C66.6169 238.637 63.6475 234.554 63.3799 230.942C63.0788 226.877 63.3799 222.667 63.3799 218.592C63.3799 209.172 70.7897 200.48 70.7897 191.057C70.7897 180.153 75.7503 168.461 79.8004 158.673C82.1079 153.097 84.4474 148.246 87.2102 142.893C89.6542 138.158 89.2293 132.223 91.0981 127.296C93.3048 121.478 93.8425 118.11 93.8425 111.836C93.8425 106.591 93.8425 101.346 93.8425 96.1014C93.8425 93.2225 94.5874 90.9416 95.6721 88.3256C97.0737 84.9453 102.345 82.8251 102.853 79.2692C103.221 76.6972 105.227 75.6008 106.65 73.506C108.69 70.5028 108.983 67.8609 109.623 64.4496C110.255 61.0777 111.955 59.0108 111.955 55.3931C111.955 52.1761 111.955 48.9591 111.955 45.7421C111.955 35.4668 111.576 25.1872 110.309 15.0508" stroke="#645841" stroke-linecap="round"/>
<path d="M53.5 264.514C53.8839 267.585 64.8778 266.16 67.4963 266.16" stroke="#645841" stroke-linecap="round"/>
<path d="M57.6152 266.984C56.2873 265.307 53.6618 264.512 53.4986 262.227C53.3308 259.879 52.2604 258.409 51.9435 256.19C51.1205 250.429 47.7354 245.573 47.7354 239.815C47.7354 235.686 46.9121 231.6 46.9121 227.374C46.9121 222.506 49.382 219.055 49.382 214.247C49.382 211.574 51.3958 209.622 52.0349 207.065C52.5957 204.822 52.7653 202.542 53.4986 200.342C54.8658 196.24 56.1912 191.645 56.8376 187.443C57.531 182.936 60.2483 178.924 60.8627 174.316C61.5508 169.155 65.2808 164.339 67.4949 159.633C69.9153 154.49 77.9915 150.07 78.198 144.494C78.283 142.2 79.9395 140.807 80.5307 138.639C81.0688 136.666 80.3322 134.738 81.2168 132.784C86.5338 121.043 87.8401 108.195 94.3898 96.833C95.6247 94.6908 95.715 92.3246 96.3566 89.972C97.185 86.9349 99.1994 84.5467 99.7871 81.373C100.548 77.2655 101.537 73.5476 102.714 69.5722C103.849 65.7414 101.832 61.4336 100.793 57.8628C98.3307 49.3975 100.429 37.2723 102.074 29.0469" stroke="#645841" stroke-linecap="round"/>
<path d="M57.2319 46.6797C57.2319 51.5912 57.2319 56.5028 57.2319 61.4143C57.2319 64.3286 57.2319 67.2429 57.2319 70.1572C57.2319 71.5858 57.2416 72.9608 56.5324 74.2372C55.7181 75.703 55.9887 76.9318 55.4833 78.3639C55.0804 79.5055 53.9212 80.1461 53.9212 81.488C53.9212 82.9169 54.341 84.3277 54.2943 85.8011C54.2456 87.3333 53.455 88.6085 53.455 90.1376C53.455 91.4121 53.455 92.6866 53.455 93.9611C53.455 95.2088 52.9782 97.1068 54.6207 97.3883C56.7439 97.7523 59.0668 96.8683 61.1487 96.5257C62.7585 96.2608 63.9406 95.1038 65.5085 94.7305C67.0724 94.3581 68.121 94.7061 69.402 93.6814" stroke="#645841" stroke-linecap="round"/>
<path d="M56.8145 46.2608C59.4285 46.1778 61.9555 45.4215 64.5548 45.4215C67.3914 45.4215 70.228 45.4215 73.0645 45.4215C73.7367 45.4215 76.3735 45.0149 76.5151 45.8644C76.7631 47.3528 76.5384 49.0465 76.5384 50.5506C76.5384 53.7991 76.5384 57.0475 76.5384 60.296C76.5384 63.3698 77.3188 66.0474 77.3777 69.1088C77.4178 71.195 78.0365 72.9789 78.7765 74.8908C79.3933 76.4839 79.0563 78.577 79.0563 80.2531C79.0563 82.9109 79.0563 85.5687 79.0563 88.2266C79.0563 89.2368 79.0563 90.2471 79.0563 91.2574C79.0563 92.6756 78.2692 92.3073 77.1445 92.8428C74.8952 93.9139 71.4946 93.2625 68.9845 93.2625" stroke="#645841" stroke-linecap="round"/>
<path d="M55.6218 46.3636C54.8623 46.3636 52.941 46.0035 52.3063 46.5894C51.9949 46.8768 51.7715 47.6046 51.7715 46.9578C51.7715 45.3449 52.0063 44.201 53.1738 42.9649C53.6579 42.4523 54.153 41.4264 54.7662 41.111C55.2827 40.8454 56.1448 41.0159 56.7151 41.0159C57.9809 41.0159 60.0963 40.6938 60.3278 39.3047" stroke="#645841" stroke-linecap="round"/>
<path d="M60.7578 36.3105C61.5604 36.8838 62.1152 37.2558 62.2552 38.2357" stroke="#645841" stroke-linecap="round"/>
<path d="M62.6797 38.451C62.7799 40.2545 66.3161 40.4195 66.3161 38.6174C66.3161 37.8588 66.2548 37.0678 66.3161 36.312C66.4226 34.9983 68.2041 34.9634 68.4552 33.959" stroke="#645841" stroke-linecap="round"/>
<path d="M68.8828 33.7441C68.8828 35.186 68.8828 36.6279 68.8828 38.0698C68.8828 39.3661 70.7052 38.372 71.1883 37.8084C71.5604 37.3742 72.1287 37.1236 72.2578 36.5249C72.3793 35.9615 72.3813 35.66 72.6381 35.1464C73.2193 33.9839 73.733 34.172 75.0861 34.172" stroke="#645841" stroke-linecap="round"/>
<path d="M74.2319 41.6602C73.4594 42.2251 72.7003 42.6881 71.8789 43.1575" stroke="#645841" stroke-linecap="round"/>
<path d="M71.8789 43.1554C73.3562 43.1554 74.8106 42.9415 76.2878 42.9415C77.2852 42.9415 80.1607 43.4904 80.6491 42.5137" stroke="#645841" stroke-linecap="round"/>
<path d="M83.0017 42.9414C83.0017 46.8783 82.36 50.733 82.36 54.6944C82.36 58.2917 79.6367 61.7613 81.4568 65.4017C82.0891 66.6662 83.3183 67.8375 84.2376 68.8717C85.2075 69.9628 83.7203 70.7561 83.1087 71.4148C81.875 72.7434 81.7183 74.843 81.7183 76.5367C81.7183 81.8224 81.2905 87.0791 81.2905 92.354" stroke="#645841" stroke-linecap="round"/>
<path d="M55.6211 100.911C56.7472 102.655 58.7488 102.548 60.1131 101.22C60.8812 100.473 61.0002 99.8418 62.1572 99.8418C62.7364 99.8418 63.2107 99.967 63.7139 100.281C64.053 100.493 63.9775 100.996 64.2725 101.244C64.6383 101.552 66.0467 101.395 66.3165 101.125" stroke="#645841" stroke-linecap="round"/>
<path d="M71.4512 100.268C72.0403 100.268 72.1607 100.568 72.6514 100.672C73.3453 100.818 74.1666 100.695 74.8737 100.695" stroke="#645841" stroke-linecap="round"/>
<path d="M73.1621 101.982C74.3808 101.982 76.1565 102.394 77.06 101.435C78.0075 100.431 78.9376 99.9081 78.9376 98.3457" stroke="#645841" stroke-linecap="round"/>
<path d="M58.1875 53.4239C59.7482 53.4239 61.309 53.4239 62.8697 53.4239C63.9161 53.4239 64.8049 52.9961 65.8882 52.9961" stroke="#645841" stroke-linecap="round"/>
<path d="M66.7446 52.9961C67.7014 53.0918 67.3994 54.0531 66.9348 54.5885C65.7728 55.9277 64.7449 55.9908 63.1082 55.9908C62.141 55.9908 58.8301 55.4252 58.8301 56.6325" stroke="#645841" stroke-linecap="round"/>
<path d="M55.6231 86.3647C57.9761 86.3647 60.3291 86.3647 62.6821 86.3647C63.0579 86.3647 67.3356 85.9531 66.3898 87.1015C64.845 88.9773 62.4203 87.5176 60.6856 88.385C58.9994 89.2281 57.0461 88.2899 55.1953 88.2899" stroke="#645841" stroke-linecap="round"/>
<path d="M53.6986 48.0762C53.6986 51.2135 53.6986 54.3508 53.6986 57.4881C53.6986 60.813 54.3967 64.0016 54.3403 67.3278C54.2894 70.3352 52.843 73.0685 52.843 76.098C52.843 79.033 52.848 81.8562 53.247 84.7494C53.3527 85.5153 53.5908 85.9598 53.9363 86.6508C54.2503 87.2789 54.1264 88.0634 54.1264 88.7423C54.1264 90.4219 54.0734 91.892 53.6986 93.5315C53.3606 95.0104 52.843 96.4998 52.843 98.0235C52.843 99.2416 52.8569 100.193 52.4271 101.339C51.9389 102.641 52.2013 104.304 52.2013 105.665C52.2013 106.434 52.6291 106.971 52.6291 107.649C52.6291 109.377 52.6742 110.847 54.7682 110.323" stroke="#645841" stroke-linecap="round"/>
<path d="M55.6214 110.323C55.4591 108.004 55.8873 106.1 56.2156 103.834C56.345 102.942 56.278 102.379 56.691 101.553" stroke="#645841" stroke-linecap="round"/>
<path d="M74.4462 62.623C72.0911 62.623 69.9788 63.3277 68.5637 65.3088C68.0882 65.9745 68.053 67.0679 68.5756 67.6855C69.5423 68.828 72.5964 68.2401 73.8044 67.7568" stroke="#645841" stroke-linecap="round"/>
<path d="M28.9668 118.661C29.4021 118.661 29.8128 118.572 30.2442 118.526C31.0302 118.441 31.8356 118.487 32.6248 118.487C33.6728 118.487 34.7431 118.236 35.7603 118.003C37.0095 117.718 38.3593 117.905 39.6312 117.877C40.1176 117.867 40.5254 117.625 41.0054 117.587C41.6364 117.537 42.3015 117.616 42.9361 117.616C43.9264 117.616 44.9167 117.616 45.907 117.616C46.7974 117.616 47.8537 117.791 48.7086 117.51C50.003 117.084 51.3398 116.848 52.715 116.832C52.964 116.829 53.8763 117.085 53.8763 116.595C53.8763 115.98 53.7064 115.609 53.5715 115.042C53.4393 114.487 53.5125 113.979 53.136 113.484C52.9714 113.267 52.8465 112.917 52.5602 112.845C52.2644 112.771 51.9354 112.624 51.6409 112.579C51.0307 112.485 50.4053 112.355 49.7828 112.39C49.2017 112.424 48.5326 113.127 48.128 112.318C47.9452 111.952 47.9538 111.644 47.9538 111.219C47.9538 110.645 48.5648 110.56 48.9118 110.213" stroke="#645841" stroke-linecap="round"/>
<path d="M48.911 109.951C47.8163 109.951 46.4893 109.723 45.4466 110.126C44.9781 110.307 44.829 110.903 44.4159 111.263C44.0232 111.604 43.6563 112.029 43.2304 112.322C42.9551 112.512 42.6461 112.793 42.5046 113.101C42.3919 113.347 42.2359 113.897 41.8756 113.871C41.6488 113.854 41.3417 113.322 41.3337 113.106C41.3276 112.941 41.2866 112.67 41.3482 112.516C41.4124 112.355 41.9235 111.728 41.7982 111.587C41.5037 111.256 40.7877 111.404 40.4095 111.088C40.2224 110.933 40.2885 110.605 40.2885 110.387C40.2885 110.162 40.3483 109.856 40.0079 110.009C39.4078 110.279 39.3305 110.808 39.3305 111.388C39.3305 112.036 39.5286 112.87 38.7595 113.135C38.5236 113.217 38.024 113.026 38.024 113.363C38.024 113.618 38.141 114.219 38.0047 114.442C37.8833 114.64 36.8078 113.875 36.6885 113.74C36.5471 113.58 36.4172 113.129 36.3692 112.913C36.2329 112.299 35.5557 112.398 35.1015 112.216C34.5046 111.977 33.6858 112.088 33.6692 112.884C33.6597 113.341 33.6692 113.8 33.6692 114.258C33.6692 114.672 33.524 114.655 33.1273 114.655C32.676 114.655 32.2358 114.596 31.787 114.563C31.4303 114.536 31.0576 114.494 30.7079 114.422C30.4282 114.365 29.8203 114.077 29.5612 114.321C29.2235 114.639 29.2349 115.342 29.1208 115.748C28.9894 116.216 28.9033 116.722 28.7144 117.146C28.6424 117.308 28.7047 117.631 28.7047 117.809C28.7047 118.466 28.7308 119.064 28.8789 119.706" stroke="#645841" stroke-linecap="round"/>
<path d="M31.7519 121.273C31.7519 122.009 31.7519 122.744 31.7519 123.48C31.7519 124.346 31.9002 125.152 31.9261 126.006C31.9455 126.646 32.199 127.17 32.0422 127.84C31.9224 128.352 31.7673 128.773 31.7035 129.31C31.6473 129.784 31.5777 130.234 31.5777 130.714C31.5777 135.042 31.3164 139.338 31.3164 143.657" stroke="#645841" stroke-linecap="round"/>
<path d="M49.868 119.271C49.7978 120.324 49.7809 121.361 49.7809 122.417C49.7809 122.962 49.7809 123.507 49.7809 124.052C49.7809 124.691 49.986 125.258 50.0325 125.886C50.1033 126.842 49.9259 127.835 50.0615 128.784C50.1277 129.248 50.4366 129.807 50.6131 130.246C50.8203 130.761 51.2088 131.049 51.3583 131.591C51.5176 132.168 52.0902 132.588 51.5567 133.168C51.2004 133.555 50.7569 133.834 50.5115 134.31C50.2596 134.799 49.963 135.262 49.7131 135.752C49.4391 136.29 49.572 136.951 49.3551 137.504C49.1637 137.991 48.867 138.554 48.8276 139.086C48.7616 139.977 48.6938 140.831 48.5809 141.723C48.5256 142.159 48.3873 142.534 48.3873 142.981C48.3873 143.533 48.3819 144.084 48.3873 144.636C48.3957 145.487 48.7055 146.219 48.9147 147.021C49.2656 148.366 48.855 149.628 48.7309 150.931C48.6684 151.586 48.5631 152.462 49.0792 152.978C49.2868 153.185 49.3714 153.864 49.2389 154.129C49.0887 154.43 48.5188 154.119 48.4067 154.323C48.2905 154.534 48.5038 154.905 48.3728 155.102C48.2902 155.226 47.6255 155.454 47.4728 155.407C47.1708 155.314 47.2278 154.785 47.168 154.545" stroke="#645841" stroke-linecap="round"/>
<path d="M47.3438 154.718C47.3438 154.423 47.451 153.882 47.0438 153.847C46.8979 153.835 45.6107 153.871 45.9212 153.412C46.1513 153.071 46.7872 153.199 46.976 152.937C47.0234 152.872 46.9853 152.769 47.0341 152.695C47.1515 152.519 47.3343 152.399 47.4405 152.212C47.7065 151.742 47.5796 150.547 47.3438 150.083C47.0564 149.517 46.944 148.76 46.7922 148.147C46.7097 147.814 46.5599 147.486 46.5599 147.141" stroke="#645841" stroke-linecap="round"/>
<path d="M31.4936 144.354C31.191 144.788 31.1598 145.539 31.0484 146.047C30.977 146.373 30.9796 146.677 30.971 147.005C30.9634 147.295 30.8214 147.499 30.7484 147.77C30.6869 147.997 30.7604 148.259 30.642 148.466C30.5762 148.581 30.6815 148.746 30.5645 148.844C30.4246 148.96 30.3457 148.953 30.3613 149.163C30.3926 149.585 31.1643 150.115 31.4936 150.295C31.8443 150.488 31.772 150.845 31.7549 151.205C31.7444 151.425 31.6204 151.547 31.4742 151.699C31.3152 151.864 31.3388 152.073 31.1936 152.241C30.9389 152.534 30.747 152.898 30.5742 153.257C30.4182 153.581 31.6556 153.711 31.6678 154.041C31.6806 154.388 31.6678 154.738 31.6678 155.086C31.6678 155.377 31.6721 155.176 31.7452 154.989C31.8746 154.657 31.9857 154.288 32.1516 153.973C32.3555 153.586 32.6004 153.227 33.042 153.237C33.2719 153.243 33.6923 153.548 33.6516 153.353C33.552 152.878 33.2529 152.482 33.0807 152.037C33.0189 151.878 32.885 151.775 32.8194 151.631C32.7337 151.442 32.8 151.106 32.8 150.905C32.8 150.677 32.7629 150.408 32.8387 150.189C32.9297 149.926 33.137 149.788 33.1484 149.492C33.1663 149.027 33.0371 148.165 33.4968 148.012" stroke="#645841" stroke-linecap="round"/>
<path d="M33.7559 148.535C34.0394 148.879 34.5952 148.78 34.9559 149.014C35.2112 149.18 35.3702 149.27 35.6913 149.212C36.4432 149.077 37.0883 148.071 37.5204 147.509C37.7462 147.216 39.3035 148.61 39.572 148.816C39.9646 149.116 40.5136 149.162 41.0042 149.145C41.3388 149.133 41.3908 148.805 41.5945 148.593C41.6717 148.513 41.8392 148.151 41.8945 148.119C42.1556 147.965 42.8705 148.074 43.0558 148.312C43.515 148.903 44.9107 148.982 45.5526 148.951C46.3257 148.914 46.7332 148.809 46.7332 148.012" stroke="#645841" stroke-linecap="round"/>
<path d="M34.1895 144.617C34.7459 144.617 35.3023 144.617 35.8588 144.617C36.9202 144.617 37.9605 144.779 39.0185 144.791C39.8079 144.8 40.6003 144.766 41.3894 144.796C42.3612 144.833 43.3177 145.053 44.2926 145.053" stroke="#645841" stroke-linecap="round"/>
<path d="M34.4539 120.49C34.4153 121.53 34.1055 122.54 34.1055 123.582C34.1055 124.776 34.1808 125.849 34.4974 126.998C34.9702 128.715 34.7151 130.737 34.7151 132.5C34.7151 133.948 34.7151 135.397 34.7151 136.845C34.7151 137.735 34.7552 138.538 34.899 139.409C35.0299 140.202 35.1506 141.11 35.1506 141.916" stroke="#645841" stroke-linecap="round"/>
<path d="M37.6738 142.699C37.6738 141.928 37.6738 141.157 37.6738 140.386C37.6738 139.593 37.9351 138.85 37.9351 138.064C37.9351 136.267 37.9351 134.47 37.9351 132.673C37.9351 131.757 37.9351 130.841 37.9351 129.925C37.9351 128.578 37.8088 127.165 38.1141 125.846C38.6018 123.74 38.8528 121.514 38.5448 119.357" stroke="#645841" stroke-linecap="round"/>
<path d="M38.1113 142.873C40.3468 142.873 42.6235 142.729 44.8419 143.042C45.1763 143.089 45.8598 143.314 46.0371 142.96" stroke="#645841" stroke-linecap="round"/>
<path d="M39.7656 138.432H43.9462" stroke="#645841" stroke-linecap="round"/>
<path d="M39.9395 135.819C40.1067 133.457 39.9382 131.086 40.0943 128.726C40.1736 127.526 40.1136 126.308 40.1136 125.106C40.1136 124.433 40.0089 123.821 40.462 123.277" stroke="#645841" stroke-linecap="round"/>
<path d="M40.6367 123.102C41.9799 123.102 43.3196 123.168 44.6431 122.928" stroke="#645841" stroke-linecap="round"/>
<path d="M47.3443 118.225C47.3443 119.696 47.3443 121.167 47.3443 122.637C47.3443 123.219 47.4337 123.826 47.2089 124.36C47.0107 124.831 46.996 125.512 46.996 126.02C46.996 127.054 46.9089 128.087 46.9089 129.112C46.9089 131.963 46.9089 134.815 46.9089 137.666C46.9089 138.963 46.2992 140.128 46.2992 141.431C46.2992 142.377 46.125 143.308 46.125 144.266" stroke="#645841" stroke-linecap="round"/>
<path d="M104.234 92.4226C107.426 90.9948 111.764 90.4595 115.239 89.9746C116.726 89.7671 117.832 89.3463 119.249 89.0887C123.647 88.289 128.322 88.6457 132.771 88.6457" stroke="#645841" stroke-linecap="round"/>
<path d="M111.369 81.9311C116.708 81.8222 121.967 81.0918 127.316 81.0918" stroke="#645841" stroke-linecap="round"/>
<path d="M19.0449 94.1014C21.6293 91.6606 24.4723 90.2789 26.5988 87.3869C28.6554 84.5898 30.47 81.5314 32.2175 78.574C33.2761 76.7826 34.5383 75.1037 35.5748 73.4915C36.2438 72.4508 35.6734 70.9396 36.2509 69.7845C36.835 68.6163 37.2328 67.2285 37.6964 65.9843C39.2083 61.9259 42.7511 59.0059 44.5508 55.1665C46.4496 51.1157 49.5005 47.9284 51.5451 43.9756C53.0318 41.1012 54.1555 37.0182 56.5577 34.883C57.393 34.1405 57.6013 32.2943 58.4928 31.3392C59.2529 30.5248 60.3248 29.6996 60.591 28.6348" stroke="#645841" stroke-linecap="round"/>
<path d="M52.1959 2.61719C51.012 4.23723 49.4897 5.3904 48.3257 7.04691C47.4678 8.26773 45.9665 10.0445 45.5047 11.43C45.0048 12.9297 43.5597 14.1993 42.5671 15.4401C42.0199 16.1241 42.3473 16.9327 41.9376 17.6316C41.4535 18.4573 40.4383 18.8404 39.8859 19.59C37.3926 22.9739 35.6783 26.6944 32.9149 29.9183C31.9869 31.001 31.0128 32.8434 30.2105 34.0915C29.4594 35.2599 29.603 37.1169 28.2754 37.4488" stroke="#645841" stroke-linecap="round"/>
<path d="M29.1171 37.4473C28.7215 39.8207 25.9852 41.5179 25.4334 43.8354C24.9538 45.8497 24.6962 46.8851 23.475 48.6848C20.655 52.8405 18.349 57.4006 15.0819 61.3211C13.6066 63.0914 13.246 64.3935 12.3074 66.427C11.3519 68.4973 9.57375 70.322 8.1575 72.0923C6.90465 73.6584 6.12186 75.6385 4.77692 77.1516C3.80956 78.2398 3.61251 79.7297 2.58537 80.8119C1.14133 82.3333 1 82.3165 1 84.4489" stroke="#645841" stroke-linecap="round"/>
<path d="M3.9375 88.6448C6.24641 87.3914 7.2395 86.4359 8.39054 84.2617C9.73234 81.7272 8.84903 79.5368 9.43968 76.7312C9.82621 74.8951 11.3749 73.9506 12.9368 73.2107C15.0639 72.2031 15.4791 70.8903 16.2941 68.781C17.2984 66.1816 15.6893 60.8217 18.0427 59.0822C18.807 58.5172 19.6206 57.6647 20.3741 57.1938C21.1503 56.7086 22.5149 56.638 23.1485 56.0514C25.6299 53.7538 27.5572 50.5219 28.9771 47.5183C30.2489 44.828 30.4773 41.782 31.4251 38.9386C31.9972 37.2223 31.6018 36.5534 33.57 35.9544C38.6922 34.3955 38.3494 30.3594 38.3494 25.6961C38.3494 24.3442 38.4323 23.1527 39.8649 22.7119C42.1898 21.9965 43.7663 20.3685 45.064 18.422C45.3946 17.9261 45.8895 17.2406 46.3463 16.86C47.1795 16.1656 46.7709 15.2317 47.3488 14.5519C48.2372 13.5066 49.3706 12.0022 50.5195 11.4277" stroke="#645841" stroke-linecap="round"/>
<path d="M53.4568 4.29492C52.1088 6.99104 51.129 10.6374 53.4568 13.1077C54.8944 14.6333 56.1313 15.4532 58.0731 16.2785C59.5035 16.8864 62.4675 15.5837 63.2955 17.1644C64.331 19.1414 63.4193 23.1757 65.9533 24.3452C67.9863 25.2835 69.9993 26.3679 71.9917 27.4227C74.587 28.7967 78.7307 30.5729 76.538 34.3005C75.6013 35.8929 76.0586 37.183 77.4473 38.1473C79.5336 39.5961 80.0392 41.6605 81.7604 43.2298C83.7872 45.0778 84.268 47.9828 85.9803 50.0376C86.9543 51.2064 86.4533 52.7685 87.4491 53.9777C89.5474 56.5256 93.7588 57.2273 96.6816 58.4308" stroke="#645841" stroke-linecap="round"/>
<path d="M20.1161 98.1816C22.0192 103.534 20.6415 108.847 20.6415 114.351C20.6415 119.896 20.6415 125.442 20.6415 130.987C20.6415 134.615 20.7991 138.279 20.6415 141.903C20.4565 146.157 17.6998 149.719 17.4894 154.103C17.2436 159.223 15.1654 163.836 14.1621 168.813C13.5322 171.937 13.8119 175.268 13.8119 178.444C13.8119 186.999 14.8626 195.296 14.8626 203.895C14.8626 210.368 15.3879 216.786 15.3879 223.216" stroke="#645841" stroke-linecap="round"/>
<path d="M15.916 224.793C23.8711 224.793 31.7417 224.281 39.5569 225.844" stroke="#645841" stroke-linecap="round"/>
<path d="M65.2969 234.25C69.3364 234.25 74.5708 233.865 78.4307 235.009C80.1819 235.527 81.7834 236.033 83.6259 236.234C85.5865 236.449 87.5719 236.23 89.5215 236.585C90.6805 236.795 91.6871 237.402 92.878 237.402C94.3544 237.402 95.6606 237.782 97.11 237.898C98.997 238.049 99.6042 239.503 101.4 239.503C105.198 239.503 107.668 240.382 111.236 241.254C113.31 241.761 115.702 242.655 117.832 242.655" stroke="#645841" stroke-linecap="round"/>
<path d="M19.5918 213.762C23.4562 213.843 27.2043 214.695 31.0328 214.812C32.5467 214.859 34.0626 214.587 35.4692 215.279C39.6561 217.341 44.3244 216.934 48.4863 219.015" stroke="#645841" stroke-linecap="round"/>
<path d="M21.1699 203.254C21.3892 197.332 22.746 191.568 22.746 185.625C22.746 182.167 22.222 178.242 23.2713 174.885C24.2518 171.747 24.322 168.571 24.322 165.311C24.322 158.346 24.322 151.38 24.322 144.414" stroke="#645841" stroke-linecap="round"/>
<path d="M94.1914 142.84C96.6774 143.635 99.7261 143.376 101.897 144.679C103.601 145.701 105.885 145.992 107.851 145.992" stroke="#645841" stroke-linecap="round"/>
<path d="M78.957 191.695C82.8765 191.695 85.8568 192.767 89.5809 193.388C91.3846 193.689 93.6621 193.413 95.3597 194.03C99.7526 195.628 105.316 194.847 109.953 194.847" stroke="#645841" stroke-linecap="round"/>
<path d="M95.2441 188.545C98.6104 187.827 102.089 186.969 105.547 186.969C108.215 186.969 110.204 187.106 112.581 185.918" stroke="#645841" stroke-linecap="round"/>
<path d="M47.4365 195.899C47.4365 188.867 47.1231 182.184 49.8881 175.527C50.5344 173.971 50.7804 171.676 51.6977 170.332C53.5888 167.561 55.0048 166.068 56.1632 162.86C57.0313 160.456 59.3853 158.99 60.8038 156.935C62.8449 153.979 63.7996 150.448 64.7732 147.041" stroke="#645841" stroke-linecap="round"/>
<path d="M121.934 237.598V243.587" stroke="#645841" stroke-linecap="round"/>
<path d="M122.361 237.17C124.141 237.204 125.834 237.356 127.566 237.764C128.028 237.873 128.335 238.217 128.826 238.239C130.054 238.295 131.087 239.095 132.296 239.095C134.086 239.095 135.878 239.069 137.668 239.095C139.257 239.118 140.654 239.951 142.267 239.951C143.168 239.951 143.798 240.416 144.631 240.688C146.718 241.368 148.841 241.804 150.977 242.28C152.671 242.657 154.269 243.138 156.016 243.159C157.333 243.175 158.494 243.64 159.795 243.765C161.971 243.976 164.125 244.152 166.307 244.229C167.656 244.276 168.93 244.815 170.253 245.037C171.766 245.291 172.959 245.271 174.305 246.011C175.007 246.398 175.89 246.543 176.658 246.701C178.799 247.141 180.989 247.744 183.063 248.436C185.06 249.101 187.136 249.205 189.207 249.66C189.915 249.815 190.637 249.681 191.335 249.814C191.647 249.874 191.838 250.09 192.119 250.218C193.194 250.711 194.461 250.713 195.613 250.86C197.487 251.1 199.24 251.94 201.02 252.5C203.591 253.308 206.327 253.855 209.041 253.855C210.633 253.855 212.47 253.581 214.032 253.878C214.809 254.026 215.566 254.961 216.1 255.495C217.343 256.738 218.291 256.946 218.394 258.858C218.448 259.867 218.406 260.889 218.406 261.9C218.406 263.568 218.114 263.868 216.195 263.908C214.521 263.943 213.192 263.44 211.573 263.278C210.239 263.145 208.585 263.018 207.544 262.126C207.204 261.834 206.475 261.983 206.07 261.983C204.261 261.983 202.702 261.594 200.937 261.27C198.951 260.906 197.053 260.277 195.066 259.844C192.332 259.248 189.821 258.299 187.033 257.848C184.942 257.509 183.022 256.801 180.996 256.231C179.466 255.802 177.868 255.704 176.361 255.257C175.173 254.905 174.039 254.323 172.855 253.997C170.527 253.357 168.137 252.981 165.761 252.405C163.342 251.818 160.571 251.809 158.25 250.919C156.45 250.23 154.878 249.532 152.938 249.279C151.777 249.128 150.745 248.861 149.623 248.531C147.681 247.96 145.704 247.584 143.728 247.152C142.723 246.932 141.738 246.441 140.722 246.356C138.352 246.159 136.164 244.871 133.817 244.871C132.058 244.871 130.04 245.161 128.303 244.835C126.791 244.551 125.334 244.009 123.859 243.587" stroke="#645841" stroke-linecap="round"/>
<path d="M123.858 243.588C122.519 243.588 121.18 243.588 119.841 243.588C118.898 243.588 118.338 244.069 117.535 244.55C116.784 245.001 115.424 245.26 114.565 245.489C113.788 245.696 113.055 245.822 112.307 246.155" stroke="#645841" stroke-linecap="round"/>
<path d="M107.818 250.859C105.186 251.598 103.473 253.853 100.938 254.698C99.953 255.026 99.3543 255.137 98.5014 255.649C97.954 255.977 96.8547 255.873 96.2316 255.993C95.0339 256.223 93.844 256.207 92.6309 256.207" stroke="#645841" stroke-linecap="round"/>
<path d="M97.5483 263.266C97.5483 264.746 97.6197 263.056 97.5008 262.505C97.1869 261.054 97.6949 260.189 98.9268 259.309C100.281 258.341 103.843 257.611 104.94 259.095C105.614 260.006 106.075 260.64 106.616 261.662C106.891 262.183 106.698 262.823 106.96 263.373C107.218 263.914 107.58 264.754 107.602 265.357C107.635 266.256 103.6 264.966 102.932 264.87C102.009 264.738 100.79 265.03 99.925 264.716C99.5827 264.591 99.4244 264.217 99.212 263.955C98.7403 263.373 98.185 263.181 97.5483 262.838" stroke="#645841" stroke-linecap="round"/>
<path d="M169.205 285.942C169.329 284.699 170.574 283.834 171.118 282.745C171.692 281.597 173.594 281.45 174.731 281.45C175.434 281.45 176.945 281.177 177.441 281.783C178.107 282.597 178.538 283.783 179.366 284.445C179.714 284.723 179.644 284.949 179.687 285.348C179.738 285.824 180.397 286.207 180.59 286.679C180.777 287.136 181.839 289.048 181.564 289.483C181.301 289.9 179.468 290.206 179.045 290.291C177.494 290.604 175.996 290.407 174.6 289.674C173.048 288.858 171.797 288.087 170.061 287.653" stroke="#645841" stroke-linecap="round"/>
<path d="M93.4844 256.85C93.5322 257.328 93.7327 257.676 94.1499 257.919C94.7913 258.293 95.0478 258.764 95.5284 259.298C95.8869 259.696 96.0771 259.672 96.5979 259.88C97.3675 260.188 97.8716 260.968 98.6182 261.342" stroke="#645841" stroke-linecap="round"/>
<path d="M96.0508 256.422C97.6937 256.504 99.2822 256.798 100.614 257.789C101.738 258.624 102.408 259.065 103.74 259.428C104.825 259.725 105.913 260.53 106.865 261.14C107.629 261.629 108.484 261.893 109.337 262.197C111.218 262.869 113.198 262.642 115.136 262.875C118.036 263.223 120.684 264.55 123.669 264.55C124.936 264.55 126.028 265.011 127.269 265.18C130.652 265.642 133.936 267.419 137.335 267.759C138.373 267.863 139.338 268.397 140.33 268.686C141.775 269.108 143.272 269.346 144.727 269.755C146.132 270.151 147.552 270.2 148.933 270.706C152.779 272.116 157.048 272.27 160.984 273.582C162.695 274.153 164.283 274.608 166.046 274.984C168.098 275.423 169.97 276.287 172.012 276.743C173.965 277.18 175.971 277.67 177.882 278.264C180.488 279.075 183.094 279.696 185.809 280.225C186.914 280.44 189.27 280.135 190.206 280.914C190.841 281.444 192.721 281.681 193.581 281.853C194.413 282.02 194.662 282.031 194.662 282.946C194.662 283.883 194.917 284.004 195.411 284.788C196.605 286.685 198.354 287.898 200.675 287.64C201.907 287.504 202.604 287.351 203.171 286.179C203.756 284.968 205.022 283.867 205.833 282.804C205.93 282.676 207.816 277.747 207.354 277.48C206.869 277.2 204.936 278.091 204.549 278.407C203.597 279.186 202.321 279.546 201.293 280.213C199.456 281.405 197 281.136 195.09 282.091" stroke="#645841" stroke-linecap="round"/>
<path d="M191.667 285.727C188.967 285.727 185.761 285.597 183.752 283.588" stroke="#645841" stroke-linecap="round"/>
<path d="M162.148 279.094C159.982 279.094 157.888 278.452 155.719 278.452C153.923 278.452 152.41 277.903 150.811 277.193C149.214 276.483 147.367 276.18 145.653 275.874C143.819 275.546 142.151 274.657 140.306 274.329C139.187 274.13 138.212 273.838 137.133 273.568C136.293 273.358 135.337 273.289 134.483 273.152C132.812 272.885 131.219 272.365 129.563 272.083C127.942 271.806 126.297 271.186 124.714 270.704C122.187 269.935 119.614 269.579 117.013 269.064C114.605 268.588 112.207 267.887 109.812 267.329C108.965 267.132 108.121 266.952 107.602 266.26" stroke="#645841" stroke-linecap="round"/>
<path d="M108.67 251.717C108.812 252.19 109.715 252.814 110.12 253.072C111.396 253.883 112.666 253.865 114.113 254.212C116.34 254.747 118.48 255.577 120.672 256.161C126.628 257.749 132.654 258.718 138.498 260.772C141.205 261.724 144.258 261.7 146.864 262.84C149.216 263.869 151.893 264.066 154.375 264.718C157.372 265.505 160.283 266.557 163.311 267.225C168.537 268.379 173.778 269.765 178.974 271.064C182.472 271.938 186.02 272.509 189.456 273.654C190.947 274.151 192.441 274.819 194.031 274.819C195.924 274.819 197.64 276.015 199.462 276.411C200.565 276.651 204.682 277.044 204.928 278.027" stroke="#645841" stroke-linecap="round"/>
<path d="M189.744 273.32C190.627 273.32 190.398 272.649 191.039 272.489C191.756 272.31 192.696 272.465 193.428 272.465C194.846 272.465 196.264 272.465 197.682 272.465C199.158 272.465 200.478 272.938 201.295 274.164C201.604 274.627 201.759 274.731 201.723 275.341C201.676 276.145 200.932 276.757 200.44 276.101" stroke="#645841" stroke-linecap="round"/>
<path d="M119.154 254.924C119.555 253.586 125.304 254.104 126.166 254.615C126.763 254.969 127.544 254.743 128.091 255.399C128.846 256.305 127.123 257.383 126.855 257.919" stroke="#645841" stroke-linecap="round"/>
<path d="M112.096 246.795C112.096 247.323 112.082 248.544 112.417 248.946C112.665 249.244 112.651 249.709 112.904 250.027C113.151 250.339 113.836 250.429 114.187 250.717C116.01 252.208 119.167 251.509 121.08 252.784" stroke="#645841" stroke-linecap="round"/>
<path d="M128.564 255.994C129.624 256.887 131.515 256.298 132.807 256.529C134.428 256.818 136.214 257.225 137.751 257.812C140.31 258.791 143.17 258.952 145.832 259.559C146.876 259.798 147.781 260.368 148.814 260.593C150.106 260.874 151.329 261.154 152.605 261.532C156.637 262.726 160.736 263.127 164.727 264.432C165.837 264.795 167.131 265.284 168.28 265.465C169.566 265.669 170.731 265.556 172 265.953C173.735 266.495 175.353 267.454 177.086 267.949C178.962 268.485 180.935 268.502 182.731 269.161C183.768 269.542 184.985 269.754 186.058 270.017C187.278 270.316 188.587 270.86 189.837 270.968C191.422 271.104 193.078 271.67 194.614 272.085C195.741 272.389 198.193 272.141 198.774 273.178C198.953 273.499 200.021 273.333 200.318 273.368C201.044 273.454 201.713 273.913 202.41 273.962C203.41 274.034 204.12 274.519 205.096 274.77C206.12 275.035 207.264 275.222 208.328 275.412C209.379 275.6 210.323 276.315 211.347 276.315" stroke="#645841" stroke-linecap="round"/>
<path d="M208.777 271.182C209.011 271.269 210.005 272.259 210.132 272.513C210.395 273.038 210.868 273.982 211.344 274.343C212.316 275.079 213.992 276.083 215.195 275.864C217.409 275.461 217.975 273.206 217.975 271.289C217.975 270.326 217.975 269.364 217.975 268.401C217.975 267.052 219.748 266.163 220.756 265.406" stroke="#645841" stroke-linecap="round"/>
<path d="M220.758 265.406C219.652 265.406 219.024 266.352 218.072 266.464C217.373 266.546 217.405 267.022 216.991 267.51C216.52 268.063 215.563 268.331 214.982 268.829" stroke="#645841" stroke-linecap="round"/>
<path d="M216.481 268.186C215.356 268.878 214.014 269.125 212.797 269.612C211.508 270.127 210.552 270.641 209.422 271.394" stroke="#645841" stroke-linecap="round"/>
<path d="M112.734 247.223C114.004 247.283 115.154 247.781 116.395 247.876C117.27 247.944 117.886 248.519 118.712 248.684C119.274 248.797 119.867 248.68 120.435 248.732C121.714 248.848 122.949 249.252 124.202 249.492C126.773 249.985 129.292 250.778 131.713 251.715C132.89 252.17 134.086 252.423 135.337 252.57C136.889 252.753 138.108 253.161 139.568 253.592C140.448 253.852 141.396 253.683 142.254 253.949C143.296 254.272 144.187 254.739 145.296 254.876C146.22 254.99 147.014 255.381 147.91 255.518C148.871 255.664 149.842 255.662 150.786 255.922C152.898 256.502 155.284 256.448 157.251 257.276C159.296 258.137 161.75 257.954 163.894 258.655C166.477 259.499 169.146 260.009 171.785 260.592C175.218 261.35 178.536 262.686 181.969 263.373C184.052 263.789 186.138 264.117 188.232 264.466C189.267 264.639 190.286 264.852 191.238 265.31C191.524 265.447 191.808 265.744 192.13 265.809C193.55 266.093 194.742 266.283 196.111 266.807C197.757 267.438 199.674 267.361 201.363 267.924C204.179 268.863 206.54 270.46 209.42 271.18" stroke="#645841" stroke-linecap="round"/>
<path d="M218.621 258.774C219.227 258.774 219.966 258.899 220.558 258.751C221.299 258.566 221.914 257.771 222.59 257.42C224.175 256.597 224.183 254.847 224.183 253.213" stroke="#645841" stroke-linecap="round"/>
<path d="M222.039 265.191C223.71 264.036 225.326 262.721 227.173 261.982" stroke="#645841" stroke-linecap="round"/>
<path d="M171.559 244.87C172.833 244.87 173.774 243.663 175.1 243.587C175.679 243.553 176.299 243.373 176.835 243.159C177.644 242.835 178.948 242.175 179.782 242.089C181.793 241.883 183.568 241.261 185.653 241.234C186.269 241.226 186.891 241.266 187.507 241.234C188.136 241.201 188.591 240.752 189.194 240.628C190.283 240.402 191.2 239.859 192.308 239.736" stroke="#645841" stroke-linecap="round"/>
<path d="M203.006 236.742C204.432 236.402 205.158 235.792 206.214 234.816" stroke="#645841" stroke-linecap="round"/>
<path d="M194.02 238.454C196.439 238.349 198.326 237.315 200.52 236.648C201.821 236.252 203.42 236.06 204.762 235.84C206.335 235.582 207.441 234.818 209.1 234.818C209.616 234.818 210.81 234.497 211.132 234.176" stroke="#645841" stroke-linecap="round"/>
<path d="M210.707 233.32C210.932 235.235 211.388 237.028 211.729 238.906C211.987 240.323 213.06 241.673 213.06 243.065C213.06 244.9 213.977 246.31 213.654 248.246C213.443 249.514 213.274 250.627 213.274 251.93" stroke="#645841" stroke-linecap="round"/>
<path d="M224.181 251.715C224.108 250.985 223.909 249.939 223.646 249.255C223.463 248.779 223.134 247.881 223.111 247.389C223.062 246.358 222.786 244.496 223.527 243.693C224.621 242.508 225.678 240.572 225.678 238.928C225.678 238.159 225.575 237.39 225.238 236.682C225.001 236.184 224.341 236.049 223.943 235.719C223.651 235.478 223.707 234.933 223.527 234.602C221.722 231.293 223.679 227.395 222.35 224.073C220.586 219.663 222.741 215.021 223.325 210.645" stroke="#645841" stroke-linecap="round"/>
<path d="M223.754 211.287C223.754 207.503 224.824 203.913 224.824 200.163C224.824 198.917 224.442 197.275 224.087 196.075C223.609 194.464 223.754 192.788 223.754 191.096C223.754 188.755 223.754 186.414 223.754 184.073C223.754 182.297 222.898 180.783 222.898 178.975C222.898 176.903 223.112 174.847 223.112 172.783" stroke="#645841" stroke-linecap="round"/>
<path d="M223.113 171.287C223.38 170.721 223.111 169.943 223.422 169.457C223.964 168.61 223.755 167.437 223.755 166.45C223.755 163.598 223.327 160.872 223.327 158.013C223.327 153.193 223.078 148.319 223.779 143.586C224.109 141.36 225.244 138.867 226.441 137.014C227.891 134.77 228.247 133.146 228.247 130.645C228.247 125.148 228.033 119.679 228.033 114.174" stroke="#645841" stroke-linecap="round"/>
<path d="M214.77 158.452C215.131 158.543 215.245 159.08 215.72 159.094C216.855 159.126 217.084 158.627 217.764 157.811" stroke="#645841" stroke-linecap="round"/>
<path d="M216.48 154.602C215.753 154.747 214.569 154.964 214.555 155.814C214.543 156.474 214.423 157.292 214.769 157.81" stroke="#645841" stroke-linecap="round"/>
<path d="M217.123 155.672C218.211 156.125 217.765 158.089 217.765 159.094" stroke="#645841" stroke-linecap="round"/>
<path d="M217.548 186.474C217.22 187.661 216.609 190.006 217.452 191.061C217.774 191.463 218.189 192.313 218.189 192.844C218.189 193.378 217.995 194.398 218.879 194.032C220.948 193.176 220.756 191.023 220.756 189.207C220.756 187.576 219.974 186.12 218.831 184.977" stroke="#645841" stroke-linecap="round"/>
<path d="M215.839 125.295C217.801 124.621 215.073 121.439 214.175 120.542C213.429 119.795 213.373 118.514 212.334 119.508C211.813 120.006 211.774 120.496 211.3 120.969C209.641 122.628 214.342 125.666 214.342 127.482C214.342 129.974 213.914 132.453 213.914 134.921" stroke="#645841" stroke-linecap="round"/>
<path d="M216.908 123.586C216.908 120.606 215.798 117.363 214.603 114.673C213.919 113.134 214.023 111.306 215.518 110.109C216.957 108.958 218.062 116.948 219.499 117.359C220.798 117.73 220.758 115.465 220.758 114.768C220.758 113.84 220.317 112.876 219.689 112.249" stroke="#645841" stroke-linecap="round"/>
<path d="M218.193 109.039C218.193 108.613 217.632 106.238 218.074 105.926C218.943 105.31 221.572 105.831 222.613 105.831C223.535 105.831 224.365 106.062 225.251 106.258" stroke="#645841" stroke-linecap="round"/>
<path d="M226.746 106.258C227.534 106.289 228.315 106.393 229.099 106.472" stroke="#645841" stroke-linecap="round"/>
<path d="M212.847 143.051C212.847 145.574 213.154 148.073 213.049 150.609C212.931 153.447 213.302 156.888 212.205 159.522" stroke="#645841" stroke-linecap="round"/>
<path d="M214.126 162.73C214.252 163.546 214.678 164.327 214.53 165.179C214.351 166.208 214.167 167.378 213.889 168.387C213.664 169.201 213.057 169.659 213.057 170.55C213.057 171.398 213.057 172.245 213.057 173.093C213.057 175.418 211.773 177.47 211.773 179.736C211.773 180.99 212.415 182.093 212.415 183.396C212.415 184.026 212.415 184.656 212.415 185.286C212.415 186.253 212.999 186.985 213.057 187.924C213.17 189.764 212.629 191.557 212.629 193.414C212.629 195.387 212.629 197.36 212.629 199.332C212.629 201.43 213.057 203.426 213.057 205.512" stroke="#645841" stroke-linecap="round"/>
<path d="M212.629 211.5C212.629 213.426 213.057 215.253 213.057 217.157C213.057 221.4 213.271 225.64 213.271 229.896" stroke="#645841" stroke-linecap="round"/>
<path d="M227.812 116.699C232.781 116.699 237.75 116.699 242.719 116.699C244.849 116.699 245.726 117.08 247.673 117.755C252.924 119.576 258.846 119.223 264.157 120.865C267.433 121.877 270.868 122.491 274.198 123.305C278.251 124.295 282.44 125.241 286.591 125.729C287.556 125.843 288.198 125.629 289.283 125.923C291.86 126.62 294.328 127.332 296.945 127.827C297.679 127.966 298.256 128.481 298.953 128.735C300.389 129.257 302.049 129.472 303.535 129.91C304.915 130.316 305.72 131.362 306.987 131.784C308.683 132.35 310.649 132.551 312.402 133.034C314.539 133.623 316.722 133.803 318.799 134.611C320.269 135.182 321.726 135.399 323.292 135.563C330.676 136.338 337.971 137.985 345.369 138.657" stroke="#645841" stroke-linecap="round"/>
<path d="M231.564 108.666C233.723 108.666 235.234 108.957 237.307 109.618C240.881 110.758 244.433 111.314 248.167 111.344C250.557 111.363 252.944 111.571 255.338 111.612C258.397 111.663 261.254 112.703 264.219 113.322C268.133 114.141 271.979 115.182 275.882 116.015C279.52 116.792 283.246 117.2 286.772 118.41C290.543 119.705 294.105 121.076 298.123 121.728C298.956 121.863 299.846 122.188 300.652 122.442C302.98 123.175 305.381 123.505 307.734 124.227C309.332 124.717 310.787 125.428 312.346 125.953C315.163 126.901 318.245 127.365 321.123 128.214C323.378 128.88 325.843 129.673 328.16 130.029C330.022 130.316 330.637 130.164 332.176 131.428C335.151 133.869 339.59 133.838 343.23 133.838" stroke="#645841" stroke-linecap="round"/>
<path d="M345.117 135.648C348.062 135.595 350.983 135.229 353.93 135.229" stroke="#645841" stroke-linecap="round"/>
<path d="M352.673 137.746C352.673 141.296 352.804 144.875 352.673 148.424C352.598 150.442 351.702 152.363 351.507 154.393C351.322 156.316 351.648 158.327 351.227 160.221C350.469 163.632 350.705 166.826 350.574 170.34C350.513 171.985 349.398 173.127 349.315 174.676C349.193 176.968 349.55 179.32 349.246 181.6C348.291 188.756 344.699 195.182 344.699 202.443C344.699 205.21 344.699 207.977 344.699 210.743C344.699 213.073 346.244 215.114 347.217 217.061" stroke="#645841" stroke-linecap="round"/>
<path d="M344.701 144.041C344.701 147.647 344.95 151.144 345.121 154.719C345.293 158.337 346.083 162.165 345.354 165.77C344.051 172.207 345.024 178.535 344.095 184.981C343.777 187.186 343.259 190.241 342.043 192.115C341.219 193.387 341.606 196.361 341.251 197.85C340.142 202.496 339.567 206.545 339.665 211.373C339.747 215.385 340.989 219.062 341.763 222.937" stroke="#645841" stroke-linecap="round"/>
<path d="M319.52 180.972C321.572 180.972 323.588 180.977 325.605 180.529C328.061 179.983 329.779 180.133 332.296 180.133C334.122 180.133 335.711 181.021 337.565 180.972C339.224 180.928 341.016 180.166 342.601 179.713" stroke="#645841" stroke-linecap="round"/>
<path d="M340.505 173.837C336.211 173.837 332.821 174.45 328.661 175.189C324.208 175.981 320.186 176.355 315.652 176.355C309.275 176.355 302.697 175.095 296.627 173.184C292.413 171.858 287.272 172.578 282.965 172.578C277.378 172.578 272.307 174.24 266.831 175.189C262.941 175.864 259.173 178.148 255.454 179.199C253.233 179.827 251.563 180.552 249.206 180.552C246.408 180.552 243.61 180.552 240.813 180.552C235.155 180.552 229.497 180.552 223.84 180.552" stroke="#645841" stroke-linecap="round"/>
<path d="M224.676 186.426C232.807 186.426 240.898 186.845 249.039 186.845C251.829 186.845 254.245 186.406 256.943 185.586C259.082 184.936 261.872 184.568 263.844 183.441C264.771 182.911 265.637 181.403 266.548 180.644C267.462 179.882 269.441 179.117 270.582 178.918C277.831 177.658 286.363 178.347 293.686 178.452C297.008 178.499 299.949 179.928 303.245 180.131C305.503 180.27 307.467 181.582 309.726 181.856C312.46 182.187 315.088 183.144 317.84 183.488" stroke="#645841" stroke-linecap="round"/>
<path d="M283.781 171.863C283.781 170.148 284.224 168.808 284.54 167.176C284.83 165.676 285.505 164.488 285.909 163.041C286.479 160.995 286.541 158.962 287.262 156.926C287.911 155.096 287.798 153.314 287.798 151.392C287.798 150.121 288.012 148.626 287.753 147.375C287.611 146.687 287.107 146.105 286.876 145.441C286.513 144.402 286.348 143.325 286.176 142.243C285.464 137.753 284.049 133.908 284.049 129.285" stroke="#645841" stroke-linecap="round"/>
<path d="M277.891 170.792C277.891 167.932 278.851 165.411 279.17 162.58C279.473 159.893 279.23 157.041 279.23 154.338C279.23 147.594 279.657 140.751 278.426 134.105" stroke="#645841" stroke-linecap="round"/>
<path d="M318.324 142.941C319.543 144.389 318.86 147.98 318.86 149.785C318.86 151.044 318.86 152.304 318.86 153.563C318.86 156.296 318.86 159.028 318.86 161.761C318.86 165.574 318.86 169.387 318.86 173.201" stroke="#645841" stroke-linecap="round"/>
<path d="M322.88 139.191C322.88 142.149 323.503 146.022 322.494 148.861C321.889 150.561 321.907 152.011 321.646 153.786C321.409 155.386 321.006 156.75 321.006 158.382C321.006 161.612 321.809 164.727 321.809 167.963C321.809 169.798 321.809 171.633 321.809 173.468" stroke="#645841" stroke-linecap="round"/>
<path d="M318.592 184.717C318.943 188.186 319.134 191.931 318.83 195.428C318.733 196.545 318.235 197.556 318.041 198.656C317.691 200.639 317.433 202.549 317.55 204.577C317.702 207.191 318.883 210.16 319.514 212.715C319.881 214.202 319.902 215.482 319.931 217.029C319.983 219.891 320.802 222.239 321.805 224.884" stroke="#645841" stroke-linecap="round"/>
<path d="M323.947 185.787C323.794 191.914 323.947 197.963 323.947 204.086C323.947 209.495 324.095 214.478 325.286 219.751C325.708 221.621 325.821 223.241 325.821 225.151" stroke="#645841" stroke-linecap="round"/>
<path d="M282.979 182.037C282.979 184.257 282.93 186.483 282.994 188.702C283.061 191.059 284.095 193.028 284.466 195.307C285.221 199.945 284.853 204.751 284.853 209.44C284.853 213.066 284.959 216.436 286.043 219.913C286.81 222.37 287.044 224.758 287.65 227.233C288.183 229.411 289.158 231.488 289.405 233.719" stroke="#645841" stroke-linecap="round"/>
<path d="M277.622 184.982C277.622 195.074 277.622 205.165 277.622 215.257C277.622 219.25 277.466 223.28 277.786 227.262C277.966 229.501 278.725 231.61 278.931 233.823C279.018 234.751 278.968 235.604 279.497 236.397" stroke="#645841" stroke-linecap="round"/>
<path d="M249.207 241.448C248.933 240.131 247.652 238.791 248.185 237.336C248.602 236.201 250.949 236.149 251.893 235.649C254.111 234.473 255.991 233.167 257.763 231.395" stroke="#645841" stroke-linecap="round"/>
<path d="M259.902 226.689C259.962 225.671 260.11 224.718 260.758 223.908" stroke="#645841" stroke-linecap="round"/>
<path d="M264.824 217.917C266.641 215.352 267.801 212.675 270.517 210.965C272.752 209.558 274.593 207.151 275.733 204.869" stroke="#645841" stroke-linecap="round"/>
<path d="M277.873 207.436C277.326 207.764 277.103 208.787 276.708 209.313C276.085 210.144 275.423 210.947 274.795 211.797C273.573 213.45 271.662 214.444 270.552 216.253C268.948 218.868 266.415 221.155 265.157 223.906C265.082 224.07 263.605 227.46 264.23 227.46C264.538 227.46 265.018 226.598 265.264 226.414C265.65 226.124 266.155 226.047 266.512 225.713C267.208 225.06 268.278 224.4 269.269 224.334C270.963 224.221 272.718 224.334 274.414 224.334C275.952 224.334 277.357 224.762 278.942 224.762" stroke="#645841" stroke-linecap="round"/>
<path d="M276.801 226.474C273.885 226.474 268.466 225.434 266.272 228.067C265.222 229.327 264.057 230.353 262.921 231.489C261.335 233.076 259.93 233.336 257.811 233.866C255.703 234.393 254.184 236.161 253.01 237.978C252.105 239.379 250.959 240.511 250.015 241.852C249.101 243.152 247.496 245.147 247.496 246.795" stroke="#645841" stroke-linecap="round"/>
<path d="M260.759 224.551C258.853 223.359 262.738 219.16 263.754 218.348" stroke="#645841" stroke-linecap="round"/>
<path d="M270.171 191.822C269.569 192.086 269.49 194.405 269.292 195.15C269.023 196.159 268.746 197.831 268.056 198.62C266.613 200.268 265.976 203.159 263.326 203.159" stroke="#645841" stroke-linecap="round"/>
<path d="M272.952 192.676C272.952 194.56 273.415 197.263 272.916 199.093C272.667 200.006 271.536 201.154 270.979 201.898C270.192 202.946 269.022 203.158 268.055 203.918C266.626 205.041 264.945 205.296 263.112 205.296C261.757 205.296 261.828 205.535 261.828 206.794C261.828 207.867 261.83 208.685 261.412 209.693C261.101 210.447 260.933 211.318 260.711 212.094C260.292 213.561 259.728 214.432 258.976 215.73C258.6 216.38 258.201 216.917 257.788 217.537C257.176 218.455 257.218 219.588 256.481 220.46C256.011 221.015 255.31 221.344 255.221 222.124C255.136 222.864 254.968 223.409 254.793 224.108C254.274 226.186 254.033 228.195 252.583 229.896C250.957 231.802 250.202 233.844 249.85 236.313" stroke="#645841" stroke-linecap="round"/>
<path d="M252.633 220.057C252.633 219.398 252.968 219.128 253.381 218.643C253.985 217.934 254.28 216.988 254.629 216.135C255.28 214.548 255.576 213.27 255.865 211.607C255.979 210.95 256.652 210.836 256.863 210.265C257.092 209.646 257.19 209.121 257.553 208.518C257.978 207.808 258.103 207.539 258.242 206.747C258.367 206.033 258.925 205.829 259.311 205.273C260.105 204.131 261.086 203.225 261.831 202.041C262.078 201.648 262.538 201.131 262.651 200.698C262.742 200.347 262.631 199.98 262.722 199.629C262.831 199.21 263.189 198.943 263.304 198.523C263.508 197.787 263.562 197.175 263.875 196.479C264.329 195.467 265.41 194.476 265.657 193.425C266.052 191.75 265.787 189.558 267.179 188.398" stroke="#645841" stroke-linecap="round"/>
<path d="M264.396 201.661C264.6 200.677 265.561 199.997 266.013 199.094C266.491 198.138 267.172 197.122 267.902 196.349C268.933 195.258 269.46 193.886 269.744 192.463" stroke="#645841" stroke-linecap="round"/>
<path d="M268.462 189.469C268.084 189.818 267.832 189.922 267.393 190.11" stroke="#645841" stroke-linecap="round"/>
<path d="M267.959 189.906C267.483 188.956 266.967 188.103 267.146 187.003C267.221 186.537 267.553 186.175 267.828 185.808C268.068 185.488 268.241 185.092 268.438 184.743C268.694 184.29 269.047 184.062 269.434 183.722C269.873 183.338 269.898 182.823 270.223 182.416" stroke="#645841" stroke-linecap="round"/>
<path d="M270.311 181.807C270.383 182.264 270.974 182.814 271.356 183.026" stroke="#645841" stroke-linecap="round"/>
<path d="M271.441 183.373C271.728 183.373 271.838 183.547 272.061 183.547C272.545 183.547 273.028 183.547 273.512 183.547C273.665 183.547 274.234 183.57 274.306 183.407C274.433 183.122 274.291 182.61 274.228 182.328" stroke="#645841" stroke-linecap="round"/>
<path d="M270.396 182.503C270.357 182.193 270.023 181.869 270.348 181.545C270.669 181.223 271.1 181.313 271.514 181.274C271.861 181.241 272.15 181.109 272.506 181.109C272.773 181.109 273.041 181.109 273.309 181.109C273.599 181.109 273.777 181.351 274.015 181.487C274.492 181.758 274.489 182.097 274.489 182.59" stroke="#645841" stroke-linecap="round"/>
<path d="M274.665 184.158C274.665 184.881 275.04 185.627 275.4 186.249C275.734 186.825 276.577 187.689 276.044 188.455C275.843 188.744 275.631 189.048 275.415 189.331C275.24 189.56 275.25 189.835 275.013 190.032C274.614 190.365 274.441 190.715 274.316 191.213" stroke="#645841" stroke-linecap="round"/>
<path d="M273.795 191.822C273.313 192.845 271.681 192.837 270.713 192.688C270.333 192.63 269.944 192.367 269.643 192.151C269.223 191.849 268.873 191.907 268.414 191.764C268.177 191.69 268.038 191.561 267.785 191.561" stroke="#645841" stroke-linecap="round"/>
<path d="M247.285 187.432C247.314 188.169 247.773 188.55 248.177 189.14C248.499 189.611 248.697 190.183 248.994 190.678" stroke="#645841" stroke-linecap="round"/>
<path d="M248.994 188.117C249.806 188.31 250.153 189.142 251.045 189.142" stroke="#645841" stroke-linecap="round"/>
<path d="M253.605 186.92C253.605 189.127 253.903 191.498 253.131 193.584C251.822 197.118 251.444 201.494 252.03 205.241C252.237 206.567 252.409 207.695 252.409 209.057C252.409 210.053 252.134 211.604 252.618 212.513C253.166 213.54 252.922 214.919 252.922 216.063C252.922 217.114 252.922 218.164 252.922 219.215" stroke="#645841" stroke-linecap="round"/>
<path d="M248.991 192.217C248.991 195.025 248.61 198.07 249.598 200.722C249.973 201.728 249.845 202.962 249.845 204.007C249.845 205.652 249.845 207.298 249.845 208.943C249.845 211.12 249.845 213.297 249.845 215.474C249.845 217.313 249.981 219.136 249.494 220.923C249.016 222.675 249.589 224.947 248.734 226.6C248.243 227.549 248.055 228.513 247.776 229.562C247.448 230.788 247.265 232.153 246.769 233.292C246.506 233.899 246.191 234.457 245.924 235.058C245.712 235.537 245.815 236.12 245.535 236.567C245.277 236.981 245.132 237.171 245.061 237.669" stroke="#645841" stroke-linecap="round"/>
<path d="M236.176 223.317C236.416 221.477 237.551 219.771 238.739 218.409C239.465 217.577 240.412 217.02 241.131 216.141" stroke="#645841" stroke-linecap="round"/>
<path d="M244.379 212.893C244.982 212.701 245.307 212.124 245.793 211.754C246.113 211.511 246.471 211.403 246.771 211.108C247.319 210.571 247.521 209.993 247.796 209.305" stroke="#645841" stroke-linecap="round"/>
<path d="M249.335 204.691C248.769 204.723 248.687 205.018 248.301 205.356C247.813 205.783 247.05 205.79 246.677 206.4C246.514 206.667 246.529 207.153 246.231 207.321C245.699 207.62 245.252 207.057 244.893 206.742" stroke="#645841" stroke-linecap="round"/>
<path d="M244.381 205.717C243.805 204.942 243.54 204.008 242.502 204.008C241.562 204.008 241.818 204.793 241.818 205.546C241.818 206.591 242.575 207.542 242.682 208.612C242.721 208.999 242.963 209.432 242.815 209.827C242.582 210.448 241.904 210.16 241.477 210.434C240.728 210.916 240.208 211.704 239.369 212.077C238.918 212.277 238.806 212.8 238.572 213.178C238.308 213.602 237.732 213.974 237.584 214.431C237.419 214.942 237.154 215.34 236.863 215.798C236.664 216.112 236.158 216.607 236.047 216.899C235.821 217.489 235.555 217.762 235.458 218.399C235.325 219.27 235.154 220.027 235.154 220.924" stroke="#645841" stroke-linecap="round"/>
<path d="M224.045 208.279C224.818 208.279 226.779 208.536 226.779 207.519C226.779 206.262 226.688 205.203 225.241 205.203" stroke="#645841" stroke-linecap="round"/>
<path d="M227.973 209.305C229.04 212.314 230.18 215.44 230.745 218.57C230.855 219.182 231.302 219.631 231.428 220.24C231.522 220.693 231.473 221.295 231.732 221.683C232.072 222.194 232.799 223.316 233.441 223.316" stroke="#645841" stroke-linecap="round"/>
<path d="M224.387 211.184C224.532 212.676 224.66 214.346 225.184 215.778C225.66 217.078 225.922 218.655 226.674 219.803C227.574 221.176 228.211 222.771 229.171 224.094C230.296 225.644 231.975 227.117 232.645 228.945C233.726 231.891 236.091 234.332 237.658 237.023C239.509 240.202 241.471 243.382 243.866 246.212" stroke="#645841" stroke-linecap="round"/>
<path d="M245.234 239.719C243.981 238.327 243.388 236.363 242.424 234.802C241.719 233.661 240.713 232.614 239.861 231.574C239.281 230.866 238.934 230.101 238.494 229.305C238.115 228.62 237.654 228.106 237.241 227.473C236.465 226.284 235.992 225.236 235.836 223.828" stroke="#645841" stroke-linecap="round"/>
<path d="M234.809 218.361C234.276 217.734 234.192 216.733 233.973 215.969C233.87 215.607 233.941 215.197 233.84 214.821C233.567 213.8 232.967 212.889 232.787 211.84C232.633 210.94 232.103 210.574 232.075 209.552C232.031 207.991 231.063 206.66 230.613 205.204C229.936 203.013 229.755 200.621 228.382 198.711C226.083 195.512 223.865 192.119 223.531 188.117" stroke="#645841" stroke-linecap="round"/>
<path d="M226.777 201.102C226.845 202.055 227.007 203.9 227.651 204.623C228.3 205.354 228.23 206.206 228.666 207.025C228.923 207.507 229.17 207.698 229.17 208.278" stroke="#645841" stroke-linecap="round"/>
<path d="M286.214 234.175C285.262 233.89 285.005 232.045 284.764 231.252C284.388 230.014 284.256 228.709 283.885 227.473C283.153 225.031 282.174 222.271 282.15 219.701C282.125 217.039 282.15 214.376 282.15 211.715" stroke="#645841" stroke-linecap="round"/>
<path d="M279.153 238.882C278.643 238.499 278.808 236.093 279.082 235.554C279.751 234.241 282.901 234.338 284.038 234.413C286.343 234.567 288.498 235.196 290.063 236.957" stroke="#645841" stroke-linecap="round"/>
<path d="M290.705 240.38C289.557 241.616 287.719 241.998 286.094 242.091C285.092 242.149 284.102 242.354 283.099 242.424C281.442 242.54 279.956 242.244 278.334 242.008C276.883 241.797 275.09 241.144 275.09 239.311" stroke="#645841" stroke-linecap="round"/>
<path d="M285.9 180.77C286.25 181.723 286.584 182.358 286.584 183.371C286.584 184.585 287.371 185.302 287.59 186.399C287.871 187.803 288.782 188.818 289.479 190.063C289.844 190.715 290.514 191.443 290.514 192.218" stroke="#645841" stroke-linecap="round"/>
<path d="M289.658 180.939C289.658 182.927 289.587 184.564 290.36 186.369C290.907 187.645 291.455 189.151 291.67 190.527C292.014 192.718 292.195 194.803 293.17 196.811C293.7 197.901 294.283 198.815 295.05 199.773C295.827 200.744 295.515 201.908 296.208 202.906C296.871 203.86 296.883 205.236 297.043 206.342C297.209 207.481 297.851 208.283 298.021 209.39C298.086 209.81 298.245 209.841 298.353 210.168C298.503 210.618 299.126 208.925 299.208 208.611C299.426 207.774 299.569 206.93 299.569 206.067C299.569 205.472 299.969 205.123 300.062 204.586C300.391 202.692 300.081 200.443 300.081 198.53C300.081 198.107 299.999 197.579 300.11 197.172C300.28 196.547 300.594 196.356 300.594 195.653C300.594 194.953 301.051 194.302 301.116 193.584C301.177 192.912 301.277 192.292 301.277 191.609C301.277 189.796 301.72 187.332 301.106 185.676C300.591 184.286 300.594 183.091 300.594 181.623" stroke="#645841" stroke-linecap="round"/>
<path d="M304.186 186.58C304.186 187.849 304.373 189.318 304.11 190.567C303.831 191.89 303.341 193.215 303.198 194.573C302.89 197.503 303.16 200.547 303.16 203.496" stroke="#645841" stroke-linecap="round"/>
<path d="M305.211 204.52C305.416 203.578 306.171 202.923 306.236 201.919C306.286 201.155 306.616 200.369 306.711 199.584C306.924 197.822 306.749 195.96 306.749 194.183C306.749 192.686 306.658 191.245 307.28 189.845C307.547 189.244 307.798 188.904 307.954 188.202C308.139 187.373 308.274 186.55 308.457 185.725" stroke="#645841" stroke-linecap="round"/>
<path d="M310.845 200.248C310.845 198.622 310.393 197.289 311.937 196.489C312.43 196.233 312.833 195.782 313.389 195.663C313.716 195.593 314.03 195.671 314.348 195.549C314.969 195.31 315.618 195.237 316.066 194.647C316.433 194.164 317.326 194.132 317.509 193.584" stroke="#645841" stroke-linecap="round"/>
<path d="M313.754 194.269C315.141 192.651 315.292 190.84 315.292 188.811C315.292 188.016 315.075 187.254 315.804 186.808C316.509 186.376 316.888 185.21 317.342 184.529" stroke="#645841" stroke-linecap="round"/>
<path d="M314.605 184.871C314.605 186.115 314.287 186.948 314.026 188.108C313.828 188.988 313.409 189.689 313.409 190.595C313.409 190.907 313.427 191.224 313.409 191.535C313.38 192.023 312.924 192.232 312.896 192.674C312.844 193.483 312.896 194.311 312.896 195.123" stroke="#645841" stroke-linecap="round"/>
<path d="M310.848 193.754C310.848 191.624 311.534 189.934 311.094 187.793C310.792 186.32 311.019 184.656 311.019 183.16" stroke="#645841" stroke-linecap="round"/>
<path d="M310.676 202.471C310.367 206.186 310.174 209.907 309.49 213.558C309.35 214.302 309.031 215.352 308.464 215.742C307.839 216.172 307.771 216.649 307.771 217.337" stroke="#645841" stroke-linecap="round"/>
<path d="M309.31 202.127C308.458 202.918 308.114 203.247 308.114 204.415C308.114 205.089 308.114 205.763 308.114 206.437C308.114 207.25 308.114 208.063 308.114 208.876C308.114 210.031 307.019 211.415 306.405 212.37C305.591 213.636 305.721 215.281 305.721 216.736C305.721 217.877 305.761 219.024 305.721 220.163C305.7 220.777 304.857 221.588 304.525 222.119" stroke="#645841" stroke-linecap="round"/>
<path d="M301.622 222.804C301.622 221.121 301.606 219.486 301.461 217.811C301.378 216.862 301.109 215.94 301.109 214.954C301.109 213.531 301.816 212.848 302.514 211.622C303.028 210.72 302.954 209.683 303.331 208.736C303.56 208.158 303.766 207.703 303.843 207.084" stroke="#645841" stroke-linecap="round"/>
<path d="M298.716 221.095C298.621 220.334 298.27 219.635 298.061 218.902C297.857 218.19 297.881 217.505 297.491 216.861C297.088 216.196 296.795 215.507 296.456 214.811C295.982 213.834 295.082 213.147 294.558 212.21C293.538 210.386 293.419 208.295 293.419 206.229C293.419 205.233 293.445 204.139 292.868 203.287C292.417 202.62 292.055 201.912 291.625 201.236C291.243 200.636 290.631 200.247 290.239 199.622C288.906 197.5 287.356 195.697 285.9 193.756" stroke="#645841" stroke-linecap="round"/>
<path d="M285.729 200.42C286.719 201.277 287.782 202.6 288.159 203.875C288.283 204.296 288.67 204.422 288.861 204.787C289.07 205.185 289.226 205.728 289.374 206.154C289.654 206.959 289.488 208.027 289.488 208.869C289.488 209.368 289.414 209.933 289.516 210.425C289.622 210.937 289.97 211.331 290 211.868C290.047 212.711 289.882 213.589 290.114 214.412C290.485 215.725 290.843 217.684 291.804 218.665C292.286 219.157 292.392 219.804 292.696 220.412C293.242 221.504 293.997 222.329 294.443 223.488" stroke="#645841" stroke-linecap="round"/>
<path d="M296.493 222.632C296.395 221.509 295.723 220.663 295.638 219.518C295.591 218.883 294.479 218.112 294.176 217.506C293.65 216.453 292.821 215.821 292.278 214.772C291.784 213.82 291.07 212.95 290.436 212.095C288.952 210.094 287.633 207.952 286.24 205.887" stroke="#645841" stroke-linecap="round"/>
<path d="M130.062 119.735C130.736 119.735 131.409 119.735 132.083 119.735C133.526 119.735 133.295 119.635 133.295 120.698C133.295 121.302 138.312 121.018 138.916 121.018C140.191 121.018 141.459 120.922 142.683 121.339C143.842 121.734 145.097 121.874 146.319 121.874C148.112 121.874 150.15 122.244 151.667 121.232" stroke="#645841" stroke-linecap="round"/>
<path d="M152.094 121.232C153.78 121.53 155.04 122.711 156.42 123.621C157.295 124.199 158.115 124.468 156.693 124.679C155.855 124.803 155.13 125.222 154.257 125.285C153.586 125.333 153.342 125.938 152.736 125.938C150.359 125.938 147.982 125.938 145.605 125.938C142.262 125.938 138.878 124.473 135.623 125.843C134.638 126.258 132.963 125.126 132.105 125.938C131.711 126.312 131.927 127.146 131.416 127.341C130.536 127.676 130.275 126.807 130.275 126.152" stroke="#645841" stroke-linecap="round"/>
<path d="M128.518 112.303C128.518 111.217 128.698 110.155 129.093 109.144C129.243 108.762 129.76 108.219 130.056 107.949C130.582 107.47 130.991 107.067 131.411 106.497C131.876 105.867 132.849 105.51 133.622 105.51C134.604 105.51 134.9 106.247 135.611 106.816C136.215 107.3 137.158 107.165 137.924 107.165C138.926 107.165 139.071 105.826 139.056 105.074C139.048 104.654 138.648 104.552 138.548 104.17C138.407 103.63 138.989 103.658 139.38 103.695C140.057 103.76 140.68 103.942 141.364 103.942C141.959 103.942 142.584 104.066 143.121 104.334C143.56 104.554 143.742 105.179 143.953 105.578C144.153 105.954 144.354 106.266 144.592 106.623C144.745 106.852 144.879 107.095 145.066 107.295C145.259 107.503 145.996 107.892 146.28 107.75C147.105 107.338 146.639 104.222 147.35 104.291C147.704 104.325 148.175 104.722 148.545 104.537C148.707 104.456 149.022 103.632 149.067 103.434C149.221 102.769 150.03 102.455 150.03 103.42C150.03 103.582 149.94 104.13 150.069 104.252C150.323 104.492 151.234 104.237 151.511 104.155C151.793 104.071 152.113 104.115 152.237 104.426C152.431 104.912 152.143 105.14 152.121 105.568C152.105 105.871 151.946 106.211 152.334 106.366C152.744 106.53 153.064 106.316 153.258 105.989C153.494 105.59 153.623 105.104 153.756 104.658C153.97 103.939 154.838 103.641 155.411 103.284C156.008 102.912 156.675 102.871 157.346 102.728C157.833 102.623 158.46 102.481 158.948 102.481C159.278 102.481 159.605 102.636 159.954 102.636C160.273 102.636 160.134 103.64 160.134 103.85C160.134 104.467 160.084 105.001 160.463 105.529C160.565 105.673 160.789 106.129 161.019 106.091C161.44 106.02 161.783 105.376 161.992 105.065C162.594 104.169 163.322 103.894 164.285 103.429C164.859 103.152 165.474 102.657 166.095 102.481C166.641 102.326 167.231 102.374 167.793 102.374C168.232 102.374 168.665 102.936 168.969 103.216C169.606 103.802 169.883 104.785 170.445 105.437C170.87 105.931 171.085 106.513 171.417 107.073C171.552 107.299 172.988 109.074 172.772 109.255C172.331 109.627 171.294 109.429 170.75 109.429C169.404 109.429 168.059 109.429 166.714 109.429C164.682 109.429 162.65 109.429 160.617 109.429C159.201 109.429 157.785 109.429 156.369 109.429C155.242 109.429 154.203 109.686 153.079 109.69C150.913 109.699 148.746 109.69 146.58 109.69C145.311 109.69 144.071 109.865 142.801 109.865C141.784 109.865 140.439 109.607 139.482 110.049C138.338 110.577 137.037 110.474 135.795 110.474C135.175 110.474 134.252 110.299 133.637 110.513C133.37 110.606 133.143 110.62 132.868 110.663C132.566 110.711 132.309 110.889 132.001 110.91C130.924 110.982 129.763 110.94 128.779 111.432" stroke="#645841" stroke-linecap="round"/>
<path d="M118.299 100.483C121.528 101.819 125.874 101.125 129.327 101.125C131.26 101.125 133.258 101.296 135.174 101.03C136.321 100.87 139.048 100.568 139.048 99.1046C139.048 98.1558 138.802 96.6517 139.191 95.7771C139.475 95.1383 140.458 91.7129 139.714 91.7129C139.126 91.7129 134.719 91.9372 134.556 92.6161C134.367 93.4022 132.738 93.852 131.989 93.852C131.169 93.852 130.349 93.852 129.529 93.852C128.548 93.852 127.707 94.2798 126.665 94.2798C125.483 94.2798 124.916 95.5629 123.956 96.0148C122.943 96.4916 122.962 97.8734 121.829 96.7397C121.006 95.9175 117.672 94.2629 116.909 95.789C116.506 96.595 116.264 98.3017 116.695 99.164C117.439 100.652 119.829 99.9804 121.08 99.8414" stroke="#645841" stroke-linecap="round"/>
<path d="M138.405 81.2305C138.405 82.4021 138.59 83.7225 138.382 84.8669C138.204 85.8449 137.764 86.5172 137.764 87.5526C137.764 88.2422 138.171 88.5614 138.5 89.1332C138.831 89.7065 139.482 89.6385 139.736 90.167C140.376 91.4957 140.544 92.3307 140.544 93.851" stroke="#645841" stroke-linecap="round"/>
<path d="M138.619 100.268C138.619 101.906 140.391 102.88 140.972 104.332" stroke="#645841" stroke-linecap="round"/>
<path d="M142.682 105.19C144.123 104.956 145.623 102.754 146.271 101.458C146.417 101.165 146.318 100.635 146.318 100.317C146.318 99.1159 146.411 97.8757 146.271 96.6808C145.774 92.4573 146.104 88.0475 146.104 83.7988" stroke="#645841" stroke-linecap="round"/>
<path d="M143.536 83.1562C143.536 84.3439 143.513 85.534 143.536 86.7214C143.56 87.9265 143.98 88.9908 144.131 90.1677C144.298 91.4732 144.274 92.9814 144.071 94.2794C143.912 95.2984 143.672 96.7212 143.204 97.6306C142.362 99.2653 142.24 101.457 142.039 103.264" stroke="#645841" stroke-linecap="round"/>
<path d="M174.554 97.0605C173.371 100.054 173.057 103.087 173.057 106.259" stroke="#645841" stroke-linecap="round"/>
<path d="M174.77 96.2051H179.262" stroke="#645841" stroke-linecap="round"/>
<path d="M180.33 97.7012C180.33 100.607 180.04 103.289 178.975 105.996C178.815 106.403 178.832 106.793 178.832 107.22C178.832 107.848 178.341 108.215 178.226 108.824C177.991 110.082 178.191 111.571 178.191 112.841C178.191 114.316 178.832 115.631 178.832 117.06C178.832 118.3 178.556 119.721 178.262 120.922C177.645 123.439 176.693 125.851 176.693 128.504" stroke="#645841" stroke-linecap="round"/>
<path d="M176.91 132.57C176.91 134.508 176.947 136.785 176.375 138.655C175.757 140.672 176.331 142.214 176.743 144.216C177.489 147.836 178.457 152.009 177.195 155.649C176.634 157.266 176.268 159.093 176.268 160.818C176.268 162.509 176.59 164.022 176.696 165.678C176.759 166.671 177.765 167.669 177.765 168.626C177.765 169.128 177.818 170.406 177.337 170.646" stroke="#645841" stroke-linecap="round"/>
<path d="M176.907 173.211C175.8 175.188 175.195 176.685 175.195 178.963C175.195 180.325 175.195 181.688 175.195 183.051C175.195 183.835 175.488 184.2 175.706 184.905C175.909 185.558 175.729 186.219 176.051 186.83C176.415 187.52 176.32 188.526 176.479 189.29C176.679 190.251 176.693 191.189 176.693 192.166C176.693 195.358 176.575 198.761 176.241 201.934C176.04 203.846 174.981 205.704 174.981 207.579C174.981 209.307 175.035 210.969 175.183 212.677C175.413 215.317 175.195 218.07 175.195 220.722C175.195 223.2 175.595 226.029 175.029 228.447C174.879 229.087 174.375 229.651 174.34 230.3C174.3 231.033 174.34 231.777 174.34 232.511C174.34 233.77 174.34 235.03 174.34 236.29C174.34 238.223 174.34 240.156 174.34 242.089" stroke="#645841" stroke-linecap="round"/>
<path d="M120.65 237.385C119.365 237.582 118.329 237.813 117.014 237.813" stroke="#645841" stroke-linecap="round"/>
<path d="M117.011 237.17C116.556 237.17 115.507 237.37 115.336 236.826C115.164 236.282 115.711 235.504 115.953 235.019C116.709 233.509 117.623 232.015 118.508 230.539" stroke="#645841" stroke-linecap="round"/>
<path d="M117.443 230.753C117.597 229.729 118.561 229.07 118.893 228.115C119.087 227.558 118.941 226.753 118.941 226.166C118.941 225.053 118.941 223.94 118.941 222.827C118.941 221.329 119.271 219.379 118.846 217.942C118.603 217.125 118.582 216.217 118.085 215.518C117.6 214.836 117.488 214.033 117.443 213.213C117.411 212.623 117.28 211.86 116.802 211.478C116.35 211.117 116.588 209.884 116.588 209.362C116.588 207.925 116.464 206.417 116.6 204.989C116.755 203.36 117.095 201.843 117.527 200.259C117.954 198.694 118.813 197.189 118.953 195.577C119.009 194.928 119.272 194.493 119.487 193.914C119.72 193.289 119.633 192.441 119.749 191.774C119.988 190.399 119.796 188.839 119.796 187.449C119.796 185.045 118.513 183.067 118.513 180.58C118.513 179.804 118.513 179.027 118.513 178.251C118.513 177.53 118.899 177.373 118.941 176.801C119.021 175.709 119.582 174.862 119.582 173.854C119.582 171.64 119.756 169.261 118.941 167.223" stroke="#645841" stroke-linecap="round"/>
<path d="M118.996 131.324C118.996 132.105 118.996 132.886 118.996 133.667C118.996 134.26 119.269 134.678 119.269 135.222C119.269 135.885 119.638 136.391 119.747 137.049C119.894 137.931 120.088 138.647 120.088 139.567C120.088 141.19 120.215 142.853 119.982 144.458C119.918 144.902 119.86 145.203 119.618 145.588C119.345 146.022 119.458 146.486 119.315 146.96C119.072 147.765 118.562 148.339 118.42 149.205C118.233 150.343 118.041 151.352 118.041 152.519C118.041 153.465 118.309 154.19 118.504 155.097C118.725 156.128 118.789 157.191 119.125 158.198C119.356 158.889 119.666 159.717 119.8 160.42C119.991 161.419 120.156 162.084 120.543 163.021C120.691 163.378 120.772 164.312 120.574 164.659C120.247 165.231 120.29 165.92 120.013 166.54C119.822 166.965 119.641 167.24 119.406 167.632" stroke="#645841" stroke-linecap="round"/>
<path d="M118.995 131.46C118.995 129.17 120.24 127.025 120.625 124.779C120.823 123.626 120.769 122.45 120.769 121.268C120.769 120.054 120.448 118.404 120.921 117.257C121.685 115.401 121.861 113.892 121.861 111.896C121.861 111.049 121.832 110.221 121.755 109.378C121.673 108.486 121.92 107.431 121.634 106.572C121.521 106.234 121.275 105.964 121.133 105.64C120.934 105.185 120.96 104.707 120.815 104.244C120.635 103.674 120.248 102.919 119.874 102.455C118.938 101.294 118.695 99.9993 118.176 98.7012" stroke="#645841" stroke-linecap="round"/>
<path d="M130.191 102.115C129.558 103.672 128.963 105.33 128.963 107.029" stroke="#645841" stroke-linecap="round"/>
<path d="M126.514 215.336C126.604 214.975 127.709 215.312 127.927 215.53C128.197 215.8 128.472 216.166 128.362 216.536C128.268 216.854 128.367 217.228 128.449 217.533C128.58 218.021 129.463 218.107 129.877 218.215C130.71 218.433 131.578 218.523 132.402 218.738C133.022 218.9 133.633 219.074 134.265 219.198C134.741 219.291 135.234 219.335 135.698 219.483C135.978 219.573 136.201 219.752 136.472 219.856C136.784 219.974 137.017 220.162 137.362 220.252C137.978 220.413 138.58 220.532 139.181 220.722C139.537 220.834 139.964 220.778 140.333 220.862C141.018 221.019 141.773 221.235 142.433 221.472C142.928 221.649 143.445 221.869 143.981 221.869C144.456 221.869 144.824 222.191 145.259 222.372C145.771 222.585 146.499 222.652 147.049 222.652C147.275 222.652 147.715 222.822 147.76 223.093C147.81 223.391 148.6 223.325 148.81 223.175C148.874 223.13 149.118 222.902 149.178 222.904C149.491 222.915 149.924 223.549 150.151 223.727C150.58 224.063 152.298 224.77 151.617 225.42C150.936 226.069 149.832 225.906 149.178 226.61C149.048 226.75 147.925 225.98 147.659 225.962C147.191 225.931 147.087 226.071 146.72 226.228C146.261 226.425 146.129 226.485 145.573 226.485C145.14 226.485 144.436 226.625 144.039 226.427C143.772 226.293 143.759 226.242 143.444 226.218C142.832 226.173 142.014 225.954 141.436 225.725C140.782 225.465 140.13 225.265 139.423 225.265C139.093 225.265 138.962 225.001 138.639 224.936C137.964 224.801 137.267 224.73 136.607 224.525C136.476 224.484 135.848 224.373 135.765 224.249C135.548 223.923 134.745 223.739 134.391 223.533C133.835 223.209 133.176 223.122 132.581 222.885C132.302 222.773 132.027 222.769 131.735 222.73C131.174 222.655 130.597 222.456 130.046 222.323C129.527 222.198 128.976 222.014 128.444 221.96C128.12 221.928 128.24 222.359 127.994 222.464C127.605 222.631 126.901 222.478 126.475 222.478C126.045 222.478 125.991 222.02 125.991 221.612C125.991 220.995 126.183 220.137 125.778 219.638C125.504 219.299 125.633 218.763 125.565 218.365C125.496 217.957 125.317 217.57 125.227 217.165C125.032 216.295 124.624 215.884 124.162 215.162" stroke="#645841" stroke-linecap="round"/>
<path d="M124.686 215.687C125.415 215.541 126.026 215.426 126.776 215.426" stroke="#645841" stroke-linecap="round"/>
<path d="M125.96 224.549C125.495 227.649 125.339 230.83 125.687 233.967" stroke="#645841" stroke-linecap="round"/>
<path d="M122.41 236.016C122.704 234.066 123.291 232.155 123.366 230.192C123.397 229.366 123.775 228.679 123.775 227.826C123.775 226.944 123.775 226.062 123.775 225.179C123.775 223.841 122.926 222.681 122.835 221.335C122.632 218.341 122.82 215.26 122.82 212.266" stroke="#645841" stroke-linecap="round"/>
<path d="M129.634 114.174C129.45 115.461 128.992 116.709 128.992 118.024" stroke="#645841" stroke-linecap="round"/>
<path d="M126.214 101.98C126.214 104.414 125.572 106.396 125.572 108.837C125.572 111.202 125.572 113.567 125.572 115.932C125.572 118.301 125.572 120.67 125.572 123.038C125.572 123.813 125.542 124.803 125.215 125.51C124.886 126.223 124.716 126.531 124.716 127.328C124.716 128.234 124.132 128.959 124.074 129.86C123.803 134.105 124.456 138.384 123.694 142.575C123.017 146.297 123.433 150.393 123.433 154.174" stroke="#645841" stroke-linecap="round"/>
<path d="M129.635 121.232C129.635 124.49 129.992 127.857 128.875 130.93C128.474 132.032 128.78 133.773 128.78 134.934C128.78 136.879 128.78 138.824 128.78 140.769C128.78 146.592 128.78 152.415 128.78 158.238" stroke="#645841" stroke-linecap="round"/>
<path d="M126.639 207.436V212.997" stroke="#645841" stroke-linecap="round"/>
<path d="M127.707 163.371C127.707 169.907 127.707 176.443 127.707 182.979C127.707 185.871 127.707 188.763 127.707 191.654C127.707 194.801 127.279 197.859 127.279 201.019" stroke="#645841" stroke-linecap="round"/>
<path d="M124.073 166.367C124.073 170.657 124.154 175.075 123.752 179.344C123.625 180.69 123.857 182.157 123.609 183.48C123.335 184.942 123.003 186.105 123.003 187.639C123.003 190.091 123.003 192.543 123.003 194.995C123.003 200.942 122.789 206.843 122.789 212.785" stroke="#645841" stroke-linecap="round"/>
<path d="M123.645 166.795C123.645 162.986 123.503 158.963 124.286 155.244" stroke="#645841" stroke-linecap="round"/>
<path d="M164.75 240.916V243.308" stroke="#645841" stroke-linecap="round"/>
<path d="M164.75 239.379C164.75 237.299 165.092 235.312 165.092 233.227C165.092 231.313 165.092 229.398 165.092 227.484C165.092 225.155 165.092 222.826 165.092 220.497C165.092 219.377 165.775 218.427 165.775 217.241C165.775 215.849 165.775 214.457 165.775 213.064C165.775 212.134 165.775 211.204 165.775 210.273C165.775 208.845 166.117 207.506 166.117 206.097C166.117 203.407 166.117 200.717 166.117 198.028C166.117 197.512 166.117 196.996 166.117 196.48C166.117 195.674 166.459 194.978 166.459 194.183C166.459 192.87 166.381 191.525 166.468 190.215C166.552 188.958 166.971 187.777 166.971 186.484C166.971 184.918 167.142 183.369 167.142 181.795" stroke="#645841" stroke-linecap="round"/>
<path d="M167.486 181.281C166.691 181.132 167.144 173.575 167.144 172.7C167.144 170.86 166.859 168.76 167.41 167.004C167.834 165.651 167.998 164.42 167.998 162.998" stroke="#645841" stroke-linecap="round"/>
<path d="M167.145 163.681C168.103 163.502 167.657 158.411 167.657 157.492C167.657 154.885 167.657 152.277 167.657 149.67" stroke="#645841" stroke-linecap="round"/>
<path d="M168.34 136.171V136" stroke="#645841" stroke-linecap="round"/>
<path d="M169.025 110.371C169.273 111.147 169.045 111.958 169.366 112.697C169.688 113.436 169.537 114.4 169.537 115.193C169.537 116.683 169.708 118.175 169.708 119.693C169.708 123.848 169.708 128.002 169.708 132.157C169.708 135.562 169.873 138.908 169.186 142.229C169.012 143.071 168.734 143.904 168.455 144.716C168.153 145.598 168.341 146.772 168.341 147.697C168.341 149.705 168.854 151.593 168.854 153.602" stroke="#645841" stroke-linecap="round"/>
<path d="M170.182 244.581C170.182 244.245 170.108 243.819 170.194 243.492C170.302 243.077 170.427 242.727 170.456 242.289C170.499 241.647 170.46 240.988 170.46 240.345C170.46 239.76 170.46 239.175 170.46 238.59C170.46 237.819 170.632 237.191 170.808 236.441" stroke="#645841" stroke-linecap="round"/>
<path d="M170.6 236.439C170.6 231.964 170.669 227.479 170.669 223.012" stroke="#645841" stroke-linecap="round"/>
<path d="M170.739 222.736C170.739 220.772 170.739 218.809 170.739 216.845C170.739 216.013 170.739 215.18 170.739 214.348C170.739 213.771 170.556 212.853 170.879 212.369" stroke="#645841" stroke-linecap="round"/>
<path d="M171.574 190.383C171.574 193.323 171.574 196.263 171.574 199.203C171.574 201.129 171.841 203 171.783 204.931C171.753 205.93 171.227 206.846 171.227 207.846C171.227 208.402 171.227 208.959 171.227 209.515" stroke="#645841" stroke-linecap="round"/>
<path d="M171.574 189.061C171.919 188.629 171.713 187.522 171.713 186.978C171.713 186.025 171.713 185.073 171.713 184.121C171.713 182.776 171.713 181.431 171.713 180.086" stroke="#645841" stroke-linecap="round"/>
<path d="M171.574 180.294C171.596 179.702 171.713 179.135 171.713 178.539C171.713 177.963 171.713 177.388 171.713 176.812C171.713 175.331 171.663 173.843 171.713 172.363C171.724 172.05 171.906 171.796 171.922 171.489C171.936 171.221 171.896 170.948 172.007 170.693C172.108 170.462 172.117 170.321 172.146 170.067C172.196 169.634 172.426 169.248 172.471 168.818C172.592 167.665 172.687 166.501 172.687 165.336" stroke="#645841" stroke-linecap="round"/>
<path d="M172.698 164.644C172.698 163.611 172.561 162.467 172.726 161.445C172.844 160.713 172.753 159.884 172.753 159.142C172.753 158.778 172.693 157.798 172.976 157.586" stroke="#645841" stroke-linecap="round"/>
<path d="M172.976 157.419C172.976 157.149 172.976 156.879 172.976 156.61C172.976 156.32 172.754 156.118 172.754 155.832C172.754 155.16 172.865 154.534 172.865 153.862C172.865 152.622 172.865 151.381 172.865 150.141C172.865 148.195 172.865 146.249 172.865 144.303" stroke="#645841" stroke-linecap="round"/>
<path d="M172.92 143.968C172.92 143.552 172.92 143.136 172.92 142.72C172.92 142.54 172.969 142.373 172.975 142.196C172.987 141.886 173.142 141.626 173.142 141.322C173.142 139.944 173.142 138.566 173.142 137.188" stroke="#645841" stroke-linecap="round"/>
<path d="M174.365 110.512C174.365 111.026 174.365 111.541 174.365 112.055C174.365 112.647 174.51 113.218 174.551 113.809C174.627 114.917 174.588 116.037 174.588 117.147C174.588 118.815 174.477 120.471 174.477 122.139C174.477 122.934 174.261 123.642 174.081 124.412C173.987 124.818 173.84 125.18 173.797 125.597C173.743 126.126 173.593 126.66 173.476 127.178C173.314 127.896 173.365 128.633 173.365 129.364C173.365 130.046 173.365 130.727 173.365 131.408" stroke="#645841" stroke-linecap="round"/>
<path d="M155.434 173.267C155.434 174.182 155.434 175.096 155.434 176.011C155.434 176.45 155.497 176.946 155.403 177.379C155.276 177.96 154.984 178.495 154.951 179.096C154.93 179.469 154.808 179.82 154.808 180.197C154.808 180.732 154.808 181.266 154.808 181.801C154.808 181.939 154.783 182.105 154.808 182.242C154.833 182.388 155.439 182.311 155.573 182.311C156.241 182.311 156.019 181.063 156.207 180.634C156.437 180.109 156.408 179.604 156.408 179.038C156.408 178.343 156.408 177.649 156.408 176.954C156.408 176.429 156.408 175.903 156.408 175.377C156.408 174.73 156.497 173.987 156.361 173.348C156.31 173.106 156.176 172.895 156.141 172.648C156.138 172.625 156.158 172.287 156.056 172.347C155.866 172.458 155.712 172.845 155.712 173.058" stroke="#645841" stroke-linecap="round"/>
<path d="M156.824 173.686C157.252 173.7 157.685 173.738 158.077 173.894" stroke="#645841" stroke-linecap="round"/>
<path d="M158.286 173.545C158.258 173.011 158.008 172.534 158.008 171.999C158.008 171.406 158.551 171.158 158.704 170.623" stroke="#645841" stroke-linecap="round"/>
<path d="M159.332 171.25C159.352 171.741 159.437 172.271 159.695 172.696C159.809 172.882 160.011 173.241 160.028 173.461C160.081 174.183 159.641 174.863 159.541 175.564" stroke="#645841" stroke-linecap="round"/>
<path d="M159.678 176.467C159.824 176.807 160.14 177.135 160.335 177.46C160.527 177.781 160.606 178.228 160.64 178.6C160.683 179.07 160.059 179.414 159.817 179.737" stroke="#645841" stroke-linecap="round"/>
<path d="M158.286 175.006C158.003 175.112 157.971 176.246 157.953 176.513C157.921 177.001 157.938 177.493 157.938 177.982C157.938 178.358 157.938 178.734 157.938 179.111" stroke="#645841" stroke-linecap="round"/>
<path d="M157.728 180.293C157.728 180.541 157.702 180.77 157.797 181C157.866 181.165 157.841 181.326 157.879 181.495C157.909 181.63 158.045 181.675 158.076 181.808C158.144 182.1 158.354 182.25 158.354 182.57C158.354 182.934 158.354 183.299 158.354 183.663C158.354 183.742 158.279 184.399 158.474 184.297C159.028 184.008 158.917 183.1 159.096 182.604C159.358 181.882 159.215 181.156 159.537 180.432" stroke="#645841" stroke-linecap="round"/>
<path d="M156.754 180.365C157.03 180.385 157.263 180.482 157.519 180.574" stroke="#645841" stroke-linecap="round"/>
<path d="M158.771 163.25C159.24 163.25 159.741 163.239 160.175 163.041C160.485 162.9 160.936 162.964 161.276 162.902" stroke="#645841" stroke-linecap="round"/>
<path d="M161.486 162.484C161.486 161.993 161.332 161.138 161.764 160.814" stroke="#645841" stroke-linecap="round"/>
<path d="M162.32 160.813C162.791 161.185 163.76 161.672 164.237 161.022C164.476 160.698 164.843 160.813 165.227 160.813C165.681 160.813 166.114 160.838 166.564 160.883" stroke="#645841" stroke-linecap="round"/>
<path d="M158.771 163.598C159.209 164.422 160.484 163.876 161.207 163.876" stroke="#645841" stroke-linecap="round"/>
<path d="M161.764 165.197C161.831 165.409 161.817 165.684 162.088 165.684C162.501 165.684 162.852 165.893 163.279 165.893C163.864 165.893 164.385 165.684 164.964 165.684" stroke="#645841" stroke-linecap="round"/>
<path d="M166.354 165.336C166.354 164.769 166.312 164.167 166.563 163.666" stroke="#645841" stroke-linecap="round"/>
<path d="M144.521 135.691C144.521 139.126 143.213 142.923 145.386 146.035C145.76 146.57 146.193 147.353 146.887 147.506C147.626 147.668 149.182 147.805 149.928 147.528C151.127 147.084 151.829 145.09 152.173 144.002C152.759 142.145 152.848 140.495 152.848 138.558" stroke="#645841" stroke-linecap="round"/>
<path d="M149.847 132.825C148.905 132.486 147.347 132.073 146.404 132.582C145.711 132.956 145.32 133.859 144.918 134.486C143.66 136.442 143.002 138.889 143.568 141.151" stroke="#645841" stroke-linecap="round"/>
<path d="M147.933 137.056C147.386 137.944 146.977 138.581 146.977 139.619C146.977 140.331 146.958 141.046 146.977 141.758C147.002 142.664 148.645 145.115 149.518 143.82C150.629 142.171 151.345 140.566 151.345 138.565C151.345 137.576 150.994 137.387 150.39 136.783" stroke="#645841" stroke-linecap="round"/>
<path d="M146.729 157.075C146.445 156.353 145.607 156.07 144.923 155.876C144.687 155.809 144.372 155.708 144.122 155.75C143.691 155.824 143.492 156.047 143.219 156.372C142.694 156.996 142.302 157.69 141.924 158.407C141.863 158.522 141.778 158.595 141.734 158.722C141.671 158.908 141.506 159.027 141.453 159.208C141.341 159.591 141.268 160.022 141.268 160.422C141.268 161.034 141.078 161.692 141.379 162.254C141.542 162.559 141.723 162.803 141.944 163.068C142.185 163.357 142.754 163.338 143.088 163.335C143.41 163.331 143.819 163.133 143.88 162.775C143.949 162.37 144.114 161.992 143.816 161.667C143.601 161.434 143.388 161.292 143.069 161.292C142.85 161.292 142.644 161.21 142.644 161.47" stroke="#645841" stroke-linecap="round"/>
<path d="M143.045 166.399C143.407 166.372 143.865 166.06 143.928 165.669C143.945 165.562 143.95 165.41 143.923 165.304C143.868 165.083 143.657 164.978 143.588 164.777C143.377 164.162 142.079 163.623 141.713 164.355C141.49 164.801 141.131 165.124 141.023 165.63C140.978 165.839 141.003 166.073 141.003 166.286C141.003 166.522 140.884 166.713 140.872 166.952C140.831 167.805 140.973 168.762 141.378 169.527C141.572 169.895 141.932 170.213 142.293 170.417C142.451 170.507 142.616 170.635 142.749 170.76C142.923 170.922 143.167 170.923 143.356 171.071C143.734 171.366 144.287 171.519 144.776 171.594C145.078 171.639 145.334 171.68 145.598 171.5C145.897 171.296 146.094 170.947 146.278 170.642C146.414 170.418 146.376 170.126 146.375 169.877C146.372 169.442 146.297 169.153 146.029 168.807C145.845 168.567 145.538 168.264 145.215 168.264C144.991 168.264 144.954 168.397 144.786 168.52C144.586 168.668 144.422 168.785 144.288 169.004C143.967 169.527 145.058 169.729 145.354 169.729" stroke="#645841" stroke-linecap="round"/>
<path d="M148.24 169.462C148.255 169.586 148.397 169.556 148.496 169.551C148.675 169.542 148.74 169.442 148.792 169.285C148.927 168.88 148.873 168.567 148.6 168.249C148.506 168.139 148.39 168.181 148.255 168.17C148.038 168.152 147.84 168.086 147.621 168.086C147.202 168.086 146.963 168.416 146.617 168.633C145.804 169.144 146.179 170.403 146.73 170.986C147.313 171.603 148.068 171.732 148.881 171.726C149.597 171.721 150.172 171.348 150.63 170.819C151.066 170.315 151.503 169.682 151.695 169.038C151.876 168.433 152.015 167.794 152.127 167.173C152.206 166.732 152.2 166.131 152.077 165.703C151.93 165.187 151.301 165.061 150.928 164.798C150.662 164.611 150.358 164.604 150.052 164.512C149.861 164.454 149.672 164.37 149.468 164.423C149.292 164.47 149.148 164.676 148.997 164.774C148.713 164.957 148.632 165.17 148.496 165.467C148.274 165.951 148.758 166.312 149.152 166.525C149.528 166.728 150.155 166.662 150.504 166.443" stroke="#645841" stroke-linecap="round"/>
<path d="M151.036 162.758C151.036 162.426 151.307 161.798 150.977 161.545C150.748 161.369 149.897 161.174 149.637 161.411C149.204 161.807 148.905 162.386 148.905 162.96C148.905 163.788 150.054 164.213 150.737 164.312C150.97 164.346 151.122 164.426 151.346 164.322C151.505 164.248 151.713 164.194 151.818 164.043C152.266 163.395 152.367 162.442 152.585 161.698C152.792 160.989 152.542 160.441 152.417 159.754C152.371 159.502 152.297 159.301 152.136 159.098C151.868 158.761 151.697 158.361 151.44 158.015C151.124 157.589 150.9 157.053 150.537 156.666C150.41 156.53 150.334 156.334 150.19 156.217C150.043 156.099 149.706 156.06 149.526 156.005C149.066 155.866 148.695 155.973 148.313 156.212C148.015 156.399 147.735 156.66 147.469 156.891C147.214 157.112 146.915 157.293 146.739 157.594C146.472 158.05 146.401 158.67 146.419 159.187C146.435 159.646 147.132 159.878 147.504 159.808C147.769 159.759 148.07 159.699 148.303 159.554C148.538 159.408 148.547 159.081 148.55 158.837C148.551 158.691 148.593 158.471 148.503 158.343C148.362 158.144 147.96 158.142 147.75 158.097" stroke="#645841" stroke-linecap="round"/>
<path d="M147.04 156.81C147.04 156.526 147.067 156.222 147.035 155.937C146.992 155.562 146.851 155.182 146.773 154.812" stroke="#645841" stroke-linecap="round"/>
<path d="M141.668 164.135C141.597 163.914 141.57 163.797 141.357 163.691" stroke="#645841" stroke-linecap="round"/>
<path d="M140.871 164.713C140.871 164.519 140.961 164.128 140.763 164.013C140.351 163.772 140.733 163.523 140.96 163.248" stroke="#645841" stroke-linecap="round"/>
<path d="M141.447 162.937C141.526 162.887 141.536 162.837 141.58 162.76" stroke="#645841" stroke-linecap="round"/>
<path d="M152.412 163.068C152.577 163.445 153.118 163.634 153.434 163.872C153.643 164.031 154.096 164.209 153.7 164.43C153.233 164.69 152.66 164.951 152.279 165.332" stroke="#645841" stroke-linecap="round"/>
<path d="M145.529 171.859C145.573 172.291 146.054 172.519 146.309 172.816C146.392 172.913 146.543 173.123 146.698 173.097C146.969 173.054 147.194 172.828 147.394 172.658" stroke="#645841" stroke-linecap="round"/>
<path d="M145.754 156.054C145.996 155.661 146.273 155.301 146.642 155.033" stroke="#645841" stroke-linecap="round"/>
<path d="M53.6484 2.08203C58.0161 3.53792 62.3077 4.63059 66.948 4.71271C68.0543 4.73229 70.9423 4.16952 71.9171 5.00501C73.1563 6.06724 74.0107 6.66051 75.7169 7.0511C79.6187 7.94426 83.3298 8.01415 86.3127 10.9971C88.7438 13.4282 93.1985 13.6293 96.397 13.9201" stroke="#645841" stroke-linecap="round"/>
<path d="M60.2246 10.6309C67.6412 11.7296 72.8904 21.0891 76.4472 26.8534C79.0231 31.0283 80.8814 35.5777 85.4353 38.1799C86.7578 38.9356 88.8 42.7237 89.1621 44.1721" stroke="#645841" stroke-linecap="round"/>
<path d="M107.58 19.1816C107.58 23.8987 120.758 25.1415 123.474 26.4526C125.196 27.284 126.148 28.7665 128.041 29.4851C130.516 30.4251 132.9 31.5281 135.421 32.3351C137.637 33.0439 139.293 34.0265 141.742 34.2715C147.811 34.8784 154.443 37.1472 160.194 39.2771C165.982 41.4211 171.863 43.1584 177.659 45.3423C181.571 46.8165 185.197 49.1435 189.168 50.3845C191.567 51.1342 194.762 51.2668 196.95 52.5036C197.92 53.0515 197.861 53.9616 198.996 54.367C205.911 56.8365 211.967 61.156 218.982 63.2456C220.146 63.5924 221.878 63.8975 222.928 64.5975C223.776 65.1624 223.538 66.0962 224.792 66.3878C227.244 66.9582 231.488 66.5623 233.561 68.1416C236.636 70.4846 241.026 70.2484 244.741 70.9915C246.554 71.3541 247.161 72.453 248.979 72.453" stroke="#645841" stroke-linecap="round"/>
<path d="M252.266 78.3711C253.495 79.8308 253.608 81.343 254.092 83.1209C254.618 85.0492 256.61 85.93 257.673 87.5785C260.831 92.4725 266.184 98.8128 271.338 101.39" stroke="#645841" stroke-linecap="round"/>
<path d="M110.209 69.1641C110.354 70.3274 121.903 70.4794 123.728 70.4794C125.951 70.4794 126.448 71.9737 128.478 72.3428C133.263 73.2129 138.503 74.7697 143.348 75.0466C146.177 75.2082 148.359 75.0333 150.985 76.2523C154.546 77.906 158.248 77.9326 161.873 79.1753C166.055 80.6091 171.66 82.3175 176.049 82.3175C180.117 82.3175 184.185 82.2833 188.253 82.3175C191.75 82.3469 194.474 83.5118 197.825 84.2174C201.407 84.9715 205.434 83.981 209.079 84.4366C214.849 85.1579 220.11 88.097 225.74 89.223C230.232 90.1214 234.028 92.6125 238.455 93.4979" stroke="#645841" stroke-linecap="round"/>
<path d="M103.633 69.1641C110.765 71.1092 116.272 81.9171 124.678 77.7138" stroke="#645841" stroke-linecap="round"/>
<path d="M127.967 77.7148C131.539 77.8088 134.038 78.282 136.955 80.0532C137.891 80.6214 140.837 81.5907 141.924 81.6609C147.524 82.0222 154.269 82.4373 159.498 80.3455C161.63 79.4931 162.793 78.2542 165.016 80.0532C166.86 81.5464 168.298 84.1812 169.4 86.228C171.376 89.8982 180.714 89.5529 184.526 89.5529C186.865 89.5529 189.203 89.5529 191.542 89.5529C194.772 89.5529 197.403 90.6065 200.457 90.8683C202.966 91.0833 207.488 90.5427 209.664 91.8182C211.362 92.8136 211.974 95.472 214.122 95.472C216.147 95.472 217.097 97.445 219.456 97.445C222.014 97.445 224.571 97.445 227.129 97.445C229.047 97.445 235.009 96.3017 235.861 98.4315C236.564 100.189 245.72 100.302 247.663 100.733" stroke="#645841" stroke-linecap="round"/>
<path d="M249.637 101.391C251.766 104.08 256.814 104.273 260.013 104.898C262.472 105.378 265.325 105.143 267.613 106.287C268.739 106.85 269.251 107.942 270.609 107.967C273.781 108.026 276.17 106.729 279.378 107.164C281.86 107.5 282.595 108.155 284.822 109.027C287.028 109.89 289.125 111.018 291.362 111.913C292.857 112.511 294.74 112.257 296.003 113.229C297.496 114.378 301.284 115.051 303.127 115.531C305.141 116.054 311.57 115.981 313.138 117.467C314.627 118.878 315.976 120.17 317.669 121.486C321.824 124.718 328.198 124.025 333.015 125.359C338.022 126.746 342.865 128.659 348.251 128.976C353.01 129.256 356.022 131.619 360.747 132.922C368.254 134.993 374.583 135.589 382.486 135.589" stroke="#645841" stroke-linecap="round"/>
<path d="M240.428 95.4707C242.621 99.2309 252.784 99.2293 256.687 100.147C258.608 100.6 259.343 102.047 261.473 102.047C265.343 102.047 269.256 102.454 273.019 103.363C277.632 104.476 282.178 106.125 286.794 106.98C288.536 107.303 289.828 108.159 291.47 108.588C294.522 109.384 297.746 109.266 300.824 109.976C304.495 110.823 309.251 112.055 312.552 113.739C317.417 116.221 323.626 115.655 328.702 117.685C331.103 118.646 333.008 121.118 335.132 122.581C339.028 125.265 342.478 125.853 347.043 126.527C350.883 127.095 354.113 131.979 357.42 133.908C360.359 135.622 363.454 136.182 366.701 136.904" stroke="#645841" stroke-linecap="round"/>
<path d="M256.213 83.6328C259.221 86.1592 262.864 87.7553 265.932 90.2095C268.333 92.1307 270.728 94.1585 273.312 95.8363C276.47 97.8859 280.271 99.0645 283.177 101.39" stroke="#645841" stroke-linecap="round"/>
<path d="M125.994 36.2812C126.637 38.7241 129.605 40.142 130.817 42.4195C131.944 44.5363 133.211 46.5022 134.325 48.6308C137.746 55.1724 146.706 60.1195 152.959 63.2457" stroke="#645841" stroke-linecap="round"/>
<path d="M167.424 50.75C171.429 53.9796 174.269 58.0773 178.897 60.5785C181.37 61.9158 183.833 63.2857 185.839 65.2918C191.248 70.7016 199.099 74.2552 205.569 78.3722" stroke="#645841" stroke-linecap="round"/>
<path d="M227.932 77.0547C232.244 79.9299 235.892 83.6269 240.281 86.4082C242.864 88.0445 245.727 88.872 248.319 90.4273C250.29 91.6099 250.917 91.1198 252.412 93.2042C255.505 97.5191 264.185 100.249 268.707 102.704" stroke="#645841" stroke-linecap="round"/>
<path d="M421.86 289.35C408.84 269.477 398.552 251.038 403.537 226.708C405.988 214.747 409.583 203.225 412.355 191.378C415.778 176.753 414.646 160.986 414.646 146.086" stroke="#645841" stroke-linecap="round"/>
<path d="M432.168 54.3574V92.4924" stroke="#645841" stroke-linecap="round"/>
</svg>
