<svg width="352" height="283" viewBox="0 0 352 283" fill="none" xmlns="http://www.w3.org/2000/svg">
<path d="M152.083 241.959C155.373 241.959 158.663 241.959 161.952 241.959C163.617 241.959 164.995 242.789 166.704 242.789" stroke="#645841" stroke-linecap="round"/>
<path d="M149.891 240.297C149.891 239.287 149.862 238.467 150.784 237.737C151.454 237.207 152.372 236.561 153.302 236.561C155.243 236.561 157.183 236.561 159.124 236.561C161.858 236.561 162.385 238.497 163.646 239.928C164.056 240.394 164.507 240.6 164.878 241.105C165.143 241.467 165.46 241.82 165.73 242.166" stroke="#645841" stroke-linecap="round"/>
<path d="M166.948 242.79C168.271 241.663 169.192 240.522 170.847 239.676" stroke="#645841" stroke-linecap="round"/>
<path d="M141.118 235.109C142.776 235.137 144.329 235.307 145.938 235.64C146.731 235.804 147.524 235.574 148.185 236.044C149.273 236.816 151.696 236.355 153.059 236.355" stroke="#645841" stroke-linecap="round"/>
<path d="M279.17 259.213C280.314 259.235 281.371 259.532 282.488 259.711C284.117 259.971 285.789 260.1 287.427 260.321C288.198 260.425 288.964 260.329 289.732 260.41C291.198 260.567 292.674 260.735 294.136 260.913C294.668 260.978 295.229 261.225 295.762 261.331C296.72 261.521 297.653 261.773 298.617 261.918" stroke="#645841" stroke-linecap="round"/>
<path d="M277.781 258.027C278.498 257.401 279.215 256.814 280.063 256.327C280.619 256.009 281.251 255.707 281.893 255.548C283.22 255.219 284.338 254.523 285.642 254.158C288.174 253.448 290.917 253.091 293.486 253.932C294.011 254.105 294.346 254.544 294.842 254.773C295.164 254.922 295.547 255.289 295.796 255.52C296.571 256.24 297.033 257.179 297.764 257.91C298.226 258.373 298.316 259.057 298.855 259.464C298.988 259.565 299.076 260.158 299.109 260.314C299.195 260.731 299.165 260.945 299.511 261.24" stroke="#645841" stroke-linecap="round"/>
<path d="M171.644 239.059C172.057 239.41 173.362 239.148 173.976 239.435C174.364 239.616 175.39 239.664 175.791 239.699C177.41 239.843 179.024 240.032 180.642 240.176C181.813 240.28 182.957 240.234 184.12 240.434C184.855 240.561 185.57 240.867 186.308 240.946C187.07 241.027 187.792 241.029 188.55 241.181C190.803 241.632 192.963 242.189 195.292 242.327C197.594 242.464 199.871 242.988 202.145 243.338C203.546 243.554 205.148 243.424 206.485 243.832C208.847 244.553 211.403 244.935 213.848 245.384C215.142 245.622 216.419 245.91 217.747 246.025C219.17 246.148 220.645 246.029 222.074 246.043C224.179 246.063 226.052 247.207 228.133 247.207C228.369 247.207 228.514 247.245 228.712 247.365C229.059 247.576 229.416 247.524 229.83 247.524C230.433 247.524 231.036 247.524 231.638 247.524" stroke="#645841" stroke-linecap="round"/>
<path d="M233.997 247.947C236.46 247.947 238.926 248.053 241.381 248.053C243.035 248.053 244.962 247.816 246.57 248.159C247.581 248.374 248.678 248.243 249.71 248.271C250.605 248.295 251.241 248.502 252.063 248.67C252.35 248.729 252.668 248.675 252.96 248.706C253.469 248.759 253.945 248.929 254.451 249C255.897 249.202 257.315 249.506 258.784 249.535C261.253 249.583 263.514 250.495 265.961 250.593C266.413 250.611 266.765 250.818 267.189 250.922C267.752 251.059 268.345 251.036 268.915 251.145C269.714 251.299 270.68 251.372 271.433 251.651C272.104 251.899 272.827 251.942 273.497 252.18C273.875 252.314 274.281 252.297 274.67 252.403C275.083 252.516 275.275 252.75 275.733 252.815" stroke="#645841" stroke-linecap="round"/>
<path d="M302.965 263.681C302.965 258.251 309.133 259.851 314.203 259.851" stroke="#645841" stroke-linecap="round"/>
<path d="M301.467 265.597C303.385 266.754 308.641 270.506 311.04 269.143C313.815 267.567 314.204 263.058 314.204 260.49" stroke="#645841" stroke-linecap="round"/>
<path d="M320.61 214.299C320.137 214.847 319.036 215.714 318.814 216.378C318.454 217.452 318.507 218.667 318.136 219.785C317.054 223.044 315.693 226.297 315.051 229.575C314.701 231.363 314.765 233.195 314.441 234.975C314.242 236.068 313.289 236.852 313.289 237.978C313.289 239.297 313.289 240.615 313.289 241.934C313.289 243.611 312.623 244.938 312.357 246.526C312.109 248 311.153 249.333 311.153 250.828C311.153 253.466 311.153 256.103 311.153 258.74" stroke="#645841" stroke-linecap="round"/>
<path d="M320.912 223.135C320.912 225.965 319.082 228.213 319.082 231.018C319.082 233.751 318.508 236.657 317.692 239.277C316.969 241.6 317.138 243.943 316.218 246.207C315.199 248.714 314.438 251.368 313.862 253.946C313.708 254.636 313.091 255.133 312.997 255.852C312.921 256.436 313.026 256.917 312.675 257.455C312.044 258.423 312.37 259.991 312.37 261.079" stroke="#645841" stroke-linecap="round"/>
<path d="M313.287 212.219C313.101 213.889 312.35 215.638 311.898 217.272C311.231 219.676 310.747 222.058 309.694 224.376C309.079 225.73 308.893 227.349 308.542 228.765C308.082 230.621 307.189 232.351 306.711 234.194C306.206 236.143 305.361 238.197 304.576 240.085C302.928 244.048 303.22 248.355 303.22 252.502C303.22 255.448 303.22 258.393 303.22 261.338" stroke="#645841" stroke-linecap="round"/>
<path d="M316.337 209.881C317.727 209.881 320.289 210.403 321.218 211.195C322.556 212.335 322.065 215.036 321.218 216.118" stroke="#645841" stroke-linecap="round"/>
<path d="M321.219 219.238C321.219 220.573 320.914 221.816 320.914 223.137" stroke="#645841" stroke-linecap="round"/>
<path d="M322.132 210.399C322.132 207.367 322.743 204.724 322.743 201.692C322.743 200.142 321.665 199.349 321.251 197.938C320.744 196.211 322.365 195.028 323.353 193.766" stroke="#645841" stroke-linecap="round"/>
<path d="M321.219 190.648C322.904 190.724 323.659 191.936 323.659 193.247" stroke="#645841" stroke-linecap="round"/>
<path d="M319.693 191.689C318.8 192.865 317.385 193.605 316.88 195.068C316.585 195.923 316.538 196.688 315.744 197.364C314.991 198.005 315.07 198.697 314.236 199.356C312.149 201.007 313.083 203.354 313.575 205.449C314.006 207.285 314.048 209.588 315.117 211.181" stroke="#645841" stroke-linecap="round"/>
<path d="M323.051 219.756C322.663 221.902 322.136 223.856 322.136 226.065C322.136 229.146 322.136 232.226 322.136 235.306C322.136 236.34 322.161 237.377 322.136 238.41C322.102 239.786 321.183 241.051 320.983 242.424C320.507 245.703 320.305 248.768 320.305 252.098C320.305 256.564 320.305 261.031 320.305 265.497C320.305 266.794 320.028 268.04 319.322 269.193C318.31 270.846 318.312 273.336 317.831 275.142C317.595 276.027 317.56 276.819 317.56 277.712" stroke="#645841" stroke-linecap="round"/>
<path d="M314.813 253.023C314.813 255.913 316.643 258.134 316.643 261.051C316.643 263.932 316.399 266.339 315.66 269.108C315.412 270.039 314.508 271.273 314.508 272.14C314.508 273.241 313.898 274.261 313.898 275.273C313.898 276.207 312.982 276.635 312.982 277.655C312.982 278.454 312.982 279.253 312.982 280.052" stroke="#645841" stroke-linecap="round"/>
<path d="M313.898 281.091C314.38 281.671 316.661 282.579 317.237 281.597C317.806 280.628 318.169 279.296 318.169 278.232" stroke="#645841" stroke-linecap="round"/>
<path d="M322.441 242.627C323.457 242.627 324.474 242.627 325.491 242.627C326.537 242.627 326.126 244.12 326.101 244.735C326.052 245.972 325.186 246.999 325.186 248.229C325.186 249.187 325.186 250.145 325.186 251.102C325.186 252.657 325.186 254.211 325.186 255.766C325.186 258.046 322.359 256.071 321.525 255.362" stroke="#645841" stroke-linecap="round"/>
<path d="M322.438 260.82C323.734 260.82 325.184 261.23 325.184 259.809C325.184 258.99 324.879 258.253 324.879 257.441" stroke="#645841" stroke-linecap="round"/>
<path d="M322.438 227.553C323.855 227.553 325.794 226.992 325.794 228.477C325.794 229.833 325.84 231.194 325.794 232.549C325.755 233.714 325.758 235.463 325.015 236.476C324.762 236.821 323.761 236.65 323.354 236.65" stroke="#645841" stroke-linecap="round"/>
<path d="M324.575 236.65C324.785 237.129 325.49 236.768 325.49 237.43C325.49 237.879 325.529 238.34 325.49 238.787C325.354 240.35 322.15 240.289 320.914 240.289" stroke="#645841" stroke-linecap="round"/>
<path d="M142.449 234.049C140.599 233.852 138.482 229.632 140.313 228.852" stroke="#645841" stroke-linecap="round"/>
<path d="M140.94 228.053C142.076 228.053 143.211 228.053 144.347 228.053C145.153 228.053 146.576 227.832 147.256 228.219C147.755 228.502 149.034 228.84 149.614 228.882C150.798 228.969 151.815 229.384 153.009 229.508C154.526 229.666 155.761 230.043 157.303 230.043C158.892 230.043 160.066 230.336 161.542 230.854C162.259 231.105 163.005 231.005 163.737 231.213C165.584 231.737 167.689 232.033 169.642 232.033C170.925 232.033 172.196 232.507 173.384 232.899C174.246 233.183 174.968 233.134 175.86 233.221C178.192 233.451 180.541 234.244 182.836 234.686C185.754 235.249 188.636 235.673 191.552 236.142C192.502 236.295 193.212 236.676 194.202 236.676C195.1 236.676 196.009 236.632 196.895 236.787C197.739 236.934 198.572 237.266 199.436 237.33C202.257 237.539 205.095 237.59 207.925 237.837C209.126 237.942 210.272 238.339 211.419 238.583C217.773 239.937 224.339 239.993 230.906 239.993C232.035 239.993 233.238 239.885 234.356 240.021C235.321 240.138 236.151 240.638 237.146 240.656C238.977 240.69 240.868 240.829 242.683 241.025C243.518 241.115 244.25 241.457 245.084 241.569C245.725 241.654 246.155 242.12 246.728 242.149C247.85 242.205 248.736 242.442 249.799 242.683C251.319 243.029 252.922 243.365 254.439 243.623C255.129 243.741 255.825 243.593 256.526 243.752C257.52 243.977 258.413 244.589 259.392 244.775C260.007 244.891 260.826 244.619 261.392 244.876C261.866 245.091 262.087 245.134 262.647 245.134C264.069 245.134 265.141 245.507 266.443 245.65C267.703 245.789 269.039 246.123 270.282 246.369C272.292 246.766 274.258 247.047 276.273 247.493C277.88 247.848 279.205 248.225 280.902 248.285C281.617 248.31 281.966 248.782 282.654 248.782C283.238 248.782 283.822 248.782 284.406 248.782" stroke="#645841" stroke-linecap="round"/>
<path d="M300.365 250.771H300.949" stroke="#645841" stroke-linecap="round"/>
<path d="M286.351 248.617C287.472 248.617 290.205 248.262 291.109 249.032C292.27 250.021 294.496 249.671 295.889 250.202C297.138 250.678 298.413 250.569 299.674 250.948C300.367 251.156 300.755 251.27 301.545 251.27C302.314 251.27 302.665 251.768 303.481 251.768" stroke="#645841" stroke-linecap="round"/>
<path d="M153.983 234.687C153.662 234.633 153.325 234.445 153.01 234.355" stroke="#645841" stroke-linecap="round"/>
<path d="M153.01 233.857H153.204" stroke="#645841" stroke-linecap="round"/>
<path d="M153.205 233.692C154.693 233.249 155.235 234.136 156.666 234.189C157.702 234.227 158.714 234.654 159.737 234.429C161.711 233.993 164.362 234.355 166.41 234.355C168.08 234.355 169.49 235.185 171.136 235.341C173.972 235.609 170.887 237.741 172.282 238.335" stroke="#645841" stroke-linecap="round"/>
<path d="M276.619 253.759C276.619 253.415 276.619 253.071 276.619 252.727C276.619 252.089 276.1 251.539 276.1 250.976C276.1 250.735 277.158 250.287 277.419 250.276C278.28 250.24 278.845 250.431 279.636 250.589C282.772 251.218 286.356 250.773 289.553 250.773C291.555 250.773 293.472 251.394 295.403 251.759C296.111 251.893 296.792 252.036 297.491 252.192C298.047 252.317 298.67 252.161 299.199 252.349C300.937 252.966 300.408 255.811 299.978 256.909" stroke="#645841" stroke-linecap="round"/>
<path d="M141.136 227.888C142.058 227.713 142.885 226.591 143.753 226.238C144.614 225.889 145.21 225.009 145.818 224.405C146.814 223.415 148.922 222.99 148.922 221.42" stroke="#645841" stroke-linecap="round"/>
<path d="M149.309 221.586C151.75 221.586 154.303 222.404 156.619 222.968C157.823 223.261 159.07 223.388 160.253 223.779C161.493 224.187 162.696 223.908 163.951 224.184C166.336 224.708 168.645 225.234 171.132 225.234C172.355 225.234 173.446 225.744 174.615 225.99C175.791 226.237 177.143 226.116 178.356 226.303C179.958 226.55 181.644 226.428 183.18 226.893C185.663 227.645 188.918 227.224 191.507 227.224C194.491 227.224 197.216 228.273 200.115 228.643C201.594 228.832 203.286 228.883 204.787 228.883C206.413 228.883 208.012 229.389 209.61 229.62C211.961 229.96 214.348 230.291 216.661 230.799C218.293 231.158 219.977 231.57 221.614 231.859C223.084 232.118 224.385 232.365 225.886 232.365C226.553 232.365 227.055 232.638 227.66 232.844C228.66 233.185 229.87 233.031 230.926 233.195C232.33 233.412 233.643 233.526 235.068 233.526C236.537 233.526 237.976 234.067 239.447 234.171C242.952 234.42 246.345 234.853 249.873 234.853C252.232 234.853 254.593 235.428 256.859 235.931C259.809 236.585 262.926 236.521 265.932 236.926C268.193 237.23 270.453 237.175 272.734 237.175C274.698 237.175 276.236 237.928 278.098 238.16C281.496 238.584 284.563 239.828 288.026 239.828C290.33 239.828 292.608 239.994 294.915 239.994C296.27 239.994 298.237 239.708 299.587 240.021C300.041 240.127 300.272 240.491 300.766 240.491C301.144 240.491 301.635 240.421 301.999 240.519C302.432 240.635 302.346 240.989 302.885 240.989C303.278 240.989 303.671 240.989 304.064 240.989" stroke="#645841" stroke-linecap="round"/>
<path d="M150.282 216.941H150.477" stroke="#645841" stroke-linecap="round"/>
<path d="M150.478 216.941C150.478 218.213 151.169 218.655 151.797 219.724C152.125 220.282 152.828 220.804 153.008 221.419" stroke="#645841" stroke-linecap="round"/>
<path d="M150.478 216.609C151.148 216.609 151.819 216.609 152.489 216.609C153.234 216.609 153.519 216.91 154.198 217.088C155.881 217.53 157.865 217.936 159.627 217.936C161.039 217.936 162.329 218.556 163.714 218.599C165.316 218.65 166.634 218.947 168.192 219.226C169.206 219.408 170.226 219.215 171.252 219.429C174.382 220.079 177.623 220.07 180.801 220.341C184.49 220.655 188.123 221.337 191.746 221.898C192.706 222.046 193.802 221.908 194.774 221.916C196.355 221.929 197.93 222.082 199.51 222.082C201.423 222.082 202.952 222.518 204.81 222.837C208.089 223.402 211.282 224.086 214.597 224.431C216.509 224.631 218.255 225.399 220.177 225.399C221.931 225.399 223.877 225.205 225.552 225.694C226.993 226.114 228.353 225.999 229.856 226.191C233.109 226.607 236.127 227.389 239.481 227.389C241.874 227.389 244.268 227.389 246.662 227.389C247.677 227.389 248.41 227.424 249.365 227.72" stroke="#645841" stroke-linecap="round"/>
<path d="M248.585 227.223C249.657 228.775 253.095 228.052 254.814 228.052C255.875 228.052 257.253 227.867 258.253 228.199C260.502 228.947 263.685 229.213 266.104 229.213" stroke="#645841" stroke-linecap="round"/>
<path d="M266.301 229.216C267.833 229.216 269.365 229.216 270.897 229.216C272.097 229.216 274.226 228.87 275.363 229.289C276.245 229.614 277.09 229.803 278.024 230.008C278.306 230.07 278.598 230.007 278.878 230.063C279.518 230.192 280.009 230.626 280.641 230.773C282.425 231.187 284.672 230.799 286.264 231.703C286.733 231.97 287.736 232.035 288.297 232.035C289.575 232.035 290.75 232.327 291.996 232.367C292.758 232.391 293.528 232.323 294.289 232.367C294.907 232.402 295.415 232.698 296.116 232.698C299.597 232.698 302.914 233.196 306.401 233.196" stroke="#645841" stroke-linecap="round"/>
<path d="M151.062 215.948C152.006 215.27 153.566 215.251 154.36 214.372C154.835 213.847 155.35 213.391 155.928 212.953C156.705 212.365 156.935 211.442 157.68 210.807" stroke="#645841" stroke-linecap="round"/>
<path d="M158.263 210.144C158.545 209.793 159.209 209.433 159.625 209.314" stroke="#645841" stroke-linecap="round"/>
<path d="M159.042 209.811C161.058 210.481 163.73 210.142 165.898 210.142C167.085 210.142 168.282 210.1 169.467 210.142C170.089 210.164 170.468 210.502 171.046 210.621C171.733 210.763 172.383 210.872 173.058 211.064C173.729 211.254 174.258 211.276 174.961 211.303C175.503 211.324 175.893 211.612 176.378 211.782C177.11 212.039 177.96 212.087 178.724 212.261C179.548 212.448 180.63 212.796 181.471 212.796C182.581 212.796 183.52 213.293 184.651 213.293C185.459 213.293 185.782 213.675 186.532 213.827C187.882 214.103 189.187 214.288 190.577 214.288C192.834 214.288 195.09 214.288 197.347 214.288C197.83 214.288 198.313 214.288 198.796 214.288C199.558 214.288 199.98 214.922 200.699 214.951C201.425 214.981 201.938 215.263 202.689 215.283C203.732 215.311 204.705 215.615 205.761 215.615C208.133 215.615 210.505 215.615 212.877 215.615C214.143 215.615 215.183 215.833 216.402 216.039C218.058 216.317 219.607 216.261 221.247 216.665C222.232 216.908 222.76 216.749 223.669 217.199C224.7 217.71 226.366 217.439 227.519 217.439C230.282 217.439 233.264 218.384 235.89 219.042C238.18 219.616 240.808 219.886 243.179 220.148C245.079 220.358 246.931 220.435 248.846 220.424C251.655 220.408 254.445 220.224 257.259 220.258C259.071 220.28 260.738 220.922 262.602 220.922C264.301 220.922 266.521 220.511 267.944 221.309C268.512 221.627 269.576 221.686 270.215 221.834C271.332 222.092 272.464 222.279 273.589 222.506C274.839 222.759 275.871 223.117 277.201 223.243" stroke="#645841" stroke-linecap="round"/>
<path d="M277.246 223.047C277.294 223.211 278.18 223.114 278.329 223.114C278.832 223.114 279.252 223.308 279.756 223.317C281.338 223.345 282.924 223.317 284.507 223.317C286.127 223.317 287.75 223.446 289.373 223.452C290.106 223.455 290.888 223.384 291.619 223.46C291.837 223.482 292.029 223.596 292.231 223.662C292.862 223.87 293.531 223.995 294.19 224.12C295.382 224.345 296.591 224.57 297.81 224.652C298.226 224.681 298.547 224.692 298.959 224.787C300.402 225.122 301.909 225.178 303.34 225.53C303.811 225.646 304.129 225.748 304.608 225.748C305.12 225.748 305.741 225.672 306.207 225.879C306.574 226.042 307.04 226.018 307.444 226.018" stroke="#645841" stroke-linecap="round"/>
<path d="M158.314 183.113C158.314 185.081 158.39 187.615 159.84 189.221C160.881 190.374 160.476 193.447 160.45 194.866C160.4 197.563 159.65 200.308 159.28 202.981C159.162 203.835 158.62 204.17 158.62 205.074C158.62 206.59 158.62 208.106 158.62 209.622" stroke="#645841" stroke-linecap="round"/>
<path d="M169.297 151.146C169.297 153.491 170.212 155.617 170.212 157.904C170.212 158.703 170.212 159.502 170.212 160.3C170.212 161.777 170.822 163.002 170.822 164.401C170.822 168.819 170.822 173.237 170.822 177.656C170.822 179.136 170.212 180.538 170.212 182.074C170.212 183.72 170.212 185.366 170.212 187.012C170.212 189.456 169.907 191.886 169.907 194.346C169.907 195.266 170.134 196.361 169.602 197.176C168.582 198.74 169.297 201.505 169.297 203.269C169.297 204.7 169.898 209.236 168.382 209.882" stroke="#645841" stroke-linecap="round"/>
<path d="M169.282 150.804C169.282 149.703 169.282 148.602 169.282 147.5C169.282 146.979 169.282 146.458 169.282 145.937C169.282 145.282 168.966 144.018 169.406 143.456C169.692 143.09 169.53 142.367 169.53 141.939C169.53 141.175 169.53 140.41 169.53 139.646C169.53 137.53 169.53 135.413 169.53 133.297C169.53 132.533 169.53 131.768 169.53 131.004C169.53 130.133 169.152 129.227 169.006 128.37C168.799 127.161 168.446 125.992 168.723 124.72C169.023 123.34 168.664 121.915 169.019 120.552C169.178 119.945 169.033 119.187 169.033 118.564C169.033 117.777 169.033 116.989 169.033 116.201" stroke="#645841" stroke-linecap="round"/>
<path d="M168.787 115.776C168.787 115.316 168.949 114.922 169.022 114.471C169.116 113.888 169.03 113.295 169.132 112.708C169.322 111.617 169.284 110.483 169.284 109.38C169.284 108.398 169.935 107.529 170.14 106.57C170.332 105.667 170.153 104.639 170.153 103.713" stroke="#645841" stroke-linecap="round"/>
<path d="M170.152 103.714C170.152 102.998 170.129 102.278 170.152 101.562C170.167 101.088 170.324 100.647 170.386 100.181C170.435 99.8155 170.356 99.5379 170.586 99.2107C171.029 98.5818 170.773 97.4621 170.773 96.7533C170.773 95.9453 170.675 95.2429 170.538 94.4546C170.349 93.3642 170.524 92.1396 170.524 91.039C170.524 89.863 170.649 88.6901 170.649 87.5234" stroke="#645841" stroke-linecap="round"/>
<path d="M160.461 87.8418C160.678 88.2236 160.72 88.5716 160.806 88.9823C160.853 89.2115 160.833 89.4502 160.833 89.6819C160.833 89.9617 161.073 90.0832 161.185 90.3227C161.448 90.8819 161.282 92.1715 161.192 92.7624C161.113 93.284 161.001 93.8335 160.895 94.3556C160.727 95.1884 159.991 95.99 160.185 96.8365C160.282 97.263 160.088 97.8647 160.088 98.318C160.088 98.7961 160.088 99.2743 160.088 99.7524C160.088 100.764 159.964 101.749 159.964 102.757C159.964 103.71 159.343 104.594 159.343 105.561C159.343 107.172 159.408 108.795 159.343 110.405C159.307 111.289 159.094 112.119 159.094 113.021C159.094 113.481 159.114 114.597 158.846 114.985C158.385 115.652 158.361 116.653 158.073 117.389C157.925 117.767 157.976 118.184 157.976 118.577C157.976 119.068 157.5 119.433 157.48 119.941C157.38 122.429 157.48 124.933 157.48 127.424C157.48 127.86 157.219 129.264 157.562 129.617C157.711 129.771 157.852 129.796 157.852 130.017C157.852 130.163 157.765 130.589 157.928 130.681C158.217 130.845 158.23 130.923 158.349 131.228" stroke="#645841" stroke-linecap="round"/>
<path d="M158.101 130.91C158.131 131.246 158.35 131.525 158.35 131.863C158.35 132.229 158.35 132.595 158.35 132.962C158.35 133.548 158.35 134.134 158.35 134.72C158.35 135.549 158.35 136.378 158.35 137.206C158.35 137.745 158.322 138.281 158.446 138.811C158.533 139.179 158.722 139.504 158.722 139.881C158.722 140.988 158.636 142.099 158.598 143.185C158.588 143.482 158.405 143.685 158.364 143.979C158.307 144.379 158.434 144.776 158.226 145.149C158.007 145.54 158.101 146.041 158.101 146.466" stroke="#645841" stroke-linecap="round"/>
<path d="M158.102 146.889C158.148 148.134 158.474 149.338 158.474 150.592C158.474 151.56 158.474 152.528 158.474 153.497C158.474 155.609 158.35 157.712 158.35 159.822C158.35 161.366 158.35 162.911 158.35 164.455C158.35 165.137 158.415 165.864 158.171 166.524C158.059 166.825 157.937 167.109 157.846 167.418C157.719 167.851 157.767 168.18 157.722 168.623C157.68 169.035 157.356 169.249 157.356 169.705C157.356 170.371 157.363 170.983 157.039 171.604C156.838 171.989 156.915 172.428 156.556 172.768C156.18 173.123 155.92 173.487 155.652 173.908C155.373 174.347 155.182 174.735 155.121 175.225C155.089 175.478 154.778 175.625 154.741 175.924C154.666 176.532 154.612 177.131 154.624 177.765C154.636 178.381 155.123 178.564 155.445 179.052C155.593 179.276 155.943 179.331 155.99 179.611C156.028 179.837 156.192 180.076 156.363 180.222" stroke="#645841" stroke-linecap="round"/>
<path d="M153.754 181.069C154.698 181.069 155.726 181.157 156.666 181.063C157.117 181.017 157.458 180.864 157.86 180.71C158.509 180.461 159.607 180.539 160.31 180.539C161.361 180.539 162.323 180.011 163.194 179.587C163.683 179.349 164.042 179.062 164.588 178.929C164.981 178.833 165.447 178.65 165.747 178.411C166.183 178.065 166.725 177.87 167.162 177.535C167.3 177.43 167.524 177.477 167.693 177.471C167.804 177.466 168.339 177.251 168.384 177.283C168.89 177.642 168.817 179.322 168.356 179.669C167.555 180.271 166.983 181.189 165.879 181.486C165.46 181.599 164.928 181.961 164.588 182.209C164.167 182.517 163.481 182.384 163.008 182.756C162.824 182.9 162.26 182.944 162 182.967C161.439 183.018 160.908 183.203 160.31 183.267C159.359 183.37 158.606 183.661 157.701 183.72C156.793 183.779 155.658 183.646 154.796 183.837C154.494 183.905 154.312 184.128 154.03 184.22C153.821 184.287 153.592 184.208 153.381 184.29C152.885 184.483 152.332 184.528 151.794 184.666C150.828 184.916 149.71 184.523 148.882 185.031C147.558 185.843 146.034 186.776 144.369 187.147C143.762 187.283 143.194 187.293 142.575 187.312C142.248 187.322 142.089 187.529 141.83 187.676C141.125 188.076 140.349 187.978 139.601 188.229C138.855 188.479 138.084 188.72 137.337 188.97C136.904 189.115 136.529 189.288 136.061 189.346C135.592 189.404 135.03 189.359 134.625 189.593C134.039 189.932 133.135 190.389 133.135 191.016" stroke="#645841" stroke-linecap="round"/>
<path d="M131.523 188.265C132.412 188.265 133.267 188.082 134.132 187.924C134.498 187.857 135.508 187.846 135.788 187.583C136.208 187.189 136.833 186.969 137.43 186.784C138.043 186.594 138.408 186.277 138.935 185.96C140.085 185.271 141.44 184.738 142.703 184.22C143.26 183.992 143.691 183.821 144.29 183.821C144.715 183.821 144.94 183.808 145.283 183.574C145.806 183.217 146.7 183.114 147.236 182.762C147.503 182.588 147.912 182.653 148.23 182.545C148.463 182.465 148.756 182.237 148.989 182.116C149.87 181.659 150.294 181.451 150.728 180.628C151.126 179.876 151.763 179.312 152.205 178.588C152.43 178.22 152.787 178.006 153.061 177.677C153.482 177.17 153.862 176.621 154.254 176.096" stroke="#645841" stroke-linecap="round"/>
<path d="M19.2031 211.7C21.316 211.7 23.4288 211.7 25.5417 211.7C27.7492 211.7 29.0067 210.949 31.1007 210.516C34.149 209.885 37.443 210.577 40.5238 209.794C43.8088 208.96 46.9933 208.028 50.3197 207.513C51.9584 207.259 53.0896 207.022 54.8449 207.022C56.9346 207.022 58.6894 206.675 60.6919 206.127C63.8887 205.251 67.3658 205.117 70.5896 204.308C71.853 203.99 72.6171 203.643 73.9453 203.643C74.965 203.643 76.1093 202.642 77.0129 202.214C78.217 201.644 79.3994 200.751 80.6567 200.323C82.1617 199.81 84.0099 199.501 85.5717 199.124C87.0278 198.772 89.1323 199.123 90.4527 198.59C91.7183 198.079 92.0764 197.717 93.622 197.651C99.0252 197.421 104.235 196.175 109.435 194.951C110.66 194.663 112.05 193.701 113.146 193.118C113.993 192.667 114.934 192.496 115.671 191.89C116.739 191.014 118.357 190.638 119.264 189.768C119.779 189.275 120.899 189.248 121.502 188.772C121.913 188.446 122.305 188.118 122.739 187.79C123.597 187.14 124.71 186.902 125.366 185.971" stroke="#645841" stroke-linecap="round"/>
<path d="M124.69 186.677C124.66 186.115 124.58 185.662 124.248 185.184C123.922 184.713 123.455 184.418 123.172 183.926C122.975 183.584 122.578 183.069 122.578 182.68C122.578 182.279 123.644 182.195 123.944 182.127" stroke="#645841" stroke-linecap="round"/>
<path d="M126.181 181.703C126.561 181.744 126.429 182.272 126.512 182.526C126.69 183.07 126.672 183.568 127.174 183.925" stroke="#645841" stroke-linecap="round"/>
<path d="M123.697 181.915C123.862 182.363 124.633 182.042 124.953 181.939C125.364 181.805 126.069 181.981 126.182 181.598" stroke="#645841" stroke-linecap="round"/>
<path d="M127.423 184.562C127.504 185.218 128.098 186.541 128.52 185.161C128.667 184.682 128.923 184.336 128.851 183.821C128.829 183.659 128.617 182.801 128.706 182.786C129.405 182.667 130.217 182.763 130.928 182.763C131.549 182.763 131.549 182.727 131.895 183.08C132.192 183.385 132.009 184.055 131.895 184.397C131.756 184.809 131.77 185.194 131.77 185.62" stroke="#645841" stroke-linecap="round"/>
<path d="M133.635 185.091C134.031 184.99 134.175 184.466 134.649 184.344C135.031 184.247 135.211 184.066 135.519 183.874C136.03 183.556 136.635 183.404 137.237 183.269C138.071 183.081 138.885 182.841 139.735 182.704C140.659 182.556 141.373 182.109 142.185 181.711C143.224 181.201 144.555 180.908 145.187 180.012" stroke="#645841" stroke-linecap="round"/>
<path d="M128.044 186.254C128.855 187.462 129.511 190.528 127.92 191.545" stroke="#645841" stroke-linecap="round"/>
<path d="M131.398 190.486C131.261 191.534 130.652 192.489 130.652 193.555" stroke="#645841" stroke-linecap="round"/>
<path d="M131.646 186.041C131.879 186.762 132.018 187.455 132.018 188.199C132.018 188.908 131.584 189.53 131.418 190.215C131.023 191.841 130.9 193.383 130.9 195.047C130.9 196.368 130.9 197.689 130.9 199.01C130.9 199.927 130.881 200.845 130.9 201.761C130.943 203.699 131.646 205.598 131.646 207.522" stroke="#645841" stroke-linecap="round"/>
<path d="M131.398 209.533C131.398 211.158 131.457 212.731 131.149 214.336C130.82 216.056 130.155 217.615 130.155 219.374C130.155 221.056 129.942 222.843 130.397 224.489C130.738 225.724 131.122 226.95 131.48 228.181C131.72 229.003 132.253 229.737 132.364 230.591C132.426 231.071 132.337 231.56 132.405 232.038C132.569 233.192 132.706 234.283 132.612 235.459C132.474 237.193 132.515 238.931 132.515 240.668C132.515 241.497 132.505 242.322 132.578 243.149C132.626 243.702 132.486 244.343 132.888 244.771" stroke="#645841" stroke-linecap="round"/>
<path d="M127.299 193.662C127.376 195.175 127.547 196.664 127.547 198.183C127.547 199.778 127.79 201.547 127.437 203.127C127.119 204.546 126.463 205.859 126.291 207.301C126.104 208.876 125.932 210.398 125.932 211.981C125.932 214.258 125.622 216.788 126.25 219.024C126.576 220.183 126.802 221.31 126.802 222.504C126.802 223.246 126.816 223.862 127.119 224.573C127.55 225.583 127.547 226.632 127.547 227.701C127.547 228.77 127.411 229.924 127.575 230.987C127.74 232.062 128.267 233.101 128.52 234.144C128.683 234.813 128.541 235.615 128.541 236.296C128.541 237.435 128.609 238.592 128.527 239.729C128.4 241.493 127.299 243.089 127.299 244.879" stroke="#645841" stroke-linecap="round"/>
<path d="M126.362 246.939C126.911 246.939 127.151 247.108 127.641 247.278C128.476 247.569 129.703 247.194 130.561 247.072" stroke="#645841" stroke-linecap="round"/>
<path d="M20.9795 217.668C22.1553 217.648 22.8906 217.433 23.9579 217.092C24.6938 216.857 25.4826 216.885 26.2323 216.699C26.7882 216.562 27.2687 216.247 27.8569 216.215C28.8061 216.163 29.5099 215.649 30.348 215.592C31.1792 215.536 32.032 215.608 32.8661 215.592C33.9842 215.571 36.1924 215.578 37.063 215.062C37.6192 214.732 39.0433 214.969 39.6894 214.969C41.0071 214.969 42.3248 214.969 43.6425 214.969" stroke="#645841" stroke-linecap="round"/>
<path d="M0.75293 217.876C6.28155 217.876 11.8017 217.668 17.3238 217.668" stroke="#645841" stroke-linecap="round"/>
<path d="M53.1465 212.686C54.4633 212.686 56.1926 212.698 57.384 212.247C58.2157 211.932 58.7372 211.93 59.7667 211.821C61.6749 211.617 63.3693 210.477 65.2768 210.402C68.0883 210.291 70.7643 209.27 73.4945 208.753C74.924 208.482 75.9155 208.442 77.2175 207.795C79.0166 206.901 81.5729 206.923 83.5805 206.365C86.6163 205.522 89.8425 205.206 93.0031 205.004C94.2304 204.926 95.6492 203.14 96.5772 202.548C98.9621 201.024 101.629 199.399 104.754 199.399C105.768 199.399 106.15 199.151 107.002 198.938C107.905 198.711 108.884 198.547 109.804 198.372C111.104 198.126 112.112 197.463 113.338 197.115" stroke="#645841" stroke-linecap="round"/>
<path d="M116.02 195.456C118.553 195.379 120.091 193.826 122.193 192.895C123.522 192.307 125.658 191.536 126.254 190.266" stroke="#645841" stroke-linecap="round"/>
<path d="M138.727 147.417C140.797 147.417 142.867 147.417 144.937 147.417C145.85 147.417 146.715 147.205 147.615 147.205C149.082 147.205 150.55 147.205 152.017 147.205" stroke="#645841" stroke-linecap="round"/>
<path d="M139.596 148.793C139.596 149.424 139.507 150.1 139.734 150.709C140.058 151.577 140.583 152.359 140.977 153.202C141.649 154.642 141.828 156.133 142.826 157.47C143.524 158.406 143.777 159.698 144.123 160.774C144.513 161.985 144.513 163.249 145 164.466C145.195 164.955 145.299 165.523 145.31 166.042C145.323 166.631 145.569 167.105 145.662 167.676C145.834 168.722 145.683 169.867 145.683 170.927C145.683 171.991 146.332 172.985 146.573 174.013C146.716 174.624 146.887 175.269 147.118 175.859C147.224 176.129 147.124 176.401 147.298 176.624" stroke="#645841" stroke-linecap="round"/>
<path d="M134.875 148.053C135.416 148.641 135.38 149.478 135.634 150.169C135.919 150.943 136.227 151.733 136.545 152.497C136.795 153.098 137.096 153.781 137.214 154.408C137.352 155.133 137.235 155.914 137.442 156.624C137.664 157.388 138.088 158.124 138.353 158.882C138.665 159.776 138.857 160.706 139.105 161.615C139.575 163.337 139.691 165.081 140.037 166.818C140.148 167.378 140.455 167.926 140.651 168.47C141.053 169.589 141.026 170.806 141.527 171.886C141.747 172.36 141.707 172.855 141.707 173.355C141.707 173.747 141.881 173.984 141.941 174.355C142.104 175.358 142.678 176.755 143.349 177.612C143.756 178.131 144.016 178.635 144.308 179.211C144.482 179.554 144.438 179.957 144.812 180.116" stroke="#645841" stroke-linecap="round"/>
<path d="M99.8486 146.465C100.618 147.635 101.753 148.598 102.526 149.769C102.839 150.242 103.079 150.761 103.354 151.25C103.717 151.895 104.282 152.426 104.624 153.079C104.956 153.711 105.137 154.371 105.397 155.025C105.762 155.944 106.664 156.737 107.274 157.552C107.712 158.139 108.034 158.74 108.392 159.363C108.825 160.118 109.516 160.727 109.958 161.48C110.792 162.901 111.043 164.533 111.456 166.077C111.746 167.164 112.295 168.19 112.622 169.257C112.702 169.519 112.882 169.497 112.994 169.704C113.191 170.067 112.868 170.127 113.388 170.274" stroke="#645841" stroke-linecap="round"/>
<path d="M113.386 170.38C113.861 169.681 114.561 169.085 114.69 168.252C114.851 167.21 115.469 166.264 115.38 165.207C115.344 164.777 115.808 164.107 116.084 163.749C116.72 162.924 117.243 161.907 117.968 161.15C119.397 159.659 120.653 158.32 121.736 156.623C121.946 156.294 122.303 156.201 122.577 155.941C123.046 155.499 123.151 154.785 123.544 154.284C123.855 153.886 124.225 153.404 124.703 153.143C125.117 152.917 125.506 152.711 125.807 152.391" stroke="#645841" stroke-linecap="round"/>
<path d="M127.175 151.015C127.538 150.851 127.797 150.599 128.044 150.321C128.506 149.803 129.055 149.361 129.576 148.887C130.444 148.098 131.254 147.223 132.143 146.465" stroke="#645841" stroke-linecap="round"/>
<path d="M133.383 149.428C133.383 150.138 133.145 150.427 132.666 151.003C131.986 151.82 131.29 152.625 130.623 153.449C129.478 154.863 128.459 156.313 127.863 157.964C127.565 158.788 127.279 159.643 126.869 160.433C126.662 160.832 126.151 161.239 125.834 161.597C124.785 162.782 123.735 164.192 122.881 165.477C122.22 166.471 121.576 167.452 120.81 168.393C120.032 169.35 119.051 170.193 118.409 171.227C117.993 171.896 117.763 172.405 117.553 173.108C117.444 173.474 117.385 173.957 117.181 174.295C116.707 175.08 115.906 175.765 115.524 176.6C115.253 177.193 114.803 177.718 114.475 178.293C114.175 178.821 113.758 178.952 113.758 179.586" stroke="#645841" stroke-linecap="round"/>
<path d="M113.263 181.492C112.849 181.865 112.669 182.762 112.517 183.268C112.307 183.969 112.247 184.722 111.993 185.408C111.536 186.641 111.524 188.037 111.524 189.323C111.524 189.813 111.588 190.337 111.448 190.816C111.292 191.346 110.948 191.782 110.737 192.286C110.559 192.711 110.728 193.13 110.468 193.544C110.265 193.866 110.21 194.148 110.157 194.508" stroke="#645841" stroke-linecap="round"/>
<path d="M109.163 174.826C109.851 175.314 109.536 176.838 109.536 177.566C109.536 178.377 109.36 179.272 109.08 180.047C108.579 181.433 107.954 182.794 107.472 184.162C107.2 184.934 106.93 185.7 106.665 186.472C106.395 187.26 106.244 188.094 105.92 188.865C105.364 190.187 104.625 191.449 103.877 192.698C103.556 193.235 102.962 193.876 102.78 194.479C102.54 195.273 102.704 196.234 102.704 197.048" stroke="#645841" stroke-linecap="round"/>
<path d="M88.4199 183.926C89.555 184.951 90.7208 186.006 91.6287 187.189C92.036 187.719 92.3815 188.564 92.9675 188.958C93.4059 189.253 93.615 189.7 94.0371 190.016C95.0126 190.747 96.2254 191.347 97.3494 191.898C98.8463 192.631 99.0199 194.508 100.469 195.249" stroke="#645841" stroke-linecap="round"/>
<path d="M64.0732 179.586C64.9335 179.579 65.8031 179.625 66.6058 179.327C67.0112 179.177 67.3438 179.186 67.772 179.162C68.0511 179.147 68.0832 178.943 68.3103 178.857C68.514 178.78 68.7487 178.789 68.9451 178.692C69.5186 178.408 70.1772 178.282 70.8359 178.269C71.8583 178.248 72.7673 177.893 73.817 177.893C74.9907 177.893 75.7655 177.877 76.8257 178.439C77.882 179 78.8016 179.718 79.8552 180.279C80.3518 180.544 80.6779 180.928 81.0352 181.314C81.4345 181.746 81.9529 182.041 82.4705 182.361C83.0644 182.728 83.3914 183.34 83.7678 183.889C84.3049 184.672 84.8045 185.458 85.4654 186.182C86.1756 186.96 86.9287 187.767 87.6874 188.51C88.1696 188.982 88.5493 189.46 88.9158 189.997C89.0835 190.243 89.2153 190.626 89.4747 190.803C89.9615 191.134 90.3328 191.8 90.5512 192.284C90.7014 192.617 91.0761 192.88 91.331 193.154C91.7042 193.556 91.8047 193.938 91.9038 194.43C92.1055 195.432 93.2517 196.074 93.7601 196.94" stroke="#645841" stroke-linecap="round"/>
<path d="M88.1709 182.127C88.2228 182.614 88.816 181.423 88.9852 181.228C89.3911 180.76 89.9225 180.542 90.2825 180.017C91.0038 178.963 92.1319 178.224 93.1394 177.365" stroke="#645841" stroke-linecap="round"/>
<path d="M94.3828 176.625C94.4711 176.869 95.8274 175.929 96.0597 175.837C96.8377 175.53 97.2103 174.971 97.8539 174.514C98.2986 174.198 98.8422 174.014 99.3237 173.744C99.6464 173.563 99.8374 173.269 100.173 173.091C100.516 172.91 100.735 172.85 100.966 172.604" stroke="#645841" stroke-linecap="round"/>
<path d="M103.079 170.486C103.946 169.341 105.054 168.254 105.688 166.994" stroke="#645841" stroke-linecap="round"/>
<path d="M106.432 168.475C107.026 169.613 107.638 170.632 108.046 171.808C108.218 172.3 108.476 172.837 108.695 173.319C108.912 173.796 109.108 174.18 109.413 174.612" stroke="#645841" stroke-linecap="round"/>
<path d="M96.4941 147.947C96.5335 148.249 96.7568 148.404 96.8599 148.676C97.0498 149.178 97.1548 149.649 97.4257 150.128C97.857 150.891 98.1763 151.697 98.6334 152.45C99.208 153.398 99.6501 154.322 100.152 155.302C100.506 155.995 100.509 156.949 101.118 157.495C101.736 158.049 101.917 158.512 102.153 159.229C102.4 159.981 102.874 160.663 103.133 161.398C103.462 162.333 103.681 163.366 104.195 164.244" stroke="#645841" stroke-linecap="round"/>
<path d="M90.6562 175.99C91.9852 175.707 93.2263 175.016 94.3757 174.415C95.3819 173.888 96.3992 173.346 97.2947 172.686C97.9586 172.197 98.5284 171.597 99.3511 171.334" stroke="#645841" stroke-linecap="round"/>
<path d="M100.966 169.852C102.189 169.107 102.319 168.016 102.76 166.889C102.914 166.496 102.907 165.986 103.133 165.631C103.421 165.177 103.632 165.127 103.698 164.561" stroke="#645841" stroke-linecap="round"/>
<path d="M88.1709 146.148C88.2814 147.608 88.9106 149.019 89.2888 150.428C89.5302 151.328 89.6986 152.269 90.041 153.144C90.3777 154.005 90.7202 154.913 90.7725 155.825C90.8202 156.658 90.8387 157.541 90.7587 158.371C90.6859 159.125 90.2825 159.802 90.2825 160.563C90.2825 161.602 90.3792 162.685 90.2687 163.72C90.2194 164.183 89.9946 164.616 89.9375 165.078C89.8476 165.806 89.9099 166.557 89.9099 167.289C89.9099 168.257 89.9099 169.225 89.9099 170.193C89.9099 170.924 89.8781 171.661 89.9099 172.392C89.9236 172.707 90.1265 173.076 90.2135 173.391C90.3361 173.835 90.415 174.276 90.5309 174.72" stroke="#645841" stroke-linecap="round"/>
<path d="M85.3145 147.205C86.8578 148.703 85.9095 150.375 86.4945 152.102C86.8494 153.15 86.6808 154.356 86.6808 155.436C86.6808 156.417 86.6266 157.205 86.3841 158.146C85.992 159.667 86.0597 161.164 86.0597 162.719C86.0597 164.297 86.0597 165.874 86.0597 167.452C86.0597 169.628 86.3082 171.825 86.3082 174.001C86.3082 174.663 86.3082 175.326 86.3082 175.988C86.3082 177.216 85.8113 178.337 85.8113 179.586" stroke="#645841" stroke-linecap="round"/>
<path d="M69.168 146.678C69.168 147.85 69.168 149.021 69.168 150.193C69.168 150.666 69.168 151.138 69.168 151.61C69.168 152.118 69.4164 152.495 69.4164 152.974C69.4164 154.027 70.0334 154.627 70.6999 155.531C72.1897 157.552 73.576 159.818 74.3849 162.116C74.6052 162.741 75.1469 163.244 75.4062 163.856C75.5911 164.292 75.6089 164.745 75.8962 165.149C76.2144 165.598 76.4952 166.021 76.7449 166.501C77.1485 167.277 77.5714 167.801 78.27 168.424C78.8323 168.925 78.9125 169.677 79.2706 170.287C79.3819 170.477 79.5472 170.624 79.6708 170.805C79.9149 171.162 79.845 171.59 80.1125 171.951C80.4606 172.421 81.1258 172.879 81.327 173.415C81.4534 173.751 81.3157 174.297 81.5202 174.591C81.7269 174.888 81.8583 175.226 81.9619 175.578C82.1564 176.241 82.6104 176.733 83.1074 177.26C83.5166 177.694 83.6661 178.364 84.1977 178.635" stroke="#645841" stroke-linecap="round"/>
<path d="M61.7158 177.894C62.5435 177.793 63.2521 177.334 64.1173 177.235C64.6014 177.18 65.0676 176.979 65.5388 176.942C66.6336 176.854 67.9635 176.207 68.8649 175.678C69.487 175.312 70.4203 175.214 71.1422 175.049C71.9892 174.854 72.8958 174.931 73.7644 174.931C74.9683 174.931 76.0693 175.248 77.2424 175.248" stroke="#645841" stroke-linecap="round"/>
<path d="M66.1864 146.465C66.1864 147.556 66.1864 148.648 66.1864 149.739C66.1864 150.396 66.1864 151.052 66.1864 151.709C66.1864 152.205 66.1032 152.76 66.1864 153.249C66.5604 155.446 68.0653 157.666 69.0709 159.681C69.7307 161.002 70.3269 162.092 71.3343 163.214C71.6143 163.526 71.9817 163.794 72.19 164.149C72.3671 164.45 72.4051 164.771 72.6662 165.036C73.2245 165.603 73.5958 166.13 73.8186 166.853C73.933 167.224 74.084 167.479 74.3844 167.735" stroke="#645841" stroke-linecap="round"/>
<path d="M74.7568 168.16C75.45 168.816 75.5772 169.434 75.7574 170.253C75.9453 171.107 76.3431 171.999 76.6269 172.846C76.7389 173.179 77.0679 173.52 77.1169 173.874C77.2129 174.57 77.6538 174.984 78.1106 175.568" stroke="#645841" stroke-linecap="round"/>
<path d="M51.6846 146.461C54.2429 146.461 56.9255 147.39 59.2795 147.891C60.2058 148.088 61.0978 147.415 62.0684 147.522C63.3016 147.658 65.2411 148.432 66.0622 147.499" stroke="#645841" stroke-linecap="round"/>
<path d="M53.6348 140.648C55.357 141.608 57.0313 142.517 59.1448 142.517C60.5959 142.517 62.0351 142.452 63.4635 142.678C66.12 143.099 68.8889 142.517 71.5324 142.517C71.9378 142.517 72.3729 142.572 72.7508 142.424C73.8982 141.978 74.811 142.164 76.0677 142.309C77.5712 142.482 79.6171 142.796 81.1445 142.424C83.3283 141.893 85.6172 142.228 87.846 141.882C89.7866 141.582 91.3742 141.271 93.4373 141.271C94.4551 141.271 95.1064 140.827 96.0637 140.683C98.1596 140.368 100.737 140.584 102.833 140.741C105.016 140.903 107.127 141.063 109.318 141.063C112.087 141.063 114.774 141.168 117.535 141.386C121.469 141.698 125.308 141.447 129.232 141.975C132.995 142.481 136.876 141.894 140.632 141.894C143.565 141.894 146.498 141.894 149.432 141.894C151.82 141.894 154.151 142.827 155.984 143.347" stroke="#645841" stroke-linecap="round"/>
<path d="M101.153 145.838C103.592 145.838 105.941 146.307 108.41 146.253C109.538 146.228 110.54 145.838 111.686 145.838C112.867 145.838 114.06 145.797 115.233 145.93C120.075 146.478 124.757 147.291 129.665 147.291" stroke="#645841" stroke-linecap="round"/>
<path d="M64.1143 147.498C65.8237 147.206 67.434 146.767 69.1505 146.621C71.2909 146.439 73.4184 146.46 75.5676 146.46C78.8515 146.46 82.974 145.813 85.9921 146.944C86.5651 147.159 89.1369 146.676 89.7557 146.367C92.0598 145.217 95.1812 145.68 97.7433 145.26C98.8897 145.072 99.732 144.799 100.911 144.799C102.231 144.799 103.511 145.03 104.81 145.214" stroke="#645841" stroke-linecap="round"/>
<path d="M132.103 146.877C135.929 146.877 139.717 147.085 143.556 147.085" stroke="#645841" stroke-linecap="round"/>
<path d="M58.0204 96.0137C57.9572 98.3037 56.9231 100.235 56.5583 102.472C56.0942 105.319 56.1446 108.25 55.57 111.065C55.2271 112.745 55.0962 114.328 55.0962 116.036C55.0962 117.213 55.4061 118.71 54.69 119.784C53.7736 121.16 52.9936 122.51 52.199 123.948C51.4573 125.291 50.4033 126.456 49.7892 127.858C48.7965 130.123 48.0226 132.778 47.8397 135.205C47.6385 137.873 49.2476 140.204 49.2476 142.771C49.2476 147.738 49.2476 152.705 49.2476 157.672" stroke="#645841" stroke-linecap="round"/>
<path d="M43.6411 96.6348C43.6411 99.1263 43.0992 101.464 42.8288 103.936C42.5008 106.933 42.6664 109.992 42.6664 113.001C42.6664 114.232 42.7218 115.474 42.6393 116.703C42.4285 119.846 40.8987 123.059 40.0941 126.115C39.5823 128.058 39.1533 130.002 38.5507 131.928C38.3516 132.564 38.0572 133.127 38.0363 133.796C37.9781 135.654 38.0363 137.52 38.0363 139.378C38.0363 141.374 39.0714 143.619 38.6184 145.549C38.4416 146.302 38.0804 146.987 37.8197 147.717C37.3472 149.04 37.5489 150.543 37.5489 151.904C37.5489 154.177 36.7256 157.76 38.28 159.747" stroke="#645841" stroke-linecap="round"/>
<path d="M91.6496 99.543C91.6496 102.311 91.6496 105.079 91.6496 107.847C91.6496 112.306 90.6748 116.656 90.6748 121.134" stroke="#645841" stroke-linecap="round"/>
<path d="M91.6484 99.5411C95.2272 99.5411 98.7492 99.1259 102.303 99.1259C104.481 99.1259 107.519 99.6269 109.519 98.7568C110.443 98.3551 111.047 98.0879 112.118 98.0879" stroke="#645841" stroke-linecap="round"/>
<path d="M112.851 99.334C114.761 102.679 113.629 106.825 113.582 110.429C113.541 113.512 113.582 116.597 113.582 119.679" stroke="#645841" stroke-linecap="round"/>
<path d="M88.4805 120.926H111.144" stroke="#645841" stroke-linecap="round"/>
<path d="M193.025 96.2188C193.025 97.9296 193.025 99.6404 193.025 101.351C193.025 103.555 193.564 106.28 192.659 108.387C191.761 110.479 192.294 113.235 192.294 115.434C192.294 116.379 192.421 117.152 192.727 118.063C193.103 119.185 193.24 119.382 193.512 118.225" stroke="#645841" stroke-linecap="round"/>
<path d="M192.293 96.0123C193.774 96.4006 196.315 96.285 197.762 95.8739C198.856 95.5632 200.168 95.5216 201.174 95.0781C202.039 94.6969 202.784 94.8818 203.692 94.7206C205.429 94.4123 206.954 93.8434 208.783 93.7517C210.104 93.6855 211.439 93.7287 212.763 93.7287C214.225 93.7287 215.687 93.7287 217.149 93.7287" stroke="#645841" stroke-linecap="round"/>
<path d="M219.342 97.2578C219.342 101.876 219.205 106.147 221.372 110.429C222.162 111.99 221.58 114.976 221.047 116.565" stroke="#645841" stroke-linecap="round"/>
<path d="M215.443 119.057C212.81 120.112 208.824 119.472 205.993 119.472C202.157 119.472 198.321 119.472 194.485 119.472" stroke="#645841" stroke-linecap="round"/>
<path d="M96.0391 98.1747C96.7206 98.1747 97.1558 97.9097 97.8273 97.9097C99.1058 97.9097 100.384 97.9097 101.663 97.9097C104.145 97.9097 106.57 97.5104 109.049 97.4093C110.733 97.3406 112.184 97.4877 113.766 96.9824" stroke="#645841" stroke-linecap="round"/>
<path d="M116.254 98.3086C116.254 99.1512 116.477 99.9582 116.547 100.796C116.678 102.348 116.565 103.938 116.565 105.492C116.565 106.649 116.565 107.807 116.565 108.965C116.565 109.953 116.268 110.917 116.176 111.902C115.963 114.184 116.044 116.501 115.934 118.79C115.886 119.804 115.428 120.744 115.252 121.741C115.093 122.636 115.01 123.503 115.01 124.406" stroke="#645841" stroke-linecap="round"/>
<path d="M111.588 124.935C110.16 124.792 108.845 124.066 107.442 124.015C104.95 123.924 102.437 124.007 99.9434 124.007C98.6128 124.007 97.5137 124.453 96.2201 124.662C93.9805 125.026 91.7876 125.332 89.5078 125.332" stroke="#645841" stroke-linecap="round"/>
<path d="M91.9962 97.2485C91.2488 97.2485 90.0428 97.1992 89.3873 97.5429C89.1987 97.6418 89.0125 97.7569 88.8171 97.852C88.0803 98.2107 88.2572 99.0785 88.0914 99.714C87.6852 101.271 87.0887 102.775 86.8993 104.373C86.7159 105.919 86.6107 107.856 87.0289 109.37C87.5203 111.149 88.1875 113.456 87.3658 115.235C86.8227 116.411 86.7093 117.794 86.7093 119.048C86.7093 119.749 86.6024 120.501 86.8734 121.174C87.0745 121.674 87.1757 122.156 87.1757 122.683" stroke="#645841" stroke-linecap="round"/>
<path d="M196.193 93.5201C194.554 93.5201 192.859 93.4105 191.224 93.5316C190.131 93.6125 190.088 94.1608 189.911 94.9733C189.369 97.4669 188.315 99.9349 187.677 102.436C186.808 105.844 186.798 109.317 186.472 112.781C186.31 114.51 185.985 117.983 187.664 119.055" stroke="#645841" stroke-linecap="round"/>
<path d="M188.637 122.17C189.889 122.17 190.85 121.548 192.062 121.548C193.435 121.548 194.618 121.596 195.974 121.859C199.05 122.454 202.656 122.538 205.817 122.274C207.398 122.142 208.589 122.122 210.081 121.686C211.601 121.242 213.673 121.548 215.253 121.548C216.113 121.548 217.089 121.662 217.934 121.513C218.414 121.428 218.702 121.006 219.152 120.832C220.222 120.42 221.052 120.507 222.022 119.887" stroke="#645841" stroke-linecap="round"/>
<path d="M224.46 95.1816C223.691 96.8701 223.242 98.1546 223.242 99.9681C223.242 101.018 223.242 102.067 223.242 103.117C223.242 105.513 222.998 107.87 222.998 110.268C222.998 111.966 223.242 113.649 223.242 115.319C223.242 117.041 222.971 118.895 223.729 120.509" stroke="#645841" stroke-linecap="round"/>
<path d="M198.63 93.3132C199.802 93.2224 201.163 92.7214 202.339 92.4828C204.678 92.0084 206.965 91.8599 209.352 91.8599C211.889 91.8599 214.377 91.6523 216.907 91.6523" stroke="#645841" stroke-linecap="round"/>
<path d="M18.0859 95.3716C20.5001 96.2376 23.8911 95.6969 26.4877 95.6969C28.5508 95.6969 31.7816 96.2097 33.5316 95.2451C34.5608 94.6777 38.2182 95.3716 39.4723 95.3716C41.7495 95.3716 44.0268 95.3716 46.304 95.3716C48.2654 95.3716 50.3282 94.8459 52.2871 94.5582C54.6017 94.2182 56.9848 94.6339 59.2886 94.2509C60.4757 94.0536 61.3653 93.7448 62.5984 93.7448C65.4151 93.7448 68.9071 93.6525 71.5943 93.0941C72.7699 92.8499 74.1763 92.9168 75.2859 92.5157C77.4329 91.7398 78.4127 90.4913 80.9932 90.4913C83.1529 90.4913 85.2455 90.166 87.3794 90.166C93.115 90.166 98.8505 90.166 104.586 90.166C112.23 90.166 119.679 88.7523 127.415 88.5754C131.654 88.4785 135.904 88.5392 140.145 88.5392C142.316 88.5392 145.108 88.9459 147.062 88.0331C149.969 86.6749 153.178 87.7897 156.164 86.9125C158.917 86.1037 162.375 86.5871 165.266 86.5871C166.553 86.5871 167.84 86.5871 169.127 86.5871C170.967 86.5871 172.594 85.9957 174.368 85.9364C177.701 85.8251 181.048 86.0397 184.382 85.9364C186.231 85.8792 187.919 85.2857 189.792 85.2857C192.133 85.2857 194.474 85.2857 196.815 85.2857C200.535 85.2857 204.255 85.2857 207.975 85.2857C210.648 85.2857 213.321 85.2857 215.995 85.2857C217.501 85.2857 219.007 85.2857 220.514 85.2857C222.089 85.2857 223.523 84.663 225.118 84.635C231.451 84.5238 237.62 84.8919 243.831 83.912C245.543 83.6419 247.567 83.1209 249.135 82.466C252.041 81.2523 255.389 81.7069 258.598 81.7069C260.564 81.7069 262.53 81.7069 264.496 81.7069C265.811 81.7069 267.127 81.7069 268.442 81.7069C270.19 81.7069 271.423 80.9454 273.067 80.5862C275.94 79.9587 278.509 79.2902 281.045 78.0196C283.26 76.9092 286.753 77.4774 289.234 77.4774C290.677 77.4774 292.12 77.4774 293.563 77.4774C296.202 77.4774 298.66 78.4198 301.37 78.4534C308.142 78.5374 314.922 78.4534 321.696 78.4534" stroke="#645841" stroke-linecap="round"/>
<path d="M320.169 72.922C319.958 72.1572 319.787 71.4298 319.787 70.6445" stroke="#645841" stroke-linecap="round"/>
<path d="M322.842 78.7791C322.842 77.2469 322.078 76.0561 322.078 74.5495C322.078 73.3566 322.078 72.1637 322.078 70.9707" stroke="#645841" stroke-linecap="round"/>
<path d="M320.933 69.0195C318.578 69.3842 316.672 69.6702 314.165 69.6702C312.144 69.6702 310.214 69.6804 308.245 70.1402C305.532 70.7741 302.886 70.6463 300.077 70.6463C296.011 70.6463 291.98 70.9716 287.92 70.9716C286.329 70.9716 284.737 70.9716 283.146 70.9716C281.818 70.9716 281.707 71.6474 280.6 71.8935C277.918 72.4896 275.034 72.8849 272.262 73.1768C268.606 73.5617 265.481 75.2012 261.696 75.2012C257.17 75.2012 252.644 75.188 248.118 75.2012C240.276 75.2241 232.455 75.5265 224.61 75.5265C222.068 75.5265 219.607 75.6991 217.078 75.8338C214.279 75.9828 212.016 76.6985 209.334 77.2979C205.873 78.0713 202.775 78.8922 199.128 78.7981C195.133 78.6949 191.36 79.7561 187.353 79.7561C181.653 79.7561 175.953 79.7561 170.253 79.7561C164.213 79.7561 158.173 79.7561 152.134 79.7561C147.081 79.7561 142.401 79.5514 137.537 80.5875C134.673 81.1975 131.084 80.7321 128.138 80.7321C125.204 80.7321 122.411 81.3099 119.502 81.6359C116.229 82.0028 113.057 82.6261 109.976 83.6422C108.748 84.0473 107.418 84.3935 106.136 84.6363C103.675 85.1023 100.714 84.7779 98.3707 85.5039C96.8681 85.9694 95.8584 86.2631 94.2122 86.2631C91.4438 86.2631 88.9683 86.9417 86.256 87.1849C82.123 87.5555 77.8303 87.1829 73.6745 87.2391C69.3192 87.298 65.2933 88.5405 60.8809 88.5405C58.0242 88.5405 55.1437 88.6259 52.2882 88.5405C50.8658 88.498 49.5507 88.0095 48.1297 87.926C45.6282 87.779 43.084 87.8898 40.5766 87.8898C37.8467 87.8898 35.1168 87.8898 32.387 87.8898C27.4757 87.8898 22.6368 88.5405 17.7051 88.5405" stroke="#645841" stroke-linecap="round"/>
<path d="M16.5607 92.7695C16.3888 94.2347 15.415 95.1265 15.415 96.6737" stroke="#645841" stroke-linecap="round"/>
<path d="M318.451 80.748C318.451 94.2588 318.929 107.752 318.929 121.296C318.929 126.734 318.929 132.173 318.929 137.611C318.929 139.638 319.738 140.811 320.523 142.634C320.874 143.451 320.622 144.265 321.32 144.919C322.025 145.581 321.749 146.556 322.09 147.363C322.607 148.586 323.647 149.274 324.454 150.305C325.345 151.443 325.266 153.016 325.888 154.242C326.656 155.755 326.579 158.101 326.579 159.763C326.579 162.78 326.579 165.797 326.579 168.814C326.579 170.518 326.392 172.027 326.101 173.701C325.957 174.525 324.757 174.362 324.666 175.24C324.52 176.65 323.831 177.385 323.259 178.702C322.73 179.918 322.462 181.368 321.745 182.503C321.088 183.542 320.364 183.495 320.364 184.789C320.364 186.358 319.885 187.892 319.885 189.495" stroke="#645841" stroke-linecap="round"/>
<path d="M304.106 81.5625C304.106 87.4004 304.106 93.2382 304.106 99.0761C304.106 102.199 304.106 105.321 304.106 108.444C304.106 115.203 305.541 121.939 305.541 128.65C305.541 131.632 306.975 134.024 306.975 137.09C306.975 139.753 306.975 142.415 306.975 145.078C306.975 151.999 307.453 158.92 307.453 165.872C307.453 168.41 308.409 170.794 308.409 173.384C308.409 176.447 308.409 179.509 308.409 182.571C308.409 188.145 308.409 193.719 308.409 199.293C308.409 207.861 307.453 216.335 307.453 224.93" stroke="#645841" stroke-linecap="round"/>
<path d="M226.224 87.5632C224.456 86.6847 224.419 90.1438 223.953 91.2686C223.269 92.9196 223.55 94.8374 223.55 96.5646C223.55 103.819 223.55 111.073 223.55 118.327C223.55 127.449 223.55 136.571 223.55 145.692C223.55 163.08 223.55 180.469 223.55 197.857" stroke="#645841" stroke-linecap="round"/>
<path d="M224.311 199.484H235.386" stroke="#645841" stroke-linecap="round"/>
<path d="M242.262 199.484C244.968 200.487 247.34 200.387 250.091 200.84C251.084 201.004 251.864 201.676 252.87 201.762C254.06 201.863 255.168 202.059 256.35 202.268C258.318 202.616 260.187 202.596 262.163 203.063C265.166 203.774 269.068 204.575 272.135 204.69C277.062 204.875 281.498 206.642 286.477 206.642C288.542 206.642 290.607 206.642 292.672 206.642C294.78 206.642 297.824 207.3 298.783 205.666" stroke="#645841" stroke-linecap="round"/>
<path d="M242.98 197.324C242.98 195.863 242.493 194.8 242.493 193.356C242.493 190.694 242.275 188.036 242.249 185.375C242.238 184.19 241.762 183.205 241.762 182.065C241.762 180.568 241.518 179.109 241.518 177.601C241.518 176.196 241.8 174.531 241.491 173.149C241.354 172.535 241.031 172.151 241.031 171.477C241.031 170.821 241.061 170.16 241.031 169.505C241 168.825 240.543 168.355 240.543 167.59C240.543 166.91 240.543 166.229 240.543 165.549C240.543 164.451 240.591 163.346 240.53 162.25C240.457 160.952 239.65 159.845 239.569 158.594C239.465 156.999 239.081 155.536 239.081 153.946C239.081 151.84 238.935 149.857 239.555 147.833C239.998 146.387 239.987 144.58 239.758 143.093C239.211 139.535 239.569 135.798 239.569 132.205C239.569 129.706 239.569 127.207 239.569 124.708C239.569 123.008 240.056 121.534 240.056 119.853C240.056 117.926 240.056 116 240.056 114.074" stroke="#645841" stroke-linecap="round"/>
<path d="M240.3 111.791C239.987 110.634 239.569 109.853 239.569 108.63C239.569 107.623 239.569 106.616 239.569 105.609C239.569 103.348 239.813 101.118 239.813 98.8729C239.813 96.831 239.629 94.8053 239.569 92.7832C239.555 92.3027 239.735 91.6285 239.461 91.1916C239.227 90.8169 239.082 90.6869 239.082 90.2458C239.082 89.4692 239.082 88.6926 239.082 87.916" stroke="#645841" stroke-linecap="round"/>
<path d="M239.568 86.4624C241.942 86.4624 244.316 86.4624 246.689 86.4624C251.471 86.4624 256.983 87.092 261.622 86.151C266.527 85.1562 271.839 85.7247 276.826 85.1937C278.694 84.9948 280.528 84.677 282.458 84.6055C286.424 84.4586 290.429 84.594 294.398 84.594" stroke="#645841" stroke-linecap="round"/>
<path d="M294.4 86.0469C294.4 87.7077 294.4 89.3686 294.4 91.0294C294.4 92.468 295.131 93.6332 295.131 95.1353C295.131 96.8052 294.543 99.5977 295.511 101.041C295.902 101.624 295.63 102.108 296.187 102.701C296.78 103.332 296.171 104.661 296.512 105.423C296.878 106.241 297.262 106.82 297.325 107.73C297.368 108.354 297.812 108.548 297.812 109.183C297.812 111.851 298.056 114.484 298.056 117.176C298.056 130.743 298.056 144.311 298.056 157.878" stroke="#645841" stroke-linecap="round"/>
<path d="M297.322 158.918C297.322 160.337 297.322 161.755 297.322 163.174C297.322 164.841 297.729 165.754 298.27 167.349C298.952 169.359 299.09 171.382 299.813 173.358C300.796 176.044 300.247 179.355 300.247 182.17C300.247 184.153 300.247 186.137 300.247 188.121C300.247 191.312 300.247 194.503 300.247 197.694C300.247 199.847 300.111 202.903 302.196 204.383" stroke="#645841" stroke-linecap="round"/>
<path d="M259.307 186.736C260.046 186.736 260.275 186.162 261.012 186.114C262.018 186.048 262.624 185.752 263.449 185.283" stroke="#645841" stroke-linecap="round"/>
<path d="M263.45 184.66C261.812 186.773 263.497 185.681 264.79 186.529C265.554 187.029 267.222 186.736 268.134 186.736C269.449 186.736 270.544 186.576 271.83 186.333C272.561 186.194 273.496 185.73 274.172 185.698C277.763 185.528 281.45 185.994 285.003 185.537C288.642 185.069 292.679 185.491 296.348 185.491" stroke="#645841" stroke-linecap="round"/>
<path d="M259.794 187.15C260.879 187.189 262.802 188.43 263.531 189.111C264.255 189.788 265.048 189.642 266.076 189.642C269.699 189.642 273.323 189.642 276.947 189.642C281.164 189.642 285.177 189.019 289.416 189.019C290.343 189.019 291.277 189.046 292.205 189.019C292.9 188.998 293.491 188.679 294.168 188.638C296.162 188.517 298.57 189.233 300.49 189.642" stroke="#645841" stroke-linecap="round"/>
<path d="M256.626 98.5024C256.727 97.6439 257.977 96.8559 258.575 96.2188" stroke="#645841" stroke-linecap="round"/>
<path d="M260.282 96.2209C262.608 96.3447 264.769 96.6361 267.119 96.6361C270.21 96.6361 273.234 96.2523 276.312 96.2209C278.089 96.2028 279.811 96.1363 281.578 96.0248C282.437 95.9706 282.983 95.4626 283.839 95.2636C285.066 94.9785 286.493 95.0423 287.657 94.7216C288.171 94.5798 288.544 94.1773 289.119 94.0295C290.131 93.7692 291.189 93.555 292.205 93.3145" stroke="#645841" stroke-linecap="round"/>
<path d="M258.088 99.1271C258.291 101.205 262.522 100.188 263.815 99.7614C266.119 99.0015 269.154 99.3347 271.572 99.3347C273.269 99.3347 274.966 99.3347 276.662 99.3347C279.371 99.3347 282.023 98.6171 284.704 98.1928C287.805 97.7023 290.777 97.6738 293.91 97.6738" stroke="#645841" stroke-linecap="round"/>
<path d="M245.94 134.074C245.221 134.802 244.462 136.285 245.076 137.254C245.388 137.745 246.3 138.001 245.905 138.711C245.642 139.185 245.007 139.323 245.007 139.903" stroke="#645841" stroke-linecap="round"/>
<path d="M244.229 140.168C243.583 140.202 242.434 140.148 241.896 140.3" stroke="#645841" stroke-linecap="round"/>
<path d="M243.762 141.758C244.244 141.783 244.708 141.89 245.239 141.89C245.458 141.89 246.094 142.641 246.094 142.818C246.094 143.584 245.737 144.342 245.818 145.099C245.895 145.828 246.082 145.962 246.716 146.394" stroke="#645841" stroke-linecap="round"/>
<path d="M247.804 146.396C248.449 145.468 247.431 142.779 248.581 142.289" stroke="#645841" stroke-linecap="round"/>
<path d="M249.205 141.89C250.138 141.361 251.45 141.7 252.315 140.963" stroke="#645841" stroke-linecap="round"/>
<path d="M249.051 139.904C249.652 139.904 250.023 139.938 250.45 140.302" stroke="#645841" stroke-linecap="round"/>
<path d="M248.895 139.373C248.445 139.109 248.169 137.937 248.118 137.489C248.057 136.953 247.898 136.492 247.997 135.944C248.115 135.287 248.429 134.774 248.429 134.104C248.429 133.097 248.038 132.961 247.029 132.617" stroke="#645841" stroke-linecap="round"/>
<path d="M232.382 87.8418C232.532 88.6814 233.251 89.3891 233.251 90.2404C233.251 91.0556 233.251 91.8708 233.251 92.686C233.251 93.2884 233.335 93.9486 233.141 94.532C232.852 95.402 232.547 96.1756 232.368 97.0716C232.186 97.98 231.63 98.8538 231.519 99.7936C231.455 100.34 231.14 100.829 231.14 101.387" stroke="#645841" stroke-linecap="round"/>
<path d="M230.894 102.34C231.122 103.391 232.222 104.69 233.067 105.485C233.398 105.796 233.567 106.271 233.826 106.626C234.395 107.403 234.736 108.156 235.034 109.042C235.284 109.785 235.489 110.47 235.489 111.235C235.489 112.193 235.489 113.151 235.489 114.109C235.489 114.958 235.565 115.64 235.144 116.414C234.945 116.781 234.995 117.203 234.868 117.59C234.672 118.193 234.524 118.813 234.365 119.424C234.272 119.781 234.043 120.134 234.006 120.5C233.974 120.815 233.786 120.994 233.757 121.282C233.709 121.778 233.502 122.262 233.502 122.763C233.502 123.531 233.502 124.299 233.502 125.068C233.502 126.468 233.373 127.924 233.509 129.318C233.581 130.051 233.972 130.736 234.151 131.44C234.321 132.11 234.496 132.536 234.496 133.239C234.496 134.915 234.832 136.641 234.613 138.319C234.528 138.967 234.023 139.565 233.53 140.035C233.249 140.303 232.757 141.049 232.757 141.387" stroke="#645841" stroke-linecap="round"/>
<path d="M232.383 142.762C232.405 143.262 232.693 143.708 232.818 144.196C232.908 144.551 233.052 144.872 233.169 145.219C233.298 145.599 233.168 146.015 233.439 146.354C233.778 146.778 233.68 147.451 233.942 147.947C234.211 148.454 234.35 149.092 234.467 149.64C234.575 150.145 234.886 150.604 234.977 151.11C235.058 151.557 234.991 152.05 234.991 152.503C234.991 153.065 235.003 153.628 234.991 154.19C234.976 154.923 234.475 155.515 234.343 156.224C234.124 157.401 233.64 158.519 233.515 159.699C233.444 160.363 233.488 161.06 233.501 161.727C233.514 162.473 234.091 163.076 234.122 163.82C234.147 164.419 234.619 164.844 234.619 165.448C234.619 166.091 234.87 166.748 235.067 167.365C235.278 168.023 235.601 168.68 235.833 169.346C236.091 170.088 236.254 170.97 236.233 171.745C236.194 173.208 235.488 174.564 235.488 176.048C235.488 176.316 235.524 176.606 235.474 176.871C235.431 177.103 235.201 177.256 235.143 177.494C235.021 178 234.803 178.484 234.701 178.993C234.616 179.421 234.684 179.876 234.536 180.293C234.059 181.63 234.199 183.047 234.743 184.378C235.194 185.484 235.697 186.596 236.178 187.712C236.432 188.3 236.358 189.014 236.358 189.628C236.358 190.267 236.358 190.906 236.358 191.545C236.358 192.392 236.032 193.127 235.737 193.937C235.474 194.657 235.115 195.417 235.115 196.183C235.115 196.505 235.02 196.632 234.826 196.894C234.676 197.097 234.773 197.347 234.729 197.571C234.687 197.788 234.512 197.965 234.494 198.188C234.431 198.975 234.199 199.983 235.412 199.893C236.367 199.822 237.205 199.481 238.166 199.481C239.345 199.481 240.432 199.789 241.575 200.01" stroke="#645841" stroke-linecap="round"/>
<path d="M307.802 201.684V205.213" stroke="#645841" stroke-linecap="round"/>
<path d="M302.438 206.249C304.329 206.199 306.15 205.834 308.043 205.834" stroke="#645841" stroke-linecap="round"/>
<path d="M304.471 170.371C304.471 171.289 304.456 172.207 304.548 173.123C304.583 173.48 304.808 173.737 304.901 174.081C304.989 174.411 305.058 174.73 305.165 175.058C305.793 176.976 306.086 178.987 306.907 180.853C307.046 181.169 307.023 181.528 307.155 181.853C307.315 182.244 307.478 182.595 307.524 183.013C307.584 183.552 307.69 184.162 307.646 184.704C307.608 185.163 307.166 185.948 306.885 186.347C306.513 186.875 306.238 187.463 306.025 188.057C305.805 188.669 305.931 189.325 305.705 189.935C305.489 190.521 305.264 191.1 305.264 191.72C305.264 193.152 305.719 194.538 305.76 195.956C305.794 197.103 305.76 198.255 305.76 199.402C305.76 200.437 306.455 201.297 306.455 202.323" stroke="#645841" stroke-linecap="round"/>
<path d="M304.371 170.54C305.489 168.159 306.483 165.8 306.631 163.185C306.767 160.793 306.531 158.524 305.308 156.371C304.39 154.755 303.677 152.911 303.677 151.098" stroke="#645841" stroke-linecap="round"/>
<path d="M302.982 151.1C303.254 150.453 303.375 149.789 303.633 149.137C303.832 148.633 303.727 148.114 303.82 147.597C303.891 147.202 304.179 146.87 304.305 146.489C304.444 146.069 304.387 145.692 304.625 145.287C304.817 144.96 304.956 144.801 305.253 144.526C305.736 144.079 306.136 142.918 306.047 142.309C305.991 141.926 305.622 141.629 305.364 141.332C304.981 140.895 304.598 140.44 304.272 139.971C303.593 138.99 302.696 138.316 302.282 137.205C301.913 136.212 301.415 135.107 301.505 134.049C301.597 132.973 302.42 132.197 303.081 131.32" stroke="#645841" stroke-linecap="round"/>
<path d="M303.977 129.967C304.006 129.733 304.166 129.536 304.274 129.324C304.456 128.968 304.468 128.518 304.473 128.136C304.49 126.699 304.473 125.261 304.473 123.825C304.473 123.103 304.253 122.451 303.944 121.787C303.367 120.55 303.12 119.184 302.433 117.992C301.848 116.976 301.41 116.084 301.143 114.977C300.898 113.957 301.099 112.765 301.099 111.728C301.099 110.547 301.061 109.425 301.551 108.299C301.725 107.901 302.114 107.683 302.29 107.308C302.482 106.9 302.828 106.601 303.183 106.299" stroke="#645841" stroke-linecap="round"/>
<path d="M302.785 106.466C302.817 105.951 302.945 105.252 303.237 104.799C303.424 104.508 303.645 103.979 303.678 103.639C303.722 103.171 303.983 102.746 304.058 102.287C304.161 101.656 304.174 101.012 304.174 100.375C304.174 100.079 304.215 99.7578 304.157 99.4642C304.097 99.1551 303.848 98.883 303.755 98.5766C303.462 97.6142 303.21 96.6633 302.851 95.7214C302.558 94.954 302.363 94.115 302.189 93.3216C302.011 92.506 301.638 91.7595 301.396 90.9595C301.149 90.1466 301.121 89.2617 301.247 88.4236C301.325 87.9016 301.606 87.4297 301.737 86.9114C301.844 86.4907 301.888 85.9928 302.035 85.5871C302.144 85.286 303.128 83.4948 302.36 83.4034C300.96 83.237 299.64 83.4196 298.242 83.1264C296.987 82.8628 295.799 82.9262 294.648 82.375" stroke="#645841" stroke-linecap="round"/>
<path d="M303.081 81.8676C303.092 80.9368 303.141 80.0083 303.18 79.0781" stroke="#645841" stroke-linecap="round"/>
<path d="M232.721 86.9157C233.122 86.5941 233.536 86.5253 234.086 86.5183C235.6 86.4991 237.116 86.5183 238.63 86.5183" stroke="#645841" stroke-linecap="round"/>
<path d="M226.967 86.1191C226.56 86.1625 226.656 86.4761 226.656 86.7521C226.656 87.4779 226.69 87.5461 227.555 87.7824C229.076 88.198 230.677 88.1062 232.254 88.1062" stroke="#645841" stroke-linecap="round"/>
<path d="M226.814 85.854C227.126 85.5529 227.603 85.515 228.024 85.3683C228.642 85.1527 229.204 84.8299 229.769 84.5293" stroke="#645841" stroke-linecap="round"/>
<path d="M33.7441 82.033C38.8836 81.9504 44.0024 81.7077 49.1474 81.7077C50.5877 81.7077 52.1713 81.8493 53.6029 81.6354C54.4362 81.5108 54.862 80.9026 55.6397 80.7497C60.7869 79.7378 66.0771 79.6671 71.2551 78.9241C76.9011 78.114 83.21 78.7795 88.9286 78.7795C91.4663 78.7795 93.7066 78.6358 96.2059 78.2734C99.7744 77.7559 103.327 78.4655 106.835 77.4962C116.727 74.7632 127.776 75.526 138.236 75.526C144.217 75.526 149.743 74.55 155.74 74.55C158.096 74.55 160.15 74.4503 162.444 73.9173C167.512 72.7398 173.092 72.7311 178.272 72.0556C185.263 71.144 192.055 70.3204 199.149 70.3204C201.053 70.3204 202.925 70.5146 204.686 69.8324C209.885 67.8193 214.552 68.043 220.196 68.043C222.389 68.043 223.96 67.1258 226.009 67.0669C229.558 66.965 233.13 67.0669 236.681 67.0669C238.824 67.0669 240.967 67.0669 243.11 67.0669C245.838 67.0669 248.211 66.2863 250.917 66.1451C258.526 65.7482 266.274 66.0909 273.895 66.0909C275.768 66.0909 278.514 66.5057 280.239 65.8378C282.107 65.1144 284.045 65.1148 286.052 65.1148C290.341 65.1148 294.644 65.2026 298.931 65.0968C302.742 65.0026 306.013 64.3395 309.687 63.8857C312.759 63.5064 315.107 61.8613 318.259 61.8613" stroke="#645841" stroke-linecap="round"/>
<path d="M136.476 27.373C137.922 33.2253 136.476 38.7236 136.476 44.5985C136.476 47.1861 135.778 49.6231 135.139 52.1358C133.978 56.7008 133.803 61.1116 133.803 65.7643" stroke="#645841" stroke-linecap="round"/>
<path d="M136.476 27.0494C138.031 27.0494 139.768 27.2239 141.313 27.0133C144.375 26.5959 147.641 26.5535 150.585 25.73C154.36 24.6738 158.342 24.2523 162.148 23.326C166.108 22.3621 169.507 21.1131 173.138 19.5664" stroke="#645841" stroke-linecap="round"/>
<path d="M168.557 21.5176C168.557 29.7959 168.557 38.0743 168.557 46.3526C168.557 49.4615 168.557 52.5704 168.557 55.6793C168.557 58.2395 167.793 60.5688 167.793 63.1623" stroke="#645841" stroke-linecap="round"/>
<path d="M137.712 65.0571C138.834 65.1846 139.934 65.1896 141.064 65.1896C142.647 65.1896 144.124 64.7922 145.685 64.7922C153.737 64.7922 161.695 64.1694 169.744 63.7324" stroke="#645841" stroke-linecap="round"/>
<path d="M136.78 69.1645C137.033 68.3042 140.954 67.7027 141.877 68.1636C143.453 68.9504 145.058 68.7671 146.879 68.7671C147.547 68.7671 148.382 68.8936 148.961 68.561C149.71 68.1302 150.401 67.5775 151.164 67.1774C151.809 66.8389 152.163 67.0919 152.676 67.5454C153.227 68.0336 152.752 68.3941 153.816 68.3696C154.936 68.3439 156.052 68.1047 157.202 68.1047C158.216 68.1047 159.981 68.3809 160.813 67.8986C161.186 67.6827 161.532 67.5565 161.971 67.4718C162.387 67.3915 162.572 67.1382 162.938 67.0155C163.847 66.7113 164.618 66.6475 165.599 66.6475C166.162 66.6475 166.729 66.632 167.292 66.6475C168.342 66.6763 169.022 67.3099 170.057 67.3099" stroke="#645841" stroke-linecap="round"/>
<path d="M171.924 23.5938C171.924 25.0566 171.971 26.52 172.079 27.98C172.142 28.8227 172.306 29.1525 172.606 29.8347C172.755 30.1714 172.678 30.531 172.701 30.8797C172.733 31.3441 173.168 31.6598 173.168 32.1308C173.168 33.8931 172.988 35.6971 171.561 37.0029C171.022 37.4966 170.991 38.716 170.991 39.3653C170.991 40.331 170.963 40.9638 171.76 41.7277C172.348 42.2916 172.794 42.9876 173.289 43.6117C173.993 44.4994 173.212 44.9165 172.425 45.5547C171.866 46.0083 171.167 46.2825 171.008 47.0266C170.877 47.6422 170.883 48.6006 171.008 49.2124C171.159 49.9485 171.685 50.6159 171.803 51.3982C171.957 52.4183 172.235 53.2854 172.235 54.3273C172.235 55.4116 172.235 56.4959 172.235 57.5802C172.235 58.4283 172.013 59.6052 172.313 60.421C172.648 61.3346 172.505 62.315 172.771 63.2323C172.949 63.8517 173.577 65.7199 172.39 65.7199" stroke="#645841" stroke-linecap="round"/>
<path d="M134.294 27.9629C134.294 30.5483 135.227 32.9851 135.227 35.5727C135.227 36.3302 135.285 37.1111 135.227 37.8689C135.203 38.1813 134.894 38.2496 134.786 38.5091C134.697 38.7258 134.76 39.0244 134.76 39.2525C134.76 39.6435 134.563 39.8266 134.398 40.1798C134.037 40.9479 134.068 42.9756 134.458 43.6682C134.824 44.3167 135.082 45.7189 134.441 46.3103C132.537 48.0669 133.206 51.3285 133.206 53.5447C133.206 54.2242 133.206 54.9038 133.206 55.5833C133.206 56.5792 132.529 57.296 132.221 58.2401C131.835 59.4228 132.117 60.9305 132.117 62.1554C132.117 63.4292 132.067 64.6201 132.428 65.8499" stroke="#645841" stroke-linecap="round"/>
<path d="M133.514 69.0295C134.299 68.7917 136.011 68.8865 136.468 68.3672" stroke="#645841" stroke-linecap="round"/>
<path d="M140.514 41.7422C140.64 42.4437 140.802 43.07 140.825 43.7881C140.837 44.1678 141.17 44.7024 141.516 44.951C142.455 45.626 143.538 47.0137 142.38 47.8359" stroke="#645841" stroke-linecap="round"/>
<path d="M143.313 48.1007C144.116 48.1007 144.417 47.3544 144.626 46.8201C144.967 45.9473 144.647 45.0719 143.84 44.4651C143.079 43.8932 142.435 43.3965 142.207 42.5222C141.974 41.6294 141.098 40.3798 140.514 41.8745" stroke="#645841" stroke-linecap="round"/>
<path d="M153.205 35.1959C153.948 34.7701 154.672 34.2166 155.504 33.9805" stroke="#645841" stroke-linecap="round"/>
<path d="M153.995 35.5352C154.371 35.6671 154.782 35.9445 155.087 36.1729C155.288 36.3236 155.362 36.5037 155.58 36.6155" stroke="#645841" stroke-linecap="round"/>
<path d="M155.9 33.9141C156.377 33.9141 156.838 33.8918 157.296 33.7715C157.957 33.5983 158.619 33.6399 159.3 33.554C161.207 33.3133 163.012 32.9193 164.857 32.4961" stroke="#645841" stroke-linecap="round"/>
<path d="M156.136 36.411C156.512 36.2996 156.936 36.3099 157.325 36.231C157.929 36.108 158.509 35.9428 159.121 35.8408C160.106 35.6767 161.093 35.574 162.063 35.3532C163.543 35.0161 165.064 35.2911 166.44 34.5879" stroke="#645841" stroke-linecap="round"/>
<path d="M153.124 55.1839C153.594 54.7834 154.207 54.5357 154.63 54.1035" stroke="#645841" stroke-linecap="round"/>
<path d="M152.965 55.6562C153.333 55.7191 153.704 56.0557 154.057 56.1964C154.383 56.3264 154.578 56.4665 154.946 56.4665" stroke="#645841" stroke-linecap="round"/>
<path d="M154.949 54.1033C156.153 54.1033 157.356 54.1033 158.56 54.1033C159.538 54.1033 160.781 54.3037 161.686 53.9457C162.013 53.8163 162.399 53.7805 162.747 53.7244C164.075 53.5108 165.383 53.136 166.68 52.8203" stroke="#645841" stroke-linecap="round"/>
<path d="M156.058 56.6674C156.53 56.6674 157.003 56.6674 157.475 56.6674C158.623 56.6674 159.741 56.4648 160.897 56.4648C163.22 56.4648 165.544 56.4648 167.867 56.4648" stroke="#645841" stroke-linecap="round"/>
<path d="M130.694 27.9707H136.243" stroke="#645841" stroke-linecap="round"/>
<path d="M129.902 27.4988C130.162 27.1228 130.68 26.8287 131.056 26.5309C131.334 26.3109 131.536 26.042 131.743 25.7732C131.886 25.5871 132.09 25.4784 132.232 25.3005C132.651 24.775 132.816 24.3159 133.451 23.98C134.095 23.6396 134.782 23.4473 135.547 23.4473C136.152 23.4473 136.988 23.5352 137.511 23.815C137.957 24.0531 138.446 24.2576 138.978 24.2576C139.6 24.2576 141.544 23.0742 140.836 22.3707C140.353 21.8905 139.663 22.1031 139.026 22.0256C138.795 21.9974 139.369 21.8293 139.449 21.8268C139.783 21.8162 140.108 21.8401 140.439 21.793C140.8 21.7418 141.134 21.5478 141.439 21.3804C141.851 21.1541 142.232 20.9843 142.654 20.7839C143.4 20.4301 144.12 20.6835 144.909 20.8514C145.331 20.9414 145.838 20.9677 146.23 21.129C146.514 21.246 146.773 21.411 147.049 21.5417C147.248 21.6358 147.533 21.6957 147.692 21.838C148.2 22.2938 148.892 22.7045 149.55 23.0047C149.969 23.1958 150.668 23.3541 150.668 22.7571C150.668 22.2505 150.445 21.8174 149.797 21.6917C149.678 21.6687 149.383 21.3914 149.502 21.2903C149.684 21.1347 150.079 21.1516 150.307 21.1516C150.62 21.1516 151.62 21.3161 151.62 20.949" stroke="#645841" stroke-linecap="round"/>
<path d="M151.223 19.5324C151.223 19.1148 151.167 18.8534 151.461 18.5195" stroke="#645841" stroke-linecap="round"/>
<path d="M152.965 18.248C153.079 18.2532 153.251 18.2895 153.282 18.3156" stroke="#645841" stroke-linecap="round"/>
<path d="M151.619 18.3165C151.735 17.824 152.819 17.8439 153.244 17.8439C153.587 17.8439 153.869 18.0476 153.997 18.3203C154.121 18.5838 154.47 18.8728 154.534 19.1268C154.65 19.5827 154.28 19.714 154.05 20.0796C153.746 20.5628 154.169 20.5448 154.609 20.5448C154.95 20.5448 156.7 20.2981 156.243 20.9724C155.958 21.3919 155.265 21.6914 155.265 22.2329C155.265 22.8942 156.789 23.2368 157.387 22.9306C157.736 22.7526 157.961 22.1465 158.189 21.8728C158.852 21.0777 160.195 21.0434 161.007 20.4435C161.711 19.924 161.805 19.0148 162.522 18.4853C162.867 18.2301 163.409 18.2029 163.83 18.1065C164.37 17.9825 164.849 17.8855 165.41 17.9114C166.022 17.9396 165.669 18.45 165.586 18.7067C165.476 19.0516 165.446 19.3606 165.371 19.7083C165.334 19.8785 165.206 20.5385 165.463 20.6011C165.826 20.6895 166.338 20.3996 166.582 20.1922C167.015 19.8232 167.247 19.5696 167.797 19.2919C168.137 19.1202 168.658 18.7366 169.034 18.6654C169.69 18.5413 170.333 18.309 171.011 18.2565C171.559 18.2141 172.136 18.2444 172.685 18.249C173.688 18.2574 174.669 18.2974 175.644 18.5153C176.086 18.6144 176.695 18.6443 177.088 18.8567C177.513 19.0863 177.682 19.5237 178.035 19.8245C178.317 20.0647 178.149 20.394 178.259 20.6761C178.296 20.7711 178.428 20.771 178.409 20.8974C178.367 21.1705 176.857 20.8572 176.656 20.8449C175.708 20.7867 174.758 20.8449 173.816 20.7099C173.299 20.6357 172.791 20.5212 172.262 20.5485C171.139 20.6065 170.015 20.8663 168.977 21.22" stroke="#645841" stroke-linecap="round"/>
<path d="M142.586 3.94922C140.961 4.00689 140.836 5.40959 139.828 6.33512C138.898 7.18792 137.767 8.12037 136.666 8.81139C135.305 9.66601 133.979 10.1319 132.529 10.89C131.916 11.2106 131.534 11.7342 130.938 12.0468C130.138 12.4661 129.103 12.4757 128.307 12.9144C125.99 14.1919 124.189 15.6593 122.26 17.3609C121.324 18.1867 120.138 19.1384 119.311 20.054C118.633 20.8047 117.191 20.938 116.702 21.7712C116.365 22.3444 114.691 22.8174 114.028 23.3618C113.244 24.0062 111.877 25.1177 110.867 25.4404C110.159 25.6667 109.711 26.0165 109.445 26.6152C108.819 28.0273 107.485 27.983 106.305 28.8204C105.347 29.5009 104.628 30.1243 103.505 30.646C102.328 31.1927 101.138 32.0655 100.174 32.8873C99.5811 33.3922 98.8249 34.3951 97.9885 34.5321C97.2253 34.6571 95.3439 35.5655 94.6363 35.9962C93.4959 36.6901 92.7991 37.9279 91.4962 38.364C90.5771 38.6716 89.5796 39.2226 89.0351 39.9184C88.2988 40.8593 86.5754 40.928 85.6616 41.8525C84.634 42.8921 83.0556 43.552 81.8638 44.4733C81.0872 45.0737 80.3338 45.2543 79.4239 45.6121C77.8146 46.2448 76.1074 47.8733 74.7987 48.8836C72.6909 50.5109 70.846 53.4167 68.1155 54.3061C66.9813 54.6756 65.3275 56.1579 64.2965 56.8366C63.5128 57.3525 62.6471 57.3552 61.8778 57.7765C61.3153 58.0846 60.765 58.8625 60.1805 59.2587C57.3188 61.1979 54.3432 62.4607 51.9272 64.9523C49.0635 67.9056 44.8849 70.0719 40.9794 72.2184C38.0372 73.8356 36.6919 77.1708 33.6173 78.3097C31.5069 79.0914 29.9892 80.6354 28.207 81.8162C26.5622 82.9061 25.3428 81.7546 25.3428 83.9852" stroke="#645841" stroke-linecap="round"/>
<path d="M141.822 3.30027C140.781 3.30027 142.542 2.68719 142.968 2.32422" stroke="#645841" stroke-linecap="round"/>
<path d="M142.97 2.32218C144.393 2.24643 145.842 1.23803 147.362 1.03886C149.302 0.784498 150.866 1.85678 152.729 1.99684C153.846 2.08081 156.566 3.07014 157.461 3.64166C158.382 4.23063 159.455 4.04368 160.304 4.59963C161.121 5.13506 161.551 5.72151 162.595 5.91911C164.008 6.18667 165.619 7.05692 167.199 7.20243C168.616 7.33289 170.789 7.84872 172.185 8.21463C173.819 8.64298 175.952 8.87019 177.426 9.66063C178.782 10.3882 180.115 10.9879 181.542 11.6127C183.645 12.5342 186.274 13.3612 188.182 14.4866C189.433 15.224 190.869 14.8705 192.15 15.5169C193.81 16.3551 196.075 16.6576 197.878 16.9991C199.125 17.2351 200.714 18.335 201.803 18.915C203.372 19.75 206.353 20.7157 208.19 20.8671C211.171 21.1129 213.168 21.6773 215.849 22.8192C217.229 23.4072 219.014 23.46 220.453 23.976C221.941 24.5099 223.123 24.1551 224.611 24.8798C225.405 25.2662 226.254 24.9284 227.072 25.169C229.444 25.8656 231.464 27.2294 233.841 27.8621C234.781 28.1125 235.052 28.9074 236.068 29.1816C237.843 29.6605 239.814 29.7525 241.627 30.1577C247.688 31.5119 253.809 33.1686 259.428 35.5621C259.86 35.7463 259.801 36.2454 260.234 36.4297C260.686 36.6223 261.091 36.5386 261.528 36.8454C262.384 37.4456 263.659 37.8803 264.371 38.5625C265.077 39.2388 266.312 39.6649 267.172 40.3158C268.166 41.0688 269.943 40.9051 270.885 41.7076C272.023 42.6774 274.378 44.4467 276.083 44.6176C277.204 44.73 278.085 45.6208 279.011 46.0998C279.734 46.4741 280.7 46.3543 281.514 46.7505C284.129 48.0232 288.13 47.0515 290.553 48.7026C291.14 49.1028 292.512 48.9328 293.268 49.1906C294.375 49.5676 295.915 50.0364 296.854 50.6366C298.474 51.6715 301.271 51.0306 303.219 51.3235C305.062 51.6006 306.899 52.2321 308.756 52.408C311.594 52.6765 313.789 54.4815 316.437 55.2819C319.169 56.1079 320.433 58.8355 323.29 59.5657C325.218 60.0586 328.518 60.1071 330.228 61.0297C331.274 61.5944 331.826 62.0609 333.071 62.4396C334.014 62.7267 334.776 63.2415 335.447 63.8133" stroke="#645841" stroke-linecap="round"/>
<path d="M336.209 63.4863C341.254 63.4863 345.434 64.6504 349.575 66.4145" stroke="#645841" stroke-linecap="round"/>
<path d="M350.721 68.6934C350.046 70.0733 348.922 71.356 348.048 72.5976" stroke="#645841" stroke-linecap="round"/>
<path d="M346.902 72.2725C345.646 72.2297 344.714 71.6678 343.762 71.0434C342.091 69.949 340.882 69.6697 338.797 69.6697C336.43 69.6697 337.995 68.6239 337.269 67.2838C336.894 66.5911 332.315 67.0669 331.265 67.0669C329.731 67.0669 325.112 67.6389 324.2 66.5789C323.332 65.5711 321.163 64.8489 319.808 64.4641C317.674 63.8581 316.993 63.6078 315.968 61.8613" stroke="#645841" stroke-linecap="round"/>
<path d="M38.7109 78.4544C38.7109 75.1784 42.6138 75.5263 45.5851 75.5263" stroke="#645841" stroke-linecap="round"/>
<path d="M45.9455 74.8208C44.6571 73.7232 48.6876 71.6699 49.8387 71.6699" stroke="#645841" stroke-linecap="round"/>
<path d="M51.9824 70.0093C52.9338 69.9667 54.4831 69.8635 55.3349 69.4381C56.3457 68.9334 56.5044 68.6466 57.1409 67.7706C58.1516 66.3797 59.6031 65.3254 60.8179 64.0577C61.4493 63.3987 61.5925 62.7649 62.4941 62.3809" stroke="#645841" stroke-linecap="round"/>
<path d="M63.4648 61.2206C63.9379 60.781 64.4255 60.5395 64.9572 60.1888C65.7025 59.6972 66.8213 59.8716 67.6501 59.4793C68.3104 59.1668 68.9499 58.8063 69.6832 58.6502C70.5804 58.4591 71.1058 57.8751 71.8785 57.4801C72.4275 57.1995 72.973 56.9494 73.4791 56.6141C74.0869 56.2113 74.6294 55.4197 75.3608 55.186C77.0407 54.6493 77.4366 53.132 78.6484 52.0996" stroke="#645841" stroke-linecap="round"/>
<path d="M79.0381 51.105C79.2559 50.843 79.6395 50.2444 79.9249 50.0455C80.3904 49.721 81.1634 49.8576 81.666 49.5941C83.4755 48.6454 84.5455 47.2895 86.738 46.9499C87.1208 46.8906 87.6961 46.3984 88.079 46.2221C89.2096 45.7014 89.8654 44.8387 90.6096 44.0109C91.7507 42.7417 92.6163 41.2203 93.6377 39.8281" stroke="#645841" stroke-linecap="round"/>
<path d="M92.8574 39.1654C94.7944 39.1654 96.2087 38.6006 97.9619 37.9677C98.4769 37.7818 99.3893 37.6621 99.822 37.4333C100.402 37.1264 100.837 36.6187 101.466 36.3093C102.13 35.9825 102.947 35.864 103.521 35.4065C104.097 34.9468 104.612 34.3905 105.316 34.0613C106.123 33.6836 107.003 33.2566 107.76 32.8268C108.014 32.6823 107.996 31.6397 108.041 31.3711" stroke="#645841" stroke-linecap="round"/>
<path d="M108.82 30.7073C109.614 29.6737 109.915 28.8105 111.437 28.5422C113.078 28.253 114.135 27.6375 115.525 26.8931C116.055 26.6095 116.927 26.2211 117.169 25.7046C117.5 24.9994 117.753 24.512 118.467 24.0186C119.461 23.3317 120.282 22.772 121.084 21.918" stroke="#645841" stroke-linecap="round"/>
<path d="M121.669 21.7533C123.022 21.6252 124.241 20.2059 125.432 19.579C127.093 18.7054 128.616 17.7888 130.158 16.7782C130.539 16.5288 130.992 16.7285 131.251 16.3544C131.413 16.1191 131.747 16.0888 131.986 15.9306C132.943 15.2965 132.557 14.252 133.933 13.959" stroke="#645841" stroke-linecap="round"/>
<path d="M133.933 13.7915C134.93 13.4373 135.656 12.5461 136.647 12.1239C137.758 11.6507 139.161 11.4415 140.248 10.8986C142.304 9.87204 144.339 8.72829 145.612 6.99219" stroke="#645841" stroke-linecap="round"/>
<path d="M146.78 3.67578C146.78 5.81358 148.225 7.65586 150.965 7.65586C151.762 7.65586 152.559 7.65586 153.355 7.65586C154.068 7.65586 153.981 7.91748 154.567 8.20865C155.239 8.54269 154.972 9.04126 155.562 9.39715C156.157 9.75616 156.65 10.0953 157.292 10.383C158.705 11.0164 159.752 10.814 161.283 11.0555C162.443 11.2385 162.959 10.9607 163.727 11.7373C164.197 12.2136 164.915 12.2983 165.36 12.7599C165.766 13.1818 166.162 13.4601 166.82 13.4601C167.471 13.4601 167.459 13.9334 167.998 14.0866C168.686 14.282 169.499 14.4552 170.226 14.4552C170.772 14.4552 172.001 14.515 172.476 14.6947C173.766 15.1835 175.817 15.0013 176.845 15.7082C177.916 16.4451 179.034 17.0538 180.046 17.8456C181.041 18.6244 182.348 19.3745 183.723 19.4303C184.203 19.4497 184.535 19.7447 185.042 19.7619C185.552 19.7793 186.068 19.7619 186.578 19.7619C187.562 19.7619 188.588 19.7589 189.411 20.2595C190.353 20.8325 191.384 21.29 192.45 21.6599C193.647 22.0755 195.574 22.4153 196.895 22.4153C198.877 22.4153 200.192 23.1819 201.761 24.1843C202.405 24.5958 203.176 24.8754 203.881 25.2069C204.377 25.4399 204.883 25.3105 205.373 25.511C206.206 25.8514 207.271 26.2269 208.196 26.377C209.88 26.6502 210.512 27.3039 211.829 28.1459C212.635 28.6603 213.302 29.5398 214.284 29.749C216.938 30.3142 219.713 30.7106 222.46 30.8362C223.607 30.8886 225.086 30.4763 225.456 31.5271C225.555 31.8093 226.018 32.3706 226.288 32.5682C227.229 33.2552 228.348 34.4645 229.663 34.5214C230.36 34.5516 230.51 34.7998 231.068 35.1111C231.76 35.4965 232.558 35.618 233.253 36.0324C233.864 36.397 234.874 36.5823 235.2 37.1379C235.375 37.4365 236.285 37.5346 236.627 37.7644C237.72 38.4997 239.03 38.7812 240.423 38.9161C241.314 39.0024 242.137 39.4503 242.986 39.4965C243.775 39.5394 244.586 39.4965 245.376 39.4965C246.385 39.4965 247.395 39.4965 248.404 39.4965C249.214 39.4965 250.242 39.2858 250.881 39.7913C252.057 40.7218 253.084 41.2645 254.666 41.6524C255.849 41.9426 257.017 42.3503 258.17 42.7211C259.398 43.1164 259.784 43.2471 260.657 44.1399" stroke="#645841" stroke-linecap="round"/>
<path d="M260.459 44.3066C262.07 44.3066 263.482 44.4503 265.044 44.7673C265.687 44.8977 266.338 45.1358 267.002 45.1358C269.385 45.1358 271.254 44.7142 273.296 46.0479C274.532 46.8553 275.588 47.5093 277.092 47.8169C277.453 47.8907 277.645 48.1711 277.989 48.2591C278.321 48.3439 278.698 48.2632 279.038 48.2867C279.559 48.3227 280.285 48.8384 280.704 49.1159C281.367 49.5551 282.187 49.8842 282.942 50.1938C284.062 50.6532 284.85 51.5724 285.916 52.1378C287.122 52.7771 288.423 53.4143 289.712 53.9528C290.492 54.2784 291.395 54.3645 292.232 54.524C293.636 54.7916 294.97 55.211 296.298 55.6757C298.789 56.547 301.058 57.8959 303.868 58.0711C304.985 58.1407 306.136 58.0711 307.253 58.0711C308.627 58.0711 309.739 58.5453 311.071 58.7344" stroke="#645841" stroke-linecap="round"/>
<path d="M45.751 79.1319C49.2116 79.1319 52.6723 79.1319 56.1329 79.1319C57.4378 79.1319 58.7428 79.1319 60.0477 79.1319C61.8855 79.1319 64.0662 79.4115 65.8768 79.0951C66.8433 78.9261 67.8844 78.4717 68.8399 78.2106C70.1922 77.8411 71.6403 77.5947 73.0576 77.492C74.0009 77.4236 74.874 77.4874 75.8045 77.2893C80.5738 76.2735 85.8587 76.6188 90.7177 76.4785" stroke="#645841" stroke-linecap="round"/>
<path d="M95.1953 75.9801C97.3703 75.9801 99.524 76.0612 101.695 76.1367C103.62 76.2037 105.373 75.8368 107.264 75.6116C108.187 75.5017 108.984 75.1088 109.881 74.9298C110.97 74.7127 112.081 74.6611 113.169 74.4046C115.232 73.9186 117.191 73.8242 119.333 73.8242" stroke="#645841" stroke-linecap="round"/>
<path d="M121.669 73.8242C124.331 73.8553 126.987 73.9901 129.65 73.9901" stroke="#645841" stroke-linecap="round"/>
<path d="M130.817 74.3233C132.485 74.3233 134.192 74.4119 135.857 74.3049C137.072 74.2268 137.935 73.7805 139.058 73.5126C141.195 73.0028 143.746 72.9477 145.947 72.8584C148.194 72.7673 150.457 72.8308 152.706 72.8308C153.771 72.8308 154.592 72.9084 155.539 72.536C156.178 72.285 156.865 72.3333 157.551 72.3333C158.421 72.3333 158.871 72.0379 159.627 71.6699" stroke="#645841" stroke-linecap="round"/>
<path d="M160.601 71.3389C164.066 71.1836 167.421 70.1781 170.874 70.1781C176.747 70.1781 182.47 69.9314 188.329 69.3397C190.985 69.0714 194.698 69.1416 197.273 68.188C197.978 67.9268 198.659 67.7889 199.425 67.6905C200.799 67.5138 202.28 66.8613 203.621 66.8613" stroke="#645841" stroke-linecap="round"/>
<path d="M204.203 67.1912C206.428 67.1912 208.089 66.3859 210.14 65.7263C211.046 65.435 212.004 65.4858 212.92 65.2564C213.737 65.0516 214.378 64.8695 215.245 64.8695C217.793 64.8695 220.342 64.8695 222.891 64.8695C225.497 64.8695 228.063 64.5378 230.677 64.5378C232.157 64.5378 233.412 64.6154 234.808 64.2061C239.28 62.8951 244.521 63.5428 249.17 63.5428" stroke="#645841" stroke-linecap="round"/>
<path d="M250.729 63.8737C253.137 63.8737 255.396 63.0445 257.844 63.0445C260.001 63.0445 262.043 62.661 264.203 62.7497C269.807 62.9798 275.432 62.8787 281.042 62.8787C284.499 62.8787 287.956 62.8787 291.413 62.8787C292.308 62.8787 293.511 63.0376 294.387 62.8511C296.484 62.4043 298.323 61.8124 300.54 61.5797C302.918 61.33 305.285 61.2203 307.678 61.2203C308.943 61.2203 310.208 61.2203 311.474 61.2203C312.858 61.2203 314.341 61.4038 315.551 60.8887" stroke="#645841" stroke-linecap="round"/>
<path d="M184.21 59.0696C187.807 59.0696 190.683 57.0301 194.085 57.0301C196.284 57.0301 199.018 57.3663 201.101 56.6902C206.034 55.0893 211.062 55.5005 216.296 55.5005C222.159 55.5005 228.022 55.5005 233.885 55.5005" stroke="#645841" stroke-linecap="round"/>
<path d="M193.784 50.4012C200.124 50.4012 206.463 50.4012 212.803 50.4012C216.764 50.4012 222.454 51.3735 226.236 50.1745C227.843 49.6651 228.916 49.4542 230.625 49.3814C232.965 49.2817 234.916 48.0236 237.142 47.5685C241.183 46.7422 245.517 47.9472 249.444 46.832" stroke="#645841" stroke-linecap="round"/>
<path d="M95.6318 51.9306C98.2712 51.7576 101.174 51.5933 103.745 51.0808C106.268 50.5776 108.303 49.3812 110.927 49.3812C114.288 49.3812 117.192 49.8788 119.572 47.8516" stroke="#645841" stroke-linecap="round"/>
<path d="M59.7207 71.8173C63.4289 71.8173 67.6155 72.5355 70.7929 70.8259C72.5088 69.9026 75.1161 70.0627 77.0771 69.7495C81.8925 68.9803 86.5463 68.1772 91.441 67.7383" stroke="#645841" stroke-linecap="round"/>
<path d="M183.61 31.0273H199.171" stroke="#645841" stroke-linecap="round"/>
<path d="M209.943 144.217C209.943 154.85 208.994 165.788 210.542 176.339" stroke="#645841" stroke-linecap="round"/>
<path d="M213.534 152.887C214.723 155.291 214.133 158.53 214.133 161.101C214.133 163.186 214.627 165.811 213.534 167.673" stroke="#645841" stroke-linecap="round"/>
<path d="M127.949 108.527H145.904" stroke="#645841" stroke-linecap="round"/>
<path d="M133.339 137.59C138.538 137.59 143.7 137.08 148.9 137.08" stroke="#645841" stroke-linecap="round"/>
<path d="M137.526 131.981C141.248 131.871 146.123 131.888 149.496 130.451" stroke="#645841" stroke-linecap="round"/>
<path d="M22.0176 136.059H39.374" stroke="#645841" stroke-linecap="round"/>
<path d="M22.0176 105.977C22.0176 110.244 22.0176 114.512 22.0176 118.78C22.0176 122.967 24.2384 127.187 26.2071 130.96" stroke="#645841" stroke-linecap="round"/>
<path d="M20.8174 148.299C20.9632 151.591 22.5385 154.14 23.4774 157.25C24.2912 159.946 24.4084 162.337 24.4084 165.125C24.4084 173.414 23.0154 181.369 22.6129 189.599" stroke="#645841" stroke-linecap="round"/>
<path d="M27.4033 188.576C27.8286 191.475 37.7091 191.469 39.4398 191.607C50.1511 192.463 60.9463 192.145 71.6921 192.145" stroke="#645841" stroke-linecap="round"/>
<path d="M100.419 205.912H112.987" stroke="#645841" stroke-linecap="round"/>
<path d="M136.929 206.422H147.103" stroke="#645841" stroke-linecap="round"/>
<path d="M201.566 190.107C199.214 191.31 196.54 192.715 194.45 194.215C192.93 195.305 190.66 196.26 189.397 197.529C187.257 199.677 184.906 202.105 182.414 203.874" stroke="#645841" stroke-linecap="round"/>
<path d="M200.367 203.873C200.071 206.146 197.915 206.605 196.842 208.434C196.195 209.536 195.79 210.487 194.98 211.521" stroke="#645841" stroke-linecap="round"/>
<path d="M302.111 214.58C301.787 215.822 299.59 217.207 298.819 218.404C297.913 219.812 296.725 221.084 296.725 222.738" stroke="#645841" stroke-linecap="round"/>
<path d="M321.697 107.086H324.752" stroke="#645841" stroke-linecap="round"/>
<path d="M344.993 75.5254C344.098 77.5357 342.014 78.8567 341.471 80.984C340.969 82.9537 339.837 84.4338 338.883 86.2619" stroke="#645841" stroke-linecap="round"/>
<path d="M334.682 92.4453C334.5 95.3904 331.089 98.9545 329.229 101.284C328.547 102.139 328.601 103.021 327.808 103.833C327.014 104.644 326.138 105.413 325.898 106.435" stroke="#645841" stroke-linecap="round"/>
<path d="M331.245 81.707C331.19 83.3339 330.344 84.6933 329.462 86.1173C328.854 87.1002 328.086 88.495 327.256 89.3347C326.096 90.5082 325.627 92.2039 324.795 93.5642C323.504 95.6736 322.86 97.2214 322.461 99.6013" stroke="#645841" stroke-linecap="round"/>
<path d="M331.245 77.1533C331.292 76.4724 331.627 75.8971 331.627 75.2012" stroke="#645841" stroke-linecap="round"/>
<path d="M328.952 73.8985C325.277 73.8985 322.223 72.2993 318.641 71.6211" stroke="#645841" stroke-linecap="round"/>
</svg>
