<svg width="434" height="254" viewBox="0 0 434 254" fill="none" xmlns="http://www.w3.org/2000/svg">
<path d="M241.22 227.303C241.054 226.761 240.803 225.52 241.131 224.994C241.5 224.403 241.134 223.407 241.477 222.822C241.945 222.023 242.181 221.111 242.296 220.187C242.439 219.043 242.997 217.976 242.997 216.812C242.997 215.665 243.306 214.932 243.628 213.841C243.878 212.996 243.874 212.189 244.053 211.383C244.399 209.828 244.063 207.798 244.063 206.202C244.063 204.174 244.951 202.324 244.951 200.339C244.951 198.99 245.606 197.646 245.82 196.313C246.007 195.139 245.654 194.117 246.283 193.026C246.789 192.149 246.55 190.95 246.55 189.957C246.55 188.732 247.083 187.733 247.083 186.532C247.083 184.785 247.083 183.038 247.083 181.291" stroke="#645841" stroke-linecap="round"/>
<path d="M241.93 180.046C242.358 180.046 242.564 180.372 242.956 180.401C243.307 180.427 243.67 180.401 244.022 180.401C245.178 180.401 245.127 180.157 245.127 179.059C245.127 177.69 244.741 177.737 243.45 177.737C242.428 177.737 242.463 179.335 242.463 180.046" stroke="#645841" stroke-linecap="round"/>
<path d="M242.997 181.111C242.997 182.662 243.175 184.142 243.175 185.691C243.175 186.124 243.027 186.508 242.997 186.934C242.953 187.547 242.337 187.922 242.425 188.573C242.561 189.581 242.464 190.656 242.464 191.672C242.464 193.045 242.564 194.456 242.207 195.797C241.893 196.982 241.398 198.1 241.398 199.311C241.398 200.168 241.398 201.532 241.142 202.351C240.846 203.293 240.809 204.162 240.411 205.075C240.034 205.939 239.819 207.368 239.799 208.332C239.779 209.287 240.164 211.156 239.681 212.062C239.196 212.971 238.785 214.259 238.595 215.28C238.507 215.756 238.555 216.209 238.418 216.681C238.266 217.202 237.875 217.816 237.845 218.339C237.789 219.326 238.058 220.471 237.766 221.419C237.371 222.703 237.667 223.725 237.667 225.031C237.667 226.035 237.681 227.031 237.45 228.012C237.176 229.179 236.714 230.152 236.602 231.387" stroke="#645841" stroke-linecap="round"/>
<path d="M244.24 181.468C245.073 181.468 246.522 181.524 246.905 180.758" stroke="#645841" stroke-linecap="round"/>
<path d="M246.551 180.757C246.551 180.061 247.084 179.761 247.084 179.069C247.084 178.119 247.439 177.232 247.439 176.227C247.439 174.299 247.336 172.807 248.426 171.203C248.593 170.958 248.734 170.774 248.959 170.592C249.115 170.465 249.026 170.128 249.038 169.96C249.066 169.563 249.439 169.469 249.541 169.111C249.704 168.543 249.226 166.957 249.837 166.713C250.493 166.45 250.39 165.186 250.893 164.808C251.169 164.602 251.319 164.207 251.436 163.88C251.678 163.204 251.851 162.951 252.413 162.459" stroke="#645841" stroke-linecap="round"/>
<path d="M252.232 162.458C253.153 161.883 253.971 160.394 254.463 159.438C255.125 158.15 255.43 156.787 255.43 155.313C255.43 154.673 255.265 153.753 255.44 153.141C255.581 152.648 255.926 152.333 255.963 151.839C255.986 151.527 256.295 151.361 256.318 151.049C256.341 150.74 256.318 150.421 256.318 150.111C256.318 149.46 256.318 148.809 256.318 148.157C256.318 146.683 256.318 145.209 256.318 143.736C256.318 143.12 256.318 142.505 256.318 141.89C256.318 141.72 256.415 141.096 256.259 140.992C255.898 140.751 255.087 141.049 255.075 141.495C255.066 141.797 255.21 142.438 254.956 142.66C254.58 142.989 254.542 143.007 254.542 143.548C254.542 144.272 254.542 144.996 254.542 145.719C254.542 146.525 254.932 149.265 254.275 149.746C253.824 150.077 254.009 150.882 254.009 151.404C254.009 152.236 253.653 152.902 253.653 153.743C253.653 154.434 253.011 155.062 252.943 155.707C252.894 156.17 252.89 156.863 252.745 157.296C252.652 157.577 252.41 157.481 252.41 157.839C252.41 158.139 252.419 158.337 252.272 158.589C252.17 158.764 252.418 159.098 252.41 159.3C252.398 159.611 252.086 159.647 252.045 159.981C251.876 161.332 251.218 162.126 250.396 163.169C249.94 163.748 249.391 164.024 249.025 164.758C248.782 165.243 248.357 165.94 248.008 166.406C247.751 166.748 247.08 167.854 247.08 168.232C247.08 168.909 245.864 170.009 245.491 170.63C244.789 171.8 244.327 172.825 244.08 174.183C243.936 174.977 243.35 175.722 243.35 176.493C243.35 177.102 243.172 177.636 243.172 178.269" stroke="#645841" stroke-linecap="round"/>
<path d="M253.411 161.619C253.411 162.174 253.612 163.19 253.275 163.662C253.169 163.81 252.875 164.073 252.868 164.265C252.85 164.697 252.868 165.132 252.868 165.563C252.868 165.867 252.73 167.143 253.049 167.143C253.264 167.143 253.578 166.994 253.703 166.821C253.791 166.699 253.942 166.664 253.954 166.489C253.961 166.388 253.901 166.146 253.994 166.076C254.254 165.882 254.141 165.412 254.613 165.925C254.851 166.184 255.097 167.024 255.126 167.359C255.178 167.95 255.131 168.562 255.131 169.155C255.131 169.722 255.288 170.538 255.116 171.082C255.066 171.241 254.879 171.298 254.86 171.469C254.841 171.639 254.86 171.822 254.86 171.992C254.86 172.314 254.86 172.636 254.86 172.958C254.86 173.688 254.86 174.417 254.86 175.147C254.86 175.633 254.834 176.126 254.86 176.611C254.886 177.098 255.434 177.539 255.494 178.029C255.556 178.537 255.718 179.124 255.856 179.619C255.996 180.123 255.872 180.647 256.042 181.143C256.303 181.904 256.23 182.78 256.58 183.513C256.896 184.175 256.893 185.014 257.114 185.726C257.538 187.1 257.395 188.567 257.395 190.002C257.395 190.297 257.386 190.593 257.395 190.888C257.413 191.465 257.679 191.977 257.737 192.548C257.784 193.005 257.743 193.468 257.757 193.926C257.767 194.242 257.928 194.514 257.939 194.832C257.976 195.969 257.848 197.1 257.848 198.238C257.848 199.156 257.667 199.846 257.415 200.728C257.174 201.571 257.033 202.316 257.033 203.183" stroke="#645841" stroke-linecap="round"/>
<path d="M255.947 157.727C255.947 158.501 256.076 159.245 256.36 159.97C256.525 160.393 256.762 160.796 256.762 161.258C256.762 161.875 256.84 162.481 256.853 163.089C256.866 163.709 256.727 164.467 256.893 165.061C257.108 165.832 257.306 166.435 257.306 167.235C257.306 167.699 257.371 168.107 257.482 168.558C257.63 169.163 257.577 169.805 257.577 170.424C257.577 172.96 257.577 175.495 257.577 178.03C257.577 179.979 257.296 182.187 257.889 184.047C258.153 184.876 258.175 185.744 258.619 186.512C258.761 186.76 258.721 186.978 258.815 187.237C259.018 187.797 259.225 188.308 259.293 188.907C259.334 189.268 259.388 189.62 259.388 189.983C259.388 190.5 259.583 190.942 259.645 191.447C259.719 192.054 259.837 192.583 259.962 193.183C260.054 193.626 259.964 194.072 260.037 194.511C260.157 195.23 260.384 195.927 260.51 196.654C260.579 197.054 260.82 197.405 260.837 197.801C260.858 198.296 260.837 198.795 260.837 199.29" stroke="#645841" stroke-linecap="round"/>
<path d="M256.264 143.584C256.69 143.967 257.056 144.564 257.485 144.894C257.787 145.126 258.452 145.624 258.808 145.624C259.259 145.624 260.024 145.888 260.294 146.235C260.369 146.331 260.695 146.489 260.817 146.588C261.158 146.865 261.897 146.808 262.133 147.098C262.25 147.242 262.637 147.38 262.813 147.476C263.083 147.623 263.698 147.849 263.997 147.892C264.207 147.922 264.51 147.972 264.703 148.055C265.166 148.256 265.762 148.129 266.12 148.509C266.378 148.783 266.8 148.685 267.14 148.855C267.514 149.042 267.794 149.328 268.211 149.372C268.837 149.438 269.305 149.988 269.98 150.045C270.408 150.082 270.76 150.995 271.252 151.066C271.747 151.136 272.12 151.886 272.619 152.086C274.135 152.692 275.341 153.446 277.097 153.446C278.197 153.446 279.004 153.786 280.138 153.786C280.917 153.786 281.218 153.683 281.417 152.886C281.564 152.299 281.543 151.677 281.543 151.066" stroke="#645841" stroke-linecap="round"/>
<path d="M257.057 147.098H256.943" stroke="#645841" stroke-linecap="round"/>
<path d="M256.605 146.645C257.083 147.456 258.077 147.164 258.734 147.69C259.085 147.971 259.404 147.984 259.729 148.339C259.983 148.616 260.486 148.874 260.806 149.082C261.531 149.553 262.364 149.772 263.092 150.209C263.485 150.445 263.921 150.827 264.402 150.839C265.224 150.858 266.252 151.397 266.764 152.079C266.912 152.277 267.196 152.14 267.368 152.313C267.579 152.524 267.944 152.625 268.193 152.816C269.149 153.551 270.421 153.214 271.481 153.685C272.044 153.936 272.328 153.944 272.904 154.013C273.119 154.039 273.032 154.353 273.326 154.353C273.592 154.353 273.885 154.313 274.138 154.403C274.615 154.573 275.077 154.574 275.537 154.706C276.215 154.899 276.967 155.205 277.659 155.317C278.083 155.385 278.469 155.49 278.881 155.587C279.087 155.636 279.292 155.812 279.479 155.827C280.099 155.874 280.272 156.019 280.776 156.343C281.202 156.617 281.89 156.319 282.281 156.62C282.536 156.816 282.875 156.765 283.169 156.859C283.509 156.968 283.656 157.136 284.038 157.212C284.633 157.331 285.158 157.968 285.682 158.264C286.192 158.552 286.529 158.748 286.986 159.114C287.624 159.625 288.273 159.957 288.963 160.437C289.57 160.858 290.256 161.495 290.953 161.728C291.151 161.794 291.47 161.953 291.608 162.112C291.863 162.403 292.195 162.444 292.49 162.691C292.77 162.926 294.408 164.185 293.781 164.499C293.281 164.749 292.707 164.457 292.263 164.266C291.96 164.134 291.568 164.236 291.243 164.159C290.971 164.094 290.693 163.998 290.412 163.989C289.83 163.968 290.047 164.605 290.047 165.053C290.047 165.72 290.042 166.029 290.834 166.029C291.562 166.029 292.291 166.029 293.019 166.029C293.829 166.029 294.575 166.256 295.374 166.256" stroke="#645841" stroke-linecap="round"/>
<path d="M284.719 154.24H284.945" stroke="#645841" stroke-linecap="round"/>
<path d="M284.943 154.579C285.084 153.453 287.684 155.901 287.866 155.94C288.266 156.026 288.185 156.394 288.42 156.57C288.709 156.786 289.079 156.945 289.415 157.08C289.659 157.177 289.986 157.44 290.183 157.615C290.456 157.858 290.881 157.882 291.172 158.1C291.623 158.438 292.091 158.736 292.564 159.063C292.956 159.335 293.514 159.584 293.785 159.958C294.275 160.631 295.099 160.966 295.675 161.52C295.921 161.756 296.196 161.903 296.5 162.055C296.71 162.16 296.786 162.384 296.959 162.515" stroke="#645841" stroke-linecap="round"/>
<path d="M271.801 120.805C271.865 121.511 272.669 121.934 272.669 122.653C272.669 123.111 272.956 123.287 273.175 123.626C273.344 123.887 273.319 124.201 273.468 124.462C273.575 124.649 273.647 124.823 273.698 125.032C273.814 125.512 273.953 125.976 274.14 126.431C274.298 126.816 274.235 127.399 274.493 127.733C274.71 128.012 274.819 128.554 274.895 128.906C274.991 129.35 275.1 129.744 275.273 130.176C275.358 130.388 275.304 130.628 275.434 130.819C275.576 131.03 275.68 131.256 275.852 131.446C276.059 131.676 276.113 132.023 276.269 132.29C276.393 132.5 276.522 132.705 276.643 132.917C276.814 133.215 276.813 133.618 276.937 133.941C277.056 134.255 277.067 134.587 277.258 134.87C277.424 135.115 277.574 135.39 277.656 135.677C277.776 136.097 277.776 136.564 277.913 136.975C278.06 137.416 278.035 137.946 278.247 138.354C278.472 138.789 278.535 139.122 278.604 139.575C278.646 139.844 278.786 140.062 278.898 140.303C278.995 140.514 278.873 140.711 279.107 140.769" stroke="#645841" stroke-linecap="round"/>
<path d="M281.492 151.041C281.492 150.615 281.492 150.189 281.492 149.763C281.492 149.51 281.559 149.139 281.46 148.903C281.363 148.671 281.384 148.22 281.243 148.035C281.116 147.868 280.957 147.758 280.898 147.561C280.865 147.452 280.708 147.2 280.64 147.119C280.427 146.863 280.325 146.367 280.198 146.018C280.035 145.568 280.071 145.092 279.961 144.635C279.899 144.375 279.726 144.202 279.688 143.92C279.66 143.709 279.591 143.591 279.547 143.406C279.465 143.054 279.534 142.689 279.459 142.333C279.403 142.067 279.322 141.865 279.322 141.561C279.322 141.255 279.321 140.98 279.25 140.697" stroke="#645841" stroke-linecap="round"/>
<path d="M285.618 154.367C285.317 154.348 285.056 153.744 284.931 153.495C284.736 153.105 284.509 152.802 284.292 152.43C284.206 152.281 284.027 152.142 284.027 151.976C284.027 151.751 284.078 151.443 284.015 151.224C283.95 150.996 283.765 150.854 283.738 150.589C283.708 150.297 283.536 150.032 283.521 149.729C283.492 149.154 283.117 148.544 283.006 147.961C282.935 147.585 282.679 147.133 282.653 146.756C282.639 146.551 282.62 146.355 282.568 146.157C282.522 145.978 282.375 145.883 282.363 145.687C282.356 145.566 282.398 145.4 282.351 145.285C282.167 144.823 281.974 144.349 281.925 143.838C281.874 143.293 281.631 142.727 281.463 142.215C281.374 141.941 281.206 141.565 281.206 141.278C281.206 141.105 281.165 140.795 281.061 140.659C280.949 140.513 280.973 140.256 280.933 140.077C280.889 139.879 280.766 139.632 280.652 139.466C280.489 139.228 280.483 139.152 280.483 138.851C280.483 138.522 280.189 138.39 280.129 138.152C279.984 137.571 279.739 137.068 279.518 136.524C279.406 136.249 279.596 135.811 279.358 135.6C279.171 135.435 279.122 135.145 279.008 134.917C278.562 134.024 278.393 133.051 278.096 132.16" stroke="#645841" stroke-linecap="round"/>
<path d="M277.952 131.943C277.952 131.758 277.952 131.573 277.952 131.388C277.952 131.103 277.855 130.934 277.816 130.669C277.78 130.426 277.757 130.16 277.735 129.917C277.713 129.67 277.506 129.412 277.45 129.158C277.374 128.816 277.338 128.481 277.193 128.157C277.097 127.943 276.961 127.77 276.939 127.53C276.93 127.422 276.872 127.421 276.827 127.337C276.747 127.187 276.787 126.942 276.759 126.775C276.705 126.463 276.497 126.247 276.449 125.939C276.369 125.42 276.192 124.929 276.063 124.416C276.011 124.206 275.931 123.995 275.871 123.785C275.789 123.499 275.865 123.168 275.674 122.913C275.381 122.523 275.249 122.082 275.115 121.599C275.064 121.413 274.914 121.362 274.914 121.169C274.914 120.949 274.842 120.739 274.842 120.514" stroke="#645841" stroke-linecap="round"/>
<path d="M314.553 124.783C315.046 124.931 315.43 125.9 315.489 126.371C315.546 126.829 315.592 127.248 315.782 127.677" stroke="#645841" stroke-linecap="round"/>
<path d="M316.502 124.782C316.708 124.782 316.789 124.833 316.9 125.011C317.063 125.272 317.301 125.623 317.41 125.907C317.418 125.927 317.497 126.292 317.511 126.208C317.547 125.99 317.515 125.742 317.515 125.521C317.515 124.631 317.7 123.695 318.563 123.23C318.821 123.092 319.283 123.19 319.576 123.19C320 123.19 319.829 123.971 319.829 124.259C319.829 124.638 319.908 125.082 319.717 125.416C319.606 125.61 319.468 126.056 319.468 126.26C319.468 126.473 319.458 127.038 319.319 127.177C319.173 127.322 319.178 127.516 319.178 127.707C319.178 128.033 319.107 127.953 318.973 128.153C318.738 128.507 318.744 129.188 318.744 129.588C318.744 130.082 318.889 130.518 318.889 131.018C318.889 131.293 318.823 131.634 318.997 131.866C319.109 132.015 319.128 132.179 319.162 132.361C319.25 132.822 319.323 133.364 319.323 133.831C319.323 134.57 319.49 135.603 319.034 136.21" stroke="#645841" stroke-linecap="round"/>
<path d="M315.566 127.604C316.056 127.632 316.251 128.2 316.467 128.544C316.625 128.797 316.632 128.894 316.651 129.179C316.67 129.448 316.868 129.643 316.868 129.934C316.868 131.046 316.868 132.158 316.868 133.27C316.868 133.835 316.868 134.4 316.868 134.966C316.868 135.403 316.93 135.816 316.74 136.211C316.427 136.864 316.362 137.668 316.362 138.381" stroke="#645841" stroke-linecap="round"/>
<path d="M319.036 136.5C319.036 137.31 318.892 138.073 318.892 138.879C318.892 139.694 318.863 140.556 318.667 141.342C318.521 141.924 318.146 142.505 317.919 143.066C317.691 143.63 317.807 144.345 317.807 144.963" stroke="#645841" stroke-linecap="round"/>
<path d="M316.142 138.453C316.142 139.479 316.349 140.685 315.966 141.656C315.888 141.852 315.879 142.111 315.765 142.287C315.654 142.458 315.52 142.6 315.427 142.785C315.222 143.195 314.925 143.579 314.913 144.055C314.892 144.855 314.996 145.598 314.732 146.338C314.62 146.649 314.411 146.883 314.262 147.169C314.177 147.331 314.027 147.456 313.988 147.64C313.947 147.841 313.962 147.947 313.86 148.122C313.564 148.626 313.39 149.444 313.317 150.023C313.279 150.329 312.985 150.493 312.847 150.75C312.718 150.991 312.436 151.443 312.22 151.602C311.937 151.811 311.826 152.183 311.585 152.446C311.378 152.672 311.221 153.049 311.043 153.31C310.787 153.683 310.412 154.037 310.211 154.439" stroke="#645841" stroke-linecap="round"/>
<path d="M317.517 145.254C317.795 145.271 317.657 145.856 317.626 146.046C317.543 146.54 317.443 146.836 317.204 147.279C316.977 147.701 316.597 148.025 316.376 148.457C316.122 148.952 315.815 149.415 315.556 149.907C315.41 150.185 315.319 150.507 315.247 150.812C315.195 151.03 315.049 151.145 314.998 151.334C314.885 151.745 314.708 152.194 314.447 152.544C313.982 153.168 313.852 153.917 313.772 154.673C313.719 155.175 313.712 155.763 313.503 156.225C313.282 156.711 313.394 157.39 313.394 157.912C313.394 158.708 313.177 159.426 313.177 160.227C313.177 160.635 312.963 161.093 312.811 161.473C312.657 161.859 312.537 162.53 312.526 162.952C312.507 163.71 312.526 164.472 312.526 165.23C312.526 166.049 312.916 166.805 313.249 167.533" stroke="#645841" stroke-linecap="round"/>
<path d="M317.299 146.916C317.577 146.846 317.872 146.641 318.127 146.506C318.436 146.342 318.696 146.222 319.043 146.136C319.184 146.101 319.673 146.111 319.754 145.975C319.935 145.674 321.442 145.592 321.735 145.525C322.825 145.275 323.906 145.324 325.019 145.324C325.535 145.324 325.994 145.483 326.493 145.533C326.794 145.563 327.1 145.532 327.402 145.545C328.056 145.574 328.685 145.75 329.347 145.758C329.581 145.761 330.118 145.651 330.335 145.79C330.474 145.88 330.587 146.064 330.733 146.172C331.302 146.594 331.99 146.735 332.666 146.911C333.168 147.043 333.7 147.205 334.225 147.205" stroke="#645841" stroke-linecap="round"/>
<path d="M317.951 145.325C318.524 145.293 319.341 145.14 319.848 144.875C320.125 144.731 320.504 144.808 320.756 144.642C321.067 144.439 321.279 144.338 321.668 144.244C322.526 144.038 323.374 144.32 324.22 144.445C325.102 144.576 326.003 144.53 326.893 144.53C327.895 144.53 328.828 144.297 329.798 144.071C330.464 143.917 331.095 144.54 331.703 144.674C332.11 144.764 332.352 144.866 332.691 145.116C332.865 145.245 333.034 145.129 333.178 145.321C333.589 145.869 334.458 146.019 335.054 146.274C335.133 146.307 335.806 146.535 335.762 146.728C335.745 146.798 335.616 146.837 335.569 146.884C335.452 147.001 335.232 147.148 335.167 147.278" stroke="#645841" stroke-linecap="round"/>
<path d="M310.21 154.221C310.167 153.579 309.698 153.147 309.478 152.566C309.34 152.199 309.208 151.823 309.024 151.477C308.892 151.229 308.669 151.072 308.562 150.806C308.429 150.476 308.253 150.249 308.036 149.978C307.664 149.514 307.386 148.981 307.027 148.507C306.696 148.07 306.458 147.64 306.179 147.161C305.727 146.385 304.835 145.698 304.6 144.818C304.283 143.633 303.348 142.876 302.695 141.896C302.144 141.07 301.247 140.525 300.706 139.678C300.126 138.771 299.473 137.957 298.873 137.066C298.391 136.35 297.792 135.89 297.173 135.318C296.799 134.972 296.597 134.581 296.297 134.157C295.603 133.175 295.602 132.025 295.164 130.93" stroke="#645841" stroke-linecap="round"/>
<path d="M295.311 136.139C295.391 136.487 295.738 136.891 295.933 137.188C296.251 137.671 296.633 138.099 296.938 138.594C297.262 139.12 297.745 139.514 298.027 140.061C298.469 140.917 298.987 141.769 299.61 142.504C300.241 143.248 300.68 144.117 301.318 144.835C301.931 145.524 302.312 146.409 302.922 147.077C303.311 147.504 303.488 148.118 303.934 148.508C304.624 149.11 305.159 149.507 305.695 150.3C306.065 150.849 306.626 151.09 306.956 151.634C307.844 153.096 309.06 154.563 309.191 156.328C309.229 156.839 309.179 157.343 309.271 157.851C309.364 158.363 309.506 158.864 309.589 159.378C309.73 160.258 309.732 161.157 309.842 162.034C309.952 162.916 309.725 163.769 310.067 164.622C310.37 165.38 310.284 166.199 310.284 167.001C310.284 167.974 310.284 168.946 310.284 169.919" stroke="#645841" stroke-linecap="round"/>
<path d="M295.236 136.212C295.236 135.9 295.166 135.631 295.087 135.332C295.005 135.018 294.945 134.642 294.838 134.343C294.583 133.628 294.291 133.024 293.878 132.386C293.493 131.794 292.97 131.218 292.696 130.578C292.642 130.451 292.549 130.404 292.463 130.305C292.295 130.11 292.224 129.845 292.069 129.638C291.825 129.31 291.531 129.089 291.314 128.737C291.152 128.475 290.905 128.336 290.771 128.058C290.572 127.645 290.231 127.343 289.988 126.965C289.575 126.326 289.182 125.665 288.782 125.024C288.473 124.53 288.117 124.088 287.894 123.553C287.78 123.28 287.637 123.111 287.496 122.83" stroke="#645841" stroke-linecap="round"/>
<path d="M295.166 130.715C294.59 130.197 294.15 129.576 293.791 128.874C293.598 128.496 293.303 127.963 293.012 127.661C292.694 127.331 292.69 126.839 292.522 126.423C292.315 125.914 291.957 125.595 291.826 125.049C291.752 124.739 291.321 124.413 291.163 124.124C291.05 123.919 290.82 123.647 290.645 123.486C290.432 123.289 290.185 123.176 289.942 123.031C289.671 122.87 289.54 122.583 289.307 122.396" stroke="#645841" stroke-linecap="round"/>
<path d="M338.494 156.9C338.494 157.686 338.885 157.892 339.635 157.913C340.221 157.93 340.833 157.847 341.407 157.993C341.686 158.064 341.964 158.174 342.239 158.259C342.955 158.479 343.592 158.636 344.353 158.636C344.698 158.636 345.044 158.636 345.389 158.636C345.866 158.636 346.302 158.492 346.788 158.492C347.224 158.492 347.89 158.616 348.315 158.443C348.643 158.31 348.984 158.339 349.299 158.202C349.746 158.008 350.171 157.826 350.646 157.696C351.213 157.541 351.802 157.546 352.354 157.37C352.924 157.189 353.532 157.29 354.118 157.174C354.615 157.075 355.148 157.144 355.629 157.037C355.981 156.959 356.24 156.9 356.633 156.9C357.367 156.9 358.102 156.887 358.836 156.9C359.355 156.909 359.853 157.045 360.375 157.045C360.684 157.045 360.994 157.042 361.303 157.045C361.765 157.049 362.164 157.21 362.605 157.254C363.157 157.309 363.73 157.254 364.285 157.262C364.885 157.27 365.416 157.551 366.037 157.551C366.544 157.551 367.016 157.593 367.5 157.736C367.84 157.837 368.274 157.768 368.625 157.768C369.288 157.768 369.918 157.913 370.59 157.913C371.049 157.913 371.509 157.913 371.968 157.913C372.67 157.913 373.358 158.058 374.054 158.058C374.412 158.058 374.769 158.058 375.127 158.058C375.682 158.058 375.898 158.26 376.349 158.588C376.536 158.725 376.701 158.905 376.895 159.03C377.327 159.309 377.862 159.319 378.342 159.464C378.651 159.557 378.852 159.677 378.776 160.019C378.701 160.357 377.92 160.763 377.659 160.919C377.211 161.186 376.188 161.024 375.698 160.967C375.422 160.935 375.37 160.863 375.119 160.742C374.879 160.626 374.581 160.618 374.327 160.541C373.938 160.423 373.578 160.273 373.174 160.212C372.478 160.107 371.763 160.155 371.06 160.155C370.498 160.155 369.99 159.839 369.453 159.689C368.963 159.552 368.489 159.432 367.982 159.432C367.263 159.432 366.294 159.623 365.635 159.324C365.09 159.076 364.442 159.289 363.867 159.199C363.434 159.131 363.074 158.949 362.613 158.93C361.622 158.888 360.688 158.693 359.692 158.644C358.711 158.597 357.72 158.636 356.738 158.636C356.383 158.636 355.965 158.561 355.637 158.725C355.227 158.929 354.732 158.775 354.291 158.926C353.947 159.043 353.592 159.088 353.25 159.199C352.826 159.336 352.451 159.627 352.052 159.822C351.701 159.994 351.291 160.025 350.919 160.139C349.845 160.47 348.701 160.582 347.6 160.806C346.733 160.983 345.858 160.951 344.98 160.951C344.601 160.951 344.19 160.997 343.814 160.947C343.482 160.903 343.152 160.901 342.818 160.863C342.222 160.795 341.74 160.589 341.126 160.589C340.698 160.589 340.29 160.593 339.868 160.533C339.571 160.491 339.3 160.372 339 160.372C338.291 160.372 337.574 160.339 336.866 160.38C335.979 160.432 335.431 160.566 335.021 161.385" stroke="#645841" stroke-linecap="round"/>
<path d="M326.99 168.762C327.748 168.5 328.449 168.052 329.257 167.967C329.638 167.926 329.57 167.367 329.916 167.316C330.234 167.269 330.249 167.015 330.334 166.753C330.429 166.461 330.532 166.259 330.679 166.014" stroke="#645841" stroke-linecap="round"/>
<path d="M325.908 164.567C326.279 164.518 326.562 164.299 326.849 164.076C327.113 163.87 327.418 163.759 327.684 163.554C327.898 163.389 328.251 163.357 328.351 163.08C328.424 162.878 328.566 162.773 328.681 162.597C328.887 162.286 329.143 162.001 329.324 161.673C329.502 161.351 329.789 161.192 330.031 160.95C330.492 160.489 331.203 160.336 331.594 159.825C331.862 159.475 332.43 159.391 332.744 159.029C332.947 158.794 333.09 158.582 333.142 158.273" stroke="#645841" stroke-linecap="round"/>
<path d="M342.036 143.805C341.779 143.683 342.2 143.153 342.358 143.018C342.647 142.77 342.717 142.423 342.973 142.142C343.26 141.825 343.229 141.348 343.411 140.984" stroke="#645841" stroke-linecap="round"/>
<path d="M343.846 140.913C343.909 140.696 344.472 140.455 344.67 140.338C344.927 140.185 345.146 140.189 345.437 140.189" stroke="#645841" stroke-linecap="round"/>
<path d="M345.439 141.059C345.439 141.576 345.439 142.093 345.439 142.61C345.439 143.438 344.973 144.135 344.535 144.8C343.757 145.981 343.038 147.187 342.224 148.348C342.076 148.559 341.875 148.723 341.718 148.927C341.567 149.123 341.481 149.35 341.3 149.522C340.776 150.019 340.588 150.626 340.207 151.185C339.701 151.927 339.352 152.817 338.873 153.564C338.699 153.836 338.743 154.201 338.559 154.497C338.358 154.82 338.147 155.146 337.9 155.437C337.567 155.829 337.601 156.347 337.201 156.719C337.076 156.835 337.066 157.075 336.98 157.225C336.84 157.469 336.752 157.689 336.578 157.921C336.202 158.421 335.851 158.949 335.561 159.504C335.303 159.999 335.144 160.541 334.862 161.023C334.731 161.247 334.616 161.414 334.589 161.674C334.566 161.892 334.372 162.019 334.372 162.249C334.372 162.452 334.188 162.601 334.131 162.795C334.069 163.003 334.022 163.179 333.942 163.378C333.89 163.508 333.896 163.651 333.853 163.78C333.776 164.013 333.613 164.093 333.576 164.35" stroke="#645841" stroke-linecap="round"/>
<path d="M341.675 144.17C341.675 144.603 341.675 145.267 341.454 145.653C341.218 146.067 340.85 146.289 340.599 146.71C340.335 147.151 340.057 147.678 339.735 148.072C339.324 148.573 339.103 149.194 338.734 149.699C337.506 151.383 336.127 153.097 335.415 155.092C335.08 156.029 334.633 156.843 334.257 157.753C334.065 158.219 333.707 158.582 333.538 159.075C333.359 159.597 332.974 160.096 332.674 160.566C332.109 161.448 332.052 162.58 331.428 163.411C331.131 163.806 331.078 164.239 330.713 164.604C330.292 165.025 329.975 165.73 329.668 166.232" stroke="#645841" stroke-linecap="round"/>
<path d="M333.505 164.566C333.505 164.906 333.301 165.051 333.067 165.286C332.896 165.456 332.839 165.628 332.701 165.82C332.646 165.896 332.41 166.211 332.331 166.23C332.079 166.29 331.519 166.648 331.339 166.841C331.074 167.124 330.497 167.133 330.149 167.251C329.673 167.411 329.216 167.569 328.73 167.677" stroke="#645841" stroke-linecap="round"/>
<path d="M338.131 157.117C338.376 157.097 338.719 156.916 338.955 156.827C339.299 156.697 339.477 156.399 339.795 156.225C340.211 155.996 340.497 155.535 340.751 155.139C340.948 154.834 341.281 154.662 341.494 154.364C341.709 154.065 342.014 153.899 342.222 153.629C342.356 153.454 342.677 153.251 342.748 153.062C342.913 152.623 343.275 152.336 343.656 152.061C343.906 151.882 344.221 151.765 344.456 151.571C344.734 151.342 344.936 150.898 345.183 150.619C345.375 150.402 345.64 150.285 345.83 150.052C346.072 149.757 346.16 149.503 346.445 149.24C347.2 148.544 348.065 148.067 348.836 147.424" stroke="#645841" stroke-linecap="round"/>
<path d="M348.839 147.786C348.382 147.729 349.269 146.919 349.346 146.738C349.422 146.556 349.546 146.474 349.707 146.38C349.937 146.246 350.026 146.002 350.198 145.817C350.693 145.284 351.147 144.726 351.696 144.238C352.352 143.655 353.04 143.097 353.686 142.51C354.115 142.12 354.606 141.679 354.931 141.204C355.337 140.613 356.232 140.261 356.796 139.805C357.259 139.432 357.764 139.035 358.271 138.716C358.523 138.557 358.786 138.46 358.958 138.202C359.132 137.941 359.268 137.641 359.432 137.37C359.6 137.094 359.833 136.927 360.019 136.663C360.194 136.414 360.328 136.138 360.493 135.883C360.825 135.37 361.387 135.183 361.855 134.802C362.062 134.634 362.025 134.393 362.277 134.228C362.644 133.988 362.854 133.628 363.017 133.231C363.163 132.874 363.437 132.687 363.628 132.363C363.851 131.983 364.073 131.587 364.319 131.222C364.692 130.667 365.135 130.124 365.548 129.598C365.976 129.056 366.605 128.741 367.176 128.393C367.661 128.097 368.173 127.53 368.538 127.099C368.875 126.702 369.256 126.437 369.455 125.941" stroke="#645841" stroke-linecap="round"/>
<path d="M369.163 126.373C369.214 126.095 369.55 125.88 369.698 125.649C369.875 125.374 369.998 125.133 370.216 124.894C370.442 124.647 369.867 124.666 369.714 124.6C369.51 124.513 369.301 124.459 369.091 124.387C368.863 124.31 368.278 124.132 368.062 124.331C367.799 124.575 367.553 124.826 367.222 124.982C366.957 125.108 366.871 125.131 366.696 125.364C366.477 125.656 366.035 125.819 365.76 126.059C365.49 126.296 365.144 126.576 364.819 126.738C364.49 126.903 364.341 127.368 364.124 127.643C363.942 127.873 363.623 128.002 363.421 128.221C363.231 128.427 363.033 128.624 362.846 128.832C362.71 128.984 362.496 129.088 362.396 129.266C362.297 129.444 362.112 129.499 362.01 129.664C361.915 129.819 361.932 129.949 361.785 130.078C361.584 130.254 361.514 130.481 361.283 130.64C361.092 130.773 361.113 130.954 360.958 131.09C360.648 131.363 360.241 131.736 360.017 132.071C359.735 132.494 359.284 132.766 359 133.2C358.579 133.847 358.05 134.448 357.554 135.021C356.808 135.881 355.902 136.577 355.179 137.464C354.814 137.912 354.403 138.374 353.973 138.758C353.664 139.034 353.269 139.31 353.089 139.698C352.993 139.906 352.74 139.934 352.607 140.112C352.525 140.221 352.446 140.328 352.366 140.438C351.969 140.982 351.629 141.409 351.136 141.872C350.695 142.286 350.455 142.915 350.031 143.371C349.678 143.751 349.379 144.223 348.946 144.529C348.458 144.873 348.162 145.525 347.608 145.762C347.421 145.842 347.379 145.968 347.286 146.128C347.142 146.376 346.812 146.575 346.579 146.731C346.224 146.968 346.022 147.388 345.671 147.639C345.274 147.922 344.936 148.297 344.586 148.636C343.961 149.24 343.182 149.514 342.532 150.034C341.916 150.527 341.347 150.98 340.772 151.505C340.593 151.668 340.565 151.798 340.431 151.979C340.282 152.179 340.043 152.225 339.84 152.345C339.41 152.598 339.152 152.971 339 153.426" stroke="#645841" stroke-linecap="round"/>
<path d="M256.875 114.652C256.897 115.579 257.301 116.325 257.301 117.238C257.301 118.032 257.301 118.826 257.301 119.619" stroke="#645841" stroke-linecap="round"/>
<path d="M257.725 119.761C259.428 119.761 261.13 119.761 262.833 119.761C264.043 119.761 265.244 119.735 266.444 119.895C266.894 119.955 267.094 120.187 267.587 120.187C268.828 120.187 270.077 120.146 271.316 120.187C271.78 120.202 272.223 120.329 272.696 120.329C273.251 120.329 273.641 120.613 274.17 120.613C275.19 120.613 276.137 120.755 277.158 120.755C277.778 120.755 279.492 120.864 279.894 121.401C280.017 121.566 281.065 121.606 281.274 121.606C282.008 121.606 282.709 121.89 283.489 121.89C284.609 121.89 285.728 121.89 286.848 121.89C287.384 121.89 287.92 121.89 288.456 121.89C288.701 121.89 288.953 121.872 289.197 121.89C289.404 121.905 289.388 122.156 289.623 122.174C290.833 122.267 291.784 122.883 293.005 122.883C294.498 122.883 295.97 123.025 297.46 123.025C299.058 123.025 300.531 123.331 302.064 123.664C303.227 123.917 304.143 124.019 305.343 124.019C306.795 124.019 308.234 124.302 309.664 124.302C310.511 124.302 311.425 124.628 312.218 124.854C313.406 125.194 314.616 124.586 315.766 124.586" stroke="#645841" stroke-linecap="round"/>
<path d="M320.164 124.727C322.417 125.242 325.283 124.869 327.591 124.869C329.853 124.869 332.116 124.869 334.379 124.869C336.394 124.869 338.41 124.869 340.426 124.869C341.856 124.869 343.379 125.2 344.786 124.94C345.755 124.76 346.819 124.842 347.805 124.759C349.595 124.606 351.436 124.727 353.229 124.727" stroke="#645841" stroke-linecap="round"/>
<path d="M353.656 124.73C354.416 124.78 355.034 125.075 355.785 124.903C356.534 124.732 357.28 124.505 358.024 124.336C359.826 123.926 361.462 123.878 363.338 123.878C365.734 123.878 368.033 123.736 370.402 123.736" stroke="#645841" stroke-linecap="round"/>
<path d="M369.123 118.91C370.967 118.91 370.826 121.847 370.826 123.167" stroke="#645841" stroke-linecap="round"/>
<path d="M256.592 114.654C259.675 114.654 262.802 114.492 265.879 114.654C266.241 114.673 266.542 114.876 266.896 114.922C267.326 114.978 267.746 114.916 268.173 115.009C269.01 115.191 269.954 115.08 270.807 115.08C271.824 115.08 272.841 115.08 273.858 115.08C274.912 115.08 275.926 115.056 276.932 115.411C277.22 115.512 277.468 115.505 277.768 115.505C279.193 115.505 280.482 115.725 281.868 115.923C282.391 115.998 282.731 116.215 283.303 116.215C284.32 116.215 285.324 116.435 286.22 116.925C286.921 117.308 287.46 117.35 288.238 117.35C289.24 117.35 290.23 117.918 291.273 117.918C292.546 117.918 293.596 118.411 294.868 118.493C295.726 118.549 296.48 119.137 297.289 119.195C297.694 119.224 298.112 119.195 298.518 119.195C299.32 119.195 300.122 119.195 300.923 119.195C301.888 119.195 303.041 119.007 303.974 119.266C305.123 119.585 306.667 119.337 307.853 119.337C308.307 119.337 308.672 119.479 309.099 119.479C309.845 119.479 310.297 119.905 311.022 119.905C312.378 119.905 313.734 119.905 315.09 119.905C315.819 119.905 316.387 120.158 317.077 120.196C318.214 120.26 319.195 120.898 320.333 120.898C321.461 120.898 322.588 120.898 323.715 120.898C324.505 120.898 325.557 120.722 326.333 120.961C328.055 121.491 330.015 121.324 331.804 121.324" stroke="#645841" stroke-linecap="round"/>
<path d="M331.803 121.322H332.228" stroke="#645841" stroke-linecap="round"/>
<path d="M331.76 121.027C332.581 120.945 333.255 120.74 334.052 120.687C334.409 120.663 334.889 120.38 335.249 120.284C335.825 120.13 336.521 120.234 337.113 120.234C338.267 120.234 339.422 120.234 340.577 120.234C341.537 120.234 342.404 120.084 343.322 120.347" stroke="#645841" stroke-linecap="round"/>
<path d="M343.775 120.346H344.569" stroke="#645841" stroke-linecap="round"/>
<path d="M344.459 120.459C345.131 120.459 345.803 120.459 346.474 120.459C347.088 120.459 347.673 120.232 348.313 120.232C349.9 120.232 351.487 120.232 353.074 120.232" stroke="#645841" stroke-linecap="round"/>
<path d="M354.434 120.347C355.334 120.347 356.331 120.508 357.129 120.082C357.347 119.966 357.616 120.007 357.853 120.007C358.263 120.007 358.48 119.892 358.842 119.742C359.463 119.485 360.192 119.745 360.832 119.44C361.236 119.247 361.666 119.248 362.104 119.194C362.933 119.093 363.675 118.873 364.523 118.873C365.165 118.873 365.807 118.873 366.45 118.873" stroke="#645841" stroke-linecap="round"/>
<path d="M366.789 118.873H368.376" stroke="#645841" stroke-linecap="round"/>
<path d="M368.941 119.1H369.394" stroke="#645841" stroke-linecap="round"/>
<path d="M382.494 65.6465C382.494 68.3172 382.494 70.9878 382.494 73.6585C382.494 74.8443 382.494 76.0301 382.494 77.216C382.494 78.869 383.33 80.0478 383.33 81.6705C383.33 86.1251 383.33 90.5796 383.33 95.0342C383.33 99.9888 383.33 104.943 383.33 109.898C383.33 112.652 381.659 115.318 381.659 118.111C381.659 120.596 381.659 123.081 381.659 125.566C381.659 134.543 381.659 143.519 381.659 152.495C381.659 154.026 381.659 155.557 381.659 157.089C381.659 158.16 381.378 159.709 381.69 160.723C382.068 161.951 383.156 162.894 383.392 164.265C383.733 166.253 383.608 168.305 383.608 170.313C383.608 171.71 383.608 173.107 383.608 174.505C383.608 175.933 384.414 177.083 385.047 178.325C385.81 179.823 387.44 182.013 386.516 183.63C385.955 184.612 385.732 185.861 384.722 186.198" stroke="#645841" stroke-linecap="round"/>
<path d="M371.635 184.525C372.982 185.995 374.738 187.505 376.801 187.835C377.981 188.024 379.592 187.462 380.699 187.928C382.54 188.704 383.641 187.153 384.998 186.474" stroke="#645841" stroke-linecap="round"/>
<path d="M371.357 183.69C371.357 181.475 371.929 179.54 372.533 177.503C373.041 175.789 372.749 173.72 372.749 171.935C372.749 168.744 373.66 163.281 371.636 160.582" stroke="#645841" stroke-linecap="round"/>
<path d="M371.356 158.077C371.356 160.278 371.356 159.055 371.356 157.799C371.356 156.88 371.913 156.448 371.913 155.51C371.913 153.793 371.913 152.076 371.913 150.359C371.913 149.681 372.009 148.925 371.882 148.256C371.801 147.832 371.389 147.603 371.356 147.158C371.29 146.271 371.42 145.411 371.232 144.528C370.773 142.375 370.799 140.368 370.799 138.171C370.799 134.64 370.799 131.108 370.799 127.576C370.799 124.188 371.215 120.754 370.799 117.43" stroke="#645841" stroke-linecap="round"/>
<path d="M370.525 117.986C368.592 117.557 371.639 109.944 371.639 108.659C371.639 105.916 371.639 103.174 371.639 100.431C371.639 97.5564 371.105 94.0959 371.67 91.2742C372.455 87.3463 372.605 82.7002 371.855 78.6684C371.421 76.3364 371.639 73.8664 371.639 71.4917C371.639 69.9445 372.196 68.6688 372.196 67.0371" stroke="#645841" stroke-linecap="round"/>
<path d="M257.298 114.936C257.298 112.953 257.15 110.905 257.33 108.929C257.47 107.379 257.298 105.845 257.298 104.293C257.298 103.182 256.872 102.12 256.872 101.029C256.872 99.0054 256.872 96.9819 256.872 94.9583C256.872 93.2497 257.156 91.6204 257.156 89.9047C257.156 89.6268 257.093 89.2885 257.251 89.0454C257.581 88.5367 257.522 88.028 257.795 87.5002C258.136 86.8398 258.15 85.7922 258.15 85.0483C258.15 84.2167 258.297 83.2313 258.134 82.415C257.947 81.4809 257.496 80.5858 257.227 79.6714C257 78.8996 256.815 77.9125 256.738 77.1092C256.65 76.1801 256.305 75.3785 256.305 74.4207C256.305 73.6613 256.305 72.9018 256.305 72.1423C256.305 71.4369 256.589 70.9582 256.589 70.2344" stroke="#645841" stroke-linecap="round"/>
<path d="M256.305 69.8097C256.241 69.176 254.972 69.0134 254.468 68.9504C253.555 68.8362 252.689 68.3906 251.764 68.3906" stroke="#645841" stroke-linecap="round"/>
<path d="M250.629 68.957C250.629 73.422 250.629 77.8869 250.629 82.3518C250.629 84.7472 250.968 87.7129 250.069 89.9598C249.393 91.65 249.528 93.6951 249.494 95.4943C249.483 96.0672 249.352 96.619 249.352 97.1972C249.352 97.787 249.097 98.2706 249.068 98.8371C248.941 101.32 249.068 103.84 249.068 106.327C249.068 108.949 248.926 111.574 248.926 114.187C248.926 116.423 248.926 118.66 248.926 120.896C248.926 121.532 248.926 122.168 248.926 122.804C248.926 123.213 248.978 123.659 248.831 124.05C248.721 124.344 248.52 124.576 248.5 124.901C248.429 126.063 248.5 127.254 248.5 128.418" stroke="#645841" stroke-linecap="round"/>
<path d="M257.58 120.045C257.58 121.386 257.493 122.442 257.092 123.727C256.741 124.848 256.301 126.152 256.161 127.314C256.039 128.329 255.413 129.321 255.192 130.318C255.002 131.172 254.742 131.857 254.742 132.746C254.742 134.47 254.742 136.194 254.742 137.918C254.742 138.583 254.742 139.248 254.742 139.912C254.742 140.84 254.891 141.352 255.168 142.183" stroke="#645841" stroke-linecap="round"/>
<path d="M247.932 128.277C247.932 130.165 248.319 132.065 248.516 133.93C248.599 134.727 248.784 135.396 248.784 136.224C248.784 136.992 248.663 137.743 248.642 138.495C248.582 140.644 247.506 142.665 247.506 144.841C247.506 146.468 247.506 148.095 247.506 149.722C247.506 150.51 247.506 151.298 247.506 152.087C247.506 152.974 247.276 153.744 247.152 154.618C247.033 155.451 246.797 156.244 246.797 157.085C246.797 158.315 246.797 159.545 246.797 160.775C246.797 163.235 246.797 165.694 246.797 168.154" stroke="#645841" stroke-linecap="round"/>
<path d="M257.582 171.133C257.757 172.08 259.636 172.525 260.468 172.552C262.88 172.631 265.295 172.571 267.705 172.788C271.873 173.165 275.917 173.687 280.114 173.687C282.348 173.687 284.582 173.687 286.816 173.687" stroke="#645841" stroke-linecap="round"/>
<path d="M258.148 179.365C258.685 179.407 259.147 179.768 259.662 179.791C261.528 179.874 263.105 180.284 264.921 180.769C267.7 181.51 270.557 181.476 273.372 182.006C278.44 182.961 283.49 183.711 288.517 184.9" stroke="#645841" stroke-linecap="round"/>
<path d="M288.113 188.703C286.749 185.55 286.872 180.343 287.324 177.025C287.522 175.575 288.704 174.493 290.139 174.288C291.202 174.136 292.334 174.219 293.403 174.226C293.907 174.229 295.793 174.609 296.249 174.195C297.076 173.443 296.686 171.465 296.806 170.483C296.987 168.996 297.794 167.669 298.569 166.415C299.965 164.154 302.239 161.471 305.096 161.419C306.444 161.395 308.05 162.084 309.319 161.435C309.803 161.186 318.34 155.888 318.738 158.078C319.173 160.469 319.196 163.194 322.357 163.615C323.878 163.818 325.434 163.604 326.967 163.816C328.791 164.069 330.607 164.48 332.427 164.775C333.253 164.909 333.314 165.284 333.617 165.966C334.667 168.328 336.345 170.076 337.732 172.184C339.982 175.605 345.537 174.316 348.961 174.241C352.389 174.167 356.323 173.954 359.587 175.169C360.993 175.693 360.646 176.399 360.902 177.691C362.414 185.339 371.719 187.406 377.544 190.59C379.621 191.725 379.435 192.257 379.849 194.163C380.324 196.348 379.632 196.616 378.039 197.891" stroke="#645841" stroke-linecap="round"/>
<path d="M307.045 230.184C306.999 228.93 306.55 227.672 306.55 226.441C306.55 224.998 307.883 223.246 308.623 222.11C309.924 220.113 312.377 219.207 312.582 216.697C312.907 212.717 311.823 208.859 311.778 204.911C311.738 201.403 311.924 198.905 313.263 195.692C314.286 193.238 311.84 190.518 310.649 188.686C309.184 186.432 307.398 184.584 305.854 182.453C305.485 181.942 304.919 181.116 304.833 180.473C304.519 178.12 304.644 175.688 301.972 174.673C300.127 173.971 297.998 174.224 296.063 174.224C294.474 174.224 292.782 174.155 291.655 175.477C291.027 176.214 291.222 177.17 291.052 178.06C290.71 179.854 290.692 181.531 290.619 183.35C290.505 186.186 287.612 187.503 285.236 188.021C283.592 188.379 281.701 188.157 280.179 188.856C279.113 189.346 277.601 189.664 276.899 190.666C275.993 191.961 276.048 193.873 275.708 195.352C275.327 197.013 274.926 198.674 274.533 200.333C274.085 202.223 272.398 203.998 272.244 205.87C271.888 210.195 272.706 214.881 274.997 218.491C276.569 220.968 277.36 223.828 278.957 226.318C280.258 228.346 282.135 230.25 282.7 232.659C283.185 234.729 282.703 236.111 281.431 237.701" stroke="#645841" stroke-linecap="round"/>
<path d="M235.493 236.868C233.439 236.868 231.185 237.102 229.151 236.745C227.301 236.419 227.378 236.295 226.723 234.765C226.005 233.091 226.471 232.25 225.161 230.836C224.036 229.623 221.998 228.341 221.634 226.629C221.109 224.164 223.17 222.653 224.851 221.308C225.827 220.528 227.183 219.351 227.357 218.029C227.611 216.101 227.419 214.03 227.419 212.09" stroke="#645841" stroke-linecap="round"/>
<path d="M229.928 208.469C230.695 208.469 231.087 207.867 231.598 207.355" stroke="#645841" stroke-linecap="round"/>
<path d="M234.381 205.129C235.076 204.618 235.966 204.272 236.608 203.721C237.114 203.288 237.154 202.907 237.722 202.623" stroke="#645841" stroke-linecap="round"/>
<path d="M248.021 202.622C248.217 200.761 250.841 200.265 252.321 200.039C253.46 199.865 256.309 199.14 257.379 199.884C258.67 200.782 259.197 202.726 260.101 203.999C260.719 204.868 261.157 206.263 262.344 206.489C264.087 206.821 268.072 206.579 269.057 208.314C269.789 209.603 269.804 211.401 270.48 212.769C271.181 214.187 271.978 215.721 273.078 216.821" stroke="#645841" stroke-linecap="round"/>
<path d="M276.424 72.3281C274.784 74.4796 276.145 79.2434 276.145 81.7941C276.145 85.088 276.424 88.3854 276.424 91.7085C276.424 96.3487 276.424 100.989 276.424 105.629C276.424 107.568 276.424 109.506 276.424 111.445C276.424 112.871 276.182 114.283 276.981 115.482" stroke="#645841" stroke-linecap="round"/>
<path d="M280.318 112.975C281.391 112.975 282.746 113.221 283.783 112.944C284.367 112.788 284.742 112.096 285.33 111.861" stroke="#645841" stroke-linecap="round"/>
<path d="M279.482 106.293C280.63 105.753 281.825 105.625 282.978 105.164C284.196 104.677 285.308 103.861 286.443 103.23" stroke="#645841" stroke-linecap="round"/>
<path d="M281.986 80.9576C283.858 80.2445 285.915 80.0178 287.833 79.2871" stroke="#645841" stroke-linecap="round"/>
<path d="M285.053 75.6678C287.094 73.893 289.671 74.6065 291.735 73.1621" stroke="#645841" stroke-linecap="round"/>
<path d="M25.5684 126.712C25.5684 118.865 27.5059 113.089 30.6966 105.971C31.9279 103.224 34.2 102.92 37.0025 102.818C40.1078 102.705 46.1068 101.607 48.9685 103.084C53.3482 105.344 57.1328 103.282 61.5043 101.375C65.7322 99.5297 70.7341 98.3386 74.7239 96.0944C76.9004 94.8701 76.9459 94.09 79.3203 95.6385C85.5426 99.6965 92.6212 101.97 100.175 102.096C105.059 102.178 109.954 102.096 114.838 102.096C115.817 102.096 124.349 101.098 125.247 102.894C126.455 105.31 121.895 110.142 120.916 112.125C114.264 125.615 132.147 127.314 135.238 137.614C136.622 142.228 134.726 144.648 138.391 148.213C141.287 151.031 144.195 153.057 143.823 157.52C143.58 160.429 141.72 162.503 140.518 165.041C138.67 168.941 138.853 173.933 139.074 178.147C139.225 181.001 139.893 182.574 141.961 184.643C147.735 190.417 154.524 195.099 160.575 200.559C165.846 205.316 155.995 205.716 152.446 206.561C149.623 207.233 146.992 206.878 145.228 209.448C143.734 211.625 141.173 214.853 140.594 217.388C139.549 221.961 140.22 228.62 140.48 233.304C140.727 237.752 142.183 238.646 138.239 241.738C135.686 243.738 133.18 245.392 131.287 248.081C129.803 250.191 130.205 251.484 128.134 253.21" stroke="#645841" stroke-linecap="round"/>
<path d="M7.02086 181.796C7.02086 189.015 6.873 176.559 6.52703 174.92C5.54462 170.267 4.00036 165.739 2.95622 161.093C2.39435 158.593 0.406134 154.364 1.17082 151.71C2.88341 145.766 5.54872 140.256 7.02086 134.122C9.06503 125.605 8.26492 118.708 7.02086 110" stroke="#645841" stroke-linecap="round"/>
<path d="M207.449 250.474C207.449 245.373 211.723 239.733 214.439 235.279C217.298 230.59 222.473 227.985 223.86 222.439" stroke="#645841" stroke-linecap="round"/>
<path d="M233.434 205.345C237.409 204.26 238.387 197.059 241.373 194.404C243.943 192.12 246.039 189.122 247.793 186.199" stroke="#645841" stroke-linecap="round"/>
<path d="M156.17 178.678C154.54 182.753 153.069 185.325 149.332 187.567" stroke="#645841" stroke-linecap="round"/>
<path d="M387.968 202.611C387.968 199.814 387.828 192.405 390.741 190.949C393.029 189.805 393.932 186.77 396.135 185.669C398.915 184.278 398.302 182.85 399.06 180.046C399.562 178.191 400.895 176.657 402.783 176.628C406.408 176.57 412.919 175.672 416.002 178.071C420.367 181.466 418.047 185.525 415.319 188.935" stroke="#645841" stroke-linecap="round"/>
<path d="M409.162 200.56C410.671 203.012 411.156 203.456 413.531 205.005C413.867 205.224 417.486 207.99 415.468 208.082C414.133 208.142 411.509 202.983 411.061 201.776C408.5 194.858 414.292 191.138 420.102 188.556C422.578 187.456 425.753 189.582 427.092 191.367C427.937 192.494 429.675 190.941 429.675 193.039C429.675 194.431 429.675 195.824 429.675 197.217C429.675 201.498 429.064 208.144 432.182 211.652C434.813 214.612 430.489 216.905 427.624 218.338" stroke="#645841" stroke-linecap="round"/>
<path d="M151.719 182.912C152.268 182.867 152.131 182.197 152.476 181.809C152.747 181.504 152.594 181.09 152.933 180.721C153.284 180.339 153.486 179.678 154.021 179.475C154.646 179.238 155.37 179.267 156.023 179.049C157.941 178.41 159.548 179.624 160.462 181.146C160.904 181.883 161.369 182.479 161.369 183.401C161.369 184.313 160.348 184.661 159.587 184.458C158.295 184.113 156.702 184.12 155.487 183.48C154.724 183.078 153.598 183.408 153.138 182.487" stroke="#645841" stroke-linecap="round"/>
<path d="M226.788 193.129C226.373 193.104 225.732 192.137 225.653 191.741C225.556 191.257 225.14 191.182 225.306 190.495C225.645 189.092 227.266 188.496 228.436 187.886C228.759 187.718 229.073 187.754 229.422 187.736C229.74 187.719 229.983 187.474 230.305 187.452C230.9 187.413 231.52 187.208 232.11 187.381C232.599 187.525 233.243 187.387 233.6 187.846C234.135 188.534 234.595 188.748 235.413 189.021C235.635 189.095 235.981 189.666 236.036 189.888C236.137 190.291 236.44 190.605 236.549 191C236.646 191.354 236.615 191.625 236.801 191.962C237.619 193.444 234.678 193.412 233.963 193.412C232.536 193.412 231.264 193.43 229.879 193.05C228.987 192.805 227.85 192.703 226.93 192.703" stroke="#645841" stroke-linecap="round"/>
<path d="M149.446 172.693C149.446 173.336 149.354 174.354 150.021 174.688C150.475 174.915 150.908 175.121 151.401 175.279C152.328 175.577 153.331 175.322 154.286 175.61C155.233 175.896 156.321 175.696 157.251 176.028C157.834 176.236 158.194 176.667 158.843 176.667C159.859 176.667 160.687 177.099 161.697 177.203C163.133 177.35 164.49 177.67 165.907 177.936C166.683 178.082 167.539 178.321 168.288 178.543C168.802 178.695 169.633 178.789 170.054 179.048C170.2 179.138 170.493 179.079 170.653 179.079C170.986 179.079 171.1 179.285 171.395 179.347C171.847 179.443 172.326 179.365 172.774 179.521C173.271 179.694 173.485 179.871 174.059 179.97C175.497 180.218 176.88 180.924 178.364 180.924C178.669 180.924 178.783 181.046 179.058 181.145C179.829 181.424 180.807 181.533 181.612 181.681C182.481 181.841 183.376 181.673 184.237 181.87C184.821 182.004 185.372 182.343 185.98 182.343C186.27 182.343 186.417 182.332 186.626 182.556C187.059 183.02 188.585 182.831 189.149 182.879C190.281 182.977 191.251 183.337 192.397 183.337C193.329 183.337 194.075 183.762 194.991 183.762C195.662 183.762 196.19 184.092 196.844 184.172C198.026 184.318 199.237 184.509 200.423 184.598C200.585 184.61 201.25 184.501 201.353 184.708C201.586 185.173 201.99 185.04 202.489 185.04C203.578 185.04 204.47 185.488 205.532 185.686C206.35 185.839 207.097 185.891 207.929 185.891C208.943 185.891 209.531 186.276 210.499 186.325C212.578 186.429 214.552 187.16 216.506 187.673C216.964 187.793 217.453 187.642 217.902 187.76C218.288 187.86 218.475 188.05 218.911 188.099C219.953 188.214 220.985 188.445 222.033 188.445C222.818 188.445 223.605 188.456 224.39 188.445C225.369 188.432 226.071 187.736 227.071 187.736" stroke="#645841" stroke-linecap="round"/>
<path d="M238.422 188.731C238.328 188.742 237.737 188.976 237.996 189.077C238.849 189.411 239.894 189.298 240.787 189.298C241.898 189.298 242.395 189.61 242.395 188.478C242.395 188.175 242.583 185.887 242.301 185.782C241.585 185.517 240.471 185.75 239.699 185.75C239.025 185.75 238.379 185.619 237.712 185.609C236.666 185.591 235.603 185.678 234.559 185.609C233.638 185.547 232.578 185.116 231.689 184.867C230.589 184.56 229.542 184.366 228.394 184.331C227.548 184.306 226.934 184.058 226.155 183.795C225.406 183.542 224.536 183.551 223.758 183.401C222.886 183.233 221.881 183.054 220.998 183.054C220.247 183.054 219.077 183.302 218.491 182.833C218.116 182.533 216.516 182.689 216.11 182.66C215.354 182.605 214.681 182.638 213.966 182.345C213.499 182.153 213.161 182.061 212.657 182.061C211.035 182.061 209.435 181.351 207.817 181.351C206.985 181.351 206.289 181.082 205.499 180.862C204.525 180.592 203.56 180.518 202.558 180.429C201.057 180.295 199.538 180.358 198.033 180.358C195.948 180.358 193.118 180.714 191.118 180.129C190.324 179.897 189.612 179.478 188.824 179.357C187.444 179.144 186.093 178.544 184.725 178.395C183.704 178.283 182.728 178.054 181.705 177.93C180.258 177.754 178.916 177.25 177.495 177.078C174.308 176.692 171.184 175.748 168.05 175.036C167.285 174.862 166.627 174.452 165.843 174.39C164.678 174.296 163.52 174.029 162.35 173.964C161.86 173.937 161.588 173.708 161.152 173.554C160.774 173.421 160.391 173.46 160.008 173.381C158.726 173.115 157.551 172.978 156.216 172.978C154.002 172.978 151.807 172.553 149.586 172.553" stroke="#645841" stroke-linecap="round"/>
<path d="M150.299 172.41C150.843 172.356 151.979 172.082 152.396 171.732C152.916 171.296 153.545 170.754 154.225 170.636C154.834 170.531 155.202 170.303 155.802 170.281C156.25 170.265 156.542 169.856 156.969 169.856C158.46 169.856 160.052 169.733 161.478 170.218C162.304 170.5 163.307 170.55 164.056 170.991C164.969 171.528 166.096 171.219 167.092 171.48C167.705 171.641 168.273 171.932 168.889 172.095C169.641 172.293 170.331 172.341 171.089 172.481C171.666 172.588 172.254 172.609 172.831 172.725C173.514 172.863 174.215 173.228 174.912 173.262C176.121 173.32 177.346 173.262 178.555 173.262C179.853 173.262 181.282 173.441 182.544 173.719C183.767 173.988 184.78 174.255 186.045 174.255C187.368 174.255 188.694 174.23 190.018 174.255C191.024 174.274 192.004 174.632 193.014 174.681C194.091 174.733 195.295 174.823 196.357 175.035C197.558 175.276 198.681 175.39 199.904 175.39C200.669 175.39 201.228 175.816 201.962 175.816C203.281 175.816 204.458 176.345 205.778 176.455C206.54 176.518 207.335 176.458 208.088 176.589C208.935 176.736 209.522 177.276 210.406 177.267C211.532 177.255 213.029 177.547 214.103 177.945C215.37 178.414 216.76 178.319 218.053 178.607C220.228 179.09 222.329 178.947 224.439 179.711C226.049 180.293 227.873 180.027 229.54 180.349C231.842 180.795 234.102 181.067 236.454 181.067C236.712 181.067 236.824 181.062 237.03 181.209C237.542 181.574 238.481 181.314 239.088 181.492C239.873 181.723 240.646 181.723 241.405 182.06" stroke="#645841" stroke-linecap="round"/>
<path d="M247.365 182.061C248.018 181.643 249.21 181.466 249.21 182.471C249.21 182.858 249.259 183.158 248.958 183.448C248.561 183.831 248.359 183.73 248.359 184.331" stroke="#645841" stroke-linecap="round"/>
<path d="M250.063 183.055C250.063 184.311 250.063 185.567 250.063 186.823C250.063 187.676 248.835 188.286 248.076 188.589" stroke="#645841" stroke-linecap="round"/>
<path d="M237.575 179.932C236.894 179.781 237.575 178.398 237.575 178.016C237.575 177.416 237.962 176.909 238 176.416C238.043 175.862 237.591 175.982 237.283 175.674C237.061 175.453 236.388 175.391 236.085 175.391C235.357 175.391 235.588 176.308 235.588 176.841C235.588 177.621 235.453 178.354 235.162 179.08" stroke="#645841" stroke-linecap="round"/>
<path d="M164.771 170.281C165.066 169.949 164.772 169.642 165.197 169.43" stroke="#645841" stroke-linecap="round"/>
<path d="M165.482 167.584L165.908 167.301" stroke="#645841" stroke-linecap="round"/>
<path d="M164.916 169.429C164.916 169.075 164.721 167.907 165.066 167.734C165.305 167.615 165.537 167.585 165.799 167.585C166.143 167.585 166.347 167.301 166.651 167.301C167.781 167.301 167.007 170.215 166.761 170.707" stroke="#645841" stroke-linecap="round"/>
<path d="M161.082 164.605C161.082 165.174 160.597 167.633 161.034 167.948C161.491 168.277 162.096 168.863 162.674 168.863C163.279 168.863 163.883 168.863 164.488 168.863" stroke="#645841" stroke-linecap="round"/>
<path d="M160.941 164.322C161.595 164.032 161.988 163.751 162.502 163.273C162.91 162.895 163.646 162.77 163.969 162.414C164.407 161.93 164.615 162.121 165.27 162.044C165.732 161.989 166.152 161.768 166.618 161.768" stroke="#645841" stroke-linecap="round"/>
<path d="M161.938 164.32C161.999 164.808 162.877 164.604 163.246 164.604C163.814 164.604 164.15 164.886 164.689 165.006C165.665 165.223 166.799 164.772 167.756 165.046C168.638 165.298 169.528 165.473 170.421 165.771C171.858 166.25 173.557 166.126 174.851 166.922C175.298 167.197 176.048 166.977 176.554 167.017C176.835 167.039 177.03 167.246 177.295 167.316C177.621 167.403 177.994 167.3 178.328 167.3C179.49 167.3 180.651 167.3 181.813 167.3C183.447 167.3 185.063 167.442 186.693 167.442C187.738 167.442 188.882 167.309 189.91 167.529C190.499 167.655 191.211 167.832 191.731 168.144C192.135 168.387 192.583 168.326 193.016 168.578C193.886 169.084 195.361 169.168 196.343 169.319C198.307 169.621 200.145 170.422 202.169 170.422C202.811 170.422 203.509 170.755 204.132 170.919C204.922 171.127 205.858 171.299 206.671 171.384C207.898 171.513 209.175 171.416 210.408 171.416C211.602 171.416 212.767 171.274 213.956 171.274C215.183 171.274 216.351 171.558 217.566 171.558" stroke="#645841" stroke-linecap="round"/>
<path d="M222.674 172.693L222.957 172.977" stroke="#645841" stroke-linecap="round"/>
<path d="M217.562 171.842C218.545 171.842 219.528 171.842 220.511 171.842C221.058 171.842 221.604 171.842 222.151 171.842C222.705 171.842 222.862 172.268 223.397 172.268C226.124 172.268 228.852 172.268 231.58 172.268C232.49 172.268 233.07 172.693 233.945 172.693C234.666 172.693 235.183 173.097 235.869 173.229C236.422 173.336 237 173.207 237.556 173.269C238.777 173.404 239.586 173.943 240.741 173.978C241.514 174.002 242.278 174.112 243.051 174.112C244.1 174.112 245.209 174.837 246.228 175.106" stroke="#645841" stroke-linecap="round"/>
<path d="M167.754 169.432C167.99 168.646 170.048 169.006 170.702 169.006C171.852 169.006 172.733 169.155 173.856 169.4C176.075 169.884 178.255 170.447 180.518 170.78C181.847 170.975 183.22 170.665 184.523 171.064C186.024 171.523 187.645 171.124 189.182 171.482C189.673 171.596 190.04 171.702 190.546 171.702C191.78 171.702 192.98 172.253 194.212 172.38C196.988 172.668 199.619 173.831 202.443 173.831C204.554 173.831 207.08 173.563 209.05 174.407C210.163 174.884 211.572 175.065 212.803 175.234C213.264 175.298 213.668 175.382 214.127 175.487C215.576 175.818 216.759 176.044 218.243 176.133C219.822 176.228 221.275 176.795 222.862 176.811C223.391 176.817 223.945 176.763 224.471 176.827C225.759 176.983 226.972 177.555 228.279 177.647C230.169 177.78 232.127 177.663 234.026 177.663" stroke="#645841" stroke-linecap="round"/>
<path d="M238.993 178.371C237.923 178.371 238.464 178.655 239.214 178.655C239.85 178.655 240.486 178.655 241.122 178.655" stroke="#645841" stroke-linecap="round"/>
<path d="M166.902 161.484C167.612 162.139 168.625 161.91 169.536 161.91C170.264 161.91 170.593 162.336 171.27 162.336C173.004 162.336 174.584 162.825 176.3 162.903C177.273 162.948 178.315 163.511 179.28 163.692C180.491 163.919 181.737 164.039 182.97 164.039C184.01 164.039 184.756 164.289 185.745 164.512C186.587 164.702 187.501 164.606 188.362 164.606C189.758 164.606 191.104 165.032 192.525 165.032C193.103 165.032 193.866 164.924 194.433 165.095C195.268 165.347 196.153 165.283 196.972 165.521C198.254 165.894 199.535 166.087 200.835 166.372C203.738 167.01 207.022 165.863 209.775 167.019C212.588 168.2 215.875 167.87 218.842 167.87" stroke="#645841" stroke-linecap="round"/>
<path d="M219.549 167.869C222.074 167.869 224.6 167.869 227.125 167.869C229.369 167.869 231.851 167.984 233.992 168.721C235.021 169.075 236.084 169.364 237.154 169.564C238.392 169.796 239.594 170.14 240.851 170.14C242.007 170.14 243.579 169.846 244.667 170.282" stroke="#645841" stroke-linecap="round"/>
<path d="M167.328 160.633C167.449 159.88 168.698 159.982 169.275 159.828C170.544 159.491 171.446 159.133 172.405 158.267C174.194 156.654 176.497 155.382 178.933 155.177C180.963 155.006 183.017 155.11 185.051 155.098C185.476 155.096 186.736 155.21 187.133 154.893C188.017 154.185 188.889 153.584 189.608 152.686" stroke="#645841" stroke-linecap="round"/>
<path d="M185.49 162.901C185.916 162.361 186.779 162.026 187.367 161.655C188.829 160.733 190.574 160.353 192.247 160C193.526 159.73 194.276 158.954 195.369 158.336C196.234 157.847 197.228 157.651 198.144 157.28C198.989 156.936 199.768 156.439 200.533 155.947" stroke="#645841" stroke-linecap="round"/>
<path d="M223.24 162.335C223.787 162.199 224.301 161.669 224.77 161.374C225.621 160.837 226.535 160.388 227.434 159.939C228.649 159.331 230.116 159.209 231.235 158.441C231.835 158.029 232.412 157.599 233.032 157.227" stroke="#645841" stroke-linecap="round"/>
<path d="M247.221 161.057C246.113 162.817 244.656 163.739 243.098 165.038C242.199 165.787 241.341 166.677 240.473 167.474C239.166 168.675 238.188 170.125 237.004 171.416" stroke="#645841" stroke-linecap="round"/>
<path d="M211.175 160.633C210.435 160.855 209.763 161.864 209.102 162.281C207.906 163.033 206.941 164.191 205.641 164.748" stroke="#645841" stroke-linecap="round"/>
<path d="M202.807 153.111C204.691 152.743 206.747 152.969 208.657 152.969C209.81 152.969 210.964 152.969 212.118 152.969C214.328 152.969 216.538 152.969 218.748 152.969C220.446 152.969 222.143 152.969 223.841 152.969C225.072 152.969 226.383 152.818 227.57 153.182C229.444 153.756 231.495 154.388 233.459 154.388" stroke="#645841" stroke-linecap="round"/>
<path d="M232.465 154.957C232.465 156.068 231.739 156.234 230.714 156.234C230.066 156.234 229.418 156.26 228.775 156.171C227.787 156.035 225.971 156.296 225.164 155.666C224.575 155.207 223.698 155.249 222.988 155.178C221.535 155.032 220.07 155.004 218.62 154.831C217.631 154.713 216.67 154.423 215.672 154.389C214.415 154.346 213.291 154.673 212.061 154.673C210.016 154.673 207.972 154.673 205.927 154.673C204.903 154.673 202.096 155.218 202.096 153.68" stroke="#645841" stroke-linecap="round"/>
<path d="M200.679 153.253C199.967 153.226 199.263 153.034 198.551 152.969" stroke="#645841" stroke-linecap="round"/>
<path d="M197.271 153.109C197.862 152.473 198.974 151.281 198.974 150.334C198.974 149.635 199.116 148.923 199.116 148.198C199.116 147.328 199.037 146.672 198.864 145.872C198.665 144.949 198.222 144.071 198.123 143.144C198.091 142.843 197.869 142.606 197.768 142.324C197.635 141.952 197.697 141.515 197.697 141.126C197.697 140.42 197.806 139.402 198.123 138.768C198.53 137.953 198.526 137.053 198.943 136.253C199.168 135.821 199.04 135.39 199.179 134.945C199.367 134.345 199.4 133.877 199.4 133.242C199.4 132.054 198.881 130.958 198.706 129.781C198.557 128.774 197.981 127.895 197.981 126.856C197.981 126.019 197.802 124.939 198.154 124.16C198.411 123.593 198.507 123.029 198.549 122.409C198.575 122.019 198.817 121.71 198.833 121.29C198.855 120.672 199.701 120.49 199.81 119.973C199.99 119.118 200.252 118.457 200.252 117.553C200.252 117.022 200.526 115.539 200.157 115.109C199.658 114.526 199.42 113.857 198.974 113.232" stroke="#645841" stroke-linecap="round"/>
<path d="M198.551 112.667C198.613 112.04 199.033 111.248 199.45 110.901C199.791 110.616 199.508 108.979 199.544 108.551C199.565 108.306 199.723 108.338 199.875 108.204C200.056 108.046 199.97 107.619 199.97 107.408C199.97 106.948 199.97 106.488 199.97 106.028C199.97 104.562 199.97 103.095 199.97 101.629C199.97 100.153 199.874 98.6394 199.97 97.1667C200.037 96.1325 200.911 95.0095 201.216 94.0132C201.528 92.9915 201.957 92.0937 201.957 90.9858C201.957 90.2289 201.957 89.472 201.957 88.7152C201.957 87.9736 201.88 86.7514 201.531 86.0977C201.153 85.39 200.89 83.892 201.184 83.2122C201.318 82.9022 201.135 82.5205 201.271 82.2267C201.513 81.7028 201.624 81.57 201.673 80.9574C201.714 80.4355 202.099 80.0741 202.099 79.5225C202.099 79.0495 202.099 78.5765 202.099 78.1034C202.099 76.6494 202.323 75.0603 201.342 73.9565C200.179 72.6488 204.185 72.5059 204.795 72.5059" stroke="#645841" stroke-linecap="round"/>
<path d="M204.795 73.0735C209.079 73.0735 213.362 73.0735 217.646 73.0735C218.979 73.0735 220.147 72.965 221.454 72.7344C222.672 72.5195 223.763 72.222 225.009 72.222C228.387 72.222 231.778 72.0801 235.164 72.0801" stroke="#645841" stroke-linecap="round"/>
<path d="M200.819 72.9306C200.362 72.9306 199.685 72.7516 199.321 72.4734C198.845 72.109 200.617 71.4488 200.74 71.3617C202.4 70.1906 204.648 70.2343 206.614 70.2343C209.874 70.2343 213.127 70.2343 216.398 70.2343C216.692 70.2343 216.947 70.2257 217.234 70.1397C218.179 69.8561 219.024 69.8086 220.009 69.8086C221.914 69.8086 223.819 69.8086 225.725 69.8086C226.923 69.8086 228.121 69.8086 229.32 69.8086C231.343 69.8086 233.295 70.1942 235.304 70.2343C236.527 70.2588 237.896 70.0566 239.104 70.258C239.514 70.3264 239.752 70.6834 240.16 70.7704C240.541 70.8517 241.003 70.9028 241.343 71.1173C241.748 71.3735 240.789 71.8369 240.688 71.9373C240.393 72.2324 239.571 72.0792 239.167 72.0792C237.803 72.0792 236.469 72.1977 235.162 71.7953" stroke="#645841" stroke-linecap="round"/>
<path d="M235.018 72.3633C235.018 73.0353 235.192 73.5443 235.428 74.1845C235.76 75.088 235.585 76.2384 235.585 77.1882" stroke="#645841" stroke-linecap="round"/>
<path d="M235.019 77.4727C235.019 80.642 235.019 83.8113 235.019 86.9807C235.019 90.3947 234.593 93.707 234.593 97.1351C234.593 97.5136 234.593 97.892 234.593 98.2704C234.593 98.7326 234.329 99.0649 234.31 99.5003C234.27 100.385 234.31 101.279 234.31 102.165C234.31 102.877 234.72 103.345 234.735 104.057C234.753 104.866 234.735 105.677 234.735 106.485C234.735 107.069 234.735 107.652 234.735 108.236C234.735 108.783 234.988 110.151 234.593 110.546C234.209 110.93 234.31 112.149 234.31 112.666C234.31 113.329 234.31 113.991 234.31 114.653C234.31 116.12 234.31 117.586 234.31 119.052C234.31 119.753 234.026 120.351 234.026 121.102C234.026 122.006 234.026 122.91 234.026 123.814C234.026 124.937 234.31 126.021 234.31 127.173C234.31 128.771 234.31 130.368 234.31 131.966C234.31 132.558 234.31 133.149 234.31 133.74C234.31 134.046 234.285 134.26 234.152 134.544C233.892 135.1 233.903 135.692 233.679 136.224C233.19 137.384 233.316 139.093 233.316 140.371C233.316 141.166 233.098 142.308 232.67 143.004C232.488 143.299 232.465 143.9 232.465 144.242C232.465 144.833 232.039 145.355 232.039 146.015" stroke="#645841" stroke-linecap="round"/>
<path d="M232.323 144.738C232.323 146.124 232.656 147.983 232.213 149.311C231.73 150.759 231.33 152.152 231.33 153.679" stroke="#645841" stroke-linecap="round"/>
<path d="M234.577 87.2734C234.524 87.6927 231.433 87.4545 230.773 87.4545C229.798 87.4545 228.877 87.7262 227.896 87.7262C227.495 87.7262 227.094 87.7262 226.694 87.7262C224.643 87.7262 222.592 87.7262 220.541 87.7262" stroke="#645841" stroke-linecap="round"/>
<path d="M220.449 87.6354C219.869 87.5066 220.569 85.6527 219.785 86.101C219.53 86.2469 219.379 86.6736 219.176 86.911C218.882 87.2544 218.78 87.6963 218.457 88.0429C218.361 88.1457 218.058 88.1499 218.024 88.2391C217.973 88.3724 217.973 88.6703 218.014 88.8126C218.111 89.1531 218.482 89.402 218.643 89.7231C218.787 90.0117 219.058 90.2264 219.407 90.0652C219.552 89.9986 219.8 89.7901 219.815 89.6276C219.823 89.5446 219.871 89.3098 219.966 89.2754C220.371 89.1282 220.944 89.3185 221.374 89.2452C221.925 89.1515 222.438 89.1628 222.984 89.2452C223.63 89.3427 224.322 89.2653 224.976 89.2653C225.365 89.2653 225.754 89.2653 226.144 89.2653C226.492 89.2653 226.759 89.1056 227.079 89.0842C227.744 89.0399 228.425 89.0842 229.092 89.0842C229.508 89.0842 229.858 89.2029 230.264 89.2553C230.471 89.2821 230.771 89.1971 230.953 89.3257C231.2 89.5 231.231 89.537 231.547 89.537C231.897 89.537 231.862 89.6001 232.08 89.7684C232.338 89.9681 233.092 89.845 233.418 89.9042C233.642 89.945 233.798 90.0803 234.032 90.0803" stroke="#645841" stroke-linecap="round"/>
<path d="M205.871 113.99C205.415 113.99 205.599 113.363 205.599 113.014C205.599 112.639 205.794 112.432 206.032 112.158C206.202 111.963 206.143 111.642 206.143 111.404C206.143 111.113 206.408 111.024 206.414 110.75C206.417 110.624 206.264 110.387 206.213 110.257C205.944 109.571 205.331 109.672 204.749 109.467C204.133 109.249 203.802 108.419 204.659 108.37C205.187 108.34 206.143 108.489 206.143 107.787C206.143 107.343 206.089 106.864 206.148 106.423C206.226 105.832 206.808 105.72 207.28 105.458C207.646 105.254 208.227 105.502 208.386 105.9C208.507 106.202 208.359 106.366 208.618 106.635C208.75 106.773 208.723 106.882 208.809 107.037C208.895 107.194 209.018 107.403 209.04 107.58C209.066 107.788 209.37 107.829 209.453 108.053C209.666 108.635 209.615 109.124 209.347 109.658C209.157 110.038 208.659 110.186 208.507 110.508C208.408 110.718 208.275 110.893 208.17 111.102C207.829 111.785 208.01 112.517 207.949 113.25C207.902 113.812 207.335 114.139 206.998 114.427C206.898 114.513 206.438 114.453 206.324 114.432C205.796 114.336 205.484 113.785 205.328 113.356" stroke="#645841" stroke-linecap="round"/>
<path d="M233.202 125.948C232.816 125.994 232.643 126.289 232.287 126.368C231.743 126.489 231.183 126.359 230.632 126.504C229.703 126.749 228.606 126.616 227.654 126.616C226.151 126.616 224.648 126.616 223.144 126.616C222.312 126.616 221.522 126.854 221.155 126.06C220.952 125.618 220.525 125.499 220.525 124.948C220.525 124.565 220.621 124.43 220.488 124.873C220.248 125.673 219.245 126.61 218.721 127.283C217.799 128.468 217.609 128.171 218.054 129.618C218.24 130.221 218.589 130.363 219.018 130.792C219.492 131.266 218.921 130.467 219.537 130.125C220.214 129.748 220.205 129.507 221.069 129.507C221.777 129.507 222.486 129.507 223.194 129.507C224.858 129.507 226.522 129.507 228.185 129.507C229.978 129.507 232.314 129.174 233.869 129.952" stroke="#645841" stroke-linecap="round"/>
<path d="M123.295 109.912C125.596 109.912 127.872 110.191 130.178 110.191C134.72 110.191 139.237 110.14 143.634 111.459C148.224 112.836 152.96 113.615 157.539 114.923" stroke="#645841" stroke-linecap="round"/>
<path d="M126.08 118.822C136.746 118.822 147.439 118.637 158.097 119.1" stroke="#645841" stroke-linecap="round"/>
<path d="M158.098 150.56C157.778 147.359 153.998 144.295 151.88 142.177C150.641 140.938 148.864 140.739 147.673 139.548C146.422 138.297 145.179 137.023 143.946 135.727C143.26 135.008 143.08 133.899 142.6 133.021C141.876 131.697 140.572 130.572 140.063 129.123C139.54 127.635 138.305 127.275 137.558 126.06C136.943 125.062 135.547 124.674 135.547 123.555" stroke="#645841" stroke-linecap="round"/>
<path d="M159.49 146.106C159.49 144.618 159.902 142.416 158.144 141.713C157.265 141.361 156.406 139.856 155.577 139.718C154.636 139.561 154.231 138.87 153.458 138.372C152.34 137.652 151.118 137.075 149.993 136.361C149.193 135.853 148.714 135.026 147.859 134.629C145.798 133.672 145.196 131.531 143.652 130.097C143.315 129.784 142.813 128.059 142.786 127.607C142.708 126.337 141.86 125.8 141.672 124.668" stroke="#645841" stroke-linecap="round"/>
<path d="M151.137 134.97C149.894 134.97 149.019 134.412 148.926 133.006C148.816 131.357 151.176 129.995 152.344 129C153.49 128.024 154.2 125.415 154.2 123.988C154.2 122.539 154.976 121.914 156.149 121.328" stroke="#645841" stroke-linecap="round"/>
<path d="M152.805 134.411C151.145 134.204 154.231 129.922 154.6 129.4C155.413 128.248 157.017 127.242 157.631 126.059C158.169 125.023 158.374 123.053 158.374 121.883" stroke="#645841" stroke-linecap="round"/>
<path d="M149.467 142.486C148.245 143.463 145.707 141.158 144.239 141.094C142.925 141.037 141.595 141.094 140.279 141.094" stroke="#645841" stroke-linecap="round"/>
<path d="M147.24 140.817C146.386 140.661 145.752 139.926 144.889 139.718C143.673 139.427 142.415 139.383 141.239 138.93C139.117 138.111 137.655 135.686 136.104 134.135" stroke="#645841" stroke-linecap="round"/>
<path d="M159.77 164.203C159.77 162.109 159.77 160.016 159.77 157.923C159.77 156.806 160.605 156.173 160.605 155.154C160.605 154.309 160.605 153.463 160.605 152.618C160.605 148.425 161.162 144.238 161.162 139.996C161.162 138.07 161.856 136.236 162.012 134.289C162.181 132.179 162.275 130.125 162.275 127.994C162.275 125.901 162.832 124.068 162.832 122.039C162.832 120.178 162.832 118.317 162.832 116.455C162.832 112.491 162.832 108.526 162.832 104.561C162.832 103.642 162.768 102.694 162.832 101.777C162.88 101.097 163.463 100.883 163.621 100.277C163.805 99.5703 163.571 98.8629 163.853 98.1576C164.238 97.194 164.352 95.9736 164.843 95.0951C165.448 94.0103 165.33 92.98 165.74 91.878C166.908 88.7382 165.895 84.8873 165.895 81.6077C165.895 78.2235 166.173 74.8226 166.173 71.4922" stroke="#645841" stroke-linecap="round"/>
<path d="M173.964 72.0488C173.964 73.9049 173.964 75.761 173.964 77.617C173.964 78.4204 174.165 79.5267 173.84 80.2774C173.531 80.9923 172.894 81.6547 172.85 82.4737C172.671 85.7942 173.5 89.5723 172.433 92.7749C172.201 93.4686 171.994 93.8807 171.644 94.5381C171.182 95.4048 171.458 96.8246 171.458 97.7863C171.458 100.104 171.18 102.364 171.18 104.685C171.18 106.662 170.623 108.553 170.623 110.469C170.623 112.418 170.623 114.367 170.623 116.316C170.623 118.028 170.623 119.739 170.623 121.451C170.623 123.485 171.098 125.233 171.474 127.236C172.219 131.214 173.175 135.872 171.644 139.764C171.317 140.595 171.458 141.61 171.458 142.486C171.458 143.653 170.89 144.081 170.669 145.147C170.293 146.968 169.806 148.87 169.525 150.7C169.351 151.831 168.734 152.731 168.674 153.963C168.636 154.744 168.117 154.963 168.117 155.85C168.117 156.964 168.117 158.077 168.117 159.191" stroke="#645841" stroke-linecap="round"/>
<path d="M190.391 154.179C190.391 151.236 191.594 148.812 191.783 145.889C191.847 144.898 192.339 144.025 192.339 143.012C192.339 141.912 192.382 140.802 192.339 139.702C192.308 138.891 191.783 138.369 191.783 137.49C191.783 136.433 191.783 135.377 191.783 134.32C191.783 127.318 191.783 120.317 191.783 113.315C191.783 109.354 191.504 105.46 191.504 101.498C191.504 99.6628 191.504 97.8273 191.504 95.9919C191.504 95.1927 191.504 94.3936 191.504 93.5945C191.504 92.5365 192.025 91.6641 192.061 90.6093C192.264 84.6224 192.339 78.5818 192.339 72.6055" stroke="#645841" stroke-linecap="round"/>
<path d="M29.8477 65.5131C39.6889 65.5131 49.5302 65.5131 59.3715 65.5131C61.9855 65.5131 64.6119 65.581 67.2251 65.5131C69.3308 65.4584 71.1575 64.6405 73.285 64.6405C80.977 64.6405 88.669 64.6405 96.361 64.6405C102.663 64.6405 108.966 64.6405 115.268 64.6405C119.364 64.6405 123.461 64.6405 127.557 64.6405C131.124 64.6405 136.135 65.6611 139.023 63.6224C140.423 62.6336 144.088 63.3315 145.64 63.3315C151.231 63.3315 156.823 63.3315 162.414 63.3315C164.905 63.3315 167.02 63.6063 169.225 62.6528C171.543 61.6503 175.544 62.4589 178.073 62.4589C184.884 62.4589 191.695 62.4589 198.507 62.4589C207.596 62.4589 216.686 62.4589 225.776 62.4589C232.523 62.4589 239.269 62.4589 246.016 62.4589C251.17 62.4589 256.306 63.6428 261.432 63.2831C276.229 62.2447 291.061 62.8952 305.936 62.8952C315.115 62.8952 324.294 62.8952 333.472 62.8952C341.709 62.8952 349.958 62.5362 358.148 62.4589C364.282 62.4011 369.756 60.2774 375.746 60.2774C378.309 60.2774 380.098 59.1463 382.63 59.4532C385.693 59.8245 388.389 60.2181 391.502 60.2774C393.392 60.3134 395.438 60.3703 397.126 61.3197C398.559 62.126 401.259 61.5863 402.822 61.5863C411.569 61.5863 419.907 64.2042 428.637 64.2042" stroke="#645841" stroke-linecap="round"/>
<path d="M423.4 65.5137C422 65.5561 421.576 65.6751 420.709 66.6287C419.303 68.1752 415.581 69.2275 413.583 69.6102C409.978 70.3005 406.969 71.6049 403.572 73.1249C396.631 76.23 388.522 76.9084 381.514 79.912" stroke="#645841" stroke-linecap="round"/>
<path d="M362.755 86.0195C362.717 86.3217 360.661 88.0781 360.307 88.1526C357.259 88.7943 353.957 89.0143 350.975 89.9463C348.365 90.7618 346.174 92.0249 343.461 92.1279C340.896 92.2253 337.533 93.6132 335.268 94.7458" stroke="#645841" stroke-linecap="round"/>
<path d="M429.947 61.5872C431.048 59.2474 430.82 56.7499 430.82 54.1699" stroke="#645841" stroke-linecap="round"/>
<path d="M428.639 52.8609C413.61 52.8609 398.634 53.2972 383.602 53.2972C378.876 53.2972 374.149 53.2972 369.422 53.2972C359.847 53.2972 350.251 52.4246 340.723 52.4246C320.612 52.4246 300.501 52.4246 280.39 52.4246C271.538 52.4246 262.712 51.9883 253.872 51.9883C250.742 51.9883 247.494 52.4112 244.419 52.9579C238.472 54.0151 231.962 53.2972 225.948 53.2972C212.358 53.2972 198.768 53.2972 185.177 53.2972C179.562 53.2972 173.946 53.2972 168.331 53.2972C159.89 53.2972 151.412 53.5396 142.976 53.2487C140.664 53.169 138.793 52.4246 136.504 52.4246C126.671 52.4246 116.838 52.4246 107.005 52.4246C103.345 52.4246 100.075 52.7671 96.4604 53.1033C88.9554 53.8014 81.2654 53.2972 73.7237 53.2972C68.1082 53.2972 62.4926 53.2972 56.8771 53.2972C51.5463 53.2972 47.0093 53.5517 43.1333 57.8058C41.0942 60.0439 37.8031 59.4065 35.5221 61.0539C34.2798 61.9511 31.3244 63.0016 30.7227 64.205" stroke="#645841" stroke-linecap="round"/>
<path d="M111.877 51.1143C114.606 49.1074 117.689 49.1966 120.7 47.8662C122.1 47.2477 123.382 46.5929 124.797 45.9997C126.11 45.4489 129.005 44.4336 129.984 43.4546C133.735 39.703 138.792 36.3811 143.728 34.9707" stroke="#645841" stroke-linecap="round"/>
<path d="M141.107 34.9709C147.25 34.9709 153.279 33.662 159.457 33.662C162.703 33.662 165.603 32.7498 168.789 32.4257C172.465 32.0519 176.297 32.353 179.988 32.353C187.801 32.353 195.614 32.353 203.427 32.353C208.687 32.353 213.947 32.353 219.207 32.353C223.434 32.353 228.692 33.227 232.83 32.1591C238.194 30.7748 244.137 31.4804 249.652 31.4804C254.843 31.4804 260.074 31.6624 265.262 31.4804C266.572 31.4345 267.449 30.6041 268.656 30.2199C271.278 29.3858 274.254 29.7832 276.97 29.517C279.232 29.2953 281.465 29.2988 283.733 29.2988C286.593 29.2988 289.454 29.2988 292.314 29.2988C295.15 29.2988 294.12 36.8987 292.75 38.8007C292.059 39.7605 291.352 39.1681 291.199 40.6429C291.08 41.7851 290.201 42.0379 289.599 42.9215C287.758 45.6212 287.272 46.9902 287.272 50.2418" stroke="#645841" stroke-linecap="round"/>
<path d="M293.816 30.6074C295.476 30.7303 296.245 31.1149 296.434 32.692C296.534 33.5251 297.697 33.3845 297.743 34.6312C297.819 36.6824 298.18 38.7297 298.18 40.8608C298.18 42.8307 297.271 50.6687 299.052 51.1141" stroke="#645841" stroke-linecap="round"/>
<path d="M100.095 55.0428C97.3481 55.0428 94.9895 54.94 92.3867 55.8184C87.7175 57.3943 83.0198 57.7221 78.2793 58.9696" stroke="#645841" stroke-linecap="round"/>
<path d="M147.215 50.6778C150.65 50.0075 152.653 47.5765 155.602 45.7814C158.66 43.92 161.853 42.0358 165.104 40.6426" stroke="#645841" stroke-linecap="round"/>
<path d="M165.541 46.7509C165.681 44.3761 168.926 43.3089 170.243 41.709C171.763 39.8638 174.066 39.434 176.013 38.4609" stroke="#645841" stroke-linecap="round"/>
<path d="M277.674 50.6793C278.626 49.5154 279.398 48.3471 280.461 47.2373C282.843 44.7519 283.619 41.3075 286.836 39.6988C290.923 37.6555 293.027 33.9061 294.254 29.7363" stroke="#645841" stroke-linecap="round"/>
<path d="M35.5723 44.2199C35.5723 34.5495 44.4441 34.9345 51.7763 34.9345C59.0055 34.9345 67.88 36.6187 74.6561 33.5386C77.3863 32.2976 80.0799 30.8266 82.3333 28.8352C84.7075 26.7371 86.8809 24.5566 90.1925 24.5566" stroke="#645841" stroke-linecap="round"/>
<path d="M103.301 23.4629C106.41 25.9803 118.021 26.4127 120.233 23.4629" stroke="#645841" stroke-linecap="round"/>
<path d="M119.143 25.6491C121.36 25.4157 122.801 23.5959 124.18 22.0078C126.199 19.6819 128.202 18.0484 130.916 16.6368C134.688 14.6754 137.342 13.0865 141.749 13.0865C145.3 13.0865 148.852 13.7066 152.34 14.3003C154.07 14.5948 155.392 15.1241 156.861 13.8754C158.015 12.8947 159.713 11.4362 161.2 11.023C162.544 10.6499 164.339 10.8892 165.631 11.2658C167.815 11.9028 173.163 13.522 174.491 15.5747C175.341 16.8884 174.895 16.7213 176.13 17.6989C177.09 18.459 176.185 20.4465 176.555 21.4616C177.357 23.6695 181.387 24.162 183.048 25.4671C186.157 27.9093 188.55 29.6191 192.334 30.565" stroke="#645841" stroke-linecap="round"/>
<path d="M268.256 28.3798C269.52 25.9672 271.941 20.7356 274.78 19.6709C277.077 18.8094 278.675 16.9095 281.304 16.9095C284.049 16.9095 286.882 17.0222 289.588 17.4861C294.522 18.3318 299.357 20.9608 304.396 21.2488C307.062 21.4011 307.636 20.949 309.312 18.7302C312.567 14.4216 317.232 11.8804 320.813 7.98821C322.598 6.04747 326.022 0.523438 328.824 0.523438C337.898 0.523438 347.44 2.72753 356.012 5.56064C358.177 6.27589 362.236 7.27795 363.174 9.80889C363.469 10.6066 363.402 11.3454 363.841 12.1151C364.452 13.183 364.694 14.3968 365.237 15.5137C366.338 17.7761 367.015 18.247 368.818 19.944C370.338 21.3744 372.733 20.7329 374.765 20.7329C378.771 20.7329 382.776 20.7329 386.782 20.7329" stroke="#645841" stroke-linecap="round"/>
<path d="M388.42 20.7324C389.352 22.596 392.106 23.731 393.305 25.8303C394.427 27.7933 395.087 28.8189 395.763 30.9889C397.015 35.0073 399.951 36.3905 403.228 38.2109C406.589 40.0778 410.932 38.3031 414.304 40.9419C417.395 43.361 419.94 44.9922 421.738 48.5888" stroke="#645841" stroke-linecap="round"/>
<path d="M385.142 148.544C385.142 146.146 384.459 142.773 385.748 140.655C387.061 138.498 388.992 136.669 390.361 134.768C391.832 132.724 392.822 133.695 395.216 132.886C399.279 131.513 402.215 130.054 404.926 126.575C406.915 124.023 406.783 121.197 409.053 118.928C411.166 116.815 414.219 116.304 416.397 114.315C419.416 111.558 423.249 111.402 427.199 111.402" stroke="#645841" stroke-linecap="round"/>
</svg>
