<svg width="277" height="135" viewBox="0 0 277 135" fill="none" xmlns="http://www.w3.org/2000/svg">
<path d="M177.716 5.57436C177.716 6.39792 177.126 6.19836 176.54 6.19836C177.427 6.65491 178.275 7.00809 179.241 7.25662C179.536 7.33274 181.516 7.67042 181.516 8.1689C181.516 9.01327 179.23 9.41874 178.659 9.59938C177.757 9.88511 179.096 11.4349 179.475 11.6575C179.906 11.9115 180.113 12.0426 180.113 12.5698C180.113 13.1595 178.296 13.0997 177.83 13.1683C177.604 13.2015 177.675 13.5848 177.716 13.7448C177.977 14.7586 179.413 15.16 180.226 15.4964C180.606 15.6535 182.643 16.4015 181.835 16.8393C181.469 17.0376 180.993 17.1959 180.595 17.3064C180.334 17.3789 180.035 17.3125 179.787 17.4232C179.669 17.4754 179.607 17.6123 179.475 17.6275C178.794 17.7054 179.129 18.3924 179.531 18.7807C180.074 19.3044 180.438 19.884 180.63 20.5761C180.818 21.2542 182.004 21.4767 182.509 21.5686C183.322 21.7168 184.075 22.0682 184.87 22.2912C185.57 22.4878 184.813 22.7096 184.501 22.751L184.489 22.7525C184.253 22.7836 182.026 23.0773 182.197 23.4297C182.49 24.0325 183.528 24.6264 184.04 25.0572C184.396 25.3561 184.738 25.6089 184.962 26.0352C185.216 26.5184 185.497 27.2152 185.919 27.5533C186.502 28.0205 184.834 27.9014 184.834 28.3999C184.834 28.9733 185.804 29.3989 186.195 29.6406C187.176 30.2462 188.268 30.6622 189.272 31.2316C189.684 31.4652 190.349 31.5675 190.619 32.0052C190.831 32.3486 188.903 32.6419 188.733 32.6694C187.652 32.8452 185.987 32.8028 186.139 34.3407C186.28 35.7771 187.458 36.6363 188.393 37.5301C190.833 39.8623 184.938 38.4089 186.224 40.2523C186.798 41.0759 187.826 41.2186 188.407 41.9966C188.624 42.2872 189.047 43.0735 188.507 43.2155C187.766 43.4101 187.095 43.6388 186.323 43.6388C185.804 43.6388 185.912 43.6224 185.671 43.9015C185.151 44.5037 186.191 45.0566 186.614 45.3612C187.101 45.7127 188.135 46.2506 186.819 46.2662C185.528 46.2814 184.266 46.3189 182.984 46.3902C182.035 46.443 181.131 46.7916 180.169 46.7916C179.543 46.7916 178.895 46.8275 178.284 46.6603C177.851 46.5418 177.63 46.2212 177.249 46.0326C175.847 45.3389 174.032 45.7464 172.562 45.7464L160.844 26.9549C161.106 26.4156 161.415 26.0702 161.921 25.7142C162.473 25.3265 163.497 24.9069 163.821 24.2692C164.141 23.6406 162.576 23.6244 163.297 22.8825C163.784 22.3804 164.579 22.02 165.182 21.7002C165.61 21.4737 166.524 21.1642 166.806 20.7295C166.841 20.6753 164.074 20.8021 164.686 19.9923C165.723 18.6199 167.732 18.6775 169.096 17.8977C169.16 17.8607 170.344 17.0512 170.23 17C169.377 16.6182 168.096 17.0841 167.16 16.8249C166.202 16.5592 166.818 15.9868 167.288 15.6498C167.671 15.3758 167.953 14.9886 168.33 14.7084C168.97 14.2332 169.721 13.9032 170.315 13.3655C170.662 13.0518 171.365 12.5295 171.301 12.0007C171.27 11.7474 170.822 12.1026 170.641 12.1102C170.395 12.1205 168.12 12.2845 169.138 11.4825C169.85 10.9224 170.421 10.2873 171.208 9.81848C171.859 9.43154 172.518 9.00939 173.137 8.57046C173.298 8.45623 174.094 8.04562 173.647 8.03768C173.004 8.02627 171.918 7.94682 171.301 8.03768C171.279 8.04084 171.303 7.12621 171.807 6.86704C172.059 5.83038 173.531 2.98215 174.073 2.72337C174.904 2.32623 175.227 4.44457 176.087 4.53455C176.433 4.57078 177.716 5.08255 177.716 5.57436Z" fill="url(#paint0_linear_210_3079)"/>
<path d="M190.287 27.6349C190.287 28.4585 189.683 28.2589 189.084 28.2589C189.991 28.7155 190.859 29.0686 191.846 29.3172C192.149 29.3933 194.174 29.731 194.174 30.2295C194.174 31.0738 191.835 31.4793 191.252 31.6599C190.329 31.9457 191.699 33.4955 192.086 33.7181C192.527 33.9721 192.738 34.1032 192.738 34.6303C192.738 35.2201 190.88 35.1603 190.403 35.2288C190.172 35.2621 190.245 35.6453 190.287 35.8054C190.553 36.8191 192.022 37.2206 192.854 37.557C193.242 37.714 195.326 38.4621 194.5 38.8999C194.126 39.0982 193.638 39.2565 193.231 39.367C192.964 39.4394 192.659 39.373 192.405 39.4837C192.285 39.536 192.221 39.6729 192.086 39.6881C191.39 39.7659 191.732 40.4529 192.144 40.8412C192.699 41.365 193.071 41.9445 193.267 42.6366C193.46 43.3147 194.673 43.5373 195.189 43.6292C196.02 43.7773 196.791 44.1287 197.603 44.3517C198.32 44.5484 197.545 44.7701 197.226 44.8115L197.214 44.8131C196.973 44.8442 194.695 45.1378 194.87 45.4903C195.169 46.0931 196.231 46.687 196.755 47.1178C197.119 47.4167 197.469 47.6695 197.697 48.0958C197.957 48.5789 198.244 49.2757 198.676 49.6138C199.273 50.081 197.567 49.962 197.567 50.4604C197.567 51.0338 198.559 51.4594 198.959 51.7011C199.962 52.3067 201.079 52.7227 202.106 53.2922C202.527 53.5257 203.207 53.6281 203.483 54.0658C203.7 54.4091 201.728 54.7024 201.555 54.7299C200.449 54.9057 198.746 54.8633 198.901 56.4013C199.046 57.8376 200.25 58.6969 201.207 59.5906C203.702 61.9228 197.673 60.4695 198.988 62.3129C199.575 63.1365 200.627 63.2792 201.221 64.0572C201.443 64.3477 201.875 65.134 201.323 65.276C200.566 65.4706 199.88 65.6993 199.09 65.6993C198.558 65.6993 198.669 65.683 198.423 65.9621C197.891 66.5643 198.955 67.1172 199.387 67.4217C199.886 67.7733 200.942 68.3111 199.597 68.3267C198.277 68.342 196.986 68.3794 195.675 68.4508C194.704 68.5036 193.779 68.8522 192.796 68.8522C192.155 68.8522 191.493 68.8881 190.867 68.7208C190.425 68.6024 190.199 68.2817 189.809 68.0932C188.376 67.3995 186.519 67.8069 185.016 67.8069L173.031 49.0155C173.299 48.4761 173.616 48.1308 174.133 47.7748C174.697 47.387 175.745 46.9674 176.076 46.3297C176.404 45.7012 174.803 45.6849 175.54 44.943C176.039 44.4409 176.851 44.0806 177.469 43.7607C177.906 43.5343 178.841 43.2248 179.129 42.79C179.165 42.7358 176.335 42.8626 176.961 42.0529C178.021 40.6804 180.076 40.7381 181.471 39.9583C181.537 39.9213 182.748 39.1118 182.631 39.0606C181.759 38.6788 180.448 39.1447 179.491 38.8854C178.511 38.6197 179.141 38.0473 179.622 37.7104C180.013 37.4363 180.302 37.0491 180.688 36.7689C181.342 36.2938 182.11 35.9638 182.718 35.426C183.072 35.1124 183.791 34.5901 183.726 34.0612C183.694 33.8079 183.236 34.1631 183.051 34.1707C182.799 34.1811 180.472 34.345 181.514 33.543C182.242 32.983 182.826 32.3478 183.631 31.879C184.296 31.4921 184.971 31.0699 185.604 30.631C185.768 30.5168 186.583 30.1062 186.126 30.0982C185.468 30.0868 184.358 30.0074 183.726 30.0982C183.704 30.1014 183.729 29.1868 184.244 28.9276C184.501 27.8909 186.007 25.0427 186.561 24.7839C187.411 24.3868 187.742 26.5051 188.621 26.5951C188.974 26.6313 190.287 27.1431 190.287 27.6349Z" fill="url(#paint1_linear_210_3079)"/>
<path d="M124.61 2.505C124.61 3.21626 124.005 3.04391 123.406 3.04391C124.313 3.43821 125.181 3.74323 126.169 3.95786C126.471 4.0236 128.496 4.31524 128.496 4.74575C128.496 5.47497 126.157 5.82515 125.574 5.98116C124.652 6.22792 126.021 7.5664 126.408 7.75863C126.849 7.97803 127.06 8.09124 127.06 8.54652C127.06 9.05582 125.202 9.0042 124.726 9.06337C124.494 9.09211 124.568 9.42308 124.61 9.56132C124.876 10.4368 126.345 10.7835 127.176 11.0741C127.565 11.2097 129.649 11.8557 128.822 12.2338C128.448 12.4051 127.96 12.5418 127.553 12.6372C127.287 12.6998 126.981 12.6424 126.727 12.7381C126.607 12.7832 126.544 12.9014 126.408 12.9146C125.712 12.9818 126.054 13.5751 126.466 13.9105C127.021 14.3628 127.393 14.8633 127.59 15.461C127.782 16.0467 128.995 16.2389 129.511 16.3182C130.342 16.4462 131.113 16.7497 131.925 16.9423C132.642 17.1121 131.867 17.3036 131.548 17.3393L131.536 17.3407C131.295 17.3675 129.017 17.6212 129.192 17.9255C129.491 18.4461 130.553 18.9591 131.077 19.3311C131.441 19.5893 131.791 19.8076 132.02 20.1757C132.279 20.593 132.567 21.1948 132.999 21.4868C133.595 21.8903 132.745 22.2986 132.745 22.729C132.745 23.2243 132.881 23.0807 133.281 23.2895C134.284 23.8125 135.401 24.1718 136.428 24.6635C136.849 24.8653 136.53 25.5272 136.807 25.9053C137.024 26.2018 136.05 25.8815 135.877 25.9053C134.771 26.0571 133.069 26.0205 133.223 27.3487C133.368 28.5892 134.573 29.3312 135.529 30.1031C138.024 32.1173 131.996 30.8621 133.31 32.4542C133.898 33.1654 132.817 32.4189 133.412 33.0908C131.15 32.5552 132.281 33.6367 131.729 33.7593C130.971 33.9273 134.202 35.3788 133.412 35.3788C132.881 35.3788 132.991 35.3647 132.745 35.6057C132.213 36.1258 131.587 36.5045 132.02 36.7675C132.519 37.0712 132.058 37.4328 130.713 37.4462C129.393 37.4594 131.309 37.6935 129.997 37.7551C129.027 37.8007 128.102 38.1018 127.118 38.1018C126.477 38.1018 125.815 38.1327 125.19 37.9883C124.747 37.886 124.521 37.6091 124.131 37.4462C122.698 36.8471 120.841 37.199 119.338 37.199L107.354 20.9701C107.621 20.5042 107.938 20.206 108.456 19.8985C109.019 19.5636 110.067 19.2013 110.399 18.6505C110.726 18.1077 109.125 18.0937 109.862 17.4529C110.361 17.0193 111.173 16.7081 111.791 16.4318C112.228 16.2363 113.163 15.969 113.451 15.5935C113.487 15.5467 110.658 15.6562 111.283 14.9569C112.344 13.7716 114.399 13.8214 115.793 13.1479C115.859 13.116 117.07 12.4169 116.953 12.3726C116.081 12.0429 114.77 12.4453 113.814 12.2214C112.833 11.9919 113.463 11.4975 113.944 11.2066C114.336 10.9699 114.624 10.6355 115.01 10.3935C115.664 9.98313 116.432 9.69812 117.04 9.23369C117.395 8.96283 118.114 8.51173 118.048 8.05501C118.017 7.83624 117.558 8.14301 117.374 8.14955C117.121 8.1585 114.795 8.3001 115.837 7.60748C116.564 7.12377 117.148 6.57526 117.954 6.17038C118.619 5.8362 119.294 5.47162 119.926 5.09254C120.09 4.99389 120.905 4.63928 120.448 4.63242C119.79 4.62256 118.68 4.55395 118.048 4.63242C118.026 4.63515 118.051 3.84523 118.566 3.62141C118.823 2.72611 120.329 0.266271 120.883 0.0427862C121.733 -0.300206 122.064 1.52928 122.943 1.60699C123.297 1.63827 124.61 2.08025 124.61 2.505Z" fill="url(#paint2_linear_210_3079)"/>
<path d="M85.8317 23.4474C85.8317 24.221 86.3958 24.0336 86.955 24.0336C86.1084 24.4625 85.2985 24.7942 84.3768 25.0277C84.0945 25.0992 82.2045 25.4164 82.2045 25.8847C82.2045 26.6779 84.3873 27.0588 84.9317 27.2285C85.7927 27.4969 84.5146 28.9528 84.1535 29.1619C83.7412 29.4005 83.5444 29.5237 83.5444 30.0189C83.5444 30.5728 85.2787 30.5167 85.7234 30.5811C85.9394 30.6123 85.8709 30.9723 85.8317 31.1227C85.5834 32.075 84.2125 32.4521 83.4361 32.7681C83.0737 32.9157 81.1287 33.6184 81.9 34.0296C82.2494 34.2159 82.7046 34.3646 83.0843 34.4684C83.3333 34.5365 83.6183 34.4741 83.8557 34.5781C83.9677 34.6272 84.0267 34.7558 84.1535 34.7701C84.803 34.8432 84.4833 35.4886 84.0993 35.8533C83.5813 36.3453 83.2338 36.8898 83.0504 37.5399C82.8708 38.1769 81.7386 38.386 81.2571 38.4723C80.4811 38.6115 79.7618 38.9416 79.0037 39.1511C78.3351 39.3358 79.0582 39.5441 79.3556 39.583L79.3669 39.5845C79.5918 39.6136 81.7183 39.8895 81.5549 40.2206C81.2754 40.7869 80.2848 41.3448 79.7954 41.7495C79.4559 42.0303 79.1293 42.2678 78.9157 42.6682C78.6735 43.1221 78.4052 43.7766 78.0021 44.0942C77.4452 44.5331 79.0375 44.4213 79.0375 44.8895C79.0375 45.4282 78.1117 45.828 77.7382 46.0551C76.8024 46.624 75.76 47.0147 74.8013 47.5497C74.408 47.7691 73.7738 47.8652 73.5155 48.2764C73.313 48.5989 75.154 48.8745 75.3156 48.9003C76.3477 49.0654 77.9368 49.0256 77.7924 50.4703C77.6575 51.8196 76.5329 52.6268 75.6404 53.4664C73.3116 55.6573 78.9383 54.292 77.7112 56.0237C77.1629 56.7973 76.1818 56.9314 75.6269 57.6623C75.4197 57.9352 75.0165 58.6738 75.5321 58.8072C76.2388 58.99 76.8791 59.2049 77.6164 59.2049C78.1122 59.2049 78.009 59.1895 78.239 59.4517C78.7353 60.0174 77.7424 60.5368 77.339 60.8229C76.8733 61.1531 75.8872 61.6584 77.1427 61.673C78.375 61.6874 79.5795 61.7225 80.8037 61.7896C81.7091 61.8392 82.5726 62.1667 83.4903 62.1667C84.0886 62.1667 84.7065 62.2004 85.2903 62.0433C85.7037 61.932 85.9147 61.6307 86.2783 61.4536C87.6162 60.802 89.349 61.1848 90.7517 61.1848L101.938 43.5322C101.687 43.0255 101.392 42.7011 100.909 42.3667C100.383 42.0024 99.405 41.6082 99.0953 41.0092C98.79 40.4187 100.284 40.4035 99.5961 39.7065C99.1305 39.2349 98.3724 38.8964 97.796 38.5959C97.388 38.3832 96.5151 38.0924 96.2464 37.684C96.2129 37.6331 98.8537 37.7522 98.2697 36.9916C97.28 35.7023 95.3621 35.7565 94.0606 35.0239C93.9988 34.9891 92.8686 34.2287 92.9778 34.1806C93.7921 33.8219 95.0151 34.2596 95.908 34.0161C96.823 33.7665 96.2353 33.2287 95.7862 32.9122C95.4209 32.6548 95.1516 32.291 94.7914 32.0278C94.1807 31.5815 93.464 31.2715 92.8966 30.7663C92.5657 30.4717 91.8947 29.981 91.956 29.4842C91.9854 29.2463 92.4132 29.58 92.5853 29.5871C92.8208 29.5968 94.9924 29.7508 94.02 28.9975C93.3409 28.4713 92.7959 27.8747 92.044 27.4343C91.4234 27.0708 90.7934 26.6742 90.2033 26.2619C90.0497 26.1546 89.2891 25.7689 89.7161 25.7614C90.3301 25.7507 91.3663 25.6761 91.956 25.7614C91.9765 25.7644 91.9532 24.9052 91.4726 24.6617C91.2323 23.6879 89.8267 21.0123 89.3099 20.7692C88.5168 20.3961 88.2079 22.3861 87.3875 22.4706C87.0572 22.5046 85.8317 22.9854 85.8317 23.4474Z" fill="url(#paint3_linear_210_3079)"/>
<path d="M153.733 14.3733L119.879 69.1904L108.03 31.0858L89.4102 69.1904H80.2695L108.03 18.7186L113.957 25.0693L132.066 6.68555H156.441L190.296 69.1904H182.848L153.733 14.3733Z" fill="url(#paint4_linear_210_3079)"/>
<path d="M155.428 24.7344L179.803 70.8609" stroke="#3F5540"/>
<path d="M139.178 45.459L122.251 72.0009" stroke="#3F5540"/>
<path d="M18.2941 93.896V82.6H21.2381V105H18.2941V97.352C17.9741 90.12 11.1261 83.208 4.82212 83.208V105H1.87812V82.6H4.82212C10.9021 82.6 16.6621 88.36 18.2941 93.896ZM31.5446 82.6H34.8406L43.6406 105H40.4726L36.8886 95.88H27.3526L23.9926 105H23.3206L31.5446 82.6ZM31.9606 83.304L27.5766 95.272H36.6646L31.9606 83.304ZM80.1739 101.256L80.6219 101.672C78.0939 104.328 73.2619 105.608 69.6139 105.608C61.9979 105.608 57.4219 100.872 57.4219 93.832C57.4219 86.92 62.5099 81.992 69.8059 81.992C75.2139 81.992 78.2859 83.976 79.1499 88.008L78.5099 88.136C77.5819 83.88 74.0939 82.6 69.9659 82.6C63.8539 82.6 60.5579 86.984 60.5899 93.832C60.5899 101.064 64.1419 105 69.8059 105C73.0699 105 77.8059 103.752 80.1739 101.256ZM83.0506 82.6H99.6906V83.208H85.9946V93.032H96.8106V93.64H85.9946V104.392H99.6906V105H83.0506V82.6ZM109.566 83.304L101.79 105H101.118L109.15 82.6H112.446L121.022 105H117.886L109.566 83.304ZM126.081 105H123.137V82.6H126.081V105ZM156.841 82.6H157.513L150.185 103.336C149.705 104.712 148.361 105.608 146.921 105.608C145.097 105.608 143.497 104.04 143.497 102.184C143.497 100.36 145.033 98.792 146.921 98.76V99.4C145.385 99.4 144.137 100.648 144.137 102.152C144.137 103.656 145.353 105 146.953 105C148.137 104.968 149.161 104.264 149.577 103.144L150.537 100.456L140.233 82.6H143.657L151.785 96.904L156.841 82.6ZM170.662 105L178.694 82.6H181.99L190.342 104.424C192.294 104.68 193.446 105.672 193.446 107.56C193.446 109.736 191.846 110.632 189.318 110.632V110.024C191.654 110.024 192.806 109.384 192.806 107.56C192.806 105.768 191.59 105.064 189.542 105H170.662ZM179.11 83.336L171.558 104.36L187.174 104.392L179.11 83.336ZM197.187 105H194.243V82.6H197.187V105ZM199.311 105L207.343 82.6H210.639L218.991 104.424C220.943 104.68 222.095 105.672 222.095 107.56C222.095 109.736 220.495 110.632 217.967 110.632V110.024C220.303 110.024 221.455 109.384 221.455 107.56C221.455 105.768 220.239 105.064 218.191 105H199.311ZM207.759 83.336L200.207 104.36L215.823 104.392L207.759 83.336ZM232.822 82.6H233.494L226.166 103.336C225.686 104.712 224.342 105.608 222.902 105.608C221.078 105.608 219.478 104.04 219.478 102.184C219.478 100.36 221.014 98.792 222.902 98.76V99.4C221.366 99.4 220.118 100.648 220.118 102.152C220.118 103.656 221.334 105 222.934 105C224.118 104.968 225.142 104.264 225.558 103.144L226.518 100.456L216.214 82.6H219.638L227.766 96.904L232.822 82.6ZM256.133 101.256L256.581 101.672C254.053 104.328 249.221 105.608 245.573 105.608C237.957 105.608 233.381 100.872 233.381 93.832C233.381 86.92 238.469 81.992 245.765 81.992C251.173 81.992 254.245 83.976 255.109 88.008L254.469 88.136C253.541 83.88 250.053 82.6 245.925 82.6C239.813 82.6 236.517 86.984 236.549 93.832C236.549 101.064 240.101 105 245.765 105C249.029 105 253.765 103.752 256.133 101.256ZM257.6 90.344C257.6 85.16 260.288 81.992 264.768 81.992C269.728 81.992 271.36 85.736 272.192 89.96V82.6H275.136V104.968H272.192V97.928C270.848 98.504 268.608 98.568 267.104 98.568L261.984 105H258.24L263.552 98.28C259.872 97.512 257.6 95.144 257.6 90.344ZM272.192 97.32C272.192 92.552 271.744 82.76 265.472 82.76C261.632 82.76 260.736 86.408 260.736 90.408C260.736 97.224 263.744 98.024 267.424 98.024C269.536 98.024 271.008 97.704 272.192 97.32Z" fill="#3F5540"/>
<path d="M86.5819 120.8H94.9019V121.104H88.0539V126.016H93.4619V126.32H88.0539V131.696H94.9019V132H86.5819V120.8ZM99.0876 126.032C102.656 126.032 104.624 127.888 104.624 131.488V132H103.104V131.488C103.12 127.792 101.808 126.336 99.1836 126.336H97.5676V132H96.0956V120.8H97.5676V126.032H98.7676V124.976C98.7676 122.896 99.0876 120.496 101.712 120.496C103.136 120.496 104.176 121.36 104.176 122.816C104.176 124.304 103.104 125.216 101.376 125.216V124.912C102.944 124.912 103.856 124.128 103.856 122.816C103.856 121.888 103.312 120.8 101.712 120.8C99.2956 120.8 99.0876 123.088 99.0876 124.976V126.032ZM111.397 120.496C114.741 120.496 117.797 122.64 117.797 126.4C117.797 130.16 114.741 132.304 111.397 132.304C108.053 132.304 104.981 130.16 104.981 126.4C104.981 122.64 108.053 120.496 111.397 120.496ZM111.397 132C114.277 132 116.229 130.192 116.229 126.4C116.229 122.592 114.277 120.8 111.397 120.8C108.517 120.8 106.549 122.592 106.549 126.4C106.549 130.208 108.517 132 111.397 132ZM119.154 127.36V127.056H123.858V127.36H119.154ZM136.587 130.128L136.811 130.336C135.547 131.664 133.131 132.304 131.307 132.304C127.499 132.304 125.211 129.936 125.211 126.416C125.211 122.96 127.755 120.496 131.403 120.496C134.107 120.496 135.643 121.488 136.075 123.504L135.755 123.568C135.291 121.44 133.547 120.8 131.483 120.8C128.427 120.8 126.779 122.992 126.795 126.416C126.795 130.032 128.571 132 131.403 132C133.035 132 135.403 131.376 136.587 130.128ZM141.345 120.8H142.993L147.393 132H145.809L144.017 127.44H139.249L137.569 132H137.233L141.345 120.8ZM141.553 121.152L139.361 127.136H143.905L141.553 121.152ZM147.966 132L151.982 120.8H153.63L157.806 131.712C158.782 131.84 159.358 132.336 159.358 133.28C159.358 134.368 158.558 134.816 157.294 134.816V134.512C158.462 134.512 159.038 134.192 159.038 133.28C159.038 132.384 158.43 132.032 157.406 132H147.966ZM152.19 121.168L148.414 131.68L156.222 131.696L152.19 121.168ZM167.612 126.448C166.812 129.184 164.236 132 161.228 132H159.756V120.8H161.228V131.696C164.38 131.696 167.468 128.24 167.612 124.624V120.8H169.084V132H167.612V126.448ZM170.63 120.8H178.726V121.104H172.102V125.616H175.734C177.702 125.616 180.07 126.112 180.07 128.88C180.07 131.328 178.262 132 176.134 132H170.63V120.8ZM175.782 131.696C177.478 131.696 178.502 130.96 178.502 128.88C178.502 126.704 177.318 125.92 175.462 125.92H172.102V131.696H175.782ZM184.838 120.8H186.486L190.886 132H189.302L187.51 127.44H182.742L181.062 132H180.726L184.838 120.8ZM185.046 121.152L182.854 127.136H187.398L185.046 121.152Z" fill="#B4854F"/>
<defs>
<linearGradient id="paint0_linear_210_3079" x1="173.708" y1="5.68208" x2="178.992" y2="38.126" gradientUnits="userSpaceOnUse">
<stop stop-color="#2B3C2C"/>
<stop offset="1" stop-color="#1F2C1F"/>
</linearGradient>
<linearGradient id="paint1_linear_210_3079" x1="186.911" y1="36.4331" x2="191.441" y2="60.2195" gradientUnits="userSpaceOnUse">
<stop stop-color="#2E432F"/>
<stop offset="1" stop-color="#283A29" stop-opacity="0.99"/>
</linearGradient>
<linearGradient id="paint2_linear_210_3079" x1="120.51" y1="2.59804" x2="124.393" y2="30.8271" gradientUnits="userSpaceOnUse">
<stop stop-color="#2B3C2C"/>
<stop offset="1" stop-color="#1F2C1F"/>
</linearGradient>
<linearGradient id="paint3_linear_210_3079" x1="88.9826" y1="31.7124" x2="84.7016" y2="54.047" gradientUnits="userSpaceOnUse">
<stop stop-color="#2E432F"/>
<stop offset="1" stop-color="#283A29" stop-opacity="0.99"/>
</linearGradient>
<linearGradient id="paint4_linear_210_3079" x1="130.5" y1="10" x2="174.5" y2="72" gradientUnits="userSpaceOnUse">
<stop stop-color="#3F5540"/>
<stop offset="1" stop-color="#374E39"/>
</linearGradient>
</defs>
</svg>
